<svg width="622" height="505" viewBox="0 0 622 505" fill="none" xmlns="http://www.w3.org/2000/svg">
<path d="M503.388 370.752C478.329 396.318 443.277 410.775 405.308 410.826C367.314 410.902 332.237 396.546 307.178 371.056C294.928 358.628 285.949 344.374 280.369 329.131C274.916 314.167 272.836 298.163 274.231 282.311C275.576 266.839 280.141 251.799 287.674 238.204C295.004 224.914 305.073 212.917 317.501 202.772C341.85 182.912 372.843 172.184 405.308 172.133C437.773 172.082 468.742 182.76 493.116 202.518C505.518 212.638 515.587 224.584 522.892 237.849C530.425 251.444 535.016 266.459 536.36 281.93C537.755 297.808 535.65 313.786 530.197 328.776C524.617 343.994 515.613 358.273 503.388 370.752Z" fill="#111111"/>
<path d="M324.288 283.935C325.429 263.264 335.574 245.028 350.843 232.118C365.833 219.412 386.022 211.676 408.012 211.676C430.027 211.701 450.191 219.437 465.18 232.118C480.449 245.054 490.594 263.264 491.761 283.935C492.927 305.19 484.38 324.948 469.39 339.582C454.122 354.47 432.36 363.83 408.012 363.83C383.663 363.83 361.876 354.47 346.607 339.582C331.643 324.948 323.121 305.19 324.288 283.935Z" fill="#686868"/>
<path d="M190.906 325.782C191.058 333.847 193.645 349.573 197.5 361.874C205.642 387.871 219.439 411.941 238.665 433.144C258.397 454.931 282.644 472.432 310.696 484.834C340.193 497.897 372.126 504.567 405.275 504.491C438.425 504.44 470.357 497.668 499.829 484.505C527.856 471.95 552.103 454.399 571.81 432.561C591.01 411.256 604.782 387.161 612.924 361.164C616.982 348.203 619.594 334.837 620.659 321.318C621.674 308.129 621.243 294.839 619.391 281.726C615.739 256.008 606.836 231.887 593.14 209.898C580.586 189.709 564.455 172.005 545.255 157.091L545.28 157.066L351.556 8.33645C351.404 8.20964 351.226 8.05746 351.074 7.93064C338.316 -1.80882 316.961 -1.78345 302.986 8.00673C288.833 17.8984 287.235 34.2576 299.79 44.5804L299.739 44.6058L380.546 110.347L134.194 110.601H133.864C113.523 110.626 93.9423 123.993 90.0617 140.859C86.1051 158.055 99.928 172.309 121.106 172.411L121.081 172.487L245.944 172.233L23.1283 343.257C22.8493 343.485 22.5449 343.688 22.2913 343.891C1.29061 359.972 -5.50672 386.755 7.70749 403.698C21.15 420.919 49.7089 420.945 70.9633 403.774L192.554 304.274C192.554 304.274 190.779 317.717 190.906 325.782ZM503.38 370.751C478.321 396.317 443.269 410.774 405.301 410.825C367.307 410.901 332.229 396.545 307.171 371.055C294.92 358.627 285.942 344.373 280.362 329.13C274.909 314.166 272.829 298.161 274.224 282.31C275.568 266.838 280.133 251.798 287.666 238.203C294.996 224.913 305.065 212.916 317.493 202.771C341.842 182.911 372.836 172.183 405.301 172.132C437.766 172.081 468.734 182.759 493.108 202.517C505.511 212.637 515.58 224.583 522.884 237.848C530.417 251.442 535.008 266.458 536.352 281.929C537.747 297.806 535.642 313.785 530.189 328.775C524.609 343.993 515.605 358.272 503.38 370.751Z" fill="#686868"/>
</svg>
