<svg width="1500" height="1500" viewBox="0 0 1500 1500" fill="none" xmlns="http://www.w3.org/2000/svg">
<path d="M1124.81 1124.35C1331.8 917.359 1331.8 581.768 1124.81 374.782C917.822 167.795 582.231 167.795 375.245 374.782C168.259 581.768 168.258 917.359 375.245 1124.35C582.231 1331.33 917.823 1331.33 1124.81 1124.35Z" fill="url(#paint0_linear_296_12825)"/>
<path d="M1115.81 625.439L981.727 606.019L945.2 600.779L858.122 587.987L742.84 354.648L627.711 587.987L370.021 625.439L556.508 807.301L512.429 1063.91L742.84 942.773L973.404 1063.91L929.326 807.301L1115.81 625.439Z" fill="url(#paint1_linear_296_12825)"/>
<g style="mix-blend-mode:multiply" opacity="0.5">
<path d="M368.634 625.44L748.234 724.694L555.12 807.303L368.634 625.44Z" fill="#C10065"/>
</g>
<g style="mix-blend-mode:multiply" opacity="0.5">
<path d="M1114.45 625.44L748.254 724.694L928.113 807.303L1114.45 625.44Z" fill="#C10065"/>
</g>
<g style="mix-blend-mode:multiply" opacity="0.7">
<path d="M741.606 942.772L748.234 724.691L511.196 1063.91L741.606 942.772Z" fill="#C10065"/>
</g>
<g style="mix-blend-mode:multiply" opacity="0.5">
<path d="M972.04 1063.91L748.256 724.691L741.629 942.772L972.04 1063.91Z" fill="#C10065"/>
</g>
<g style="mix-blend-mode:soft-light">
<path d="M741.629 354.648L748.256 724.692L856.911 587.987L741.629 354.648Z" fill="#F7FFFF"/>
</g>
<g style="mix-blend-mode:soft-light">
<path d="M1114.45 625.445L748.254 724.698L856.909 587.993L1114.45 625.445Z" fill="#F7FFFF"/>
</g>
<g style="mix-blend-mode:soft-light">
<path d="M1114.45 625.445L748.254 724.698L856.909 587.993L1114.45 625.445Z" fill="#F7FFFF"/>
</g>
<g style="mix-blend-mode:soft-light">
<path d="M626.324 587.993L748.234 724.698L368.634 625.445L626.324 587.993Z" fill="#F7FFFF"/>
</g>
<g style="mix-blend-mode:color-dodge" opacity="0.8">
<path d="M856.891 669.21C837.625 685.547 853.962 696.028 853.962 696.028L952.599 669.365C952.599 669.365 901.123 632.53 856.891 669.21Z" fill="white"/>
</g>
<g style="mix-blend-mode:soft-light" opacity="0.4">
<path d="M441.534 785.269C507.652 870.189 528.304 1044.35 441.534 1005.66C354.764 966.977 287.413 712.832 341.972 725.007C381.51 731.983 417.018 753.474 441.534 785.269Z" fill="#F7FFFF"/>
</g>
<g style="mix-blend-mode:soft-light" opacity="0.4">
<path d="M605.978 1130.65C666.856 1181.51 967.546 1146.06 901.582 1087.49C835.618 1028.93 757.787 990.705 706.619 1010.43C655.451 1030.16 576.695 1106.14 605.978 1130.65Z" fill="#F7FFFF"/>
</g>
<g style="mix-blend-mode:soft-light" opacity="0.4">
<path d="M977.4 826.877C967.074 948.016 1023.64 1024 1087.6 966.973C1151.56 909.948 1184.08 790.35 1152.48 757.06C1120.89 723.77 982.023 772.935 977.4 826.877Z" fill="#F7FFFF"/>
</g>
<g style="mix-blend-mode:multiply" opacity="0.3">
<path d="M512.428 1064.07C512.428 1064.07 687.201 981.618 743.609 958.809L973.404 1064.07L742.222 942.934L512.428 1064.07Z" fill="#D01BDC"/>
</g>
<g style="mix-blend-mode:soft-light">
<path d="M568.245 595.388C597.99 586.912 631.743 579.976 687.38 467.314L627.736 587.99L568.245 595.388Z" fill="#F7FFFF"/>
</g>
<g style="mix-blend-mode:soft-light">
<path d="M791.865 453.598C791.865 453.598 849.507 573.659 916.241 596.469L858.137 587.992L791.865 453.598Z" fill="#F7FFFF"/>
</g>
<g style="mix-blend-mode:multiply" opacity="0.3">
<path d="M368.634 625.44L748.234 724.694L539.862 904.091L368.634 625.44Z" fill="#D01BDC"/>
</g>
<g style="mix-blend-mode:multiply" opacity="0.3">
<path d="M1114.45 625.44L748.254 724.694L950.152 927.98L1114.45 625.44Z" fill="#D01BDC"/>
</g>
<g style="mix-blend-mode:multiply" opacity="0.3">
<path d="M512.428 1063.91L748.233 724.691L973.404 1063.91L742.839 1027.54L512.428 1063.91Z" fill="#D01BDC"/>
</g>
<g style="mix-blend-mode:soft-light" opacity="0.4">
<path d="M657.143 547.611C632.638 615.732 726.035 663.047 738.519 642.241C751.003 621.435 743.143 504.611 727.422 488.12C711.702 471.629 667.161 519.869 657.143 547.611Z" fill="#F7FFFF"/>
</g>
<g style="mix-blend-mode:soft-light" opacity="0.4">
<path d="M580.732 895.922C630.359 902.703 657.793 846.141 668.582 807.302C685.535 744.575 490.572 883.746 580.732 895.922Z" fill="#F7FFFF"/>
</g>
<path d="M265.384 165.082C265.384 166.623 265.384 168.318 265.384 169.859C266.015 175.108 267.203 180.275 268.928 185.272C285.509 223.258 307.238 258.783 333.505 290.844V291.769C338.283 298.088 342.29 303.174 345.064 307.181L348.609 311.497H380.974C411.798 269.73 440.311 194.365 440.619 164.311C440.726 161.719 440.466 159.125 439.848 156.605C435.886 146.37 431.199 136.429 425.823 126.86C401.318 80.6235 353.695 3.56302 343.369 4.95011C337.05 5.72072 302.527 62.8996 281.72 111.294C273.453 128.242 267.938 146.399 265.384 165.082Z" fill="url(#paint2_linear_296_12825)"/>
<path style="mix-blend-mode:multiply" opacity="0.5" d="M265.384 165.079C265.384 166.62 265.384 168.315 265.384 169.856C266.015 175.105 267.203 180.272 268.928 185.268C285.509 223.255 307.238 258.78 333.505 290.841V291.766C338.283 298.085 342.29 303.171 345.064 307.178L348.609 311.493H380.974C411.798 269.727 440.311 194.362 440.619 164.308C437.484 178.068 430.331 190.585 420.068 200.272C409.806 209.959 396.896 216.377 382.978 218.713C373.56 220.313 363.967 220.624 354.465 219.637H349.688H345.989C336.425 218.144 327.03 215.718 317.939 212.394C302.616 202.069 291.003 187.108 284.803 169.702C283.586 148.775 287.17 127.846 295.283 108.516C307.483 71.9298 324.152 36.9886 344.91 4.48462C338.591 5.25522 304.068 62.4341 283.262 110.828C274.413 127.828 268.376 146.149 265.384 165.079Z" fill="url(#paint3_linear_296_12825)"/>
<path d="M372.351 159.379C386.992 217.482 358.634 310.725 358.634 310.725C358.634 310.725 361.254 225.034 349.078 181.11C336.903 137.185 367.573 141.346 372.351 159.379Z" fill="url(#paint4_linear_296_12825)"/>
<g style="mix-blend-mode:soft-light">
<path d="M345.225 163.389C360.637 215.328 358.479 310.729 358.479 310.729L345.225 163.389Z" fill="#F7FFFF"/>
</g>
<g style="mix-blend-mode:soft-light">
<path d="M422.754 118.689C401.639 134.101 353.862 15.7362 368.349 30.5318C388.015 58.9443 406.175 88.3706 422.754 118.689Z" fill="#F7FFFF"/>
</g>
<path style="mix-blend-mode:multiply" opacity="0.5" d="M265.681 170.17C266.141 175.447 267.334 180.634 269.226 185.582C286.486 223.211 308.164 258.651 333.802 291.155V292.08C339.813 300.094 344.129 305.488 345.362 307.492C357.229 319.513 346.749 299.786 303.903 222.571C285.717 187.586 264.448 158.149 265.681 170.17Z" fill="url(#paint5_linear_296_12825)"/>
<g style="mix-blend-mode:multiply" opacity="0.5">
<path d="M333.798 290.846V291.77C339.809 299.785 344.125 305.179 345.358 307.182C347.431 277.679 347.431 248.066 345.358 218.563C339.039 167.241 331.178 121.929 320.081 115.61C312.601 111.052 304.028 108.602 295.268 108.521C291.06 108.618 286.896 109.399 282.939 110.832C274.379 127.984 268.654 146.409 265.985 165.391C265.985 166.932 265.985 168.628 265.985 170.169C266.445 175.446 267.638 180.633 269.53 185.581C286.039 223.442 307.664 258.861 333.798 290.846Z" fill="#C10065"/>
</g>
<path d="M179.855 447.581C181.65 447.733 183.454 447.733 185.249 447.581C189.706 446.983 194.094 445.95 198.35 444.499C231.332 434.018 278.03 401.037 304.539 381.001H305.31C311.937 376.069 317.177 371.908 320.722 369.288L324.883 365.897V333.532C283.425 302.707 208.522 273.579 178.622 272.962C176.061 272.678 173.477 272.678 170.916 272.962C160.674 276.85 150.733 281.487 141.171 286.833C131.153 292.073 119.594 298.546 107.727 305.327C65.3435 329.679 18.3365 360.04 19.2612 368.055C20.186 376.069 141.171 446.194 179.855 447.581Z" fill="url(#paint6_linear_296_12825)"/>
<path style="mix-blend-mode:multiply" opacity="0.5" d="M179.859 447.584C181.654 447.735 183.458 447.735 185.253 447.584C189.71 446.985 194.097 445.953 198.353 444.501C231.335 434.021 278.034 401.039 304.543 381.004H305.313C311.94 376.072 317.18 371.91 320.725 369.29L324.887 365.9V333.534C283.428 302.71 208.525 273.581 178.626 272.965C192.343 275.937 204.879 282.888 214.666 292.949C224.453 303.01 231.055 315.733 233.647 329.527C234.816 336.656 235.229 343.888 234.88 351.104C234.88 353.416 234.88 355.728 234.88 357.885C234.88 359.427 234.88 361.122 234.88 362.663C233.383 373.208 230.695 383.549 226.866 393.487C216.429 408.664 201.418 420.112 184.02 426.161C163.984 430.631 97.7123 414.756 21.4225 366.208C20.9601 376.688 141.175 446.197 179.859 447.584Z" fill="url(#paint7_linear_296_12825)"/>
<path d="M161.347 350.955C218.217 299.787 326.102 355.116 326.102 355.116C326.102 355.116 240.719 352.034 196.794 363.901C152.87 375.768 154.566 357.12 161.347 350.955Z" fill="url(#paint8_linear_296_12825)"/>
<g style="mix-blend-mode:soft-light">
<path d="M178.607 367.592C230.546 352.18 325.639 355.417 325.639 355.417L178.607 367.592Z" fill="#F7FFFF"/>
</g>
<g style="mix-blend-mode:soft-light">
<path d="M46.3706 343.705C56.5426 352.798 103.241 335.382 129.133 316.425C142.388 306.87 150.248 296.852 144.546 289.763L141.463 286.218L108.019 304.712L46.3706 343.705Z" fill="#F7FFFF"/>
</g>
<path style="mix-blend-mode:multiply" opacity="0.5" d="M236.265 408.593C313.325 366.364 333.361 356.037 321.339 367.905C316.407 372.682 220.544 444.965 184.634 446.969C172.921 447.585 202.821 427.087 236.265 408.593Z" fill="url(#paint9_linear_296_12825)"/>
<g style="mix-blend-mode:multiply" opacity="0.5">
<path d="M108.506 304.711H110.201C117.01 307.501 123.392 311.236 129.158 315.808C141.55 325.7 152.451 337.327 161.523 350.331C179.964 341.623 200.397 338.005 220.706 339.851C254.018 341.175 287.065 346.347 319.189 355.263H321.655H325.354V332.145C283.896 301.32 208.992 272.192 179.093 271.575C176.532 271.291 173.948 271.291 171.387 271.575C161.145 275.463 151.203 280.1 141.642 285.446C131.932 291.457 120.373 297.93 108.506 304.711Z" fill="#C10065"/>
</g>
<path d="M142.835 287.145C176.125 323.209 324.39 340.008 324.39 340.008L350.898 314.887C343.655 256.629 307.899 173.404 284.781 148.744C282.848 146.485 280.557 144.558 277.999 143.042C256.114 130.404 91.359 83.243 81.6493 94.802C74.868 102.97 113.09 254.779 142.835 287.145Z" fill="url(#paint10_linear_296_12825)"/>
<path style="mix-blend-mode:multiply" opacity="0.5" d="M142.835 287.147C176.125 323.212 324.39 340.011 324.39 340.011L350.898 314.889C343.655 256.632 307.899 173.406 284.781 148.747C331.017 239.37 221.283 282.678 221.283 282.678C221.283 282.678 197.857 289.613 164.412 267.266C145.301 254.32 102.764 195.446 81.6493 95.4211C74.868 102.973 113.09 254.782 142.835 287.147Z" fill="url(#paint11_linear_296_12825)"/>
<path d="M205.89 204.073C282.951 225.034 331.807 333.072 331.807 333.072C331.807 333.072 267.23 261.406 223.152 235.206C179.073 209.005 195.872 200.991 205.89 204.073Z" fill="url(#paint12_linear_296_12825)"/>
<g style="mix-blend-mode:soft-light">
<path d="M206.361 223.49C259.379 254.314 331.815 333.07 331.815 333.07L206.361 223.49Z" fill="#F7FFFF"/>
</g>
<g style="mix-blend-mode:soft-light">
<path d="M246.286 130.714C240.891 159.381 98.7916 93.5711 121.756 97.5782C163.798 106.516 205.361 117.576 246.286 130.714Z" fill="#F7FFFF"/>
</g>
<path d="M1218.76 165.082C1218.76 166.623 1218.76 168.318 1218.76 169.859C1218.19 175.104 1217.05 180.271 1215.37 185.272C1198.91 223.284 1177.22 258.816 1150.95 290.844L1150.18 291.769C1145.4 298.088 1141.39 303.174 1138.77 307.181L1135.38 311.497H1103.02C1072.19 269.73 1043.53 194.365 1043.22 164.311C1043.15 161.711 1043.47 159.116 1044.14 156.605C1047.97 146.311 1052.66 136.36 1058.17 126.86C1082.52 80.6235 1130.3 3.56302 1140.47 4.95011C1146.94 5.72072 1181.31 62.8996 1202.12 111.294C1210.58 128.188 1216.2 146.36 1218.76 165.082Z" fill="url(#paint13_linear_296_12825)"/>
<path style="mix-blend-mode:multiply" opacity="0.5" d="M1218.75 165.079C1218.75 166.62 1218.75 168.315 1218.75 169.856C1218.18 175.101 1217.05 180.268 1215.36 185.268C1198.9 223.28 1177.21 258.813 1150.94 290.841L1150.17 291.766C1145.39 298.085 1141.39 303.171 1138.77 307.178L1135.38 311.493H1103.01C1072.19 269.727 1043.52 194.362 1043.21 164.308C1046.38 178.08 1053.56 190.602 1063.85 200.288C1074.14 209.973 1087.07 216.386 1101.01 218.713C1110.37 220.315 1119.91 220.626 1129.36 219.637H1134.14H1138C1147.51 218.159 1156.86 215.732 1165.89 212.394C1181.21 202.069 1192.83 187.108 1199.03 169.702C1200.44 148.822 1197.07 127.895 1189.16 108.516C1176.96 71.9298 1160.29 36.9886 1139.54 4.48462C1146.01 5.25522 1180.38 62.4341 1201.18 110.828C1210.02 127.809 1215.95 146.144 1218.75 165.079Z" fill="url(#paint14_linear_296_12825)"/>
<path d="M1112.14 159.379C1096.73 217.482 1125.86 310.725 1125.86 310.725C1125.86 310.725 1123.24 225.034 1135.41 181.11C1147.59 137.185 1116.61 141.346 1112.14 159.379Z" fill="url(#paint15_linear_296_12825)"/>
<g style="mix-blend-mode:soft-light">
<path d="M1138.96 163.389C1123.54 215.328 1125.86 310.729 1125.86 310.729L1138.96 163.389Z" fill="#F7FFFF"/>
</g>
<g style="mix-blend-mode:soft-light">
<path d="M1061.42 118.689C1082.54 134.101 1130.47 15.7362 1115.83 30.5318C1096.22 58.9802 1078.06 88.4037 1061.42 118.689Z" fill="#F7FFFF"/>
</g>
<path style="mix-blend-mode:multiply" opacity="0.5" d="M1218.61 170.17C1218.13 175.429 1216.99 180.607 1215.22 185.582C1198.07 223.236 1176.44 258.684 1150.8 291.155L1150.03 292.08C1144.02 300.094 1139.7 305.488 1138.62 307.492C1126.76 319.513 1137.24 299.786 1180.08 222.571C1198.42 187.586 1220 158.149 1218.61 170.17Z" fill="url(#paint16_linear_296_12825)"/>
<g style="mix-blend-mode:multiply" opacity="0.5">
<path d="M1150.5 290.847L1149.73 291.772C1143.72 299.786 1139.4 305.18 1138.32 307.184C1136.17 277.683 1136.17 248.065 1138.32 218.564C1144.49 167.242 1152.35 121.931 1163.44 115.612C1171.2 110.905 1180.11 108.45 1189.18 108.522C1193.44 108.635 1197.65 109.415 1201.67 110.834C1210.26 127.959 1215.94 146.398 1218.47 165.393C1218.47 166.934 1218.47 168.629 1218.47 170.17C1217.98 175.429 1216.85 180.607 1215.08 185.582C1198.54 223.495 1176.8 258.923 1150.5 290.847Z" fill="#C10065"/>
</g>
<path d="M1304.29 447.587C1302.5 447.738 1300.69 447.738 1298.9 447.587C1294.44 447.005 1290.05 445.973 1285.8 444.504C1252.66 434.024 1206.12 401.042 1179.61 381.007H1178.69L1163.27 369.293L1158.96 365.903V333.537C1200.26 302.713 1275.32 273.584 1305.06 272.968C1307.68 272.676 1310.31 272.676 1312.93 272.968C1323.14 276.918 1333.08 281.552 1342.67 286.839C1352.69 292.079 1364.25 298.552 1376.11 305.333C1418.65 329.684 1465.5 360.046 1464.73 368.06C1463.96 376.075 1343.29 446.2 1304.29 447.587Z" fill="url(#paint17_linear_296_12825)"/>
<path style="mix-blend-mode:multiply" opacity="0.5" d="M1304.29 447.584C1302.5 447.735 1300.69 447.735 1298.9 447.584C1294.44 447.003 1290.05 445.97 1285.8 444.501C1252.66 434.021 1206.12 401.039 1179.61 381.004H1178.69L1163.27 369.29L1158.96 365.9V333.534C1200.26 302.71 1275.32 273.581 1305.06 272.965C1291.48 276.052 1279.1 283.057 1269.46 293.11C1259.81 303.164 1253.33 315.826 1250.81 329.527C1249.52 336.642 1249.05 343.882 1249.43 351.104C1249.43 353.416 1249.43 355.728 1249.43 357.885V362.663C1251.01 373.206 1253.75 383.543 1257.6 393.487C1267.95 408.676 1282.92 420.131 1300.29 426.161C1320.32 430.631 1386.59 414.756 1463.04 366.208C1463.19 376.688 1343.29 446.197 1304.29 447.584Z" fill="url(#paint18_linear_296_12825)"/>
<path d="M1322.8 350.955C1266.24 299.787 1158.36 355.116 1158.36 355.116C1158.36 355.116 1243.74 352.034 1287.51 363.901C1331.28 375.768 1329.58 357.12 1322.8 350.955Z" fill="url(#paint19_linear_296_12825)"/>
<g style="mix-blend-mode:soft-light">
<path d="M1305.53 367.592C1253.74 352.18 1158.65 355.417 1158.65 355.417L1305.53 367.592Z" fill="#F7FFFF"/>
</g>
<g style="mix-blend-mode:soft-light">
<path d="M1437.77 343.705C1427.6 352.798 1380.9 335.382 1355.01 316.425C1341.91 306.87 1334.05 296.852 1339.6 289.763L1342.68 286.218L1376.13 304.712L1437.77 343.705Z" fill="#F7FFFF"/>
</g>
<path style="mix-blend-mode:multiply" opacity="0.5" d="M1248.05 408.593C1170.99 366.364 1150.95 356.037 1162.98 367.905C1167.91 372.682 1263.62 444.965 1299.53 446.969C1311.4 447.585 1281.65 427.087 1248.05 408.593Z" fill="url(#paint20_linear_296_12825)"/>
<g style="mix-blend-mode:multiply" opacity="0.5">
<path d="M1375.68 304.717H1373.99C1367.2 307.542 1360.82 311.275 1355.03 315.813C1342.71 325.734 1331.86 337.358 1322.82 350.337C1304.33 341.623 1283.84 338.005 1263.48 339.856C1230.22 341.184 1197.23 346.356 1165.15 355.268H1162.69H1159.14V332.15C1200.45 301.326 1275.51 272.197 1305.25 271.581C1307.86 271.289 1310.5 271.289 1313.11 271.581C1323.33 275.531 1333.26 280.165 1342.86 285.452C1352.26 291.462 1363.82 297.936 1375.68 304.717Z" fill="#C10065"/>
</g>
<path d="M1341.32 287.145C1308.18 323.209 1159.76 339.7 1159.76 339.7L1133.41 314.578C1140.5 256.321 1176.41 173.095 1199.37 148.436C1201.37 146.248 1203.65 144.331 1206.15 142.734C1228.19 130.096 1392.79 82.9346 1402.5 94.4937C1409.28 102.97 1371.06 254.779 1341.32 287.145Z" fill="url(#paint21_linear_296_12825)"/>
<path style="mix-blend-mode:multiply" opacity="0.5" d="M1341.32 287.148C1308.18 323.212 1159.76 339.703 1159.76 339.703L1133.41 314.581C1140.5 256.324 1176.41 173.098 1199.37 148.439C1153.13 239.062 1263.02 282.37 1263.02 282.37C1263.02 282.37 1286.3 289.306 1319.74 266.958C1339 254.012 1381.39 195.138 1402.5 95.1133C1409.28 102.973 1371.06 254.782 1341.32 287.148Z" fill="url(#paint22_linear_296_12825)"/>
<path d="M1278.25 204.073C1201.19 225.034 1152.49 333.072 1152.49 333.072C1152.49 333.072 1217.06 261.406 1261.14 235.206C1305.22 209.005 1288.27 200.991 1278.25 204.073Z" fill="url(#paint23_linear_296_12825)"/>
<g style="mix-blend-mode:soft-light">
<path d="M1277.94 223.49C1224.92 254.314 1152.49 333.07 1152.49 333.07L1277.94 223.49Z" fill="#F7FFFF"/>
</g>
<g style="mix-blend-mode:soft-light">
<path d="M1238.03 130.714C1243.27 159.381 1385.37 93.5711 1362.4 97.5782C1320.42 106.529 1278.91 117.589 1238.03 130.714Z" fill="#F7FFFF"/>
</g>
<path d="M265.384 1333.47C265.384 1331.93 265.384 1330.24 265.384 1328.7C266.05 1323.75 267.239 1318.9 268.928 1314.21C285.507 1276.17 307.236 1240.6 333.505 1208.48V1207.56C338.283 1201.24 342.29 1196.31 345.064 1192.92L348.609 1188.6H380.974C411.798 1230.37 440.311 1305.89 440.619 1335.79C440.716 1338.43 440.457 1341.07 439.849 1343.65C435.844 1353.81 431.159 1363.7 425.823 1373.24C401.318 1419.47 353.695 1496.53 343.369 1495.15C337.05 1495.15 302.527 1437.2 281.72 1388.8C273.295 1371.37 267.776 1352.68 265.384 1333.47Z" fill="url(#paint24_linear_296_12825)"/>
<path style="mix-blend-mode:multiply" opacity="0.5" d="M265.384 1333.47C265.384 1331.93 265.384 1330.24 265.384 1328.7C266.05 1323.75 267.239 1318.9 268.928 1314.21C285.507 1276.17 307.236 1240.6 333.505 1208.48V1207.56C338.283 1201.24 342.29 1196.31 345.064 1192.92L348.609 1188.6H380.974C411.798 1230.37 440.311 1305.89 440.619 1335.79C437.446 1322.04 430.282 1309.55 420.026 1299.87C409.769 1290.19 396.88 1283.75 382.978 1281.38C373.552 1279.86 363.97 1279.54 354.465 1280.46H349.688H345.989C336.41 1281.95 327.01 1284.43 317.939 1287.85C302.604 1298.1 290.983 1313.02 284.803 1330.39C283.478 1350.72 286.689 1371.1 294.204 1390.04C306.405 1426.62 323.073 1461.56 343.831 1494.07C337.512 1494.07 302.989 1436.12 282.183 1387.72C273.708 1370.66 268.036 1352.34 265.384 1333.47Z" fill="url(#paint25_linear_296_12825)"/>
<path d="M372.351 1339.18C386.992 1281.07 358.634 1187.83 358.634 1187.83C358.634 1187.83 361.254 1273.52 349.078 1317.44C336.903 1361.37 367.573 1356.9 372.351 1339.18Z" fill="url(#paint26_linear_296_12825)"/>
<g style="mix-blend-mode:soft-light">
<path d="M345.225 1335.17C360.637 1283.23 358.479 1187.83 358.479 1187.83L345.225 1335.17Z" fill="#F7FFFF"/>
</g>
<g style="mix-blend-mode:soft-light">
<path d="M422.754 1379.86C401.639 1364.45 353.862 1482.81 368.349 1468.02C388.05 1439.63 406.211 1410.2 422.754 1379.86Z" fill="#F7FFFF"/>
</g>
<path style="mix-blend-mode:multiply" opacity="0.5" d="M265.681 1328.69C266.196 1323.72 267.388 1318.85 269.226 1314.2C286.45 1276.51 308.13 1241.01 333.802 1208.48V1207.55C339.813 1199.54 344.129 1194.14 345.362 1192.91C357.229 1180.89 346.749 1200.62 303.903 1277.99C285.717 1310.66 264.448 1340.4 265.681 1328.69Z" fill="url(#paint27_linear_296_12825)"/>
<g style="mix-blend-mode:multiply" opacity="0.5">
<path d="M333.814 1207.71V1206.79C339.825 1198.77 344.14 1193.38 345.373 1192.14C347.447 1221.65 347.447 1251.26 345.373 1280.76C339.054 1332.09 331.194 1377.4 320.097 1383.72C312.078 1388.42 302.878 1390.72 293.589 1390.34C289.381 1390.25 285.217 1389.47 281.259 1388.03C272.7 1370.88 266.974 1352.45 264.306 1333.47C264.306 1331.93 264.306 1330.24 264.306 1328.69C264.82 1323.73 266.013 1318.85 267.851 1314.21C284.796 1275.82 306.997 1239.98 333.814 1207.71Z" fill="#C10065"/>
</g>
<path d="M179.841 1051.43H185.543C189.996 1051.97 194.384 1052.95 198.643 1054.36C231.625 1064.99 278.324 1097.82 304.832 1117.86H305.603C312.23 1122.79 317.471 1126.95 321.015 1129.72L325.176 1133.27V1165.48C283.718 1196.3 208.815 1225.43 178.916 1226.05C176.36 1226.41 173.766 1226.41 171.21 1226.05C160.939 1222.23 150.992 1217.59 141.464 1212.18C131.446 1206.94 119.887 1200.62 108.02 1193.68C65.6369 1169.33 18.63 1138.97 19.5547 1130.96C20.4794 1122.94 141.156 1052.51 179.841 1051.43Z" fill="url(#paint28_linear_296_12825)"/>
<path style="mix-blend-mode:multiply" opacity="0.5" d="M179.842 1051.43H185.545C189.998 1051.97 194.386 1052.95 198.645 1054.36C231.627 1064.99 278.325 1097.82 304.834 1117.86H305.605C312.232 1122.79 317.472 1126.95 321.017 1129.72L325.178 1133.27V1165.48C283.72 1196.3 208.817 1225.43 178.918 1226.05C192.597 1222.77 205.001 1215.52 214.571 1205.21C224.141 1194.9 230.451 1181.99 232.706 1168.1C233.871 1161.02 234.284 1153.84 233.939 1146.68C233.939 1144.21 233.939 1142.05 233.939 1139.74C233.939 1138.05 233.939 1136.35 233.939 1134.81C232.468 1124.26 229.778 1113.92 225.924 1103.99C215.512 1088.75 200.498 1077.25 183.079 1071.16C163.043 1066.69 96.771 1082.56 20.4812 1131.11C20.9436 1121.86 141.158 1052.51 179.842 1051.43Z" fill="url(#paint29_linear_296_12825)"/>
<path d="M161.358 1147.6C218.382 1198.77 325.651 1143.13 325.651 1143.13C325.651 1143.13 240.267 1146.21 196.343 1134.34C152.419 1122.48 154.576 1141.13 161.358 1147.6Z" fill="url(#paint30_linear_296_12825)"/>
<g style="mix-blend-mode:soft-light">
<path d="M178.607 1130.96C230.546 1146.37 325.639 1143.13 325.639 1143.13L178.607 1130.96Z" fill="#F7FFFF"/>
</g>
<g style="mix-blend-mode:soft-light">
<path d="M46.3706 1154.85C56.5426 1145.75 103.241 1163.17 129.133 1182.12C142.388 1191.83 150.248 1201.85 144.546 1208.94L141.463 1212.33L108.019 1193.84L46.3706 1154.85Z" fill="#F7FFFF"/>
</g>
<path style="mix-blend-mode:multiply" opacity="0.5" d="M236.265 1089.96C313.325 1132.19 333.361 1142.51 321.339 1130.65C316.407 1125.87 220.544 1053.59 184.634 1051.58C172.921 1050.97 202.821 1071.62 236.265 1089.96Z" fill="url(#paint31_linear_296_12825)"/>
<g style="mix-blend-mode:multiply" opacity="0.5">
<path d="M108.506 1193.84H110.201C117.01 1191.05 123.392 1187.31 129.158 1182.74C141.589 1172.89 152.495 1161.26 161.523 1148.22C179.964 1156.92 200.397 1160.54 220.706 1158.7C254.026 1157.45 287.082 1152.28 319.189 1143.29H321.655H325.354V1167.64C283.896 1198.46 208.992 1227.59 179.093 1228.21C176.537 1228.57 173.943 1228.57 171.387 1228.21C161.117 1224.39 151.17 1219.75 141.642 1214.33C131.932 1207.09 120.373 1200.77 108.506 1193.84Z" fill="#C10065"/>
</g>
<path d="M142.835 1211.41C176.125 1175.34 324.39 1158.54 324.39 1158.54L350.898 1183.66C343.655 1241.92 307.899 1325.15 284.781 1349.81C282.848 1352.07 280.557 1353.99 277.999 1355.51C256.114 1368.3 91.359 1415.46 81.6493 1403.75C74.868 1395.58 113.09 1243.77 142.835 1211.41Z" fill="url(#paint32_linear_296_12825)"/>
<path style="mix-blend-mode:multiply" opacity="0.5" d="M142.835 1211.41C176.125 1175.34 324.39 1158.54 324.39 1158.54L350.898 1183.66C343.655 1241.92 307.899 1325.15 284.781 1349.81C331.017 1259.18 221.283 1215.87 221.283 1215.87C221.283 1215.87 197.857 1209.09 164.412 1231.29C145.301 1244.39 102.764 1303.11 81.6493 1403.13C74.868 1395.58 113.09 1243.77 142.835 1211.41Z" fill="url(#paint33_linear_296_12825)"/>
<path d="M205.89 1295.25C282.951 1274.29 331.807 1166.25 331.807 1166.25C331.807 1166.25 267.23 1237.92 223.152 1264.12C179.073 1290.32 195.872 1297.26 205.89 1295.25Z" fill="url(#paint34_linear_296_12825)"/>
<g style="mix-blend-mode:soft-light">
<path d="M206.361 1275.06C259.379 1244.23 331.815 1165.48 331.815 1165.48L206.361 1275.06Z" fill="#F7FFFF"/>
</g>
<g style="mix-blend-mode:soft-light">
<path d="M246.286 1367.84C240.891 1339.18 98.7916 1404.99 121.756 1400.98C163.798 1392.04 205.361 1380.98 246.286 1367.84Z" fill="#F7FFFF"/>
</g>
<path d="M1218.76 1333.47C1218.76 1331.93 1218.76 1330.24 1218.76 1328.7C1218.15 1323.76 1217.01 1318.9 1215.37 1314.21C1204.27 1280.76 1170.98 1234.53 1150.95 1208.48L1150.18 1207.56C1145.4 1201.24 1141.39 1196.31 1138.77 1192.92L1135.38 1188.6H1103.02C1072.19 1230.37 1043.52 1305.89 1043.22 1335.79C1043.16 1338.44 1043.48 1341.08 1044.14 1343.65C1048.01 1353.87 1052.7 1363.77 1058.17 1373.24C1082.52 1419.47 1130.29 1496.53 1140.47 1495.15C1146.94 1495.15 1181.31 1437.2 1202.12 1388.8C1210.74 1371.43 1216.37 1352.72 1218.76 1333.47Z" fill="url(#paint35_linear_296_12825)"/>
<path style="mix-blend-mode:multiply" opacity="0.5" d="M1218.75 1333.47C1218.75 1331.93 1218.75 1330.24 1218.75 1328.7C1218.15 1323.76 1217.01 1318.9 1215.36 1314.21C1204.27 1280.76 1170.98 1234.53 1150.94 1208.48L1150.17 1207.56C1145.39 1201.24 1141.39 1196.31 1138.77 1192.92L1135.38 1188.6H1103.01C1072.19 1230.37 1043.52 1305.89 1043.21 1335.79C1046.41 1322.03 1053.61 1309.53 1063.89 1299.85C1074.17 1290.17 1087.08 1283.75 1101.01 1281.38C1110.38 1279.86 1119.91 1279.55 1129.36 1280.46H1134.14H1138C1147.53 1281.94 1156.88 1284.42 1165.89 1287.85C1181.23 1298.1 1192.85 1313.02 1199.03 1330.39C1200.35 1350.72 1197.14 1371.1 1189.63 1390.04C1177.43 1426.62 1160.76 1461.56 1140 1494.07C1146.47 1494.07 1180.84 1436.12 1201.65 1387.72C1210.32 1370.71 1216.1 1352.38 1218.75 1333.47Z" fill="url(#paint36_linear_296_12825)"/>
<path d="M1112.14 1339.18C1096.73 1281.07 1125.86 1187.83 1125.86 1187.83C1125.86 1187.83 1123.24 1273.52 1135.41 1317.44C1147.59 1361.37 1116.61 1356.9 1112.14 1339.18Z" fill="url(#paint37_linear_296_12825)"/>
<g style="mix-blend-mode:multiply" opacity="0.5">
<path d="M1138.96 1335.17C1123.54 1283.23 1125.86 1187.83 1125.86 1187.83L1138.96 1335.17Z" fill="#C10065"/>
</g>
<g style="mix-blend-mode:soft-light">
<path d="M1061.42 1379.86C1082.54 1364.45 1130.47 1482.81 1115.83 1468.02C1096.18 1439.59 1078.02 1410.17 1061.42 1379.86Z" fill="#F7FFFF"/>
</g>
<path style="mix-blend-mode:multiply" opacity="0.5" d="M1218.61 1328.69C1218.08 1323.74 1216.95 1318.88 1215.22 1314.2C1198.11 1276.48 1176.48 1240.98 1150.8 1208.48L1150.03 1207.55C1144.02 1199.54 1139.7 1194.14 1138.62 1192.91C1126.76 1180.89 1137.24 1200.62 1180.08 1277.99C1198.42 1310.66 1220 1340.4 1218.61 1328.69Z" fill="url(#paint38_linear_296_12825)"/>
<path style="mix-blend-mode:multiply" opacity="0.5" d="M1150.5 1207.71L1149.73 1206.79C1143.72 1198.77 1139.4 1193.38 1138.32 1192.14C1136.17 1221.64 1136.17 1251.26 1138.32 1280.76C1144.49 1332.09 1152.35 1377.4 1163.44 1383.72C1171.47 1388.4 1180.67 1390.7 1189.95 1390.34C1194.21 1390.23 1198.42 1389.45 1202.44 1388.03C1211.03 1370.91 1216.71 1352.47 1219.24 1333.47C1219.24 1331.93 1219.24 1330.24 1219.24 1328.69C1218.71 1323.74 1217.57 1318.88 1215.85 1314.21C1204.6 1279.84 1170.53 1233.6 1150.5 1207.71Z" fill="url(#paint39_linear_296_12825)"/>
<path d="M1304.29 1051.43H1298.75C1294.29 1051.96 1289.9 1052.94 1285.65 1054.36C1252.51 1064.99 1205.97 1097.82 1179.46 1117.86H1178.53L1163.12 1129.72L1158.8 1133.27V1165.48C1200.11 1196.3 1275.17 1225.43 1304.91 1226.05C1307.52 1226.42 1310.16 1226.42 1312.77 1226.05C1323.02 1222.17 1332.96 1217.53 1342.52 1212.18C1352.53 1206.94 1364.09 1200.62 1375.96 1193.68C1418.5 1169.33 1465.35 1138.97 1464.58 1130.96C1463.81 1122.94 1343.29 1052.51 1304.29 1051.43Z" fill="url(#paint40_linear_296_12825)"/>
<path style="mix-blend-mode:multiply" opacity="0.5" d="M1304.29 1051.43H1298.75C1294.29 1051.96 1289.9 1052.94 1285.65 1054.36C1252.51 1064.99 1205.97 1097.82 1179.46 1117.86H1178.53L1163.12 1129.72L1158.8 1133.27V1165.48C1200.11 1196.3 1275.17 1225.43 1304.91 1226.05C1291.25 1222.76 1278.87 1215.5 1269.33 1205.19C1259.78 1194.88 1253.5 1181.97 1251.28 1168.1C1249.98 1161.04 1249.52 1153.85 1249.89 1146.68C1249.89 1144.21 1249.89 1142.05 1249.89 1139.74V1134.81C1251.45 1124.26 1254.19 1113.92 1258.06 1103.99C1268.39 1088.74 1283.36 1077.23 1300.75 1071.16C1320.79 1066.69 1387.06 1082.56 1463.5 1131.11C1463.19 1121.86 1343.29 1052.51 1304.29 1051.43Z" fill="url(#paint41_linear_296_12825)"/>
<path d="M1322.79 1147.6C1265.76 1198.77 1158.65 1143.13 1158.65 1143.13C1158.65 1143.13 1244.03 1146.21 1287.8 1134.34C1331.57 1122.48 1329.57 1141.13 1322.79 1147.6Z" fill="url(#paint42_linear_296_12825)"/>
<g style="mix-blend-mode:soft-light">
<path d="M1305.53 1130.96C1253.74 1146.37 1158.65 1143.13 1158.65 1143.13L1305.53 1130.96Z" fill="#F7FFFF"/>
</g>
<g style="mix-blend-mode:soft-light">
<path d="M1437.77 1154.85C1427.6 1145.75 1380.9 1163.17 1355.01 1182.12C1341.91 1191.83 1334.05 1201.85 1339.6 1208.94L1342.68 1212.33L1376.13 1193.84L1437.77 1154.85Z" fill="#F7FFFF"/>
</g>
<path style="mix-blend-mode:multiply" opacity="0.5" d="M1248.05 1089.96C1170.99 1132.19 1150.95 1142.51 1162.98 1130.65C1167.91 1125.87 1263.62 1053.59 1299.53 1051.58C1311.4 1050.97 1281.65 1071.62 1248.05 1089.96Z" fill="url(#paint43_linear_296_12825)"/>
<g style="mix-blend-mode:multiply" opacity="0.5">
<path d="M1375.68 1193.84H1373.99C1367.2 1191.01 1360.82 1187.28 1355.03 1182.74C1342.67 1172.86 1331.82 1161.23 1322.82 1148.22C1304.33 1156.93 1283.84 1160.55 1263.48 1158.7C1230.22 1157.44 1197.21 1152.27 1165.15 1143.29H1162.69H1159.14V1167.64C1200.45 1198.46 1275.51 1227.59 1305.25 1228.21C1307.86 1228.57 1310.5 1228.57 1313.11 1228.21C1323.36 1224.32 1333.3 1219.69 1342.86 1214.33C1352.26 1207.09 1363.82 1200.77 1375.68 1193.84Z" fill="#C10065"/>
</g>
<path d="M1341.32 1211.41C1308.18 1175.34 1159.76 1158.54 1159.76 1158.54L1133.41 1183.66C1140.5 1241.92 1176.41 1325.15 1199.37 1349.81C1201.37 1351.99 1203.65 1353.91 1206.15 1355.51C1228.19 1368.3 1392.79 1415.46 1402.5 1403.75C1409.28 1395.58 1371.06 1243.77 1341.32 1211.41Z" fill="url(#paint44_linear_296_12825)"/>
<path style="mix-blend-mode:multiply" opacity="0.5" d="M1341.32 1211.41C1308.18 1175.34 1159.76 1158.54 1159.76 1158.54L1133.41 1183.66C1140.5 1241.92 1176.41 1325.15 1199.37 1349.81C1153.13 1259.18 1263.02 1215.87 1263.02 1215.87C1263.02 1215.87 1286.3 1209.09 1319.74 1231.29C1339 1244.39 1381.39 1303.11 1402.5 1403.13C1409.28 1395.58 1371.06 1243.77 1341.32 1211.41Z" fill="url(#paint45_linear_296_12825)"/>
<path d="M1278.25 1295.25C1201.19 1274.29 1152.49 1166.25 1152.49 1166.25C1152.49 1166.25 1217.06 1237.92 1261.14 1264.12C1305.22 1290.32 1288.27 1297.26 1278.25 1295.25Z" fill="url(#paint46_linear_296_12825)"/>
<g style="mix-blend-mode:soft-light">
<path d="M1277.94 1275.06C1224.92 1244.23 1152.49 1165.48 1152.49 1165.48L1277.94 1275.06Z" fill="#F7FFFF"/>
</g>
<g style="mix-blend-mode:soft-light">
<path d="M1238.03 1367.84C1243.27 1339.18 1385.37 1404.99 1362.4 1400.98C1320.42 1392.03 1278.91 1380.97 1238.03 1367.84Z" fill="#F7FFFF"/>
</g>
<path d="M1441.93 1022.15C1448.09 1007.66 1363.33 849.996 1328.34 786.036C1329.76 762.477 1329.76 738.854 1328.34 715.295C1363.33 651.335 1442.39 495.364 1441.93 479.182C1442.55 469.225 1442.55 459.239 1441.93 449.282C1436.07 435.103 1256.98 384.397 1185.16 364.67C1164.69 341.347 1142.49 319.605 1118.74 299.631C1100.86 234.283 1046.92 41.4782 1032.12 35.3134C1014.4 27.9156 783.37 155.836 770.115 163.388C760.714 163.388 751.313 162.617 741.757 162.617C732.202 162.617 722.955 162.617 713.553 163.388C699.991 155.836 468.963 27.9156 451.548 35.3134C436.136 41.4782 382.809 234.283 364.931 299.631C341.197 319.569 319.04 341.314 298.66 364.67C227.148 384.397 47.5967 435.103 41.7401 449.282C41.123 459.239 41.123 469.225 41.7401 479.182C41.7401 500.296 120.342 651.335 155.327 715.295C153.198 738.827 153.198 762.504 155.327 786.036C120.342 849.996 35.5753 1007.66 41.7401 1022.15C41.7401 1023.54 40.5072 1048.97 41.7401 1052.05C47.5967 1066.23 226.685 1116.93 298.66 1136.51C319.034 1159.92 341.191 1181.71 364.931 1201.7C382.809 1267.05 436.752 1459.85 451.548 1466.02C469.272 1473.42 700.299 1345.5 713.553 1337.94C722.955 1337.94 732.356 1337.94 741.757 1337.94C751.159 1337.94 760.714 1337.94 770.115 1337.94C783.678 1345.5 1014.71 1473.42 1032.12 1466.02C1047.53 1459.85 1100.86 1267.05 1118.74 1201.7C1142.49 1181.67 1164.7 1159.88 1185.16 1136.51C1256.52 1116.93 1436.07 1066.23 1441.93 1052.05C1443.16 1048.66 1441.47 1023.54 1441.93 1022.15ZM1184.7 750.588C1184.76 838.301 1158.8 924.06 1110.1 997.01C1061.39 1069.96 992.142 1126.82 911.109 1160.39C830.076 1193.97 740.904 1202.74 654.88 1185.61C568.857 1168.48 489.849 1126.21 427.859 1064.16C365.869 1002.1 323.684 923.052 306.643 837.011C289.602 750.969 298.472 661.806 332.13 580.808C365.788 499.81 422.72 430.619 495.721 381.993C568.721 333.367 654.507 307.492 742.22 307.645C859.59 307.849 972.089 354.596 1055.04 437.633C1137.99 520.67 1184.62 633.218 1184.7 750.588Z" fill="url(#paint47_linear_296_12825)"/>
<path d="M640.066 1330.24L646.385 1331.32C629.154 1343.56 610.959 1354.38 591.981 1363.68C581.655 1368.77 571.483 1373.39 561.156 1377.4H560.232C532.188 1389.01 503.145 1398.04 473.462 1404.37C452.364 1362.62 436.027 1318.62 424.759 1273.21V1271.67C421.985 1260.58 419.673 1250.56 417.978 1241.77L422.602 1244.7L430.308 1249.63L436.781 1253.64C497.311 1290.49 564.061 1315.98 633.747 1328.85L640.066 1330.24Z" fill="url(#paint48_linear_296_12825)"/>
<path d="M637.429 1329.78C589.53 1362.04 535.488 1384.08 478.684 1394.51C478.684 1394.51 450.48 1350.43 429.982 1249.79L436.455 1253.79C496.985 1290.64 563.736 1316.13 633.422 1329L637.429 1329.78Z" fill="url(#paint49_linear_296_12825)"/>
<path style="mix-blend-mode:multiply" opacity="0.5" d="M640.06 1330.24C625.381 1343.21 609.244 1354.44 591.974 1363.68C581.976 1368.85 571.684 1373.43 561.15 1377.4H560.225C531.933 1388.31 502.945 1397.32 473.455 1404.37C451.936 1362.8 435.581 1318.75 424.753 1273.21V1271.67C423.004 1262.79 422.28 1253.74 422.595 1244.7L430.301 1249.63L436.774 1253.64C449.146 1288.47 466.935 1321.14 489.484 1350.43C538.63 1356.02 588.381 1348.58 633.741 1328.85L640.06 1330.24Z" fill="url(#paint50_linear_296_12825)"/>
<path d="M1065.87 1241.92C1064.18 1250.7 1061.86 1260.72 1059.09 1271.82C1059.16 1272.33 1059.16 1272.85 1059.09 1273.36C1047.69 1318.75 1031.31 1362.73 1010.23 1404.52C980.49 1398.16 951.392 1389.08 923.31 1377.39H922.54C912.676 1373.38 902.35 1368.76 891.716 1363.52C872.806 1354.18 854.665 1343.36 837.465 1331.16L843.784 1330.08L850.411 1328.84C920.138 1315.95 986.935 1290.46 1047.53 1253.63L1053.85 1249.63L1061.56 1244.69L1065.87 1241.92Z" fill="url(#paint51_linear_296_12825)"/>
<path d="M1053.11 1249.79C1032.61 1350.43 1004.56 1394.51 1004.56 1394.51C947.702 1384.11 893.604 1362.07 845.663 1329.78L849.67 1329C919.398 1316.11 986.194 1290.62 1046.79 1253.79L1053.11 1249.79Z" fill="url(#paint52_linear_296_12825)"/>
<path style="mix-blend-mode:multiply" opacity="0.5" d="M1058.64 1271.83C1058.72 1272.34 1058.72 1272.86 1058.64 1273.37C1047.73 1318.9 1031.32 1362.94 1009.79 1404.52C980.249 1397.4 951.211 1388.34 922.863 1377.4H922.093C911.559 1373.43 901.267 1368.85 891.269 1363.68C874.067 1354.4 857.985 1343.18 843.337 1330.24L849.964 1329.01C895.324 1348.73 945.075 1356.17 994.221 1350.58C1016.76 1321.26 1034.59 1288.61 1047.08 1253.79L1053.4 1249.79L1061.11 1244.86C1061.32 1253.91 1060.5 1262.96 1058.64 1271.83Z" fill="url(#paint53_linear_296_12825)"/>
<path d="M640.066 171.711L646.385 170.632C629.154 158.393 610.959 147.569 591.981 138.267C581.655 133.181 571.483 128.557 561.156 124.55H560.232C532.188 112.941 503.145 103.914 473.462 97.5789C452.364 139.335 436.027 183.33 424.759 228.736V230.277C421.985 241.374 419.673 251.391 417.978 260.176L422.602 257.248L430.308 252.316L436.781 248.309C497.311 211.459 564.061 185.97 633.747 173.098L640.066 171.711Z" fill="url(#paint54_linear_296_12825)"/>
<path d="M637.429 172.172C589.549 139.901 535.495 117.913 478.684 107.595C478.684 107.595 450.48 151.52 429.982 252.161L436.455 248.154C496.985 211.303 563.736 185.815 633.422 172.943L637.429 172.172Z" fill="url(#paint55_linear_296_12825)"/>
<path style="mix-blend-mode:multiply" opacity="0.5" d="M640.06 171.711C625.381 158.737 609.244 147.514 591.974 138.267C581.976 133.096 571.684 128.516 561.15 124.55H560.225C531.933 113.642 502.945 104.632 473.455 97.5789C451.936 139.149 435.581 183.195 424.753 228.736V230.277C423.004 239.155 422.28 248.205 422.595 257.248L430.301 252.316L436.774 248.309C449.146 213.476 466.935 180.812 489.484 151.521C538.63 145.933 588.381 153.374 633.741 173.098L640.06 171.711Z" fill="url(#paint56_linear_296_12825)"/>
<g style="mix-blend-mode:soft-light">
<path d="M578.235 90.7977C519.515 69.3749 457.559 49.8015 457.559 49.8015C438.448 79.2386 397.606 184.349 395.911 188.51C417.488 115.457 442.147 38.5507 451.24 34.3895C460.333 30.2282 518.591 59.0488 578.39 89.873L578.235 90.7977Z" fill="#F7FFFF"/>
</g>
<path d="M843.183 171.711L836.864 170.632C854.096 158.393 872.29 147.569 891.269 138.267C901.595 133.181 911.767 128.557 922.093 124.55H923.018C951.061 112.941 980.105 103.914 1009.79 97.5789C1030.86 139.362 1047.25 183.349 1058.64 228.736V230.277C1061.42 241.374 1063.58 251.391 1065.43 260.176L1060.65 257.248L1052.94 252.316L1046.62 248.309C986.237 211.472 919.65 185.934 850.118 172.944L843.183 171.711Z" fill="url(#paint57_linear_296_12825)"/>
<path d="M845.957 172.172C893.68 139.924 947.577 117.935 1004.24 107.595C1004.24 107.595 1032.29 151.52 1052.79 252.161L1046.47 248.154C986.118 211.388 919.586 185.903 850.118 172.943L845.957 172.172Z" fill="url(#paint58_linear_296_12825)"/>
<path style="mix-blend-mode:multiply" opacity="0.5" d="M843.198 171.711C857.905 158.774 874.038 147.553 891.284 138.267C901.264 133.059 911.558 128.477 922.108 124.55H923.033C951.333 113.664 980.318 104.654 1009.8 97.5789C1031.34 139.16 1047.74 183.201 1058.66 228.736V230.277C1060.28 239.171 1060.95 248.212 1060.66 257.248L1052.96 252.316L1046.64 248.309C1034.15 213.499 1016.31 180.845 993.774 151.521C944.628 145.933 894.877 153.374 849.517 173.098L843.198 171.711Z" fill="url(#paint59_linear_296_12825)"/>
<g style="mix-blend-mode:soft-light">
<path d="M904.994 90.7977C963.714 69.3749 1025.82 49.8015 1025.82 49.8015C1044.78 79.2386 1085.78 184.349 1087.47 188.51C1066.05 115.457 1041.24 38.5507 1032.14 34.3895C1023.05 30.2282 964.793 59.0488 904.994 89.873V90.7977Z" fill="#F7FFFF"/>
</g>
<path d="M1220 410.442L1216.3 405.202C1237.23 408.656 1257.85 413.81 1277.95 420.614C1288.89 424.313 1299.37 428.166 1308.77 432.173H1309.54C1337.63 443.722 1364.61 457.806 1390.15 474.248C1375.55 518.703 1356.07 561.4 1332.05 601.552L1331.27 602.785C1325.42 612.649 1319.87 621.28 1314.94 628.832C1314.94 626.982 1314.94 625.133 1313.7 623.437C1312.47 621.742 1312.47 617.427 1311.7 614.498C1310.93 611.57 1310.62 609.566 1310.01 607.1C1293.08 538.229 1263.78 473.005 1223.54 414.604L1220 410.442Z" fill="url(#paint60_linear_296_12825)"/>
<path d="M1222.17 412.599C1278.81 423.384 1332.6 445.792 1380.15 478.409C1380.15 478.409 1369.05 529.423 1312.49 615.114C1312.49 612.648 1311.41 610.182 1310.79 607.716C1293.86 538.845 1264.57 473.62 1224.33 415.219L1222.17 412.599Z" fill="url(#paint61_linear_296_12825)"/>
<path style="mix-blend-mode:multiply" opacity="0.5" d="M1220 410.441C1239.48 411.649 1258.77 415.061 1277.49 420.613C1287.96 423.922 1298.25 427.78 1308.31 432.173H1309.08C1336.83 444.45 1363.75 458.504 1389.69 474.248C1375.49 518.856 1355.98 561.596 1331.58 601.551L1330.81 602.784C1325.75 610.303 1319.85 617.231 1313.24 623.437C1313.24 620.354 1312.01 617.426 1311.24 614.498C1310.47 611.569 1310.16 609.566 1309.54 607.1C1325.28 573.684 1335.68 538.009 1340.37 501.373C1309.5 462.663 1269 432.741 1222.93 414.603L1220 410.441Z" fill="url(#paint62_linear_296_12825)"/>
<g style="mix-blend-mode:soft-light">
<path d="M1319.26 403.353C1371.97 427.088 1425.76 454.521 1425.76 454.521C1411.83 499.367 1395.31 543.365 1376.28 586.294C1409.42 524.646 1443.17 457.141 1439.47 448.664C1435.77 440.188 1378.9 421.231 1319.41 402.428L1319.26 403.353Z" fill="#F7FFFF"/>
</g>
<path d="M1220 1090.42L1216.3 1095.51C1237.25 1092.13 1257.87 1086.97 1277.95 1080.09C1288.89 1076.4 1299.37 1072.39 1308.77 1068.38H1309.54C1337.66 1056.82 1364.64 1042.68 1390.15 1026.15C1375.59 981.684 1356.1 938.984 1332.05 898.848L1331.27 897.615C1325.42 887.905 1319.87 879.121 1314.94 871.569C1314.94 873.418 1314.94 875.268 1313.7 877.117C1312.47 878.966 1312.47 882.973 1311.7 886.056C1310.93 889.138 1310.62 890.834 1310.01 893.3C1293.08 962.171 1263.78 1027.4 1223.54 1085.8L1220 1090.42Z" fill="url(#paint63_linear_296_12825)"/>
<path d="M1222.17 1088.11C1278.86 1077.22 1332.65 1054.65 1380.15 1021.84C1380.15 1021.84 1369.05 970.828 1312.49 885.137C1312.49 887.449 1311.41 889.915 1310.79 892.381C1293.86 961.252 1264.57 1026.48 1224.33 1084.88L1222.17 1088.11Z" fill="url(#paint64_linear_296_12825)"/>
<path style="mix-blend-mode:multiply" opacity="0.5" d="M1220 1090.43C1239.49 1089.15 1258.77 1085.69 1277.49 1080.1C1287.96 1076.74 1298.25 1072.83 1308.31 1068.39H1309.08C1336.86 1056.12 1363.78 1042.01 1389.69 1026.16C1375.49 981.55 1355.98 938.81 1331.58 898.855L1330.81 897.622C1325.78 890.122 1319.88 883.242 1313.24 877.124C1313.24 880.052 1312.01 882.98 1311.24 886.062C1310.47 889.145 1310.16 890.84 1309.54 893.306C1325.28 926.776 1335.68 962.502 1340.37 999.187C1309.46 1037.83 1268.97 1067.69 1222.93 1085.8L1220 1090.43Z" fill="url(#paint65_linear_296_12825)"/>
<g style="mix-blend-mode:soft-light">
<path d="M1319.26 1097.51C1371.97 1073.62 1425.76 1046.34 1425.76 1046.34C1411.84 1001.29 1395.32 957.089 1376.28 913.955C1409.42 975.603 1443.17 1043.11 1439.47 1051.74C1435.77 1060.37 1378.9 1079.17 1319.41 1097.97L1319.26 1097.51Z" fill="#F7FFFF"/>
</g>
<path d="M259.839 410.442L263.538 405.202C242.602 408.645 221.983 413.8 201.89 420.614C190.947 424.313 180.467 428.166 171.066 432.173H170.141C142.09 443.701 115.16 457.786 89.6897 474.248C104.17 518.722 123.609 561.426 147.639 601.552V602.785C153.496 612.649 159.044 621.28 164.13 628.832C164.13 626.982 164.901 625.133 165.209 623.437C165.517 621.742 166.596 617.427 167.212 614.498C167.829 611.57 168.445 609.566 168.908 607.1C185.835 538.229 215.131 473.005 255.37 414.604L259.839 410.442Z" fill="url(#paint66_linear_296_12825)"/>
<path d="M258.127 412.599C201.504 423.44 147.726 445.843 100.153 478.409C100.153 478.409 111.404 529.423 167.813 615.114C167.813 612.648 169.045 610.182 169.508 607.716C186.435 538.845 215.732 473.62 255.97 415.219L258.127 412.599Z" fill="url(#paint67_linear_296_12825)"/>
<path style="mix-blend-mode:multiply" opacity="0.5" d="M259.823 410.441C240.287 411.646 220.95 415.059 202.182 420.613C191.702 423.894 181.411 427.753 171.358 432.173H170.433C142.723 444.42 115.848 458.475 89.9819 474.248C104.001 518.899 123.464 561.655 147.932 601.551V602.784C153.045 610.268 158.934 617.19 165.501 623.437C165.501 620.354 166.888 617.426 167.505 614.498C168.121 611.569 168.738 609.566 169.2 607.1C153.537 573.657 143.139 537.993 138.376 501.373C169.247 462.663 209.745 432.741 255.816 414.603L259.823 410.441Z" fill="url(#paint68_linear_296_12825)"/>
<g style="mix-blend-mode:soft-light">
<path d="M161.054 403.353C108.344 427.088 54.5561 454.521 54.5561 454.521C68.5498 499.343 85.0669 543.338 104.029 586.294C70.8927 524.646 37.1404 457.141 40.8393 448.664C44.5382 440.188 101.409 421.231 161.054 402.428V403.353Z" fill="#F7FFFF"/>
</g>
<path d="M259.839 1090.42L263.538 1095.51C242.587 1092.14 221.962 1086.98 201.89 1080.09C190.947 1076.4 180.467 1072.39 171.066 1068.38H170.141C142.068 1056.84 115.134 1042.7 89.6897 1026.15C104.139 981.666 123.579 938.959 147.639 898.848V897.615C153.496 887.905 159.044 879.121 164.13 871.569C164.13 873.418 164.901 875.268 165.209 877.117C165.517 878.966 166.596 882.973 167.212 886.056C167.829 889.138 168.445 890.834 168.908 893.3C185.835 962.171 215.131 1027.4 255.37 1085.8L259.839 1090.42Z" fill="url(#paint69_linear_296_12825)"/>
<path d="M258.127 1088.11C201.462 1077.15 147.677 1054.59 100.153 1021.84C100.153 1021.84 111.404 970.828 167.813 885.137C167.813 887.449 169.045 889.915 169.508 892.381C186.435 961.252 215.732 1026.48 255.97 1084.88L258.127 1088.11Z" fill="url(#paint70_linear_296_12825)"/>
<path style="mix-blend-mode:multiply" opacity="0.5" d="M259.838 1090.42C240.483 1088.9 221.358 1085.23 202.814 1079.48C192.332 1076.14 182.042 1072.23 171.989 1067.76H171.065C143.324 1055.52 116.446 1041.41 90.6135 1025.53C104.633 980.883 124.096 938.126 148.563 898.23V896.998C153.64 889.533 159.532 882.658 166.133 876.5C166.133 879.428 167.52 882.356 168.136 885.439C168.753 888.521 169.369 890.216 169.831 892.682C154.166 926.178 143.769 961.893 139.007 998.563C169.913 1037.2 210.405 1067.07 256.448 1085.18L259.838 1090.42Z" fill="url(#paint71_linear_296_12825)"/>
<g style="mix-blend-mode:soft-light">
<path d="M161.054 1097.51C108.344 1073.62 54.5561 1046.34 54.5561 1046.34C68.5381 1001.32 85.0553 957.117 104.029 913.955C70.8927 975.603 37.1404 1043.11 40.8393 1051.74C44.5382 1060.37 101.409 1079.17 161.054 1097.97V1097.51Z" fill="#F7FFFF"/>
</g>
<g style="mix-blend-mode:multiply" opacity="0.5">
<path d="M1288.27 966.975C1246.16 1073.72 1173.73 1165.82 1079.92 1231.9C986.098 1297.99 874.993 1335.17 760.297 1338.88C645.6 1342.58 532.328 1312.64 434.442 1252.74C336.557 1192.85 258.338 1105.62 209.429 1001.81C426.739 1201.55 867.217 1387.72 1288.27 966.975Z" fill="#C10065"/>
</g>
<g style="mix-blend-mode:multiply" opacity="0.5">
<path d="M1253.44 1117.4L1185.17 1136.51C1164.7 1159.88 1142.5 1181.67 1118.74 1201.7C1113.66 1220.35 1105.49 1249.48 1096.24 1281.69C1027.2 1331.28 950.001 1368.37 868.142 1391.27C818.515 1364.91 775.669 1341.18 769.812 1337.94C760.411 1337.94 751.01 1337.94 741.454 1337.94C731.899 1337.94 722.651 1337.94 713.25 1337.94C707.547 1341.18 663.315 1365.69 612.609 1392.5C531.613 1371.65 455.31 1335.61 387.747 1286.31C378.037 1252.25 369.406 1221.27 364.012 1201.7C340.271 1181.71 318.114 1159.92 297.74 1136.51L242.256 1121.1C223.194 1084.04 212.115 1043.41 209.737 1001.81C365.707 1259.96 889.564 1567.28 1288.58 966.975C1294.46 1019.66 1282.06 1072.77 1253.44 1117.4Z" fill="#C10065"/>
</g>
<g style="mix-blend-mode:soft-light">
<path d="M742.244 162.619C615.774 162.634 492.679 203.428 391.23 278.946C289.782 354.463 215.386 460.679 179.086 581.828C275.257 369.141 493.647 266.804 742.398 266.804C1013.5 266.804 1239.13 397.191 1320.04 641.164C1294.52 506.599 1222.84 385.16 1117.36 297.797C1011.87 210.434 879.207 162.625 742.244 162.619Z" fill="#F7FFFF"/>
</g>
<path d="M742.219 266.801C646.535 266.801 553 295.175 473.442 348.334C393.884 401.493 331.876 477.05 295.259 565.45C258.643 653.85 249.062 751.123 267.729 844.969C286.396 938.814 332.472 1025.02 400.131 1092.67C467.79 1160.33 553.992 1206.41 647.837 1225.08C741.682 1243.74 838.955 1234.16 927.355 1197.55C1015.76 1160.93 1091.31 1098.92 1144.47 1019.36C1197.63 939.806 1226 846.271 1226 750.587C1226 622.279 1175.03 499.226 1084.31 408.499C993.579 317.771 870.527 266.801 742.219 266.801ZM742.219 1193.68C654.545 1193.68 568.841 1167.68 495.945 1118.97C423.05 1070.26 366.237 1001.02 332.693 920.022C299.149 839.019 290.38 749.888 307.495 663.902C324.611 577.915 366.842 498.936 428.847 436.952C490.852 374.968 569.847 332.765 655.839 315.679C741.832 298.594 830.96 307.393 911.951 340.966C992.942 374.538 1062.16 431.375 1110.84 504.287C1159.53 577.2 1185.5 662.913 1185.47 750.587C1185.47 808.788 1174 866.419 1151.73 920.189C1129.45 973.958 1096.8 1022.81 1055.64 1063.96C1014.47 1105.11 965.609 1137.74 911.832 1160C858.055 1182.26 800.42 1193.7 742.219 1193.68Z" fill="url(#paint72_linear_296_12825)"/>
<g style="mix-blend-mode:soft-light">
<path d="M352.145 1037.72C352.145 1037.72 481.761 1193.69 741.455 1193.69C1001.15 1193.69 1130.92 1037.72 1130.92 1037.72C1087.25 1100.54 1029.02 1151.86 961.219 1187.3C893.415 1222.75 818.041 1241.26 741.531 1241.26C665.022 1241.26 589.648 1222.75 521.844 1187.3C454.039 1151.86 395.816 1100.54 352.145 1037.72Z" fill="#F7FFFF"/>
</g>
<path d="M352.145 1037.72C397.112 1098.7 455.776 1148.28 523.411 1182.44C591.045 1216.6 665.758 1234.4 741.531 1234.4C817.304 1234.4 892.018 1216.6 959.652 1182.44C1027.29 1148.28 1085.95 1098.7 1130.92 1037.72C1087.25 1100.54 1029.02 1151.86 961.219 1187.3C893.415 1222.75 818.041 1241.26 741.531 1241.26C665.022 1241.26 589.648 1222.75 521.844 1187.3C454.039 1151.86 395.816 1100.54 352.145 1037.72Z" fill="url(#paint73_linear_296_12825)"/>
<g style="mix-blend-mode:multiply" opacity="0.4">
<path d="M1207.23 618.964C1195.83 612.337 1178.26 601.702 1152.67 584.595C1034.98 494.774 891.071 446.046 743.02 445.886C470.38 445.886 324.736 599.082 324.736 599.082C307.359 618.339 288.273 635.981 267.711 651.792C289.493 545.447 346.397 449.514 429.276 379.411C512.156 309.307 616.198 269.104 724.682 265.263C833.166 261.421 939.792 294.165 1027.42 358.231C1115.05 422.296 1178.6 513.964 1207.85 618.501L1207.23 618.964Z" fill="#D01BDC"/>
</g>
<path d="M742.25 218.869C722.984 243.682 876.489 284.216 894.829 266.8C913.169 249.384 895.908 223.184 861.231 218.869C826.554 214.553 756.737 199.449 742.25 218.869Z" fill="#F7FFFF"/>
<path d="M707.24 1240.07C696.144 1219.42 817.128 1198.61 834.082 1213.72C851.035 1228.82 820.828 1234.83 820.828 1234.83L707.24 1240.07Z" fill="#F7FFFF"/>
<path style="mix-blend-mode:color-dodge" opacity="0.8" d="M986.304 283.353C1007.98 192.004 951.503 100.378 860.154 78.6994C768.805 57.0213 677.179 113.501 655.501 204.849C633.823 296.198 690.302 387.825 781.651 409.503C873 431.181 964.626 374.702 986.304 283.353Z" fill="url(#paint74_radial_296_12825)"/>
<path style="mix-blend-mode:color-dodge" opacity="0.8" d="M635.574 1310.66C625.865 1347.03 573.926 1364.76 518.289 1350.12C462.651 1335.47 425.816 1294.32 435.68 1257.64C445.543 1220.96 497.328 1203.55 552.966 1218.19C608.603 1232.83 645.13 1274.91 635.574 1310.66Z" fill="url(#paint75_radial_296_12825)"/>
<path d="M1441.95 479.183C1441.95 494.595 1363.35 651.336 1328.37 715.296L1326.05 677.228C1326.05 677.228 1425.46 523.107 1439.49 449.129L1442.57 455.14C1442.72 463 1441.95 478.412 1441.95 479.183Z" fill="#680A0A"/>
<path d="M1441.95 1052.05C1441.59 1052.86 1441 1053.56 1440.26 1054.05C1440.26 1054.05 1440.26 1052.51 1439.49 1051.74C1415.75 964.659 1326.05 823.792 1326.05 823.792L1327.9 786.649C1362.89 850.609 1447.65 1008.27 1441.49 1022.76C1441.49 1023.53 1443.19 1048.65 1441.95 1052.05Z" fill="url(#paint76_linear_296_12825)"/>
<path d="M154.713 786.649V830.419C108.354 899.646 70.1852 974.019 40.9715 1052.05C40.0468 1047.11 40.9715 1024.15 40.9715 1022.76C34.9608 1007.66 119.727 849.993 154.713 786.649Z" fill="url(#paint77_linear_296_12825)"/>
<path d="M154.712 669.06V715.296C119.727 651.336 40.6628 499.527 41.1252 479.183C40.5781 469.327 40.5781 459.448 41.1252 449.592C67.5337 528.129 105.842 602.148 154.712 669.06Z" fill="#680A0A"/>
<path d="M687.21 1335.94L713.256 1337.94C699.693 1345.49 468.666 1473.41 451.25 1466.02C446.935 1464.17 439.383 1446.6 430.29 1421.01C431.369 1423.17 447.552 1456.46 456.182 1456.46C464.813 1456.46 687.21 1335.94 687.21 1335.94Z" fill="#680A0A"/>
<path d="M1053.1 1421.17C1044.01 1446.75 1036.46 1464.17 1032.14 1466.02C1014.42 1473.41 783.392 1345.49 770.138 1337.94L802.811 1335.32C802.811 1335.32 958.473 1432.88 1021.97 1452.3C1037.69 1457.23 1051.87 1424.1 1053.1 1421.17Z" fill="#680A0A"/>
<defs>
<linearGradient id="paint0_linear_296_12825" x1="750.056" y1="310.518" x2="750.056" y2="1197.18" gradientUnits="userSpaceOnUse">
<stop stop-color="#E5552F"/>
<stop offset="0.14" stop-color="#E75A34"/>
<stop offset="0.3" stop-color="#ED6843"/>
<stop offset="0.48" stop-color="#F77E5B"/>
<stop offset="0.49" stop-color="#F77F5C"/>
<stop offset="1" stop-color="#F7A66C"/>
</linearGradient>
<linearGradient id="paint1_linear_296_12825" x1="742.84" y1="1077.17" x2="742.84" y2="234.28" gradientUnits="userSpaceOnUse">
<stop stop-color="#E5552F"/>
<stop offset="0.14" stop-color="#E75A34"/>
<stop offset="0.3" stop-color="#ED6843"/>
<stop offset="0.48" stop-color="#F77E5B"/>
<stop offset="0.49" stop-color="#F77F5C"/>
<stop offset="1" stop-color="#F7A66C"/>
</linearGradient>
<linearGradient id="paint2_linear_296_12825" x1="265.384" y1="157.53" x2="441.544" y2="157.53" gradientUnits="userSpaceOnUse">
<stop stop-color="#E5552F"/>
<stop offset="0.14" stop-color="#E75A34"/>
<stop offset="0.3" stop-color="#ED6843"/>
<stop offset="0.48" stop-color="#F77E5B"/>
<stop offset="0.49" stop-color="#F77F5C"/>
<stop offset="1" stop-color="#F7A66C"/>
</linearGradient>
<linearGradient id="paint3_linear_296_12825" x1="265.384" y1="157.527" x2="441.544" y2="157.527" gradientUnits="userSpaceOnUse">
<stop stop-color="#B01B03"/>
<stop offset="0.18" stop-color="#B11E06"/>
<stop offset="0.31" stop-color="#B4260F"/>
<stop offset="0.43" stop-color="#B83520"/>
<stop offset="0.54" stop-color="#BE4936"/>
<stop offset="0.64" stop-color="#C76454"/>
<stop offset="0.74" stop-color="#D18578"/>
<stop offset="0.84" stop-color="#DDACA3"/>
<stop offset="0.93" stop-color="#EBD7D3"/>
<stop offset="1" stop-color="#F7FFFF"/>
</linearGradient>
<linearGradient id="paint4_linear_296_12825" x1="844.249" y1="-534.109" x2="839.954" y2="-385.735" gradientUnits="userSpaceOnUse">
<stop stop-color="#E84E1A"/>
<stop offset="0.51" stop-color="#D74348"/>
<stop offset="1" stop-color="#C62C15"/>
</linearGradient>
<linearGradient id="paint5_linear_296_12825" x1="265.681" y1="238.446" x2="350.602" y2="238.446" gradientUnits="userSpaceOnUse">
<stop stop-color="#B01B03"/>
<stop offset="0.18" stop-color="#B11E06"/>
<stop offset="0.31" stop-color="#B4260F"/>
<stop offset="0.43" stop-color="#B83520"/>
<stop offset="0.54" stop-color="#BE4936"/>
<stop offset="0.64" stop-color="#C76454"/>
<stop offset="0.74" stop-color="#D18578"/>
<stop offset="0.84" stop-color="#DDACA3"/>
<stop offset="0.93" stop-color="#EBD7D3"/>
<stop offset="1" stop-color="#F7FFFF"/>
</linearGradient>
<linearGradient id="paint6_linear_296_12825" x1="20.0318" y1="359.424" x2="325.808" y2="359.424" gradientUnits="userSpaceOnUse">
<stop stop-color="#E5552F"/>
<stop offset="0.14" stop-color="#E75A34"/>
<stop offset="0.3" stop-color="#ED6843"/>
<stop offset="0.48" stop-color="#F77E5B"/>
<stop offset="0.49" stop-color="#F77F5C"/>
<stop offset="1" stop-color="#F7A66C"/>
</linearGradient>
<linearGradient id="paint7_linear_296_12825" x1="20.0354" y1="359.427" x2="325.812" y2="359.427" gradientUnits="userSpaceOnUse">
<stop stop-color="#B01B03"/>
<stop offset="0.18" stop-color="#B11E06"/>
<stop offset="0.31" stop-color="#B4260F"/>
<stop offset="0.43" stop-color="#B83520"/>
<stop offset="0.54" stop-color="#BE4936"/>
<stop offset="0.64" stop-color="#C76454"/>
<stop offset="0.74" stop-color="#D18578"/>
<stop offset="0.84" stop-color="#DDACA3"/>
<stop offset="0.93" stop-color="#EBD7D3"/>
<stop offset="1" stop-color="#F7FFFF"/>
</linearGradient>
<linearGradient id="paint8_linear_296_12825" x1="-11.0452" y1="199.708" x2="138.263" y2="189.258" gradientUnits="userSpaceOnUse">
<stop stop-color="#E84E1A"/>
<stop offset="0.51" stop-color="#D74348"/>
<stop offset="1" stop-color="#C62C15"/>
</linearGradient>
<linearGradient id="paint9_linear_296_12825" x1="182.014" y1="405.202" x2="324.576" y2="405.202" gradientUnits="userSpaceOnUse">
<stop stop-color="#B01B03"/>
<stop offset="0.18" stop-color="#B11E06"/>
<stop offset="0.31" stop-color="#B4260F"/>
<stop offset="0.43" stop-color="#B83520"/>
<stop offset="0.54" stop-color="#BE4936"/>
<stop offset="0.64" stop-color="#C76454"/>
<stop offset="0.74" stop-color="#D18578"/>
<stop offset="0.84" stop-color="#DDACA3"/>
<stop offset="0.93" stop-color="#EBD7D3"/>
<stop offset="1" stop-color="#F7FFFF"/>
</linearGradient>
<linearGradient id="paint10_linear_296_12825" x1="289.558" y1="362.972" x2="175.971" y2="142.271" gradientUnits="userSpaceOnUse">
<stop stop-color="#E5552F"/>
<stop offset="0.14" stop-color="#E75A34"/>
<stop offset="0.3" stop-color="#ED6843"/>
<stop offset="0.48" stop-color="#F77E5B"/>
<stop offset="0.49" stop-color="#F77F5C"/>
<stop offset="1" stop-color="#F7A66C"/>
</linearGradient>
<linearGradient id="paint11_linear_296_12825" x1="80.8787" y1="217.485" x2="350.898" y2="217.485" gradientUnits="userSpaceOnUse">
<stop stop-color="#B01B03"/>
<stop offset="0.18" stop-color="#B11E06"/>
<stop offset="0.31" stop-color="#B4260F"/>
<stop offset="0.43" stop-color="#B83520"/>
<stop offset="0.54" stop-color="#BE4936"/>
<stop offset="0.64" stop-color="#C76454"/>
<stop offset="0.74" stop-color="#D18578"/>
<stop offset="0.84" stop-color="#DDACA3"/>
<stop offset="0.93" stop-color="#EBD7D3"/>
<stop offset="1" stop-color="#F7FFFF"/>
</linearGradient>
<linearGradient id="paint12_linear_296_12825" x1="495.059" y1="356.186" x2="618.855" y2="468.309" gradientUnits="userSpaceOnUse">
<stop stop-color="#E84E1A"/>
<stop offset="0.51" stop-color="#D74348"/>
<stop offset="1" stop-color="#C62C15"/>
</linearGradient>
<linearGradient id="paint13_linear_296_12825" x1="1042.6" y1="157.53" x2="1218.76" y2="157.53" gradientUnits="userSpaceOnUse">
<stop stop-color="#E5552F"/>
<stop offset="0.14" stop-color="#E75A34"/>
<stop offset="0.3" stop-color="#ED6843"/>
<stop offset="0.48" stop-color="#F77E5B"/>
<stop offset="0.49" stop-color="#F77F5C"/>
<stop offset="1" stop-color="#F7A66C"/>
</linearGradient>
<linearGradient id="paint14_linear_296_12825" x1="1042.59" y1="157.527" x2="1218.75" y2="157.527" gradientUnits="userSpaceOnUse">
<stop stop-color="#B01B03"/>
<stop offset="0.18" stop-color="#B11E06"/>
<stop offset="0.31" stop-color="#B4260F"/>
<stop offset="0.43" stop-color="#B83520"/>
<stop offset="0.54" stop-color="#BE4936"/>
<stop offset="0.64" stop-color="#C76454"/>
<stop offset="0.74" stop-color="#D18578"/>
<stop offset="0.84" stop-color="#DDACA3"/>
<stop offset="0.93" stop-color="#EBD7D3"/>
<stop offset="1" stop-color="#F7FFFF"/>
</linearGradient>
<linearGradient id="paint15_linear_296_12825" x1="1121.04" y1="151.507" x2="1126.15" y2="299.433" gradientUnits="userSpaceOnUse">
<stop stop-color="#E84E1A"/>
<stop offset="0.51" stop-color="#D74348"/>
<stop offset="1" stop-color="#C62C15"/>
</linearGradient>
<linearGradient id="paint16_linear_296_12825" x1="1133.69" y1="238.446" x2="1218.61" y2="238.446" gradientUnits="userSpaceOnUse">
<stop stop-color="#B01B03"/>
<stop offset="0.18" stop-color="#B11E06"/>
<stop offset="0.31" stop-color="#B4260F"/>
<stop offset="0.43" stop-color="#B83520"/>
<stop offset="0.54" stop-color="#BE4936"/>
<stop offset="0.64" stop-color="#C76454"/>
<stop offset="0.74" stop-color="#D18578"/>
<stop offset="0.84" stop-color="#DDACA3"/>
<stop offset="0.93" stop-color="#EBD7D3"/>
<stop offset="1" stop-color="#F7FFFF"/>
</linearGradient>
<linearGradient id="paint17_linear_296_12825" x1="1158.5" y1="359.43" x2="1464.27" y2="359.43" gradientUnits="userSpaceOnUse">
<stop stop-color="#E5552F"/>
<stop offset="0.14" stop-color="#E75A34"/>
<stop offset="0.3" stop-color="#ED6843"/>
<stop offset="0.48" stop-color="#F77E5B"/>
<stop offset="0.49" stop-color="#F77F5C"/>
<stop offset="1" stop-color="#F7A66C"/>
</linearGradient>
<linearGradient id="paint18_linear_296_12825" x1="1158.5" y1="359.427" x2="1464.27" y2="359.427" gradientUnits="userSpaceOnUse">
<stop stop-color="#B01B03"/>
<stop offset="0.18" stop-color="#B11E06"/>
<stop offset="0.31" stop-color="#B4260F"/>
<stop offset="0.43" stop-color="#B83520"/>
<stop offset="0.54" stop-color="#BE4936"/>
<stop offset="0.64" stop-color="#C76454"/>
<stop offset="0.74" stop-color="#D18578"/>
<stop offset="0.84" stop-color="#DDACA3"/>
<stop offset="0.93" stop-color="#EBD7D3"/>
<stop offset="1" stop-color="#F7FFFF"/>
</linearGradient>
<linearGradient id="paint19_linear_296_12825" x1="1305.71" y1="348.21" x2="1156.09" y2="338.388" gradientUnits="userSpaceOnUse">
<stop stop-color="#E84E1A"/>
<stop offset="0.51" stop-color="#D74348"/>
<stop offset="1" stop-color="#C62C15"/>
</linearGradient>
<linearGradient id="paint20_linear_296_12825" x1="1159.74" y1="405.202" x2="1302.15" y2="405.202" gradientUnits="userSpaceOnUse">
<stop stop-color="#B01B03"/>
<stop offset="0.18" stop-color="#B11E06"/>
<stop offset="0.31" stop-color="#B4260F"/>
<stop offset="0.43" stop-color="#B83520"/>
<stop offset="0.54" stop-color="#BE4936"/>
<stop offset="0.64" stop-color="#C76454"/>
<stop offset="0.74" stop-color="#D18578"/>
<stop offset="0.84" stop-color="#DDACA3"/>
<stop offset="0.93" stop-color="#EBD7D3"/>
<stop offset="1" stop-color="#F7FFFF"/>
</linearGradient>
<linearGradient id="paint21_linear_296_12825" x1="1284.75" y1="437.259" x2="1268.57" y2="209.93" gradientUnits="userSpaceOnUse">
<stop stop-color="#E5552F"/>
<stop offset="0.14" stop-color="#E75A34"/>
<stop offset="0.3" stop-color="#ED6843"/>
<stop offset="0.48" stop-color="#F77E5B"/>
<stop offset="0.49" stop-color="#F77F5C"/>
<stop offset="1" stop-color="#F7A66C"/>
</linearGradient>
<linearGradient id="paint22_linear_296_12825" x1="1133.41" y1="217.485" x2="1403.27" y2="217.485" gradientUnits="userSpaceOnUse">
<stop stop-color="#B01B03"/>
<stop offset="0.18" stop-color="#B11E06"/>
<stop offset="0.31" stop-color="#B4260F"/>
<stop offset="0.43" stop-color="#B83520"/>
<stop offset="0.54" stop-color="#BE4936"/>
<stop offset="0.64" stop-color="#C76454"/>
<stop offset="0.74" stop-color="#D18578"/>
<stop offset="0.84" stop-color="#DDACA3"/>
<stop offset="0.93" stop-color="#EBD7D3"/>
<stop offset="1" stop-color="#F7FFFF"/>
</linearGradient>
<linearGradient id="paint23_linear_296_12825" x1="1270.63" y1="212.997" x2="1147.01" y2="324.708" gradientUnits="userSpaceOnUse">
<stop stop-color="#E84E1A"/>
<stop offset="0.51" stop-color="#D74348"/>
<stop offset="1" stop-color="#C62C15"/>
</linearGradient>
<linearGradient id="paint24_linear_296_12825" x1="265.384" y1="1341.18" x2="441.544" y2="1341.18" gradientUnits="userSpaceOnUse">
<stop stop-color="#E5552F"/>
<stop offset="0.14" stop-color="#E75A34"/>
<stop offset="0.3" stop-color="#ED6843"/>
<stop offset="0.48" stop-color="#F77E5B"/>
<stop offset="0.49" stop-color="#F77F5C"/>
<stop offset="1" stop-color="#F7A66C"/>
</linearGradient>
<linearGradient id="paint25_linear_296_12825" x1="265.384" y1="1341.18" x2="441.544" y2="1341.18" gradientUnits="userSpaceOnUse">
<stop stop-color="#B01B03"/>
<stop offset="0.18" stop-color="#B11E06"/>
<stop offset="0.31" stop-color="#B4260F"/>
<stop offset="0.43" stop-color="#B83520"/>
<stop offset="0.54" stop-color="#BE4936"/>
<stop offset="0.64" stop-color="#C76454"/>
<stop offset="0.74" stop-color="#D18578"/>
<stop offset="0.84" stop-color="#DDACA3"/>
<stop offset="0.93" stop-color="#EBD7D3"/>
<stop offset="1" stop-color="#F7FFFF"/>
</linearGradient>
<linearGradient id="paint26_linear_296_12825" x1="355.808" y1="1360.67" x2="350.843" y2="1212.7" gradientUnits="userSpaceOnUse">
<stop stop-color="#E84E1A"/>
<stop offset="0.51" stop-color="#D74348"/>
<stop offset="1" stop-color="#C62C15"/>
</linearGradient>
<linearGradient id="paint27_linear_296_12825" x1="265.681" y1="1260.11" x2="350.602" y2="1260.11" gradientUnits="userSpaceOnUse">
<stop stop-color="#B01B03"/>
<stop offset="0.18" stop-color="#B11E06"/>
<stop offset="0.31" stop-color="#B4260F"/>
<stop offset="0.43" stop-color="#B83520"/>
<stop offset="0.54" stop-color="#BE4936"/>
<stop offset="0.64" stop-color="#C76454"/>
<stop offset="0.74" stop-color="#D18578"/>
<stop offset="0.84" stop-color="#DDACA3"/>
<stop offset="0.93" stop-color="#EBD7D3"/>
<stop offset="1" stop-color="#F7FFFF"/>
</linearGradient>
<linearGradient id="paint28_linear_296_12825" x1="20.0171" y1="1139.13" x2="325.793" y2="1139.13" gradientUnits="userSpaceOnUse">
<stop stop-color="#E5552F"/>
<stop offset="0.14" stop-color="#E75A34"/>
<stop offset="0.3" stop-color="#ED6843"/>
<stop offset="0.48" stop-color="#F77E5B"/>
<stop offset="0.49" stop-color="#F77F5C"/>
<stop offset="1" stop-color="#F7A66C"/>
</linearGradient>
<linearGradient id="paint29_linear_296_12825" x1="20.0188" y1="1139.13" x2="325.795" y2="1139.13" gradientUnits="userSpaceOnUse">
<stop stop-color="#B01B03"/>
<stop offset="0.18" stop-color="#B11E06"/>
<stop offset="0.31" stop-color="#B4260F"/>
<stop offset="0.43" stop-color="#B83520"/>
<stop offset="0.54" stop-color="#BE4936"/>
<stop offset="0.64" stop-color="#C76454"/>
<stop offset="0.74" stop-color="#D18578"/>
<stop offset="0.84" stop-color="#DDACA3"/>
<stop offset="0.93" stop-color="#EBD7D3"/>
<stop offset="1" stop-color="#F7FFFF"/>
</linearGradient>
<linearGradient id="paint30_linear_296_12825" x1="177.866" y1="1142.26" x2="327.479" y2="1152.08" gradientUnits="userSpaceOnUse">
<stop stop-color="#E84E1A"/>
<stop offset="0.51" stop-color="#D74348"/>
<stop offset="1" stop-color="#C62C15"/>
</linearGradient>
<linearGradient id="paint31_linear_296_12825" x1="182.014" y1="1093.35" x2="324.576" y2="1093.35" gradientUnits="userSpaceOnUse">
<stop stop-color="#B01B03"/>
<stop offset="0.18" stop-color="#B11E06"/>
<stop offset="0.31" stop-color="#B4260F"/>
<stop offset="0.43" stop-color="#B83520"/>
<stop offset="0.54" stop-color="#BE4936"/>
<stop offset="0.64" stop-color="#C76454"/>
<stop offset="0.74" stop-color="#D18578"/>
<stop offset="0.84" stop-color="#DDACA3"/>
<stop offset="0.93" stop-color="#EBD7D3"/>
<stop offset="1" stop-color="#F7FFFF"/>
</linearGradient>
<linearGradient id="paint32_linear_296_12825" x1="336.565" y1="1364.6" x2="80.8787" y2="1204.78" gradientUnits="userSpaceOnUse">
<stop stop-color="#E5552F"/>
<stop offset="0.14" stop-color="#E75A34"/>
<stop offset="0.3" stop-color="#ED6843"/>
<stop offset="0.48" stop-color="#F77E5B"/>
<stop offset="0.49" stop-color="#F77F5C"/>
<stop offset="1" stop-color="#F7A66C"/>
</linearGradient>
<linearGradient id="paint33_linear_296_12825" x1="80.8787" y1="1281.07" x2="350.898" y2="1281.07" gradientUnits="userSpaceOnUse">
<stop stop-color="#B01B03"/>
<stop offset="0.18" stop-color="#B11E06"/>
<stop offset="0.31" stop-color="#B4260F"/>
<stop offset="0.43" stop-color="#B83520"/>
<stop offset="0.54" stop-color="#BE4936"/>
<stop offset="0.64" stop-color="#C76454"/>
<stop offset="0.74" stop-color="#D18578"/>
<stop offset="0.84" stop-color="#DDACA3"/>
<stop offset="0.93" stop-color="#EBD7D3"/>
<stop offset="1" stop-color="#F7FFFF"/>
</linearGradient>
<linearGradient id="paint34_linear_296_12825" x1="220.734" y1="1289.72" x2="344.353" y2="1178.01" gradientUnits="userSpaceOnUse">
<stop stop-color="#E84E1A"/>
<stop offset="0.51" stop-color="#D74348"/>
<stop offset="1" stop-color="#C62C15"/>
</linearGradient>
<linearGradient id="paint35_linear_296_12825" x1="1042.6" y1="1341.18" x2="1218.76" y2="1341.18" gradientUnits="userSpaceOnUse">
<stop stop-color="#E5552F"/>
<stop offset="0.14" stop-color="#E75A34"/>
<stop offset="0.3" stop-color="#ED6843"/>
<stop offset="0.48" stop-color="#F77E5B"/>
<stop offset="0.49" stop-color="#F77F5C"/>
<stop offset="1" stop-color="#F7A66C"/>
</linearGradient>
<linearGradient id="paint36_linear_296_12825" x1="1042.59" y1="1341.18" x2="1218.75" y2="1341.18" gradientUnits="userSpaceOnUse">
<stop stop-color="#B01B03"/>
<stop offset="0.18" stop-color="#B11E06"/>
<stop offset="0.31" stop-color="#B4260F"/>
<stop offset="0.43" stop-color="#B83520"/>
<stop offset="0.54" stop-color="#BE4936"/>
<stop offset="0.64" stop-color="#C76454"/>
<stop offset="0.74" stop-color="#D18578"/>
<stop offset="0.84" stop-color="#DDACA3"/>
<stop offset="0.93" stop-color="#EBD7D3"/>
<stop offset="1" stop-color="#F7FFFF"/>
</linearGradient>
<linearGradient id="paint37_linear_296_12825" x1="1947.89" y1="1589.8" x2="1952.19" y2="1441.42" gradientUnits="userSpaceOnUse">
<stop stop-color="#E84E1A"/>
<stop offset="0.51" stop-color="#D74348"/>
<stop offset="1" stop-color="#C62C15"/>
</linearGradient>
<linearGradient id="paint38_linear_296_12825" x1="1133.69" y1="1260.11" x2="1218.61" y2="1260.11" gradientUnits="userSpaceOnUse">
<stop stop-color="#B01B03"/>
<stop offset="0.18" stop-color="#B11E06"/>
<stop offset="0.31" stop-color="#B4260F"/>
<stop offset="0.43" stop-color="#B83520"/>
<stop offset="0.54" stop-color="#BE4936"/>
<stop offset="0.64" stop-color="#C76454"/>
<stop offset="0.74" stop-color="#D18578"/>
<stop offset="0.84" stop-color="#DDACA3"/>
<stop offset="0.93" stop-color="#EBD7D3"/>
<stop offset="1" stop-color="#F7FFFF"/>
</linearGradient>
<linearGradient id="paint39_linear_296_12825" x1="1136.32" y1="1291.24" x2="1218.77" y2="1291.24" gradientUnits="userSpaceOnUse">
<stop stop-color="#B01B03"/>
<stop offset="0.18" stop-color="#B11E06"/>
<stop offset="0.31" stop-color="#B4260F"/>
<stop offset="0.43" stop-color="#B83520"/>
<stop offset="0.54" stop-color="#BE4936"/>
<stop offset="0.64" stop-color="#C76454"/>
<stop offset="0.74" stop-color="#D18578"/>
<stop offset="0.84" stop-color="#DDACA3"/>
<stop offset="0.93" stop-color="#EBD7D3"/>
<stop offset="1" stop-color="#F7FFFF"/>
</linearGradient>
<linearGradient id="paint40_linear_296_12825" x1="1158.5" y1="1139.13" x2="1464.27" y2="1139.13" gradientUnits="userSpaceOnUse">
<stop stop-color="#E5552F"/>
<stop offset="0.14" stop-color="#E75A34"/>
<stop offset="0.3" stop-color="#ED6843"/>
<stop offset="0.48" stop-color="#F77E5B"/>
<stop offset="0.49" stop-color="#F77F5C"/>
<stop offset="1" stop-color="#F7A66C"/>
</linearGradient>
<linearGradient id="paint41_linear_296_12825" x1="1158.5" y1="1139.13" x2="1464.27" y2="1139.13" gradientUnits="userSpaceOnUse">
<stop stop-color="#B01B03"/>
<stop offset="0.18" stop-color="#B11E06"/>
<stop offset="0.31" stop-color="#B4260F"/>
<stop offset="0.43" stop-color="#B83520"/>
<stop offset="0.54" stop-color="#BE4936"/>
<stop offset="0.64" stop-color="#C76454"/>
<stop offset="0.74" stop-color="#D18578"/>
<stop offset="0.84" stop-color="#DDACA3"/>
<stop offset="0.93" stop-color="#EBD7D3"/>
<stop offset="1" stop-color="#F7FFFF"/>
</linearGradient>
<linearGradient id="paint42_linear_296_12825" x1="1874.47" y1="363.818" x2="1725.16" y2="374.269" gradientUnits="userSpaceOnUse">
<stop stop-color="#E84E1A"/>
<stop offset="0.51" stop-color="#D74348"/>
<stop offset="1" stop-color="#C62C15"/>
</linearGradient>
<linearGradient id="paint43_linear_296_12825" x1="1159.74" y1="1093.35" x2="1302.15" y2="1093.35" gradientUnits="userSpaceOnUse">
<stop stop-color="#B01B03"/>
<stop offset="0.18" stop-color="#B11E06"/>
<stop offset="0.31" stop-color="#B4260F"/>
<stop offset="0.43" stop-color="#B83520"/>
<stop offset="0.54" stop-color="#BE4936"/>
<stop offset="0.64" stop-color="#C76454"/>
<stop offset="0.74" stop-color="#D18578"/>
<stop offset="0.84" stop-color="#DDACA3"/>
<stop offset="0.93" stop-color="#EBD7D3"/>
<stop offset="1" stop-color="#F7FFFF"/>
</linearGradient>
<linearGradient id="paint44_linear_296_12825" x1="1221.26" y1="1371.84" x2="1330.07" y2="1189.98" gradientUnits="userSpaceOnUse">
<stop stop-color="#E5552F"/>
<stop offset="0.14" stop-color="#E75A34"/>
<stop offset="0.3" stop-color="#ED6843"/>
<stop offset="0.48" stop-color="#F77E5B"/>
<stop offset="0.49" stop-color="#F77F5C"/>
<stop offset="1" stop-color="#F7A66C"/>
</linearGradient>
<linearGradient id="paint45_linear_296_12825" x1="1133.41" y1="1281.07" x2="1403.27" y2="1281.07" gradientUnits="userSpaceOnUse">
<stop stop-color="#B01B03"/>
<stop offset="0.18" stop-color="#B11E06"/>
<stop offset="0.31" stop-color="#B4260F"/>
<stop offset="0.43" stop-color="#B83520"/>
<stop offset="0.54" stop-color="#BE4936"/>
<stop offset="0.64" stop-color="#C76454"/>
<stop offset="0.74" stop-color="#D18578"/>
<stop offset="0.84" stop-color="#DDACA3"/>
<stop offset="0.93" stop-color="#EBD7D3"/>
<stop offset="1" stop-color="#F7FFFF"/>
</linearGradient>
<linearGradient id="paint46_linear_296_12825" x1="1199.48" y1="1695.75" x2="1075.68" y2="1583.63" gradientUnits="userSpaceOnUse">
<stop stop-color="#E84E1A"/>
<stop offset="0.51" stop-color="#D74348"/>
<stop offset="1" stop-color="#C62C15"/>
</linearGradient>
<linearGradient id="paint47_linear_296_12825" x1="741.603" y1="1292.32" x2="741.603" y2="-242.104" gradientUnits="userSpaceOnUse">
<stop stop-color="#E5552F"/>
<stop offset="0.14" stop-color="#E75A34"/>
<stop offset="0.3" stop-color="#ED6843"/>
<stop offset="0.48" stop-color="#F77E5B"/>
<stop offset="0.49" stop-color="#F77F5C"/>
<stop offset="1" stop-color="#F7A66C"/>
</linearGradient>
<linearGradient id="paint48_linear_296_12825" x1="553.142" y1="1238.85" x2="477.315" y2="1409.92" gradientUnits="userSpaceOnUse">
<stop stop-color="#E84E1A"/>
<stop offset="0.51" stop-color="#D74348"/>
<stop offset="1" stop-color="#C62C15"/>
</linearGradient>
<linearGradient id="paint49_linear_296_12825" x1="533.705" y1="1393.43" x2="533.705" y2="1307.89" gradientUnits="userSpaceOnUse">
<stop stop-color="#F7632E"/>
<stop offset="1" stop-color="#F7B57E"/>
</linearGradient>
<linearGradient id="paint50_linear_296_12825" x1="422.287" y1="1325" x2="640.06" y2="1325" gradientUnits="userSpaceOnUse">
<stop stop-color="#B01B03"/>
<stop offset="0.18" stop-color="#B11E06"/>
<stop offset="0.31" stop-color="#B4260F"/>
<stop offset="0.43" stop-color="#B83520"/>
<stop offset="0.54" stop-color="#BE4936"/>
<stop offset="0.64" stop-color="#C76454"/>
<stop offset="0.74" stop-color="#D18578"/>
<stop offset="0.84" stop-color="#DDACA3"/>
<stop offset="0.93" stop-color="#EBD7D3"/>
<stop offset="1" stop-color="#F7FFFF"/>
</linearGradient>
<linearGradient id="paint51_linear_296_12825" x1="927.317" y1="1229.9" x2="1014.4" y2="1437.19" gradientUnits="userSpaceOnUse">
<stop stop-color="#E84E1A"/>
<stop offset="0.51" stop-color="#D74348"/>
<stop offset="1" stop-color="#C62C15"/>
</linearGradient>
<linearGradient id="paint52_linear_296_12825" x1="949.387" y1="1393.43" x2="949.387" y2="1307.89" gradientUnits="userSpaceOnUse">
<stop stop-color="#F7632E"/>
<stop offset="1" stop-color="#F7B57E"/>
</linearGradient>
<linearGradient id="paint53_linear_296_12825" x1="843.029" y1="1325" x2="1060.8" y2="1325" gradientUnits="userSpaceOnUse">
<stop stop-color="#B01B03"/>
<stop offset="0.18" stop-color="#B11E06"/>
<stop offset="0.31" stop-color="#B4260F"/>
<stop offset="0.43" stop-color="#B83520"/>
<stop offset="0.54" stop-color="#BE4936"/>
<stop offset="0.64" stop-color="#C76454"/>
<stop offset="0.74" stop-color="#D18578"/>
<stop offset="0.84" stop-color="#DDACA3"/>
<stop offset="0.93" stop-color="#EBD7D3"/>
<stop offset="1" stop-color="#F7FFFF"/>
</linearGradient>
<linearGradient id="paint54_linear_296_12825" x1="503.207" y1="152.138" x2="560.077" y2="277.13" gradientUnits="userSpaceOnUse">
<stop stop-color="#E84E1A"/>
<stop offset="0.51" stop-color="#D74348"/>
<stop offset="1" stop-color="#C62C15"/>
</linearGradient>
<linearGradient id="paint55_linear_296_12825" x1="486.39" y1="92.7999" x2="536.171" y2="218.254" gradientUnits="userSpaceOnUse">
<stop stop-color="#E5552F"/>
<stop offset="0.14" stop-color="#E75A34"/>
<stop offset="0.3" stop-color="#ED6843"/>
<stop offset="0.48" stop-color="#F77E5B"/>
<stop offset="0.49" stop-color="#F77F5C"/>
<stop offset="1" stop-color="#F7A66C"/>
</linearGradient>
<linearGradient id="paint56_linear_296_12825" x1="422.287" y1="176.951" x2="640.06" y2="176.951" gradientUnits="userSpaceOnUse">
<stop stop-color="#B01B03"/>
<stop offset="0.18" stop-color="#B11E06"/>
<stop offset="0.31" stop-color="#B4260F"/>
<stop offset="0.43" stop-color="#B83520"/>
<stop offset="0.54" stop-color="#BE4936"/>
<stop offset="0.64" stop-color="#C76454"/>
<stop offset="0.74" stop-color="#D18578"/>
<stop offset="0.84" stop-color="#DDACA3"/>
<stop offset="0.93" stop-color="#EBD7D3"/>
<stop offset="1" stop-color="#F7FFFF"/>
</linearGradient>
<linearGradient id="paint57_linear_296_12825" x1="980.042" y1="152.138" x2="923.172" y2="277.13" gradientUnits="userSpaceOnUse">
<stop stop-color="#E84E1A"/>
<stop offset="0.51" stop-color="#D74348"/>
<stop offset="1" stop-color="#C62C15"/>
</linearGradient>
<linearGradient id="paint58_linear_296_12825" x1="996.841" y1="92.7999" x2="947.06" y2="218.254" gradientUnits="userSpaceOnUse">
<stop stop-color="#E5552F"/>
<stop offset="0.14" stop-color="#E75A34"/>
<stop offset="0.3" stop-color="#ED6843"/>
<stop offset="0.48" stop-color="#F77E5B"/>
<stop offset="0.49" stop-color="#F77F5C"/>
<stop offset="1" stop-color="#F7A66C"/>
</linearGradient>
<linearGradient id="paint59_linear_296_12825" x1="843.198" y1="176.951" x2="1060.97" y2="176.951" gradientUnits="userSpaceOnUse">
<stop stop-color="#B01B03"/>
<stop offset="0.18" stop-color="#B11E06"/>
<stop offset="0.31" stop-color="#B4260F"/>
<stop offset="0.43" stop-color="#B83520"/>
<stop offset="0.54" stop-color="#BE4936"/>
<stop offset="0.64" stop-color="#C76454"/>
<stop offset="0.74" stop-color="#D18578"/>
<stop offset="0.84" stop-color="#DDACA3"/>
<stop offset="0.93" stop-color="#EBD7D3"/>
<stop offset="1" stop-color="#F7FFFF"/>
</linearGradient>
<linearGradient id="paint60_linear_296_12825" x1="2033.57" y1="1141.05" x2="1904.56" y2="1189.53" gradientUnits="userSpaceOnUse">
<stop stop-color="#E84E1A"/>
<stop offset="0.51" stop-color="#D74348"/>
<stop offset="1" stop-color="#C62C15"/>
</linearGradient>
<linearGradient id="paint61_linear_296_12825" x1="2087.75" y1="1110.96" x2="1963.23" y2="1164.8" gradientUnits="userSpaceOnUse">
<stop stop-color="#E5552F"/>
<stop offset="0.14" stop-color="#E75A34"/>
<stop offset="0.3" stop-color="#ED6843"/>
<stop offset="0.48" stop-color="#F77E5B"/>
<stop offset="0.49" stop-color="#F77F5C"/>
<stop offset="1" stop-color="#F7A66C"/>
</linearGradient>
<linearGradient id="paint62_linear_296_12825" x1="1220.62" y1="517.555" x2="1391.07" y2="517.555" gradientUnits="userSpaceOnUse">
<stop stop-color="#B01B03"/>
<stop offset="0.18" stop-color="#B11E06"/>
<stop offset="0.31" stop-color="#B4260F"/>
<stop offset="0.43" stop-color="#B83520"/>
<stop offset="0.54" stop-color="#BE4936"/>
<stop offset="0.64" stop-color="#C76454"/>
<stop offset="0.74" stop-color="#D18578"/>
<stop offset="0.84" stop-color="#DDACA3"/>
<stop offset="0.93" stop-color="#EBD7D3"/>
<stop offset="1" stop-color="#F7FFFF"/>
</linearGradient>
<linearGradient id="paint63_linear_296_12825" x1="2242.36" y1="962.431" x2="2113.35" y2="913.955" gradientUnits="userSpaceOnUse">
<stop stop-color="#E84E1A"/>
<stop offset="0.51" stop-color="#D74348"/>
<stop offset="1" stop-color="#C62C15"/>
</linearGradient>
<linearGradient id="paint64_linear_296_12825" x1="2296.54" y1="992.529" x2="2172.12" y2="938.801" gradientUnits="userSpaceOnUse">
<stop stop-color="#E5552F"/>
<stop offset="0.14" stop-color="#E75A34"/>
<stop offset="0.3" stop-color="#ED6843"/>
<stop offset="0.48" stop-color="#F77E5B"/>
<stop offset="0.49" stop-color="#F77F5C"/>
<stop offset="1" stop-color="#F7A66C"/>
</linearGradient>
<linearGradient id="paint65_linear_296_12825" x1="1220.62" y1="983.313" x2="1391.07" y2="983.313" gradientUnits="userSpaceOnUse">
<stop stop-color="#B01B03"/>
<stop offset="0.18" stop-color="#B11E06"/>
<stop offset="0.31" stop-color="#B4260F"/>
<stop offset="0.43" stop-color="#B83520"/>
<stop offset="0.54" stop-color="#BE4936"/>
<stop offset="0.64" stop-color="#C76454"/>
<stop offset="0.74" stop-color="#D18578"/>
<stop offset="0.84" stop-color="#DDACA3"/>
<stop offset="0.93" stop-color="#EBD7D3"/>
<stop offset="1" stop-color="#F7FFFF"/>
</linearGradient>
<linearGradient id="paint66_linear_296_12825" x1="132.295" y1="903.706" x2="261.417" y2="952.072" gradientUnits="userSpaceOnUse">
<stop stop-color="#E84E1A"/>
<stop offset="0.51" stop-color="#D74348"/>
<stop offset="1" stop-color="#C62C15"/>
</linearGradient>
<linearGradient id="paint67_linear_296_12825" x1="78.1125" y1="873.613" x2="202.53" y2="927.341" gradientUnits="userSpaceOnUse">
<stop stop-color="#E5552F"/>
<stop offset="0.14" stop-color="#E75A34"/>
<stop offset="0.3" stop-color="#ED6843"/>
<stop offset="0.48" stop-color="#F77E5B"/>
<stop offset="0.49" stop-color="#F77F5C"/>
<stop offset="1" stop-color="#F7A66C"/>
</linearGradient>
<linearGradient id="paint68_linear_296_12825" x1="89.2113" y1="517.555" x2="259.823" y2="517.555" gradientUnits="userSpaceOnUse">
<stop stop-color="#B01B03"/>
<stop offset="0.18" stop-color="#B11E06"/>
<stop offset="0.31" stop-color="#B4260F"/>
<stop offset="0.43" stop-color="#B83520"/>
<stop offset="0.54" stop-color="#BE4936"/>
<stop offset="0.64" stop-color="#C76454"/>
<stop offset="0.74" stop-color="#D18578"/>
<stop offset="0.84" stop-color="#DDACA3"/>
<stop offset="0.93" stop-color="#EBD7D3"/>
<stop offset="1" stop-color="#F7FFFF"/>
</linearGradient>
<linearGradient id="paint69_linear_296_12825" x1="-76.599" y1="1199.88" x2="52.5235" y2="1151.52" gradientUnits="userSpaceOnUse">
<stop stop-color="#E84E1A"/>
<stop offset="0.51" stop-color="#D74348"/>
<stop offset="1" stop-color="#C62C15"/>
</linearGradient>
<linearGradient id="paint70_linear_296_12825" x1="-130.672" y1="1230.09" x2="-6.1454" y2="1176.25" gradientUnits="userSpaceOnUse">
<stop stop-color="#E5552F"/>
<stop offset="0.14" stop-color="#E75A34"/>
<stop offset="0.3" stop-color="#ED6843"/>
<stop offset="0.48" stop-color="#F77E5B"/>
<stop offset="0.49" stop-color="#F77F5C"/>
<stop offset="1" stop-color="#F7A66C"/>
</linearGradient>
<linearGradient id="paint71_linear_296_12825" x1="89.2264" y1="983.305" x2="259.838" y2="983.305" gradientUnits="userSpaceOnUse">
<stop stop-color="#B01B03"/>
<stop offset="0.18" stop-color="#B11E06"/>
<stop offset="0.31" stop-color="#B4260F"/>
<stop offset="0.43" stop-color="#B83520"/>
<stop offset="0.54" stop-color="#BE4936"/>
<stop offset="0.64" stop-color="#C76454"/>
<stop offset="0.74" stop-color="#D18578"/>
<stop offset="0.84" stop-color="#DDACA3"/>
<stop offset="0.93" stop-color="#EBD7D3"/>
<stop offset="1" stop-color="#F7FFFF"/>
</linearGradient>
<linearGradient id="paint72_linear_296_12825" x1="741.603" y1="1852.71" x2="741.603" y2="277.282" gradientUnits="userSpaceOnUse">
<stop stop-color="#F36134"/>
<stop offset="1" stop-color="#C40721"/>
</linearGradient>
<linearGradient id="paint73_linear_296_12825" x1="741.608" y1="1240.69" x2="741.608" y2="1024.77" gradientUnits="userSpaceOnUse">
<stop stop-color="#F7FFEB"/>
<stop offset="1" stop-color="#F7FCB0"/>
</linearGradient>
<radialGradient id="paint74_radial_296_12825" cx="0" cy="0" r="1" gradientUnits="userSpaceOnUse" gradientTransform="translate(821.102 243.936) scale(169.995 169.995)">
<stop stop-color="#F74E24"/>
<stop offset="0.04" stop-color="#E64921"/>
<stop offset="0.17" stop-color="#AA3719"/>
<stop offset="0.31" stop-color="#772811"/>
<stop offset="0.44" stop-color="#4D1B0B"/>
<stop offset="0.57" stop-color="#2C1206"/>
<stop offset="0.69" stop-color="#150B03"/>
<stop offset="0.8" stop-color="#070601"/>
<stop offset="0.9" stop-color="#020500"/>
</radialGradient>
<radialGradient id="paint75_radial_296_12825" cx="0" cy="0" r="1" gradientUnits="userSpaceOnUse" gradientTransform="translate(506.363 1213.04) rotate(14.8757) scale(103.078 68.335)">
<stop stop-color="#DF5A29"/>
<stop offset="0.16" stop-color="#AF4820"/>
<stop offset="0.38" stop-color="#723015"/>
<stop offset="0.58" stop-color="#421E0C"/>
<stop offset="0.76" stop-color="#1F1005"/>
<stop offset="0.91" stop-color="#0A0801"/>
<stop offset="1" stop-color="#020500"/>
</radialGradient>
<linearGradient id="paint76_linear_296_12825" x1="1384.16" y1="1196.92" x2="1384.16" y2="785.416" gradientUnits="userSpaceOnUse">
<stop stop-color="#E5552F"/>
<stop offset="0.14" stop-color="#E75A34"/>
<stop offset="0.3" stop-color="#ED6843"/>
<stop offset="0.48" stop-color="#F77E5B"/>
<stop offset="0.49" stop-color="#F77F5C"/>
<stop offset="1" stop-color="#F7A66C"/>
</linearGradient>
<linearGradient id="paint77_linear_296_12825" x1="97.6881" y1="1196.92" x2="97.6881" y2="785.416" gradientUnits="userSpaceOnUse">
<stop stop-color="#E5552F"/>
<stop offset="0.14" stop-color="#E75A34"/>
<stop offset="0.3" stop-color="#ED6843"/>
<stop offset="0.48" stop-color="#F77E5B"/>
<stop offset="0.49" stop-color="#F77F5C"/>
<stop offset="1" stop-color="#F7A66C"/>
</linearGradient>
</defs>
</svg>
