<svg width="165" height="36" viewBox="0 0 165 36" fill="none" xmlns="http://www.w3.org/2000/svg">
<g clip-path="url(#clip0_337_6225)">
<path d="M3.70269 3.89971C3.86633 2.28127 5.22882 1.0496 6.85552 1.0496H160.881C162.776 1.0496 164.247 2.70119 164.029 4.58326L160.897 31.6163C160.712 33.2098 159.366 34.414 157.762 34.4204L4.25002 35.0326C2.27411 35.0405 0.726436 33.3353 0.92521 31.3694L3.70269 3.89971Z" fill="url(#paint0_linear_337_6225)" stroke="#232323"/>
<mask id="mask0_337_6225" style="mask-type:alpha" maskUnits="userSpaceOnUse" x="0" y="0" width="165" height="36">
<path d="M3.20331 3.84706C3.39389 1.97428 4.97091 0.549599 6.85336 0.549599H160.878C163.073 0.549599 164.777 2.46358 164.523 4.64351L161.396 31.4554C161.181 33.2992 159.622 34.6919 157.766 34.6992L4.25468 35.3075C1.981 35.3165 0.200562 33.3536 0.430758 31.0916L3.20331 3.84706Z" fill="#CA6347"/>
</mask>
<g mask="url(#mask0_337_6225)">
<rect width="3.89121" height="10.0771" transform="matrix(0.8265 -0.562937 0.794753 0.606933 156.594 0.506874)" fill="#2E2E2E"/>
<g style="mix-blend-mode:overlay" opacity="0.7">
<rect x="0.885559" y="0.549599" width="165.885" height="4.14745" fill="white"/>
</g>
<g style="mix-blend-mode:overlay" opacity="0.7">
<rect x="-0.885559" y="31" width="165.885" height="4.14745" fill="#1B1B1B"/>
</g>
</g>
<g filter="url(#filter0_d_337_6225)">
<mask id="path-6-outside-1_337_6225" maskUnits="userSpaceOnUse" x="33" y="7.99979" width="101" height="16" fill="black">
<rect fill="white" x="33" y="7.99979" width="101" height="16"/>
<path d="M43.4324 19.4878C43.4538 20.0318 43.4164 20.6398 43.3204 21.3118C43.2351 21.9731 43.1124 22.3678 42.9524 22.4958C41.8218 22.4851 40.8671 22.4585 40.0884 22.4158C39.3098 22.3731 38.3818 22.2558 37.3044 22.0638C36.2378 21.8825 35.3151 21.6211 34.5364 21.2798C34.1951 20.7678 33.9924 19.7971 33.9284 18.3678C33.8644 16.9278 33.9391 15.4611 34.1524 13.9678C34.3658 12.4638 34.6644 11.3598 35.0484 10.6558C35.7631 10.1865 37.1711 9.80246 39.2724 9.50379C41.3738 9.20513 42.6751 9.18913 43.1764 9.45579C43.3044 10.5011 43.3044 11.4771 43.1764 12.3838C42.8564 12.4158 42.4458 12.4478 41.9444 12.4798C41.4538 12.5118 41.0644 12.5438 40.7764 12.5758C40.4991 12.5971 40.1684 12.6558 39.7844 12.7518C39.4111 12.8371 39.0644 12.9545 38.7444 13.1038C38.6058 13.7118 38.4831 14.3571 38.3764 15.0398C38.2804 15.7225 38.2324 16.4265 38.2324 17.1518C38.2431 17.8771 38.3338 18.4211 38.5044 18.7838C38.8351 19.0398 39.7044 19.2051 41.1124 19.2798C42.5204 19.3438 43.2938 19.4131 43.4324 19.4878ZM50.3004 15.9518C50.3538 15.1731 50.2844 14.6131 50.0924 14.2718C50.0391 14.2718 49.9484 14.2771 49.8204 14.2878C49.6924 14.2878 49.5964 14.2931 49.5324 14.3038C49.4791 14.3038 49.3938 14.3091 49.2764 14.3198C49.1698 14.3305 49.0684 14.3465 48.9724 14.3678C48.8871 14.3891 48.7858 14.4158 48.6684 14.4478C48.5511 14.4798 48.4284 14.5225 48.3004 14.5758C48.0871 15.2905 47.9591 15.8451 47.9164 16.2398C48.7591 16.2718 49.5538 16.1758 50.3004 15.9518ZM54.0604 17.9998C53.5164 18.0851 52.5778 18.1811 51.2444 18.2878C49.9111 18.3838 48.7271 18.4478 47.6924 18.4798C47.7244 18.7678 47.7991 19.0131 47.9164 19.2158C48.2258 19.4078 49.0951 19.5678 50.5244 19.6958C51.9644 19.8131 52.7431 19.8985 52.8604 19.9518C52.8818 20.3465 52.8498 20.8211 52.7644 21.3758C52.6791 21.9305 52.5671 22.2558 52.4284 22.3518C49.1111 22.3091 46.4711 21.9465 44.5084 21.2638C44.0284 20.6771 43.8471 19.3225 43.9644 17.1998C44.0924 15.0771 44.4284 13.6158 44.9724 12.8158C45.6124 12.4745 46.9884 12.1971 49.1004 11.9838C51.2231 11.7598 52.5084 11.7438 52.9564 11.9358C53.3298 12.5545 53.6124 13.4558 53.8044 14.6398C53.9964 15.8238 54.0818 16.9438 54.0604 17.9998ZM60.9101 16.6878C60.9527 16.2931 60.8781 15.6051 60.6861 14.6238C60.5047 14.5598 60.1421 14.5651 59.5981 14.6398C59.0647 14.7145 58.7021 14.8158 58.5101 14.9438C58.4141 16.0211 58.4194 16.7998 58.5261 17.2798C59.7421 17.2478 60.5367 17.0505 60.9101 16.6878ZM64.7981 21.7118C64.5421 21.8505 64.0247 21.9891 63.2461 22.1278C62.4781 22.2771 61.8221 22.3625 61.2781 22.3838C61.1714 22.2665 60.8994 21.9091 60.4621 21.3118C60.0354 20.7038 59.6941 20.2451 59.4381 19.9358L58.4941 20.1918C58.4727 20.4585 58.4674 20.8051 58.4781 21.2318C58.4887 21.6478 58.4834 21.9571 58.4621 22.1598C57.4914 22.4051 56.3501 22.4691 55.0381 22.3518C54.9421 21.2638 54.8834 19.4505 54.8621 16.9118C54.8514 14.3731 54.9207 12.7091 55.0701 11.9198C55.4007 11.8238 55.9074 11.7438 56.5901 11.6798C57.2727 11.6158 57.8807 11.6105 58.4141 11.6638V12.4318C58.9901 12.2931 59.7474 12.1811 60.6861 12.0958C61.6247 11.9998 62.3821 11.9625 62.9581 11.9838C63.4381 12.3678 63.8754 13.0718 64.2701 14.0958C64.6647 15.1198 64.8194 16.0585 64.7341 16.9118C64.2647 17.4451 63.7047 17.9998 63.0541 18.5758C63.2354 18.8531 63.5447 19.3918 63.9821 20.1918C64.4301 20.9918 64.7021 21.4985 64.7981 21.7118ZM74.7204 12.9918C74.7951 13.6211 74.7524 14.3465 74.5924 15.1678C74.1764 15.2211 73.2964 15.2851 71.9524 15.3598C71.7711 16.1918 71.7124 18.3785 71.7764 21.9198C70.0271 22.1865 68.7578 22.2931 67.9684 22.2398C67.8404 21.0345 67.7658 19.8985 67.7444 18.8318C67.7338 17.7651 67.7444 16.7038 67.7764 15.6478C67.2964 15.6371 67.0031 15.6318 66.8964 15.6318C66.7898 15.6318 66.4964 15.6531 66.0164 15.6958C65.5364 15.7385 65.2538 15.7651 65.1684 15.7758C65.1151 14.8691 65.2004 14.0371 65.4244 13.2798C65.7018 13.1625 66.4964 13.0718 67.8084 13.0078C67.8084 11.8558 67.8564 10.9438 67.9524 10.2718C68.8378 9.93046 70.1551 9.77579 71.9044 9.80779C71.9044 10.8318 71.8938 11.8665 71.8724 12.9118C73.3978 12.8905 74.3471 12.9171 74.7204 12.9918ZM78.8703 12.5118C78.8703 15.1038 78.7743 18.1865 78.5823 21.7598C78.4116 21.8451 77.9583 21.9091 77.2223 21.9518C76.4863 21.9945 75.969 21.9998 75.6703 21.9678C75.4783 19.1838 75.4463 16.0958 75.5743 12.7038C76.3636 12.5545 77.4623 12.4905 78.8703 12.5118ZM79.3023 11.2638C79.121 11.4985 78.4756 11.6585 77.3663 11.7438C76.257 11.8185 75.6223 11.7545 75.4623 11.5518C75.2916 11.3278 75.2916 10.8905 75.4623 10.2398C75.5583 9.88779 76.1876 9.63713 77.3503 9.48779C77.809 9.43446 78.3476 9.51979 78.9663 9.74379C79.2756 10.2771 79.3876 10.7838 79.3023 11.2638ZM88.7812 11.0238C88.7065 11.0238 88.5465 11.0291 88.3012 11.0398C88.0665 11.0505 87.8959 11.0611 87.7892 11.0718C87.6825 11.0718 87.5225 11.0878 87.3092 11.1198C87.0959 11.1411 86.9252 11.1678 86.7972 11.1998C86.6692 11.2318 86.5252 11.2798 86.3652 11.3438C86.2052 11.3971 86.0612 11.4665 85.9332 11.5518C85.8692 11.6691 85.8105 11.9251 85.7572 12.3198C85.7145 12.7145 85.6932 13.0078 85.6932 13.1998C86.5892 13.1785 87.4959 13.2158 88.4132 13.3118C88.5732 14.0051 88.5519 14.7198 88.3492 15.4558C87.8905 15.5198 87.3785 15.5731 86.8132 15.6158C86.2585 15.6478 85.8585 15.6798 85.6132 15.7118C85.5705 17.8025 85.5705 19.8611 85.6132 21.8878C85.0692 21.9945 84.4185 22.0638 83.6612 22.0958C82.9039 22.1278 82.2959 22.1118 81.8372 22.0478C81.7305 20.5865 81.6772 18.5225 81.6772 15.8558C80.7172 15.8771 80.0345 15.9198 79.6292 15.9838C79.5545 15.5465 79.5225 15.0931 79.5332 14.6238C79.5545 14.1545 79.5972 13.7811 79.6612 13.5038C80.5679 13.4185 81.2559 13.3705 81.7252 13.3598C81.7252 12.8798 81.7999 12.2345 81.9492 11.4238C82.1092 10.6025 82.2799 10.0851 82.4612 9.87179C83.1652 9.61579 83.8585 9.42913 84.5412 9.31179C85.2345 9.19446 85.7839 9.12513 86.1892 9.10379C86.5945 9.08246 87.3145 9.06646 88.3492 9.05579C88.4879 9.15179 88.5945 9.40779 88.6692 9.82379C88.7545 10.2398 88.7919 10.6398 88.7812 11.0238ZM92.7816 12.5118C92.7816 15.1038 92.6856 18.1865 92.4936 21.7598C92.3229 21.8451 91.8696 21.9091 91.1336 21.9518C90.3976 21.9945 89.8802 21.9998 89.5816 21.9678C89.3896 19.1838 89.3576 16.0958 89.4856 12.7038C90.2749 12.5545 91.3736 12.4905 92.7816 12.5118ZM93.2136 11.2638C93.0322 11.4985 92.3869 11.6585 91.2776 11.7438C90.1682 11.8185 89.5336 11.7545 89.3736 11.5518C89.2029 11.3278 89.2029 10.8905 89.3736 10.2398C89.4696 9.88779 90.0989 9.63713 91.2616 9.48779C91.7202 9.43446 92.2589 9.51979 92.8776 9.74379C93.1869 10.2771 93.2989 10.7838 93.2136 11.2638ZM102.004 20.1118C102.026 20.5065 101.988 20.9438 101.892 21.4238C101.807 21.9038 101.695 22.1918 101.556 22.2878C100.511 22.2771 99.6471 22.2558 98.9644 22.2238C98.2924 22.1918 97.4658 22.1118 96.4844 21.9838C95.5138 21.8451 94.6818 21.6531 93.9884 21.4078C93.5084 20.8211 93.3271 19.4718 93.4444 17.3598C93.5724 15.2371 93.9084 13.7758 94.4524 12.9758C95.1031 12.6345 96.3724 12.3571 98.2604 12.1438C100.148 11.9198 101.316 11.9038 101.764 12.0958C101.871 12.9171 101.871 13.6211 101.764 14.2078C101.487 14.2291 101.135 14.2558 100.708 14.2878C100.292 14.3091 99.9778 14.3305 99.7644 14.3518C99.5511 14.3625 99.2898 14.3998 98.9804 14.4638C98.6818 14.5278 98.3884 14.6185 98.1004 14.7358C97.8871 15.4291 97.7431 16.2825 97.6684 17.2958C97.5938 18.3091 97.6631 19.0771 97.8764 19.5998C98.1858 19.7918 98.9218 19.9145 100.084 19.9678C101.247 20.0105 101.887 20.0585 102.004 20.1118ZM108.642 19.4078C108.631 18.9065 108.573 18.2345 108.466 17.3918C108.402 17.4131 108.295 17.4451 108.146 17.4878C108.007 17.5198 107.895 17.5465 107.81 17.5678C107.725 17.5891 107.613 17.6211 107.474 17.6638C107.335 17.7065 107.218 17.7438 107.122 17.7758C107.037 17.8078 106.941 17.8451 106.834 17.8878C106.738 17.9198 106.653 17.9571 106.578 17.9998C106.503 18.0425 106.445 18.0851 106.402 18.1278L106.386 18.5278C106.386 18.7945 106.397 19.0291 106.418 19.2318C106.45 19.4345 106.509 19.5625 106.594 19.6158C107.042 19.6585 107.725 19.5891 108.642 19.4078ZM112.274 21.9358C111.634 22.1278 110.525 22.2611 108.946 22.3358L108.882 21.7118C107.698 21.9145 106.386 22.0958 104.946 22.2558C104.637 22.1598 104.237 21.9891 103.746 21.7438C103.266 21.4985 102.866 21.2478 102.546 20.9918C102.45 20.5225 102.439 19.8025 102.514 18.8318C102.589 17.8611 102.69 17.1785 102.818 16.7838C103.266 16.5171 104.093 16.2291 105.298 15.9198C106.503 15.6105 107.49 15.4238 108.258 15.3598C108.29 15.1038 108.29 14.8905 108.258 14.7198C108.13 14.6771 107.922 14.6451 107.634 14.6238C107.346 14.6025 106.989 14.5918 106.562 14.5918C106.135 14.5811 105.773 14.5811 105.474 14.5918C105.175 14.5918 104.797 14.5971 104.338 14.6078C103.879 14.6185 103.629 14.6238 103.586 14.6238C103.565 14.1758 103.591 13.7331 103.666 13.2958C103.741 12.8478 103.847 12.5545 103.986 12.4158C105.138 12.2451 106.418 12.1705 107.826 12.1918C109.245 12.2025 110.407 12.3198 111.314 12.5438C111.719 13.1305 112.018 14.5171 112.21 16.7038C112.402 18.8798 112.423 20.6238 112.274 21.9358ZM122.376 12.9918C122.451 13.6211 122.408 14.3465 122.248 15.1678C121.832 15.2211 120.952 15.2851 119.608 15.3598C119.427 16.1918 119.368 18.3785 119.432 21.9198C117.683 22.1865 116.413 22.2931 115.624 22.2398C115.496 21.0345 115.421 19.8985 115.4 18.8318C115.389 17.7651 115.4 16.7038 115.432 15.6478C114.952 15.6371 114.659 15.6318 114.552 15.6318C114.445 15.6318 114.152 15.6531 113.672 15.6958C113.192 15.7385 112.909 15.7651 112.824 15.7758C112.771 14.8691 112.856 14.0371 113.08 13.2798C113.357 13.1625 114.152 13.0718 115.464 13.0078C115.464 11.8558 115.512 10.9438 115.608 10.2718C116.493 9.93046 117.811 9.77579 119.56 9.80779C119.56 10.8318 119.549 11.8665 119.528 12.9118C121.053 12.8905 122.003 12.9171 122.376 12.9918ZM129.198 15.9518C129.251 15.1731 129.182 14.6131 128.99 14.2718C128.937 14.2718 128.846 14.2771 128.718 14.2878C128.59 14.2878 128.494 14.2931 128.43 14.3038C128.377 14.3038 128.291 14.3091 128.174 14.3198C128.067 14.3305 127.966 14.3465 127.87 14.3678C127.785 14.3891 127.683 14.4158 127.566 14.4478C127.449 14.4798 127.326 14.5225 127.198 14.5758C126.985 15.2905 126.857 15.8451 126.814 16.2398C127.657 16.2718 128.451 16.1758 129.198 15.9518ZM132.958 17.9998C132.414 18.0851 131.475 18.1811 130.142 18.2878C128.809 18.3838 127.625 18.4478 126.59 18.4798C126.622 18.7678 126.697 19.0131 126.814 19.2158C127.123 19.4078 127.993 19.5678 129.422 19.6958C130.862 19.8131 131.641 19.8985 131.758 19.9518C131.779 20.3465 131.747 20.8211 131.662 21.3758C131.577 21.9305 131.465 22.2558 131.326 22.3518C128.009 22.3091 125.369 21.9465 123.406 21.2638C122.926 20.6771 122.745 19.3225 122.862 17.1998C122.99 15.0771 123.326 13.6158 123.87 12.8158C124.51 12.4745 125.886 12.1971 127.998 11.9838C130.121 11.7598 131.406 11.7438 131.854 11.9358C132.227 12.5545 132.51 13.4558 132.702 14.6398C132.894 15.8238 132.979 16.9438 132.958 17.9998Z"/>
</mask>
<path d="M43.4324 19.4878C43.4538 20.0318 43.4164 20.6398 43.3204 21.3118C43.2351 21.9731 43.1124 22.3678 42.9524 22.4958C41.8218 22.4851 40.8671 22.4585 40.0884 22.4158C39.3098 22.3731 38.3818 22.2558 37.3044 22.0638C36.2378 21.8825 35.3151 21.6211 34.5364 21.2798C34.1951 20.7678 33.9924 19.7971 33.9284 18.3678C33.8644 16.9278 33.9391 15.4611 34.1524 13.9678C34.3658 12.4638 34.6644 11.3598 35.0484 10.6558C35.7631 10.1865 37.1711 9.80246 39.2724 9.50379C41.3738 9.20513 42.6751 9.18913 43.1764 9.45579C43.3044 10.5011 43.3044 11.4771 43.1764 12.3838C42.8564 12.4158 42.4458 12.4478 41.9444 12.4798C41.4538 12.5118 41.0644 12.5438 40.7764 12.5758C40.4991 12.5971 40.1684 12.6558 39.7844 12.7518C39.4111 12.8371 39.0644 12.9545 38.7444 13.1038C38.6058 13.7118 38.4831 14.3571 38.3764 15.0398C38.2804 15.7225 38.2324 16.4265 38.2324 17.1518C38.2431 17.8771 38.3338 18.4211 38.5044 18.7838C38.8351 19.0398 39.7044 19.2051 41.1124 19.2798C42.5204 19.3438 43.2938 19.4131 43.4324 19.4878ZM50.3004 15.9518C50.3538 15.1731 50.2844 14.6131 50.0924 14.2718C50.0391 14.2718 49.9484 14.2771 49.8204 14.2878C49.6924 14.2878 49.5964 14.2931 49.5324 14.3038C49.4791 14.3038 49.3938 14.3091 49.2764 14.3198C49.1698 14.3305 49.0684 14.3465 48.9724 14.3678C48.8871 14.3891 48.7858 14.4158 48.6684 14.4478C48.5511 14.4798 48.4284 14.5225 48.3004 14.5758C48.0871 15.2905 47.9591 15.8451 47.9164 16.2398C48.7591 16.2718 49.5538 16.1758 50.3004 15.9518ZM54.0604 17.9998C53.5164 18.0851 52.5778 18.1811 51.2444 18.2878C49.9111 18.3838 48.7271 18.4478 47.6924 18.4798C47.7244 18.7678 47.7991 19.0131 47.9164 19.2158C48.2258 19.4078 49.0951 19.5678 50.5244 19.6958C51.9644 19.8131 52.7431 19.8985 52.8604 19.9518C52.8818 20.3465 52.8498 20.8211 52.7644 21.3758C52.6791 21.9305 52.5671 22.2558 52.4284 22.3518C49.1111 22.3091 46.4711 21.9465 44.5084 21.2638C44.0284 20.6771 43.8471 19.3225 43.9644 17.1998C44.0924 15.0771 44.4284 13.6158 44.9724 12.8158C45.6124 12.4745 46.9884 12.1971 49.1004 11.9838C51.2231 11.7598 52.5084 11.7438 52.9564 11.9358C53.3298 12.5545 53.6124 13.4558 53.8044 14.6398C53.9964 15.8238 54.0818 16.9438 54.0604 17.9998ZM60.9101 16.6878C60.9527 16.2931 60.8781 15.6051 60.6861 14.6238C60.5047 14.5598 60.1421 14.5651 59.5981 14.6398C59.0647 14.7145 58.7021 14.8158 58.5101 14.9438C58.4141 16.0211 58.4194 16.7998 58.5261 17.2798C59.7421 17.2478 60.5367 17.0505 60.9101 16.6878ZM64.7981 21.7118C64.5421 21.8505 64.0247 21.9891 63.2461 22.1278C62.4781 22.2771 61.8221 22.3625 61.2781 22.3838C61.1714 22.2665 60.8994 21.9091 60.4621 21.3118C60.0354 20.7038 59.6941 20.2451 59.4381 19.9358L58.4941 20.1918C58.4727 20.4585 58.4674 20.8051 58.4781 21.2318C58.4887 21.6478 58.4834 21.9571 58.4621 22.1598C57.4914 22.4051 56.3501 22.4691 55.0381 22.3518C54.9421 21.2638 54.8834 19.4505 54.8621 16.9118C54.8514 14.3731 54.9207 12.7091 55.0701 11.9198C55.4007 11.8238 55.9074 11.7438 56.5901 11.6798C57.2727 11.6158 57.8807 11.6105 58.4141 11.6638V12.4318C58.9901 12.2931 59.7474 12.1811 60.6861 12.0958C61.6247 11.9998 62.3821 11.9625 62.9581 11.9838C63.4381 12.3678 63.8754 13.0718 64.2701 14.0958C64.6647 15.1198 64.8194 16.0585 64.7341 16.9118C64.2647 17.4451 63.7047 17.9998 63.0541 18.5758C63.2354 18.8531 63.5447 19.3918 63.9821 20.1918C64.4301 20.9918 64.7021 21.4985 64.7981 21.7118ZM74.7204 12.9918C74.7951 13.6211 74.7524 14.3465 74.5924 15.1678C74.1764 15.2211 73.2964 15.2851 71.9524 15.3598C71.7711 16.1918 71.7124 18.3785 71.7764 21.9198C70.0271 22.1865 68.7578 22.2931 67.9684 22.2398C67.8404 21.0345 67.7658 19.8985 67.7444 18.8318C67.7338 17.7651 67.7444 16.7038 67.7764 15.6478C67.2964 15.6371 67.0031 15.6318 66.8964 15.6318C66.7898 15.6318 66.4964 15.6531 66.0164 15.6958C65.5364 15.7385 65.2538 15.7651 65.1684 15.7758C65.1151 14.8691 65.2004 14.0371 65.4244 13.2798C65.7018 13.1625 66.4964 13.0718 67.8084 13.0078C67.8084 11.8558 67.8564 10.9438 67.9524 10.2718C68.8378 9.93046 70.1551 9.77579 71.9044 9.80779C71.9044 10.8318 71.8938 11.8665 71.8724 12.9118C73.3978 12.8905 74.3471 12.9171 74.7204 12.9918ZM78.8703 12.5118C78.8703 15.1038 78.7743 18.1865 78.5823 21.7598C78.4116 21.8451 77.9583 21.9091 77.2223 21.9518C76.4863 21.9945 75.969 21.9998 75.6703 21.9678C75.4783 19.1838 75.4463 16.0958 75.5743 12.7038C76.3636 12.5545 77.4623 12.4905 78.8703 12.5118ZM79.3023 11.2638C79.121 11.4985 78.4756 11.6585 77.3663 11.7438C76.257 11.8185 75.6223 11.7545 75.4623 11.5518C75.2916 11.3278 75.2916 10.8905 75.4623 10.2398C75.5583 9.88779 76.1876 9.63713 77.3503 9.48779C77.809 9.43446 78.3476 9.51979 78.9663 9.74379C79.2756 10.2771 79.3876 10.7838 79.3023 11.2638ZM88.7812 11.0238C88.7065 11.0238 88.5465 11.0291 88.3012 11.0398C88.0665 11.0505 87.8959 11.0611 87.7892 11.0718C87.6825 11.0718 87.5225 11.0878 87.3092 11.1198C87.0959 11.1411 86.9252 11.1678 86.7972 11.1998C86.6692 11.2318 86.5252 11.2798 86.3652 11.3438C86.2052 11.3971 86.0612 11.4665 85.9332 11.5518C85.8692 11.6691 85.8105 11.9251 85.7572 12.3198C85.7145 12.7145 85.6932 13.0078 85.6932 13.1998C86.5892 13.1785 87.4959 13.2158 88.4132 13.3118C88.5732 14.0051 88.5519 14.7198 88.3492 15.4558C87.8905 15.5198 87.3785 15.5731 86.8132 15.6158C86.2585 15.6478 85.8585 15.6798 85.6132 15.7118C85.5705 17.8025 85.5705 19.8611 85.6132 21.8878C85.0692 21.9945 84.4185 22.0638 83.6612 22.0958C82.9039 22.1278 82.2959 22.1118 81.8372 22.0478C81.7305 20.5865 81.6772 18.5225 81.6772 15.8558C80.7172 15.8771 80.0345 15.9198 79.6292 15.9838C79.5545 15.5465 79.5225 15.0931 79.5332 14.6238C79.5545 14.1545 79.5972 13.7811 79.6612 13.5038C80.5679 13.4185 81.2559 13.3705 81.7252 13.3598C81.7252 12.8798 81.7999 12.2345 81.9492 11.4238C82.1092 10.6025 82.2799 10.0851 82.4612 9.87179C83.1652 9.61579 83.8585 9.42913 84.5412 9.31179C85.2345 9.19446 85.7839 9.12513 86.1892 9.10379C86.5945 9.08246 87.3145 9.06646 88.3492 9.05579C88.4879 9.15179 88.5945 9.40779 88.6692 9.82379C88.7545 10.2398 88.7919 10.6398 88.7812 11.0238ZM92.7816 12.5118C92.7816 15.1038 92.6856 18.1865 92.4936 21.7598C92.3229 21.8451 91.8696 21.9091 91.1336 21.9518C90.3976 21.9945 89.8802 21.9998 89.5816 21.9678C89.3896 19.1838 89.3576 16.0958 89.4856 12.7038C90.2749 12.5545 91.3736 12.4905 92.7816 12.5118ZM93.2136 11.2638C93.0322 11.4985 92.3869 11.6585 91.2776 11.7438C90.1682 11.8185 89.5336 11.7545 89.3736 11.5518C89.2029 11.3278 89.2029 10.8905 89.3736 10.2398C89.4696 9.88779 90.0989 9.63713 91.2616 9.48779C91.7202 9.43446 92.2589 9.51979 92.8776 9.74379C93.1869 10.2771 93.2989 10.7838 93.2136 11.2638ZM102.004 20.1118C102.026 20.5065 101.988 20.9438 101.892 21.4238C101.807 21.9038 101.695 22.1918 101.556 22.2878C100.511 22.2771 99.6471 22.2558 98.9644 22.2238C98.2924 22.1918 97.4658 22.1118 96.4844 21.9838C95.5138 21.8451 94.6818 21.6531 93.9884 21.4078C93.5084 20.8211 93.3271 19.4718 93.4444 17.3598C93.5724 15.2371 93.9084 13.7758 94.4524 12.9758C95.1031 12.6345 96.3724 12.3571 98.2604 12.1438C100.148 11.9198 101.316 11.9038 101.764 12.0958C101.871 12.9171 101.871 13.6211 101.764 14.2078C101.487 14.2291 101.135 14.2558 100.708 14.2878C100.292 14.3091 99.9778 14.3305 99.7644 14.3518C99.5511 14.3625 99.2898 14.3998 98.9804 14.4638C98.6818 14.5278 98.3884 14.6185 98.1004 14.7358C97.8871 15.4291 97.7431 16.2825 97.6684 17.2958C97.5938 18.3091 97.6631 19.0771 97.8764 19.5998C98.1858 19.7918 98.9218 19.9145 100.084 19.9678C101.247 20.0105 101.887 20.0585 102.004 20.1118ZM108.642 19.4078C108.631 18.9065 108.573 18.2345 108.466 17.3918C108.402 17.4131 108.295 17.4451 108.146 17.4878C108.007 17.5198 107.895 17.5465 107.81 17.5678C107.725 17.5891 107.613 17.6211 107.474 17.6638C107.335 17.7065 107.218 17.7438 107.122 17.7758C107.037 17.8078 106.941 17.8451 106.834 17.8878C106.738 17.9198 106.653 17.9571 106.578 17.9998C106.503 18.0425 106.445 18.0851 106.402 18.1278L106.386 18.5278C106.386 18.7945 106.397 19.0291 106.418 19.2318C106.45 19.4345 106.509 19.5625 106.594 19.6158C107.042 19.6585 107.725 19.5891 108.642 19.4078ZM112.274 21.9358C111.634 22.1278 110.525 22.2611 108.946 22.3358L108.882 21.7118C107.698 21.9145 106.386 22.0958 104.946 22.2558C104.637 22.1598 104.237 21.9891 103.746 21.7438C103.266 21.4985 102.866 21.2478 102.546 20.9918C102.45 20.5225 102.439 19.8025 102.514 18.8318C102.589 17.8611 102.69 17.1785 102.818 16.7838C103.266 16.5171 104.093 16.2291 105.298 15.9198C106.503 15.6105 107.49 15.4238 108.258 15.3598C108.29 15.1038 108.29 14.8905 108.258 14.7198C108.13 14.6771 107.922 14.6451 107.634 14.6238C107.346 14.6025 106.989 14.5918 106.562 14.5918C106.135 14.5811 105.773 14.5811 105.474 14.5918C105.175 14.5918 104.797 14.5971 104.338 14.6078C103.879 14.6185 103.629 14.6238 103.586 14.6238C103.565 14.1758 103.591 13.7331 103.666 13.2958C103.741 12.8478 103.847 12.5545 103.986 12.4158C105.138 12.2451 106.418 12.1705 107.826 12.1918C109.245 12.2025 110.407 12.3198 111.314 12.5438C111.719 13.1305 112.018 14.5171 112.21 16.7038C112.402 18.8798 112.423 20.6238 112.274 21.9358ZM122.376 12.9918C122.451 13.6211 122.408 14.3465 122.248 15.1678C121.832 15.2211 120.952 15.2851 119.608 15.3598C119.427 16.1918 119.368 18.3785 119.432 21.9198C117.683 22.1865 116.413 22.2931 115.624 22.2398C115.496 21.0345 115.421 19.8985 115.4 18.8318C115.389 17.7651 115.4 16.7038 115.432 15.6478C114.952 15.6371 114.659 15.6318 114.552 15.6318C114.445 15.6318 114.152 15.6531 113.672 15.6958C113.192 15.7385 112.909 15.7651 112.824 15.7758C112.771 14.8691 112.856 14.0371 113.08 13.2798C113.357 13.1625 114.152 13.0718 115.464 13.0078C115.464 11.8558 115.512 10.9438 115.608 10.2718C116.493 9.93046 117.811 9.77579 119.56 9.80779C119.56 10.8318 119.549 11.8665 119.528 12.9118C121.053 12.8905 122.003 12.9171 122.376 12.9918ZM129.198 15.9518C129.251 15.1731 129.182 14.6131 128.99 14.2718C128.937 14.2718 128.846 14.2771 128.718 14.2878C128.59 14.2878 128.494 14.2931 128.43 14.3038C128.377 14.3038 128.291 14.3091 128.174 14.3198C128.067 14.3305 127.966 14.3465 127.87 14.3678C127.785 14.3891 127.683 14.4158 127.566 14.4478C127.449 14.4798 127.326 14.5225 127.198 14.5758C126.985 15.2905 126.857 15.8451 126.814 16.2398C127.657 16.2718 128.451 16.1758 129.198 15.9518ZM132.958 17.9998C132.414 18.0851 131.475 18.1811 130.142 18.2878C128.809 18.3838 127.625 18.4478 126.59 18.4798C126.622 18.7678 126.697 19.0131 126.814 19.2158C127.123 19.4078 127.993 19.5678 129.422 19.6958C130.862 19.8131 131.641 19.8985 131.758 19.9518C131.779 20.3465 131.747 20.8211 131.662 21.3758C131.577 21.9305 131.465 22.2558 131.326 22.3518C128.009 22.3091 125.369 21.9465 123.406 21.2638C122.926 20.6771 122.745 19.3225 122.862 17.1998C122.99 15.0771 123.326 13.6158 123.87 12.8158C124.51 12.4745 125.886 12.1971 127.998 11.9838C130.121 11.7598 131.406 11.7438 131.854 11.9358C132.227 12.5545 132.51 13.4558 132.702 14.6398C132.894 15.8238 132.979 16.9438 132.958 17.9998Z" fill="white"/>
<path d="M43.4324 19.4878L44.07 19.4628L44.0557 19.0987L43.7349 18.926L43.4324 19.4878ZM43.3204 21.3118L42.6887 21.2215L42.6876 21.2301L43.3204 21.3118ZM42.9524 22.4958L42.9464 23.1338L43.1736 23.136L43.351 22.994L42.9524 22.4958ZM40.0884 22.4158L40.1233 21.7787L40.0884 22.4158ZM37.3044 22.0638L37.4164 21.4356L37.4114 21.4347L37.3044 22.0638ZM34.5364 21.2798L34.0055 21.6337L34.1092 21.7892L34.2803 21.8642L34.5364 21.2798ZM33.9284 18.3678L33.291 18.3961L33.291 18.3963L33.9284 18.3678ZM34.1524 13.9678L34.7841 14.058L34.7842 14.0574L34.1524 13.9678ZM35.0484 10.6558L34.6982 10.1225L34.5647 10.2101L34.4883 10.3503L35.0484 10.6558ZM39.2724 9.50379L39.1826 8.87207L39.2724 9.50379ZM43.1764 9.45579L43.8098 9.37824L43.7694 9.04848L43.4761 8.89246L43.1764 9.45579ZM43.1764 12.3838L43.2399 13.0187L43.7382 12.9689L43.8082 12.473L43.1764 12.3838ZM41.9444 12.4798L41.9038 11.843L41.9029 11.8431L41.9444 12.4798ZM40.7764 12.5758L40.8254 13.212L40.8362 13.2112L40.8469 13.21L40.7764 12.5758ZM39.7844 12.7518L39.9266 13.3739L39.9392 13.3708L39.7844 12.7518ZM38.7444 13.1038L38.4746 12.5256L38.1917 12.6576L38.1223 12.9619L38.7444 13.1038ZM38.3764 15.0398L37.7459 14.9413L37.7446 14.9509L38.3764 15.0398ZM38.2324 17.1518L37.5943 17.1518L37.5944 17.1612L38.2324 17.1518ZM38.5044 18.7838L37.9271 19.0555L37.9925 19.1944L38.1138 19.2883L38.5044 18.7838ZM41.1124 19.2798L41.0786 19.917L41.0835 19.9172L41.1124 19.2798ZM42.7949 19.5128C42.8144 20.0102 42.7806 20.5788 42.6888 21.2216L43.9521 21.402C44.0523 20.7008 44.0932 20.0534 44.07 19.4628L42.7949 19.5128ZM42.6876 21.2301C42.6472 21.5435 42.601 21.7669 42.5551 21.9144C42.5324 21.9876 42.5139 22.0283 42.5042 22.0463C42.4927 22.0675 42.5042 22.0372 42.5538 21.9975L43.351 22.994C43.5899 22.8029 43.7063 22.5102 43.7738 22.2932C43.8506 22.046 43.9084 21.7414 43.9533 21.3934L42.6876 21.2301ZM42.9585 21.8578C41.8336 21.8471 40.8892 21.8206 40.1233 21.7787L40.0535 23.0529C40.845 23.0963 41.81 23.1231 42.9464 23.1338L42.9585 21.8578ZM40.1233 21.7787C39.3785 21.7379 38.4775 21.6247 37.4164 21.4356L37.1925 22.692C38.286 22.8869 39.2411 23.0084 40.0535 23.0529L40.1233 21.7787ZM37.4114 21.4347C36.3829 21.2599 35.5127 21.011 34.7926 20.6954L34.2803 21.8642C35.1176 22.2312 36.0927 22.505 37.1975 22.6928L37.4114 21.4347ZM35.0673 20.9259C34.9611 20.7665 34.8467 20.4858 34.753 20.0374C34.661 19.5967 34.5969 19.0333 34.5659 18.3393L33.291 18.3963C33.3239 19.1316 33.3932 19.7682 33.5038 20.2982C33.6129 20.8205 33.7704 21.2811 34.0055 21.6337L35.0673 20.9259ZM34.5659 18.3395C34.5037 16.9409 34.5761 15.5139 34.7841 14.058L33.5208 13.8776C33.3021 15.4083 33.2252 16.9147 33.291 18.3961L34.5659 18.3395ZM34.7842 14.0574C34.9946 12.5739 35.2808 11.5624 35.6086 10.9613L34.4883 10.3503C34.0481 11.1572 33.7369 12.3537 33.5207 13.8782L34.7842 14.0574ZM35.3987 11.1891C35.674 11.0083 36.1301 10.8163 36.8083 10.6314C37.478 10.4487 38.3272 10.2826 39.3622 10.1355L39.1826 8.87207C38.1163 9.02363 37.2109 9.19885 36.4725 9.40021C35.7427 9.59925 35.1375 9.83392 34.6982 10.1225L35.3987 11.1891ZM39.3622 10.1355C40.4004 9.98796 41.2206 9.91334 41.8323 9.90582C42.4807 9.89784 42.783 9.96926 42.8768 10.0191L43.4761 8.89246C43.0685 8.67566 42.4695 8.62174 41.8166 8.62977C41.1269 8.63825 40.2458 8.72096 39.1826 8.87207L39.3622 10.1355ZM42.5431 9.53334C42.6653 10.5314 42.6638 11.4508 42.5446 12.2946L43.8082 12.473C43.9451 11.5035 43.9436 10.4709 43.8098 9.37824L42.5431 9.53334ZM43.1129 11.7489C42.8035 11.7798 42.4012 11.8113 41.9038 11.843L41.9851 13.1166C42.4903 13.0843 42.9094 13.0518 43.2399 13.0187L43.1129 11.7489ZM41.9029 11.8431C41.4082 11.8753 41.0079 11.9081 40.706 11.9416L40.8469 13.21C41.1209 13.1795 41.4993 13.1482 41.986 13.1165L41.9029 11.8431ZM40.7275 11.9396C40.403 11.9646 40.0352 12.0314 39.6297 12.1328L39.9392 13.3708C40.3017 13.2802 40.5952 13.2297 40.8254 13.212L40.7275 11.9396ZM39.6423 12.1298C39.2286 12.2243 38.8388 12.3556 38.4746 12.5256L39.0143 13.682C39.2901 13.5533 39.5936 13.4499 39.9266 13.3738L39.6423 12.1298ZM38.1223 12.9619C37.9801 13.5857 37.8547 14.2456 37.746 14.9413L39.0069 15.1383C39.1115 14.4687 39.2315 13.8379 39.3665 13.2457L38.1223 12.9619ZM37.7446 14.9509C37.6442 15.6645 37.5944 16.3983 37.5944 17.1518H38.8705C38.8705 16.4547 38.9166 15.7804 39.0083 15.1286L37.7446 14.9509ZM37.5944 17.1612C37.6055 17.9155 37.6981 18.5688 37.9271 19.0555L39.0818 18.5121C38.9695 18.2734 38.8807 17.8388 38.8704 17.1424L37.5944 17.1612ZM38.1138 19.2883C38.4074 19.5156 38.8384 19.6417 39.2852 19.7266C39.7596 19.8168 40.3606 19.8789 41.0786 19.917L41.1462 18.6426C40.4562 18.606 39.9186 18.5481 39.5237 18.473C39.1011 18.3926 38.9322 18.308 38.895 18.2793L38.1138 19.2883ZM41.0835 19.9172C41.7843 19.9491 42.3187 19.9819 42.6915 20.0153C42.8787 20.0321 43.0163 20.0483 43.1099 20.0631C43.157 20.0705 43.1847 20.0763 43.1979 20.0795C43.2222 20.0855 43.1856 20.0796 43.1299 20.0496L43.7349 18.926C43.6446 18.8773 43.5535 18.8529 43.5035 18.8405C43.4423 18.8254 43.3759 18.8131 43.309 18.8025C43.1746 18.7813 43.0048 18.7622 42.8054 18.7443C42.4048 18.7084 41.8486 18.6745 41.1414 18.6424L41.0835 19.9172ZM50.3004 15.9518L50.4838 16.563L50.9068 16.436L50.937 15.9954L50.3004 15.9518ZM50.0924 14.2718L50.6486 13.959L50.4656 13.6337H50.0924V14.2718ZM49.8204 14.2878V14.9259H49.847L49.8734 14.9237L49.8204 14.2878ZM49.5324 14.3038V14.9419H49.5852L49.6373 14.9332L49.5324 14.3038ZM49.2764 14.3198L49.2187 13.6843L49.2129 13.6849L49.2764 14.3198ZM48.9724 14.3678L48.834 13.7449L48.8258 13.7467L48.8177 13.7488L48.9724 14.3678ZM48.6684 14.4478L48.5006 13.8322L48.5005 13.8322L48.6684 14.4478ZM48.3004 14.5758L48.055 13.9868L47.7756 14.1032L47.689 14.3933L48.3004 14.5758ZM47.9164 16.2398L47.2821 16.1712L47.2085 16.8514L47.8922 16.8774L47.9164 16.2398ZM54.0604 17.9998L54.1593 18.6302L54.6876 18.5473L54.6984 18.0127L54.0604 17.9998ZM51.2444 18.2878L51.2903 18.9242L51.2953 18.9238L51.2444 18.2878ZM47.6924 18.4798L47.6727 17.842L46.982 17.8634L47.0583 18.5503L47.6924 18.4798ZM47.9164 19.2158L47.3642 19.5355L47.4443 19.6737L47.5799 19.7579L47.9164 19.2158ZM50.5244 19.6958L50.4675 20.3313L50.4726 20.3318L50.5244 19.6958ZM52.8604 19.9518L53.4976 19.9174L53.4767 19.531L53.1245 19.3709L52.8604 19.9518ZM52.7644 21.3758L53.3951 21.4728L52.7644 21.3758ZM52.4284 22.3518L52.4202 22.9898L52.624 22.9924L52.7916 22.8764L52.4284 22.3518ZM44.5084 21.2638L44.0146 21.6678L44.1287 21.8073L44.2988 21.8664L44.5084 21.2638ZM43.9644 17.1998L43.3275 17.1614L43.3273 17.1646L43.9644 17.1998ZM44.9724 12.8158L44.6722 12.2528L44.5333 12.3269L44.4448 12.457L44.9724 12.8158ZM49.1004 11.9838L49.1646 12.6186L49.1674 12.6183L49.1004 11.9838ZM52.9564 11.9358L53.5027 11.6061L53.3966 11.4302L53.2078 11.3493L52.9564 11.9358ZM53.8044 14.6398L53.1746 14.7419L53.8044 14.6398ZM50.937 15.9954C50.9919 15.1945 50.9374 14.4724 50.6486 13.959L49.5363 14.5846C49.6315 14.7538 49.7157 15.1518 49.6639 15.9082L50.937 15.9954ZM50.0924 13.6337C50.0098 13.6337 49.8955 13.6413 49.7674 13.6519L49.8734 14.9237C50.0014 14.913 50.0684 14.9099 50.0924 14.9099V13.6337ZM49.8204 13.6497C49.6842 13.6497 49.5453 13.6548 49.4275 13.6744L49.6373 14.9332C49.6368 14.9333 49.6407 14.9326 49.6499 14.9317C49.659 14.9308 49.6715 14.9298 49.6878 14.9289C49.7209 14.927 49.7646 14.9259 49.8204 14.9259V13.6497ZM49.5324 13.6657C49.448 13.6657 49.338 13.6735 49.2187 13.6843L49.3342 14.9552C49.4496 14.9448 49.5102 14.9419 49.5324 14.9419V13.6657ZM49.2129 13.6849C49.0833 13.6979 48.9568 13.7176 48.834 13.7449L49.1109 14.9907C49.18 14.9753 49.2562 14.9631 49.3399 14.9547L49.2129 13.6849ZM48.8177 13.7488C48.7267 13.7715 48.6207 13.7994 48.5006 13.8322L48.8363 15.0634C48.9508 15.0322 49.0475 15.0067 49.1272 14.9868L48.8177 13.7488ZM48.5005 13.8322C48.3535 13.8723 48.2048 13.9244 48.055 13.9868L48.5458 15.1648C48.652 15.1205 48.7487 15.0873 48.8363 15.0634L48.5005 13.8322ZM47.689 14.3933C47.4724 15.1188 47.3311 15.7179 47.2821 16.1712L48.5508 16.3084C48.5871 15.9724 48.7018 15.4621 48.9118 14.7583L47.689 14.3933ZM47.8922 16.8774C48.7993 16.9119 49.6646 16.8087 50.4838 16.563L50.1171 15.3406C49.443 15.5429 48.7189 15.6317 47.9406 15.6022L47.8922 16.8774ZM53.9616 17.3694C53.444 17.4506 52.527 17.5451 51.1936 17.6518L51.2953 18.9238C52.6285 18.8172 53.5889 18.7196 54.1593 18.6302L53.9616 17.3694ZM51.1986 17.6514C49.8716 17.7469 48.6966 17.8104 47.6727 17.842L47.7122 19.1176C48.7576 19.0852 49.9506 19.0207 51.2903 18.9242L51.1986 17.6514ZM47.0583 18.5503C47.0978 18.9058 47.1934 19.2404 47.3642 19.5355L48.4686 18.8961C48.4048 18.7858 48.3511 18.6297 48.3266 18.4093L47.0583 18.5503ZM47.5799 19.7579C47.848 19.9243 48.2526 20.0278 48.6849 20.1073C49.1471 20.1924 49.7437 20.2665 50.4675 20.3313L50.5813 19.0603C49.8759 18.9971 49.3231 18.9272 48.9159 18.8523C48.7124 18.8148 48.5541 18.7777 48.436 18.7424C48.3774 18.7249 48.333 18.7091 48.3005 18.6958C48.2845 18.6893 48.2726 18.6838 48.2643 18.6797C48.256 18.6756 48.2525 18.6734 48.2529 18.6737L47.5799 19.7579ZM50.4726 20.3318C51.1907 20.3903 51.7385 20.4404 52.1189 20.4821C52.3099 20.503 52.4525 20.5211 52.5508 20.5364C52.6004 20.544 52.6322 20.55 52.6501 20.5539C52.682 20.5608 52.6488 20.5565 52.5964 20.5327L53.1245 19.3709C53.0427 19.3338 52.9596 19.3152 52.9207 19.3067C52.868 19.2953 52.8085 19.2849 52.746 19.2752C52.6204 19.2558 52.4563 19.2353 52.2579 19.2135C51.8597 19.1699 51.2981 19.1187 50.5763 19.0598L50.4726 20.3318ZM52.2233 19.9862C52.2415 20.3229 52.215 20.7511 52.1338 21.2788L53.3951 21.4728C53.4846 20.8912 53.522 20.37 53.4976 19.9174L52.2233 19.9862ZM52.1338 21.2788C52.0938 21.5388 52.0515 21.7167 52.0131 21.8281C51.9941 21.8833 51.9812 21.9071 51.9791 21.9106C51.975 21.9174 51.9986 21.8733 52.0652 21.8272L52.7916 22.8764C53.0408 22.7039 53.1575 22.4242 53.2198 22.2435C53.2934 22.0295 53.3498 21.7675 53.3951 21.4728L52.1338 21.2788ZM52.4366 21.7138C49.1521 21.6715 46.5891 21.3119 44.7181 20.6611L44.2988 21.8664C46.3531 22.581 49.0701 22.9467 52.4202 22.9898L52.4366 21.7138ZM45.0023 20.8597C44.876 20.7055 44.7307 20.3643 44.6449 19.7231C44.5616 19.101 44.544 18.2757 44.6015 17.235L43.3273 17.1646C43.2675 18.2465 43.2819 19.1599 43.38 19.8924C43.4755 20.6059 43.6608 21.2355 44.0146 21.6678L45.0023 20.8597ZM44.6013 17.2382C44.7289 15.1231 45.062 13.8187 45.5001 13.1746L44.4448 12.457C43.7948 13.4128 43.456 15.0312 43.3275 17.1614L44.6013 17.2382ZM45.2727 13.3788C45.5082 13.2532 45.9377 13.1129 46.6105 12.9773C47.2705 12.8443 48.12 12.7241 49.1646 12.6186L49.0363 11.349C47.9689 11.4568 47.0744 11.582 46.3584 11.7263C45.6552 11.868 45.0766 12.0371 44.6722 12.2528L45.2727 13.3788ZM49.1674 12.6183C50.2201 12.5073 51.05 12.4495 51.6644 12.4418C51.9717 12.438 52.2147 12.4469 52.399 12.4656C52.5935 12.4853 52.6819 12.5123 52.7051 12.5223L53.2078 11.3493C53.007 11.2632 52.7668 11.2202 52.5279 11.196C52.2788 11.1707 51.9838 11.1616 51.6485 11.1658C50.9775 11.1741 50.1035 11.2363 49.0335 11.3492L49.1674 12.6183ZM52.4101 12.2655C52.7225 12.7832 52.9882 13.5923 53.1746 14.7419L54.4343 14.5377C54.2367 13.3193 53.937 12.3258 53.5027 11.6061L52.4101 12.2655ZM53.1746 14.7419C53.3612 15.8929 53.443 16.9742 53.4225 17.9869L54.6984 18.0127C54.7206 16.9134 54.6316 15.7547 54.4343 14.5377L53.1746 14.7419ZM60.9101 16.6878L61.3547 17.1455L61.5197 16.9851L61.5444 16.7564L60.9101 16.6878ZM60.6861 14.6238L61.3123 14.5013L61.2422 14.1434L60.8984 14.0221L60.6861 14.6238ZM59.5981 14.6398L59.5113 14.0076L59.5096 14.0079L59.5981 14.6398ZM58.5101 14.9438L58.1561 14.4129L57.9017 14.5825L57.8745 14.8872L58.5101 14.9438ZM58.5261 17.2798L57.9032 17.4182L58.0172 17.9315L58.5428 17.9176L58.5261 17.2798ZM64.7981 21.7118L65.102 22.2728L65.6232 21.9905L65.3799 21.45L64.7981 21.7118ZM63.2461 22.1278L63.1342 21.4995L63.1243 21.5015L63.2461 22.1278ZM61.2781 22.3838L60.8059 22.813L61.0059 23.033L61.3031 23.0214L61.2781 22.3838ZM60.4621 21.3118L59.9397 21.6784L59.9472 21.6887L60.4621 21.3118ZM59.4381 19.9358L59.9296 19.529L59.6676 19.2124L59.2711 19.32L59.4381 19.9358ZM58.4941 20.1918L58.3271 19.576L57.8938 19.6935L57.858 20.1409L58.4941 20.1918ZM58.4781 21.2318L57.8402 21.2477L57.8402 21.2481L58.4781 21.2318ZM58.4621 22.1598L58.6184 22.7784L59.05 22.6693L59.0966 22.2266L58.4621 22.1598ZM55.0381 22.3518L54.4025 22.4079L54.4494 22.9398L54.9812 22.9873L55.0381 22.3518ZM54.8621 16.9118L54.224 16.9145L54.224 16.9172L54.8621 16.9118ZM55.0701 11.9198L54.8922 11.307L54.5159 11.4163L54.4431 11.8012L55.0701 11.9198ZM56.5901 11.6798L56.5305 11.0445L56.5901 11.6798ZM58.4141 11.6638H59.0521V11.0863L58.4776 11.0289L58.4141 11.6638ZM58.4141 12.4318H57.776V13.2417L58.5634 13.0521L58.4141 12.4318ZM60.6861 12.0958L60.7438 12.7313L60.751 12.7306L60.6861 12.0958ZM62.9581 11.9838L63.3567 11.4855L63.1922 11.354L62.9817 11.3462L62.9581 11.9838ZM64.2701 14.0958L63.6747 14.3253L64.2701 14.0958ZM64.7341 16.9118L65.2131 17.3333L65.3486 17.1794L65.369 16.9753L64.7341 16.9118ZM63.0541 18.5758L62.6311 18.098L62.2183 18.4635L62.52 18.925L63.0541 18.5758ZM63.9821 20.1918L63.4222 20.4979L63.4253 20.5036L63.9821 20.1918ZM61.5444 16.7564C61.5987 16.2541 61.5035 15.4785 61.3123 14.5013L60.0599 14.7463C60.2527 15.7317 60.3067 16.3321 60.2757 16.6192L61.5444 16.7564ZM60.8984 14.0221C60.6987 13.9516 60.4708 13.9388 60.2687 13.9418C60.0519 13.945 59.7974 13.9684 59.5113 14.0077L59.6848 15.2719C59.9428 15.2365 60.1415 15.2199 60.2874 15.2178C60.448 15.2154 60.4921 15.232 60.4737 15.2255L60.8984 14.0221ZM59.5096 14.0079C58.9756 14.0826 58.4808 14.1965 58.1561 14.4129L58.864 15.4747C58.9234 15.4351 59.1538 15.3463 59.6865 15.2717L59.5096 14.0079ZM57.8745 14.8872C57.778 15.9707 57.7735 16.8346 57.9032 17.4182L59.1489 17.1414C59.0653 16.765 59.0502 16.0715 59.1456 15.0004L57.8745 14.8872ZM58.5428 17.9176C59.1771 17.901 59.7297 17.8408 60.1878 17.7271C60.6376 17.6154 61.0533 17.4382 61.3547 17.1455L60.4655 16.2301C60.3935 16.3001 60.2252 16.4029 59.8803 16.4885C59.5438 16.5721 59.0911 16.6266 58.5093 16.6419L58.5428 17.9176ZM64.4942 21.1507C64.3415 21.2334 63.9233 21.3591 63.1342 21.4996L63.3579 22.756C64.1261 22.6192 64.7426 22.4675 65.102 22.2728L64.4942 21.1507ZM63.1243 21.5015C62.3757 21.647 61.7539 21.7266 61.2531 21.7462L61.3031 23.0214C61.8902 22.9983 62.5805 22.9072 63.3678 22.7541L63.1243 21.5015ZM61.7502 21.9546C61.672 21.8685 61.4237 21.5452 60.9769 20.9349L59.9472 21.6887C60.375 22.2731 60.6708 22.6644 60.8059 22.813L61.7502 21.9546ZM60.9844 20.9453C60.5546 20.3329 60.2019 19.8579 59.9296 19.529L58.9465 20.3426C59.1862 20.6323 59.5161 21.0747 59.9398 21.6783L60.9844 20.9453ZM59.2711 19.32L58.3271 19.576L58.6611 20.8076L59.6051 20.5516L59.2711 19.32ZM57.858 20.1409C57.8342 20.4389 57.8293 20.8102 57.8402 21.2477L59.1159 21.2158C59.1055 20.8 59.1113 20.4781 59.1301 20.2427L57.858 20.1409ZM57.8402 21.2481C57.8507 21.6587 57.8443 21.9337 57.8275 22.093L59.0966 22.2266C59.1225 21.9806 59.1267 21.6369 59.1159 21.2154L57.8402 21.2481ZM58.3057 21.5412C57.4227 21.7644 56.3567 21.8291 55.0949 21.7163L54.9812 22.9873C56.3435 23.1092 57.5601 23.0459 58.6184 22.7784L58.3057 21.5412ZM55.6737 22.2957C55.5801 21.2354 55.5214 19.4444 55.5001 16.9064L54.224 16.9172C54.2454 19.4566 54.304 21.2922 54.4025 22.4079L55.6737 22.2957ZM55.5001 16.9091C55.4894 14.3576 55.5611 12.7568 55.697 12.0384L54.4431 11.8012C54.2804 12.6614 54.2134 14.3886 54.224 16.9145L55.5001 16.9091ZM55.248 12.5326C55.5185 12.454 55.9759 12.3782 56.6496 12.3151L56.5305 11.0445C55.8389 11.1093 55.283 11.1936 54.8922 11.307L55.248 12.5326ZM56.6496 12.3151C57.3021 12.2539 57.8676 12.2504 58.3506 12.2987L58.4776 11.0289C57.8938 10.9705 57.2434 10.9777 56.5305 11.0445L56.6496 12.3151ZM57.776 11.6638V12.4318H59.0521V11.6638H57.776ZM58.5634 13.0521C59.0971 12.9237 59.8203 12.8152 60.7438 12.7312L60.6283 11.4603C59.6745 11.5471 58.8831 11.6626 58.2647 11.8114L58.5634 13.0521ZM60.751 12.7306C61.6762 12.6359 62.4006 12.6017 62.9344 12.6214L62.9817 11.3462C62.3635 11.3233 61.5732 11.3637 60.6211 11.461L60.751 12.7306ZM62.5595 12.482C62.9063 12.7595 63.2932 13.3354 63.6747 14.3253L64.8654 13.8663C64.4576 12.8082 63.9698 11.9761 63.3567 11.4855L62.5595 12.482ZM63.6747 14.3253C64.0432 15.2813 64.1722 16.1182 64.0992 16.8483L65.369 16.9753C65.4666 15.9987 65.2863 14.9582 64.8654 13.8663L63.6747 14.3253ZM64.2551 16.4903C63.8066 16.9999 63.2661 17.5359 62.6311 18.098L63.477 19.0536C64.1433 18.4637 64.7229 17.8903 65.2131 17.3333L64.2551 16.4903ZM62.52 18.925C62.6856 19.1782 62.9836 19.6956 63.4222 20.4979L64.5419 19.8857C64.1058 19.088 63.7852 18.528 63.5881 18.2266L62.52 18.925ZM63.4253 20.5036C63.8783 21.3124 64.1342 21.7915 64.2162 21.9736L65.3799 21.45C65.2699 21.2054 64.9819 20.6712 64.5388 19.88L63.4253 20.5036ZM74.7204 12.9918L75.3541 12.9166L75.2995 12.4569L74.8456 12.3661L74.7204 12.9918ZM74.5924 15.1678L74.6736 15.8007L75.1306 15.7421L75.2187 15.2898L74.5924 15.1678ZM71.9524 15.3598L71.917 14.7227L71.4324 14.7496L71.329 15.2239L71.9524 15.3598ZM71.7764 21.9198L71.8726 22.5506L72.4245 22.4664L72.4144 21.9083L71.7764 21.9198ZM67.9684 22.2398L67.3339 22.3072L67.3905 22.8403L67.9254 22.8764L67.9684 22.2398ZM67.7444 18.8318L67.1064 18.8382L67.1065 18.8446L67.7444 18.8318ZM67.7764 15.6478L68.4142 15.6671L68.4337 15.0242L67.7906 15.0099L67.7764 15.6478ZM65.1684 15.7758L64.5315 15.8133L64.5715 16.4934L65.2476 16.4089L65.1684 15.7758ZM65.4244 13.2798L65.1758 12.6922L64.8981 12.8096L64.8126 13.0988L65.4244 13.2798ZM67.8084 13.0078L67.8395 13.6451L68.4465 13.6155V13.0078H67.8084ZM67.9524 10.2718L67.7229 9.67644L67.3737 9.81107L67.3208 10.1816L67.9524 10.2718ZM71.9044 9.80779H72.5425V9.18129L71.9161 9.16983L71.9044 9.80779ZM71.8724 12.9118L71.2345 12.8988L71.221 13.559L71.8814 13.5498L71.8724 12.9118ZM74.0868 13.067C74.1516 13.6134 74.1173 14.2699 73.9661 15.0458L75.2187 15.2898C75.3876 14.423 75.4386 13.6289 75.3541 12.9166L74.0868 13.067ZM74.5113 14.5349C74.1223 14.5848 73.266 14.6478 71.917 14.7227L71.9878 15.9969C73.3268 15.9225 74.2306 15.8575 74.6736 15.8007L74.5113 14.5349ZM71.329 15.2239C71.224 15.7059 71.1638 16.5165 71.1346 17.6067C71.1049 18.7135 71.1064 20.1562 71.1385 21.9313L72.4144 21.9083C72.3825 20.1421 72.3813 18.7207 72.4103 17.6409C72.4397 16.5444 72.4996 15.8457 72.5759 15.4957L71.329 15.2239ZM71.6803 21.289C69.9347 21.5551 68.7254 21.6514 68.0115 21.6032L67.9254 22.8764C68.7902 22.9348 70.1195 22.8178 71.8726 22.5506L71.6803 21.289ZM68.6029 22.1724C68.4766 20.9828 68.4033 19.8652 68.3824 18.819L67.1065 18.8446C67.1282 19.9317 67.2043 21.0861 67.3339 22.3072L68.6029 22.1724ZM68.3825 18.8254C68.3719 17.7672 68.3825 16.7145 68.4142 15.6671L67.1387 15.6285C67.1064 16.6931 67.0956 17.763 67.1064 18.8382L68.3825 18.8254ZM67.7906 15.0099C67.3138 14.9993 67.0119 14.9937 66.8964 14.9937V16.2699C66.9943 16.2699 67.2791 16.275 67.7623 16.2857L67.7906 15.0099ZM66.8964 14.9937C66.7545 14.9937 66.4271 15.0187 65.9599 15.0602L66.0729 16.3314C66.5658 16.2875 66.825 16.2699 66.8964 16.2699V14.9937ZM65.9599 15.0602C65.4866 15.1023 65.189 15.1302 65.0893 15.1427L65.2476 16.4089C65.3185 16.4001 65.5863 16.3746 66.0729 16.3314L65.9599 15.0602ZM65.8054 15.7383C65.7558 14.8945 65.8361 14.1375 66.0363 13.4608L64.8126 13.0988C64.5647 13.9367 64.4744 14.8438 64.5315 15.8133L65.8054 15.7383ZM65.6731 13.8674C65.6724 13.8677 65.6758 13.8663 65.6843 13.8634C65.6926 13.8606 65.7045 13.857 65.7202 13.8527C65.7522 13.844 65.7952 13.834 65.851 13.8232C65.9631 13.8014 66.1118 13.7793 66.3008 13.7578C66.6785 13.7146 67.1898 13.6768 67.8395 13.6451L67.7773 12.3705C67.1151 12.4028 66.573 12.4423 66.1561 12.4898C65.7664 12.5343 65.4107 12.5928 65.1758 12.6922L65.6731 13.8674ZM68.4465 13.0078C68.4465 11.8683 68.4943 10.9906 68.5841 10.362L67.3208 10.1816C67.2186 10.8969 67.1704 11.8433 67.1704 13.0078H68.4465ZM68.182 10.8671C68.9505 10.5709 70.1682 10.4142 71.8928 10.4458L71.9161 9.16983C70.142 9.13738 68.725 9.29007 67.7229 9.67644L68.182 10.8671ZM71.2664 9.80779C71.2664 10.8274 71.2557 11.8577 71.2345 12.8988L72.5104 12.9248C72.5318 11.8752 72.5425 10.8362 72.5425 9.80779H71.2664ZM71.8814 13.5498C72.6397 13.5392 73.2485 13.5406 73.7105 13.5536C74.1867 13.567 74.4678 13.592 74.5953 13.6175L74.8456 12.3661C74.5997 12.3169 74.2195 12.2913 73.7464 12.278C73.2591 12.2643 72.6305 12.2631 71.8635 12.2738L71.8814 13.5498ZM78.8703 12.5118H79.5084V11.8833L78.88 11.8738L78.8703 12.5118ZM78.5823 21.7598L78.8677 22.3305L79.1996 22.1646L79.2195 21.794L78.5823 21.7598ZM77.2223 21.9518L77.1854 21.3148L77.2223 21.9518ZM75.6703 21.9678L75.0338 22.0117L75.0705 22.5453L75.6023 22.6022L75.6703 21.9678ZM75.5743 12.7038L75.4557 12.0768L74.9559 12.1714L74.9367 12.6797L75.5743 12.7038ZM79.3023 11.2638L79.8072 11.6539L79.9031 11.5299L79.9305 11.3755L79.3023 11.2638ZM77.3663 11.7438L77.4092 12.3805L77.4152 12.38L77.3663 11.7438ZM75.4623 11.5518L74.9547 11.9385L74.9615 11.9472L75.4623 11.5518ZM75.4623 10.2398L74.8467 10.0719L74.8451 10.0779L75.4623 10.2398ZM77.3503 9.48779L77.2766 8.85395L77.269 8.85492L77.3503 9.48779ZM78.9663 9.74379L79.5183 9.42366L79.4018 9.22286L79.1835 9.14384L78.9663 9.74379ZM78.2322 12.5118C78.2322 15.089 78.1368 18.1597 77.9452 21.7256L79.2195 21.794C79.4119 18.2132 79.5084 15.1186 79.5084 12.5118H78.2322ZM78.297 21.1891C78.3143 21.1804 78.2525 21.2079 78.0251 21.24C77.823 21.2685 77.545 21.2939 77.1854 21.3148L77.2592 22.5888C77.6356 22.567 77.9523 22.5391 78.2035 22.5036C78.4295 22.4717 78.6796 22.4245 78.8677 22.3305L78.297 21.1891ZM77.1854 21.3148C76.4485 21.3575 75.9788 21.3591 75.7383 21.3334L75.6023 22.6022C75.9591 22.6405 76.5241 22.6314 77.2592 22.5888L77.1854 21.3148ZM76.3069 21.9239C76.1167 19.1667 76.0846 16.1018 76.2119 12.7279L74.9367 12.6797C74.808 16.0897 74.8399 19.2009 75.0338 22.0117L76.3069 21.9239ZM75.6929 13.3307C76.4199 13.1932 77.4687 13.1287 78.8606 13.1498L78.88 11.8738C77.4559 11.8522 76.3074 11.9157 75.4557 12.0768L75.6929 13.3307ZM78.7974 10.8736C78.8375 10.8218 78.862 10.8225 78.8044 10.85C78.7531 10.8745 78.6652 10.9066 78.5288 10.9405C78.2556 11.0082 77.8569 11.0661 77.3174 11.1076L77.4152 12.38C77.9851 12.3362 78.4637 12.2714 78.8359 12.1791C79.0221 12.1329 79.1989 12.0758 79.3542 12.0016C79.5032 11.9305 79.6765 11.8231 79.8072 11.6539L78.7974 10.8736ZM77.3235 11.1072C76.7824 11.1436 76.3874 11.1437 76.1223 11.1169C75.9892 11.1035 75.9117 11.0854 75.8743 11.0729C75.8261 11.0567 75.8921 11.0665 75.9631 11.1564L74.9615 11.9472C75.1125 12.1385 75.3179 12.2322 75.4683 12.2827C75.6296 12.3368 75.8101 12.3681 75.9943 12.3866C76.3639 12.4239 76.8409 12.4187 77.4092 12.3804L77.3235 11.1072ZM75.9699 11.1651C76.0046 11.2107 75.9724 11.2073 75.9724 11.0558C75.9724 10.9127 76.0014 10.6993 76.0795 10.4017L74.8451 10.0779C74.7525 10.431 74.6962 10.7615 74.6962 11.0558C74.6962 11.3416 74.7494 11.6689 74.9548 11.9385L75.9699 11.1651ZM76.0779 10.4077C76.0417 10.5405 75.9638 10.4916 76.2424 10.3806C76.4841 10.2843 76.8708 10.1927 77.4316 10.1207L77.269 8.85492C76.6672 8.93222 76.1579 9.04059 75.7702 9.19501C75.4195 9.3347 74.979 9.58706 74.8467 10.0719L76.0779 10.4077ZM77.424 10.1216C77.7517 10.0835 78.1866 10.1401 78.7491 10.3437L79.1835 9.14384C78.5087 8.89951 77.8663 8.78543 77.2766 8.85399L77.424 10.1216ZM78.4144 10.0639C78.6686 10.5023 78.7267 10.8564 78.6741 11.1521L79.9305 11.3755C80.0486 10.7112 79.8827 10.052 79.5183 9.42366L78.4144 10.0639ZM88.7812 11.0238V11.6619H89.4018L89.419 11.0415L88.7812 11.0238ZM88.3012 11.0398L88.2735 10.4023L88.2722 10.4024L88.3012 11.0398ZM87.7892 11.0718V11.7099H87.821L87.8527 11.7067L87.7892 11.0718ZM87.3092 11.1198L87.3727 11.7547L87.3883 11.7531L87.4038 11.7508L87.3092 11.1198ZM86.7972 11.1998L86.9519 11.8188V11.8188L86.7972 11.1998ZM86.3652 11.3438L86.567 11.9491L86.5848 11.9432L86.6022 11.9362L86.3652 11.3438ZM85.9332 11.5518L85.5793 11.0209L85.4484 11.1081L85.373 11.2463L85.9332 11.5518ZM85.7572 12.3198L85.1249 12.2343L85.1237 12.2428L85.1228 12.2512L85.7572 12.3198ZM85.6932 13.1998H85.0551V13.8532L85.7084 13.8377L85.6932 13.1998ZM88.4132 13.3118L89.0349 13.1683L88.9325 12.7246L88.4796 12.6772L88.4132 13.3118ZM88.3492 15.4558L88.4374 16.0877L88.853 16.0298L88.9644 15.6252L88.3492 15.4558ZM86.8132 15.6158L86.8499 16.2529L86.8612 16.2521L86.8132 15.6158ZM85.6132 15.7118L85.5307 15.0791L84.9865 15.1501L84.9753 15.6988L85.6132 15.7118ZM85.6132 21.8878L85.736 22.5139L86.2624 22.4107L86.2511 21.8744L85.6132 21.8878ZM83.6612 22.0958L83.6343 21.4583L83.6612 22.0958ZM81.8372 22.0478L81.2008 22.0942L81.2383 22.6085L81.749 22.6797L81.8372 22.0478ZM81.6772 15.8558H82.3153V15.2034L81.663 15.2179L81.6772 15.8558ZM79.6292 15.9838L79.0002 16.0912L79.1063 16.7123L79.7287 16.6141L79.6292 15.9838ZM79.5332 14.6238L78.8958 14.5948L78.8954 14.6021L78.8953 14.6093L79.5332 14.6238ZM79.6612 13.5038L79.6014 12.8685L79.143 12.9117L79.0395 13.3603L79.6612 13.5038ZM81.7252 13.3598L81.7397 13.9977L82.3633 13.9835V13.3598H81.7252ZM81.9492 11.4238L81.3229 11.3018L81.3217 11.3082L81.9492 11.4238ZM82.4612 9.87179L82.2431 9.27214L82.0844 9.32986L81.975 9.45855L82.4612 9.87179ZM84.5412 9.31179L84.4347 8.68267L84.4331 8.68294L84.5412 9.31179ZM86.1892 9.10379L86.1557 8.46661L86.1892 9.10379ZM88.3492 9.05579L88.7124 8.53118L88.5455 8.41567L88.3426 8.41776L88.3492 9.05579ZM88.6692 9.82379L88.0412 9.93652L88.0425 9.94428L88.0441 9.95201L88.6692 9.82379ZM88.7812 10.3857C88.69 10.3857 88.5155 10.3918 88.2735 10.4023L88.3289 11.6773C88.5775 11.6665 88.723 11.6619 88.7812 11.6619V10.3857ZM88.2722 10.4024C88.0362 10.4131 87.8508 10.4244 87.7257 10.4369L87.8527 11.7067C87.9409 11.6979 88.0968 11.6878 88.3302 11.6772L88.2722 10.4024ZM87.7892 10.4337C87.633 10.4337 87.4343 10.4558 87.2145 10.4888L87.4038 11.7508C87.6107 11.7198 87.7321 11.7099 87.7892 11.7099V10.4337ZM87.2457 10.4849C87.0181 10.5077 86.8131 10.5381 86.6424 10.5808L86.9519 11.8188C87.0373 11.7975 87.1737 11.7746 87.3727 11.7547L87.2457 10.4849ZM86.6424 10.5808C86.4795 10.6215 86.3074 10.6797 86.1282 10.7514L86.6022 11.9362C86.743 11.8799 86.8589 11.8421 86.9519 11.8188L86.6424 10.5808ZM86.1634 10.7385C85.9547 10.808 85.7587 10.9012 85.5793 11.0209L86.2871 12.0827C86.3636 12.0317 86.4556 11.9862 86.567 11.9491L86.1634 10.7385ZM85.373 11.2463C85.2976 11.3845 85.2516 11.548 85.2192 11.6893C85.184 11.8431 85.153 12.0265 85.1249 12.2343L86.3895 12.4052C86.4148 12.2184 86.4397 12.0765 86.4631 11.9743C86.4894 11.8596 86.5047 11.8364 86.4933 11.8573L85.373 11.2463ZM85.1228 12.2512C85.0797 12.65 85.0551 12.9717 85.0551 13.1998H86.3313C86.3313 13.0439 86.3493 12.7789 86.3916 12.3884L85.1228 12.2512ZM85.7084 13.8377C86.5764 13.817 87.4558 13.8532 88.3468 13.9464L88.4796 12.6772C87.5359 12.5784 86.602 12.5399 85.678 12.5619L85.7084 13.8377ZM87.7915 13.4553C87.9259 14.0379 87.9107 14.6449 87.734 15.2864L88.9644 15.6252C89.193 14.7947 89.2205 13.9723 89.0349 13.1683L87.7915 13.4553ZM88.261 14.8238C87.8182 14.8856 87.3199 14.9377 86.7652 14.9795L86.8612 16.2521C87.4371 16.2086 87.9628 16.154 88.4374 16.0877L88.261 14.8238ZM86.7764 14.9788C86.2205 15.0109 85.8006 15.0439 85.5307 15.0791L85.6957 16.3445C85.9164 16.3157 86.2966 16.2847 86.8499 16.2528L86.7764 14.9788ZM84.9753 15.6988C84.9324 17.798 84.9324 19.8655 84.9753 21.9012L86.2511 21.8744C86.2086 19.8568 86.2086 17.8069 86.2511 15.7248L84.9753 15.6988ZM85.4904 21.2616C84.9871 21.3603 84.3702 21.4272 83.6343 21.4583L83.6881 22.7333C84.4668 22.7004 85.1513 22.6286 85.736 22.5139L85.4904 21.2616ZM83.6343 21.4583C82.8944 21.4896 82.3296 21.4723 81.9254 21.4158L81.749 22.6797C82.2621 22.7513 82.9133 22.766 83.6881 22.7333L83.6343 21.4583ZM82.4736 22.0013C82.3686 20.5632 82.3153 18.5173 82.3153 15.8558H81.0391C81.0391 18.5276 81.0925 20.6098 81.2008 22.0942L82.4736 22.0013ZM81.663 15.2179C80.702 15.2392 79.9814 15.2822 79.5297 15.3535L79.7287 16.6141C80.0876 16.5574 80.7323 16.515 81.6914 16.4937L81.663 15.2179ZM80.2582 15.8764C80.1907 15.4816 80.1613 15.0692 80.1711 14.6383L78.8953 14.6093C78.8837 15.1171 78.9183 15.6113 79.0002 16.0912L80.2582 15.8764ZM80.1706 14.6528C80.1912 14.2006 80.2314 13.8707 80.2829 13.6473L79.0395 13.3603C78.963 13.6916 78.9179 14.1083 78.8958 14.5948L80.1706 14.6528ZM79.721 14.1391C80.6238 14.0541 81.2936 14.0078 81.7397 13.9977L81.7107 12.7219C81.2181 12.7331 80.5119 12.7828 79.6014 12.8685L79.721 14.1391ZM82.3633 13.3598C82.3633 12.9364 82.4302 12.3348 82.5767 11.5394L81.3217 11.3082C81.1695 12.1341 81.0871 12.8231 81.0871 13.3598H82.3633ZM82.5755 11.5458C82.6528 11.1491 82.7294 10.8432 82.8031 10.6197C82.8399 10.5084 82.8733 10.4253 82.902 10.3657C82.932 10.3036 82.9491 10.2829 82.9474 10.285L81.975 9.45855C81.8015 9.66265 81.6826 9.94284 81.5912 10.2199C81.4943 10.5137 81.4056 10.8771 81.3229 11.3018L82.5755 11.5458ZM82.6792 10.4714C83.3504 10.2274 84.007 10.051 84.6493 9.94064L84.4331 8.68294C83.7101 8.80721 82.98 9.00419 82.2431 9.27214L82.6792 10.4714ZM84.6477 9.94092C85.3316 9.82518 85.8532 9.76043 86.2227 9.74098L86.1557 8.46661C85.7145 8.48982 85.1375 8.56374 84.4347 8.68267L84.6477 9.94092ZM86.2227 9.74098C86.6129 9.72044 87.3205 9.7045 88.3558 9.69383L88.3426 8.41776C87.3085 8.42842 86.5761 8.44448 86.1557 8.46661L86.2227 9.74098ZM87.986 9.58041C87.9437 9.55115 87.9252 9.52481 87.9237 9.52264C87.9221 9.52027 87.9302 9.53172 87.9442 9.56521C87.9731 9.6345 88.0082 9.75299 88.0412 9.93652L89.2972 9.71107C89.2555 9.4786 89.2 9.26109 89.1222 9.07438C89.0491 8.89904 88.9278 8.6803 88.7124 8.53118L87.986 9.58041ZM88.0441 9.95201C88.1206 10.325 88.1525 10.6759 88.1434 11.0061L89.419 11.0415C89.4312 10.6037 89.3884 10.1546 89.2942 9.69558L88.0441 9.95201ZM92.7816 12.5118H93.4196V11.8833L92.7912 11.8738L92.7816 12.5118ZM92.4936 21.7598L92.7789 22.3305L93.1108 22.1646L93.1307 21.794L92.4936 21.7598ZM91.1336 21.9518L91.0966 21.3148L91.1336 21.9518ZM89.5816 21.9678L88.945 22.0117L88.9818 22.5453L89.5136 22.6022L89.5816 21.9678ZM89.4856 12.7038L89.367 12.0768L88.8671 12.1714L88.8479 12.6797L89.4856 12.7038ZM93.2136 11.2638L93.7185 11.6539L93.8143 11.5299L93.8418 11.3755L93.2136 11.2638ZM91.2776 11.7438L91.3204 12.3805L91.3265 12.38L91.2776 11.7438ZM89.3736 11.5518L88.8659 11.9385L88.8727 11.9472L89.3736 11.5518ZM89.3736 10.2398L88.7579 10.0719L88.7564 10.0779L89.3736 10.2398ZM91.2616 9.48779L91.1879 8.85395L91.1803 8.85492L91.2616 9.48779ZM92.8776 9.74379L93.4295 9.42366L93.313 9.22286L93.0948 9.14384L92.8776 9.74379ZM92.1435 12.5118C92.1435 15.089 92.048 18.1597 91.8564 21.7256L93.1307 21.794C93.3231 18.2132 93.4196 15.1186 93.4196 12.5118H92.1435ZM92.2082 21.1891C92.2256 21.1804 92.1637 21.2079 91.9364 21.24C91.7342 21.2685 91.4563 21.2939 91.0966 21.3148L91.1705 22.5888C91.5468 22.567 91.8636 22.5391 92.1148 22.5036C92.3407 22.4717 92.5909 22.4245 92.7789 22.3305L92.2082 21.1891ZM91.0966 21.3148C90.3598 21.3575 89.8901 21.3591 89.6495 21.3334L89.5136 22.6022C89.8704 22.6405 90.4353 22.6314 91.1705 22.5888L91.0966 21.3148ZM90.2181 21.9239C90.028 19.1667 89.9959 16.1018 90.1232 12.7279L88.8479 12.6797C88.7193 16.0897 88.7512 19.2009 88.945 22.0117L90.2181 21.9239ZM89.6042 13.3307C90.3311 13.1932 91.38 13.1287 92.7719 13.1498L92.7912 11.8738C91.3671 11.8522 90.2187 11.9157 89.367 12.0768L89.6042 13.3307ZM92.7087 10.8736C92.7487 10.8218 92.7733 10.8225 92.7157 10.85C92.6643 10.8745 92.5765 10.9066 92.44 10.9405C92.1669 11.0082 91.7681 11.0661 91.2286 11.1076L91.3265 12.38C91.8963 12.3362 92.3749 12.2714 92.7471 12.1791C92.9333 12.1329 93.1101 12.0758 93.2655 12.0016C93.4145 11.9305 93.5877 11.8231 93.7185 11.6539L92.7087 10.8736ZM91.2347 11.1072C90.6936 11.1436 90.2987 11.1437 90.0336 11.1169C89.9004 11.1035 89.8229 11.0854 89.7856 11.0729C89.7373 11.0567 89.8034 11.0665 89.8744 11.1564L88.8727 11.9472C89.0238 12.1385 89.2291 12.2322 89.3796 12.2827C89.5408 12.3368 89.7214 12.3681 89.9055 12.3866C90.2751 12.4239 90.7521 12.4187 91.3204 12.3804L91.2347 11.1072ZM89.8811 11.1651C89.9158 11.2107 89.8836 11.2073 89.8836 11.0558C89.8836 10.9127 89.9127 10.6993 89.9908 10.4017L88.7564 10.0779C88.6638 10.431 88.6075 10.7615 88.6075 11.0558C88.6075 11.3416 88.6606 11.6689 88.866 11.9385L89.8811 11.1651ZM89.9891 10.4077C89.9529 10.5405 89.875 10.4916 90.1537 10.3806C90.3953 10.2843 90.782 10.1927 91.3428 10.1207L91.1803 8.85492C90.5784 8.93222 90.0691 9.04059 89.6815 9.19501C89.3308 9.3347 88.8902 9.58706 88.758 10.0719L89.9891 10.4077ZM91.3353 10.1216C91.6629 10.0835 92.0978 10.1401 92.6603 10.3437L93.0948 9.14384C92.42 8.89951 91.7775 8.78543 91.1879 8.85399L91.3353 10.1216ZM92.3256 10.0639C92.5799 10.5023 92.6379 10.8564 92.5853 11.1521L93.8418 11.3755C93.9599 10.7112 93.7939 10.052 93.4295 9.42366L92.3256 10.0639ZM102.004 20.1118L102.642 20.0774L102.621 19.691L102.268 19.5309L102.004 20.1118ZM101.892 21.4238L101.267 21.2986L101.264 21.3121L101.892 21.4238ZM101.556 22.2878L101.55 22.9258L101.753 22.9279L101.92 22.8124L101.556 22.2878ZM98.9644 22.2238L98.9341 22.8611L98.9346 22.8612L98.9644 22.2238ZM96.4844 21.9838L96.3942 22.6155L96.4019 22.6165L96.4844 21.9838ZM93.9884 21.4078L93.4946 21.8118L93.6075 21.9498L93.7756 22.0093L93.9884 21.4078ZM93.4444 17.3598L92.8075 17.3214L92.8074 17.3244L93.4444 17.3598ZM94.4524 12.9758L94.156 12.4108L94.0146 12.4849L93.9248 12.617L94.4524 12.9758ZM98.2604 12.1438L98.3321 12.7778L98.3356 12.7774L98.2604 12.1438ZM101.764 12.0958L102.397 12.0136L102.35 11.6527L102.016 11.5093L101.764 12.0958ZM101.764 14.2078L101.813 14.844L102.304 14.8062L102.392 14.3219L101.764 14.2078ZM100.708 14.2878L100.741 14.925L100.749 14.9246L100.756 14.9241L100.708 14.2878ZM99.7644 14.3518L99.7963 14.9891L99.8121 14.9883L99.8279 14.9867L99.7644 14.3518ZM98.9804 14.4638L98.8512 13.8389L98.8467 13.8399L98.9804 14.4638ZM98.1004 14.7358L97.8597 14.1449L97.5795 14.259L97.4906 14.5481L98.1004 14.7358ZM97.6684 17.2958L98.3048 17.3427L97.6684 17.2958ZM97.8764 19.5998L97.2857 19.8409L97.364 20.0327L97.5399 20.1419L97.8764 19.5998ZM100.084 19.9678L100.055 20.6052L100.061 20.6054L100.084 19.9678ZM101.367 20.1462C101.385 20.4765 101.355 20.8592 101.267 21.2987L102.518 21.5489C102.622 21.0284 102.666 20.5364 102.642 20.0774L101.367 20.1462ZM101.264 21.3121C101.225 21.5318 101.185 21.6787 101.15 21.7685C101.142 21.7896 101.135 21.8052 101.129 21.816C101.124 21.8269 101.121 21.8314 101.121 21.831C101.121 21.8307 101.126 21.8233 101.137 21.8116C101.148 21.8 101.166 21.7821 101.193 21.7632L101.92 22.8124C102.15 22.6532 102.27 22.4085 102.339 22.2311C102.416 22.0329 102.474 21.7958 102.521 21.5355L101.264 21.3121ZM101.563 21.6498C100.522 21.6391 99.6663 21.6179 98.9943 21.5864L98.9346 22.8612C99.6279 22.8937 100.5 22.9151 101.55 22.9258L101.563 21.6498ZM98.9948 21.5864C98.3463 21.5556 97.5382 21.4778 96.567 21.3511L96.4019 22.6165C97.3933 22.7458 98.2386 22.828 98.9341 22.8611L98.9948 21.5864ZM96.5747 21.3521C95.6329 21.2176 94.8442 21.0338 94.2013 20.8063L93.7756 22.0093C94.5193 22.2725 95.3946 22.4727 96.3942 22.6155L96.5747 21.3521ZM94.4823 21.0037C94.3557 20.8491 94.2106 20.5088 94.1248 19.8708C94.0416 19.2516 94.024 18.4304 94.0815 17.3952L92.8074 17.3244C92.7475 18.4011 92.7619 19.3107 92.8601 20.0408C92.9556 20.7521 93.1411 21.3798 93.4946 21.8118L94.4823 21.0037ZM94.0814 17.3982C94.2089 15.2831 94.542 13.9787 94.9801 13.3346L93.9248 12.617C93.2748 13.5728 92.936 15.1912 92.8075 17.3214L94.0814 17.3982ZM94.7489 13.5408C95.2802 13.2621 96.4359 12.9921 98.3321 12.7778L98.1888 11.5098C96.309 11.7222 94.926 12.0068 94.156 12.4108L94.7489 13.5408ZM98.3356 12.7774C99.2694 12.6666 100.009 12.6094 100.561 12.6018C101.147 12.5938 101.427 12.6452 101.513 12.6823L102.016 11.5093C101.654 11.3544 101.126 11.3178 100.544 11.3258C99.9281 11.3342 99.1395 11.397 98.1853 11.5102L98.3356 12.7774ZM101.132 12.178C101.233 12.9574 101.228 13.5915 101.137 14.0937L102.392 14.3219C102.514 13.6508 102.509 12.8768 102.397 12.0136L101.132 12.178ZM101.715 13.5716C101.439 13.5929 101.087 13.6195 100.661 13.6515L100.756 14.9241C101.183 14.8921 101.535 14.8654 101.813 14.844L101.715 13.5716ZM100.676 13.6506C100.257 13.672 99.9301 13.694 99.701 13.7169L99.8279 14.9867C100.025 14.9669 100.328 14.9462 100.741 14.925L100.676 13.6506ZM99.7326 13.7145C99.475 13.7274 99.1789 13.7711 98.8512 13.839L99.1097 15.0886C99.4006 15.0284 99.6272 14.9975 99.7963 14.9891L99.7326 13.7145ZM98.8467 13.8399C98.5108 13.9119 98.1817 14.0137 97.8597 14.1449L98.3412 15.3267C98.5952 15.2232 98.8527 15.1437 99.1141 15.0877L98.8467 13.8399ZM97.4906 14.5481C97.2588 15.3014 97.109 16.2052 97.0321 17.2489L98.3048 17.3427C98.3772 16.3597 98.5154 15.5569 98.7103 14.9234L97.4906 14.5481ZM97.0321 17.2489C96.9551 18.2938 97.0162 19.1806 97.2857 19.8409L98.4672 19.3587C98.31 18.9736 98.2324 18.3244 98.3048 17.3427L97.0321 17.2489ZM97.5399 20.1419C97.8068 20.3076 98.1734 20.4015 98.5555 20.4652C98.9584 20.5323 99.4608 20.5779 100.055 20.6052L100.114 19.3304C99.5454 19.3043 99.0985 19.2619 98.7653 19.2064C98.4114 19.1474 98.2554 19.084 98.2129 19.0577L97.5399 20.1419ZM100.061 20.6054C100.64 20.6267 101.081 20.649 101.389 20.6721C101.543 20.6837 101.657 20.6949 101.734 20.7052C101.844 20.72 101.811 20.7248 101.74 20.6927L102.268 19.5309C102.139 19.4721 101.982 19.4509 101.903 19.4404C101.791 19.4253 101.649 19.4119 101.484 19.3995C101.152 19.3746 100.692 19.3516 100.108 19.3302L100.061 20.6054ZM108.642 19.4078L108.766 20.0338L109.291 19.9299L109.28 19.3942L108.642 19.4078ZM108.466 17.3918L109.099 17.3117L109.001 16.5407L108.264 16.7865L108.466 17.3918ZM108.146 17.4878L108.289 18.1095L108.305 18.1058L108.321 18.1013L108.146 17.4878ZM107.474 17.6638L107.286 17.0539L107.474 17.6638ZM107.122 17.7758L106.92 17.1705L106.909 17.1742L106.898 17.1784L107.122 17.7758ZM106.834 17.8878L107.036 18.4931L107.053 18.4872L107.071 18.4802L106.834 17.8878ZM106.578 17.9998L106.895 18.5538V18.5538L106.578 17.9998ZM106.402 18.1278L105.951 17.6766L105.774 17.853L105.764 18.1023L106.402 18.1278ZM106.386 18.5278L105.748 18.5023L105.748 18.515V18.5278H106.386ZM106.418 19.2318L105.783 19.2986L105.785 19.315L105.788 19.3313L106.418 19.2318ZM106.594 19.6158L106.256 20.1569L106.383 20.2367L106.533 20.251L106.594 19.6158ZM112.274 21.9358L112.457 22.547L112.86 22.426L112.908 22.008L112.274 21.9358ZM108.946 22.3358L108.311 22.4009L108.373 23.0017L108.976 22.9732L108.946 22.3358ZM108.882 21.7118L109.517 21.6467L109.447 20.9677L108.774 21.0829L108.882 21.7118ZM104.946 22.2558L104.757 22.8652L104.884 22.9047L105.016 22.89L104.946 22.2558ZM103.746 21.7438L103.456 22.312L103.461 22.3145L103.746 21.7438ZM102.546 20.9918L101.921 21.1197L101.967 21.3458L102.147 21.49L102.546 20.9918ZM102.514 18.8318L103.15 18.8807L102.514 18.8318ZM102.818 16.7838L102.492 16.2355L102.285 16.3584L102.211 16.5869L102.818 16.7838ZM105.298 15.9198L105.139 15.3018L105.298 15.9198ZM108.258 15.3598L108.311 15.9957L108.827 15.9527L108.891 15.4389L108.258 15.3598ZM108.258 14.7198L108.885 14.6022L108.816 14.2332L108.46 14.1145L108.258 14.7198ZM107.634 14.6238L107.587 15.2601L107.634 14.6238ZM106.562 14.5918L106.546 15.2297L106.554 15.2299H106.562V14.5918ZM105.474 14.5918V15.2299H105.485L105.497 15.2295L105.474 14.5918ZM104.338 14.6078L104.353 15.2457L104.338 14.6078ZM103.586 14.6238L102.949 14.6541L102.978 15.2619H103.586V14.6238ZM103.666 13.2958L104.295 13.4032L104.295 13.4007L103.666 13.2958ZM103.986 12.4158L103.892 11.7846L103.684 11.8155L103.535 11.9646L103.986 12.4158ZM107.826 12.1918L107.816 12.8298L107.821 12.8298L107.826 12.1918ZM111.314 12.5438L111.839 12.1811L111.702 11.9823L111.467 11.9243L111.314 12.5438ZM112.21 16.7038L111.574 16.7596L111.574 16.7599L112.21 16.7038ZM109.28 19.3942C109.269 18.8606 109.207 18.1635 109.099 17.3117L107.833 17.4719C107.938 18.3054 107.994 18.9523 108.004 19.4214L109.28 19.3942ZM108.264 16.7865C108.214 16.803 108.119 16.8317 107.971 16.8743L108.321 18.1013C108.471 18.0585 108.589 18.0232 108.668 17.9971L108.264 16.7865ZM108.002 16.8661C107.862 16.8985 107.746 16.9261 107.655 16.9488L107.965 18.1868C108.045 18.1668 108.153 18.1411 108.289 18.1095L108.002 16.8661ZM107.655 16.9488C107.554 16.9741 107.43 17.0098 107.286 17.0539L107.662 18.2736C107.795 18.2325 107.895 18.2042 107.965 18.1868L107.655 16.9488ZM107.286 17.0539C107.145 17.0975 107.022 17.1364 106.92 17.1705L107.324 18.3811C107.413 18.3512 107.526 18.3154 107.662 18.2736L107.286 17.0539ZM106.898 17.1784C106.807 17.2123 106.707 17.2514 106.597 17.2954L107.071 18.4802C107.174 18.4389 107.266 18.4033 107.346 18.3732L106.898 17.1784ZM106.632 17.2825C106.503 17.3255 106.378 17.379 106.261 17.4458L106.895 18.5538C106.927 18.5352 106.973 18.5141 107.036 18.4931L106.632 17.2825ZM106.261 17.4458C106.156 17.5057 106.047 17.5808 105.951 17.6766L106.853 18.579C106.847 18.5854 106.846 18.5853 106.853 18.5798C106.861 18.5744 106.874 18.5656 106.895 18.5538L106.261 17.4458ZM105.764 18.1023L105.748 18.5023L107.023 18.5533L107.039 18.1533L105.764 18.1023ZM105.748 18.5278C105.748 18.8104 105.759 19.0682 105.783 19.2986L107.052 19.165C107.034 18.9901 107.024 18.7785 107.024 18.5278H105.748ZM105.788 19.3313C105.809 19.4664 105.844 19.6107 105.906 19.7456C105.967 19.8795 106.073 20.0426 106.256 20.1569L106.932 19.0747C107.03 19.1357 107.063 19.2081 107.066 19.2139C107.068 19.2192 107.066 19.216 107.062 19.2011C107.058 19.1864 107.053 19.164 107.048 19.1323L105.788 19.3313ZM106.533 20.251C107.079 20.303 107.838 20.2171 108.766 20.0338L108.518 18.7818C107.611 18.9612 107.005 19.014 106.654 18.9806L106.533 20.251ZM112.091 21.3246C111.533 21.4919 110.494 21.6238 108.916 21.6984L108.976 22.9732C110.555 22.8984 111.735 22.7637 112.457 22.547L112.091 21.3246ZM109.581 22.2707L109.517 21.6467L108.247 21.7769L108.311 22.4009L109.581 22.2707ZM108.774 21.0829C107.605 21.283 106.305 21.4627 104.875 21.6216L105.016 22.89C106.466 22.7288 107.791 22.5459 108.99 22.3407L108.774 21.0829ZM105.135 21.6464C104.874 21.5653 104.509 21.412 104.031 21.1731L103.461 22.3145C103.964 22.5663 104.399 22.7543 104.757 22.8652L105.135 21.6464ZM104.036 21.1756C103.583 20.9441 103.222 20.7158 102.945 20.4935L102.147 21.49C102.51 21.7798 102.948 22.0528 103.456 22.312L104.036 21.1756ZM103.171 20.8639C103.094 20.486 103.076 19.84 103.15 18.8807L101.878 18.7829C101.802 19.7649 101.806 20.5589 101.921 21.1197L103.171 20.8639ZM103.15 18.8807C103.225 17.9113 103.323 17.2962 103.425 16.9806L102.211 16.5869C102.057 17.0607 101.952 17.811 101.878 18.7829L103.15 18.8807ZM103.144 17.3321C103.505 17.1171 104.251 16.8472 105.457 16.5378L105.139 15.3018C103.934 15.6111 103.026 15.9171 102.492 16.2355L103.144 17.3321ZM105.457 16.5378C106.646 16.2327 107.593 16.0555 108.311 15.9957L108.205 14.7239C107.386 14.7921 106.361 14.9882 105.139 15.3018L105.457 16.5378ZM108.891 15.4389C108.928 15.146 108.934 14.861 108.885 14.6022L107.631 14.8374C107.646 14.9199 107.652 15.0615 107.625 15.2807L108.891 15.4389ZM108.46 14.1145C108.252 14.0451 107.976 14.0093 107.681 13.9875L107.587 15.2601C107.868 15.2809 108.008 15.3092 108.056 15.3251L108.46 14.1145ZM107.681 13.9875C107.372 13.9646 106.998 13.9537 106.562 13.9537V15.2299C106.98 15.2299 107.32 15.2404 107.587 15.2601L107.681 13.9875ZM106.578 13.9539C106.143 13.9431 105.767 13.9429 105.451 13.9541L105.497 15.2295C105.778 15.2194 106.127 15.2192 106.546 15.2297L106.578 13.9539ZM105.474 13.9537C105.168 13.9537 104.784 13.9592 104.323 13.9699L104.353 15.2457C104.809 15.2351 105.182 15.2299 105.474 15.2299V13.9537ZM104.323 13.9699C104.094 13.9752 103.917 13.9792 103.792 13.9819C103.73 13.9832 103.681 13.9842 103.645 13.9848C103.627 13.9852 103.613 13.9854 103.603 13.9855C103.597 13.9856 103.593 13.9857 103.59 13.9857C103.587 13.9857 103.586 13.9857 103.586 13.9857V15.2619C103.638 15.2619 103.901 15.2562 104.353 15.2457L104.323 13.9699ZM104.223 14.5934C104.204 14.191 104.228 13.7945 104.295 13.4032L103.037 13.1884C102.954 13.6717 102.925 14.1606 102.949 14.6541L104.223 14.5934ZM104.295 13.4007C104.329 13.1995 104.366 13.0554 104.402 12.9578C104.44 12.8527 104.461 12.8428 104.437 12.867L103.535 11.9646C103.372 12.1275 103.271 12.3336 103.202 12.5217C103.131 12.7176 103.078 12.9441 103.037 13.1909L104.295 13.4007ZM104.079 13.047C105.191 12.8823 106.436 12.8089 107.816 12.8298L107.836 11.5538C106.4 11.532 105.085 11.608 103.892 11.7846L104.079 13.047ZM107.821 12.8298C109.213 12.8403 110.321 12.9557 111.161 13.1632L111.467 11.9243C110.494 11.6839 109.276 11.5646 107.831 11.5537L107.821 12.8298ZM110.789 12.9065C110.917 13.0918 111.072 13.4818 111.218 14.1581C111.36 14.8156 111.48 15.6801 111.574 16.7596L112.846 16.648C112.748 15.5409 112.623 14.6187 112.466 13.8894C112.313 13.1791 112.116 12.5824 111.839 12.1811L110.789 12.9065ZM111.574 16.7599C111.765 18.917 111.782 20.6128 111.64 21.8636L112.908 22.008C113.064 20.6348 113.039 18.8426 112.846 16.6477L111.574 16.7599ZM122.376 12.9918L123.01 12.9166L122.955 12.4569L122.501 12.3661L122.376 12.9918ZM122.248 15.1678L122.329 15.8007L122.786 15.7421L122.874 15.2898L122.248 15.1678ZM119.608 15.3598L119.573 14.7227L119.088 14.7496L118.985 15.2239L119.608 15.3598ZM119.432 21.9198L119.528 22.5506L120.08 22.4664L120.07 21.9083L119.432 21.9198ZM115.624 22.2398L114.99 22.3072L115.046 22.8403L115.581 22.8764L115.624 22.2398ZM115.4 18.8318L114.762 18.8382L114.762 18.8446L115.4 18.8318ZM115.432 15.6478L116.07 15.6671L116.089 15.0242L115.446 15.0099L115.432 15.6478ZM112.824 15.7758L112.187 15.8133L112.227 16.4934L112.903 16.4089L112.824 15.7758ZM113.08 13.2798L112.831 12.6922L112.554 12.8096L112.468 13.0988L113.08 13.2798ZM115.464 13.0078L115.495 13.6451L116.102 13.6155V13.0078H115.464ZM115.608 10.2718L115.379 9.67644L115.029 9.81107L114.976 10.1816L115.608 10.2718ZM119.56 9.80779H120.198V9.18129L119.572 9.16983L119.56 9.80779ZM119.528 12.9118L118.89 12.8988L118.877 13.559L119.537 13.5498L119.528 12.9118ZM121.742 13.067C121.807 13.6134 121.773 14.2699 121.622 15.0458L122.874 15.2898C123.043 14.423 123.094 13.6289 123.01 12.9166L121.742 13.067ZM122.167 14.5349C121.778 14.5848 120.922 14.6478 119.573 14.7227L119.643 15.9969C120.982 15.9225 121.886 15.8575 122.329 15.8007L122.167 14.5349ZM118.985 15.2239C118.88 15.7059 118.819 16.5165 118.79 17.6067C118.761 18.7135 118.762 20.1562 118.794 21.9313L120.07 21.9083C120.038 20.1421 120.037 18.7207 120.066 17.6409C120.095 16.5444 120.155 15.8457 120.231 15.4957L118.985 15.2239ZM119.336 21.289C117.59 21.5551 116.381 21.6514 115.667 21.6032L115.581 22.8764C116.446 22.9348 117.775 22.8178 119.528 22.5506L119.336 21.289ZM116.259 22.1724C116.132 20.9828 116.059 19.8652 116.038 18.819L114.762 18.8446C114.784 19.9317 114.86 21.0861 114.99 22.3072L116.259 22.1724ZM116.038 18.8254C116.028 17.7672 116.038 16.7145 116.07 15.6671L114.794 15.6285C114.762 16.6931 114.751 17.763 114.762 18.8382L116.038 18.8254ZM115.446 15.0099C114.969 14.9993 114.668 14.9937 114.552 14.9937V16.2699C114.65 16.2699 114.935 16.275 115.418 16.2857L115.446 15.0099ZM114.552 14.9937C114.41 14.9937 114.083 15.0187 113.616 15.0602L113.729 16.3314C114.221 16.2875 114.481 16.2699 114.552 16.2699V14.9937ZM113.616 15.0602C113.142 15.1023 112.845 15.1302 112.745 15.1427L112.903 16.4089C112.974 16.4001 113.242 16.3746 113.729 16.3314L113.616 15.0602ZM113.461 15.7383C113.411 14.8945 113.492 14.1375 113.692 13.4608L112.468 13.0988C112.22 13.9367 112.13 14.8438 112.187 15.8133L113.461 15.7383ZM113.329 13.8674C113.328 13.8677 113.331 13.8663 113.34 13.8634C113.348 13.8606 113.36 13.857 113.376 13.8527C113.408 13.844 113.451 13.834 113.507 13.8232C113.619 13.8014 113.767 13.7793 113.956 13.7578C114.334 13.7146 114.845 13.6768 115.495 13.6451L115.433 12.3705C114.771 12.4028 114.229 12.4423 113.812 12.4898C113.422 12.5343 113.066 12.5928 112.831 12.6922L113.329 13.8674ZM116.102 13.0078C116.102 11.8683 116.15 10.9906 116.24 10.362L114.976 10.1816C114.874 10.8969 114.826 11.8433 114.826 13.0078H116.102ZM115.838 10.8671C116.606 10.5709 117.824 10.4142 119.548 10.4458L119.572 9.16983C117.798 9.13738 116.381 9.29007 115.379 9.67644L115.838 10.8671ZM118.922 9.80779C118.922 10.8274 118.911 11.8577 118.89 12.8988L120.166 12.9248C120.187 11.8752 120.198 10.8362 120.198 9.80779H118.922ZM119.537 13.5498C120.295 13.5392 120.904 13.5406 121.366 13.5536C121.842 13.567 122.123 13.592 122.251 13.6175L122.501 12.3661C122.255 12.3169 121.875 12.2913 121.402 12.278C120.915 12.2643 120.286 12.2631 119.519 12.2738L119.537 13.5498ZM129.198 15.9518L129.381 16.563L129.804 16.436L129.835 15.9954L129.198 15.9518ZM128.99 14.2718L129.546 13.959L129.363 13.6337H128.99V14.2718ZM128.718 14.2878V14.9259H128.744L128.771 14.9237L128.718 14.2878ZM128.43 14.3038V14.9419H128.483L128.535 14.9332L128.43 14.3038ZM128.174 14.3198L128.116 13.6843L128.11 13.6849L128.174 14.3198ZM127.87 14.3678L127.732 13.7449L127.723 13.7467L127.715 13.7488L127.87 14.3678ZM127.566 14.4478L127.398 13.8322V13.8322L127.566 14.4478ZM127.198 14.5758L126.953 13.9868L126.673 14.1032L126.587 14.3933L127.198 14.5758ZM126.814 16.2398L126.18 16.1712L126.106 16.8514L126.79 16.8774L126.814 16.2398ZM132.958 17.9998L133.057 18.6302L133.585 18.5473L133.596 18.0127L132.958 17.9998ZM130.142 18.2878L130.188 18.9242L130.193 18.9238L130.142 18.2878ZM126.59 18.4798L126.57 17.842L125.879 17.8634L125.956 18.5503L126.59 18.4798ZM126.814 19.2158L126.262 19.5355L126.342 19.6737L126.477 19.7579L126.814 19.2158ZM129.422 19.6958L129.365 20.3313L129.37 20.3318L129.422 19.6958ZM131.758 19.9518L132.395 19.9174L132.374 19.531L132.022 19.3709L131.758 19.9518ZM131.662 21.3758L132.293 21.4728L131.662 21.3758ZM131.326 22.3518L131.318 22.9898L131.522 22.9924L131.689 22.8764L131.326 22.3518ZM123.406 21.2638L122.912 21.6678L123.026 21.8073L123.196 21.8664L123.406 21.2638ZM122.862 17.1998L122.225 17.1614L122.225 17.1646L122.862 17.1998ZM123.87 12.8158L123.57 12.2528L123.431 12.3269L123.342 12.457L123.87 12.8158ZM127.998 11.9838L128.062 12.6186L128.065 12.6183L127.998 11.9838ZM131.854 11.9358L132.4 11.6061L132.294 11.4302L132.105 11.3493L131.854 11.9358ZM132.702 14.6398L132.072 14.7419L132.702 14.6398ZM129.835 15.9954C129.889 15.1945 129.835 14.4724 129.546 13.959L128.434 14.5846C128.529 14.7538 128.613 15.1518 128.561 15.9082L129.835 15.9954ZM128.99 13.6337C128.907 13.6337 128.793 13.6413 128.665 13.6519L128.771 14.9237C128.899 14.913 128.966 14.9099 128.99 14.9099V13.6337ZM128.718 13.6497C128.582 13.6497 128.443 13.6548 128.325 13.6744L128.535 14.9332C128.534 14.9333 128.538 14.9326 128.547 14.9317C128.556 14.9308 128.569 14.9298 128.585 14.9289C128.618 14.927 128.662 14.9259 128.718 14.9259V13.6497ZM128.43 13.6657C128.346 13.6657 128.235 13.6735 128.116 13.6843L128.232 14.9552C128.347 14.9448 128.408 14.9419 128.43 14.9419V13.6657ZM128.11 13.6849C127.981 13.6979 127.854 13.7176 127.732 13.7449L128.008 14.9907C128.078 14.9753 128.154 14.9631 128.237 14.9547L128.11 13.6849ZM127.715 13.7488C127.624 13.7715 127.518 13.7994 127.398 13.8322L127.734 15.0634C127.848 15.0322 127.945 15.0067 128.025 14.9868L127.715 13.7488ZM127.398 13.8322C127.251 13.8723 127.102 13.9244 126.953 13.9868L127.443 15.1648C127.55 15.1205 127.646 15.0873 127.734 15.0634L127.398 13.8322ZM126.587 14.3933C126.37 15.1188 126.229 15.7179 126.18 16.1712L127.448 16.3084C127.485 15.9724 127.599 15.4621 127.809 14.7583L126.587 14.3933ZM126.79 16.8774C127.697 16.9119 128.562 16.8087 129.381 16.563L129.015 15.3406C128.34 15.5429 127.616 15.6317 126.838 15.6022L126.79 16.8774ZM132.859 17.3694C132.341 17.4506 131.425 17.5451 130.091 17.6518L130.193 18.9238C131.526 18.8172 132.486 18.7196 133.057 18.6302L132.859 17.3694ZM130.096 17.6514C128.769 17.7469 127.594 17.8104 126.57 17.842L126.61 19.1176C127.655 19.0852 128.848 19.0207 130.188 18.9242L130.096 17.6514ZM125.956 18.5503C125.995 18.9058 126.091 19.2404 126.262 19.5355L127.366 18.8961C127.302 18.7858 127.249 18.6297 127.224 18.4093L125.956 18.5503ZM126.477 19.7579C126.746 19.9243 127.15 20.0278 127.582 20.1073C128.045 20.1924 128.641 20.2665 129.365 20.3313L129.479 19.0603C128.773 18.9971 128.221 18.9272 127.813 18.8523C127.61 18.8148 127.452 18.7777 127.334 18.7424C127.275 18.7249 127.23 18.7091 127.198 18.6958C127.182 18.6893 127.17 18.6838 127.162 18.6797C127.153 18.6756 127.15 18.6734 127.15 18.6737L126.477 19.7579ZM129.37 20.3318C130.088 20.3903 130.636 20.4404 131.016 20.4821C131.207 20.503 131.35 20.5211 131.448 20.5364C131.498 20.544 131.53 20.55 131.548 20.5539C131.579 20.5608 131.546 20.5565 131.494 20.5327L132.022 19.3709C131.94 19.3338 131.857 19.3152 131.818 19.3067C131.765 19.2953 131.706 19.2849 131.644 19.2752C131.518 19.2558 131.354 19.2353 131.155 19.2135C130.757 19.1699 130.196 19.1187 129.474 19.0598L129.37 20.3318ZM131.121 19.9862C131.139 20.3229 131.112 20.7511 131.031 21.2788L132.293 21.4728C132.382 20.8912 132.42 20.37 132.395 19.9174L131.121 19.9862ZM131.031 21.2788C130.991 21.5388 130.949 21.7167 130.911 21.8281C130.892 21.8833 130.879 21.9071 130.877 21.9106C130.872 21.9174 130.896 21.8733 130.963 21.8272L131.689 22.8764C131.938 22.7039 132.055 22.4242 132.117 22.2435C132.191 22.0295 132.247 21.7675 132.293 21.4728L131.031 21.2788ZM131.334 21.7138C128.05 21.6715 125.487 21.3119 123.616 20.6611L123.196 21.8664C125.251 22.581 127.968 22.9467 131.318 22.9898L131.334 21.7138ZM123.9 20.8597C123.774 20.7055 123.628 20.3643 123.542 19.7231C123.459 19.101 123.442 18.2757 123.499 17.235L122.225 17.1646C122.165 18.2465 122.179 19.1599 122.278 19.8924C122.373 20.6059 122.558 21.2355 122.912 21.6678L123.9 20.8597ZM123.499 17.2382C123.626 15.1231 123.96 13.8187 124.398 13.1746L123.342 12.457C122.692 13.4128 122.353 15.0312 122.225 17.1614L123.499 17.2382ZM124.17 13.3788C124.406 13.2532 124.835 13.1129 125.508 12.9773C126.168 12.8443 127.017 12.7241 128.062 12.6186L127.934 11.349C126.866 11.4568 125.972 11.582 125.256 11.7263C124.553 11.868 123.974 12.0371 123.57 12.2528L124.17 13.3788ZM128.065 12.6183C129.118 12.5073 129.948 12.4495 130.562 12.4418C130.869 12.438 131.112 12.4469 131.296 12.4656C131.491 12.4853 131.579 12.5123 131.603 12.5223L132.105 11.3493C131.904 11.2632 131.664 11.2202 131.425 11.196C131.176 11.1707 130.881 11.1616 130.546 11.1658C129.875 11.1741 129.001 11.2363 127.931 11.3492L128.065 12.6183ZM131.308 12.2655C131.62 12.7832 131.886 13.5923 132.072 14.7419L133.332 14.5377C133.134 13.3193 132.835 12.3258 132.4 11.6061L131.308 12.2655ZM132.072 14.7419C132.259 15.8929 132.34 16.9742 132.32 17.9869L133.596 18.0127C133.618 16.9134 133.529 15.7547 133.332 14.5377L132.072 14.7419Z" fill="#060000" mask="url(#path-6-outside-1_337_6225)"/>
</g>
</g>
<defs>
<filter id="filter0_d_337_6225" x="33.8325" y="9.05579" width="99.1575" height="14.7481" filterUnits="userSpaceOnUse" color-interpolation-filters="sRGB">
<feFlood flood-opacity="0" result="BackgroundImageFix"/>
<feColorMatrix in="SourceAlpha" type="matrix" values="0 0 0 0 0 0 0 0 0 0 0 0 0 0 0 0 0 0 127 0" result="hardAlpha"/>
<feOffset dy="1.27614"/>
<feComposite in2="hardAlpha" operator="out"/>
<feColorMatrix type="matrix" values="0 0 0 0 0.0313726 0 0 0 0 0.00784314 0 0 0 0 0.0235294 0 0 0 1 0"/>
<feBlend mode="normal" in2="BackgroundImageFix" result="effect1_dropShadow_337_6225"/>
<feBlend mode="normal" in="SourceGraphic" in2="effect1_dropShadow_337_6225" result="shape"/>
</filter>
<linearGradient id="paint0_linear_337_6225" x1="19.0447" y1="15.0835" x2="211.456" y2="77.7784" gradientUnits="userSpaceOnUse">
<stop stop-color="#FFB092"/>
<stop offset="0.4" stop-color="#E6492E"/>
<stop offset="1" stop-color="#C42729"/>
</linearGradient>
<clipPath id="clip0_337_6225">
<rect width="165" height="34.7748" fill="white" transform="translate(0 0.549599)"/>
</clipPath>
</defs>
</svg>
