<svg width="165" height="35" viewBox="0 0 165 35" fill="none" xmlns="http://www.w3.org/2000/svg">
<g clip-path="url(#clip0_337_4812)">
<g filter="url(#filter0_dd_337_4812)">
<path d="M3.20523 3.29982C3.39469 1.42601 4.97216 0 6.85552 0H160.881C163.075 0 164.778 1.91218 164.526 4.09121L161.393 31.1242C161.18 32.9692 159.621 34.3634 157.764 34.3708L4.25201 34.983C1.97928 34.9921 0.199113 33.0307 0.427746 30.7695L3.20523 3.29982Z" fill="url(#paint0_linear_337_4812)"/>
<path d="M3.52264 3.33191C3.69563 1.62105 5.13593 0.319035 6.85552 0.319035H160.881C162.884 0.319035 164.44 2.06494 164.209 4.05449L161.077 31.0875C160.881 32.772 159.458 34.045 157.762 34.0518L4.25074 34.664C2.1674 34.6723 0.535582 32.8744 0.745163 30.8016L3.52264 3.33191Z" stroke="black" stroke-width="0.63807"/>
</g>
<mask id="mask0_337_4812" style="mask-type:alpha" maskUnits="userSpaceOnUse" x="0" y="0" width="165" height="35">
<path d="M3.20331 3.29746C3.39389 1.42468 4.97091 0 6.85336 0H160.878C163.073 0 164.777 1.91399 164.523 4.09391L161.396 30.9058C161.181 32.7496 159.622 34.1423 157.766 34.1496L4.25468 34.7579C1.981 34.7669 0.200562 32.804 0.430758 30.542L3.20331 3.29746Z" fill="#CA6347"/>
</mask>
<g mask="url(#mask0_337_4812)">
<rect width="3.89121" height="10.0771" transform="matrix(0.8265 -0.562937 0.794753 0.606933 156.594 -0.0427246)" fill="#2E2E2E"/>
<g style="mix-blend-mode:overlay" opacity="0.7">
<rect x="0.885498" width="165.885" height="4.14745" fill="white"/>
</g>
<g style="mix-blend-mode:overlay" opacity="0.7">
<rect x="-0.885498" y="30.6274" width="165.885" height="4.14745" fill="black"/>
</g>
<g filter="url(#filter1_dd_337_4812)">
<path d="M3.5207 3.32976C3.69471 1.61983 5.1346 0.319035 6.85336 0.319035H160.878C162.882 0.319035 164.438 2.06659 164.206 4.05695L161.079 30.8688C160.882 32.5523 159.46 33.8239 157.765 33.8306L4.25342 34.4389C2.1692 34.4472 0.537141 32.6478 0.748153 30.5742L3.5207 3.32976Z" stroke="black" stroke-width="0.63807" shape-rendering="crispEdges"/>
</g>
</g>
<g filter="url(#filter2_d_337_4812)">
<mask id="path-8-outside-1_337_4812" maskUnits="userSpaceOnUse" x="34" y="9" width="99" height="16" fill="black">
<rect fill="white" x="34" y="9" width="99" height="16"/>
<path d="M43.0351 14.04C42.7151 13.7307 42.2138 13.56 41.5311 13.528C40.8591 13.4853 40.3205 13.5813 39.9151 13.816C39.8938 14.3173 39.8778 15.464 39.8671 17.256C39.8671 19.0373 39.8938 20.072 39.9471 20.36C40.7471 20.5947 41.5951 20.5413 42.4911 20.2C42.8005 19.2613 43.0085 18.1787 43.1151 16.952C43.2218 15.7147 43.1951 14.744 43.0351 14.04ZM47.4671 13.336C47.4245 17.88 46.9338 21.064 45.9951 22.888C45.0991 23.2187 43.5845 23.4373 41.4511 23.544C39.3178 23.6613 37.4565 23.5547 35.8671 23.224C35.8245 22.6693 35.7925 21.928 35.7711 21C35.7605 20.0613 35.7551 19.304 35.7551 18.728C35.7551 18.1413 35.7658 17.1707 35.7871 15.816C35.8085 14.4507 35.8191 13.6773 35.8191 13.496L34.9071 13.432C34.9178 12.8987 34.9765 12.0027 35.0831 10.744C36.6085 10.5093 38.2991 10.3707 40.1551 10.328C42.0218 10.2853 43.7071 10.3707 45.2111 10.584C45.5951 10.968 45.8778 11.256 46.0591 11.448C46.2405 11.64 46.4698 11.9173 46.7471 12.28C47.0351 12.632 47.2751 12.984 47.4671 13.336ZM54.1348 20.408C54.1241 19.9067 54.0654 19.2347 53.9588 18.392C53.8948 18.4133 53.7881 18.4453 53.6388 18.488C53.5001 18.52 53.3881 18.5467 53.3028 18.568C53.2174 18.5893 53.1054 18.6213 52.9668 18.664C52.8281 18.7067 52.7108 18.744 52.6148 18.776C52.5294 18.808 52.4334 18.8453 52.3268 18.888C52.2308 18.92 52.1454 18.9573 52.0708 19C51.9961 19.0427 51.9374 19.0853 51.8948 19.128L51.8788 19.528C51.8788 19.7947 51.8894 20.0293 51.9108 20.232C51.9428 20.4347 52.0014 20.5627 52.0868 20.616C52.5348 20.6587 53.2174 20.5893 54.1348 20.408ZM57.7668 22.936C57.1268 23.128 56.0174 23.2613 54.4388 23.336L54.3748 22.712C53.1908 22.9147 51.8788 23.096 50.4388 23.256C50.1294 23.16 49.7294 22.9893 49.2388 22.744C48.7588 22.4987 48.3588 22.248 48.0388 21.992C47.9428 21.5227 47.9321 20.8027 48.0068 19.832C48.0814 18.8613 48.1828 18.1787 48.3108 17.784C48.7588 17.5173 49.5854 17.2293 50.7908 16.92C51.9961 16.6107 52.9828 16.424 53.7508 16.36C53.7828 16.104 53.7828 15.8907 53.7508 15.72C53.6228 15.6773 53.4148 15.6453 53.1268 15.624C52.8388 15.6027 52.4814 15.592 52.0548 15.592C51.6281 15.5813 51.2654 15.5813 50.9668 15.592C50.6681 15.592 50.2894 15.5973 49.8308 15.608C49.3721 15.6187 49.1214 15.624 49.0788 15.624C49.0574 15.176 49.0841 14.7333 49.1588 14.296C49.2334 13.848 49.3401 13.5547 49.4788 13.416C50.6308 13.2453 51.9108 13.1707 53.3188 13.192C54.7374 13.2027 55.9001 13.32 56.8068 13.544C57.2121 14.1307 57.5108 15.5173 57.7028 17.704C57.8948 19.88 57.9161 21.624 57.7668 22.936ZM66.8609 14.968C66.4769 15.0213 65.8422 15.0907 64.9569 15.176C64.0715 15.2613 63.3942 15.3467 62.9249 15.432C62.7329 15.72 62.6262 16.184 62.6049 16.824C63.0635 16.8987 63.7622 17.064 64.7009 17.32C65.6395 17.5653 66.3489 17.7253 66.8289 17.8C67.0955 18.3867 67.1915 19.112 67.1169 19.976C67.0422 20.84 66.8395 21.544 66.5089 22.088C64.8875 22.8347 62.4982 23.3787 59.3409 23.72C59.2129 23.6347 59.1009 23.2933 59.0049 22.696C58.9195 22.0987 58.8875 21.672 58.9089 21.416C59.5915 21.384 60.3329 21.304 61.1329 21.176C61.9435 21.0373 62.5089 20.8933 62.8289 20.744C62.9142 20.4453 62.9409 20.1413 62.9089 19.832C62.7382 19.7147 62.0395 19.5333 60.8129 19.288C59.5969 19.0427 58.8342 18.8293 58.5249 18.648C58.4929 17.8373 58.5515 16.984 58.7009 16.088C58.8609 15.192 59.1062 14.4133 59.4369 13.752C61.5915 13.0267 63.9862 12.7067 66.6209 12.792C66.8022 13.3147 66.8822 14.04 66.8609 14.968ZM77.3915 12.744C77.5302 14.2693 77.5088 17.7893 77.3275 23.304C77.0502 23.3573 76.4795 23.384 75.6155 23.384C74.7622 23.384 74.2555 23.3733 74.0955 23.352C74.0848 23.16 74.0902 22.6373 74.1115 21.784C74.1435 20.9307 74.1168 20.3867 74.0315 20.152C72.4955 20.0347 71.6582 20.1093 71.5195 20.376C71.4235 21.6773 71.3915 22.6747 71.4235 23.368C70.4848 23.5493 69.3648 23.592 68.0635 23.496C67.9782 22.984 67.9248 21.96 67.9035 20.424C67.8928 18.8773 67.8982 17.4747 67.9195 16.216C67.9408 14.9573 67.9675 13.9013 67.9995 13.048C68.4048 12.9307 69.0768 12.8613 70.0155 12.84C70.9542 12.8187 71.4768 12.8613 71.5835 12.968C71.4982 13.4587 71.4555 14.6 71.4555 16.392C71.8395 16.4667 72.3248 16.4773 72.9115 16.424C73.5088 16.36 73.9142 16.2907 74.1275 16.216C74.1808 16.12 74.1915 15.6187 74.1595 14.712C74.1275 13.7947 74.1222 13.2133 74.1435 12.968C74.3675 12.8507 74.9008 12.7707 75.7435 12.728C76.5862 12.6747 77.1355 12.68 77.3915 12.744ZM84.3766 16.568C84.206 16.3973 83.8593 16.296 83.3366 16.264C82.8246 16.232 82.4193 16.2747 82.1206 16.392C82.0566 17.0427 82.03 17.7573 82.0406 18.536C82.0513 19.304 82.0833 19.88 82.1366 20.264C83.0433 20.4667 83.662 20.5147 83.9926 20.408C84.1526 20.1413 84.2593 19.608 84.3126 18.808C84.3766 17.9973 84.398 17.2507 84.3766 16.568ZM88.5206 16.6C88.446 17.5067 88.2433 18.7013 87.9126 20.184C87.5926 21.6667 87.2993 22.5467 87.0326 22.824C85.71 23.0373 84.0033 22.984 81.9126 22.664L81.8646 23.352C80.318 23.3947 79.182 23.3253 78.4566 23.144C78.35 22.2693 78.366 18.1307 78.5046 10.728C79.0806 10.6107 79.7153 10.5413 80.4086 10.52C81.102 10.488 81.6726 10.52 82.1206 10.616C82.0246 12.2907 82.0033 13.4 82.0566 13.944C82.7713 13.8053 83.9606 13.736 85.6246 13.736C86.126 13.928 86.6646 14.3067 87.2406 14.872C87.8273 15.4267 88.254 16.0027 88.5206 16.6ZM95.5113 20.12C95.5113 19.9493 95.5219 19.6293 95.5433 19.16C95.5646 18.68 95.5753 18.296 95.5753 18.008C95.5859 17.7093 95.5859 17.336 95.5753 16.888C95.5646 16.44 95.5326 16.0293 95.4793 15.656C94.4873 15.56 93.6873 15.6133 93.0793 15.816C92.9619 16.04 92.8766 16.7227 92.8233 17.864C92.7699 18.9947 92.7753 19.8213 92.8393 20.344C93.2126 20.408 93.6819 20.4133 94.2473 20.36C94.8126 20.296 95.2339 20.216 95.5113 20.12ZM99.1273 14.872C99.2233 15.3413 99.2766 16.0667 99.2873 17.048C99.2979 18.0293 99.2393 19.048 99.1113 20.104C98.9939 21.16 98.8126 21.9387 98.5673 22.44C96.4339 22.952 94.1619 23.1867 91.7513 23.144C90.7806 22.7493 89.8633 21.928 88.9993 20.68C88.9459 17.7253 89.2713 15.4107 89.9753 13.736C90.8499 13.512 92.0339 13.3467 93.5273 13.24C95.0206 13.1333 96.2046 13.16 97.0793 13.32C98.2526 14.12 98.9353 14.6373 99.1273 14.872ZM106.069 20.408C106.058 19.9067 106 19.2347 105.893 18.392C105.829 18.4133 105.722 18.4453 105.573 18.488C105.434 18.52 105.322 18.5467 105.237 18.568C105.152 18.5893 105.04 18.6213 104.901 18.664C104.762 18.7067 104.645 18.744 104.549 18.776C104.464 18.808 104.368 18.8453 104.261 18.888C104.165 18.92 104.08 18.9573 104.005 19C103.93 19.0427 103.872 19.0853 103.829 19.128L103.813 19.528C103.813 19.7947 103.824 20.0293 103.845 20.232C103.877 20.4347 103.936 20.5627 104.021 20.616C104.469 20.6587 105.152 20.5893 106.069 20.408ZM109.701 22.936C109.061 23.128 107.952 23.2613 106.373 23.336L106.309 22.712C105.125 22.9147 103.813 23.096 102.373 23.256C102.064 23.16 101.664 22.9893 101.173 22.744C100.693 22.4987 100.293 22.248 99.9731 21.992C99.8771 21.5227 99.8665 20.8027 99.9411 19.832C100.016 18.8613 100.117 18.1787 100.245 17.784C100.693 17.5173 101.52 17.2293 102.725 16.92C103.93 16.6107 104.917 16.424 105.685 16.36C105.717 16.104 105.717 15.8907 105.685 15.72C105.557 15.6773 105.349 15.6453 105.061 15.624C104.773 15.6027 104.416 15.592 103.989 15.592C103.562 15.5813 103.2 15.5813 102.901 15.592C102.602 15.592 102.224 15.5973 101.765 15.608C101.306 15.6187 101.056 15.624 101.013 15.624C100.992 15.176 101.018 14.7333 101.093 14.296C101.168 13.848 101.274 13.5547 101.413 13.416C102.565 13.2453 103.845 13.1707 105.253 13.192C106.672 13.2027 107.834 13.32 108.741 13.544C109.146 14.1307 109.445 15.5173 109.637 17.704C109.829 19.88 109.85 21.624 109.701 22.936ZM116.667 17.688C116.71 17.2933 116.635 16.6053 116.443 15.624C116.262 15.56 115.899 15.5653 115.355 15.64C114.822 15.7147 114.459 15.816 114.267 15.944C114.171 17.0213 114.177 17.8 114.283 18.28C115.499 18.248 116.294 18.0507 116.667 17.688ZM120.555 22.712C120.299 22.8507 119.782 22.9893 119.003 23.128C118.235 23.2773 117.579 23.3627 117.035 23.384C116.929 23.2667 116.657 22.9093 116.219 22.312C115.793 21.704 115.451 21.2453 115.195 20.936L114.251 21.192C114.23 21.4587 114.225 21.8053 114.235 22.232C114.246 22.648 114.241 22.9573 114.219 23.16C113.249 23.4053 112.107 23.4693 110.795 23.352C110.699 22.264 110.641 20.4507 110.619 17.912C110.609 15.3733 110.678 13.7093 110.827 12.92C111.158 12.824 111.665 12.744 112.347 12.68C113.03 12.616 113.638 12.6107 114.171 12.664V13.432C114.747 13.2933 115.505 13.1813 116.443 13.096C117.382 13 118.139 12.9627 118.715 12.984C119.195 13.368 119.633 14.072 120.027 15.096C120.422 16.12 120.577 17.0587 120.491 17.912C120.022 18.4453 119.462 19 118.811 19.576C118.993 19.8533 119.302 20.392 119.739 21.192C120.187 21.992 120.459 22.4987 120.555 22.712ZM127.614 15.992C126.792 15.7893 126.067 15.848 125.438 16.168C125.288 16.7867 125.182 17.5707 125.118 18.52C125.064 19.4587 125.086 20.1573 125.182 20.616C125.758 20.808 126.563 20.7547 127.598 20.456C127.683 20.264 127.688 18.776 127.614 15.992ZM131.422 23.208C130.302 23.496 129.134 23.5973 127.918 23.512L127.87 22.824C125.491 23.2293 123.923 23.3893 123.166 23.304C122.728 22.9413 122.088 22.0987 121.246 20.776C121.107 19.9973 121.187 18.7813 121.486 17.128C121.795 15.4747 122.206 14.4027 122.718 13.912C124.542 13.5387 126.243 13.3947 127.822 13.48C127.822 13.2347 127.806 12.76 127.774 12.056C127.752 11.3413 127.747 10.8293 127.758 10.52C129.518 10.3067 130.739 10.3227 131.422 10.568C131.422 11.272 131.438 12.5573 131.47 14.424C131.512 16.2907 131.534 17.9867 131.534 19.512C131.534 21.0267 131.496 22.2587 131.422 23.208Z"/>
</mask>
<path d="M43.0351 14.04C42.7151 13.7307 42.2138 13.56 41.5311 13.528C40.8591 13.4853 40.3205 13.5813 39.9151 13.816C39.8938 14.3173 39.8778 15.464 39.8671 17.256C39.8671 19.0373 39.8938 20.072 39.9471 20.36C40.7471 20.5947 41.5951 20.5413 42.4911 20.2C42.8005 19.2613 43.0085 18.1787 43.1151 16.952C43.2218 15.7147 43.1951 14.744 43.0351 14.04ZM47.4671 13.336C47.4245 17.88 46.9338 21.064 45.9951 22.888C45.0991 23.2187 43.5845 23.4373 41.4511 23.544C39.3178 23.6613 37.4565 23.5547 35.8671 23.224C35.8245 22.6693 35.7925 21.928 35.7711 21C35.7605 20.0613 35.7551 19.304 35.7551 18.728C35.7551 18.1413 35.7658 17.1707 35.7871 15.816C35.8085 14.4507 35.8191 13.6773 35.8191 13.496L34.9071 13.432C34.9178 12.8987 34.9765 12.0027 35.0831 10.744C36.6085 10.5093 38.2991 10.3707 40.1551 10.328C42.0218 10.2853 43.7071 10.3707 45.2111 10.584C45.5951 10.968 45.8778 11.256 46.0591 11.448C46.2405 11.64 46.4698 11.9173 46.7471 12.28C47.0351 12.632 47.2751 12.984 47.4671 13.336ZM54.1348 20.408C54.1241 19.9067 54.0654 19.2347 53.9588 18.392C53.8948 18.4133 53.7881 18.4453 53.6388 18.488C53.5001 18.52 53.3881 18.5467 53.3028 18.568C53.2174 18.5893 53.1054 18.6213 52.9668 18.664C52.8281 18.7067 52.7108 18.744 52.6148 18.776C52.5294 18.808 52.4334 18.8453 52.3268 18.888C52.2308 18.92 52.1454 18.9573 52.0708 19C51.9961 19.0427 51.9374 19.0853 51.8948 19.128L51.8788 19.528C51.8788 19.7947 51.8894 20.0293 51.9108 20.232C51.9428 20.4347 52.0014 20.5627 52.0868 20.616C52.5348 20.6587 53.2174 20.5893 54.1348 20.408ZM57.7668 22.936C57.1268 23.128 56.0174 23.2613 54.4388 23.336L54.3748 22.712C53.1908 22.9147 51.8788 23.096 50.4388 23.256C50.1294 23.16 49.7294 22.9893 49.2388 22.744C48.7588 22.4987 48.3588 22.248 48.0388 21.992C47.9428 21.5227 47.9321 20.8027 48.0068 19.832C48.0814 18.8613 48.1828 18.1787 48.3108 17.784C48.7588 17.5173 49.5854 17.2293 50.7908 16.92C51.9961 16.6107 52.9828 16.424 53.7508 16.36C53.7828 16.104 53.7828 15.8907 53.7508 15.72C53.6228 15.6773 53.4148 15.6453 53.1268 15.624C52.8388 15.6027 52.4814 15.592 52.0548 15.592C51.6281 15.5813 51.2654 15.5813 50.9668 15.592C50.6681 15.592 50.2894 15.5973 49.8308 15.608C49.3721 15.6187 49.1214 15.624 49.0788 15.624C49.0574 15.176 49.0841 14.7333 49.1588 14.296C49.2334 13.848 49.3401 13.5547 49.4788 13.416C50.6308 13.2453 51.9108 13.1707 53.3188 13.192C54.7374 13.2027 55.9001 13.32 56.8068 13.544C57.2121 14.1307 57.5108 15.5173 57.7028 17.704C57.8948 19.88 57.9161 21.624 57.7668 22.936ZM66.8609 14.968C66.4769 15.0213 65.8422 15.0907 64.9569 15.176C64.0715 15.2613 63.3942 15.3467 62.9249 15.432C62.7329 15.72 62.6262 16.184 62.6049 16.824C63.0635 16.8987 63.7622 17.064 64.7009 17.32C65.6395 17.5653 66.3489 17.7253 66.8289 17.8C67.0955 18.3867 67.1915 19.112 67.1169 19.976C67.0422 20.84 66.8395 21.544 66.5089 22.088C64.8875 22.8347 62.4982 23.3787 59.3409 23.72C59.2129 23.6347 59.1009 23.2933 59.0049 22.696C58.9195 22.0987 58.8875 21.672 58.9089 21.416C59.5915 21.384 60.3329 21.304 61.1329 21.176C61.9435 21.0373 62.5089 20.8933 62.8289 20.744C62.9142 20.4453 62.9409 20.1413 62.9089 19.832C62.7382 19.7147 62.0395 19.5333 60.8129 19.288C59.5969 19.0427 58.8342 18.8293 58.5249 18.648C58.4929 17.8373 58.5515 16.984 58.7009 16.088C58.8609 15.192 59.1062 14.4133 59.4369 13.752C61.5915 13.0267 63.9862 12.7067 66.6209 12.792C66.8022 13.3147 66.8822 14.04 66.8609 14.968ZM77.3915 12.744C77.5302 14.2693 77.5088 17.7893 77.3275 23.304C77.0502 23.3573 76.4795 23.384 75.6155 23.384C74.7622 23.384 74.2555 23.3733 74.0955 23.352C74.0848 23.16 74.0902 22.6373 74.1115 21.784C74.1435 20.9307 74.1168 20.3867 74.0315 20.152C72.4955 20.0347 71.6582 20.1093 71.5195 20.376C71.4235 21.6773 71.3915 22.6747 71.4235 23.368C70.4848 23.5493 69.3648 23.592 68.0635 23.496C67.9782 22.984 67.9248 21.96 67.9035 20.424C67.8928 18.8773 67.8982 17.4747 67.9195 16.216C67.9408 14.9573 67.9675 13.9013 67.9995 13.048C68.4048 12.9307 69.0768 12.8613 70.0155 12.84C70.9542 12.8187 71.4768 12.8613 71.5835 12.968C71.4982 13.4587 71.4555 14.6 71.4555 16.392C71.8395 16.4667 72.3248 16.4773 72.9115 16.424C73.5088 16.36 73.9142 16.2907 74.1275 16.216C74.1808 16.12 74.1915 15.6187 74.1595 14.712C74.1275 13.7947 74.1222 13.2133 74.1435 12.968C74.3675 12.8507 74.9008 12.7707 75.7435 12.728C76.5862 12.6747 77.1355 12.68 77.3915 12.744ZM84.3766 16.568C84.206 16.3973 83.8593 16.296 83.3366 16.264C82.8246 16.232 82.4193 16.2747 82.1206 16.392C82.0566 17.0427 82.03 17.7573 82.0406 18.536C82.0513 19.304 82.0833 19.88 82.1366 20.264C83.0433 20.4667 83.662 20.5147 83.9926 20.408C84.1526 20.1413 84.2593 19.608 84.3126 18.808C84.3766 17.9973 84.398 17.2507 84.3766 16.568ZM88.5206 16.6C88.446 17.5067 88.2433 18.7013 87.9126 20.184C87.5926 21.6667 87.2993 22.5467 87.0326 22.824C85.71 23.0373 84.0033 22.984 81.9126 22.664L81.8646 23.352C80.318 23.3947 79.182 23.3253 78.4566 23.144C78.35 22.2693 78.366 18.1307 78.5046 10.728C79.0806 10.6107 79.7153 10.5413 80.4086 10.52C81.102 10.488 81.6726 10.52 82.1206 10.616C82.0246 12.2907 82.0033 13.4 82.0566 13.944C82.7713 13.8053 83.9606 13.736 85.6246 13.736C86.126 13.928 86.6646 14.3067 87.2406 14.872C87.8273 15.4267 88.254 16.0027 88.5206 16.6ZM95.5113 20.12C95.5113 19.9493 95.5219 19.6293 95.5433 19.16C95.5646 18.68 95.5753 18.296 95.5753 18.008C95.5859 17.7093 95.5859 17.336 95.5753 16.888C95.5646 16.44 95.5326 16.0293 95.4793 15.656C94.4873 15.56 93.6873 15.6133 93.0793 15.816C92.9619 16.04 92.8766 16.7227 92.8233 17.864C92.7699 18.9947 92.7753 19.8213 92.8393 20.344C93.2126 20.408 93.6819 20.4133 94.2473 20.36C94.8126 20.296 95.2339 20.216 95.5113 20.12ZM99.1273 14.872C99.2233 15.3413 99.2766 16.0667 99.2873 17.048C99.2979 18.0293 99.2393 19.048 99.1113 20.104C98.9939 21.16 98.8126 21.9387 98.5673 22.44C96.4339 22.952 94.1619 23.1867 91.7513 23.144C90.7806 22.7493 89.8633 21.928 88.9993 20.68C88.9459 17.7253 89.2713 15.4107 89.9753 13.736C90.8499 13.512 92.0339 13.3467 93.5273 13.24C95.0206 13.1333 96.2046 13.16 97.0793 13.32C98.2526 14.12 98.9353 14.6373 99.1273 14.872ZM106.069 20.408C106.058 19.9067 106 19.2347 105.893 18.392C105.829 18.4133 105.722 18.4453 105.573 18.488C105.434 18.52 105.322 18.5467 105.237 18.568C105.152 18.5893 105.04 18.6213 104.901 18.664C104.762 18.7067 104.645 18.744 104.549 18.776C104.464 18.808 104.368 18.8453 104.261 18.888C104.165 18.92 104.08 18.9573 104.005 19C103.93 19.0427 103.872 19.0853 103.829 19.128L103.813 19.528C103.813 19.7947 103.824 20.0293 103.845 20.232C103.877 20.4347 103.936 20.5627 104.021 20.616C104.469 20.6587 105.152 20.5893 106.069 20.408ZM109.701 22.936C109.061 23.128 107.952 23.2613 106.373 23.336L106.309 22.712C105.125 22.9147 103.813 23.096 102.373 23.256C102.064 23.16 101.664 22.9893 101.173 22.744C100.693 22.4987 100.293 22.248 99.9731 21.992C99.8771 21.5227 99.8665 20.8027 99.9411 19.832C100.016 18.8613 100.117 18.1787 100.245 17.784C100.693 17.5173 101.52 17.2293 102.725 16.92C103.93 16.6107 104.917 16.424 105.685 16.36C105.717 16.104 105.717 15.8907 105.685 15.72C105.557 15.6773 105.349 15.6453 105.061 15.624C104.773 15.6027 104.416 15.592 103.989 15.592C103.562 15.5813 103.2 15.5813 102.901 15.592C102.602 15.592 102.224 15.5973 101.765 15.608C101.306 15.6187 101.056 15.624 101.013 15.624C100.992 15.176 101.018 14.7333 101.093 14.296C101.168 13.848 101.274 13.5547 101.413 13.416C102.565 13.2453 103.845 13.1707 105.253 13.192C106.672 13.2027 107.834 13.32 108.741 13.544C109.146 14.1307 109.445 15.5173 109.637 17.704C109.829 19.88 109.85 21.624 109.701 22.936ZM116.667 17.688C116.71 17.2933 116.635 16.6053 116.443 15.624C116.262 15.56 115.899 15.5653 115.355 15.64C114.822 15.7147 114.459 15.816 114.267 15.944C114.171 17.0213 114.177 17.8 114.283 18.28C115.499 18.248 116.294 18.0507 116.667 17.688ZM120.555 22.712C120.299 22.8507 119.782 22.9893 119.003 23.128C118.235 23.2773 117.579 23.3627 117.035 23.384C116.929 23.2667 116.657 22.9093 116.219 22.312C115.793 21.704 115.451 21.2453 115.195 20.936L114.251 21.192C114.23 21.4587 114.225 21.8053 114.235 22.232C114.246 22.648 114.241 22.9573 114.219 23.16C113.249 23.4053 112.107 23.4693 110.795 23.352C110.699 22.264 110.641 20.4507 110.619 17.912C110.609 15.3733 110.678 13.7093 110.827 12.92C111.158 12.824 111.665 12.744 112.347 12.68C113.03 12.616 113.638 12.6107 114.171 12.664V13.432C114.747 13.2933 115.505 13.1813 116.443 13.096C117.382 13 118.139 12.9627 118.715 12.984C119.195 13.368 119.633 14.072 120.027 15.096C120.422 16.12 120.577 17.0587 120.491 17.912C120.022 18.4453 119.462 19 118.811 19.576C118.993 19.8533 119.302 20.392 119.739 21.192C120.187 21.992 120.459 22.4987 120.555 22.712ZM127.614 15.992C126.792 15.7893 126.067 15.848 125.438 16.168C125.288 16.7867 125.182 17.5707 125.118 18.52C125.064 19.4587 125.086 20.1573 125.182 20.616C125.758 20.808 126.563 20.7547 127.598 20.456C127.683 20.264 127.688 18.776 127.614 15.992ZM131.422 23.208C130.302 23.496 129.134 23.5973 127.918 23.512L127.87 22.824C125.491 23.2293 123.923 23.3893 123.166 23.304C122.728 22.9413 122.088 22.0987 121.246 20.776C121.107 19.9973 121.187 18.7813 121.486 17.128C121.795 15.4747 122.206 14.4027 122.718 13.912C124.542 13.5387 126.243 13.3947 127.822 13.48C127.822 13.2347 127.806 12.76 127.774 12.056C127.752 11.3413 127.747 10.8293 127.758 10.52C129.518 10.3067 130.739 10.3227 131.422 10.568C131.422 11.272 131.438 12.5573 131.47 14.424C131.512 16.2907 131.534 17.9867 131.534 19.512C131.534 21.0267 131.496 22.2587 131.422 23.208Z" fill="#FEFDFB"/>
<path d="M43.0351 14.04L43.6573 13.8986L43.6152 13.7133L43.4786 13.5812L43.0351 14.04ZM41.5311 13.528L41.4907 14.1649L41.5013 14.1654L41.5311 13.528ZM39.9151 13.816L39.5954 13.2638L39.2925 13.4392L39.2776 13.7889L39.9151 13.816ZM39.8671 17.256L39.2291 17.2522V17.256H39.8671ZM39.9471 20.36L39.3197 20.4762L39.3911 20.8619L39.7675 20.9723L39.9471 20.36ZM42.4911 20.2L42.7183 20.7963L43.0021 20.6882L43.0971 20.3997L42.4911 20.2ZM43.1151 16.952L43.7508 17.0073L43.7508 17.0068L43.1151 16.952ZM47.4671 13.336L48.1052 13.342L48.1067 13.1761L48.0273 13.0305L47.4671 13.336ZM45.9951 22.888L46.216 23.4866L46.4489 23.4007L46.5625 23.18L45.9951 22.888ZM41.4511 23.544L41.4193 22.9067L41.4161 22.9069L41.4511 23.544ZM35.8671 23.224L35.2309 23.2729L35.2677 23.751L35.7372 23.8487L35.8671 23.224ZM35.7711 21L35.1331 21.0073L35.1332 21.0147L35.7711 21ZM35.7871 15.816L36.4251 15.826L36.4251 15.826L35.7871 15.816ZM35.8191 13.496H36.4572V12.9011L35.8638 12.8595L35.8191 13.496ZM34.9071 13.432L34.2692 13.4192L34.257 14.026L34.8625 14.0685L34.9071 13.432ZM35.0831 10.744L34.9861 10.1133L34.4897 10.1897L34.4473 10.6901L35.0831 10.744ZM40.1551 10.328L40.1405 9.6901L40.1405 9.6901L40.1551 10.328ZM45.2111 10.584L45.6623 10.1328L45.5117 9.98217L45.3007 9.95225L45.2111 10.584ZM46.0591 11.448L45.5952 11.8861V11.8861L46.0591 11.448ZM46.7471 12.28L46.2403 12.6676L46.2466 12.6759L46.2533 12.684L46.7471 12.28ZM43.4786 13.5812C43.0006 13.1191 42.3189 12.9262 41.561 12.8906L41.5013 14.1654C42.1087 14.1938 42.4297 14.3422 42.5917 14.4988L43.4786 13.5812ZM41.5716 12.8912C40.8263 12.8439 40.1478 12.944 39.5954 13.2638L40.2348 14.3682C40.4931 14.2187 40.892 14.1268 41.4907 14.1648L41.5716 12.8912ZM39.2776 13.7889C39.2557 14.3043 39.2397 15.4636 39.2291 17.2522L40.5052 17.2598C40.5159 15.4644 40.5319 14.3304 40.5526 13.8431L39.2776 13.7889ZM39.2291 17.256C39.2291 18.1489 39.2357 18.8591 39.2493 19.3844C39.2622 19.8872 39.282 20.2726 39.3197 20.4762L40.5745 20.2438C40.5589 20.1594 40.5387 19.8835 40.525 19.3516C40.5119 18.8422 40.5052 18.1445 40.5052 17.256H39.2291ZM39.7675 20.9723C40.7207 21.2519 41.7125 21.1794 42.7183 20.7963L42.264 19.6037C41.4778 19.9032 40.7735 19.9375 40.1267 19.7477L39.7675 20.9723ZM43.0971 20.3997C43.4251 19.4044 43.6409 18.2716 43.7508 17.0073L42.4795 16.8967C42.3761 18.0857 42.1758 19.1183 41.8851 20.0003L43.0971 20.3997ZM43.7508 17.0068C43.8597 15.7438 43.8388 14.697 43.6573 13.8986L42.4129 14.1814C42.5515 14.791 42.5839 15.6855 42.4794 16.8972L43.7508 17.0068ZM46.8291 13.33C46.7865 17.8673 46.2919 20.9169 45.4278 22.596L46.5625 23.18C47.5757 21.2111 48.0624 17.8927 48.1052 13.342L46.8291 13.33ZM45.7742 22.2894C44.977 22.5836 43.5477 22.8003 41.4193 22.9067L41.483 24.1813C43.6212 24.0744 45.2212 23.8537 46.216 23.4866L45.7742 22.2894ZM41.4161 22.9069C39.3217 23.0221 37.5182 22.9158 35.9971 22.5993L35.7372 23.8487C37.3947 24.1935 39.3139 24.3006 41.4862 24.1811L41.4161 22.9069ZM36.5033 23.1751C36.4619 22.6368 36.4302 21.9083 36.409 20.9853L35.1332 21.0147C35.1547 21.9476 35.187 22.7019 35.2309 23.2729L36.5033 23.1751ZM36.4092 20.9927C36.3985 20.0552 36.3932 19.3006 36.3932 18.728H35.1171C35.1171 19.3074 35.1224 20.0675 35.1331 21.0073L36.4092 20.9927ZM36.3932 18.728C36.3932 18.1468 36.4038 17.1805 36.4251 15.826L35.1491 15.806C35.1278 17.1608 35.1171 18.1359 35.1171 18.728H36.3932ZM36.4251 15.826C36.4464 14.4643 36.4572 13.6838 36.4572 13.496H35.1811C35.1811 13.6709 35.1705 14.437 35.1491 15.806L36.4251 15.826ZM35.8638 12.8595L34.9518 12.7955L34.8625 14.0685L35.7745 14.1325L35.8638 12.8595ZM35.5451 13.4448C35.5553 12.934 35.6123 12.0562 35.7189 10.7979L34.4473 10.6901C34.3406 11.9491 34.2803 12.8633 34.2692 13.4192L35.5451 13.4448ZM35.1801 11.3746C36.6734 11.1449 38.336 11.0081 40.1698 10.9659L40.1405 9.6901C38.2622 9.73328 36.5435 9.87375 34.9861 10.1133L35.1801 11.3746ZM40.1697 10.9659C42.0091 10.9239 43.6588 11.0083 45.1215 11.2157L45.3007 9.95225C43.7555 9.73307 42.0345 9.64681 40.1405 9.6901L40.1697 10.9659ZM44.7599 11.0352C45.1431 11.4184 45.4205 11.7011 45.5952 11.8861L46.523 11.0099C46.3351 10.8109 46.0471 10.5176 45.6623 10.1328L44.7599 11.0352ZM45.5952 11.8861C45.7543 12.0546 45.9682 12.3118 46.2403 12.6676L47.254 11.8924C46.9714 11.5228 46.7266 11.2254 46.523 11.0099L45.5952 11.8861ZM46.2533 12.684C46.5195 13.0094 46.7363 13.3286 46.907 13.6415L48.0273 13.0305C47.814 12.6394 47.5508 12.2546 47.241 11.8759L46.2533 12.684ZM54.1348 20.408L54.2585 21.034L54.7841 20.9301L54.7727 20.3944L54.1348 20.408ZM53.9588 18.392L54.5918 18.3119L54.4942 17.5409L53.757 17.7867L53.9588 18.392ZM53.6388 18.488L53.7822 19.1097L53.7982 19.106L53.814 19.1015L53.6388 18.488ZM52.9668 18.664L52.7791 18.0541L52.7791 18.0541L52.9668 18.664ZM52.6148 18.776L52.413 18.1707L52.4018 18.1744L52.3907 18.1786L52.6148 18.776ZM52.3268 18.888L52.5285 19.4933L52.5463 19.4874L52.5637 19.4804L52.3268 18.888ZM52.0708 19L52.3873 19.554V19.554L52.0708 19ZM51.8948 19.128L51.4436 18.6768L51.2672 18.8532L51.2572 19.1025L51.8948 19.128ZM51.8788 19.528L51.2412 19.5025L51.2407 19.5152V19.528H51.8788ZM51.9108 20.232L51.2762 20.2988L51.2779 20.3152L51.2805 20.3315L51.9108 20.232ZM52.0868 20.616L51.7486 21.1571L51.8763 21.2369L52.0263 21.2512L52.0868 20.616ZM57.7668 22.936L57.9501 23.5472L58.3531 23.4262L58.4007 23.0082L57.7668 22.936ZM54.4388 23.336L53.804 23.4011L53.8656 24.0019L54.4689 23.9734L54.4388 23.336ZM54.3748 22.712L55.0095 22.6469L54.9399 21.9679L54.2671 22.0831L54.3748 22.712ZM50.4388 23.256L50.2496 23.8654L50.3768 23.9049L50.5092 23.8902L50.4388 23.256ZM49.2388 22.744L48.9483 23.3122L48.9534 23.3147L49.2388 22.744ZM48.0388 21.992L47.4136 22.1199L47.4599 22.346L47.6402 22.4902L48.0388 21.992ZM48.0068 19.832L48.6429 19.8809L48.0068 19.832ZM48.3108 17.784L47.9844 17.2357L47.7779 17.3586L47.7038 17.5872L48.3108 17.784ZM50.7908 16.92L50.6321 16.302L50.7908 16.92ZM53.7508 16.36L53.8037 16.9959L54.3197 16.9529L54.3839 16.4391L53.7508 16.36ZM53.7508 15.72L54.3779 15.6024L54.3087 15.2334L53.9525 15.1147L53.7508 15.72ZM53.1268 15.624L53.0796 16.2603L53.1268 15.624ZM52.0548 15.592L52.0388 16.2299L52.0468 16.2301H52.0548V15.592ZM50.9668 15.592V16.2301H50.9781L50.9895 16.2297L50.9668 15.592ZM49.8308 15.608L49.8456 16.2459H49.8456L49.8308 15.608ZM49.0788 15.624L48.4414 15.6543L48.4703 16.2621H49.0788V15.624ZM49.1588 14.296L49.7877 14.4034L49.7881 14.4009L49.1588 14.296ZM49.4788 13.416L49.3852 12.7848L49.1767 12.8157L49.0276 12.9648L49.4788 13.416ZM53.3188 13.192L53.3091 13.83L53.314 13.8301L53.3188 13.192ZM56.8068 13.544L57.3317 13.1813L57.1944 12.9825L56.9598 12.9246L56.8068 13.544ZM57.7028 17.704L57.0671 17.7598L57.0672 17.7601L57.7028 17.704ZM54.7727 20.3944C54.7613 19.8608 54.6996 19.1638 54.5918 18.3119L53.3257 18.4721C53.4312 19.3056 53.4868 19.9525 53.4968 20.4216L54.7727 20.3944ZM53.757 17.7867C53.7073 17.8032 53.6123 17.832 53.4635 17.8745L53.814 19.1015C53.9639 19.0587 54.0822 19.0234 54.1605 18.9973L53.757 17.7867ZM53.4953 17.8663C53.3548 17.8987 53.2386 17.9263 53.148 17.949L53.4575 19.187C53.5375 19.167 53.6453 19.1413 53.7822 19.1097L53.4953 17.8663ZM53.148 17.949C53.0469 17.9743 52.9227 18.01 52.7791 18.0541L53.1544 19.2739C53.2882 19.2327 53.388 19.2044 53.4575 19.187L53.148 17.949ZM52.7791 18.0541C52.6375 18.0977 52.5152 18.1366 52.413 18.1707L52.8165 19.3813C52.9063 19.3514 53.0186 19.3156 53.1544 19.2739L52.7791 18.0541ZM52.3907 18.1786C52.3001 18.2125 52.1997 18.2516 52.0898 18.2956L52.5637 19.4804C52.6671 19.4391 52.7587 19.4035 52.8388 19.3734L52.3907 18.1786ZM52.125 18.2827C51.9959 18.3257 51.8711 18.3792 51.7542 18.446L52.3873 19.554C52.4198 19.5355 52.4656 19.5143 52.5285 19.4933L52.125 18.2827ZM51.7542 18.446C51.6493 18.5059 51.5393 18.581 51.4436 18.6768L52.3459 19.5792C52.3396 19.5856 52.3385 19.5855 52.346 19.58C52.3534 19.5747 52.3667 19.5658 52.3873 19.554L51.7542 18.446ZM51.2572 19.1025L51.2412 19.5025L52.5163 19.5535L52.5323 19.1535L51.2572 19.1025ZM51.2407 19.528C51.2407 19.8106 51.2519 20.0684 51.2762 20.2988L52.5453 20.1652C52.5269 19.9903 52.5168 19.7787 52.5168 19.528H51.2407ZM51.2805 20.3315C51.3018 20.4666 51.3368 20.6109 51.3987 20.7459C51.4601 20.8797 51.5657 21.0428 51.7486 21.1571L52.4249 20.0749C52.5225 20.1359 52.5561 20.2083 52.5588 20.2141C52.5612 20.2194 52.5592 20.2162 52.5551 20.2013C52.5511 20.1866 52.546 20.1642 52.541 20.1325L51.2805 20.3315ZM52.0263 21.2512C52.5719 21.3032 53.3311 21.2173 54.2585 21.034L54.011 19.782C53.1037 19.9614 52.4976 20.0142 52.1472 19.9808L52.0263 21.2512ZM57.5834 22.3248C57.0258 22.4921 55.9865 22.624 54.4086 22.6986L54.4689 23.9734C56.0483 23.8987 57.2277 23.7639 57.9501 23.5472L57.5834 22.3248ZM55.0735 23.2709L55.0095 22.6469L53.74 22.7771L53.804 23.4011L55.0735 23.2709ZM54.2671 22.0831C53.0976 22.2833 51.7983 22.4629 50.3683 22.6218L50.5092 23.8902C51.9592 23.7291 53.2839 23.5461 54.4824 23.3409L54.2671 22.0831ZM50.6279 22.6466C50.3665 22.5655 50.0019 22.4122 49.5241 22.1733L48.9534 23.3147C49.4569 23.5665 49.8923 23.7545 50.2496 23.8654L50.6279 22.6466ZM49.5291 22.1758C49.0762 21.9444 48.7151 21.716 48.4374 21.4938L47.6402 22.4902C48.0024 22.78 48.4413 23.053 48.9484 23.3122L49.5291 22.1758ZM48.6639 21.8641C48.5866 21.4862 48.5692 20.8402 48.6429 19.8809L47.3706 19.7831C47.295 20.7651 47.2989 21.5591 47.4136 22.1199L48.6639 21.8641ZM48.6429 19.8809C48.7175 18.9115 48.8154 18.2964 48.9177 17.9808L47.7038 17.5872C47.5501 18.0609 47.4453 18.8112 47.3706 19.7831L48.6429 19.8809ZM48.6371 18.3323C48.9983 18.1173 49.744 17.8474 50.9494 17.538L50.6321 16.302C49.4268 16.6113 48.5192 16.9174 47.9844 17.2357L48.6371 18.3323ZM50.9494 17.538C52.1383 17.2329 53.0863 17.0557 53.8037 16.9959L53.6978 15.7241C52.8793 15.7923 51.8538 15.9884 50.6321 16.302L50.9494 17.538ZM54.3839 16.4391C54.4205 16.1462 54.4264 15.8612 54.3779 15.6024L53.1236 15.8376C53.1391 15.9201 53.145 16.0618 53.1176 16.2809L54.3839 16.4391ZM53.9525 15.1147C53.7444 15.0453 53.4689 15.0095 53.1739 14.9877L53.0796 16.2603C53.3606 16.2811 53.5011 16.3094 53.549 16.3253L53.9525 15.1147ZM53.1739 14.9877C52.8647 14.9648 52.4905 14.9539 52.0548 14.9539V16.2301C52.4723 16.2301 52.8128 16.2406 53.0796 16.2603L53.1739 14.9877ZM52.0707 14.9541C51.6361 14.9433 51.2597 14.9431 50.944 14.9543L50.9895 16.2297C51.2711 16.2196 51.6201 16.2194 52.0388 16.2299L52.0707 14.9541ZM50.9668 14.9539C50.6613 14.9539 50.2772 14.9594 49.8159 14.9701L49.8456 16.2459C50.3016 16.2353 50.6749 16.2301 50.9668 16.2301V14.9539ZM49.8159 14.9701C49.5867 14.9754 49.4099 14.9794 49.2852 14.9821C49.2228 14.9834 49.1739 14.9844 49.1382 14.985C49.1203 14.9854 49.1061 14.9856 49.0955 14.9857C49.0902 14.9858 49.0861 14.9859 49.083 14.9859C49.0797 14.9859 49.0785 14.9859 49.0788 14.9859V16.2621C49.1312 16.2621 49.3936 16.2564 49.8456 16.2459L49.8159 14.9701ZM49.7161 15.5936C49.6969 15.1912 49.7209 14.7947 49.7877 14.4034L48.5298 14.1886C48.4473 14.6719 48.4179 15.1608 48.4414 15.6543L49.7161 15.5936ZM49.7881 14.4009C49.8217 14.1997 49.8589 14.0556 49.8944 13.9581C49.9327 13.8529 49.9541 13.843 49.9299 13.8672L49.0276 12.9648C48.8647 13.1277 48.7635 13.3338 48.6951 13.5219C48.6239 13.7178 48.5705 13.9443 48.5294 14.1911L49.7881 14.4009ZM49.5723 14.0472C50.6839 13.8825 51.9287 13.8091 53.3091 13.83L53.3284 12.554C51.8928 12.5323 50.5776 12.6082 49.3852 12.7848L49.5723 14.0472ZM53.314 13.8301C54.7056 13.8405 55.8137 13.9559 56.6537 14.1634L56.9598 12.9246C55.9865 12.6841 54.7692 12.5648 53.3235 12.5539L53.314 13.8301ZM56.2818 13.9067C56.4098 14.092 56.5653 14.482 56.711 15.1583C56.8526 15.8158 56.9723 16.6803 57.0671 17.7598L58.3384 17.6482C58.2412 16.5411 58.1156 15.6189 57.9585 14.8897C57.8055 14.1793 57.609 13.5826 57.3317 13.1813L56.2818 13.9067ZM57.0672 17.7601C57.2575 19.9172 57.2752 21.613 57.1328 22.8638L58.4007 23.0082C58.557 21.635 58.532 19.8428 58.3384 17.6479L57.0672 17.7601ZM66.8609 14.968L66.9487 15.6L67.4863 15.5253L67.4988 14.9827L66.8609 14.968ZM64.9569 15.176L65.0181 15.8111L64.9569 15.176ZM62.9249 15.432L62.8107 14.8042L62.5442 14.8527L62.394 15.0781L62.9249 15.432ZM62.6049 16.824L61.9672 16.8027L61.9485 17.3636L62.5024 17.4538L62.6049 16.824ZM64.7009 17.32L64.533 17.9356L64.5395 17.9373L64.7009 17.32ZM66.8289 17.8L67.4098 17.536L67.2672 17.2224L66.927 17.1695L66.8289 17.8ZM67.1169 19.976L67.7526 20.0309V20.0309L67.1169 19.976ZM66.5089 22.088L66.7758 22.6676L66.9529 22.586L67.0541 22.4194L66.5089 22.088ZM59.3409 23.72L58.9869 24.2509L59.1794 24.3792L59.4095 24.3544L59.3409 23.72ZM59.0049 22.696L58.3731 22.7863L58.3749 22.7972L59.0049 22.696ZM58.9089 21.416L58.879 20.7786L58.3195 20.8049L58.273 21.363L58.9089 21.416ZM61.1329 21.176L61.2337 21.8061L61.2405 21.8049L61.1329 21.176ZM62.8289 20.744L63.0987 21.3222L63.3624 21.1991L63.4424 20.9193L62.8289 20.744ZM62.9089 19.832L63.5436 19.7663L63.5132 19.4732L63.2704 19.3062L62.9089 19.832ZM60.8129 19.288L60.6867 19.9135L60.6877 19.9137L60.8129 19.288ZM58.5249 18.648L57.8873 18.6732L57.9011 19.0219L58.2022 19.1985L58.5249 18.648ZM58.7009 16.088L58.0727 15.9758L58.0715 15.9831L58.7009 16.088ZM59.4369 13.752L59.2333 13.1473L58.9839 13.2312L58.8662 13.4666L59.4369 13.752ZM66.6209 12.792L67.2237 12.5829L67.0799 12.1685L66.6415 12.1543L66.6209 12.792ZM66.7731 14.336C66.4035 14.3873 65.7805 14.4556 64.8957 14.5409L65.0181 15.8111C65.904 15.7257 66.5502 15.6553 66.9487 15.6L66.7731 14.336ZM64.8957 14.5409C64.0049 14.6267 63.3066 14.7141 62.8107 14.8042L63.039 16.0598C63.4818 15.9793 64.1382 15.8959 65.0181 15.8111L64.8957 14.5409ZM62.394 15.0781C62.1008 15.5179 61.9896 16.13 61.9672 16.8027L63.2426 16.8453C63.2628 16.238 63.365 15.9221 63.4558 15.7859L62.394 15.0781ZM62.5024 17.4538C62.9262 17.5228 63.5979 17.6806 64.533 17.9356L64.8688 16.7044C63.9265 16.4474 63.2009 16.2746 62.7074 16.1942L62.5024 17.4538ZM64.5395 17.9373C65.4828 18.1839 66.2177 18.3507 66.7308 18.4305L66.927 17.1695C66.4801 17.1 65.7963 16.9468 64.8622 16.7027L64.5395 17.9373ZM66.248 18.064C66.4563 18.5222 66.5495 19.13 66.4812 19.9211L67.7526 20.0309C67.8335 19.094 67.7348 18.2511 67.4098 17.536L66.248 18.064ZM66.4812 19.9211C66.4121 20.7208 66.2282 21.3213 65.9636 21.7566L67.0541 22.4194C67.4509 21.7667 67.6724 20.9592 67.7526 20.0309L66.4812 19.9211ZM66.242 21.5084C64.7142 22.212 62.4057 22.7469 59.2723 23.0856L59.4095 24.3544C62.5907 24.0105 65.0609 23.4573 66.7758 22.6676L66.242 21.5084ZM59.6948 23.1891C59.7817 23.247 59.8108 23.3073 59.804 23.2952C59.8014 23.2906 59.7876 23.2634 59.7671 23.2011C59.7263 23.0765 59.6806 22.8794 59.6349 22.5948L58.3749 22.7972C58.4251 23.1099 58.4835 23.3821 58.5546 23.5989C58.5902 23.7073 58.6343 23.8187 58.6917 23.9208C58.7449 24.0154 58.8361 24.1503 58.9869 24.2509L59.6948 23.1891ZM59.6365 22.6058C59.5514 22.0096 59.53 21.6463 59.5447 21.469L58.273 21.363C58.2451 21.6977 58.2877 22.1878 58.3732 22.7862L59.6365 22.6058ZM58.9388 22.0534C59.6491 22.0201 60.4144 21.9371 61.2337 21.8061L61.0321 20.5459C60.2514 20.6709 59.534 20.7479 58.879 20.7786L58.9388 22.0534ZM61.2405 21.8049C62.0528 21.666 62.6938 21.5112 63.0987 21.3222L62.559 20.1658C62.324 20.2755 61.8342 20.4087 61.0253 20.5471L61.2405 21.8049ZM63.4424 20.9193C63.5501 20.5423 63.5839 20.1565 63.5436 19.7663L62.2742 19.8977C62.2978 20.1262 62.2783 20.3484 62.2154 20.5687L63.4424 20.9193ZM63.2704 19.3062C63.1504 19.2238 63.0027 19.1675 62.8892 19.1286C62.7589 19.0838 62.5999 19.0378 62.4172 18.9904C62.0508 18.8953 61.556 18.7859 60.938 18.6623L60.6877 19.9137C61.2965 20.0354 61.7643 20.1394 62.0966 20.2256C62.2632 20.2689 62.3875 20.3055 62.4746 20.3354C62.5784 20.3711 62.582 20.3816 62.5474 20.3578L63.2704 19.3062ZM60.9391 18.6625C60.3389 18.5414 59.8611 18.4303 59.5008 18.3295C59.1244 18.2242 58.9257 18.1433 58.8476 18.0975L58.2022 19.1985C58.4334 19.334 58.7707 19.4504 59.157 19.5585C59.5593 19.671 60.0709 19.7892 60.6867 19.9135L60.9391 18.6625ZM59.1624 18.6228C59.1324 17.8605 59.1873 17.051 59.3303 16.1929L58.0715 15.9831C57.9158 16.917 57.8534 17.8142 57.8873 18.6732L59.1624 18.6228ZM59.329 16.2002C59.4806 15.351 59.7097 14.6331 60.0076 14.0374L58.8662 13.4666C58.5027 14.1936 58.2411 15.033 58.0727 15.9758L59.329 16.2002ZM59.6404 14.3567C61.7124 13.6592 64.0297 13.3465 66.6002 13.4297L66.6415 12.1543C63.9427 12.0669 61.4707 12.3941 59.2333 13.1473L59.6404 14.3567ZM66.0181 13.0011C66.1632 13.4194 66.2436 14.057 66.223 14.9533L67.4988 14.9827C67.5208 14.023 67.4413 13.21 67.2237 12.5829L66.0181 13.0011ZM77.3915 12.744L78.027 12.6862L77.9859 12.2349L77.5463 12.125L77.3915 12.744ZM77.3275 23.304L77.448 23.9306L77.9485 23.8343L77.9652 23.325L77.3275 23.304ZM74.0955 23.352L73.4584 23.3874L73.4877 23.9147L74.0112 23.9845L74.0955 23.352ZM74.1115 21.784L73.4738 21.7601L73.4736 21.7681L74.1115 21.784ZM74.0315 20.152L74.6312 19.9339L74.4905 19.5471L74.0801 19.5158L74.0315 20.152ZM71.5195 20.376L70.9534 20.0816L70.8928 20.1981L70.8832 20.3291L71.5195 20.376ZM71.4235 23.368L71.5445 23.9945L72.0863 23.8898L72.0609 23.3386L71.4235 23.368ZM68.0635 23.496L67.4341 23.6009L67.5165 24.0955L68.0166 24.1323L68.0635 23.496ZM67.9035 20.424L67.2654 20.4284L67.2655 20.4329L67.9035 20.424ZM67.9195 16.216L68.5575 16.2268L67.9195 16.216ZM67.9995 13.048L67.8221 12.4351L67.3792 12.5633L67.3619 13.0241L67.9995 13.048ZM70.0155 12.84L70.001 12.2021L70.0155 12.84ZM71.5835 12.968L72.2121 13.0773L72.2689 12.751L72.0347 12.5168L71.5835 12.968ZM71.4555 16.392H70.8174V16.918L71.3337 17.0183L71.4555 16.392ZM72.9115 16.424L72.9693 17.0595L72.9795 17.0584L72.9115 16.424ZM74.1275 16.216L74.3383 16.8182L74.5674 16.7381L74.6853 16.5259L74.1275 16.216ZM74.1595 14.712L73.5218 14.7342L73.5218 14.7345L74.1595 14.712ZM74.1435 12.968L73.8474 12.4028L73.5381 12.5648L73.5078 12.9127L74.1435 12.968ZM75.7435 12.728L75.7758 13.3653L75.7838 13.3648L75.7435 12.728ZM76.7561 12.8018C76.8904 14.2796 76.8715 17.7564 76.6898 23.283L77.9652 23.325C78.1462 17.8222 78.1699 14.259 78.027 12.6862L76.7561 12.8018ZM77.207 22.6774C76.9996 22.7173 76.4908 22.7459 75.6155 22.7459V24.0221C76.4682 24.0221 77.1007 23.9974 77.448 23.9306L77.207 22.6774ZM75.6155 22.7459C74.7387 22.7459 74.2867 22.7338 74.1798 22.7195L74.0112 23.9845C74.2243 24.0129 74.7856 24.0221 75.6155 24.0221V22.7459ZM74.7326 23.3166C74.7237 23.1565 74.7278 22.6647 74.7494 21.7999L73.4736 21.7681C73.4526 22.61 73.446 23.1635 73.4584 23.3874L74.7326 23.3166ZM74.7491 21.8079C74.7655 21.3719 74.7674 21.0024 74.7528 20.7048C74.7391 20.426 74.7091 20.1482 74.6312 19.9339L73.4318 20.3701C73.4312 20.3683 73.434 20.3757 73.4384 20.3954C73.4428 20.4146 73.4478 20.4413 73.4529 20.4768C73.4632 20.5485 73.4722 20.6442 73.4782 20.7672C73.4903 21.0136 73.4895 21.3428 73.4739 21.7601L74.7491 21.8079ZM74.0801 19.5158C73.3008 19.4563 72.6661 19.4424 72.1948 19.4845C71.9613 19.5053 71.7367 19.5422 71.5439 19.6097C71.3705 19.6703 71.1013 19.7972 70.9534 20.0816L72.0856 20.6704C72.0071 20.8214 71.8945 20.839 71.9651 20.8143C72.0163 20.7964 72.123 20.7721 72.3082 20.7555C72.6742 20.7229 73.2262 20.7304 73.9829 20.7882L74.0801 19.5158ZM70.8832 20.3291C70.7866 21.6379 70.7523 22.6654 70.7861 23.3974L72.0609 23.3386C72.0307 22.6839 72.0604 21.7168 72.1558 20.4229L70.8832 20.3291ZM71.3025 22.7415C70.4351 22.9091 69.3745 22.9529 68.1104 22.8597L68.0166 24.1323C69.3552 24.2311 70.5346 24.1896 71.5445 23.9945L71.3025 22.7415ZM68.6929 23.3911C68.6168 22.9346 68.563 21.9588 68.5415 20.4151L67.2655 20.4329C67.2867 21.9612 67.3395 23.0334 67.4341 23.6009L68.6929 23.3911ZM68.5416 20.4196C68.5309 18.8769 68.5362 17.4794 68.5575 16.2268L67.2815 16.2052C67.2601 17.4699 67.2548 18.8778 67.2654 20.4284L68.5416 20.4196ZM68.5575 16.2268C68.5788 14.9707 68.6053 13.9194 68.6371 13.0719L67.3619 13.0241C67.3297 13.8833 67.3029 14.944 67.2815 16.2052L68.5575 16.2268ZM68.1769 13.6609C68.4963 13.5685 69.0961 13.4991 70.03 13.4779L70.001 12.2021C69.0576 12.2235 68.3134 12.2929 67.8221 12.4351L68.1769 13.6609ZM70.03 13.4779C70.4915 13.4674 70.8311 13.4733 71.0596 13.492C71.1752 13.5014 71.2441 13.5127 71.2782 13.5208C71.2949 13.5248 71.2899 13.5249 71.2718 13.5171C71.2586 13.5114 71.1979 13.4848 71.1323 13.4192L72.0347 12.5168C71.8719 12.354 71.6623 12.3004 71.5728 12.2792C71.4496 12.2499 71.3091 12.2319 71.1634 12.22C70.8692 12.196 70.4781 12.1913 70.001 12.2021L70.03 13.4779ZM70.9549 12.8587C70.8581 13.4149 70.8174 14.6167 70.8174 16.392H72.0936C72.0936 14.5833 72.1382 13.5025 72.2121 13.0773L70.9549 12.8587ZM71.3337 17.0183C71.7986 17.1087 72.3497 17.1158 72.9693 17.0594L72.8537 15.7886C72.3 15.8389 71.8804 15.8246 71.5773 15.7657L71.3337 17.0183ZM72.9795 17.0584C73.5709 16.9951 74.0461 16.9205 74.3383 16.8182L73.9167 15.6138C73.7823 15.6608 73.4468 15.7249 72.8435 15.7896L72.9795 17.0584ZM74.6853 16.5259C74.7379 16.4311 74.7597 16.3396 74.7692 16.2958C74.781 16.2413 74.7886 16.1861 74.7939 16.136C74.8047 16.0353 74.8106 15.9148 74.8134 15.7816C74.8191 15.5129 74.8133 15.1469 74.7972 14.6895L73.5218 14.7345C73.5377 15.1837 73.5425 15.5217 73.5376 15.7544C73.5351 15.8719 73.5303 15.9514 73.5251 16C73.5224 16.0246 73.5207 16.0314 73.5218 16.0262C73.5225 16.0231 73.525 16.0117 73.5306 15.9948C73.5356 15.9795 73.5472 15.9467 73.5697 15.9061L74.6853 16.5259ZM74.7972 14.6898C74.7647 13.7598 74.7619 13.2216 74.7792 13.0233L73.5078 12.9127C73.4824 13.205 73.4903 13.8296 73.5218 14.7342L74.7972 14.6898ZM74.4396 13.5332C74.436 13.5351 74.4601 13.5228 74.5304 13.5045C74.5968 13.4871 74.6875 13.4688 74.8062 13.451C75.044 13.4153 75.3651 13.386 75.7758 13.3653L75.7112 12.0907C75.2792 12.1126 74.9123 12.1447 74.6169 12.189C74.3411 12.2304 74.0605 12.2912 73.8474 12.4028L74.4396 13.5332ZM75.7838 13.3648C76.1969 13.3386 76.528 13.3276 76.7813 13.33C77.0476 13.3326 77.1858 13.3503 77.2367 13.363L77.5463 12.125C77.3412 12.0737 77.0767 12.0567 76.7937 12.054C76.4976 12.0511 76.1328 12.064 75.7032 12.0912L75.7838 13.3648ZM84.3766 16.568L85.0144 16.5481L85.0065 16.2955L84.8278 16.1168L84.3766 16.568ZM83.3366 16.264L83.2968 16.9008L83.2976 16.9009L83.3366 16.264ZM82.1206 16.392L81.8873 15.7981L81.5238 15.9409L81.4856 16.3295L82.1206 16.392ZM82.0406 18.536L81.4026 18.5447L81.4026 18.5449L82.0406 18.536ZM82.1366 20.264L81.5046 20.3518L81.5655 20.7902L81.9974 20.8867L82.1366 20.264ZM83.9926 20.408L84.1885 21.0153L84.4165 20.9417L84.5398 20.7363L83.9926 20.408ZM84.3126 18.808L83.6765 18.7578L83.676 18.7656L84.3126 18.808ZM88.5206 16.6L89.1565 16.6524L89.17 16.4893L89.1033 16.3399L88.5206 16.6ZM87.9126 20.184L87.2898 20.0451L87.2889 20.0494L87.9126 20.184ZM87.0326 22.824L87.1342 23.4539L87.3448 23.42L87.4926 23.2663L87.0326 22.824ZM81.9126 22.664L82.0092 22.0333L81.3243 21.9285L81.2761 22.6196L81.9126 22.664ZM81.8646 23.352L81.8822 23.9898L82.4609 23.9739L82.5011 23.3964L81.8646 23.352ZM78.4566 23.144L77.8232 23.2212L77.8763 23.6566L78.3019 23.763L78.4566 23.144ZM78.5046 10.728L78.3773 10.1028L77.8762 10.2048L77.8667 10.716L78.5046 10.728ZM80.4086 10.52L80.4282 11.1578L80.438 11.1574L80.4086 10.52ZM82.1206 10.616L82.7576 10.6525L82.7889 10.1067L82.2543 9.99209L82.1206 10.616ZM82.0566 13.944L81.4216 14.0063L81.49 14.7039L82.1782 14.5704L82.0566 13.944ZM85.6246 13.736L85.8528 13.1401L85.7426 13.0979H85.6246V13.736ZM87.2406 14.872L86.7936 15.3275L86.8023 15.3357L87.2406 14.872ZM84.8278 16.1168C84.6383 15.9273 84.3967 15.8185 84.1676 15.7516C83.9333 15.6831 83.6652 15.6449 83.3756 15.6271L83.2976 16.9009C83.5307 16.9151 83.6972 16.9436 83.8096 16.9764C83.9272 17.0108 83.9443 17.038 83.9254 17.0192L84.8278 16.1168ZM83.3764 15.6272C82.8209 15.5924 82.3094 15.6323 81.8873 15.7981L82.3539 16.9859C82.5292 16.917 82.8284 16.8715 83.2968 16.9008L83.3764 15.6272ZM81.4856 16.3295C81.4189 17.0078 81.3917 17.7466 81.4026 18.5447L82.6786 18.5273C82.6682 17.768 82.6943 17.0775 82.7556 16.4545L81.4856 16.3295ZM81.4026 18.5449C81.4134 19.319 81.4457 19.9272 81.5046 20.3518L82.7686 20.1762C82.7209 19.8328 82.6892 19.289 82.6786 18.5271L81.4026 18.5449ZM81.9974 20.8867C82.4674 20.9917 82.8808 21.061 83.2313 21.0882C83.5686 21.1143 83.9047 21.1068 84.1885 21.0153L83.7967 19.8007C83.7499 19.8159 83.6113 19.8377 83.33 19.8158C83.0618 19.795 82.7126 19.7389 82.2758 19.6413L81.9974 20.8867ZM84.5398 20.7363C84.6755 20.5101 84.7597 20.2262 84.8183 19.9331C84.879 19.6297 84.9215 19.2665 84.9493 18.8504L83.676 18.7656C83.6504 19.1495 83.6129 19.453 83.5669 19.6829C83.5189 19.9232 83.4698 20.0392 83.4455 20.0797L84.5398 20.7363ZM84.9487 18.8582C85.0142 18.0285 85.0366 17.258 85.0144 16.5481L83.7389 16.5879C83.7593 17.2433 83.739 17.9662 83.6765 18.7578L84.9487 18.8582ZM87.8847 16.5476C87.8135 17.4124 87.6178 18.5748 87.2899 20.0451L88.5354 20.3229C88.8688 18.8279 89.0784 17.601 89.1565 16.6524L87.8847 16.5476ZM87.2889 20.0494C87.1312 20.7803 86.9835 21.3456 86.8473 21.7542C86.7792 21.9585 86.7174 22.1133 86.6633 22.2251C86.6057 22.3441 86.572 22.3825 86.5727 22.3817L87.4926 23.2663C87.7362 23.0128 87.9122 22.5949 88.058 22.1578C88.2151 21.6864 88.3741 21.0704 88.5363 20.3186L87.2889 20.0494ZM86.931 22.1941C85.7006 22.3925 84.0675 22.3483 82.0092 22.0333L81.8161 23.2947C83.9391 23.6197 85.7193 23.6821 87.1342 23.4539L86.931 22.1941ZM81.2761 22.6196L81.2281 23.3076L82.5011 23.3964L82.5491 22.7084L81.2761 22.6196ZM81.847 22.7142C80.3103 22.7566 79.2476 22.684 78.6114 22.525L78.3019 23.763C79.1164 23.9666 80.3256 24.0328 81.8822 23.9898L81.847 22.7142ZM79.09 23.0668C79.0427 22.6791 79.0186 21.475 79.0267 19.3865C79.0347 17.3218 79.0733 14.4402 79.1426 10.7399L77.8667 10.716C77.7973 14.4185 77.7586 17.3075 77.7506 19.3815C77.7426 21.4316 77.7639 22.7342 77.8232 23.2212L79.09 23.0668ZM78.632 11.3532C79.1668 11.2443 79.7649 11.1782 80.4282 11.1578L80.389 9.88223C79.6657 9.90449 78.9944 9.97706 78.3773 10.1028L78.632 11.3532ZM80.438 11.1574C81.1017 11.1268 81.6124 11.1597 81.9869 11.2399L82.2543 9.99209C81.7328 9.88034 81.1023 9.84924 80.3792 9.88261L80.438 11.1574ZM81.4836 10.5795C81.3881 12.2449 81.3626 13.4044 81.4216 14.0063L82.6917 13.8817C82.644 13.3956 82.6611 12.3364 82.7576 10.6525L81.4836 10.5795ZM82.1782 14.5704C82.8274 14.4444 83.963 14.3741 85.6246 14.3741V13.0979C83.9582 13.0979 82.7152 13.1663 81.9351 13.3176L82.1782 14.5704ZM85.3964 14.3319C85.7855 14.4809 86.2516 14.7954 86.7937 15.3274L87.6876 14.4166C87.0776 13.8179 86.4665 13.3751 85.8528 13.1401L85.3964 14.3319ZM86.8023 15.3357C87.3418 15.8457 87.7125 16.3551 87.938 16.8601L89.1033 16.3399C88.7954 15.6502 88.3128 15.0076 87.679 14.4083L86.8023 15.3357ZM95.5113 20.12L95.72 20.723L96.1493 20.5743V20.12H95.5113ZM95.5433 19.16L96.1807 19.189L96.1807 19.1883L95.5433 19.16ZM95.5753 18.008L94.9376 17.9852L94.9372 17.9966V18.008H95.5753ZM95.5753 16.888L96.2131 16.8728V16.8728L95.5753 16.888ZM95.4793 15.656L96.1109 15.5658L96.04 15.0692L95.5407 15.0209L95.4793 15.656ZM93.0793 15.816L92.8775 15.2107L92.6334 15.292L92.514 15.5199L93.0793 15.816ZM92.8233 17.864L93.4606 17.8941L93.4606 17.8938L92.8233 17.864ZM92.8393 20.344L92.2059 20.4216L92.2636 20.8927L92.7314 20.9729L92.8393 20.344ZM94.2473 20.36L94.3072 20.9954L94.319 20.994L94.2473 20.36ZM99.1273 14.872L99.7524 14.7441L99.7208 14.5898L99.6211 14.4679L99.1273 14.872ZM99.2873 17.048L99.9253 17.0411V17.0411L99.2873 17.048ZM99.1113 20.104L98.4778 20.0272L98.4771 20.0335L99.1113 20.104ZM98.5673 22.44L98.7162 23.0605L99.0083 22.9903L99.1404 22.7205L98.5673 22.44ZM91.7513 23.144L91.5109 23.7351L91.6211 23.7799L91.74 23.782L91.7513 23.144ZM88.9993 20.68L88.3613 20.6915L88.3648 20.8845L88.4746 21.0432L88.9993 20.68ZM89.9753 13.736L89.817 13.1179L89.5099 13.1965L89.387 13.4887L89.9753 13.736ZM93.5273 13.24L93.4818 12.6036L93.5273 13.24ZM97.0793 13.32L97.4387 12.7928L97.327 12.7167L97.1941 12.6923L97.0793 13.32ZM96.1493 20.12C96.1493 19.9659 96.1593 19.6598 96.1807 19.189L94.9058 19.131C94.8846 19.5989 94.8732 19.9328 94.8732 20.12H96.1493ZM96.1807 19.1883C96.2022 18.7042 96.2133 18.3096 96.2133 18.008H94.9372C94.9372 18.2824 94.927 18.6558 94.9058 19.1317L96.1807 19.1883ZM96.2129 18.0308C96.2242 17.7149 96.224 17.3279 96.2131 16.8728L94.9374 16.9032C94.9479 17.3441 94.9476 17.7038 94.9376 17.9852L96.2129 18.0308ZM96.2131 16.8728C96.202 16.4042 96.1684 15.9681 96.1109 15.5658L94.8476 15.7462C94.8968 16.0906 94.9272 16.4758 94.9374 16.9032L96.2131 16.8728ZM95.5407 15.0209C94.504 14.9206 93.604 14.9685 92.8775 15.2107L93.281 16.4213C93.7705 16.2582 94.4705 16.1994 95.4178 16.2911L95.5407 15.0209ZM92.514 15.5199C92.4455 15.6507 92.4037 15.8003 92.3745 15.9308C92.3432 16.0709 92.3169 16.2346 92.2941 16.4169C92.2485 16.7817 92.2129 17.2563 92.1859 17.8342L93.4606 17.8938C93.487 17.3304 93.5207 16.8929 93.5604 16.5751C93.5803 16.4161 93.6006 16.2957 93.62 16.2092C93.6414 16.113 93.6543 16.0933 93.6445 16.1121L92.514 15.5199ZM92.1859 17.8339C92.1323 18.9694 92.1349 19.8418 92.2059 20.4216L93.4726 20.2664C93.4156 19.8009 93.4075 19.02 93.4606 17.8941L92.1859 17.8339ZM92.7314 20.9729C93.1803 21.0498 93.7108 21.0515 94.3072 20.9952L94.1873 19.7248C93.653 19.7752 93.2448 19.7662 92.9471 19.7151L92.7314 20.9729ZM94.319 20.994C94.8962 20.9287 95.3743 20.8426 95.72 20.723L95.3025 19.517C95.0936 19.5894 94.729 19.6633 94.1755 19.726L94.319 20.994ZM98.5021 14.9999C98.5853 15.4066 98.6386 16.0813 98.6492 17.0549L99.9253 17.0411C99.9145 16.0521 99.8612 15.2761 99.7524 14.7441L98.5021 14.9999ZM98.6492 17.0549C98.6596 18.0061 98.6027 18.9967 98.4778 20.0272L99.7447 20.1808C99.8758 19.0993 99.9363 18.0526 99.9253 17.0411L98.6492 17.0549ZM98.4771 20.0335C98.3619 21.0702 98.1898 21.7596 97.9941 22.1595L99.1404 22.7205C99.4353 22.1178 99.6259 21.2498 99.7454 20.1745L98.4771 20.0335ZM98.4183 21.8195C96.3423 22.3178 94.1246 22.5478 91.7625 22.506L91.74 23.782C94.1993 23.8255 96.5255 23.5862 98.7162 23.0605L98.4183 21.8195ZM91.9916 22.5529C91.1765 22.2215 90.3473 21.5062 89.5239 20.3168L88.4746 21.0432C89.3792 22.3498 90.3846 23.2771 91.5109 23.7351L91.9916 22.5529ZM89.6372 20.6685C89.5846 17.7537 89.9088 15.5406 90.5635 13.9833L89.387 13.4887C88.6337 15.2808 88.3072 17.697 88.3613 20.6915L89.6372 20.6685ZM90.1336 14.3541C90.9551 14.1437 92.0961 13.9819 93.5727 13.8764L93.4818 12.6036C91.9717 12.7114 90.7448 12.8803 89.817 13.1179L90.1336 14.3541ZM93.5727 13.8764C95.0436 13.7714 96.1664 13.8017 96.9644 13.9477L97.1941 12.6923C96.2428 12.5183 94.9976 12.4953 93.4818 12.6036L93.5727 13.8764ZM96.7198 13.8472C97.3026 14.2445 97.7567 14.5671 98.0859 14.8165C98.4349 15.0811 98.5927 15.2263 98.6334 15.276L99.6211 14.4679C99.4698 14.283 99.1902 14.0523 98.8566 13.7995C98.5031 13.5316 98.0293 13.1955 97.4387 12.7928L96.7198 13.8472ZM106.069 20.408L106.193 21.034L106.718 20.9301L106.707 20.3944L106.069 20.408ZM105.893 18.392L106.526 18.3119L106.429 17.5409L105.691 17.7867L105.893 18.392ZM105.573 18.488L105.717 19.1097L105.733 19.106L105.748 19.1015L105.573 18.488ZM104.901 18.664L104.713 18.0541V18.0541L104.901 18.664ZM104.549 18.776L104.347 18.1707L104.336 18.1744L104.325 18.1786L104.549 18.776ZM104.261 18.888L104.463 19.4933L104.481 19.4874L104.498 19.4804L104.261 18.888ZM104.005 19L104.322 19.554V19.554L104.005 19ZM103.829 19.128L103.378 18.6768L103.202 18.8532L103.192 19.1025L103.829 19.128ZM103.813 19.528L103.176 19.5025L103.175 19.5152V19.528H103.813ZM103.845 20.232L103.211 20.2988L103.212 20.3152L103.215 20.3315L103.845 20.232ZM104.021 20.616L103.683 21.1571L103.811 21.2369L103.961 21.2512L104.021 20.616ZM109.701 22.936L109.884 23.5472L110.288 23.4262L110.335 23.0082L109.701 22.936ZM106.373 23.336L105.738 23.4011L105.8 24.0019L106.403 23.9734L106.373 23.336ZM106.309 22.712L106.944 22.6469L106.874 21.9679L106.201 22.0831L106.309 22.712ZM102.373 23.256L102.184 23.8654L102.311 23.9049L102.444 23.8902L102.373 23.256ZM101.173 22.744L100.883 23.3122L100.888 23.3147L101.173 22.744ZM99.9731 21.992L99.348 22.1199L99.3943 22.346L99.5745 22.4902L99.9731 21.992ZM99.9411 19.832L100.577 19.8809L99.9411 19.832ZM100.245 17.784L99.9188 17.2357L99.7123 17.3586L99.6382 17.5872L100.245 17.784ZM102.725 16.92L102.567 16.302L102.725 16.92ZM105.685 16.36L105.738 16.9959L106.254 16.9529L106.318 16.4391L105.685 16.36ZM105.685 15.72L106.312 15.6024L106.243 15.2334L105.887 15.1147L105.685 15.72ZM105.061 15.624L105.014 16.2603L105.061 15.624ZM103.989 15.592L103.973 16.2299L103.981 16.2301H103.989V15.592ZM102.901 15.592V16.2301H102.913L102.924 16.2297L102.901 15.592ZM101.765 15.608L101.78 16.2459L101.765 15.608ZM101.013 15.624L100.376 15.6543L100.405 16.2621H101.013V15.624ZM101.093 14.296L101.722 14.4034L101.723 14.4009L101.093 14.296ZM101.413 13.416L101.32 12.7848L101.111 12.8157L100.962 12.9648L101.413 13.416ZM105.253 13.192L105.243 13.83L105.248 13.8301L105.253 13.192ZM108.741 13.544L109.266 13.1813L109.129 12.9825L108.894 12.9246L108.741 13.544ZM109.637 17.704L109.002 17.7598L109.002 17.7601L109.637 17.704ZM106.707 20.3944C106.696 19.8608 106.634 19.1638 106.526 18.3119L105.26 18.4721C105.366 19.3056 105.421 19.9525 105.431 20.4216L106.707 20.3944ZM105.691 17.7867C105.642 17.8032 105.547 17.832 105.398 17.8745L105.748 19.1015C105.898 19.0587 106.017 19.0234 106.095 18.9973L105.691 17.7867ZM105.43 17.8663C105.289 17.8987 105.173 17.9263 105.082 17.949L105.392 19.187C105.472 19.167 105.58 19.1413 105.717 19.1097L105.43 17.8663ZM105.082 17.949C104.981 17.9743 104.857 18.01 104.713 18.0541L105.089 19.2739C105.223 19.2327 105.322 19.2044 105.392 19.187L105.082 17.949ZM104.713 18.0541C104.572 18.0977 104.45 18.1366 104.347 18.1707L104.751 19.3813C104.841 19.3514 104.953 19.3156 105.089 19.2739L104.713 18.0541ZM104.325 18.1786C104.234 18.2125 104.134 18.2516 104.024 18.2956L104.498 19.4804C104.602 19.4391 104.693 19.4035 104.773 19.3734L104.325 18.1786ZM104.059 18.2827C103.93 18.3257 103.805 18.3792 103.689 18.446L104.322 19.554C104.354 19.5355 104.4 19.5143 104.463 19.4933L104.059 18.2827ZM103.689 18.446C103.584 18.5059 103.474 18.581 103.378 18.6768L104.28 19.5792C104.274 19.5856 104.273 19.5855 104.28 19.58C104.288 19.5747 104.301 19.5658 104.322 19.554L103.689 18.446ZM103.192 19.1025L103.176 19.5025L104.451 19.5535L104.467 19.1535L103.192 19.1025ZM103.175 19.528C103.175 19.8106 103.186 20.0684 103.211 20.2988L104.48 20.1652C104.461 19.9903 104.451 19.7787 104.451 19.528H103.175ZM103.215 20.3315C103.236 20.4666 103.271 20.6109 103.333 20.7459C103.394 20.8797 103.5 21.0428 103.683 21.1571L104.359 20.0749C104.457 20.1359 104.49 20.2083 104.493 20.2141C104.496 20.2194 104.494 20.2162 104.489 20.2013C104.485 20.1866 104.48 20.1642 104.475 20.1325L103.215 20.3315ZM103.961 21.2512C104.506 21.3032 105.266 21.2173 106.193 21.034L105.945 19.782C105.038 19.9614 104.432 20.0142 104.082 19.9808L103.961 21.2512ZM109.518 22.3248C108.96 22.4921 107.921 22.624 106.343 22.6986L106.403 23.9734C107.983 23.8987 109.162 23.7639 109.884 23.5472L109.518 22.3248ZM107.008 23.2709L106.944 22.6469L105.674 22.7771L105.738 23.4011L107.008 23.2709ZM106.201 22.0831C105.032 22.2833 103.733 22.4629 102.303 22.6218L102.444 23.8902C103.894 23.7291 105.218 23.5461 106.417 23.3409L106.201 22.0831ZM102.562 22.6466C102.301 22.5655 101.936 22.4122 101.458 22.1733L100.888 23.3147C101.391 23.5665 101.827 23.7545 102.184 23.8654L102.562 22.6466ZM101.464 22.1758C101.011 21.9444 100.65 21.716 100.372 21.4938L99.5745 22.4902C99.9368 22.78 100.376 23.053 100.883 23.3122L101.464 22.1758ZM100.598 21.8641C100.521 21.4862 100.504 20.8402 100.577 19.8809L99.3049 19.7831C99.2294 20.7651 99.2333 21.5591 99.348 22.1199L100.598 21.8641ZM100.577 19.8809C100.652 18.9115 100.75 18.2964 100.852 17.9808L99.6382 17.5872C99.4845 18.0609 99.3797 18.8112 99.3049 19.7831L100.577 19.8809ZM100.571 18.3323C100.933 18.1173 101.678 17.8474 102.884 17.538L102.567 16.302C101.361 16.6113 100.454 16.9174 99.9188 17.2357L100.571 18.3323ZM102.884 17.538C104.073 17.2329 105.021 17.0557 105.738 16.9959L105.632 15.7241C104.814 15.7923 103.788 15.9884 102.567 16.302L102.884 17.538ZM106.318 16.4391C106.355 16.1462 106.361 15.8612 106.312 15.6024L105.058 15.8376C105.073 15.9201 105.079 16.0618 105.052 16.2809L106.318 16.4391ZM105.887 15.1147C105.679 15.0453 105.403 15.0095 105.108 14.9877L105.014 16.2603C105.295 16.2811 105.436 16.3094 105.483 16.3253L105.887 15.1147ZM105.108 14.9877C104.799 14.9648 104.425 14.9539 103.989 14.9539V16.2301C104.407 16.2301 104.747 16.2406 105.014 16.2603L105.108 14.9877ZM104.005 14.9541C103.57 14.9433 103.194 14.9431 102.878 14.9543L102.924 16.2297C103.206 16.2196 103.554 16.2194 103.973 16.2299L104.005 14.9541ZM102.901 14.9539C102.596 14.9539 102.212 14.9594 101.75 14.9701L101.78 16.2459C102.236 16.2353 102.609 16.2301 102.901 16.2301V14.9539ZM101.75 14.9701C101.521 14.9754 101.344 14.9794 101.22 14.9821C101.157 14.9834 101.108 14.9844 101.073 14.985C101.055 14.9854 101.041 14.9856 101.03 14.9857C101.025 14.9858 101.02 14.9859 101.017 14.9859C101.014 14.9859 101.013 14.9859 101.013 14.9859V16.2621C101.066 16.2621 101.328 16.2564 101.78 16.2459L101.75 14.9701ZM101.65 15.5936C101.631 15.1912 101.655 14.7947 101.722 14.4034L100.464 14.1886C100.382 14.6719 100.352 15.1608 100.376 15.6543L101.65 15.5936ZM101.723 14.4009C101.756 14.1997 101.793 14.0556 101.829 13.9581C101.867 13.8529 101.889 13.843 101.864 13.8672L100.962 12.9648C100.799 13.1277 100.698 13.3338 100.629 13.5219C100.558 13.7178 100.505 13.9443 100.464 14.1911L101.723 14.4009ZM101.507 14.0472C102.618 13.8825 103.863 13.8091 105.243 13.83L105.263 12.554C103.827 12.5323 102.512 12.6082 101.32 12.7848L101.507 14.0472ZM105.248 13.8301C106.64 13.8405 107.748 13.9559 108.588 14.1634L108.894 12.9246C107.921 12.6841 106.704 12.5648 105.258 12.5539L105.248 13.8301ZM108.216 13.9067C108.344 14.092 108.5 14.482 108.645 15.1583C108.787 15.8158 108.907 16.6803 109.002 17.7598L110.273 17.6482C110.176 16.5411 110.05 15.6189 109.893 14.8897C109.74 14.1793 109.543 13.5826 109.266 13.1813L108.216 13.9067ZM109.002 17.7601C109.192 19.9172 109.21 21.613 109.067 22.8638L110.335 23.0082C110.491 21.635 110.466 19.8428 110.273 17.6479L109.002 17.7601ZM116.667 17.688L117.112 18.1457L117.277 17.9853L117.302 17.7566L116.667 17.688ZM116.443 15.624L117.069 15.5015L116.999 15.1437L116.656 15.0223L116.443 15.624ZM115.355 15.64L115.268 15.0079L115.267 15.0081L115.355 15.64ZM114.267 15.944L113.913 15.4131L113.659 15.5827L113.632 15.8874L114.267 15.944ZM114.283 18.28L113.66 18.4184L113.774 18.9317L114.3 18.9178L114.283 18.28ZM120.555 22.712L120.859 23.273L121.38 22.9907L121.137 22.4502L120.555 22.712ZM119.003 23.128L118.891 22.4997L118.881 22.5017L119.003 23.128ZM117.035 23.384L116.563 23.8132L116.763 24.0332L117.06 24.0216L117.035 23.384ZM116.219 22.312L115.697 22.6786L115.704 22.6889L116.219 22.312ZM115.195 20.936L115.687 20.5292L115.425 20.2126L115.028 20.3202L115.195 20.936ZM114.251 21.192L114.084 20.5762L113.651 20.6937L113.615 21.1411L114.251 21.192ZM114.235 22.232L113.597 22.2479L113.597 22.2484L114.235 22.232ZM114.219 23.16L114.376 23.7786L114.807 23.6695L114.854 23.2268L114.219 23.16ZM110.795 23.352L110.16 23.4081L110.207 23.94L110.738 23.9875L110.795 23.352ZM110.619 17.912L109.981 17.9147L109.981 17.9174L110.619 17.912ZM110.827 12.92L110.649 12.3072L110.273 12.4165L110.2 12.8014L110.827 12.92ZM112.347 12.68L112.288 12.0447L112.347 12.68ZM114.171 12.664H114.809V12.0866L114.235 12.0291L114.171 12.664ZM114.171 13.432H113.533V14.2419L114.321 14.0523L114.171 13.432ZM116.443 13.096L116.501 13.7315L116.508 13.7308L116.443 13.096ZM118.715 12.984L119.114 12.4858L118.949 12.3542L118.739 12.3464L118.715 12.984ZM120.027 15.096L119.432 15.3255L120.027 15.096ZM120.491 17.912L120.97 18.3335L121.106 18.1796L121.126 17.9755L120.491 17.912ZM118.811 19.576L118.388 19.0982L117.975 19.4637L118.277 19.9252L118.811 19.576ZM119.739 21.192L119.179 21.4981L119.183 21.5038L119.739 21.192ZM117.302 17.7566C117.356 17.2543 117.261 16.4787 117.069 15.5015L115.817 15.7465C116.01 16.732 116.064 17.3323 116.033 17.6194L117.302 17.7566ZM116.656 15.0223C116.456 14.9518 116.228 14.939 116.026 14.942C115.809 14.9452 115.555 14.9686 115.268 15.0079L115.442 16.2721C115.7 16.2367 115.899 16.2201 116.045 16.218C116.205 16.2156 116.249 16.2322 116.231 16.2257L116.656 15.0223ZM115.267 15.0081C114.733 15.0829 114.238 15.1967 113.913 15.4131L114.621 16.4749C114.681 16.4353 114.911 16.3465 115.444 16.2719L115.267 15.0081ZM113.632 15.8874C113.535 16.9709 113.531 17.8348 113.66 18.4184L114.906 18.1416C114.822 17.7652 114.807 17.0718 114.903 16.0006L113.632 15.8874ZM114.3 18.9178C114.934 18.9012 115.487 18.841 115.945 18.7273C116.395 18.6156 116.811 18.4384 117.112 18.1457L116.223 17.2303C116.151 17.3003 115.982 17.4031 115.637 17.4887C115.301 17.5723 114.848 17.6268 114.266 17.6422L114.3 18.9178ZM120.251 22.151C120.099 22.2336 119.681 22.3593 118.891 22.4998L119.115 23.7562C119.883 23.6194 120.5 23.4677 120.859 23.273L120.251 22.151ZM118.881 22.5017C118.133 22.6472 117.511 22.7268 117.01 22.7464L117.06 24.0216C117.647 23.9986 118.338 23.9074 119.125 23.7543L118.881 22.5017ZM117.507 22.9548C117.429 22.8687 117.181 22.5454 116.734 21.9351L115.704 22.6889C116.132 23.2733 116.428 23.6646 116.563 23.8132L117.507 22.9548ZM116.742 21.9455C116.312 21.3331 115.959 20.8582 115.687 20.5292L114.704 21.3428C114.943 21.6325 115.273 22.0749 115.697 22.6785L116.742 21.9455ZM115.028 20.3202L114.084 20.5762L114.418 21.8078L115.362 21.5518L115.028 20.3202ZM113.615 21.1411C113.591 21.4391 113.586 21.8104 113.597 22.2479L114.873 22.2161C114.863 21.8003 114.868 21.4783 114.887 21.2429L113.615 21.1411ZM113.597 22.2484C113.608 22.6589 113.601 22.9339 113.585 23.0932L114.854 23.2268C114.88 22.9808 114.884 22.6371 114.873 22.2156L113.597 22.2484ZM114.063 22.5414C113.18 22.7646 112.114 22.8293 110.852 22.7165L110.738 23.9875C112.101 24.1094 113.317 24.0461 114.376 23.7786L114.063 22.5414ZM111.431 23.2959C111.337 22.2356 111.279 20.4446 111.257 17.9066L109.981 17.9174C110.003 20.4568 110.061 22.2924 110.16 23.4081L111.431 23.2959ZM111.257 17.9093C111.247 15.3578 111.318 13.757 111.454 13.0386L110.2 12.8014C110.038 13.6616 109.971 15.3888 109.981 17.9147L111.257 17.9093ZM111.005 13.5328C111.276 13.4542 111.733 13.3784 112.407 13.3153L112.288 12.0447C111.596 12.1096 111.04 12.1938 110.649 12.3072L111.005 13.5328ZM112.407 13.3153C113.059 13.2541 113.625 13.2506 114.108 13.2989L114.235 12.0291C113.651 11.9707 113.001 11.9779 112.288 12.0447L112.407 13.3153ZM113.533 12.664V13.432H114.809V12.664H113.533ZM114.321 14.0523C114.854 13.9239 115.577 13.8154 116.501 13.7314L116.385 12.4606C115.432 12.5473 114.64 12.6628 114.022 12.8117L114.321 14.0523ZM116.508 13.7308C117.433 13.6361 118.158 13.6019 118.692 13.6216L118.739 12.3464C118.121 12.3235 117.33 12.3639 116.378 12.4612L116.508 13.7308ZM118.317 13.4822C118.663 13.7597 119.05 14.3356 119.432 15.3255L120.623 14.8665C120.215 13.8084 119.727 12.9763 119.114 12.4858L118.317 13.4822ZM119.432 15.3255C119.8 16.2815 119.929 17.1184 119.856 17.8485L121.126 17.9755C121.224 16.9989 121.043 15.9585 120.623 14.8665L119.432 15.3255ZM120.012 17.4905C119.564 18.0001 119.023 18.5361 118.388 19.0982L119.234 20.0538C119.901 19.4639 120.48 18.8906 120.97 18.3335L120.012 17.4905ZM118.277 19.9252C118.443 20.1784 118.741 20.6958 119.179 21.4981L120.299 20.8859C119.863 20.0882 119.542 19.5282 119.345 19.2268L118.277 19.9252ZM119.183 21.5038C119.635 22.3126 119.891 22.7917 119.973 22.9738L121.137 22.4502C121.027 22.2056 120.739 21.6714 120.296 20.8802L119.183 21.5038ZM127.614 15.992L128.251 15.9749L128.238 15.489L127.766 15.3725L127.614 15.992ZM125.438 16.168L125.148 15.5992L124.886 15.7325L124.817 16.0183L125.438 16.168ZM125.118 18.52L124.481 18.4771L124.481 18.4838L125.118 18.52ZM125.182 20.616L124.557 20.7467L124.632 21.1054L124.98 21.2213L125.182 20.616ZM127.598 20.456L127.775 21.069L128.06 20.9866L128.181 20.7151L127.598 20.456ZM131.422 23.208L131.581 23.826L132.022 23.7124L132.058 23.258L131.422 23.208ZM127.918 23.512L127.281 23.5564L127.32 24.1097L127.873 24.1485L127.918 23.512ZM127.87 22.824L128.506 22.7796L128.457 22.0766L127.762 22.195L127.87 22.824ZM123.166 23.304L122.758 23.7952L122.905 23.9167L123.094 23.9381L123.166 23.304ZM121.246 20.776L120.617 20.8879L120.64 21.0123L120.707 21.1188L121.246 20.776ZM121.486 17.128L120.858 17.0107L120.858 17.0146L121.486 17.128ZM122.718 13.912L122.59 13.2869L122.409 13.3238L122.276 13.4513L122.718 13.912ZM127.822 13.48L127.787 14.1171L128.46 14.1535V13.48H127.822ZM127.774 12.056L127.136 12.075L127.136 12.085L127.774 12.056ZM127.758 10.52L127.681 9.88657L127.139 9.95227L127.12 10.498L127.758 10.52ZM131.422 10.568H132.06V10.1193L131.637 9.96753L131.422 10.568ZM131.47 14.424L130.832 14.4349L130.832 14.4386L131.47 14.424ZM127.766 15.3725C126.827 15.1408 125.94 15.1967 125.148 15.5992L125.727 16.7368C126.194 16.4993 126.757 16.4379 127.461 16.6115L127.766 15.3725ZM124.817 16.0183C124.657 16.6846 124.546 17.5075 124.481 18.4771L125.754 18.5629C125.817 17.6338 125.92 16.8887 126.058 16.3177L124.817 16.0183ZM124.481 18.4838C124.427 19.4342 124.443 20.2023 124.557 20.7467L125.806 20.4853C125.728 20.1124 125.702 19.4832 125.755 18.5562L124.481 18.4838ZM124.98 21.2213C125.741 21.4751 126.7 21.3792 127.775 21.069L127.421 19.843C126.426 20.1301 125.774 20.1409 125.383 20.0107L124.98 21.2213ZM128.181 20.7151C128.234 20.5956 128.251 20.4652 128.259 20.4034C128.27 20.3174 128.278 20.2156 128.284 20.1034C128.296 19.8776 128.302 19.5742 128.304 19.1983C128.306 18.4445 128.289 17.3688 128.251 15.9749L126.976 16.0091C127.013 17.3992 127.03 18.4595 127.028 19.1937C127.026 19.5618 127.02 19.8404 127.009 20.0346C127.004 20.1324 126.998 20.2001 126.993 20.2431C126.984 20.3103 126.983 20.2684 127.015 20.1969L128.181 20.7151ZM131.263 22.59C130.213 22.86 129.114 22.9563 127.962 22.8755L127.873 24.1485C129.154 24.2384 130.391 24.132 131.581 23.826L131.263 22.59ZM128.554 23.4676L128.506 22.7796L127.233 22.8684L127.281 23.5564L128.554 23.4676ZM127.762 22.195C126.581 22.3964 125.609 22.5352 124.845 22.6132C124.069 22.6924 123.544 22.7046 123.237 22.6699L123.094 23.9381C123.544 23.9888 124.182 23.9636 124.974 23.8828C125.778 23.8008 126.78 23.657 127.977 23.453L127.762 22.195ZM123.573 22.8128C123.224 22.5234 122.633 21.7655 121.784 20.4332L120.707 21.1188C121.544 22.4318 122.233 23.3593 122.758 23.7952L123.573 22.8128ZM121.874 20.6641C121.756 20.0049 121.817 18.8849 122.114 17.2414L120.858 17.0146C120.557 18.6778 120.457 19.9897 120.617 20.8879L121.874 20.6641ZM122.113 17.2453C122.263 16.4408 122.435 15.7999 122.621 15.3123C122.812 14.816 123 14.5247 123.159 14.3727L122.276 13.4513C121.923 13.7899 121.65 14.28 121.43 14.8557C121.206 15.4401 121.017 16.1619 120.858 17.0107L122.113 17.2453ZM122.846 14.5371C124.625 14.1728 126.272 14.0352 127.787 14.1171L127.856 12.8429C126.214 12.7541 124.458 12.9045 122.59 13.2869L122.846 14.5371ZM128.46 13.48C128.46 13.2179 128.443 12.7291 128.411 12.027L127.136 12.085C127.168 12.7909 127.184 13.2514 127.184 13.48H128.46ZM128.411 12.037C128.39 11.323 128.385 10.829 128.395 10.542L127.12 10.498C127.108 10.8297 127.114 11.3597 127.136 12.075L128.411 12.037ZM127.834 11.1534C128.698 11.0488 129.413 11.0025 129.985 11.01C130.567 11.0176 130.961 11.0806 131.206 11.1685L131.637 9.96753C131.199 9.81008 130.642 9.74237 130.002 9.73398C129.353 9.72549 128.578 9.77786 127.681 9.88657L127.834 11.1534ZM130.784 10.568C130.784 11.2782 130.8 12.5687 130.832 14.4349L132.108 14.4131C132.076 12.546 132.06 11.2658 132.06 10.568H130.784ZM130.832 14.4386C130.874 16.3014 130.896 17.9925 130.896 19.512H132.172C132.172 17.9809 132.15 16.2799 132.108 14.4094L130.832 14.4386ZM130.896 19.512C130.896 21.0185 130.858 22.232 130.786 23.158L132.058 23.258C132.134 22.2853 132.172 21.0349 132.172 19.512H130.896Z" fill="#060000" mask="url(#path-8-outside-1_337_4812)"/>
</g>
</g>
<defs>
<filter id="filter0_dd_337_4812" x="-0.230111" y="0" width="165.419" height="37.8544" filterUnits="userSpaceOnUse" color-interpolation-filters="sRGB">
<feFlood flood-opacity="0" result="BackgroundImageFix"/>
<feColorMatrix in="SourceAlpha" type="matrix" values="0 0 0 0 0 0 0 0 0 0 0 0 0 0 0 0 0 0 127 0" result="hardAlpha"/>
<feOffset dy="0.63807"/>
<feComposite in2="hardAlpha" operator="out"/>
<feColorMatrix type="matrix" values="0 0 0 0 0 0 0 0 0 0 0 0 0 0 0 0 0 0 1 0"/>
<feBlend mode="normal" in2="BackgroundImageFix" result="effect1_dropShadow_337_4812"/>
<feColorMatrix in="SourceAlpha" type="matrix" values="0 0 0 0 0 0 0 0 0 0 0 0 0 0 0 0 0 0 127 0" result="hardAlpha"/>
<feOffset dy="2.23324"/>
<feGaussianBlur stdDeviation="0.319035"/>
<feComposite in2="hardAlpha" operator="out"/>
<feColorMatrix type="matrix" values="0 0 0 0 0 0 0 0 0 0 0 0 0 0 0 0 0 0 0.25 0"/>
<feBlend mode="normal" in2="effect1_dropShadow_337_4812" result="effect2_dropShadow_337_4812"/>
<feBlend mode="normal" in="SourceGraphic" in2="effect2_dropShadow_337_4812" result="shape"/>
</filter>
<filter id="filter1_dd_337_4812" x="-0.227425" y="0" width="165.413" height="37.6293" filterUnits="userSpaceOnUse" color-interpolation-filters="sRGB">
<feFlood flood-opacity="0" result="BackgroundImageFix"/>
<feColorMatrix in="SourceAlpha" type="matrix" values="0 0 0 0 0 0 0 0 0 0 0 0 0 0 0 0 0 0 127 0" result="hardAlpha"/>
<feOffset dy="0.63807"/>
<feComposite in2="hardAlpha" operator="out"/>
<feColorMatrix type="matrix" values="0 0 0 0 0 0 0 0 0 0 0 0 0 0 0 0 0 0 1 0"/>
<feBlend mode="normal" in2="BackgroundImageFix" result="effect1_dropShadow_337_4812"/>
<feColorMatrix in="SourceAlpha" type="matrix" values="0 0 0 0 0 0 0 0 0 0 0 0 0 0 0 0 0 0 127 0" result="hardAlpha"/>
<feOffset dy="2.23324"/>
<feGaussianBlur stdDeviation="0.319035"/>
<feComposite in2="hardAlpha" operator="out"/>
<feColorMatrix type="matrix" values="0 0 0 0 0 0 0 0 0 0 0 0 0 0 0 0 0 0 0.25 0"/>
<feBlend mode="normal" in2="effect1_dropShadow_337_4812" result="effect2_dropShadow_337_4812"/>
<feBlend mode="normal" in="SourceGraphic" in2="effect2_dropShadow_337_4812" result="shape"/>
</filter>
<filter id="filter2_d_337_4812" x="34.9072" y="10.2" width="96.6265" height="14.7961" filterUnits="userSpaceOnUse" color-interpolation-filters="sRGB">
<feFlood flood-opacity="0" result="BackgroundImageFix"/>
<feColorMatrix in="SourceAlpha" type="matrix" values="0 0 0 0 0 0 0 0 0 0 0 0 0 0 0 0 0 0 127 0" result="hardAlpha"/>
<feOffset dy="1.27614"/>
<feComposite in2="hardAlpha" operator="out"/>
<feColorMatrix type="matrix" values="0 0 0 0 0.0313726 0 0 0 0 0.00784314 0 0 0 0 0.0235294 0 0 0 1 0"/>
<feBlend mode="normal" in2="BackgroundImageFix" result="effect1_dropShadow_337_4812"/>
<feBlend mode="normal" in="SourceGraphic" in2="effect1_dropShadow_337_4812" result="shape"/>
</filter>
<linearGradient id="paint0_linear_337_4812" x1="19.0447" y1="14.5339" x2="211.456" y2="77.2288" gradientUnits="userSpaceOnUse">
<stop stop-color="#FFB092"/>
<stop offset="0.4" stop-color="#E6492E"/>
<stop offset="1" stop-color="#C42729"/>
</linearGradient>
<clipPath id="clip0_337_4812">
<rect width="165" height="34.7748" fill="white"/>
</clipPath>
</defs>
</svg>
