<svg width="158" height="35" viewBox="0 0 158 35" fill="none" xmlns="http://www.w3.org/2000/svg">
<g filter="url(#filter0_d_337_5914)">
<mask id="path-1-outside-1_337_5914" maskUnits="userSpaceOnUse" x="26.5915" y="4.99997" width="101" height="24" fill="black">
<rect fill="white" x="26.5915" y="4.99997" width="101" height="24"/>
<path d="M42.6435 27.0564C41.0074 27.0564 40.1235 26.7931 39.9919 26.2666L39.061 22.6277H34.5759L33.7578 26.1255C33.645 26.7085 32.7423 27 31.0498 27C30.1472 27 29.4796 26.953 29.047 26.8589C28.6145 26.7461 28.3982 26.6615 28.3982 26.6051L33.3911 7.508C33.3911 7.35756 34.6793 7.28234 37.2557 7.28234C39.832 7.28234 41.1202 7.35756 41.1202 7.508L46.0002 26.6333C46.0002 26.7649 45.5677 26.8683 44.7027 26.9436C43.8376 27.0188 43.1512 27.0564 42.6435 27.0564ZM35.2811 19.0452H38.2429L36.9736 13.2061H36.8043L35.2811 19.0452ZM47.3337 21.9225C48.857 22.8439 50.0606 23.3047 50.9444 23.3047C51.5086 23.3047 51.7907 23.1072 51.7907 22.7123C51.7907 22.4302 51.3017 22.0635 50.3238 21.6122C47.9731 20.6531 46.7978 19.0828 46.7978 16.9014C46.7978 15.5098 47.3055 14.4473 48.321 13.7138C49.3365 12.9804 50.5495 12.6137 51.9599 12.6137C53.3891 12.6137 54.5927 12.7642 55.5706 13.065C56.5673 13.3659 57.0656 13.7609 57.0656 14.2498C57.0656 14.6635 56.8588 15.2089 56.445 15.8859C56.0501 16.5629 55.7774 16.9296 55.627 16.986C54.8184 16.5347 53.9439 16.309 53.0036 16.309C52.4959 16.309 52.242 16.4877 52.242 16.845C52.242 17.0706 52.336 17.2681 52.5241 17.4373C52.7309 17.5878 53.0977 17.7852 53.6242 18.0297C54.1508 18.2554 54.5833 18.4622 54.9218 18.6503C55.2791 18.8384 55.674 19.1016 56.1065 19.4401C57.0092 20.1547 57.4605 21.0856 57.4605 22.2328C57.4605 23.7372 56.9622 24.9596 55.9655 25.8998C54.9688 26.8213 53.4644 27.2821 51.4522 27.2821C50.117 27.2821 48.904 27.0564 47.8133 26.6051C46.7226 26.1537 46.1772 25.5331 46.1772 24.7433C46.1772 24.2167 46.2994 23.662 46.5439 23.079C46.8072 22.496 47.0705 22.1105 47.3337 21.9225ZM64.9413 26.8307C64.9413 27.0564 64.1514 27.1692 62.5718 27.1692C60.6912 27.094 59.7509 26.9718 59.7509 26.8025V16.8168H58.3123C57.9362 16.8168 57.7481 16.168 57.7481 14.8704C57.7481 14.5319 57.7763 14.1182 57.8328 13.6292C57.908 13.1403 58.049 12.8958 58.2559 12.8958H59.7509V10.4135C59.7509 10.0374 60.5408 9.8493 62.1204 9.8493C63.7189 9.8493 64.5181 9.99974 64.5181 10.3006V12.106L64.5463 12.8958H66.9441C67.2638 12.8958 67.4236 13.554 67.4236 14.8704C67.4236 16.1868 67.2638 16.845 66.9441 16.845H64.9413V26.8307ZM74.029 26.9718C74.029 27.1034 73.1733 27.1692 71.462 27.1692C69.7507 27.1316 68.8951 27.0564 68.8951 26.9436V17.5784H68.1334C67.8325 17.5784 67.5881 17.3997 67.4 17.0424C67.2308 16.6663 67.1461 16.2056 67.1461 15.6602C67.1461 13.6292 67.7479 12.6137 68.9515 12.6137C69.7977 12.6137 70.5029 12.877 71.0671 13.4035C71.6313 13.9113 71.9134 14.4943 71.9134 15.1525C72.3083 14.3814 72.8348 13.7703 73.493 13.3189C74.17 12.8488 74.8564 12.6137 75.5522 12.6137C76.6429 12.6137 77.3011 12.8958 77.5268 13.46C77.5832 13.6104 77.6114 13.8361 77.6114 14.137C77.6114 14.419 77.5174 14.9362 77.3294 15.6884C77.1601 16.4406 76.9814 16.986 76.7934 17.3245C76.6053 17.663 76.4925 17.8323 76.4549 17.8323C76.4173 17.8323 76.2386 17.7664 75.9189 17.6348C75.618 17.4844 75.3454 17.4091 75.1009 17.4091C74.3863 17.4091 74.029 17.9733 74.029 19.1016V26.9718ZM79.2612 25.3357C78.0952 24.0381 77.5123 22.2422 77.5123 19.9479C77.5123 17.6536 78.0952 15.8577 79.2612 14.5601C80.4459 13.2625 82.035 12.6137 84.0284 12.6137C86.0218 12.6137 87.6015 13.2625 88.7674 14.5601C89.9333 15.8577 90.5163 17.6536 90.5163 19.9479C90.5163 22.2422 89.9333 24.0381 88.7674 25.3357C87.6015 26.6333 86.0218 27.2821 84.0284 27.2821C82.035 27.2821 80.4459 26.6333 79.2612 25.3357ZM84.0284 17.3245C82.9753 17.3245 82.4487 18.1896 82.4487 19.9197C82.4487 21.6498 82.9753 22.5148 84.0284 22.5148C85.1003 22.5148 85.6363 21.6498 85.6363 19.9197C85.6363 18.1896 85.1003 17.3245 84.0284 17.3245ZM96.6571 26.7743C96.6571 26.9436 95.6981 27.0282 93.7799 27.0282C92.2754 27.0094 91.5232 26.9342 91.5232 26.8025V7.59263C91.5232 7.31055 92.4353 7.16951 94.2594 7.16951C95.8579 7.22592 96.6571 7.31995 96.6571 7.45159V26.7743ZM103.384 26.8307C103.384 26.9812 102.519 27.0564 100.789 27.0564C99.0773 27.0564 98.2216 26.9906 98.2216 26.8589V13.0086C98.2216 12.877 99.0773 12.8112 100.789 12.8112C102.519 12.8112 103.384 12.8676 103.384 12.9804V26.8307ZM103.384 11.3161C103.384 11.4478 102.519 11.5136 100.789 11.5136C99.0773 11.5136 98.2216 11.4572 98.2216 11.3443V7.28234C98.2216 7.09428 99.0773 7.00025 100.789 7.00025C102.519 7.00025 103.384 7.05667 103.384 7.16951V11.3161ZM111.435 26.8307C111.435 27.0564 110.646 27.1692 109.066 27.1692C107.185 27.094 106.245 26.9718 106.245 26.8025V16.8168H104.806C104.43 16.8168 104.242 16.168 104.242 14.8704C104.242 14.5319 104.271 14.1182 104.327 13.6292C104.402 13.1403 104.543 12.8958 104.75 12.8958H106.245V10.4135C106.245 10.0374 107.035 9.8493 108.615 9.8493C110.213 9.8493 111.012 9.99974 111.012 10.3006V12.106L111.041 12.8958H113.438C113.758 12.8958 113.918 13.554 113.918 14.8704C113.918 16.1868 113.758 16.845 113.438 16.845H111.435V26.8307ZM119.056 26.8025C119.056 26.9718 118.266 27.0564 116.687 27.0564C115.126 27.0564 114.346 26.9247 114.346 26.6615V7.33875C114.346 7.20712 114.637 7.11309 115.22 7.05667C115.803 7.00025 116.292 6.97205 116.687 6.97205C118.266 6.97205 119.056 7.1413 119.056 7.4798V13.1215C120.109 12.8018 120.909 12.6419 121.454 12.6419C122.883 12.6419 124.012 13.0274 124.839 13.7985C125.666 14.5507 126.08 15.9611 126.08 18.0297V26.7743C126.08 26.9436 125.347 27.0282 123.88 27.0282C122.225 26.9718 121.398 26.8777 121.398 26.7461V18.4528C121.398 17.5314 121.097 17.0706 120.495 17.0706C120.081 17.0706 119.602 17.2681 119.056 17.663V26.8025Z"/>
</mask>
<path d="M42.6435 27.0564C41.0074 27.0564 40.1235 26.7931 39.9919 26.2666L39.061 22.6277H34.5759L33.7578 26.1255C33.645 26.7085 32.7423 27 31.0498 27C30.1472 27 29.4796 26.953 29.047 26.8589C28.6145 26.7461 28.3982 26.6615 28.3982 26.6051L33.3911 7.508C33.3911 7.35756 34.6793 7.28234 37.2557 7.28234C39.832 7.28234 41.1202 7.35756 41.1202 7.508L46.0002 26.6333C46.0002 26.7649 45.5677 26.8683 44.7027 26.9436C43.8376 27.0188 43.1512 27.0564 42.6435 27.0564ZM35.2811 19.0452H38.2429L36.9736 13.2061H36.8043L35.2811 19.0452ZM47.3337 21.9225C48.857 22.8439 50.0606 23.3047 50.9444 23.3047C51.5086 23.3047 51.7907 23.1072 51.7907 22.7123C51.7907 22.4302 51.3017 22.0635 50.3238 21.6122C47.9731 20.6531 46.7978 19.0828 46.7978 16.9014C46.7978 15.5098 47.3055 14.4473 48.321 13.7138C49.3365 12.9804 50.5495 12.6137 51.9599 12.6137C53.3891 12.6137 54.5927 12.7642 55.5706 13.065C56.5673 13.3659 57.0656 13.7609 57.0656 14.2498C57.0656 14.6635 56.8588 15.2089 56.445 15.8859C56.0501 16.5629 55.7774 16.9296 55.627 16.986C54.8184 16.5347 53.9439 16.309 53.0036 16.309C52.4959 16.309 52.242 16.4877 52.242 16.845C52.242 17.0706 52.336 17.2681 52.5241 17.4373C52.7309 17.5878 53.0977 17.7852 53.6242 18.0297C54.1508 18.2554 54.5833 18.4622 54.9218 18.6503C55.2791 18.8384 55.674 19.1016 56.1065 19.4401C57.0092 20.1547 57.4605 21.0856 57.4605 22.2328C57.4605 23.7372 56.9622 24.9596 55.9655 25.8998C54.9688 26.8213 53.4644 27.2821 51.4522 27.2821C50.117 27.2821 48.904 27.0564 47.8133 26.6051C46.7226 26.1537 46.1772 25.5331 46.1772 24.7433C46.1772 24.2167 46.2994 23.662 46.5439 23.079C46.8072 22.496 47.0705 22.1105 47.3337 21.9225ZM64.9413 26.8307C64.9413 27.0564 64.1514 27.1692 62.5718 27.1692C60.6912 27.094 59.7509 26.9718 59.7509 26.8025V16.8168H58.3123C57.9362 16.8168 57.7481 16.168 57.7481 14.8704C57.7481 14.5319 57.7763 14.1182 57.8328 13.6292C57.908 13.1403 58.049 12.8958 58.2559 12.8958H59.7509V10.4135C59.7509 10.0374 60.5408 9.8493 62.1204 9.8493C63.7189 9.8493 64.5181 9.99974 64.5181 10.3006V12.106L64.5463 12.8958H66.9441C67.2638 12.8958 67.4236 13.554 67.4236 14.8704C67.4236 16.1868 67.2638 16.845 66.9441 16.845H64.9413V26.8307ZM74.029 26.9718C74.029 27.1034 73.1733 27.1692 71.462 27.1692C69.7507 27.1316 68.8951 27.0564 68.8951 26.9436V17.5784H68.1334C67.8325 17.5784 67.5881 17.3997 67.4 17.0424C67.2308 16.6663 67.1461 16.2056 67.1461 15.6602C67.1461 13.6292 67.7479 12.6137 68.9515 12.6137C69.7977 12.6137 70.5029 12.877 71.0671 13.4035C71.6313 13.9113 71.9134 14.4943 71.9134 15.1525C72.3083 14.3814 72.8348 13.7703 73.493 13.3189C74.17 12.8488 74.8564 12.6137 75.5522 12.6137C76.6429 12.6137 77.3011 12.8958 77.5268 13.46C77.5832 13.6104 77.6114 13.8361 77.6114 14.137C77.6114 14.419 77.5174 14.9362 77.3294 15.6884C77.1601 16.4406 76.9814 16.986 76.7934 17.3245C76.6053 17.663 76.4925 17.8323 76.4549 17.8323C76.4173 17.8323 76.2386 17.7664 75.9189 17.6348C75.618 17.4844 75.3454 17.4091 75.1009 17.4091C74.3863 17.4091 74.029 17.9733 74.029 19.1016V26.9718ZM79.2612 25.3357C78.0952 24.0381 77.5123 22.2422 77.5123 19.9479C77.5123 17.6536 78.0952 15.8577 79.2612 14.5601C80.4459 13.2625 82.035 12.6137 84.0284 12.6137C86.0218 12.6137 87.6015 13.2625 88.7674 14.5601C89.9333 15.8577 90.5163 17.6536 90.5163 19.9479C90.5163 22.2422 89.9333 24.0381 88.7674 25.3357C87.6015 26.6333 86.0218 27.2821 84.0284 27.2821C82.035 27.2821 80.4459 26.6333 79.2612 25.3357ZM84.0284 17.3245C82.9753 17.3245 82.4487 18.1896 82.4487 19.9197C82.4487 21.6498 82.9753 22.5148 84.0284 22.5148C85.1003 22.5148 85.6363 21.6498 85.6363 19.9197C85.6363 18.1896 85.1003 17.3245 84.0284 17.3245ZM96.6571 26.7743C96.6571 26.9436 95.6981 27.0282 93.7799 27.0282C92.2754 27.0094 91.5232 26.9342 91.5232 26.8025V7.59263C91.5232 7.31055 92.4353 7.16951 94.2594 7.16951C95.8579 7.22592 96.6571 7.31995 96.6571 7.45159V26.7743ZM103.384 26.8307C103.384 26.9812 102.519 27.0564 100.789 27.0564C99.0773 27.0564 98.2216 26.9906 98.2216 26.8589V13.0086C98.2216 12.877 99.0773 12.8112 100.789 12.8112C102.519 12.8112 103.384 12.8676 103.384 12.9804V26.8307ZM103.384 11.3161C103.384 11.4478 102.519 11.5136 100.789 11.5136C99.0773 11.5136 98.2216 11.4572 98.2216 11.3443V7.28234C98.2216 7.09428 99.0773 7.00025 100.789 7.00025C102.519 7.00025 103.384 7.05667 103.384 7.16951V11.3161ZM111.435 26.8307C111.435 27.0564 110.646 27.1692 109.066 27.1692C107.185 27.094 106.245 26.9718 106.245 26.8025V16.8168H104.806C104.43 16.8168 104.242 16.168 104.242 14.8704C104.242 14.5319 104.271 14.1182 104.327 13.6292C104.402 13.1403 104.543 12.8958 104.75 12.8958H106.245V10.4135C106.245 10.0374 107.035 9.8493 108.615 9.8493C110.213 9.8493 111.012 9.99974 111.012 10.3006V12.106L111.041 12.8958H113.438C113.758 12.8958 113.918 13.554 113.918 14.8704C113.918 16.1868 113.758 16.845 113.438 16.845H111.435V26.8307ZM119.056 26.8025C119.056 26.9718 118.266 27.0564 116.687 27.0564C115.126 27.0564 114.346 26.9247 114.346 26.6615V7.33875C114.346 7.20712 114.637 7.11309 115.22 7.05667C115.803 7.00025 116.292 6.97205 116.687 6.97205C118.266 6.97205 119.056 7.1413 119.056 7.4798V13.1215C120.109 12.8018 120.909 12.6419 121.454 12.6419C122.883 12.6419 124.012 13.0274 124.839 13.7985C125.666 14.5507 126.08 15.9611 126.08 18.0297V26.7743C126.08 26.9436 125.347 27.0282 123.88 27.0282C122.225 26.9718 121.398 26.8777 121.398 26.7461V18.4528C121.398 17.5314 121.097 17.0706 120.495 17.0706C120.081 17.0706 119.602 17.2681 119.056 17.663V26.8025Z" fill="url(#paint0_linear_337_5914)"/>
<path d="M39.9919 26.2666L40.962 26.024L40.9606 26.0187L39.9919 26.2666ZM39.061 22.6277L40.0297 22.3799L39.8373 21.6277H39.061V22.6277ZM34.5759 22.6277V21.6277H33.7828L33.6022 22.4L34.5759 22.6277ZM33.7578 26.1255L32.7842 25.8978L32.7798 25.9166L32.7761 25.9355L33.7578 26.1255ZM29.047 26.8589L28.7946 27.8265L28.8145 27.8317L28.8346 27.836L29.047 26.8589ZM28.3982 26.6051L27.4308 26.3521L27.3983 26.4765V26.6051H28.3982ZM33.3911 7.508L34.3585 7.76093L34.3911 7.63656V7.508H33.3911ZM41.1202 7.508H40.1203V7.63357L40.1513 7.75523L41.1202 7.508ZM46.0002 26.6333H47.0002V26.5077L46.9691 26.386L46.0002 26.6333ZM44.7027 26.9436L44.616 25.9474L44.7027 26.9436ZM35.2811 19.0452L34.3135 18.7928L33.9868 20.0452H35.2811V19.0452ZM38.2429 19.0452V20.0452H39.4836L39.2201 18.8328L38.2429 19.0452ZM36.9736 13.2061L37.9507 12.9937L37.7795 12.2062H36.9736V13.2061ZM36.8043 13.2061V12.2062H36.0318L35.8368 12.9537L36.8043 13.2061ZM42.6435 26.0564C41.8597 26.0564 41.3431 25.9912 41.039 25.9006C40.6931 25.7976 40.8947 25.755 40.9619 26.024L39.0218 26.5091C39.2207 27.3047 39.93 27.657 40.468 27.8173C41.0478 27.9899 41.7911 28.0563 42.6435 28.0563V26.0564ZM40.9606 26.0187L40.0297 22.3799L38.0922 22.8755L39.0231 26.5144L40.9606 26.0187ZM39.061 21.6277H34.5759V23.6276H39.061V21.6277ZM33.6022 22.4L32.7842 25.8978L34.7315 26.3532L35.5495 22.8554L33.6022 22.4ZM32.7761 25.9355C32.824 25.6879 33.0146 25.7246 32.6889 25.8298C32.3858 25.9277 31.86 26 31.0498 26V27.9999C31.9322 27.9999 32.704 27.9265 33.3035 27.7329C33.8804 27.5466 34.5788 27.1461 34.7395 26.3155L32.7761 25.9355ZM31.0498 26C30.1609 26 29.5823 25.952 29.2594 25.8818L28.8346 27.836C29.3768 27.9539 30.1334 27.9999 31.0498 27.9999V26ZM29.2994 25.8914C29.0933 25.8376 28.9768 25.8 28.9248 25.7796C28.8926 25.767 28.9266 25.777 28.985 25.8151C29.013 25.8333 29.0899 25.8855 29.1696 25.9791C29.2454 26.0681 29.3982 26.2835 29.3982 26.6051H27.3983C27.3983 26.9407 27.5579 27.1711 27.6472 27.276C27.7404 27.3854 27.8376 27.4544 27.8926 27.4902C28.0051 27.5636 28.1202 27.6123 28.1961 27.642C28.3603 27.7063 28.5683 27.7674 28.7946 27.8265L29.2994 25.8914ZM29.3657 26.858L34.3585 7.76093L32.4237 7.25507L27.4308 26.3521L29.3657 26.858ZM34.3911 7.508C34.3911 7.89219 34.1773 8.13454 34.0651 8.23287C33.9562 8.3282 33.8565 8.36983 33.8298 8.38071C33.7692 8.40549 33.7451 8.40473 33.8052 8.39421C33.9077 8.37626 34.1026 8.35527 34.4155 8.33699C35.0295 8.30114 35.9718 8.28228 37.2557 8.28228V6.2824C35.9631 6.2824 34.9732 6.30114 34.299 6.34052C33.9679 6.35985 33.6797 6.38587 33.4601 6.42434C33.3591 6.44202 33.2143 6.47183 33.0732 6.52952C33.0063 6.55685 32.8763 6.61552 32.7474 6.72849C32.615 6.84445 32.3912 7.10501 32.3912 7.508H34.3911ZM37.2557 8.28228C38.5395 8.28228 39.4819 8.30114 40.0958 8.33699C40.4088 8.35527 40.6036 8.37626 40.7061 8.39421C40.7662 8.40473 40.7421 8.40549 40.6815 8.38071C40.6549 8.36983 40.5551 8.3282 40.4463 8.23287C40.334 8.13454 40.1203 7.89219 40.1203 7.508H42.1201C42.1201 7.10501 41.8963 6.84445 41.764 6.72849C41.635 6.61552 41.505 6.55685 41.4382 6.52952C41.297 6.47183 41.1522 6.44202 41.0512 6.42434C40.8316 6.38587 40.5435 6.35985 40.2124 6.34052C39.5381 6.30114 38.5482 6.2824 37.2557 6.2824V8.28228ZM40.1513 7.75523L45.0314 26.8805L46.9691 26.386L42.0891 7.26078L40.1513 7.75523ZM45.0003 26.6333C45.0003 26.3526 45.1218 26.1446 45.2248 26.0259C45.3183 25.9181 45.4102 25.8652 45.4417 25.8481C45.5032 25.8147 45.5229 25.818 45.4433 25.837C45.3011 25.871 45.0364 25.9108 44.616 25.9474L44.7893 27.9397C45.234 27.9011 45.6181 27.8515 45.9084 27.7821C46.0451 27.7494 46.2269 27.6975 46.3966 27.6053C46.4946 27.552 47.0002 27.2664 47.0002 26.6333H45.0003ZM44.616 25.9474C43.7627 26.0216 43.1091 26.0564 42.6435 26.0564V28.0563C43.1933 28.0563 43.9125 28.016 44.7893 27.9397L44.616 25.9474ZM35.2811 20.0452H38.2429V18.0453H35.2811V20.0452ZM39.2201 18.8328L37.9507 12.9937L35.9965 13.4185L37.2658 19.2576L39.2201 18.8328ZM36.9736 12.2062H36.8043V14.206H36.9736V12.2062ZM35.8368 12.9537L34.3135 18.7928L36.2486 19.2976L37.7719 13.4585L35.8368 12.9537ZM47.3337 21.9225L47.8513 21.0669L47.2881 20.7262L46.7525 21.1088L47.3337 21.9225ZM50.3238 21.6122L50.7429 20.7043L50.7224 20.6948L50.7016 20.6863L50.3238 21.6122ZM48.321 13.7138L48.9065 14.5245L48.321 13.7138ZM55.5706 13.065L55.2765 14.0208L55.2816 14.0223L55.5706 13.065ZM56.445 15.8859L55.5918 15.3645L55.5865 15.3732L55.5813 15.382L56.445 15.8859ZM55.627 16.986L55.1397 17.8592L55.5443 18.085L55.9781 17.9223L55.627 16.986ZM52.5241 17.4373L51.8552 18.1806L51.8939 18.2154L51.9359 18.246L52.5241 17.4373ZM53.6242 18.0297L53.2031 18.9367L53.2166 18.9429L53.2303 18.9488L53.6242 18.0297ZM54.9218 18.6503L54.4362 19.5244L54.4461 19.5299L54.4561 19.5352L54.9218 18.6503ZM56.1065 19.4401L56.7272 18.6561L56.7228 18.6527L56.1065 19.4401ZM55.9655 25.8998L56.6444 26.6341L56.6517 26.6272L55.9655 25.8998ZM47.8133 26.6051L48.1956 25.6811L47.8133 26.6051ZM46.5439 23.079L45.6326 22.6674L45.627 22.6798L45.6218 22.6923L46.5439 23.079ZM46.8162 22.778C48.3663 23.7158 49.7705 24.3046 50.9444 24.3046V22.3047C50.3506 22.3047 49.3477 21.9721 47.8513 21.0669L46.8162 22.778ZM50.9444 24.3046C51.3125 24.3046 51.7668 24.2458 52.1525 23.9758C52.6032 23.6603 52.7906 23.1807 52.7906 22.7123H50.7907C50.7907 22.6922 50.7946 22.6264 50.835 22.5416C50.8778 22.4517 50.9419 22.382 51.0057 22.3374C51.0631 22.2972 51.1003 22.2909 51.0874 22.2939C51.0744 22.2969 51.0303 22.3047 50.9444 22.3047V24.3046ZM52.7906 22.7123C52.7906 22.3476 52.6338 22.0639 52.4975 21.8831C52.3591 21.6993 52.1875 21.5484 52.0239 21.4258C51.6961 21.1799 51.2553 20.9408 50.7429 20.7043L49.9048 22.5201C50.3703 22.7349 50.6629 22.9048 50.824 23.0257C50.9049 23.0863 50.9167 23.1082 50.9004 23.0867C50.8864 23.0681 50.7907 22.936 50.7907 22.7123H52.7906ZM50.7016 20.6863C49.6457 20.2555 48.9312 19.719 48.4798 19.116C48.0361 18.5231 47.7977 17.8016 47.7977 16.9014H45.7979C45.7979 18.1826 46.1472 19.3369 46.8788 20.3144C47.6027 21.2816 48.6513 22.0097 49.9461 22.538L50.7016 20.6863ZM47.7977 16.9014C47.7977 15.7896 48.183 15.047 48.9065 14.5245L47.7356 12.9032C46.428 13.8476 45.7979 15.23 45.7979 16.9014H47.7977ZM48.9065 14.5245C49.7305 13.9294 50.7321 13.6137 51.9599 13.6137V11.6138C50.3669 11.6138 48.9426 12.0315 47.7356 12.9032L48.9065 14.5245ZM51.9599 13.6137C53.3258 13.6137 54.4233 13.7582 55.2765 14.0208L55.8647 12.1093C54.7621 11.7701 53.4525 11.6138 51.9599 11.6138V13.6137ZM55.2816 14.0223C55.7264 14.1566 55.9635 14.2855 56.0708 14.3706C56.1586 14.4401 56.0657 14.3979 56.0657 14.2498H58.0656C58.0656 13.6127 57.7235 13.1286 57.3129 12.8032C56.9219 12.4934 56.4115 12.2744 55.8596 12.1078L55.2816 14.0223ZM56.0657 14.2498C56.0657 14.3766 55.9833 14.7239 55.5918 15.3645L57.2983 16.4073C57.7343 15.6938 58.0656 14.9504 58.0656 14.2498H56.0657ZM55.5813 15.382C55.3914 15.7076 55.246 15.9321 55.1419 16.072C55.0894 16.1427 55.0612 16.1729 55.0557 16.1785C55.0536 16.1806 55.0667 16.167 55.0942 16.1466C55.1188 16.1284 55.1806 16.0855 55.2759 16.0497L55.9781 17.9223C56.22 17.8316 56.3882 17.6742 56.4698 17.5926C56.5701 17.4923 56.663 17.378 56.7468 17.2653C56.9154 17.0385 57.1038 16.7411 57.3088 16.3897L55.5813 15.382ZM56.1143 16.1129C55.1544 15.5771 54.1118 15.3091 53.0036 15.3091V17.3089C53.776 17.3089 54.4824 17.4923 55.1397 17.8592L56.1143 16.1129ZM53.0036 15.3091C52.663 15.3091 52.2289 15.3635 51.8569 15.6252C51.4207 15.9322 51.2421 16.3975 51.2421 16.845H53.2419C53.2419 16.8738 53.2366 16.9471 53.1933 17.0385C53.1476 17.135 53.0787 17.2109 53.0079 17.2608C52.9753 17.2836 52.9474 17.2976 52.9285 17.3056C52.9097 17.3135 52.8989 17.316 52.8988 17.316C52.8987 17.316 52.9069 17.3141 52.9251 17.3123C52.9433 17.3105 52.9691 17.3089 53.0036 17.3089V15.3091ZM51.2421 16.845C51.2421 17.3902 51.4848 17.8472 51.8552 18.1806L53.193 16.6941C53.1816 16.6838 53.1976 16.6952 53.2153 16.7324C53.2343 16.7723 53.2419 16.8139 53.2419 16.845H51.2421ZM51.9359 18.246C52.2282 18.4585 52.6726 18.6904 53.2031 18.9367L54.0453 17.1228C53.5227 16.8801 53.2337 16.717 53.1122 16.6287L51.9359 18.246ZM53.2303 18.9488C53.7389 19.1668 54.1379 19.3587 54.4362 19.5244L55.4074 17.7762C55.0287 17.5658 54.5627 17.344 54.0181 17.1106L53.2303 18.9488ZM54.4561 19.5352C54.7453 19.6874 55.0893 19.9138 55.4903 20.2276L56.7228 18.6527C56.2587 18.2895 55.8129 17.9893 55.3875 17.7654L54.4561 19.5352ZM55.4859 20.2241C56.15 20.7499 56.4606 21.3925 56.4606 22.2328H58.4605C58.4605 20.7788 57.8684 19.5596 56.7272 18.6561L55.4859 20.2241ZM56.4606 22.2328C56.4606 23.4918 56.055 24.4407 55.2793 25.1725L56.6517 26.6272C57.8694 25.4784 58.4605 23.9826 58.4605 22.2328H56.4606ZM55.2867 25.1656C54.5468 25.8497 53.3318 26.2821 51.4522 26.2821V28.282C53.5969 28.282 55.3908 27.7929 56.6443 26.6341L55.2867 25.1656ZM51.4522 26.2821C50.231 26.2821 49.1502 26.0761 48.1956 25.6811L47.431 27.529C48.6578 28.0367 50.0029 28.282 51.4522 28.282V26.2821ZM48.1956 25.6811C47.2649 25.2959 47.1771 24.9387 47.1771 24.7433H45.1773C45.1773 26.1276 46.1803 27.0115 47.431 27.529L48.1956 25.6811ZM47.1771 24.7433C47.1771 24.3733 47.2629 23.9503 47.4661 23.4657L45.6218 22.6923C45.336 23.3737 45.1773 24.0602 45.1773 24.7433H47.1771ZM47.4552 23.4906C47.571 23.2343 47.6754 23.0472 47.7646 22.9166C47.8085 22.8522 47.8451 22.8071 47.8729 22.7768C47.9009 22.7462 47.9156 22.7357 47.915 22.7362L46.7525 21.1088C46.2629 21.4585 45.9103 22.0527 45.6326 22.6674L47.4552 23.4906ZM62.5718 27.1692L62.5318 28.1684L62.5518 28.1692H62.5718V27.1692ZM59.7509 16.8168H60.7509V15.8168H59.7509V16.8168ZM57.8328 13.6292L56.8444 13.4772L56.8416 13.4958L56.8394 13.5146L57.8328 13.6292ZM59.7509 12.8958V13.8957H60.7509V12.8958H59.7509ZM64.5181 12.106H63.5182V12.1238L63.5188 12.1417L64.5181 12.106ZM64.5463 12.8958L63.547 12.9315L63.5815 13.8957H64.5463V12.8958ZM64.9413 16.845V15.845H63.9413V16.845H64.9413ZM63.9413 26.8307C63.9413 26.5337 64.0815 26.3186 64.1972 26.203C64.2975 26.1027 64.3881 26.0645 64.3993 26.0597C64.4229 26.0496 64.3787 26.0702 64.2075 26.0947C63.8852 26.1407 63.3506 26.1693 62.5718 26.1693V28.1692C63.3726 28.1692 64.0227 28.1413 64.4903 28.0745C64.714 28.0425 64.966 27.9926 65.1871 27.8979C65.3129 27.844 65.9412 27.5588 65.9412 26.8307H63.9413ZM62.6117 26.1701C61.6783 26.1327 61.0094 26.0847 60.585 26.0295C60.3649 26.0009 60.257 25.976 60.2233 25.9655C60.1995 25.9581 60.2625 25.9734 60.3516 26.0331C60.4114 26.0731 60.7509 26.3143 60.7509 26.8025H58.751C58.751 27.333 59.1199 27.6151 59.2384 27.6945C59.3863 27.7936 59.5375 27.8467 59.6311 27.8757C59.8325 27.9382 60.0773 27.9802 60.3272 28.0127C60.8432 28.0798 61.5847 28.1305 62.5318 28.1684L62.6117 26.1701ZM60.7509 26.8025V16.8168H58.751V26.8025H60.7509ZM59.7509 15.8168H58.3123V17.8167H59.7509V15.8168ZM58.3123 15.8168C58.5507 15.8168 58.7308 15.9364 58.82 16.039C58.8837 16.1121 58.8768 16.1458 58.8496 16.0518C58.7959 15.8666 58.7481 15.4947 58.7481 14.8704H56.7482C56.7482 15.5436 56.7944 16.1449 56.9288 16.6085C56.9955 16.8389 57.1063 17.1159 57.3109 17.3512C57.5412 17.616 57.8858 17.8167 58.3123 17.8167V15.8168ZM58.7481 14.8704C58.7481 14.5831 58.7723 14.2101 58.8261 13.7438L56.8394 13.5146C56.7804 14.0262 56.7482 14.4807 56.7482 14.8704H58.7481ZM58.8211 13.7813C58.8349 13.6911 58.8493 13.6296 58.8606 13.5912C58.8726 13.5504 58.8764 13.5524 58.8611 13.5788C58.8463 13.6045 58.7959 13.684 58.688 13.7598C58.5681 13.844 58.416 13.8957 58.2559 13.8957V11.8959C57.6691 11.8959 57.3045 12.275 57.1288 12.5795C56.9664 12.8609 56.8889 13.1883 56.8444 13.4772L58.8211 13.7813ZM58.2559 13.8957H59.7509V11.8959H58.2559V13.8957ZM60.7509 12.8958V10.4135H58.751V12.8958H60.7509ZM60.7509 10.4135C60.7509 10.7338 60.5598 10.9235 60.4802 10.9803C60.4262 11.0189 60.43 10.9976 60.5749 10.9631C60.8527 10.897 61.3499 10.8492 62.1204 10.8492V8.84936C61.3113 8.84936 60.6238 8.89567 60.1117 9.01759C59.8617 9.07711 59.5693 9.17336 59.3178 9.35296C59.0408 9.55085 58.751 9.90507 58.751 10.4135H60.7509ZM62.1204 10.8492C62.9049 10.8492 63.4286 10.8874 63.7337 10.9448C63.8955 10.9753 63.9187 10.9977 63.8766 10.9739C63.8413 10.9539 63.5182 10.7529 63.5182 10.3006H65.5181C65.5181 9.69797 65.0951 9.36525 64.86 9.23247C64.618 9.09584 64.3415 9.02422 64.1037 8.97945C63.6096 8.88645 62.9345 8.84936 62.1204 8.84936V10.8492ZM63.5182 10.3006V12.106H65.5181V10.3006H63.5182ZM63.5188 12.1417L63.547 12.9315L65.5456 12.8601L65.5174 12.0703L63.5188 12.1417ZM64.5463 13.8957H66.9441V11.8959H64.5463V13.8957ZM66.9441 13.8957C66.6184 13.8957 66.4169 13.7058 66.3457 13.608C66.294 13.5371 66.3052 13.5148 66.332 13.6254C66.383 13.8353 66.4237 14.232 66.4237 14.8704H68.4235C68.4235 14.1924 68.3843 13.6018 68.2754 13.1535C68.2223 12.935 68.1336 12.6659 67.962 12.4304C67.771 12.1681 67.4295 11.8959 66.9441 11.8959V13.8957ZM66.4237 14.8704C66.4237 15.5088 66.383 15.9055 66.332 16.1153C66.3052 16.226 66.294 16.2037 66.3457 16.1327C66.4169 16.035 66.6184 15.845 66.9441 15.845V17.8449C67.4295 17.8449 67.771 17.5727 67.962 17.3104C68.1336 17.0749 68.2223 16.8058 68.2754 16.5873C68.3843 16.1389 68.4235 15.5484 68.4235 14.8704H66.4237ZM66.9441 15.845H64.9413V17.8449H66.9441V15.845ZM63.9413 16.845V26.8307H65.9412V16.845H63.9413ZM71.462 27.1692L71.44 28.1689L71.451 28.1692H71.462V27.1692ZM68.8951 17.5784H69.895V16.5784H68.8951V17.5784ZM67.4 17.0424L66.4882 17.4528L66.5008 17.4809L66.5152 17.5081L67.4 17.0424ZM71.0671 13.4035L70.3848 14.1346L70.3914 14.1407L70.3982 14.1468L71.0671 13.4035ZM71.9133 15.1525H70.9134L72.8033 15.6083L71.9133 15.1525ZM73.493 13.3189L74.0585 14.1436L74.0634 14.1402L73.493 13.3189ZM77.5268 13.46L78.4631 13.1089L78.4593 13.0987L78.4552 13.0886L77.5268 13.46ZM77.3294 15.6884L76.3593 15.4459L76.3564 15.4574L76.3538 15.4689L77.3294 15.6884ZM75.9189 17.6348L75.4718 18.5292L75.5044 18.5455L75.5382 18.5594L75.9189 17.6348ZM73.029 26.9718C73.029 26.389 73.4918 26.15 73.5148 26.1376C73.6057 26.0887 73.6682 26.0782 73.6437 26.0838C73.612 26.0911 73.5122 26.1074 73.3105 26.1229C72.9224 26.1527 72.3119 26.1693 71.462 26.1693V28.1692C72.3234 28.1692 72.9964 28.1528 73.4639 28.1168C73.6901 28.0994 73.9112 28.0745 74.0934 28.0325C74.1759 28.0134 74.3185 27.9762 74.4629 27.8985C74.5394 27.8573 75.0289 27.5875 75.0289 26.9718H73.029ZM71.484 26.1695C70.6333 26.1508 70.0183 26.1231 69.6244 26.0885C69.4209 26.0706 69.3123 26.0538 69.2701 26.0445C69.2405 26.038 69.291 26.0455 69.3704 26.0839C69.4085 26.1023 69.5108 26.1547 69.616 26.2611C69.7283 26.3746 69.895 26.6061 69.895 26.9436H67.8951C67.8951 27.2951 68.0685 27.5404 68.1942 27.6675C68.3128 27.7874 68.435 27.853 68.4999 27.8843C68.6328 27.9486 68.7636 27.9808 68.8409 27.9978C69.0126 28.0355 69.2249 28.061 69.4492 28.0807C69.911 28.1213 70.5794 28.15 71.44 28.1689L71.484 26.1695ZM69.895 26.9436V17.5784H67.8951V26.9436H69.895ZM68.8951 16.5784H68.1334V18.5783H68.8951V16.5784ZM68.1334 16.5784C68.1588 16.5784 68.1925 16.5825 68.2296 16.5946C68.2667 16.6068 68.2954 16.6232 68.3144 16.6371C68.3491 16.6624 68.3305 16.6634 68.2849 16.5767L66.5152 17.5081C66.8078 18.0641 67.3345 18.5783 68.1334 18.5783V16.5784ZM68.3119 16.6321C68.2162 16.4194 68.1461 16.1075 68.1461 15.6602H66.1462C66.1462 16.3036 66.2453 16.9132 66.4882 17.4528L68.3119 16.6321ZM68.1461 15.6602C68.1461 14.7108 68.2925 14.1638 68.4577 13.8851C68.5742 13.6885 68.6944 13.6137 68.9515 13.6137V11.6138C68.005 11.6138 67.2225 12.0467 66.7372 12.8656C66.3006 13.6023 66.1462 14.5787 66.1462 15.6602H68.1461ZM68.9515 13.6137C69.5711 13.6137 70.0244 13.7982 70.3848 14.1346L71.7494 12.6725C70.9815 11.9558 70.0244 11.6138 68.9515 11.6138V13.6137ZM70.3982 14.1468C70.7872 14.4969 70.9134 14.8223 70.9134 15.1525H72.9133C72.9133 14.1662 72.4753 13.3257 71.736 12.6603L70.3982 14.1468ZM72.8033 15.6083C73.1291 14.9723 73.549 14.493 74.0585 14.1436L72.9275 12.4942C72.1206 13.0475 71.4874 13.7905 71.0234 14.6966L72.8033 15.6083ZM74.0634 14.1402C74.6045 13.7644 75.0957 13.6137 75.5522 13.6137V11.6138C74.6171 11.6138 73.7355 11.9331 72.9227 12.4976L74.0634 14.1402ZM75.5522 13.6137C76.026 13.6137 76.3131 13.6771 76.47 13.7444C76.5428 13.7755 76.5744 13.802 76.5849 13.812C76.593 13.8198 76.5954 13.8238 76.5984 13.8313L78.4552 13.0886C77.9806 11.9019 76.7044 11.6138 75.5522 11.6138V13.6137ZM76.5905 13.8111C76.5826 13.7898 76.59 13.8016 76.5981 13.8661C76.6057 13.9271 76.6115 14.0156 76.6115 14.137H78.6114C78.6114 13.802 78.5838 13.4308 78.4631 13.1089L76.5905 13.8111ZM76.6115 14.137C76.6115 14.2782 76.5505 14.6809 76.3593 15.4459L78.2994 15.9309C78.4843 15.1915 78.6114 14.5599 78.6114 14.137H76.6115ZM76.3538 15.4689C76.1891 16.201 76.035 16.6306 75.9193 16.8389L77.6675 17.8101C77.9279 17.3414 78.1311 16.6803 78.3049 15.9079L76.3538 15.4689ZM75.9193 16.8389C75.8289 17.0015 75.7693 17.1003 75.7357 17.1507C75.7164 17.1796 75.7229 17.1665 75.7498 17.1362C75.7617 17.1229 75.8039 17.0759 75.8726 17.0244C75.908 16.9978 75.9689 16.956 76.0525 16.9184C76.1336 16.8819 76.2736 16.8323 76.4549 16.8323V18.8322C76.7963 18.8322 77.023 18.6614 77.0725 18.6243C77.1552 18.5622 77.2139 18.4993 77.2446 18.4648C77.3091 18.3922 77.3626 18.3156 77.3997 18.26C77.479 18.1411 77.5698 17.986 77.6675 17.8101L75.9193 16.8389ZM76.4549 16.8323C76.5193 16.8323 76.5692 16.8388 76.5935 16.8425C76.6211 16.8466 76.6423 16.8511 76.6544 16.8538C76.6673 16.8567 76.6768 16.8592 76.682 16.8606C76.6874 16.8621 76.6906 16.8631 76.6914 16.8633C76.6925 16.8636 76.6887 16.8625 76.6786 16.859C76.6688 16.8557 76.6556 16.851 76.6384 16.8446C76.5667 16.8182 76.4556 16.7744 76.2997 16.7102L75.5382 18.5594C75.702 18.6268 75.8401 18.6818 75.947 18.7212C75.9993 18.7404 76.0555 18.7602 76.1091 18.7765C76.1108 18.777 76.2717 18.8322 76.4549 18.8322V16.8323ZM76.3661 16.7404C75.9757 16.5452 75.5477 16.4092 75.1009 16.4092V18.4091C75.143 18.4091 75.2603 18.4235 75.4718 18.5292L76.3661 16.7404ZM75.1009 16.4092C74.4298 16.4092 73.8291 16.7021 73.4522 17.2972C73.1241 17.8152 73.029 18.4642 73.029 19.1016H75.0289C75.0289 18.8692 75.0476 18.6945 75.0743 18.5677C75.1013 18.44 75.1319 18.3829 75.1417 18.3673C75.1473 18.3584 75.1339 18.3807 75.0976 18.3998C75.0643 18.4173 75.0554 18.4091 75.1009 18.4091V16.4092ZM73.029 19.1016V26.9718H75.0289V19.1016H73.029ZM79.2612 25.3357L78.5174 26.004L78.5227 26.0099L79.2612 25.3357ZM79.2612 14.5601L78.5227 13.8858L78.5174 13.8918L79.2612 14.5601ZM88.7674 14.5601L88.0236 15.2284L88.7674 14.5601ZM88.7674 25.3357L88.0236 24.6673L88.7674 25.3357ZM80.005 24.6673C79.0503 23.6049 78.5122 22.0749 78.5122 19.9479H76.5123C76.5123 22.4095 77.1402 24.4713 78.5174 26.004L80.005 24.6673ZM78.5122 19.9479C78.5122 17.8209 79.0503 16.2909 80.005 15.2284L78.5174 13.8918C77.1402 15.4245 76.5123 17.4863 76.5123 19.9479H78.5122ZM79.9996 15.2343C80.9685 14.1732 82.2742 13.6137 84.0284 13.6137V11.6138C81.7958 11.6138 79.9234 12.3518 78.5227 13.8859L79.9996 15.2343ZM84.0284 13.6137C85.7828 13.6137 87.0753 14.173 88.0236 15.2284L89.5112 13.8918C88.1276 12.352 86.2608 11.6138 84.0284 11.6138V13.6137ZM88.0236 15.2284C88.9783 16.2909 89.5164 17.8209 89.5164 19.9479H91.5163C91.5163 17.4863 90.8884 15.4245 89.5112 13.8918L88.0236 15.2284ZM89.5164 19.9479C89.5164 22.0749 88.9783 23.6049 88.0236 24.6673L89.5112 26.004C90.8884 24.4713 91.5163 22.4095 91.5163 19.9479H89.5164ZM88.0236 24.6673C87.0753 25.7227 85.7828 26.2821 84.0284 26.2821V28.282C86.2608 28.282 88.1276 27.5438 89.5112 26.004L88.0236 24.6673ZM84.0284 26.2821C82.2742 26.2821 80.9685 25.7226 79.9996 24.6614L78.5227 26.0099C79.9234 27.5439 81.7958 28.282 84.0284 28.282V26.2821ZM84.0284 16.3246C83.1698 16.3246 82.4429 16.7085 81.9895 17.4534C81.5851 18.1178 81.4488 18.9857 81.4488 19.9197H83.4487C83.4487 19.1235 83.5757 18.6939 83.6978 18.4932C83.7499 18.4077 83.7923 18.3776 83.8176 18.3637C83.8446 18.3489 83.9044 18.3244 84.0284 18.3244V16.3246ZM81.4488 19.9197C81.4488 20.8536 81.5851 21.7216 81.9895 22.386C82.4429 23.1308 83.1698 23.5148 84.0284 23.5148V21.5149C83.9044 21.5149 83.8446 21.4904 83.8176 21.4756C83.7923 21.4618 83.7499 21.4317 83.6978 21.3461C83.5757 21.1455 83.4487 20.7159 83.4487 19.9197H81.4488ZM84.0284 23.5148C84.8882 23.5148 85.6226 23.138 86.0843 22.3927C86.4971 21.7265 86.6362 20.8555 86.6362 19.9197H84.6363C84.6363 20.7139 84.5075 21.1406 84.3843 21.3394C84.3317 21.4243 84.2877 21.4561 84.2581 21.4721C84.2262 21.4892 84.1599 21.5149 84.0284 21.5149V23.5148ZM86.6362 19.9197C86.6362 18.9838 86.4971 18.1129 86.0843 17.4467C85.6226 16.7014 84.8882 16.3246 84.0284 16.3246V18.3244C84.1599 18.3244 84.2262 18.3501 84.2581 18.3673C84.2877 18.3832 84.3317 18.4151 84.3843 18.4999C84.5075 18.6988 84.6363 19.1254 84.6363 19.9197H86.6362ZM93.7799 27.0282L93.7674 28.0281H93.7799V27.0282ZM94.2594 7.16951L94.2947 6.17019L94.2771 6.16957H94.2594V7.16951ZM95.6572 26.7743C95.6572 26.2645 96.023 26.0224 96.0867 25.9831C96.1808 25.925 96.2468 25.912 96.2214 25.9187C96.1863 25.928 96.0753 25.9488 95.8499 25.9686C95.4158 26.0069 94.7323 26.0282 93.7799 26.0282V28.0281C94.7456 28.0281 95.5008 28.0071 96.0257 27.9608C96.2799 27.9383 96.5285 27.9062 96.7332 27.852C96.8277 27.827 96.9836 27.7797 97.1376 27.6845C97.2613 27.6082 97.6571 27.3264 97.6571 26.7743H95.6572ZM93.7924 26.0283C93.0468 26.019 92.5181 25.9958 92.1869 25.9627C92.1062 25.9546 92.0437 25.9466 91.9969 25.9392C91.9479 25.9314 91.9284 25.9262 91.9294 25.9265C91.9306 25.9268 91.9446 25.9307 91.9672 25.9395C91.9878 25.9476 92.0327 25.9665 92.0884 26.0013C92.1534 26.0419 92.5232 26.2879 92.5232 26.8025H90.5233C90.5233 27.35 90.9165 27.6272 91.0285 27.6972C91.1738 27.788 91.318 27.8325 91.3991 27.8548C91.5767 27.9036 91.7855 27.9324 91.9879 27.9526C92.4089 27.9947 93.0086 28.0186 93.7674 28.028L93.7924 26.0283ZM92.5232 26.8025V7.59263H90.5233V26.8025H92.5232ZM92.5232 7.59263C92.5232 7.8556 92.408 8.05554 92.3005 8.17199C92.2077 8.2724 92.1233 8.31077 92.115 8.31459C92.1006 8.3213 92.1612 8.29424 92.3601 8.26348C92.7377 8.20508 93.3593 8.16944 94.2594 8.16944V6.16957C93.3354 6.16957 92.5889 6.20445 92.0545 6.28709C91.7973 6.32686 91.5159 6.38795 91.2734 6.50043C91.0951 6.58316 90.5233 6.89231 90.5233 7.59263H92.5232ZM94.2242 8.16882C95.0172 8.19681 95.5833 8.23336 95.9409 8.27543C96.1273 8.29736 96.2137 8.31606 96.2356 8.32222C96.2542 8.32748 96.1888 8.31259 96.0978 8.25697C96.0565 8.23165 95.6572 7.98755 95.6572 7.45159H97.6571C97.6571 6.88271 97.2328 6.60688 97.1415 6.55101C97.0006 6.46483 96.8603 6.42055 96.779 6.3976C96.601 6.34734 96.3878 6.31433 96.1745 6.28925C95.7329 6.23729 95.1002 6.19862 94.2947 6.17019L94.2242 8.16882ZM95.6572 7.45159V26.7743H97.6571V7.45159H95.6572ZM102.384 26.8307C102.384 26.3114 102.761 26.0676 102.823 26.0295C102.92 25.9708 102.989 25.9566 102.969 25.9619C102.945 25.9683 102.85 25.9862 102.648 26.0038C102.261 26.0375 101.647 26.0564 100.789 26.0564V28.0563C101.66 28.0563 102.344 28.0377 102.822 27.9961C103.052 27.9761 103.282 27.9471 103.474 27.897C103.562 27.8741 103.713 27.8294 103.863 27.7378C103.98 27.6667 104.384 27.3876 104.384 26.8307H102.384ZM100.789 26.0564C99.9387 26.0564 99.3282 26.0399 98.94 26.01C98.7384 25.9945 98.6386 25.9783 98.6069 25.971C98.5824 25.9653 98.6448 25.9758 98.7358 26.0248C98.7587 26.0372 99.2215 26.2761 99.2215 26.8589H97.2217C97.2217 27.4746 97.7112 27.7445 97.7876 27.7856C97.9321 27.8634 98.0747 27.9006 98.1572 27.9196C98.3394 27.9617 98.5604 27.9866 98.7867 28.004C99.2541 28.04 99.9271 28.0563 100.789 28.0563V26.0564ZM99.2215 26.8589V13.0086H97.2217V26.8589H99.2215ZM99.2215 13.0086C99.2215 13.5914 98.7587 13.8304 98.7358 13.8428C98.6448 13.8917 98.5824 13.9022 98.6069 13.8966C98.6386 13.8893 98.7384 13.873 98.94 13.8575C99.3282 13.8277 99.9387 13.8111 100.789 13.8111V11.8112C99.9271 11.8112 99.2541 11.8276 98.7867 11.8635C98.5604 11.8809 98.3394 11.9059 98.1572 11.9479C98.0747 11.9669 97.9321 12.0042 97.7876 12.0819C97.7112 12.1231 97.2217 12.3929 97.2217 13.0086H99.2215ZM100.789 13.8111C101.649 13.8111 102.271 13.8253 102.67 13.8513C102.876 13.8647 102.986 13.8792 103.03 13.8877C103.06 13.8937 103.009 13.8874 102.928 13.8504C102.889 13.8328 102.784 13.7817 102.674 13.6747C102.557 13.5595 102.384 13.3243 102.384 12.9804H104.384C104.384 12.6224 104.204 12.3736 104.073 12.2451C103.95 12.125 103.824 12.0611 103.758 12.0311C103.623 11.9695 103.491 11.9402 103.414 11.925C103.241 11.8912 103.026 11.8704 102.8 11.8557C102.334 11.8253 101.658 11.8112 100.789 11.8112V13.8111ZM102.384 12.9804V26.8307H104.384V12.9804H102.384ZM102.384 11.3161C102.384 10.7278 102.855 10.4897 102.873 10.4798C102.963 10.4319 103.024 10.4218 102.999 10.4277C102.965 10.4353 102.863 10.4516 102.659 10.4672C102.266 10.4971 101.648 10.5137 100.789 10.5137V12.5135C101.659 12.5135 102.339 12.4972 102.811 12.4613C103.039 12.4439 103.261 12.4191 103.444 12.3774C103.527 12.3585 103.669 12.3217 103.813 12.245C103.886 12.2063 104.384 11.9374 104.384 11.3161H102.384ZM100.789 10.5137C99.9378 10.5137 99.3229 10.4995 98.9291 10.4735C98.7256 10.4601 98.6175 10.4457 98.5761 10.4375C98.5464 10.4316 98.5988 10.4383 98.6807 10.4761C98.72 10.4942 98.8258 10.5461 98.9348 10.6539C99.0525 10.7703 99.2215 11.0044 99.2215 11.3443H97.2217C97.2217 11.6984 97.3974 11.9461 97.5285 12.0758C97.6508 12.1968 97.7767 12.2615 97.8427 12.2919C97.9781 12.3544 98.1107 12.384 98.188 12.3993C98.3605 12.4334 98.5733 12.4543 98.7976 12.469C99.2594 12.4995 99.928 12.5135 100.789 12.5135V10.5137ZM99.2215 11.3443V7.28234H97.2217V11.3443H99.2215ZM99.2215 7.28234C99.2215 7.68792 98.9783 7.92658 98.8714 8.0088C98.8145 8.05253 98.7666 8.07745 98.7418 8.08928C98.7154 8.10181 98.6983 8.10755 98.6951 8.10859C98.6906 8.11008 98.7095 8.10377 98.7627 8.09402C98.8134 8.08474 98.8824 8.07464 98.9726 8.06473C99.3441 8.02391 99.9412 8.00019 100.789 8.00019V6.00032C99.9246 6.00032 99.2383 6.02362 98.7541 6.07682C98.5214 6.10239 98.2774 6.14056 98.069 6.20926C97.9701 6.24185 97.8081 6.30363 97.652 6.42365C97.4917 6.54701 97.2217 6.82974 97.2217 7.28234H99.2215ZM100.789 8.00019C101.649 8.00019 102.271 8.01437 102.67 8.04039C102.876 8.05382 102.986 8.06832 103.03 8.07679C103.06 8.08277 103.009 8.07644 102.928 8.03947C102.889 8.02185 102.784 7.97074 102.674 7.8638C102.557 7.74859 102.384 7.51342 102.384 7.16951H104.384C104.384 6.81149 104.204 6.56265 104.073 6.43422C103.95 6.31406 103.824 6.25016 103.758 6.22021C103.623 6.15855 103.491 6.1293 103.414 6.11413C103.241 6.08028 103.026 6.05952 102.8 6.04475C102.334 6.01434 101.658 6.00032 100.789 6.00032V8.00019ZM102.384 7.16951V11.3161H104.384V7.16951H102.384ZM109.066 27.1692L109.026 28.1684L109.046 28.1692H109.066V27.1692ZM106.245 16.8168H107.245V15.8168H106.245V16.8168ZM104.327 13.6292L103.339 13.4772L103.336 13.4958L103.334 13.5146L104.327 13.6292ZM106.245 12.8958V13.8957H107.245V12.8958H106.245ZM111.012 12.106H110.012V12.1238L110.013 12.1417L111.012 12.106ZM111.041 12.8958L110.041 12.9315L110.076 13.8957H111.041V12.8958ZM111.435 16.845V15.845H110.436V16.845H111.435ZM110.436 26.8307C110.436 26.5337 110.576 26.3186 110.691 26.203C110.792 26.1027 110.882 26.0645 110.893 26.0597C110.917 26.0496 110.873 26.0702 110.702 26.0947C110.379 26.1407 109.845 26.1693 109.066 26.1693V28.1692C109.867 28.1692 110.517 28.1413 110.984 28.0745C111.208 28.0425 111.46 27.9926 111.681 27.8979C111.807 27.844 112.435 27.5588 112.435 26.8307H110.436ZM109.106 26.1701C108.172 26.1327 107.504 26.0847 107.079 26.0295C106.859 26.0009 106.751 25.976 106.717 25.9655C106.694 25.9581 106.757 25.9734 106.846 26.0331C106.906 26.0731 107.245 26.3143 107.245 26.8025H105.245C105.245 27.333 105.614 27.6151 105.733 27.6945C105.88 27.7936 106.032 27.8467 106.125 27.8757C106.327 27.9382 106.571 27.9802 106.821 28.0127C107.337 28.0798 108.079 28.1305 109.026 28.1684L109.106 26.1701ZM107.245 26.8025V16.8168H105.245V26.8025H107.245ZM106.245 15.8168H104.806V17.8167H106.245V15.8168ZM104.806 15.8168C105.045 15.8168 105.225 15.9364 105.314 16.039C105.378 16.1121 105.371 16.1458 105.344 16.0518C105.29 15.8666 105.242 15.4947 105.242 14.8704H103.242C103.242 15.5436 103.289 16.1449 103.423 16.6085C103.49 16.8389 103.6 17.1159 103.805 17.3512C104.035 17.616 104.38 17.8167 104.806 17.8167V15.8168ZM105.242 14.8704C105.242 14.5831 105.266 14.2101 105.32 13.7438L103.334 13.5146C103.275 14.0262 103.242 14.4807 103.242 14.8704H105.242ZM105.315 13.7813C105.329 13.6911 105.343 13.6296 105.355 13.5912C105.367 13.5504 105.371 13.5524 105.355 13.5788C105.34 13.6045 105.29 13.684 105.182 13.7598C105.062 13.844 104.91 13.8957 104.75 13.8957V11.8959C104.163 11.8959 103.799 12.275 103.623 12.5795C103.461 12.8609 103.383 13.1883 103.339 13.4772L105.315 13.7813ZM104.75 13.8957H106.245V11.8959H104.75V13.8957ZM107.245 12.8958V10.4135H105.245V12.8958H107.245ZM107.245 10.4135C107.245 10.7338 107.054 10.9235 106.974 10.9803C106.92 11.0189 106.924 10.9976 107.069 10.9631C107.347 10.897 107.844 10.8492 108.615 10.8492V8.84936C107.805 8.84936 107.118 8.89567 106.606 9.01759C106.356 9.07711 106.063 9.17336 105.812 9.35296C105.535 9.55085 105.245 9.90507 105.245 10.4135H107.245ZM108.615 10.8492C109.399 10.8492 109.923 10.8874 110.228 10.9448C110.39 10.9753 110.413 10.9977 110.371 10.9739C110.335 10.9539 110.012 10.7529 110.012 10.3006H112.012C112.012 9.69797 111.589 9.36525 111.354 9.23247C111.112 9.09584 110.836 9.02422 110.598 8.97945C110.104 8.88645 109.429 8.84936 108.615 8.84936V10.8492ZM110.012 10.3006V12.106H112.012V10.3006H110.012ZM110.013 12.1417L110.041 12.9315L112.04 12.8601L112.012 12.0703L110.013 12.1417ZM111.041 13.8957H113.438V11.8959H111.041V13.8957ZM113.438 13.8957C113.113 13.8957 112.911 13.7058 112.84 13.608C112.788 13.5371 112.799 13.5148 112.826 13.6254C112.877 13.8353 112.918 14.232 112.918 14.8704H114.918C114.918 14.1924 114.878 13.6018 114.77 13.1535C114.717 12.935 114.628 12.6659 114.456 12.4304C114.265 12.1681 113.924 11.8959 113.438 11.8959V13.8957ZM112.918 14.8704C112.918 15.5088 112.877 15.9055 112.826 16.1153C112.799 16.226 112.788 16.2037 112.84 16.1327C112.911 16.035 113.113 15.845 113.438 15.845V17.8449C113.924 17.8449 114.265 17.5727 114.456 17.3104C114.628 17.0749 114.717 16.8058 114.77 16.5873C114.878 16.1389 114.918 15.5484 114.918 14.8704H112.918ZM113.438 15.845H111.435V17.8449H113.438V15.845ZM110.436 16.845V26.8307H112.435V16.845H110.436ZM115.22 7.05667L115.316 8.05196L115.22 7.05667ZM119.056 13.1215H118.056V14.47L119.347 14.0783L119.056 13.1215ZM124.839 13.7985L124.157 14.5301L124.166 14.5384L124.839 13.7985ZM123.88 27.0282L123.846 28.0275L123.863 28.0281H123.88V27.0282ZM119.056 17.663L118.47 16.8531L118.056 17.1525V17.663H119.056ZM118.056 26.8025C118.056 26.3834 118.313 26.1417 118.419 26.0621C118.477 26.0186 118.526 25.9938 118.552 25.9818C118.579 25.9692 118.598 25.9631 118.602 25.9616C118.603 25.9614 118.537 25.9795 118.357 25.9987C118.017 26.0351 117.469 26.0564 116.687 26.0564V28.0563C117.485 28.0563 118.121 28.0354 118.57 27.9872C118.786 27.9641 119.016 27.9293 119.214 27.8656C119.308 27.8355 119.466 27.7773 119.619 27.662C119.775 27.5453 120.056 27.2639 120.056 26.8025H118.056ZM116.687 26.0564C115.92 26.0564 115.402 26.0231 115.097 25.9716C114.935 25.9443 114.906 25.9232 114.943 25.942C114.945 25.943 115.345 26.1432 115.345 26.6615H113.346C113.346 27.3114 113.843 27.6267 114.04 27.7265C114.273 27.844 114.537 27.9052 114.765 27.9437C115.24 28.0239 115.893 28.0563 116.687 28.0563V26.0564ZM115.345 26.6615V7.33875H113.346V26.6615H115.345ZM115.345 7.33875C115.345 7.72616 115.117 7.95683 115.012 8.03775C114.916 8.11204 114.846 8.12941 114.871 8.12115C114.912 8.10798 115.044 8.0783 115.316 8.05196L115.124 6.06138C114.813 6.09146 114.508 6.137 114.257 6.21785C114.137 6.25661 113.957 6.3257 113.788 6.4564C113.611 6.59374 113.346 6.88553 113.346 7.33875H115.345ZM115.316 8.05196C115.881 7.99732 116.335 7.97198 116.687 7.97198V5.97211C116.248 5.97211 115.725 6.00319 115.124 6.06138L115.316 8.05196ZM116.687 7.97198C117.46 7.97198 117.966 8.01492 118.254 8.07673C118.406 8.1093 118.418 8.13105 118.368 8.09878C118.302 8.05653 118.056 7.85849 118.056 7.4798H120.056C120.056 6.93185 119.712 6.58571 119.449 6.41653C119.201 6.25732 118.916 6.17329 118.673 6.12124C118.172 6.0138 117.494 5.97211 116.687 5.97211V7.97198ZM118.056 7.4798V13.1215H120.056V7.4798H118.056ZM119.347 14.0783C120.381 13.7643 121.063 13.6419 121.454 13.6419V11.642C120.754 11.642 119.838 11.8392 118.766 12.1646L119.347 14.0783ZM121.454 13.6419C122.7 13.6419 123.56 13.9736 124.157 14.53L125.521 13.0669C124.463 12.0813 123.067 11.642 121.454 11.642V13.6419ZM124.166 14.5384C124.665 14.9919 125.08 16.0239 125.08 18.0297H127.08C127.08 15.8984 126.668 14.1095 125.512 13.0586L124.166 14.5384ZM125.08 18.0297V26.7743H127.08V18.0297H125.08ZM125.08 26.7743C125.08 26.3873 125.303 26.1487 125.418 26.0559C125.524 25.9699 125.613 25.9412 125.616 25.9404C125.629 25.9357 125.579 25.9525 125.416 25.9714C125.108 26.0069 124.605 26.0282 123.88 26.0282V28.0281C124.622 28.0281 125.219 28.0072 125.645 27.9581C125.848 27.9346 126.073 27.8985 126.27 27.8303C126.364 27.7978 126.522 27.7347 126.674 27.6117C126.835 27.4818 127.08 27.2036 127.08 26.7743H125.08ZM123.914 26.0288C123.093 26.0008 122.504 25.9642 122.131 25.9218C121.937 25.8998 121.843 25.8806 121.816 25.8731C121.794 25.8672 121.856 25.8804 121.945 25.9328C121.975 25.9504 122.398 26.1931 122.398 26.7461H120.398C120.398 27.332 120.846 27.6064 120.928 27.6546C121.068 27.7375 121.208 27.7802 121.29 27.8025C121.469 27.8514 121.686 27.8839 121.905 27.9089C122.36 27.9605 123.012 27.9991 123.846 28.0275L123.914 26.0288ZM122.398 26.7461V18.4528H120.398V26.7461H122.398ZM122.398 18.4528C122.398 17.9151 122.316 17.3386 122.009 16.8694C121.654 16.3263 121.096 16.0707 120.495 16.0707V18.0706C120.517 18.0706 120.487 18.0742 120.435 18.0477C120.38 18.0192 120.346 17.9809 120.335 17.9629C120.327 17.9518 120.345 17.9746 120.364 18.0608C120.383 18.1464 120.398 18.2738 120.398 18.4528H122.398ZM120.495 16.0707C119.775 16.0707 119.088 16.4056 118.47 16.8531L119.643 18.4729C120.116 18.1305 120.387 18.0706 120.495 18.0706V16.0707ZM118.056 17.663V26.8025H120.056V17.663H118.056Z" fill="white" mask="url(#path-1-outside-1_337_5914)"/>
</g>
<path d="M15.1742 17.3482L0.3824 15.6823L0 16.4247L7.02218 20.9636L7.05698 20.9576L16.0955 18.4467L15.6783 17.4025L15.1742 17.3482Z" fill="url(#paint1_linear_337_5914)"/>
<path d="M15.9003 17.4426L9.3852 19.4905L7.47962 20.0893L6.89893 20.9635L17.5155 18.1612L18.3957 17.6941L15.9003 17.4426Z" fill="url(#paint2_linear_337_5914)"/>
<path d="M15.594 16.0718L10.6881 13.824L8.98058 13.0416L0 15.2629L1.16547 16.0121L7.52593 20.0834L9.50455 19.6258L12.9739 18.8302L17.7895 17.7162L18.3948 17.4311L15.594 16.0718Z" fill="url(#paint3_linear_337_5914)"/>
<path d="M5.36444 15.6823L8.90018 17.4352L16.0156 17.4427L16.0947 17.2538L5.36444 15.6823Z" fill="url(#paint4_linear_337_5914)"/>
<g style="mix-blend-mode:soft-light">
<path d="M5.36444 16.135L16.0947 17.4427L9.88525 15.6823L5.36444 16.135Z" fill="white"/>
</g>
<path d="M16.9705 16.2294L9.96375 6.52515L10.8247 5.99989L19.1611 9.29231V9.32434L18.7349 16.4921L17.2091 16.5625L16.9705 16.2294Z" fill="url(#paint5_linear_337_5914)"/>
<path d="M16.8627 15.8743L17.73 10.817L17.9821 9.33821L19.162 8.64044L18.6074 16.7001L18.1838 17.4426L16.8627 15.8743Z" fill="url(#paint6_linear_337_5914)"/>
<path d="M15.7447 16.029L11.5251 13.5043L10.0566 12.6207L9.96375 5.99989L11.2213 6.53638L18.074 9.45232L18.1415 10.8977L18.2512 13.4286L18.3947 16.9568L18.2427 17.4428L15.7447 16.029Z" fill="url(#paint7_linear_337_5914)"/>
<g style="mix-blend-mode:soft-light">
<path d="M11.4982 9.52081L14.985 11.4909L17.6298 16.452L17.4317 16.5626L11.4982 9.52081Z" fill="white"/>
</g>
<path d="M11.4982 9.52081L16.8634 16.5626L12.4118 12.8369L11.4982 9.52081Z" fill="url(#paint8_linear_337_5914)"/>
<path d="M16.5311 19.4764L6.89893 27.4115L7.64125 28.0054L16.973 26.081L16.9818 26.0573L18.3957 19.4705L16.8581 19.2032L16.5311 19.4764Z" fill="url(#paint9_linear_337_5914)"/>
<path d="M16.7751 18.8314L16.2464 23.9301L16.0954 25.4218L16.8926 26.2448L18.3947 18.227L18.2353 17.4426L16.7751 18.8314Z" fill="url(#paint10_linear_337_5914)"/>
<path d="M15.4356 18.5325L10.4493 20.5209L8.71374 21.2145L6.89893 28.0052L8.32611 27.6353L16.114 25.6404L16.5545 24.1607L17.3209 21.5712L18.3957 17.9644L18.3605 17.4426L15.4356 18.5325Z" fill="url(#paint11_linear_337_5914)"/>
<path d="M9.96375 24.4845L13.4 23.1975L16.8618 19.3142L16.7165 19.2032L9.96375 24.4845Z" fill="url(#paint12_linear_337_5914)"/>
<g style="mix-blend-mode:soft-light">
<path d="M9.96375 24.4845L16.8618 19.2032L11.6664 21.8161L9.96375 24.4845Z" fill="white"/>
</g>
<path style="mix-blend-mode:multiply" d="M18.241 17.5789L18.3044 17.3845L18.1504 13.9891L18.1051 13.0416L16.3028 14.6148L16.4024 15.6838L15.1888 14.9913L15.9134 16.4977L15.4605 16.4916L15.696 16.607L15.3609 16.4612L14.3375 17.0929L14.9352 17.3541L15.3337 18.4414L12.68 19.0002L12.2634 19.5347L12.7887 19.3889L12.7706 19.395L15.1345 19.6562L15.9858 19.3768L15.6779 20.2636L16.6288 22.8997L17.2538 23.6042L18.395 18.2652L18.241 17.5789Z" fill="url(#paint13_linear_337_5914)"/>
<path style="mix-blend-mode:multiply" d="M19.927 20.4388C18.9958 20.8485 17.8613 21.0277 16.7369 20.9428C16.3088 19.7283 16.0934 18.4875 16.0948 17.2429C16.0917 16.4724 16.1755 15.7028 16.3456 14.94C16.8815 14.8216 17.4515 14.7785 18.0161 14.8138C18.5807 14.849 19.1265 14.9617 19.616 15.1441C19.2257 16.9068 19.331 18.6996 19.927 20.4388Z" fill="url(#paint14_linear_337_5914)"/>
<path d="M21.4608 17.4498C21.4625 18.1224 21.0522 18.7698 20.3142 19.2588C19.5763 19.7478 18.567 20.0412 17.494 20.0786C17.4131 20.0847 17.3313 20.0847 17.2504 20.0786C16.1319 20.0769 15.06 19.7981 14.2691 19.303C13.4782 18.808 13.0326 18.1371 13.03 17.4371C13.033 16.9181 13.2762 16.4109 13.73 15.9766C14.2392 15.4999 14.9841 15.1408 15.8504 14.9543C16.2988 14.8514 16.7729 14.7998 17.2504 14.8019C17.8054 14.8011 18.3552 14.8691 18.868 15.002C19.3807 15.1349 19.8463 15.3301 20.2378 15.5763C20.6293 15.8225 20.939 16.1149 21.1489 16.4364C21.3588 16.758 21.4648 17.1024 21.4608 17.4498Z" fill="url(#paint15_linear_337_5914)"/>
<path style="mix-blend-mode:color-dodge" opacity="0.5" d="M20.6739 19.1995C20.3212 19.515 19.8639 19.7753 19.3355 19.9613C18.8072 20.1472 18.2212 20.2542 17.6206 20.2742L17.3849 19.8863C17.3849 19.8863 14.7341 17.0182 13.9781 16.1787C14.4709 15.7013 15.1917 15.3417 16.0301 15.1549L16.2657 15.5174L20.1929 19.0023L20.6739 19.1995Z" fill="url(#paint16_linear_337_5914)"/>
<path d="M17.2462 20.0832C19.1511 20.0832 20.6953 19.098 20.6953 17.8826C20.6953 16.6673 19.1511 15.6821 17.2462 15.6821C15.3414 15.6821 13.7972 16.6673 13.7972 17.8826C13.7972 19.098 15.3414 20.0832 17.2462 20.0832Z" fill="url(#paint17_linear_337_5914)"/>
<path style="mix-blend-mode:color-dodge" opacity="0.5" d="M17.3854 19.7531C18.2576 19.7531 19.0942 19.5286 19.711 19.1291C20.3278 18.7296 20.6744 18.1877 20.6744 17.6227C20.6699 17.3861 20.6035 17.1517 20.478 16.9295C18.6509 17.7129 16.6229 18.2793 14.4891 18.602C14.7618 18.9478 15.1764 19.2383 15.6874 19.4413C16.1983 19.6444 16.7859 19.7523 17.3854 19.7531Z" fill="url(#paint18_linear_337_5914)"/>
<path d="M20.6961 17.4425C20.6961 17.7907 20.5163 18.1311 20.1794 18.4206C19.8425 18.7101 19.3637 18.9357 18.8035 19.069C18.2433 19.2022 17.6268 19.2371 17.0321 19.1691C16.4374 19.1012 15.8911 18.9335 15.4624 18.6873C15.0336 18.4411 14.7416 18.1275 14.6234 17.786C14.5051 17.4445 14.5658 17.0905 14.7978 16.7688C15.0299 16.4472 15.4228 16.1722 15.927 15.9788C16.4312 15.7853 17.0239 15.6821 17.6302 15.6821C18.4433 15.6821 19.2232 15.8676 19.7981 16.1977C20.3731 16.5278 20.6961 16.9756 20.6961 17.4425Z" fill="url(#paint19_radial_337_5914)"/>
<path style="mix-blend-mode:multiply" d="M20.1155 16.6557C20.1252 16.7425 20.1252 16.8297 20.1155 16.9165C20.0992 17.3885 19.807 17.8388 19.2978 18.1766C18.7886 18.5144 18.1005 18.7144 17.3724 18.7362C16.6444 18.758 15.9307 18.6 15.3756 18.2941C14.8205 17.9882 14.4653 17.5572 14.3818 17.0882C14.3045 17.2664 14.2616 17.4501 14.2543 17.6351C14.2543 18.1698 14.5822 18.6825 15.1658 19.0606C15.7495 19.4386 16.5411 19.651 17.3665 19.651C18.1919 19.651 18.9835 19.4386 19.5672 19.0606C20.1509 18.6825 20.4788 18.1698 20.4788 17.6351C20.4854 17.2941 20.3606 16.9575 20.1155 16.6557Z" fill="url(#paint20_linear_337_5914)"/>
<path d="M16.4132 16.5622C15.1582 16.5622 15.0738 17.4216 15.7487 17.442C16.4237 17.4625 17.4678 16.5622 16.4132 16.5622Z" fill="url(#paint21_linear_337_5914)"/>
<path d="M142.766 16.7364L157.566 18.304L157.945 17.5591L150.9 13.0669L150.865 13.0731L141.839 15.644L142.262 16.6854L142.766 16.7364Z" fill="url(#paint22_linear_337_5914)"/>
<path d="M142.042 16.6466L148.547 14.5555L150.449 13.9441L151.026 13.066L140.423 15.9388L139.546 16.4117L142.042 16.6466Z" fill="url(#paint23_linear_337_5914)"/>
<path d="M142.352 18.0154L147.269 20.2306L148.981 21.0017L157.95 18.7208L156.781 17.9793L150.4 13.9504L148.424 14.421L144.958 15.2397L140.149 16.3856L139.545 16.6748L142.352 18.0154Z" fill="url(#paint24_linear_337_5914)"/>
<path d="M152.582 18.3371L149.038 16.6078L141.922 16.6475L141.844 16.8369L152.582 18.3371Z" fill="url(#paint25_linear_337_5914)"/>
<g style="mix-blend-mode:soft-light">
<path d="M152.58 17.8844L141.843 16.648L148.061 18.3672L152.58 17.8844Z" fill="white"/>
</g>
<path d="M140.975 17.867L148.031 27.5246L147.173 28.0556L138.82 24.8186L138.82 24.7866L139.21 17.6161L140.735 17.5355L140.975 17.867Z" fill="url(#paint26_linear_337_5914)"/>
<path d="M141.088 18.2213L140.246 23.2842L140.001 24.7647L138.825 25.4703L139.339 17.4071L139.759 16.6617L141.088 18.2213Z" fill="url(#paint27_linear_337_5914)"/>
<path d="M142.202 18.0594L146.434 20.5559L147.907 21.4298L148.034 28.0499L146.773 27.5217L139.906 24.6514L139.831 23.2065L139.709 20.6763L139.548 17.1492L139.697 16.6622L142.202 18.0594Z" fill="url(#paint28_linear_337_5914)"/>
<g style="mix-blend-mode:soft-light">
<path d="M146.484 24.5394L142.988 22.5925L140.318 17.649L140.515 17.5372L146.484 24.5394Z" fill="white"/>
</g>
<path d="M146.484 24.5394L141.084 17.5334L145.554 21.2295L146.484 24.5394Z" fill="url(#paint29_linear_337_5914)"/>
<path d="M141.401 14.617L150.994 6.61809L150.248 6.02909L140.926 8.01541L140.918 8.03923L139.537 14.6353L141.076 14.8924L141.401 14.617Z" fill="url(#paint30_linear_337_5914)"/>
<path d="M141.16 15.2634L141.663 10.1612L141.807 8.6686L141.005 7.8509L139.544 15.8785L139.707 16.6619L141.16 15.2634Z" fill="url(#paint31_linear_337_5914)"/>
<path d="M142.501 15.5536L147.478 13.5322L149.21 12.827L150.99 6.02436L149.565 6.40375L141.787 8.4504L141.354 9.93299L140.601 12.5275L139.544 16.1413L139.582 16.663L142.501 15.5536Z" fill="url(#paint32_linear_337_5914)"/>
<path d="M147.943 9.56546L144.514 10.8753L141.072 14.7816L141.217 14.8915L147.943 9.56546Z" fill="url(#paint33_linear_337_5914)"/>
<g style="mix-blend-mode:soft-light">
<path d="M147.943 9.56546L141.072 14.8925L146.254 12.2451L147.943 9.56546Z" fill="white"/>
</g>
<path style="mix-blend-mode:multiply" d="M139.7 16.5262L139.637 16.7209L139.808 20.1152L139.858 21.0624L141.653 19.4773L141.548 18.409L142.765 19.0933L142.033 17.5918L142.486 17.5949L142.25 17.4811L142.585 17.6246L143.606 16.9861L143.007 16.7289L142.603 15.6444L145.253 15.0679L145.667 14.5307L145.143 14.6799L145.161 14.6737L142.796 14.4283L141.946 14.7133L142.249 13.8245L141.285 11.1947L140.657 10.4943L139.542 15.8408L139.7 16.5262Z" fill="url(#paint34_linear_337_5914)"/>
<path style="mix-blend-mode:multiply" d="M138 13.6769C138.929 13.261 140.063 13.0743 141.188 13.1517C141.622 14.3633 141.844 15.6027 141.848 16.8473C141.855 17.6177 141.776 18.3879 141.609 19.1518C141.074 19.2738 140.504 19.3206 139.94 19.2891C139.375 19.2576 138.828 19.1486 138.338 18.9694C138.719 17.2042 138.605 15.4121 138 13.6769Z" fill="url(#paint35_linear_337_5914)"/>
<path d="M136.482 16.6761C136.477 16.0035 136.884 15.3533 137.619 14.8594C138.354 14.3655 139.362 14.0655 140.435 14.021C140.516 14.0143 140.598 14.0138 140.679 14.0194C141.797 14.0136 142.87 14.2853 143.664 14.7751C144.457 15.2648 144.906 15.9328 144.912 16.6328C144.912 17.1517 144.671 17.6606 144.22 18.0979C143.713 18.578 142.97 18.942 142.104 19.1343C141.657 19.2401 141.183 19.2949 140.705 19.2959C140.15 19.3005 139.6 19.2361 139.087 19.1066C138.573 18.9771 138.107 18.785 137.714 18.5414C137.321 18.2978 137.01 18.0075 136.799 17.6873C136.587 17.3672 136.479 17.0235 136.482 16.6761Z" fill="url(#paint36_linear_337_5914)"/>
<path style="mix-blend-mode:color-dodge" opacity="0.5" d="M137.258 14.9261C137.61 14.6083 138.066 14.3449 138.594 14.1551C139.122 13.9653 139.708 13.854 140.308 13.8295L140.546 14.2151C140.546 14.2151 143.21 17.0593 143.97 17.8919C143.48 18.3725 142.76 18.7371 141.922 18.9301L141.685 18.5698L137.74 15.1193L137.258 14.9261Z" fill="url(#paint37_linear_337_5914)"/>
<path d="M140.683 14.0146C138.778 14.0273 137.239 15.0227 137.245 16.238C137.251 17.4534 138.8 18.4283 140.705 18.4157C142.61 18.403 144.149 17.4075 144.143 16.1922C144.137 14.9769 142.588 14.002 140.683 14.0146Z" fill="url(#paint38_linear_337_5914)"/>
<path style="mix-blend-mode:color-dodge" opacity="0.5" d="M140.545 14.3489C139.673 14.3555 138.837 14.5859 138.222 14.9892C137.606 15.3926 137.262 15.936 137.265 16.4998C137.27 16.7358 137.338 16.9692 137.464 17.19C139.288 16.3943 141.314 15.8137 143.447 15.4754C143.173 15.1324 142.757 14.8458 142.245 14.647C141.733 14.4483 141.145 14.3451 140.545 14.3489Z" fill="url(#paint39_linear_337_5914)"/>
<path d="M137.249 16.6781C137.247 16.3299 137.425 15.9884 137.76 15.6966C138.096 15.4049 138.574 15.1761 139.133 15.0391C139.693 14.9021 140.309 14.8632 140.904 14.9272C141.499 14.9911 142.046 15.1552 142.476 15.3985C142.906 15.6419 143.2 15.9536 143.32 16.2943C143.44 16.635 143.381 16.9894 143.15 17.3126C142.92 17.6358 142.528 17.9133 142.025 18.1101C141.522 18.3069 140.93 18.4141 140.323 18.4181C139.51 18.4235 138.729 18.2432 138.153 17.9169C137.576 17.5906 137.251 17.145 137.249 16.6781Z" fill="url(#paint40_radial_337_5914)"/>
<path style="mix-blend-mode:multiply" d="M137.831 17.4608C137.821 17.3743 137.821 17.2873 137.83 17.2006C137.844 16.7295 138.134 16.2778 138.642 15.9368C139.15 15.5959 139.838 15.391 140.566 15.3637C141.294 15.3364 142.008 15.4887 142.565 15.7897C143.122 16.0908 143.479 16.5182 143.564 16.9856C143.641 16.8072 143.683 16.6235 143.69 16.4388C143.687 15.9053 143.357 15.396 142.772 15.0232C142.186 14.6503 141.393 14.4444 140.568 14.4507C139.742 14.457 138.951 14.6749 138.369 15.0567C137.787 15.4384 137.461 15.9526 137.463 16.4862C137.458 16.8265 137.585 17.1615 137.831 17.4608Z" fill="url(#paint41_linear_337_5914)"/>
<path d="M141.534 17.5297C142.789 17.5214 142.869 16.6614 142.194 16.6455C141.519 16.6295 140.479 17.5367 141.534 17.5297Z" fill="url(#paint42_linear_337_5914)"/>
<defs>
<filter id="filter0_d_337_5914" x="28.3983" y="6.97205" width="97.6819" height="22.3099" filterUnits="userSpaceOnUse" color-interpolation-filters="sRGB">
<feFlood flood-opacity="0" result="BackgroundImageFix"/>
<feColorMatrix in="SourceAlpha" type="matrix" values="0 0 0 0 0 0 0 0 0 0 0 0 0 0 0 0 0 0 127 0" result="hardAlpha"/>
<feOffset dy="1.99988"/>
<feComposite in2="hardAlpha" operator="out"/>
<feColorMatrix type="matrix" values="0 0 0 0 0.0313726 0 0 0 0 0.00784314 0 0 0 0 0.0235294 0 0 0 1 0"/>
<feBlend mode="normal" in2="BackgroundImageFix" result="effect1_dropShadow_337_5914"/>
<feBlend mode="normal" in="SourceGraphic" in2="effect1_dropShadow_337_5914" result="shape"/>
</filter>
<linearGradient id="paint0_linear_337_5914" x1="42.8067" y1="5.1158" x2="49.9535" y2="64.137" gradientUnits="userSpaceOnUse">
<stop stop-color="#FFB092"/>
<stop offset="0.4" stop-color="#E6492E"/>
<stop offset="1" stop-color="#C42729"/>
</linearGradient>
<linearGradient id="paint1_linear_337_5914" x1="12.6558" y1="20.7884" x2="9.74014" y2="15.9737" gradientUnits="userSpaceOnUse">
<stop stop-color="#FFB092"/>
<stop offset="0.4" stop-color="#E6492E"/>
<stop offset="1" stop-color="#C42729"/>
</linearGradient>
<linearGradient id="paint2_linear_337_5914" x1="14.8136" y1="23.1353" x2="13.9903" y2="19.8202" gradientUnits="userSpaceOnUse">
<stop stop-color="#FFB092"/>
<stop offset="0.4" stop-color="#E6492E"/>
<stop offset="1" stop-color="#C42729"/>
</linearGradient>
<linearGradient id="paint3_linear_337_5914" x1="2.12317" y1="15.9657" x2="25.1023" y2="20.1146" gradientUnits="userSpaceOnUse">
<stop stop-color="#FFB092"/>
<stop offset="0.4" stop-color="#E6492E"/>
<stop offset="1" stop-color="#C42729"/>
</linearGradient>
<linearGradient id="paint4_linear_337_5914" x1="2.40921" y1="21.4018" x2="10.813" y2="14.7389" gradientUnits="userSpaceOnUse">
<stop stop-color="#FFB092"/>
<stop offset="0.4" stop-color="#E6492E"/>
<stop offset="1" stop-color="#C42729"/>
</linearGradient>
<linearGradient id="paint5_linear_337_5914" x1="22.3513" y1="8.49278" x2="16.4956" y2="5.37646" gradientUnits="userSpaceOnUse">
<stop stop-color="#FFB092"/>
<stop offset="0.4" stop-color="#E6492E"/>
<stop offset="1" stop-color="#C42729"/>
</linearGradient>
<linearGradient id="paint6_linear_337_5914" x1="27.3982" y1="8.36076" x2="21.8701" y2="8.14076" gradientUnits="userSpaceOnUse">
<stop stop-color="#FFB092"/>
<stop offset="0.4" stop-color="#E6492E"/>
<stop offset="1" stop-color="#C42729"/>
</linearGradient>
<linearGradient id="paint7_linear_337_5914" x1="11.2465" y1="7.67246" x2="18.7793" y2="23.7146" gradientUnits="userSpaceOnUse">
<stop stop-color="#FFB092"/>
<stop offset="0.4" stop-color="#E6492E"/>
<stop offset="1" stop-color="#C42729"/>
</linearGradient>
<linearGradient id="paint8_linear_337_5914" x1="10.1278" y1="11.9656" x2="14.712" y2="14.2751" gradientUnits="userSpaceOnUse">
<stop stop-color="#FFB092"/>
<stop offset="0.4" stop-color="#E6492E"/>
<stop offset="1" stop-color="#C42729"/>
</linearGradient>
<linearGradient id="paint9_linear_337_5914" x1="19.5049" y1="22.6785" x2="12.6973" y2="24.679" gradientUnits="userSpaceOnUse">
<stop stop-color="#FFB092"/>
<stop offset="0.4" stop-color="#E6492E"/>
<stop offset="1" stop-color="#C42729"/>
</linearGradient>
<linearGradient id="paint10_linear_337_5914" x1="23.0776" y1="22.5768" x2="18.6041" y2="21.6236" gradientUnits="userSpaceOnUse">
<stop stop-color="#FFB092"/>
<stop offset="0.4" stop-color="#E6492E"/>
<stop offset="1" stop-color="#C42729"/>
</linearGradient>
<linearGradient id="paint11_linear_337_5914" x1="7.93848" y1="23.87" x2="25.6161" y2="16.1754" gradientUnits="userSpaceOnUse">
<stop stop-color="#FFB092"/>
<stop offset="0.4" stop-color="#E6492E"/>
<stop offset="1" stop-color="#C42729"/>
</linearGradient>
<linearGradient id="paint12_linear_337_5914" x1="12.9073" y1="20.5837" x2="12.7074" y2="12.8493" gradientUnits="userSpaceOnUse">
<stop stop-color="#FFB092"/>
<stop offset="0.4" stop-color="#E6492E"/>
<stop offset="1" stop-color="#C42729"/>
</linearGradient>
<linearGradient id="paint13_linear_337_5914" x1="8.74924" y1="18.2591" x2="22.2878" y2="18.4617" gradientUnits="userSpaceOnUse">
<stop stop-color="white"/>
<stop offset="1" stop-color="#C42729"/>
</linearGradient>
<linearGradient id="paint14_linear_337_5914" x1="22.5453" y1="16.9622" x2="13.4994" y2="21.0711" gradientUnits="userSpaceOnUse">
<stop stop-color="white"/>
<stop offset="1" stop-color="#C42729"/>
</linearGradient>
<linearGradient id="paint15_linear_337_5914" x1="16.0533" y1="15.2718" x2="17.8198" y2="23.4949" gradientUnits="userSpaceOnUse">
<stop stop-color="#FFB092"/>
<stop offset="0.28" stop-color="#E6492E"/>
<stop offset="0.57" stop-color="#D53E5C"/>
<stop offset="1" stop-color="#C42729"/>
</linearGradient>
<linearGradient id="paint16_linear_337_5914" x1="20.3499" y1="21.3299" x2="17.8088" y2="14.0097" gradientUnits="userSpaceOnUse">
<stop stop-color="#EBBD38"/>
<stop offset="1" stop-color="#FFF29E"/>
</linearGradient>
<linearGradient id="paint17_linear_337_5914" x1="18.0081" y1="19.5183" x2="17.3083" y2="15.8138" gradientUnits="userSpaceOnUse">
<stop stop-color="#FFB092"/>
<stop offset="0.28" stop-color="#E6492E"/>
<stop offset="0.57" stop-color="#D53E5C"/>
<stop offset="1" stop-color="#C42729"/>
</linearGradient>
<linearGradient id="paint18_linear_337_5914" x1="17.1596" y1="17.3047" x2="17.8825" y2="19.7557" gradientUnits="userSpaceOnUse">
<stop stop-color="#EBBD38"/>
<stop offset="1" stop-color="#FDF7D6"/>
</linearGradient>
<radialGradient id="paint19_radial_337_5914" cx="0" cy="0" r="1" gradientUnits="userSpaceOnUse" gradientTransform="translate(16.3827 16.8039) scale(4.06194 2.33244)">
<stop stop-color="#FF1841"/>
<stop offset="0.07" stop-color="#F41640"/>
<stop offset="0.35" stop-color="#CC0F3C"/>
<stop offset="0.61" stop-color="#AE0A39"/>
<stop offset="0.84" stop-color="#9C0738"/>
<stop offset="1" stop-color="#960637"/>
</radialGradient>
<linearGradient id="paint20_linear_337_5914" x1="17.8869" y1="20.4523" x2="17.5174" y2="15.5052" gradientUnits="userSpaceOnUse">
<stop stop-color="#FF1841"/>
<stop offset="0.07" stop-color="#F41640"/>
<stop offset="0.35" stop-color="#CC0F3C"/>
<stop offset="0.61" stop-color="#AE0A39"/>
<stop offset="0.84" stop-color="#9C0738"/>
<stop offset="1" stop-color="#960637"/>
</linearGradient>
<linearGradient id="paint21_linear_337_5914" x1="15.348" y1="17.0021" x2="16.8456" y2="17.0021" gradientUnits="userSpaceOnUse">
<stop stop-color="white"/>
<stop offset="1" stop-color="#FFF7C4"/>
</linearGradient>
<linearGradient id="paint22_linear_337_5914" x1="145.267" y1="13.2795" x2="148.211" y2="18.0726" gradientUnits="userSpaceOnUse">
<stop stop-color="#FFB092"/>
<stop offset="0.4" stop-color="#E6492E"/>
<stop offset="1" stop-color="#C42729"/>
</linearGradient>
<linearGradient id="paint23_linear_337_5914" x1="143.1" y1="10.9468" x2="143.945" y2="14.2551" gradientUnits="userSpaceOnUse">
<stop stop-color="#FFB092"/>
<stop offset="0.4" stop-color="#E6492E"/>
<stop offset="1" stop-color="#C42729"/>
</linearGradient>
<linearGradient id="paint24_linear_337_5914" x1="155.823" y1="18.032" x2="132.83" y2="14.0012" gradientUnits="userSpaceOnUse">
<stop stop-color="#FFB092"/>
<stop offset="0.4" stop-color="#E6492E"/>
<stop offset="1" stop-color="#C42729"/>
</linearGradient>
<linearGradient id="paint25_linear_337_5914" x1="155.508" y1="12.5981" x2="147.136" y2="19.3137" gradientUnits="userSpaceOnUse">
<stop stop-color="#FFB092"/>
<stop offset="0.4" stop-color="#E6492E"/>
<stop offset="1" stop-color="#C42729"/>
</linearGradient>
<linearGradient id="paint26_linear_337_5914" x1="135.634" y1="25.6393" x2="141.502" y2="28.722" gradientUnits="userSpaceOnUse">
<stop stop-color="#FFB092"/>
<stop offset="0.4" stop-color="#E6492E"/>
<stop offset="1" stop-color="#C42729"/>
</linearGradient>
<linearGradient id="paint27_linear_337_5914" x1="130.59" y1="25.8046" x2="136.119" y2="25.9968" gradientUnits="userSpaceOnUse">
<stop stop-color="#FFB092"/>
<stop offset="0.4" stop-color="#E6492E"/>
<stop offset="1" stop-color="#C42729"/>
</linearGradient>
<linearGradient id="paint28_linear_337_5914" x1="146.742" y1="26.3858" x2="139.113" y2="10.4018" gradientUnits="userSpaceOnUse">
<stop stop-color="#FFB092"/>
<stop offset="0.4" stop-color="#E6492E"/>
<stop offset="1" stop-color="#C42729"/>
</linearGradient>
<linearGradient id="paint29_linear_337_5914" x1="147.842" y1="22.0856" x2="143.249" y2="19.8021" gradientUnits="userSpaceOnUse">
<stop stop-color="#FFB092"/>
<stop offset="0.4" stop-color="#E6492E"/>
<stop offset="1" stop-color="#C42729"/>
</linearGradient>
<linearGradient id="paint30_linear_337_5914" x1="138.412" y1="11.4347" x2="145.212" y2="9.39817" gradientUnits="userSpaceOnUse">
<stop stop-color="#FFB092"/>
<stop offset="0.4" stop-color="#E6492E"/>
<stop offset="1" stop-color="#C42729"/>
</linearGradient>
<linearGradient id="paint31_linear_337_5914" x1="134.839" y1="11.5599" x2="139.316" y2="12.49" gradientUnits="userSpaceOnUse">
<stop stop-color="#FFB092"/>
<stop offset="0.4" stop-color="#E6492E"/>
<stop offset="1" stop-color="#C42729"/>
</linearGradient>
<linearGradient id="paint32_linear_337_5914" x1="149.971" y1="10.1664" x2="132.324" y2="17.9591" gradientUnits="userSpaceOnUse">
<stop stop-color="#FFB092"/>
<stop offset="0.4" stop-color="#E6492E"/>
<stop offset="1" stop-color="#C42729"/>
</linearGradient>
<linearGradient id="paint33_linear_337_5914" x1="145.02" y1="13.4857" x2="145.271" y2="21.2183" gradientUnits="userSpaceOnUse">
<stop stop-color="#FFB092"/>
<stop offset="0.4" stop-color="#E6492E"/>
<stop offset="1" stop-color="#C42729"/>
</linearGradient>
<linearGradient id="paint34_linear_337_5914" x1="149.188" y1="15.7828" x2="135.649" y2="15.6485" gradientUnits="userSpaceOnUse">
<stop stop-color="white"/>
<stop offset="1" stop-color="#C42729"/>
</linearGradient>
<linearGradient id="paint35_linear_337_5914" x1="135.4" y1="17.1708" x2="144.429" y2="13.0114" gradientUnits="userSpaceOnUse">
<stop stop-color="white"/>
<stop offset="1" stop-color="#C42729"/>
</linearGradient>
<linearGradient id="paint36_linear_337_5914" x1="141.9" y1="18.8181" x2="140.08" y2="10.6095" gradientUnits="userSpaceOnUse">
<stop stop-color="#FFB092"/>
<stop offset="0.28" stop-color="#E6492E"/>
<stop offset="0.57" stop-color="#D53E5C"/>
<stop offset="1" stop-color="#C42729"/>
</linearGradient>
<linearGradient id="paint37_linear_337_5914" x1="137.573" y1="12.796" x2="140.158" y2="20.0837" gradientUnits="userSpaceOnUse">
<stop stop-color="#EBBD38"/>
<stop offset="1" stop-color="#FFF29E"/>
</linearGradient>
<linearGradient id="paint38_linear_337_5914" x1="139.924" y1="14.5846" x2="140.648" y2="18.2833" gradientUnits="userSpaceOnUse">
<stop stop-color="#FFB092"/>
<stop offset="0.28" stop-color="#E6492E"/>
<stop offset="0.57" stop-color="#D53E5C"/>
<stop offset="1" stop-color="#C42729"/>
</linearGradient>
<linearGradient id="paint39_linear_337_5914" x1="140.782" y1="16.7903" x2="140.045" y2="14.3511" gradientUnits="userSpaceOnUse">
<stop stop-color="#EBBD38"/>
<stop offset="1" stop-color="#FDF7D6"/>
</linearGradient>
<radialGradient id="paint40_radial_337_5914" cx="0" cy="0" r="1" gradientUnits="userSpaceOnUse" gradientTransform="translate(141.565 17.2881) rotate(179.619) scale(4.06197 2.33243)">
<stop stop-color="#FF1841"/>
<stop offset="0.07" stop-color="#F41640"/>
<stop offset="0.35" stop-color="#CC0F3C"/>
<stop offset="0.61" stop-color="#AE0A39"/>
<stop offset="0.84" stop-color="#9C0738"/>
<stop offset="1" stop-color="#960637"/>
</radialGradient>
<linearGradient id="paint41_linear_337_5914" x1="140.044" y1="13.655" x2="140.449" y2="18.5881" gradientUnits="userSpaceOnUse">
<stop stop-color="#FF1841"/>
<stop offset="0.07" stop-color="#F41640"/>
<stop offset="0.35" stop-color="#CC0F3C"/>
<stop offset="0.61" stop-color="#AE0A39"/>
<stop offset="0.84" stop-color="#9C0738"/>
<stop offset="1" stop-color="#960637"/>
</linearGradient>
<linearGradient id="paint42_linear_337_5914" x1="142.597" y1="17.0827" x2="141.099" y2="17.0903" gradientUnits="userSpaceOnUse">
<stop stop-color="white"/>
<stop offset="1" stop-color="#FFF7C4"/>
</linearGradient>
</defs>
</svg>
