<svg width="373" height="560" viewBox="0 0 373 560" fill="none" xmlns="http://www.w3.org/2000/svg">
<path d="M186.261 280.122C186.261 228.848 227.828 187.07 279.312 187.07C330.586 187.07 372.364 228.637 372.364 280.122C372.364 331.395 330.797 373.173 279.312 373.173C228.039 373.173 186.261 331.395 186.261 280.122Z" fill="#686868"/>
<path d="M0.367188 466.016C0.367188 414.743 41.9345 372.964 93.4189 372.964H186.471V466.016C186.471 517.289 144.903 559.068 93.4189 559.068C41.9345 559.068 0.367188 517.5 0.367188 466.016Z" fill="#686868"/>
<path d="M186.261 1.17926V187.072H279.312C330.586 187.072 372.364 145.504 372.364 94.02C372.364 42.7466 330.797 0.968262 279.312 0.968262H186.261V1.17926Z" fill="#686868"/>
<path d="M0.367188 94.2329C0.367188 145.506 41.9345 187.285 93.4189 187.285H186.471V1.18115H93.4189C41.9345 1.18115 0.367188 42.7485 0.367188 94.2329Z" fill="#686868"/>
<path d="M0.367188 280.122C0.367188 331.395 41.9345 373.173 93.4189 373.173H186.471V187.07H93.4189C41.9345 187.07 0.367188 228.848 0.367188 280.122Z" fill="#686868"/>
</svg>
