
<svg width="390" height="422" viewBox="0 0 390 422" fill="none" xmlns="http://www.w3.org/2000/svg">
<mask id="path-1-inside-1_291_9225" fill="white">
<path d="M0 0H390V422H0V0Z"/>
</mask>
<path d="M0 0H390V422H0V0Z" fill="#050505"/>
<path d="M0 3H390V-3H0V3Z" fill="#1F1F1F" mask="url(#path-1-inside-1_291_9225)"/>
<path d="M58.4574 84.5V67.0455H60.571V82.625H68.6847V84.5H58.4574ZM77.1733 84.7727C75.9119 84.7727 74.8239 84.4943 73.9091 83.9375C73 83.375 72.2983 82.5909 71.804 81.5852C71.3153 80.5739 71.071 79.3977 71.071 78.0568C71.071 76.7159 71.3153 75.5341 71.804 74.5114C72.2983 73.483 72.9858 72.6818 73.8665 72.108C74.7528 71.5284 75.7869 71.2386 76.9688 71.2386C77.6506 71.2386 78.3239 71.3523 78.9886 71.5795C79.6534 71.8068 80.2585 72.1761 80.804 72.6875C81.3494 73.1932 81.7841 73.8636 82.108 74.6989C82.4318 75.5341 82.5938 76.5625 82.5938 77.7841V78.6364H72.5028V76.8977H80.5483C80.5483 76.1591 80.4006 75.5 80.1051 74.9205C79.8153 74.3409 79.4006 73.8835 78.8608 73.5483C78.3267 73.2131 77.696 73.0455 76.9688 73.0455C76.1676 73.0455 75.4744 73.2443 74.8892 73.642C74.3097 74.0341 73.8636 74.5455 73.5511 75.1761C73.2386 75.8068 73.0824 76.483 73.0824 77.2045V78.3636C73.0824 79.3523 73.2528 80.1903 73.5938 80.8778C73.9403 81.5597 74.4205 82.0795 75.0341 82.4375C75.6477 82.7898 76.3608 82.9659 77.1733 82.9659C77.7017 82.9659 78.179 82.892 78.6051 82.7443C79.0369 82.5909 79.4091 82.3636 79.7216 82.0625C80.0341 81.7557 80.2756 81.375 80.446 80.9205L82.3892 81.4659C82.1847 82.125 81.8409 82.7045 81.358 83.2045C80.875 83.6989 80.2784 84.0852 79.5682 84.3636C78.858 84.6364 78.0597 84.7727 77.1733 84.7727ZM90.9375 89.6818C89.9659 89.6818 89.1307 89.5568 88.4318 89.3068C87.733 89.0625 87.1506 88.7386 86.6847 88.3352C86.2244 87.9375 85.858 87.5114 85.5852 87.0568L87.1875 85.9318C87.3693 86.1705 87.5994 86.4432 87.8778 86.75C88.1563 87.0625 88.5369 87.3324 89.0199 87.5597C89.5085 87.7926 90.1477 87.9091 90.9375 87.9091C91.9943 87.9091 92.8665 87.6534 93.554 87.142C94.2415 86.6307 94.5852 85.8295 94.5852 84.7386V82.0795H94.4148C94.267 82.3182 94.0568 82.6136 93.7841 82.9659C93.517 83.3125 93.1307 83.6222 92.625 83.8949C92.125 84.1619 91.4489 84.2955 90.5966 84.2955C89.5398 84.2955 88.5909 84.0455 87.75 83.5455C86.9148 83.0455 86.2528 82.3182 85.7642 81.3636C85.2813 80.4091 85.0398 79.25 85.0398 77.8864C85.0398 76.5455 85.2756 75.3778 85.7472 74.3835C86.2188 73.3835 86.875 72.6108 87.7159 72.0653C88.5568 71.5142 89.5284 71.2386 90.6307 71.2386C91.483 71.2386 92.1591 71.3807 92.6591 71.6648C93.1648 71.9432 93.5511 72.2614 93.8182 72.6193C94.0909 72.9716 94.3011 73.2614 94.4489 73.4886H94.6534V71.4091H96.5966V84.875C96.5966 86 96.3409 86.9148 95.8295 87.6193C95.3239 88.3295 94.642 88.8494 93.7841 89.179C92.9318 89.5142 91.983 89.6818 90.9375 89.6818ZM90.8693 82.4886C91.6761 82.4886 92.358 82.304 92.9148 81.9347C93.4716 81.5653 93.8949 81.0341 94.1847 80.3409C94.4744 79.6477 94.6193 78.8182 94.6193 77.8523C94.6193 76.9091 94.4773 76.0767 94.1932 75.3551C93.9091 74.6335 93.4886 74.0682 92.9318 73.6591C92.375 73.25 91.6875 73.0455 90.8693 73.0455C90.017 73.0455 89.3068 73.2614 88.7386 73.6932C88.1761 74.125 87.7528 74.7045 87.4688 75.4318C87.1903 76.1591 87.0511 76.9659 87.0511 77.8523C87.0511 78.7614 87.1932 79.5653 87.4773 80.2642C87.767 80.9574 88.1932 81.5028 88.7557 81.9006C89.3239 82.2926 90.0284 82.4886 90.8693 82.4886ZM104.131 84.8068C103.301 84.8068 102.548 84.6506 101.872 84.3381C101.196 84.0199 100.659 83.5625 100.261 82.9659C99.8636 82.3636 99.6648 81.6364 99.6648 80.7841C99.6648 80.0341 99.8125 79.4261 100.108 78.9602C100.403 78.4886 100.798 78.1193 101.293 77.8523C101.787 77.5852 102.332 77.3864 102.929 77.2557C103.531 77.1193 104.136 77.0114 104.744 76.9318C105.54 76.8295 106.185 76.7528 106.679 76.7017C107.179 76.6449 107.543 76.5511 107.77 76.4205C108.003 76.2898 108.119 76.0625 108.119 75.7386V75.6705C108.119 74.8295 107.889 74.1761 107.429 73.7102C106.974 73.2443 106.284 73.0114 105.358 73.0114C104.398 73.0114 103.645 73.2216 103.099 73.642C102.554 74.0625 102.17 74.5114 101.949 74.9886L100.04 74.3068C100.381 73.5114 100.835 72.892 101.403 72.4489C101.977 72 102.602 71.6875 103.278 71.5114C103.96 71.3295 104.631 71.2386 105.29 71.2386C105.71 71.2386 106.193 71.2898 106.739 71.392C107.29 71.4886 107.821 71.6903 108.332 71.9972C108.849 72.304 109.278 72.767 109.619 73.3864C109.96 74.0057 110.131 74.8352 110.131 75.875V84.5H108.119V82.7273H108.017C107.881 83.0114 107.653 83.3153 107.335 83.6392C107.017 83.9631 106.594 84.2386 106.065 84.4659C105.537 84.6932 104.892 84.8068 104.131 84.8068ZM104.438 83C105.233 83 105.903 82.8438 106.449 82.5312C107 82.2188 107.415 81.8153 107.693 81.321C107.977 80.8267 108.119 80.3068 108.119 79.7614V77.9205C108.034 78.0227 107.847 78.1165 107.557 78.2017C107.273 78.2812 106.943 78.3523 106.568 78.4148C106.199 78.4716 105.838 78.5227 105.486 78.5682C105.139 78.608 104.858 78.642 104.642 78.6705C104.119 78.7386 103.631 78.8494 103.176 79.0028C102.727 79.1506 102.364 79.375 102.085 79.6761C101.813 79.9716 101.676 80.375 101.676 80.8864C101.676 81.5852 101.935 82.1136 102.452 82.4716C102.974 82.8239 103.636 83 104.438 83ZM115.813 67.0455V84.5H113.802V67.0455H115.813Z" fill="#919191"/>
<path d="M57.3778 122.92V121.045H70.4688V122.92H64.9801V138.5H62.8665V122.92H57.3778ZM77.0483 138.773C75.7869 138.773 74.6989 138.494 73.7841 137.938C72.875 137.375 72.1733 136.591 71.679 135.585C71.1903 134.574 70.946 133.398 70.946 132.057C70.946 130.716 71.1903 129.534 71.679 128.511C72.1733 127.483 72.8608 126.682 73.7415 126.108C74.6278 125.528 75.6619 125.239 76.8438 125.239C77.5256 125.239 78.1989 125.352 78.8636 125.58C79.5284 125.807 80.1335 126.176 80.679 126.688C81.2244 127.193 81.6591 127.864 81.983 128.699C82.3068 129.534 82.4688 130.562 82.4688 131.784V132.636H72.3778V130.898H80.4233C80.4233 130.159 80.2756 129.5 79.9801 128.92C79.6903 128.341 79.2756 127.884 78.7358 127.548C78.2017 127.213 77.571 127.045 76.8438 127.045C76.0426 127.045 75.3494 127.244 74.7642 127.642C74.1847 128.034 73.7386 128.545 73.4261 129.176C73.1136 129.807 72.9574 130.483 72.9574 131.205V132.364C72.9574 133.352 73.1278 134.19 73.4688 134.878C73.8153 135.56 74.2955 136.08 74.9091 136.438C75.5227 136.79 76.2358 136.966 77.0483 136.966C77.5767 136.966 78.054 136.892 78.4801 136.744C78.9119 136.591 79.2841 136.364 79.5966 136.062C79.9091 135.756 80.1506 135.375 80.321 134.92L82.2642 135.466C82.0597 136.125 81.7159 136.705 81.233 137.205C80.75 137.699 80.1534 138.085 79.4432 138.364C78.733 138.636 77.9347 138.773 77.0483 138.773ZM85.5284 138.5V125.409H87.4716V127.386H87.608C87.8466 126.739 88.2784 126.213 88.9034 125.81C89.5284 125.406 90.233 125.205 91.017 125.205C91.1648 125.205 91.3494 125.207 91.571 125.213C91.7926 125.219 91.9602 125.227 92.0739 125.239V127.284C92.0057 127.267 91.8494 127.241 91.6051 127.207C91.3665 127.168 91.1136 127.148 90.8466 127.148C90.2102 127.148 89.642 127.281 89.142 127.548C88.6477 127.81 88.2557 128.173 87.9659 128.639C87.6818 129.099 87.5398 129.625 87.5398 130.216V138.5H85.5284ZM94.4581 138.5V125.409H96.4013V127.455H96.5717C96.8445 126.756 97.2848 126.213 97.8928 125.827C98.5007 125.435 99.2308 125.239 100.083 125.239C100.947 125.239 101.665 125.435 102.239 125.827C102.819 126.213 103.271 126.756 103.594 127.455H103.731C104.066 126.778 104.569 126.241 105.239 125.844C105.91 125.44 106.714 125.239 107.651 125.239C108.822 125.239 109.779 125.605 110.523 126.338C111.268 127.065 111.64 128.199 111.64 129.739V138.5H109.629V129.739C109.629 128.773 109.364 128.082 108.836 127.668C108.308 127.253 107.685 127.045 106.969 127.045C106.049 127.045 105.336 127.324 104.83 127.881C104.325 128.432 104.072 129.131 104.072 129.977V138.5H102.026V129.534C102.026 128.79 101.785 128.19 101.302 127.736C100.819 127.276 100.197 127.045 99.4354 127.045C98.9126 127.045 98.424 127.185 97.9695 127.463C97.5206 127.741 97.157 128.128 96.8786 128.622C96.6058 129.111 96.4695 129.676 96.4695 130.318V138.5H94.4581ZM124.59 128.341L122.783 128.852C122.67 128.551 122.502 128.259 122.281 127.974C122.065 127.685 121.769 127.446 121.394 127.259C121.019 127.071 120.539 126.977 119.954 126.977C119.153 126.977 118.485 127.162 117.951 127.531C117.423 127.895 117.158 128.358 117.158 128.92C117.158 129.42 117.34 129.815 117.704 130.105C118.067 130.395 118.636 130.636 119.408 130.83L121.352 131.307C122.522 131.591 123.394 132.026 123.968 132.611C124.542 133.19 124.829 133.937 124.829 134.852C124.829 135.602 124.613 136.273 124.181 136.864C123.755 137.455 123.158 137.92 122.391 138.261C121.624 138.602 120.732 138.773 119.715 138.773C118.38 138.773 117.275 138.483 116.4 137.903C115.525 137.324 114.971 136.477 114.738 135.364L116.647 134.886C116.829 135.591 117.173 136.119 117.678 136.472C118.19 136.824 118.857 137 119.681 137C120.619 137 121.363 136.801 121.914 136.403C122.471 136 122.749 135.517 122.749 134.955C122.749 134.5 122.59 134.119 122.272 133.812C121.954 133.5 121.465 133.267 120.806 133.114L118.624 132.602C117.425 132.318 116.545 131.878 115.982 131.281C115.425 130.679 115.147 129.926 115.147 129.023C115.147 128.284 115.354 127.631 115.769 127.062C116.19 126.494 116.761 126.048 117.482 125.724C118.21 125.401 119.033 125.239 119.954 125.239C121.249 125.239 122.266 125.523 123.005 126.091C123.749 126.659 124.278 127.409 124.59 128.341ZM139.925 138.773C138.743 138.773 137.706 138.491 136.814 137.929C135.928 137.366 135.234 136.58 134.734 135.568C134.24 134.557 133.993 133.375 133.993 132.023C133.993 130.659 134.24 129.469 134.734 128.452C135.234 127.435 135.928 126.645 136.814 126.082C137.706 125.52 138.743 125.239 139.925 125.239C141.107 125.239 142.141 125.52 143.027 126.082C143.919 126.645 144.612 127.435 145.107 128.452C145.607 129.469 145.857 130.659 145.857 132.023C145.857 133.375 145.607 134.557 145.107 135.568C144.612 136.58 143.919 137.366 143.027 137.929C142.141 138.491 141.107 138.773 139.925 138.773ZM139.925 136.966C140.822 136.966 141.561 136.736 142.141 136.276C142.72 135.815 143.149 135.21 143.428 134.46C143.706 133.71 143.845 132.898 143.845 132.023C143.845 131.148 143.706 130.332 143.428 129.577C143.149 128.821 142.72 128.21 142.141 127.744C141.561 127.278 140.822 127.045 139.925 127.045C139.027 127.045 138.288 127.278 137.709 127.744C137.129 128.21 136.7 128.821 136.422 129.577C136.143 130.332 136.004 131.148 136.004 132.023C136.004 132.898 136.143 133.71 136.422 134.46C136.7 135.21 137.129 135.815 137.709 136.276C138.288 136.736 139.027 136.966 139.925 136.966ZM154.756 125.409V127.114H147.7V125.409H154.756ZM149.813 138.5V123.602C149.813 122.852 149.989 122.227 150.342 121.727C150.694 121.227 151.151 120.852 151.714 120.602C152.276 120.352 152.87 120.227 153.495 120.227C153.989 120.227 154.393 120.267 154.705 120.347C155.018 120.426 155.251 120.5 155.404 120.568L154.825 122.307C154.722 122.273 154.58 122.23 154.398 122.179C154.222 122.128 153.989 122.102 153.7 122.102C153.035 122.102 152.555 122.27 152.259 122.605C151.969 122.94 151.825 123.432 151.825 124.08V138.5H149.813ZM176.053 121.045H178.166V132.602C178.166 133.795 177.885 134.861 177.322 135.798C176.766 136.73 175.979 137.466 174.962 138.006C173.945 138.54 172.751 138.807 171.382 138.807C170.013 138.807 168.82 138.54 167.803 138.006C166.786 137.466 165.996 136.73 165.433 135.798C164.876 134.861 164.598 133.795 164.598 132.602V121.045H166.712V132.432C166.712 133.284 166.899 134.043 167.274 134.707C167.649 135.366 168.183 135.886 168.876 136.267C169.575 136.642 170.411 136.83 171.382 136.83C172.354 136.83 173.189 136.642 173.888 136.267C174.587 135.886 175.121 135.366 175.49 134.707C175.865 134.043 176.053 133.284 176.053 132.432V121.045ZM191.387 128.341L189.58 128.852C189.467 128.551 189.299 128.259 189.077 127.974C188.862 127.685 188.566 127.446 188.191 127.259C187.816 127.071 187.336 126.977 186.751 126.977C185.95 126.977 185.282 127.162 184.748 127.531C184.219 127.895 183.955 128.358 183.955 128.92C183.955 129.42 184.137 129.815 184.501 130.105C184.864 130.395 185.433 130.636 186.205 130.83L188.148 131.307C189.319 131.591 190.191 132.026 190.765 132.611C191.339 133.19 191.626 133.937 191.626 134.852C191.626 135.602 191.41 136.273 190.978 136.864C190.552 137.455 189.955 137.92 189.188 138.261C188.421 138.602 187.529 138.773 186.512 138.773C185.177 138.773 184.072 138.483 183.197 137.903C182.322 137.324 181.768 136.477 181.535 135.364L183.444 134.886C183.626 135.591 183.969 136.119 184.475 136.472C184.987 136.824 185.654 137 186.478 137C187.415 137 188.16 136.801 188.711 136.403C189.268 136 189.546 135.517 189.546 134.955C189.546 134.5 189.387 134.119 189.069 133.812C188.751 133.5 188.262 133.267 187.603 133.114L185.421 132.602C184.222 132.318 183.342 131.878 182.779 131.281C182.222 130.679 181.944 129.926 181.944 129.023C181.944 128.284 182.151 127.631 182.566 127.062C182.987 126.494 183.558 126.048 184.279 125.724C185.006 125.401 185.83 125.239 186.751 125.239C188.046 125.239 189.063 125.523 189.802 126.091C190.546 126.659 191.075 127.409 191.387 128.341ZM200.142 138.773C198.881 138.773 197.793 138.494 196.878 137.938C195.969 137.375 195.267 136.591 194.773 135.585C194.284 134.574 194.04 133.398 194.04 132.057C194.04 130.716 194.284 129.534 194.773 128.511C195.267 127.483 195.955 126.682 196.835 126.108C197.722 125.528 198.756 125.239 199.938 125.239C200.619 125.239 201.293 125.352 201.957 125.58C202.622 125.807 203.227 126.176 203.773 126.688C204.318 127.193 204.753 127.864 205.077 128.699C205.401 129.534 205.562 130.562 205.562 131.784V132.636H195.472V130.898H203.517C203.517 130.159 203.369 129.5 203.074 128.92C202.784 128.341 202.369 127.884 201.83 127.548C201.295 127.213 200.665 127.045 199.938 127.045C199.136 127.045 198.443 127.244 197.858 127.642C197.278 128.034 196.832 128.545 196.52 129.176C196.207 129.807 196.051 130.483 196.051 131.205V132.364C196.051 133.352 196.222 134.19 196.562 134.878C196.909 135.56 197.389 136.08 198.003 136.438C198.616 136.79 199.33 136.966 200.142 136.966C200.67 136.966 201.148 136.892 201.574 136.744C202.006 136.591 202.378 136.364 202.69 136.062C203.003 135.756 203.244 135.375 203.415 134.92L205.358 135.466C205.153 136.125 204.81 136.705 204.327 137.205C203.844 137.699 203.247 138.085 202.537 138.364C201.827 138.636 201.028 138.773 200.142 138.773Z" fill="#919191"/>
<path d="M58.3988 192.5V175.045H64.2965C65.6658 175.045 66.7852 175.293 67.6545 175.787C68.5295 176.276 69.1772 176.938 69.5977 177.773C70.0181 178.608 70.2283 179.54 70.2283 180.568C70.2283 181.597 70.0181 182.531 69.5977 183.372C69.1829 184.213 68.5408 184.884 67.6715 185.384C66.8022 185.878 65.6886 186.125 64.3306 186.125H60.1033V184.25H64.2624C65.1999 184.25 65.9528 184.088 66.521 183.764C67.0891 183.44 67.5011 183.003 67.7567 182.452C68.0181 181.895 68.1488 181.267 68.1488 180.568C68.1488 179.869 68.0181 179.244 67.7567 178.693C67.5011 178.142 67.0863 177.71 66.5124 177.398C65.9386 177.08 65.1772 176.92 64.2283 176.92H60.5124V192.5H58.3988ZM73.3604 192.5V179.409H75.3036V181.386H75.44C75.6786 180.739 76.1104 180.213 76.7354 179.81C77.3604 179.406 78.065 179.205 78.8491 179.205C78.9968 179.205 79.1815 179.207 79.4031 179.213C79.6246 179.219 79.7923 179.227 79.9059 179.239V181.284C79.8377 181.267 79.6815 181.241 79.4371 181.207C79.1985 181.168 78.9457 181.148 78.6786 181.148C78.0423 181.148 77.4741 181.281 76.9741 181.548C76.4798 181.81 76.0877 182.173 75.7979 182.639C75.5138 183.099 75.3718 183.625 75.3718 184.216V192.5H73.3604ZM82.2901 192.5V179.409H84.3015V192.5H82.2901ZM83.3129 177.227C82.9208 177.227 82.5827 177.094 82.2987 176.827C82.0202 176.56 81.881 176.239 81.881 175.864C81.881 175.489 82.0202 175.168 82.2987 174.901C82.5827 174.634 82.9208 174.5 83.3129 174.5C83.7049 174.5 84.0401 174.634 84.3185 174.901C84.6026 175.168 84.7447 175.489 84.7447 175.864C84.7447 176.239 84.6026 176.56 84.3185 176.827C84.0401 177.094 83.7049 177.227 83.3129 177.227ZM98.69 179.409L93.8491 192.5H91.8036L86.9627 179.409H89.1445L92.7582 189.841H92.8945L96.5082 179.409H98.69ZM104.799 192.807C103.969 192.807 103.216 192.651 102.54 192.338C101.864 192.02 101.327 191.562 100.929 190.966C100.532 190.364 100.333 189.636 100.333 188.784C100.333 188.034 100.48 187.426 100.776 186.96C101.071 186.489 101.466 186.119 101.961 185.852C102.455 185.585 103 185.386 103.597 185.256C104.199 185.119 104.804 185.011 105.412 184.932C106.208 184.83 106.853 184.753 107.347 184.702C107.847 184.645 108.211 184.551 108.438 184.42C108.671 184.29 108.787 184.062 108.787 183.739V183.67C108.787 182.83 108.557 182.176 108.097 181.71C107.642 181.244 106.952 181.011 106.026 181.011C105.066 181.011 104.313 181.222 103.767 181.642C103.222 182.062 102.838 182.511 102.617 182.989L100.708 182.307C101.049 181.511 101.503 180.892 102.071 180.449C102.645 180 103.27 179.687 103.946 179.511C104.628 179.33 105.299 179.239 105.958 179.239C106.378 179.239 106.861 179.29 107.407 179.392C107.958 179.489 108.489 179.69 109 179.997C109.517 180.304 109.946 180.767 110.287 181.386C110.628 182.006 110.799 182.835 110.799 183.875V192.5H108.787V190.727H108.685C108.549 191.011 108.321 191.315 108.003 191.639C107.685 191.963 107.262 192.239 106.733 192.466C106.205 192.693 105.56 192.807 104.799 192.807ZM105.105 191C105.901 191 106.571 190.844 107.117 190.531C107.668 190.219 108.083 189.815 108.361 189.321C108.645 188.827 108.787 188.307 108.787 187.761V185.92C108.702 186.023 108.515 186.116 108.225 186.202C107.941 186.281 107.611 186.352 107.236 186.415C106.867 186.472 106.506 186.523 106.154 186.568C105.807 186.608 105.526 186.642 105.31 186.67C104.787 186.739 104.299 186.849 103.844 187.003C103.395 187.151 103.032 187.375 102.753 187.676C102.48 187.972 102.344 188.375 102.344 188.886C102.344 189.585 102.603 190.114 103.12 190.472C103.642 190.824 104.304 191 105.105 191ZM119.788 192.773C118.561 192.773 117.504 192.483 116.618 191.903C115.731 191.324 115.049 190.526 114.572 189.509C114.095 188.491 113.856 187.33 113.856 186.023C113.856 184.693 114.1 183.52 114.589 182.503C115.083 181.48 115.771 180.682 116.652 180.108C117.538 179.528 118.572 179.239 119.754 179.239C120.674 179.239 121.504 179.409 122.243 179.75C122.981 180.091 123.586 180.568 124.058 181.182C124.529 181.795 124.822 182.511 124.936 183.33H122.924C122.771 182.733 122.43 182.205 121.902 181.744C121.379 181.278 120.674 181.045 119.788 181.045C119.004 181.045 118.316 181.25 117.725 181.659C117.14 182.062 116.683 182.634 116.353 183.372C116.029 184.105 115.868 184.966 115.868 185.955C115.868 186.966 116.027 187.847 116.345 188.597C116.669 189.347 117.123 189.929 117.708 190.344C118.299 190.759 118.993 190.966 119.788 190.966C120.311 190.966 120.785 190.875 121.211 190.693C121.637 190.511 121.998 190.25 122.294 189.909C122.589 189.568 122.799 189.159 122.924 188.682H124.936C124.822 189.455 124.541 190.151 124.092 190.77C123.649 191.384 123.061 191.872 122.328 192.236C121.6 192.594 120.754 192.773 119.788 192.773ZM129.172 197.409C128.831 197.409 128.527 197.381 128.26 197.324C127.993 197.273 127.808 197.222 127.706 197.17L128.217 195.398C128.706 195.523 129.137 195.568 129.512 195.534C129.887 195.5 130.22 195.332 130.51 195.031C130.805 194.736 131.075 194.256 131.319 193.591L131.694 192.568L126.853 179.409H129.035L132.649 189.841H132.785L136.399 179.409H138.581L133.024 194.409C132.774 195.085 132.464 195.645 132.095 196.088C131.725 196.537 131.297 196.869 130.808 197.085C130.325 197.301 129.779 197.409 129.172 197.409ZM148.258 192.5V175.045H154.156C155.525 175.045 156.645 175.293 157.514 175.787C158.389 176.276 159.037 176.938 159.457 177.773C159.877 178.608 160.088 179.54 160.088 180.568C160.088 181.597 159.877 182.531 159.457 183.372C159.042 184.213 158.4 184.884 157.531 185.384C156.662 185.878 155.548 186.125 154.19 186.125H149.963V184.25H154.122C155.059 184.25 155.812 184.088 156.38 183.764C156.949 183.44 157.36 183.003 157.616 182.452C157.877 181.895 158.008 181.267 158.008 180.568C158.008 179.869 157.877 179.244 157.616 178.693C157.36 178.142 156.946 177.71 156.372 177.398C155.798 177.08 155.037 176.92 154.088 176.92H150.372V192.5H148.258ZM168.397 192.773C167.216 192.773 166.179 192.491 165.287 191.929C164.4 191.366 163.707 190.58 163.207 189.568C162.713 188.557 162.466 187.375 162.466 186.023C162.466 184.659 162.713 183.469 163.207 182.452C163.707 181.435 164.4 180.645 165.287 180.082C166.179 179.52 167.216 179.239 168.397 179.239C169.579 179.239 170.613 179.52 171.5 180.082C172.392 180.645 173.085 181.435 173.579 182.452C174.079 183.469 174.329 184.659 174.329 186.023C174.329 187.375 174.079 188.557 173.579 189.568C173.085 190.58 172.392 191.366 171.5 191.929C170.613 192.491 169.579 192.773 168.397 192.773ZM168.397 190.966C169.295 190.966 170.034 190.736 170.613 190.276C171.193 189.815 171.622 189.21 171.9 188.46C172.179 187.71 172.318 186.898 172.318 186.023C172.318 185.148 172.179 184.332 171.9 183.577C171.622 182.821 171.193 182.21 170.613 181.744C170.034 181.278 169.295 181.045 168.397 181.045C167.5 181.045 166.761 181.278 166.181 181.744C165.602 182.21 165.173 182.821 164.895 183.577C164.616 184.332 164.477 185.148 164.477 186.023C164.477 186.898 164.616 187.71 164.895 188.46C165.173 189.21 165.602 189.815 166.181 190.276C166.761 190.736 167.5 190.966 168.397 190.966ZM179.411 175.045V192.5H177.4V175.045H179.411ZM183.095 192.5V179.409H185.106V192.5H183.095ZM184.118 177.227C183.725 177.227 183.387 177.094 183.103 176.827C182.825 176.56 182.686 176.239 182.686 175.864C182.686 175.489 182.825 175.168 183.103 174.901C183.387 174.634 183.725 174.5 184.118 174.5C184.51 174.5 184.845 174.634 185.123 174.901C185.407 175.168 185.549 175.489 185.549 175.864C185.549 176.239 185.407 176.56 185.123 176.827C184.845 177.094 184.51 177.227 184.118 177.227ZM194.108 192.773C192.881 192.773 191.824 192.483 190.938 191.903C190.051 191.324 189.37 190.526 188.892 189.509C188.415 188.491 188.176 187.33 188.176 186.023C188.176 184.693 188.421 183.52 188.909 182.503C189.404 181.48 190.091 180.682 190.972 180.108C191.858 179.528 192.892 179.239 194.074 179.239C194.995 179.239 195.824 179.409 196.563 179.75C197.301 180.091 197.907 180.568 198.378 181.182C198.85 181.795 199.142 182.511 199.256 183.33H197.245C197.091 182.733 196.75 182.205 196.222 181.744C195.699 181.278 194.995 181.045 194.108 181.045C193.324 181.045 192.637 181.25 192.046 181.659C191.461 182.062 191.003 182.634 190.674 183.372C190.35 184.105 190.188 184.966 190.188 185.955C190.188 186.966 190.347 187.847 190.665 188.597C190.989 189.347 191.444 189.929 192.029 190.344C192.62 190.759 193.313 190.966 194.108 190.966C194.631 190.966 195.105 190.875 195.532 190.693C195.958 190.511 196.319 190.25 196.614 189.909C196.909 189.568 197.12 189.159 197.245 188.682H199.256C199.142 189.455 198.861 190.151 198.412 190.77C197.969 191.384 197.381 191.872 196.648 192.236C195.921 192.594 195.074 192.773 194.108 192.773ZM203.492 197.409C203.151 197.409 202.847 197.381 202.58 197.324C202.313 197.273 202.128 197.222 202.026 197.17L202.537 195.398C203.026 195.523 203.458 195.568 203.833 195.534C204.208 195.5 204.54 195.332 204.83 195.031C205.125 194.736 205.395 194.256 205.64 193.591L206.015 192.568L201.174 179.409H203.355L206.969 189.841H207.105L210.719 179.409H212.901L207.344 194.409C207.094 195.085 206.784 195.645 206.415 196.088C206.046 196.537 205.617 196.869 205.128 197.085C204.645 197.301 204.1 197.409 203.492 197.409Z" fill="#919191"/>
<path d="M72.4677 234.5H70.354C70.229 233.892 70.0103 233.358 69.6978 232.898C69.391 232.438 69.016 232.051 68.5728 231.739C68.1353 231.42 67.6495 231.182 67.1154 231.023C66.5813 230.864 66.0245 230.784 65.445 230.784C64.3881 230.784 63.4308 231.051 62.5728 231.585C61.7205 232.119 61.0415 232.906 60.5359 233.946C60.0359 234.986 59.7859 236.261 59.7859 237.773C59.7859 239.284 60.0359 240.56 60.5359 241.599C61.0415 242.639 61.7205 243.426 62.5728 243.96C63.4308 244.494 64.3881 244.761 65.445 244.761C66.0245 244.761 66.5813 244.682 67.1154 244.523C67.6495 244.364 68.1353 244.128 68.5728 243.815C69.016 243.497 69.391 243.108 69.6978 242.648C70.0103 242.182 70.229 241.648 70.354 241.045H72.4677C72.3086 241.937 72.0188 242.736 71.5984 243.44C71.1779 244.145 70.6552 244.744 70.0302 245.239C69.4052 245.727 68.7035 246.099 67.9251 246.355C67.1523 246.611 66.3256 246.739 65.445 246.739C63.9563 246.739 62.6325 246.375 61.4734 245.648C60.3143 244.92 59.4023 243.886 58.7376 242.545C58.0728 241.205 57.7404 239.614 57.7404 237.773C57.7404 235.932 58.0728 234.341 58.7376 233C59.4023 231.659 60.3143 230.625 61.4734 229.898C62.6325 229.17 63.9563 228.807 65.445 228.807C66.3256 228.807 67.1523 228.935 67.9251 229.19C68.7035 229.446 69.4052 229.821 70.0302 230.315C70.6552 230.804 71.1779 231.401 71.5984 232.105C72.0188 232.804 72.3086 233.602 72.4677 234.5ZM79.4627 246.807C78.6332 246.807 77.8803 246.651 77.2042 246.338C76.5281 246.02 75.9911 245.562 75.5934 244.966C75.1957 244.364 74.9968 243.636 74.9968 242.784C74.9968 242.034 75.1445 241.426 75.44 240.96C75.7354 240.489 76.1303 240.119 76.6246 239.852C77.119 239.585 77.6644 239.386 78.261 239.256C78.8633 239.119 79.4684 239.011 80.0763 238.932C80.8718 238.83 81.5167 238.753 82.011 238.702C82.511 238.645 82.8746 238.551 83.1019 238.42C83.3349 238.29 83.4513 238.062 83.4513 237.739V237.67C83.4513 236.83 83.2212 236.176 82.761 235.71C82.3065 235.244 81.6161 235.011 80.69 235.011C79.7298 235.011 78.9769 235.222 78.4315 235.642C77.886 236.062 77.5025 236.511 77.2809 236.989L75.3718 236.307C75.7127 235.511 76.1673 234.892 76.7354 234.449C77.3093 234 77.9343 233.687 78.6104 233.511C79.2923 233.33 79.9627 233.239 80.6218 233.239C81.0423 233.239 81.5252 233.29 82.0707 233.392C82.6218 233.489 83.1531 233.69 83.6644 233.997C84.1815 234.304 84.6104 234.767 84.9513 235.386C85.2923 236.006 85.4627 236.835 85.4627 237.875V246.5H83.4513V244.727H83.3491C83.2127 245.011 82.9854 245.315 82.6673 245.639C82.3491 245.963 81.9258 246.239 81.3974 246.466C80.869 246.693 80.2241 246.807 79.4627 246.807ZM79.7695 245C80.565 245 81.2354 244.844 81.7809 244.531C82.332 244.219 82.7468 243.815 83.0252 243.321C83.3093 242.827 83.4513 242.307 83.4513 241.761V239.92C83.3661 240.023 83.1786 240.116 82.8888 240.202C82.6048 240.281 82.2752 240.352 81.9002 240.415C81.5309 240.472 81.1701 240.523 80.8178 240.568C80.4712 240.608 80.19 240.642 79.9741 240.67C79.4513 240.739 78.9627 240.849 78.5082 241.003C78.0593 241.151 77.6957 241.375 77.4173 241.676C77.1445 241.972 77.0082 242.375 77.0082 242.886C77.0082 243.585 77.2667 244.114 77.7837 244.472C78.3065 244.824 78.9684 245 79.7695 245ZM89.1339 246.5V233.409H91.0771V235.386H91.2134C91.4521 234.739 91.8839 234.213 92.5089 233.81C93.1339 233.406 93.8384 233.205 94.6225 233.205C94.7702 233.205 94.9549 233.207 95.1765 233.213C95.3981 233.219 95.5657 233.227 95.6793 233.239V235.284C95.6112 235.267 95.4549 235.241 95.2106 235.207C94.9719 235.168 94.7191 235.148 94.4521 235.148C93.8157 235.148 93.2475 235.281 92.7475 235.548C92.2532 235.81 91.8612 236.173 91.5714 236.639C91.2873 237.099 91.1452 237.625 91.1452 238.216V246.5H89.1339ZM103.154 246.773C101.892 246.773 100.804 246.494 99.8896 245.938C98.9805 245.375 98.2788 244.591 97.7844 243.585C97.2958 242.574 97.0515 241.398 97.0515 240.057C97.0515 238.716 97.2958 237.534 97.7844 236.511C98.2788 235.483 98.9663 234.682 99.8469 234.108C100.733 233.528 101.767 233.239 102.949 233.239C103.631 233.239 104.304 233.352 104.969 233.58C105.634 233.807 106.239 234.176 106.784 234.688C107.33 235.193 107.765 235.864 108.088 236.699C108.412 237.534 108.574 238.562 108.574 239.784V240.636H98.4833V238.898H106.529C106.529 238.159 106.381 237.5 106.086 236.92C105.796 236.341 105.381 235.884 104.841 235.548C104.307 235.213 103.676 235.045 102.949 235.045C102.148 235.045 101.455 235.244 100.87 235.642C100.29 236.034 99.8441 236.545 99.5316 237.176C99.2191 237.807 99.0629 238.483 99.0629 239.205V240.364C99.0629 241.352 99.2333 242.19 99.5742 242.878C99.9208 243.56 100.401 244.08 101.015 244.438C101.628 244.79 102.341 244.966 103.154 244.966C103.682 244.966 104.159 244.892 104.586 244.744C105.017 244.591 105.39 244.364 105.702 244.062C106.015 243.756 106.256 243.375 106.426 242.92L108.37 243.466C108.165 244.125 107.821 244.705 107.338 245.205C106.855 245.699 106.259 246.085 105.549 246.364C104.838 246.636 104.04 246.773 103.154 246.773ZM117.123 246.773C115.861 246.773 114.773 246.494 113.858 245.938C112.949 245.375 112.248 244.591 111.753 243.585C111.265 242.574 111.02 241.398 111.02 240.057C111.02 238.716 111.265 237.534 111.753 236.511C112.248 235.483 112.935 234.682 113.816 234.108C114.702 233.528 115.736 233.239 116.918 233.239C117.6 233.239 118.273 233.352 118.938 233.58C119.603 233.807 120.208 234.176 120.753 234.688C121.299 235.193 121.733 235.864 122.057 236.699C122.381 237.534 122.543 238.562 122.543 239.784V240.636H112.452V238.898H120.498C120.498 238.159 120.35 237.5 120.054 236.92C119.765 236.341 119.35 235.884 118.81 235.548C118.276 235.213 117.645 235.045 116.918 235.045C116.117 235.045 115.424 235.244 114.838 235.642C114.259 236.034 113.813 236.545 113.5 237.176C113.188 237.807 113.032 238.483 113.032 239.205V240.364C113.032 241.352 113.202 242.19 113.543 242.878C113.89 243.56 114.37 244.08 114.983 244.438C115.597 244.79 116.31 244.966 117.123 244.966C117.651 244.966 118.128 244.892 118.554 244.744C118.986 244.591 119.358 244.364 119.671 244.062C119.983 243.756 120.225 243.375 120.395 242.92L122.338 243.466C122.134 244.125 121.79 244.705 121.307 245.205C120.824 245.699 120.228 246.085 119.517 246.364C118.807 246.636 118.009 246.773 117.123 246.773ZM125.603 246.5V233.409H127.546V235.386H127.682C127.921 234.739 128.353 234.213 128.978 233.81C129.603 233.406 130.307 233.205 131.091 233.205C131.239 233.205 131.424 233.207 131.645 233.213C131.867 233.219 132.034 233.227 132.148 233.239V235.284C132.08 235.267 131.924 235.241 131.679 235.207C131.441 235.168 131.188 235.148 130.921 235.148C130.284 235.148 129.716 235.281 129.216 235.548C128.722 235.81 128.33 236.173 128.04 236.639C127.756 237.099 127.614 237.625 127.614 238.216V246.5H125.603Z" fill="#919191"/>
<path d="M72.5888 288.5H70.4751C70.3501 287.892 70.1314 287.358 69.8189 286.898C69.5121 286.438 69.1371 286.051 68.6939 285.739C68.2564 285.42 67.7706 285.182 67.2365 285.023C66.7024 284.864 66.1456 284.784 65.5661 284.784C64.5092 284.784 63.5518 285.051 62.6939 285.585C61.8416 286.119 61.1626 286.906 60.657 287.946C60.157 288.986 59.907 290.261 59.907 291.773C59.907 293.284 60.157 294.56 60.657 295.599C61.1626 296.639 61.8416 297.426 62.6939 297.96C63.5518 298.494 64.5092 298.761 65.5661 298.761C66.1456 298.761 66.7024 298.682 67.2365 298.523C67.7706 298.364 68.2564 298.128 68.6939 297.815C69.1371 297.497 69.5121 297.108 69.8189 296.648C70.1314 296.182 70.3501 295.648 70.4751 295.045H72.5888C72.4297 295.937 72.1399 296.736 71.7195 297.44C71.299 298.145 70.7763 298.744 70.1513 299.239C69.5263 299.727 68.8246 300.099 68.0462 300.355C67.2734 300.611 66.4467 300.739 65.5661 300.739C64.0774 300.739 62.7536 300.375 61.5945 299.648C60.4354 298.92 59.5234 297.886 58.8587 296.545C58.1939 295.205 57.8615 293.614 57.8615 291.773C57.8615 289.932 58.1939 288.341 58.8587 287C59.5234 285.659 60.4354 284.625 61.5945 283.898C62.7536 283.17 64.0774 282.807 65.5661 282.807C66.4467 282.807 67.2734 282.935 68.0462 283.19C68.8246 283.446 69.5263 283.821 70.1513 284.315C70.7763 284.804 71.299 285.401 71.7195 286.105C72.1399 286.804 72.4297 287.602 72.5888 288.5ZM81.0497 300.773C79.8679 300.773 78.831 300.491 77.9389 299.929C77.0526 299.366 76.3594 298.58 75.8594 297.568C75.3651 296.557 75.1179 295.375 75.1179 294.023C75.1179 292.659 75.3651 291.469 75.8594 290.452C76.3594 289.435 77.0526 288.645 77.9389 288.082C78.831 287.52 79.8679 287.239 81.0497 287.239C82.2315 287.239 83.2656 287.52 84.152 288.082C85.044 288.645 85.7372 289.435 86.2315 290.452C86.7315 291.469 86.9815 292.659 86.9815 294.023C86.9815 295.375 86.7315 296.557 86.2315 297.568C85.7372 298.58 85.044 299.366 84.152 299.929C83.2656 300.491 82.2315 300.773 81.0497 300.773ZM81.0497 298.966C81.9474 298.966 82.6861 298.736 83.2656 298.276C83.8452 297.815 84.2741 297.21 84.5526 296.46C84.831 295.71 84.9702 294.898 84.9702 294.023C84.9702 293.148 84.831 292.332 84.5526 291.577C84.2741 290.821 83.8452 290.21 83.2656 289.744C82.6861 289.278 81.9474 289.045 81.0497 289.045C80.152 289.045 79.4134 289.278 78.8338 289.744C78.2543 290.21 77.8253 290.821 77.5469 291.577C77.2685 292.332 77.1293 293.148 77.1293 294.023C77.1293 294.898 77.2685 295.71 77.5469 296.46C77.8253 297.21 78.2543 297.815 78.8338 298.276C79.4134 298.736 80.152 298.966 81.0497 298.966ZM95.37 300.773C94.1882 300.773 93.1513 300.491 92.2592 299.929C91.3729 299.366 90.6797 298.58 90.1797 297.568C89.6854 296.557 89.4382 295.375 89.4382 294.023C89.4382 292.659 89.6854 291.469 90.1797 290.452C90.6797 289.435 91.3729 288.645 92.2592 288.082C93.1513 287.52 94.1882 287.239 95.37 287.239C96.5518 287.239 97.5859 287.52 98.4723 288.082C99.3643 288.645 100.058 289.435 100.552 290.452C101.052 291.469 101.302 292.659 101.302 294.023C101.302 295.375 101.052 296.557 100.552 297.568C100.058 298.58 99.3643 299.366 98.4723 299.929C97.5859 300.491 96.5518 300.773 95.37 300.773ZM95.37 298.966C96.2678 298.966 97.0064 298.736 97.5859 298.276C98.1655 297.815 98.5945 297.21 98.8729 296.46C99.1513 295.71 99.2905 294.898 99.2905 294.023C99.2905 293.148 99.1513 292.332 98.8729 291.577C98.5945 290.821 98.1655 290.21 97.5859 289.744C97.0064 289.278 96.2678 289.045 95.37 289.045C94.4723 289.045 93.7337 289.278 93.1541 289.744C92.5746 290.21 92.1456 290.821 91.8672 291.577C91.5888 292.332 91.4496 293.148 91.4496 294.023C91.4496 294.898 91.5888 295.71 91.8672 296.46C92.1456 297.21 92.5746 297.815 93.1541 298.276C93.7337 298.736 94.4723 298.966 95.37 298.966ZM106.247 295.727L106.213 293.239H106.622L112.349 287.409H114.838L108.736 293.58H108.565L106.247 295.727ZM104.372 300.5V283.045H106.384V300.5H104.372ZM112.69 300.5L107.577 294.023L109.009 292.625L115.247 300.5H112.69ZM117.427 300.5V287.409H119.438V300.5H117.427ZM118.45 285.227C118.058 285.227 117.719 285.094 117.435 284.827C117.157 284.56 117.018 284.239 117.018 283.864C117.018 283.489 117.157 283.168 117.435 282.901C117.719 282.634 118.058 282.5 118.45 282.5C118.842 282.5 119.177 282.634 119.455 282.901C119.739 283.168 119.881 283.489 119.881 283.864C119.881 284.239 119.739 284.56 119.455 284.827C119.177 285.094 118.842 285.227 118.45 285.227ZM128.611 300.773C127.349 300.773 126.261 300.494 125.347 299.938C124.438 299.375 123.736 298.591 123.241 297.585C122.753 296.574 122.509 295.398 122.509 294.057C122.509 292.716 122.753 291.534 123.241 290.511C123.736 289.483 124.423 288.682 125.304 288.108C126.19 287.528 127.224 287.239 128.406 287.239C129.088 287.239 129.761 287.352 130.426 287.58C131.091 287.807 131.696 288.176 132.241 288.688C132.787 289.193 133.222 289.864 133.545 290.699C133.869 291.534 134.031 292.562 134.031 293.784V294.636H123.94V292.898H131.986C131.986 292.159 131.838 291.5 131.543 290.92C131.253 290.341 130.838 289.884 130.298 289.548C129.764 289.213 129.134 289.045 128.406 289.045C127.605 289.045 126.912 289.244 126.327 289.642C125.747 290.034 125.301 290.545 124.989 291.176C124.676 291.807 124.52 292.483 124.52 293.205V294.364C124.52 295.352 124.69 296.19 125.031 296.878C125.378 297.56 125.858 298.08 126.472 298.438C127.085 298.79 127.798 298.966 128.611 298.966C129.139 298.966 129.616 298.892 130.043 298.744C130.474 298.591 130.847 298.364 131.159 298.062C131.472 297.756 131.713 297.375 131.884 296.92L133.827 297.466C133.622 298.125 133.278 298.705 132.795 299.205C132.313 299.699 131.716 300.085 131.006 300.364C130.295 300.636 129.497 300.773 128.611 300.773ZM144.114 300.5V283.045H150.011C151.381 283.045 152.5 283.293 153.369 283.787C154.244 284.276 154.892 284.938 155.312 285.773C155.733 286.608 155.943 287.54 155.943 288.568C155.943 289.597 155.733 290.531 155.312 291.372C154.898 292.213 154.256 292.884 153.386 293.384C152.517 293.878 151.403 294.125 150.045 294.125H145.818V292.25H149.977C150.915 292.25 151.668 292.088 152.236 291.764C152.804 291.44 153.216 291.003 153.472 290.452C153.733 289.895 153.864 289.267 153.864 288.568C153.864 287.869 153.733 287.244 153.472 286.693C153.216 286.142 152.801 285.71 152.227 285.398C151.653 285.08 150.892 284.92 149.943 284.92H146.227V300.5H144.114ZM164.253 300.773C163.071 300.773 162.034 300.491 161.142 299.929C160.256 299.366 159.562 298.58 159.062 297.568C158.568 296.557 158.321 295.375 158.321 294.023C158.321 292.659 158.568 291.469 159.062 290.452C159.562 289.435 160.256 288.645 161.142 288.082C162.034 287.52 163.071 287.239 164.253 287.239C165.435 287.239 166.469 287.52 167.355 288.082C168.247 288.645 168.94 289.435 169.435 290.452C169.935 291.469 170.185 292.659 170.185 294.023C170.185 295.375 169.935 296.557 169.435 297.568C168.94 298.58 168.247 299.366 167.355 299.929C166.469 300.491 165.435 300.773 164.253 300.773ZM164.253 298.966C165.151 298.966 165.889 298.736 166.469 298.276C167.048 297.815 167.477 297.21 167.756 296.46C168.034 295.71 168.173 294.898 168.173 294.023C168.173 293.148 168.034 292.332 167.756 291.577C167.477 290.821 167.048 290.21 166.469 289.744C165.889 289.278 165.151 289.045 164.253 289.045C163.355 289.045 162.616 289.278 162.037 289.744C161.457 290.21 161.028 290.821 160.75 291.577C160.472 292.332 160.332 293.148 160.332 294.023C160.332 294.898 160.472 295.71 160.75 296.46C161.028 297.21 161.457 297.815 162.037 298.276C162.616 298.736 163.355 298.966 164.253 298.966ZM175.266 283.045V300.5H173.255V283.045H175.266ZM178.95 300.5V287.409H180.962V300.5H178.95ZM179.973 285.227C179.581 285.227 179.243 285.094 178.959 284.827C178.68 284.56 178.541 284.239 178.541 283.864C178.541 283.489 178.68 283.168 178.959 282.901C179.243 282.634 179.581 282.5 179.973 282.5C180.365 282.5 180.7 282.634 180.979 282.901C181.263 283.168 181.405 283.489 181.405 283.864C181.405 284.239 181.263 284.56 180.979 284.827C180.7 285.094 180.365 285.227 179.973 285.227ZM189.964 300.773C188.737 300.773 187.68 300.483 186.793 299.903C185.907 299.324 185.225 298.526 184.748 297.509C184.271 296.491 184.032 295.33 184.032 294.023C184.032 292.693 184.276 291.52 184.765 290.503C185.259 289.48 185.947 288.682 186.827 288.108C187.714 287.528 188.748 287.239 189.93 287.239C190.85 287.239 191.68 287.409 192.418 287.75C193.157 288.091 193.762 288.568 194.234 289.182C194.705 289.795 194.998 290.511 195.112 291.33H193.1C192.947 290.733 192.606 290.205 192.077 289.744C191.555 289.278 190.85 289.045 189.964 289.045C189.18 289.045 188.492 289.25 187.901 289.659C187.316 290.062 186.859 290.634 186.529 291.372C186.205 292.105 186.043 292.966 186.043 293.955C186.043 294.966 186.202 295.847 186.521 296.597C186.844 297.347 187.299 297.929 187.884 298.344C188.475 298.759 189.168 298.966 189.964 298.966C190.487 298.966 190.961 298.875 191.387 298.693C191.813 298.511 192.174 298.25 192.469 297.909C192.765 297.568 192.975 297.159 193.1 296.682H195.112C194.998 297.455 194.717 298.151 194.268 298.77C193.825 299.384 193.237 299.872 192.504 300.236C191.776 300.594 190.93 300.773 189.964 300.773ZM199.347 305.409C199.006 305.409 198.702 305.381 198.435 305.324C198.168 305.273 197.984 305.222 197.881 305.17L198.393 303.398C198.881 303.523 199.313 303.568 199.688 303.534C200.063 303.5 200.396 303.332 200.685 303.031C200.981 302.736 201.251 302.256 201.495 301.591L201.87 300.568L197.029 287.409H199.211L202.825 297.841H202.961L206.575 287.409H208.756L203.2 302.409C202.95 303.085 202.64 303.645 202.271 304.088C201.901 304.537 201.472 304.869 200.984 305.085C200.501 305.301 199.955 305.409 199.347 305.409Z" fill="#919191"/>
<path d="M72.2177 342.5H70.104C69.979 341.892 69.7603 341.358 69.4478 340.898C69.141 340.438 68.766 340.051 68.3228 339.739C67.8853 339.42 67.3995 339.182 66.8654 339.023C66.3313 338.864 65.7745 338.784 65.195 338.784C64.1381 338.784 63.1808 339.051 62.3228 339.585C61.4705 340.119 60.7915 340.906 60.2859 341.946C59.7859 342.986 59.5359 344.261 59.5359 345.773C59.5359 347.284 59.7859 348.56 60.2859 349.599C60.7915 350.639 61.4705 351.426 62.3228 351.96C63.1808 352.494 64.1381 352.761 65.195 352.761C65.7745 352.761 66.3313 352.682 66.8654 352.523C67.3995 352.364 67.8853 352.128 68.3228 351.815C68.766 351.497 69.141 351.108 69.4478 350.648C69.7603 350.182 69.979 349.648 70.104 349.045H72.2177C72.0586 349.937 71.7688 350.736 71.3484 351.44C70.9279 352.145 70.4052 352.744 69.7802 353.239C69.1552 353.727 68.4535 354.099 67.6751 354.355C66.9023 354.611 66.0756 354.739 65.195 354.739C63.7063 354.739 62.3825 354.375 61.2234 353.648C60.0643 352.92 59.1523 351.886 58.4876 350.545C57.8228 349.205 57.4904 347.614 57.4904 345.773C57.4904 343.932 57.8228 342.341 58.4876 341C59.1523 339.659 60.0643 338.625 61.2234 337.898C62.3825 337.17 63.7063 336.807 65.195 336.807C66.0756 336.807 66.9023 336.935 67.6751 337.19C68.4535 337.446 69.1552 337.821 69.7802 338.315C70.4052 338.804 70.9279 339.401 71.3484 340.105C71.7688 340.804 72.0586 341.602 72.2177 342.5ZM80.6786 354.773C79.4968 354.773 78.4599 354.491 77.5678 353.929C76.6815 353.366 75.9883 352.58 75.4883 351.568C74.994 350.557 74.7468 349.375 74.7468 348.023C74.7468 346.659 74.994 345.469 75.4883 344.452C75.9883 343.435 76.6815 342.645 77.5678 342.082C78.4599 341.52 79.4968 341.239 80.6786 341.239C81.8604 341.239 82.8945 341.52 83.7809 342.082C84.6729 342.645 85.3661 343.435 85.8604 344.452C86.3604 345.469 86.6104 346.659 86.6104 348.023C86.6104 349.375 86.3604 350.557 85.8604 351.568C85.3661 352.58 84.6729 353.366 83.7809 353.929C82.8945 354.491 81.8604 354.773 80.6786 354.773ZM80.6786 352.966C81.5763 352.966 82.315 352.736 82.8945 352.276C83.4741 351.815 83.9031 351.21 84.1815 350.46C84.4599 349.71 84.5991 348.898 84.5991 348.023C84.5991 347.148 84.4599 346.332 84.1815 345.577C83.9031 344.821 83.4741 344.21 82.8945 343.744C82.315 343.278 81.5763 343.045 80.6786 343.045C79.7809 343.045 79.0423 343.278 78.4627 343.744C77.8832 344.21 77.4542 344.821 77.1758 345.577C76.8974 346.332 76.7582 347.148 76.7582 348.023C76.7582 348.898 76.8974 349.71 77.1758 350.46C77.4542 351.21 77.8832 351.815 78.4627 352.276C79.0423 352.736 79.7809 352.966 80.6786 352.966ZM94.6239 354.773C93.533 354.773 92.57 354.497 91.7347 353.946C90.8995 353.389 90.2461 352.605 89.7745 351.594C89.3029 350.577 89.0671 349.375 89.0671 347.989C89.0671 346.614 89.3029 345.42 89.7745 344.409C90.2461 343.398 90.9023 342.616 91.7433 342.065C92.5842 341.514 93.5558 341.239 94.658 341.239C95.5103 341.239 96.1836 341.381 96.6779 341.665C97.1779 341.943 97.5586 342.261 97.82 342.619C98.087 342.972 98.2944 343.261 98.4421 343.489H98.6126V337.045H100.624V354.5H98.6808V352.489H98.4421C98.2944 352.727 98.0842 353.028 97.8114 353.392C97.5387 353.75 97.1495 354.071 96.6438 354.355C96.1381 354.634 95.4648 354.773 94.6239 354.773ZM94.8967 352.966C95.7035 352.966 96.3853 352.756 96.9421 352.335C97.4989 351.909 97.9222 351.321 98.212 350.571C98.5018 349.815 98.6467 348.943 98.6467 347.955C98.6467 346.977 98.5046 346.122 98.2205 345.389C97.9364 344.651 97.516 344.077 96.9592 343.668C96.4023 343.253 95.7148 343.045 94.8967 343.045C94.0444 343.045 93.3342 343.264 92.766 343.702C92.2035 344.134 91.7802 344.722 91.4961 345.466C91.2177 346.205 91.0785 347.034 91.0785 347.955C91.0785 348.886 91.2205 349.733 91.5046 350.494C91.7944 351.25 92.2205 351.852 92.783 352.301C93.3512 352.744 94.0558 352.966 94.8967 352.966ZM110.076 354.773C108.814 354.773 107.726 354.494 106.811 353.938C105.902 353.375 105.201 352.591 104.706 351.585C104.218 350.574 103.973 349.398 103.973 348.057C103.973 346.716 104.218 345.534 104.706 344.511C105.201 343.483 105.888 342.682 106.769 342.108C107.655 341.528 108.689 341.239 109.871 341.239C110.553 341.239 111.226 341.352 111.891 341.58C112.556 341.807 113.161 342.176 113.706 342.688C114.252 343.193 114.686 343.864 115.01 344.699C115.334 345.534 115.496 346.562 115.496 347.784V348.636H105.405V346.898H113.451C113.451 346.159 113.303 345.5 113.007 344.92C112.718 344.341 112.303 343.884 111.763 343.548C111.229 343.213 110.598 343.045 109.871 343.045C109.07 343.045 108.377 343.244 107.792 343.642C107.212 344.034 106.766 344.545 106.453 345.176C106.141 345.807 105.985 346.483 105.985 347.205V348.364C105.985 349.352 106.155 350.19 106.496 350.878C106.843 351.56 107.323 352.08 107.936 352.438C108.55 352.79 109.263 352.966 110.076 352.966C110.604 352.966 111.081 352.892 111.507 352.744C111.939 352.591 112.311 352.364 112.624 352.062C112.936 351.756 113.178 351.375 113.348 350.92L115.292 351.466C115.087 352.125 114.743 352.705 114.26 353.205C113.777 353.699 113.181 354.085 112.471 354.364C111.76 354.636 110.962 354.773 110.076 354.773ZM140.306 345.773C140.306 347.614 139.973 349.205 139.309 350.545C138.644 351.886 137.732 352.92 136.573 353.648C135.414 354.375 134.09 354.739 132.601 354.739C131.113 354.739 129.789 354.375 128.63 353.648C127.471 352.92 126.559 351.886 125.894 350.545C125.229 349.205 124.897 347.614 124.897 345.773C124.897 343.932 125.229 342.341 125.894 341C126.559 339.659 127.471 338.625 128.63 337.898C129.789 337.17 131.113 336.807 132.601 336.807C134.09 336.807 135.414 337.17 136.573 337.898C137.732 338.625 138.644 339.659 139.309 341C139.973 342.341 140.306 343.932 140.306 345.773ZM138.26 345.773C138.26 344.261 138.007 342.986 137.502 341.946C137.002 340.906 136.323 340.119 135.465 339.585C134.613 339.051 133.658 338.784 132.601 338.784C131.544 338.784 130.587 339.051 129.729 339.585C128.877 340.119 128.198 340.906 127.692 341.946C127.192 342.986 126.942 344.261 126.942 345.773C126.942 347.284 127.192 348.56 127.692 349.599C128.198 350.639 128.877 351.426 129.729 351.96C130.587 352.494 131.544 352.761 132.601 352.761C133.658 352.761 134.613 352.494 135.465 351.96C136.323 351.426 137.002 350.639 137.502 349.599C138.007 348.56 138.26 347.284 138.26 345.773ZM149.417 341.409V343.114H142.36V341.409H149.417ZM144.473 354.5V339.602C144.473 338.852 144.65 338.227 145.002 337.727C145.354 337.227 145.811 336.852 146.374 336.602C146.936 336.352 147.53 336.227 148.155 336.227C148.65 336.227 149.053 336.267 149.365 336.347C149.678 336.426 149.911 336.5 150.064 336.568L149.485 338.307C149.382 338.273 149.24 338.23 149.059 338.179C148.882 338.128 148.65 338.102 148.36 338.102C147.695 338.102 147.215 338.27 146.919 338.605C146.63 338.94 146.485 339.432 146.485 340.08V354.5H144.473ZM173.304 342.5H171.19C171.065 341.892 170.846 341.358 170.534 340.898C170.227 340.438 169.852 340.051 169.409 339.739C168.971 339.42 168.485 339.182 167.951 339.023C167.417 338.864 166.86 338.784 166.281 338.784C165.224 338.784 164.267 339.051 163.409 339.585C162.556 340.119 161.877 340.906 161.372 341.946C160.872 342.986 160.622 344.261 160.622 345.773C160.622 347.284 160.872 348.56 161.372 349.599C161.877 350.639 162.556 351.426 163.409 351.96C164.267 352.494 165.224 352.761 166.281 352.761C166.86 352.761 167.417 352.682 167.951 352.523C168.485 352.364 168.971 352.128 169.409 351.815C169.852 351.497 170.227 351.108 170.534 350.648C170.846 350.182 171.065 349.648 171.19 349.045H173.304C173.145 349.937 172.855 350.736 172.434 351.44C172.014 352.145 171.491 352.744 170.866 353.239C170.241 353.727 169.539 354.099 168.761 354.355C167.988 354.611 167.162 354.739 166.281 354.739C164.792 354.739 163.468 354.375 162.309 353.648C161.15 352.92 160.238 351.886 159.574 350.545C158.909 349.205 158.576 347.614 158.576 345.773C158.576 343.932 158.909 342.341 159.574 341C160.238 339.659 161.15 338.625 162.309 337.898C163.468 337.17 164.792 336.807 166.281 336.807C167.162 336.807 167.988 336.935 168.761 337.19C169.539 337.446 170.241 337.821 170.866 338.315C171.491 338.804 172.014 339.401 172.434 340.105C172.855 340.804 173.145 341.602 173.304 342.5ZM181.765 354.773C180.583 354.773 179.546 354.491 178.654 353.929C177.767 353.366 177.074 352.58 176.574 351.568C176.08 350.557 175.833 349.375 175.833 348.023C175.833 346.659 176.08 345.469 176.574 344.452C177.074 343.435 177.767 342.645 178.654 342.082C179.546 341.52 180.583 341.239 181.765 341.239C182.946 341.239 183.98 341.52 184.867 342.082C185.759 342.645 186.452 343.435 186.946 344.452C187.446 345.469 187.696 346.659 187.696 348.023C187.696 349.375 187.446 350.557 186.946 351.568C186.452 352.58 185.759 353.366 184.867 353.929C183.98 354.491 182.946 354.773 181.765 354.773ZM181.765 352.966C182.662 352.966 183.401 352.736 183.98 352.276C184.56 351.815 184.989 351.21 185.267 350.46C185.546 349.71 185.685 348.898 185.685 348.023C185.685 347.148 185.546 346.332 185.267 345.577C184.989 344.821 184.56 344.21 183.98 343.744C183.401 343.278 182.662 343.045 181.765 343.045C180.867 343.045 180.128 343.278 179.549 343.744C178.969 344.21 178.54 344.821 178.262 345.577C177.983 346.332 177.844 347.148 177.844 348.023C177.844 348.898 177.983 349.71 178.262 350.46C178.54 351.21 178.969 351.815 179.549 352.276C180.128 352.736 180.867 352.966 181.765 352.966ZM192.778 346.625V354.5H190.767V341.409H192.71V343.455H192.88C193.187 342.79 193.653 342.256 194.278 341.852C194.903 341.443 195.71 341.239 196.699 341.239C197.585 341.239 198.36 341.42 199.025 341.784C199.69 342.142 200.207 342.688 200.576 343.42C200.946 344.148 201.13 345.068 201.13 346.182V354.5H199.119V346.318C199.119 345.29 198.852 344.489 198.318 343.915C197.784 343.335 197.051 343.045 196.119 343.045C195.477 343.045 194.903 343.185 194.397 343.463C193.897 343.741 193.502 344.148 193.213 344.682C192.923 345.216 192.778 345.864 192.778 346.625ZM209.749 354.773C208.658 354.773 207.695 354.497 206.86 353.946C206.025 353.389 205.371 352.605 204.9 351.594C204.428 350.577 204.192 349.375 204.192 347.989C204.192 346.614 204.428 345.42 204.9 344.409C205.371 343.398 206.027 342.616 206.868 342.065C207.709 341.514 208.681 341.239 209.783 341.239C210.635 341.239 211.309 341.381 211.803 341.665C212.303 341.943 212.684 342.261 212.945 342.619C213.212 342.972 213.419 343.261 213.567 343.489H213.738V337.045H215.749V354.5H213.806V352.489H213.567C213.419 352.727 213.209 353.028 212.936 353.392C212.664 353.75 212.275 354.071 211.769 354.355C211.263 354.634 210.59 354.773 209.749 354.773ZM210.022 352.966C210.828 352.966 211.51 352.756 212.067 352.335C212.624 351.909 213.047 351.321 213.337 350.571C213.627 349.815 213.772 348.943 213.772 347.955C213.772 346.977 213.63 346.122 213.346 345.389C213.061 344.651 212.641 344.077 212.084 343.668C211.527 343.253 210.84 343.045 210.022 343.045C209.169 343.045 208.459 343.264 207.891 343.702C207.328 344.134 206.905 344.722 206.621 345.466C206.343 346.205 206.203 347.034 206.203 347.955C206.203 348.886 206.346 349.733 206.63 350.494C206.919 351.25 207.346 351.852 207.908 352.301C208.476 352.744 209.181 352.966 210.022 352.966ZM227.962 349.148V341.409H229.973V354.5H227.962V352.284H227.826C227.519 352.949 227.042 353.514 226.394 353.98C225.746 354.44 224.928 354.67 223.939 354.67C223.121 354.67 222.394 354.491 221.757 354.134C221.121 353.77 220.621 353.224 220.257 352.497C219.894 351.764 219.712 350.841 219.712 349.727V341.409H221.723V349.591C221.723 350.545 221.99 351.307 222.525 351.875C223.064 352.443 223.752 352.727 224.587 352.727C225.087 352.727 225.596 352.599 226.113 352.344C226.635 352.088 227.073 351.696 227.425 351.168C227.783 350.639 227.962 349.966 227.962 349.148ZM238.975 354.773C237.748 354.773 236.691 354.483 235.805 353.903C234.919 353.324 234.237 352.526 233.76 351.509C233.282 350.491 233.044 349.33 233.044 348.023C233.044 346.693 233.288 345.52 233.777 344.503C234.271 343.48 234.958 342.682 235.839 342.108C236.725 341.528 237.76 341.239 238.941 341.239C239.862 341.239 240.691 341.409 241.43 341.75C242.169 342.091 242.774 342.568 243.245 343.182C243.717 343.795 244.01 344.511 244.123 345.33H242.112C241.958 344.733 241.618 344.205 241.089 343.744C240.566 343.278 239.862 343.045 238.975 343.045C238.191 343.045 237.504 343.25 236.913 343.659C236.328 344.062 235.87 344.634 235.541 345.372C235.217 346.105 235.055 346.966 235.055 347.955C235.055 348.966 235.214 349.847 235.532 350.597C235.856 351.347 236.311 351.929 236.896 352.344C237.487 352.759 238.18 352.966 238.975 352.966C239.498 352.966 239.973 352.875 240.399 352.693C240.825 352.511 241.186 352.25 241.481 351.909C241.777 351.568 241.987 351.159 242.112 350.682H244.123C244.01 351.455 243.728 352.151 243.279 352.77C242.836 353.384 242.248 353.872 241.515 354.236C240.788 354.594 239.941 354.773 238.975 354.773ZM252.757 341.409V343.114H245.973V341.409H252.757ZM247.95 338.273H249.961V350.75C249.961 351.318 250.044 351.744 250.208 352.028C250.379 352.307 250.595 352.494 250.856 352.591C251.123 352.682 251.404 352.727 251.7 352.727C251.922 352.727 252.103 352.716 252.245 352.693C252.387 352.665 252.501 352.642 252.586 352.625L252.995 354.432C252.859 354.483 252.669 354.534 252.424 354.585C252.18 354.642 251.87 354.67 251.495 354.67C250.927 354.67 250.37 354.548 249.825 354.304C249.285 354.06 248.836 353.688 248.478 353.188C248.126 352.688 247.95 352.057 247.95 351.295V338.273Z" fill="#919191"/>
</svg>
