
<svg width="1440" height="121" viewBox="0 0 1440 121" fill="none" xmlns="http://www.w3.org/2000/svg">
<mask id="path-1-inside-1_219_36505" fill="white">
<path d="M0 0H1440V121H0V0Z"/>
</mask>
<path d="M0 0H1440V121H0V0Z" fill="#050505"/>
<path d="M0 3H1440V-3H0V3Z" fill="#1F1F1F" mask="url(#path-1-inside-1_219_36505)"/>
<path d="M222.457 69V51.5455H224.571V67.125H232.685V69H222.457ZM241.173 69.2727C239.912 69.2727 238.824 68.9943 237.909 68.4375C237 67.875 236.298 67.0909 235.804 66.0852C235.315 65.0739 235.071 63.8977 235.071 62.5568C235.071 61.2159 235.315 60.0341 235.804 59.0114C236.298 57.983 236.986 57.1818 237.866 56.608C238.753 56.0284 239.787 55.7386 240.969 55.7386C241.651 55.7386 242.324 55.8523 242.989 56.0795C243.653 56.3068 244.259 56.6761 244.804 57.1875C245.349 57.6932 245.784 58.3636 246.108 59.1989C246.432 60.0341 246.594 61.0625 246.594 62.2841V63.1364H236.503V61.3977H244.548C244.548 60.6591 244.401 60 244.105 59.4205C243.815 58.8409 243.401 58.3835 242.861 58.0483C242.327 57.7131 241.696 57.5455 240.969 57.5455C240.168 57.5455 239.474 57.7443 238.889 58.142C238.31 58.5341 237.864 59.0455 237.551 59.6761C237.239 60.3068 237.082 60.983 237.082 61.7045V62.8636C237.082 63.8523 237.253 64.6903 237.594 65.3778C237.94 66.0597 238.42 66.5795 239.034 66.9375C239.648 67.2898 240.361 67.4659 241.173 67.4659C241.702 67.4659 242.179 67.392 242.605 67.2443C243.037 67.0909 243.409 66.8636 243.722 66.5625C244.034 66.2557 244.276 65.875 244.446 65.4205L246.389 65.9659C246.185 66.625 245.841 67.2045 245.358 67.7045C244.875 68.1989 244.278 68.5852 243.568 68.8636C242.858 69.1364 242.06 69.2727 241.173 69.2727ZM254.938 74.1818C253.966 74.1818 253.131 74.0568 252.432 73.8068C251.733 73.5625 251.151 73.2386 250.685 72.8352C250.224 72.4375 249.858 72.0114 249.585 71.5568L251.188 70.4318C251.369 70.6705 251.599 70.9432 251.878 71.25C252.156 71.5625 252.537 71.8324 253.02 72.0597C253.509 72.2926 254.148 72.4091 254.938 72.4091C255.994 72.4091 256.866 72.1534 257.554 71.642C258.241 71.1307 258.585 70.3295 258.585 69.2386V66.5795H258.415C258.267 66.8182 258.057 67.1136 257.784 67.4659C257.517 67.8125 257.131 68.1222 256.625 68.3949C256.125 68.6619 255.449 68.7955 254.597 68.7955C253.54 68.7955 252.591 68.5455 251.75 68.0455C250.915 67.5455 250.253 66.8182 249.764 65.8636C249.281 64.9091 249.04 63.75 249.04 62.3864C249.04 61.0455 249.276 59.8778 249.747 58.8835C250.219 57.8835 250.875 57.1108 251.716 56.5653C252.557 56.0142 253.528 55.7386 254.631 55.7386C255.483 55.7386 256.159 55.8807 256.659 56.1648C257.165 56.4432 257.551 56.7614 257.818 57.1193C258.091 57.4716 258.301 57.7614 258.449 57.9886H258.653V55.9091H260.597V69.375C260.597 70.5 260.341 71.4148 259.83 72.1193C259.324 72.8295 258.642 73.3494 257.784 73.679C256.932 74.0142 255.983 74.1818 254.938 74.1818ZM254.869 66.9886C255.676 66.9886 256.358 66.804 256.915 66.4347C257.472 66.0653 257.895 65.5341 258.185 64.8409C258.474 64.1477 258.619 63.3182 258.619 62.3523C258.619 61.4091 258.477 60.5767 258.193 59.8551C257.909 59.1335 257.489 58.5682 256.932 58.1591C256.375 57.75 255.688 57.5455 254.869 57.5455C254.017 57.5455 253.307 57.7614 252.739 58.1932C252.176 58.625 251.753 59.2045 251.469 59.9318C251.19 60.6591 251.051 61.4659 251.051 62.3523C251.051 63.2614 251.193 64.0653 251.477 64.7642C251.767 65.4574 252.193 66.0028 252.756 66.4006C253.324 66.7926 254.028 66.9886 254.869 66.9886ZM268.131 69.3068C267.301 69.3068 266.548 69.1506 265.872 68.8381C265.196 68.5199 264.659 68.0625 264.261 67.4659C263.864 66.8636 263.665 66.1364 263.665 65.2841C263.665 64.5341 263.813 63.9261 264.108 63.4602C264.403 62.9886 264.798 62.6193 265.293 62.3523C265.787 62.0852 266.332 61.8864 266.929 61.7557C267.531 61.6193 268.136 61.5114 268.744 61.4318C269.54 61.3295 270.185 61.2528 270.679 61.2017C271.179 61.1449 271.543 61.0511 271.77 60.9205C272.003 60.7898 272.119 60.5625 272.119 60.2386V60.1705C272.119 59.3295 271.889 58.6761 271.429 58.2102C270.974 57.7443 270.284 57.5114 269.358 57.5114C268.398 57.5114 267.645 57.7216 267.099 58.142C266.554 58.5625 266.17 59.0114 265.949 59.4886L264.04 58.8068C264.381 58.0114 264.835 57.392 265.403 56.9489C265.977 56.5 266.602 56.1875 267.278 56.0114C267.96 55.8295 268.631 55.7386 269.29 55.7386C269.71 55.7386 270.193 55.7898 270.739 55.892C271.29 55.9886 271.821 56.1903 272.332 56.4972C272.849 56.804 273.278 57.267 273.619 57.8864C273.96 58.5057 274.131 59.3352 274.131 60.375V69H272.119V67.2273H272.017C271.881 67.5114 271.653 67.8153 271.335 68.1392C271.017 68.4631 270.594 68.7386 270.065 68.9659C269.537 69.1932 268.892 69.3068 268.131 69.3068ZM268.438 67.5C269.233 67.5 269.903 67.3438 270.449 67.0312C271 66.7188 271.415 66.3153 271.693 65.821C271.977 65.3267 272.119 64.8068 272.119 64.2614V62.4205C272.034 62.5227 271.847 62.6165 271.557 62.7017C271.273 62.7812 270.943 62.8523 270.568 62.9148C270.199 62.9716 269.838 63.0227 269.486 63.0682C269.139 63.108 268.858 63.142 268.642 63.1705C268.119 63.2386 267.631 63.3494 267.176 63.5028C266.727 63.6506 266.364 63.875 266.085 64.1761C265.813 64.4716 265.676 64.875 265.676 65.3864C265.676 66.0852 265.935 66.6136 266.452 66.9716C266.974 67.3239 267.636 67.5 268.438 67.5ZM279.813 51.5455V69H277.802V51.5455H279.813Z" fill="white"/>
<path d="M323.378 53.4205V51.5455H336.469V53.4205H330.98V69H328.866V53.4205H323.378ZM343.048 69.2727C341.787 69.2727 340.699 68.9943 339.784 68.4375C338.875 67.875 338.173 67.0909 337.679 66.0852C337.19 65.0739 336.946 63.8977 336.946 62.5568C336.946 61.2159 337.19 60.0341 337.679 59.0114C338.173 57.983 338.861 57.1818 339.741 56.608C340.628 56.0284 341.662 55.7386 342.844 55.7386C343.526 55.7386 344.199 55.8523 344.864 56.0795C345.528 56.3068 346.134 56.6761 346.679 57.1875C347.224 57.6932 347.659 58.3636 347.983 59.1989C348.307 60.0341 348.469 61.0625 348.469 62.2841V63.1364H338.378V61.3977H346.423C346.423 60.6591 346.276 60 345.98 59.4205C345.69 58.8409 345.276 58.3835 344.736 58.0483C344.202 57.7131 343.571 57.5455 342.844 57.5455C342.043 57.5455 341.349 57.7443 340.764 58.142C340.185 58.5341 339.739 59.0455 339.426 59.6761C339.114 60.3068 338.957 60.983 338.957 61.7045V62.8636C338.957 63.8523 339.128 64.6903 339.469 65.3778C339.815 66.0597 340.295 66.5795 340.909 66.9375C341.523 67.2898 342.236 67.4659 343.048 67.4659C343.577 67.4659 344.054 67.392 344.48 67.2443C344.912 67.0909 345.284 66.8636 345.597 66.5625C345.909 66.2557 346.151 65.875 346.321 65.4205L348.264 65.9659C348.06 66.625 347.716 67.2045 347.233 67.7045C346.75 68.1989 346.153 68.5852 345.443 68.8636C344.733 69.1364 343.935 69.2727 343.048 69.2727ZM351.528 69V55.9091H353.472V57.8864H353.608C353.847 57.2386 354.278 56.7131 354.903 56.3097C355.528 55.9062 356.233 55.7045 357.017 55.7045C357.165 55.7045 357.349 55.7074 357.571 55.7131C357.793 55.7187 357.96 55.7273 358.074 55.7386V57.7841C358.006 57.767 357.849 57.7415 357.605 57.7074C357.366 57.6676 357.114 57.6477 356.847 57.6477C356.21 57.6477 355.642 57.7812 355.142 58.0483C354.648 58.3097 354.256 58.6733 353.966 59.1392C353.682 59.5994 353.54 60.125 353.54 60.7159V69H351.528ZM360.458 69V55.9091H362.401V57.9545H362.572C362.844 57.2557 363.285 56.7131 363.893 56.3267C364.501 55.9347 365.231 55.7386 366.083 55.7386C366.947 55.7386 367.665 55.9347 368.239 56.3267C368.819 56.7131 369.271 57.2557 369.594 57.9545H369.731C370.066 57.2784 370.569 56.7415 371.239 56.3438C371.91 55.9403 372.714 55.7386 373.651 55.7386C374.822 55.7386 375.779 56.1051 376.523 56.8381C377.268 57.5653 377.64 58.6989 377.64 60.2386V69H375.629V60.2386C375.629 59.2727 375.364 58.5824 374.836 58.1676C374.308 57.7528 373.685 57.5455 372.969 57.5455C372.049 57.5455 371.336 57.8239 370.83 58.3807C370.325 58.9318 370.072 59.6307 370.072 60.4773V69H368.026V60.0341C368.026 59.2898 367.785 58.6903 367.302 58.2358C366.819 57.7756 366.197 57.5455 365.435 57.5455C364.913 57.5455 364.424 57.6847 363.969 57.9631C363.521 58.2415 363.157 58.6278 362.879 59.1222C362.606 59.6108 362.469 60.1761 362.469 60.8182V69H360.458ZM390.59 58.8409L388.783 59.3523C388.67 59.0511 388.502 58.7585 388.281 58.4744C388.065 58.1847 387.769 57.946 387.394 57.7585C387.019 57.571 386.539 57.4773 385.954 57.4773C385.153 57.4773 384.485 57.6619 383.951 58.0312C383.423 58.3949 383.158 58.858 383.158 59.4205C383.158 59.9205 383.34 60.3153 383.704 60.6051C384.067 60.8949 384.636 61.1364 385.408 61.3295L387.352 61.8068C388.522 62.0909 389.394 62.5256 389.968 63.1108C390.542 63.6903 390.829 64.4375 390.829 65.3523C390.829 66.1023 390.613 66.7727 390.181 67.3636C389.755 67.9545 389.158 68.4205 388.391 68.7614C387.624 69.1023 386.732 69.2727 385.715 69.2727C384.38 69.2727 383.275 68.983 382.4 68.4034C381.525 67.8239 380.971 66.9773 380.738 65.8636L382.647 65.3864C382.829 66.0909 383.173 66.6193 383.678 66.9716C384.19 67.3239 384.857 67.5 385.681 67.5C386.619 67.5 387.363 67.3011 387.914 66.9034C388.471 66.5 388.749 66.017 388.749 65.4545C388.749 65 388.59 64.6193 388.272 64.3125C387.954 64 387.465 63.767 386.806 63.6136L384.624 63.1023C383.425 62.8182 382.545 62.3778 381.982 61.7812C381.425 61.179 381.147 60.4261 381.147 59.5227C381.147 58.7841 381.354 58.1307 381.769 57.5625C382.19 56.9943 382.761 56.5483 383.482 56.2244C384.21 55.9006 385.033 55.7386 385.954 55.7386C387.249 55.7386 388.266 56.0227 389.005 56.5909C389.749 57.1591 390.278 57.9091 390.59 58.8409ZM405.925 69.2727C404.743 69.2727 403.706 68.9915 402.814 68.429C401.928 67.8665 401.234 67.0795 400.734 66.0682C400.24 65.0568 399.993 63.875 399.993 62.5227C399.993 61.1591 400.24 59.9687 400.734 58.9517C401.234 57.9347 401.928 57.1449 402.814 56.5824C403.706 56.0199 404.743 55.7386 405.925 55.7386C407.107 55.7386 408.141 56.0199 409.027 56.5824C409.919 57.1449 410.612 57.9347 411.107 58.9517C411.607 59.9687 411.857 61.1591 411.857 62.5227C411.857 63.875 411.607 65.0568 411.107 66.0682C410.612 67.0795 409.919 67.8665 409.027 68.429C408.141 68.9915 407.107 69.2727 405.925 69.2727ZM405.925 67.4659C406.822 67.4659 407.561 67.2358 408.141 66.7756C408.72 66.3153 409.149 65.7102 409.428 64.9602C409.706 64.2102 409.845 63.3977 409.845 62.5227C409.845 61.6477 409.706 60.8324 409.428 60.0767C409.149 59.321 408.72 58.7102 408.141 58.2443C407.561 57.7784 406.822 57.5455 405.925 57.5455C405.027 57.5455 404.288 57.7784 403.709 58.2443C403.129 58.7102 402.7 59.321 402.422 60.0767C402.143 60.8324 402.004 61.6477 402.004 62.5227C402.004 63.3977 402.143 64.2102 402.422 64.9602C402.7 65.7102 403.129 66.3153 403.709 66.7756C404.288 67.2358 405.027 67.4659 405.925 67.4659ZM420.756 55.9091V57.6136H413.7V55.9091H420.756ZM415.813 69V54.1023C415.813 53.3523 415.989 52.7273 416.342 52.2273C416.694 51.7273 417.151 51.3523 417.714 51.1023C418.276 50.8523 418.87 50.7273 419.495 50.7273C419.989 50.7273 420.393 50.767 420.705 50.8466C421.018 50.9261 421.251 51 421.404 51.0682L420.825 52.8068C420.722 52.7727 420.58 52.7301 420.398 52.679C420.222 52.6278 419.989 52.6023 419.7 52.6023C419.035 52.6023 418.555 52.7699 418.259 53.1051C417.969 53.4403 417.825 53.9318 417.825 54.5795V69H415.813ZM442.053 51.5455H444.166V63.1023C444.166 64.2955 443.885 65.3608 443.322 66.2983C442.766 67.2301 441.979 67.9659 440.962 68.5057C439.945 69.0398 438.751 69.3068 437.382 69.3068C436.013 69.3068 434.82 69.0398 433.803 68.5057C432.786 67.9659 431.996 67.2301 431.433 66.2983C430.876 65.3608 430.598 64.2955 430.598 63.1023V51.5455H432.712V62.9318C432.712 63.7841 432.899 64.5426 433.274 65.2074C433.649 65.8665 434.183 66.3864 434.876 66.767C435.575 67.142 436.411 67.3295 437.382 67.3295C438.354 67.3295 439.189 67.142 439.888 66.767C440.587 66.3864 441.121 65.8665 441.49 65.2074C441.865 64.5426 442.053 63.7841 442.053 62.9318V51.5455ZM457.387 58.8409L455.58 59.3523C455.467 59.0511 455.299 58.7585 455.077 58.4744C454.862 58.1847 454.566 57.946 454.191 57.7585C453.816 57.571 453.336 57.4773 452.751 57.4773C451.95 57.4773 451.282 57.6619 450.748 58.0312C450.219 58.3949 449.955 58.858 449.955 59.4205C449.955 59.9205 450.137 60.3153 450.501 60.6051C450.864 60.8949 451.433 61.1364 452.205 61.3295L454.148 61.8068C455.319 62.0909 456.191 62.5256 456.765 63.1108C457.339 63.6903 457.626 64.4375 457.626 65.3523C457.626 66.1023 457.41 66.7727 456.978 67.3636C456.552 67.9545 455.955 68.4205 455.188 68.7614C454.421 69.1023 453.529 69.2727 452.512 69.2727C451.177 69.2727 450.072 68.983 449.197 68.4034C448.322 67.8239 447.768 66.9773 447.535 65.8636L449.444 65.3864C449.626 66.0909 449.969 66.6193 450.475 66.9716C450.987 67.3239 451.654 67.5 452.478 67.5C453.415 67.5 454.16 67.3011 454.711 66.9034C455.268 66.5 455.546 66.017 455.546 65.4545C455.546 65 455.387 64.6193 455.069 64.3125C454.751 64 454.262 63.767 453.603 63.6136L451.421 63.1023C450.222 62.8182 449.342 62.3778 448.779 61.7812C448.222 61.179 447.944 60.4261 447.944 59.5227C447.944 58.7841 448.151 58.1307 448.566 57.5625C448.987 56.9943 449.558 56.5483 450.279 56.2244C451.006 55.9006 451.83 55.7386 452.751 55.7386C454.046 55.7386 455.063 56.0227 455.802 56.5909C456.546 57.1591 457.075 57.9091 457.387 58.8409ZM466.142 69.2727C464.881 69.2727 463.793 68.9943 462.878 68.4375C461.969 67.875 461.267 67.0909 460.773 66.0852C460.284 65.0739 460.04 63.8977 460.04 62.5568C460.04 61.2159 460.284 60.0341 460.773 59.0114C461.267 57.983 461.955 57.1818 462.835 56.608C463.722 56.0284 464.756 55.7386 465.938 55.7386C466.619 55.7386 467.293 55.8523 467.957 56.0795C468.622 56.3068 469.227 56.6761 469.773 57.1875C470.318 57.6932 470.753 58.3636 471.077 59.1989C471.401 60.0341 471.562 61.0625 471.562 62.2841V63.1364H461.472V61.3977H469.517C469.517 60.6591 469.369 60 469.074 59.4205C468.784 58.8409 468.369 58.3835 467.83 58.0483C467.295 57.7131 466.665 57.5455 465.938 57.5455C465.136 57.5455 464.443 57.7443 463.858 58.142C463.278 58.5341 462.832 59.0455 462.52 59.6761C462.207 60.3068 462.051 60.983 462.051 61.7045V62.8636C462.051 63.8523 462.222 64.6903 462.562 65.3778C462.909 66.0597 463.389 66.5795 464.003 66.9375C464.616 67.2898 465.33 67.4659 466.142 67.4659C466.67 67.4659 467.148 67.392 467.574 67.2443C468.006 67.0909 468.378 66.8636 468.69 66.5625C469.003 66.2557 469.244 65.875 469.415 65.4205L471.358 65.9659C471.153 66.625 470.81 67.2045 470.327 67.7045C469.844 68.1989 469.247 68.5852 468.537 68.8636C467.827 69.1364 467.028 69.2727 466.142 69.2727Z" fill="white"/>
<path d="M515.399 69V51.5455H521.297C522.666 51.5455 523.785 51.7926 524.654 52.2869C525.529 52.7756 526.177 53.4375 526.598 54.2727C527.018 55.108 527.228 56.0398 527.228 57.0682C527.228 58.0966 527.018 59.0312 526.598 59.8722C526.183 60.7131 525.541 61.3835 524.672 61.8835C523.802 62.3778 522.689 62.625 521.331 62.625H517.103V60.75H521.262C522.2 60.75 522.953 60.5881 523.521 60.2642C524.089 59.9403 524.501 59.5028 524.757 58.9517C525.018 58.3949 525.149 57.767 525.149 57.0682C525.149 56.3693 525.018 55.7443 524.757 55.1932C524.501 54.642 524.086 54.2102 523.512 53.8977C522.939 53.5795 522.177 53.4205 521.228 53.4205H517.512V69H515.399ZM530.36 69V55.9091H532.304V57.8864H532.44C532.679 57.2386 533.11 56.7131 533.735 56.3097C534.36 55.9062 535.065 55.7045 535.849 55.7045C535.997 55.7045 536.181 55.7074 536.403 55.7131C536.625 55.7187 536.792 55.7273 536.906 55.7386V57.7841C536.838 57.767 536.681 57.7415 536.437 57.7074C536.199 57.6676 535.946 57.6477 535.679 57.6477C535.042 57.6477 534.474 57.7812 533.974 58.0483C533.48 58.3097 533.088 58.6733 532.798 59.1392C532.514 59.5994 532.372 60.125 532.372 60.7159V69H530.36ZM539.29 69V55.9091H541.301V69H539.29ZM540.313 53.7273C539.921 53.7273 539.583 53.5938 539.299 53.3267C539.02 53.0597 538.881 52.7386 538.881 52.3636C538.881 51.9886 539.02 51.6676 539.299 51.4006C539.583 51.1335 539.921 51 540.313 51C540.705 51 541.04 51.1335 541.319 51.4006C541.603 51.6676 541.745 51.9886 541.745 52.3636C541.745 52.7386 541.603 53.0597 541.319 53.3267C541.04 53.5938 540.705 53.7273 540.313 53.7273ZM555.69 55.9091L550.849 69H548.804L543.963 55.9091H546.145L549.758 66.3409H549.895L553.508 55.9091H555.69ZM561.799 69.3068C560.969 69.3068 560.216 69.1506 559.54 68.8381C558.864 68.5199 558.327 68.0625 557.929 67.4659C557.532 66.8636 557.333 66.1364 557.333 65.2841C557.333 64.5341 557.48 63.9261 557.776 63.4602C558.071 62.9886 558.466 62.6193 558.961 62.3523C559.455 62.0852 560 61.8864 560.597 61.7557C561.199 61.6193 561.804 61.5114 562.412 61.4318C563.208 61.3295 563.853 61.2528 564.347 61.2017C564.847 61.1449 565.211 61.0511 565.438 60.9205C565.671 60.7898 565.787 60.5625 565.787 60.2386V60.1705C565.787 59.3295 565.557 58.6761 565.097 58.2102C564.642 57.7443 563.952 57.5114 563.026 57.5114C562.066 57.5114 561.313 57.7216 560.767 58.142C560.222 58.5625 559.838 59.0114 559.617 59.4886L557.708 58.8068C558.049 58.0114 558.503 57.392 559.071 56.9489C559.645 56.5 560.27 56.1875 560.946 56.0114C561.628 55.8295 562.299 55.7386 562.958 55.7386C563.378 55.7386 563.861 55.7898 564.407 55.892C564.958 55.9886 565.489 56.1903 566 56.4972C566.517 56.804 566.946 57.267 567.287 57.8864C567.628 58.5057 567.799 59.3352 567.799 60.375V69H565.787V67.2273H565.685C565.549 67.5114 565.321 67.8153 565.003 68.1392C564.685 68.4631 564.262 68.7386 563.733 68.9659C563.205 69.1932 562.56 69.3068 561.799 69.3068ZM562.105 67.5C562.901 67.5 563.571 67.3438 564.117 67.0312C564.668 66.7188 565.083 66.3153 565.361 65.821C565.645 65.3267 565.787 64.8068 565.787 64.2614V62.4205C565.702 62.5227 565.515 62.6165 565.225 62.7017C564.941 62.7812 564.611 62.8523 564.236 62.9148C563.867 62.9716 563.506 63.0227 563.154 63.0682C562.807 63.108 562.526 63.142 562.31 63.1705C561.787 63.2386 561.299 63.3494 560.844 63.5028C560.395 63.6506 560.032 63.875 559.753 64.1761C559.48 64.4716 559.344 64.875 559.344 65.3864C559.344 66.0852 559.603 66.6136 560.12 66.9716C560.642 67.3239 561.304 67.5 562.105 67.5ZM576.788 69.2727C575.561 69.2727 574.504 68.983 573.618 68.4034C572.731 67.8239 572.049 67.0256 571.572 66.0085C571.095 64.9915 570.856 63.8295 570.856 62.5227C570.856 61.1932 571.1 60.0199 571.589 59.0028C572.083 57.9801 572.771 57.1818 573.652 56.608C574.538 56.0284 575.572 55.7386 576.754 55.7386C577.674 55.7386 578.504 55.9091 579.243 56.25C579.981 56.5909 580.586 57.0682 581.058 57.6818C581.529 58.2955 581.822 59.0114 581.936 59.8295H579.924C579.771 59.233 579.43 58.7045 578.902 58.2443C578.379 57.7784 577.674 57.5455 576.788 57.5455C576.004 57.5455 575.316 57.75 574.725 58.1591C574.14 58.5625 573.683 59.1335 573.353 59.8722C573.029 60.6051 572.868 61.4659 572.868 62.4545C572.868 63.4659 573.027 64.3466 573.345 65.0966C573.669 65.8466 574.123 66.429 574.708 66.8438C575.299 67.2585 575.993 67.4659 576.788 67.4659C577.311 67.4659 577.785 67.375 578.211 67.1932C578.637 67.0114 578.998 66.75 579.294 66.4091C579.589 66.0682 579.799 65.6591 579.924 65.1818H581.936C581.822 65.9545 581.541 66.6506 581.092 67.2699C580.649 67.8835 580.061 68.3722 579.328 68.7358C578.6 69.0938 577.754 69.2727 576.788 69.2727ZM586.172 73.9091C585.831 73.9091 585.527 73.8807 585.26 73.8239C584.993 73.7727 584.808 73.7216 584.706 73.6705L585.217 71.8977C585.706 72.0227 586.137 72.0682 586.512 72.0341C586.887 72 587.22 71.8324 587.51 71.5312C587.805 71.2358 588.075 70.7557 588.319 70.0909L588.694 69.0682L583.853 55.9091H586.035L589.649 66.3409H589.785L593.399 55.9091H595.581L590.024 70.9091C589.774 71.5852 589.464 72.1449 589.095 72.5881C588.725 73.0369 588.297 73.3693 587.808 73.5852C587.325 73.8011 586.779 73.9091 586.172 73.9091ZM605.258 69V51.5455H611.156C612.525 51.5455 613.645 51.7926 614.514 52.2869C615.389 52.7756 616.037 53.4375 616.457 54.2727C616.877 55.108 617.088 56.0398 617.088 57.0682C617.088 58.0966 616.877 59.0312 616.457 59.8722C616.042 60.7131 615.4 61.3835 614.531 61.8835C613.662 62.3778 612.548 62.625 611.19 62.625H606.963V60.75H611.122C612.059 60.75 612.812 60.5881 613.38 60.2642C613.949 59.9403 614.36 59.5028 614.616 58.9517C614.877 58.3949 615.008 57.767 615.008 57.0682C615.008 56.3693 614.877 55.7443 614.616 55.1932C614.36 54.642 613.946 54.2102 613.372 53.8977C612.798 53.5795 612.037 53.4205 611.088 53.4205H607.372V69H605.258ZM625.397 69.2727C624.216 69.2727 623.179 68.9915 622.287 68.429C621.4 67.8665 620.707 67.0795 620.207 66.0682C619.713 65.0568 619.466 63.875 619.466 62.5227C619.466 61.1591 619.713 59.9687 620.207 58.9517C620.707 57.9347 621.4 57.1449 622.287 56.5824C623.179 56.0199 624.216 55.7386 625.397 55.7386C626.579 55.7386 627.613 56.0199 628.5 56.5824C629.392 57.1449 630.085 57.9347 630.579 58.9517C631.079 59.9687 631.329 61.1591 631.329 62.5227C631.329 63.875 631.079 65.0568 630.579 66.0682C630.085 67.0795 629.392 67.8665 628.5 68.429C627.613 68.9915 626.579 69.2727 625.397 69.2727ZM625.397 67.4659C626.295 67.4659 627.034 67.2358 627.613 66.7756C628.193 66.3153 628.622 65.7102 628.9 64.9602C629.179 64.2102 629.318 63.3977 629.318 62.5227C629.318 61.6477 629.179 60.8324 628.9 60.0767C628.622 59.321 628.193 58.7102 627.613 58.2443C627.034 57.7784 626.295 57.5455 625.397 57.5455C624.5 57.5455 623.761 57.7784 623.181 58.2443C622.602 58.7102 622.173 59.321 621.895 60.0767C621.616 60.8324 621.477 61.6477 621.477 62.5227C621.477 63.3977 621.616 64.2102 621.895 64.9602C622.173 65.7102 622.602 66.3153 623.181 66.7756C623.761 67.2358 624.5 67.4659 625.397 67.4659ZM636.411 51.5455V69H634.4V51.5455H636.411ZM640.095 69V55.9091H642.106V69H640.095ZM641.118 53.7273C640.725 53.7273 640.387 53.5938 640.103 53.3267C639.825 53.0597 639.686 52.7386 639.686 52.3636C639.686 51.9886 639.825 51.6676 640.103 51.4006C640.387 51.1335 640.725 51 641.118 51C641.51 51 641.845 51.1335 642.123 51.4006C642.407 51.6676 642.549 51.9886 642.549 52.3636C642.549 52.7386 642.407 53.0597 642.123 53.3267C641.845 53.5938 641.51 53.7273 641.118 53.7273ZM651.108 69.2727C649.881 69.2727 648.824 68.983 647.938 68.4034C647.051 67.8239 646.37 67.0256 645.892 66.0085C645.415 64.9915 645.176 63.8295 645.176 62.5227C645.176 61.1932 645.421 60.0199 645.909 59.0028C646.404 57.9801 647.091 57.1818 647.972 56.608C648.858 56.0284 649.892 55.7386 651.074 55.7386C651.995 55.7386 652.824 55.9091 653.563 56.25C654.301 56.5909 654.907 57.0682 655.378 57.6818C655.85 58.2955 656.142 59.0114 656.256 59.8295H654.245C654.091 59.233 653.75 58.7045 653.222 58.2443C652.699 57.7784 651.995 57.5455 651.108 57.5455C650.324 57.5455 649.637 57.75 649.046 58.1591C648.461 58.5625 648.003 59.1335 647.674 59.8722C647.35 60.6051 647.188 61.4659 647.188 62.4545C647.188 63.4659 647.347 64.3466 647.665 65.0966C647.989 65.8466 648.444 66.429 649.029 66.8438C649.62 67.2585 650.313 67.4659 651.108 67.4659C651.631 67.4659 652.105 67.375 652.532 67.1932C652.958 67.0114 653.319 66.75 653.614 66.4091C653.909 66.0682 654.12 65.6591 654.245 65.1818H656.256C656.142 65.9545 655.861 66.6506 655.412 67.2699C654.969 67.8835 654.381 68.3722 653.648 68.7358C652.921 69.0938 652.074 69.2727 651.108 69.2727ZM660.492 73.9091C660.151 73.9091 659.847 73.8807 659.58 73.8239C659.313 73.7727 659.128 73.7216 659.026 73.6705L659.537 71.8977C660.026 72.0227 660.458 72.0682 660.833 72.0341C661.208 72 661.54 71.8324 661.83 71.5312C662.125 71.2358 662.395 70.7557 662.64 70.0909L663.015 69.0682L658.174 55.9091H660.355L663.969 66.3409H664.105L667.719 55.9091H669.901L664.344 70.9091C664.094 71.5852 663.784 72.1449 663.415 72.5881C663.046 73.0369 662.617 73.3693 662.128 73.5852C661.645 73.8011 661.1 73.9091 660.492 73.9091Z" fill="white"/>
<path d="M727.468 57H725.354C725.229 56.392 725.01 55.858 724.698 55.3977C724.391 54.9375 724.016 54.5511 723.573 54.2386C723.135 53.9205 722.65 53.6818 722.115 53.5227C721.581 53.3636 721.025 53.2841 720.445 53.2841C719.388 53.2841 718.431 53.5511 717.573 54.0852C716.721 54.6193 716.042 55.4062 715.536 56.446C715.036 57.4858 714.786 58.7614 714.786 60.2727C714.786 61.7841 715.036 63.0597 715.536 64.0994C716.042 65.1392 716.721 65.9261 717.573 66.4602C718.431 66.9943 719.388 67.2614 720.445 67.2614C721.025 67.2614 721.581 67.1818 722.115 67.0227C722.65 66.8636 723.135 66.6278 723.573 66.3153C724.016 65.9972 724.391 65.608 724.698 65.1477C725.01 64.6818 725.229 64.1477 725.354 63.5455H727.468C727.309 64.4375 727.019 65.2358 726.598 65.9403C726.178 66.6449 725.655 67.2443 725.03 67.7386C724.405 68.2273 723.703 68.5994 722.925 68.8551C722.152 69.1108 721.326 69.2386 720.445 69.2386C718.956 69.2386 717.632 68.875 716.473 68.1477C715.314 67.4205 714.402 66.3864 713.738 65.0455C713.073 63.7045 712.74 62.1136 712.74 60.2727C712.74 58.4318 713.073 56.8409 713.738 55.5C714.402 54.1591 715.314 53.125 716.473 52.3977C717.632 51.6705 718.956 51.3068 720.445 51.3068C721.326 51.3068 722.152 51.4347 722.925 51.6903C723.703 51.946 724.405 52.321 725.03 52.8153C725.655 53.304 726.178 53.9006 726.598 54.6051C727.019 55.304 727.309 56.1023 727.468 57ZM734.463 69.3068C733.633 69.3068 732.88 69.1506 732.204 68.8381C731.528 68.5199 730.991 68.0625 730.593 67.4659C730.196 66.8636 729.997 66.1364 729.997 65.2841C729.997 64.5341 730.145 63.9261 730.44 63.4602C730.735 62.9886 731.13 62.6193 731.625 62.3523C732.119 62.0852 732.664 61.8864 733.261 61.7557C733.863 61.6193 734.468 61.5114 735.076 61.4318C735.872 61.3295 736.517 61.2528 737.011 61.2017C737.511 61.1449 737.875 61.0511 738.102 60.9205C738.335 60.7898 738.451 60.5625 738.451 60.2386V60.1705C738.451 59.3295 738.221 58.6761 737.761 58.2102C737.306 57.7443 736.616 57.5114 735.69 57.5114C734.73 57.5114 733.977 57.7216 733.431 58.142C732.886 58.5625 732.502 59.0114 732.281 59.4886L730.372 58.8068C730.713 58.0114 731.167 57.392 731.735 56.9489C732.309 56.5 732.934 56.1875 733.61 56.0114C734.292 55.8295 734.963 55.7386 735.622 55.7386C736.042 55.7386 736.525 55.7898 737.071 55.892C737.622 55.9886 738.153 56.1903 738.664 56.4972C739.181 56.804 739.61 57.267 739.951 57.8864C740.292 58.5057 740.463 59.3352 740.463 60.375V69H738.451V67.2273H738.349C738.213 67.5114 737.985 67.8153 737.667 68.1392C737.349 68.4631 736.926 68.7386 736.397 68.9659C735.869 69.1932 735.224 69.3068 734.463 69.3068ZM734.77 67.5C735.565 67.5 736.235 67.3438 736.781 67.0312C737.332 66.7188 737.747 66.3153 738.025 65.821C738.309 65.3267 738.451 64.8068 738.451 64.2614V62.4205C738.366 62.5227 738.179 62.6165 737.889 62.7017C737.605 62.7812 737.275 62.8523 736.9 62.9148C736.531 62.9716 736.17 63.0227 735.818 63.0682C735.471 63.108 735.19 63.142 734.974 63.1705C734.451 63.2386 733.963 63.3494 733.508 63.5028C733.059 63.6506 732.696 63.875 732.417 64.1761C732.145 64.4716 732.008 64.875 732.008 65.3864C732.008 66.0852 732.267 66.6136 732.784 66.9716C733.306 67.3239 733.968 67.5 734.77 67.5ZM744.134 69V55.9091H746.077V57.8864H746.213C746.452 57.2386 746.884 56.7131 747.509 56.3097C748.134 55.9062 748.838 55.7045 749.623 55.7045C749.77 55.7045 749.955 55.7074 750.176 55.7131C750.398 55.7187 750.566 55.7273 750.679 55.7386V57.7841C750.611 57.767 750.455 57.7415 750.211 57.7074C749.972 57.6676 749.719 57.6477 749.452 57.6477C748.816 57.6477 748.248 57.7812 747.748 58.0483C747.253 58.3097 746.861 58.6733 746.571 59.1392C746.287 59.5994 746.145 60.125 746.145 60.7159V69H744.134ZM758.154 69.2727C756.892 69.2727 755.804 68.9943 754.89 68.4375C753.98 67.875 753.279 67.0909 752.784 66.0852C752.296 65.0739 752.051 63.8977 752.051 62.5568C752.051 61.2159 752.296 60.0341 752.784 59.0114C753.279 57.983 753.966 57.1818 754.847 56.608C755.733 56.0284 756.767 55.7386 757.949 55.7386C758.631 55.7386 759.304 55.8523 759.969 56.0795C760.634 56.3068 761.239 56.6761 761.784 57.1875C762.33 57.6932 762.765 58.3636 763.088 59.1989C763.412 60.0341 763.574 61.0625 763.574 62.2841V63.1364H753.483V61.3977H761.529C761.529 60.6591 761.381 60 761.086 59.4205C760.796 58.8409 760.381 58.3835 759.841 58.0483C759.307 57.7131 758.676 57.5455 757.949 57.5455C757.148 57.5455 756.455 57.7443 755.87 58.142C755.29 58.5341 754.844 59.0455 754.532 59.6761C754.219 60.3068 754.063 60.983 754.063 61.7045V62.8636C754.063 63.8523 754.233 64.6903 754.574 65.3778C754.921 66.0597 755.401 66.5795 756.015 66.9375C756.628 67.2898 757.341 67.4659 758.154 67.4659C758.682 67.4659 759.159 67.392 759.586 67.2443C760.017 67.0909 760.39 66.8636 760.702 66.5625C761.015 66.2557 761.256 65.875 761.426 65.4205L763.37 65.9659C763.165 66.625 762.821 67.2045 762.338 67.7045C761.855 68.1989 761.259 68.5852 760.549 68.8636C759.838 69.1364 759.04 69.2727 758.154 69.2727ZM772.123 69.2727C770.861 69.2727 769.773 68.9943 768.858 68.4375C767.949 67.875 767.248 67.0909 766.753 66.0852C766.265 65.0739 766.02 63.8977 766.02 62.5568C766.02 61.2159 766.265 60.0341 766.753 59.0114C767.248 57.983 767.935 57.1818 768.816 56.608C769.702 56.0284 770.736 55.7386 771.918 55.7386C772.6 55.7386 773.273 55.8523 773.938 56.0795C774.603 56.3068 775.208 56.6761 775.753 57.1875C776.299 57.6932 776.733 58.3636 777.057 59.1989C777.381 60.0341 777.543 61.0625 777.543 62.2841V63.1364H767.452V61.3977H775.498C775.498 60.6591 775.35 60 775.054 59.4205C774.765 58.8409 774.35 58.3835 773.81 58.0483C773.276 57.7131 772.645 57.5455 771.918 57.5455C771.117 57.5455 770.424 57.7443 769.838 58.142C769.259 58.5341 768.813 59.0455 768.5 59.6761C768.188 60.3068 768.032 60.983 768.032 61.7045V62.8636C768.032 63.8523 768.202 64.6903 768.543 65.3778C768.89 66.0597 769.37 66.5795 769.983 66.9375C770.597 67.2898 771.31 67.4659 772.123 67.4659C772.651 67.4659 773.128 67.392 773.554 67.2443C773.986 67.0909 774.358 66.8636 774.671 66.5625C774.983 66.2557 775.225 65.875 775.395 65.4205L777.338 65.9659C777.134 66.625 776.79 67.2045 776.307 67.7045C775.824 68.1989 775.228 68.5852 774.517 68.8636C773.807 69.1364 773.009 69.2727 772.123 69.2727ZM780.603 69V55.9091H782.546V57.8864H782.682C782.921 57.2386 783.353 56.7131 783.978 56.3097C784.603 55.9062 785.307 55.7045 786.091 55.7045C786.239 55.7045 786.424 55.7074 786.645 55.7131C786.867 55.7187 787.034 55.7273 787.148 55.7386V57.7841C787.08 57.767 786.924 57.7415 786.679 57.7074C786.441 57.6676 786.188 57.6477 785.921 57.6477C785.284 57.6477 784.716 57.7812 784.216 58.0483C783.722 58.3097 783.33 58.6733 783.04 59.1392C782.756 59.5994 782.614 60.125 782.614 60.7159V69H780.603Z" fill="white"/>
<path d="M844.589 57H842.475C842.35 56.392 842.131 55.858 841.819 55.3977C841.512 54.9375 841.137 54.5511 840.694 54.2386C840.256 53.9205 839.771 53.6818 839.237 53.5227C838.702 53.3636 838.146 53.2841 837.566 53.2841C836.509 53.2841 835.552 53.5511 834.694 54.0852C833.842 54.6193 833.163 55.4062 832.657 56.446C832.157 57.4858 831.907 58.7614 831.907 60.2727C831.907 61.7841 832.157 63.0597 832.657 64.0994C833.163 65.1392 833.842 65.9261 834.694 66.4602C835.552 66.9943 836.509 67.2614 837.566 67.2614C838.146 67.2614 838.702 67.1818 839.237 67.0227C839.771 66.8636 840.256 66.6278 840.694 66.3153C841.137 65.9972 841.512 65.608 841.819 65.1477C842.131 64.6818 842.35 64.1477 842.475 63.5455H844.589C844.43 64.4375 844.14 65.2358 843.719 65.9403C843.299 66.6449 842.776 67.2443 842.151 67.7386C841.526 68.2273 840.825 68.5994 840.046 68.8551C839.273 69.1108 838.447 69.2386 837.566 69.2386C836.077 69.2386 834.754 68.875 833.594 68.1477C832.435 67.4205 831.523 66.3864 830.859 65.0455C830.194 63.7045 829.862 62.1136 829.862 60.2727C829.862 58.4318 830.194 56.8409 830.859 55.5C831.523 54.1591 832.435 53.125 833.594 52.3977C834.754 51.6705 836.077 51.3068 837.566 51.3068C838.447 51.3068 839.273 51.4347 840.046 51.6903C840.825 51.946 841.526 52.321 842.151 52.8153C842.776 53.304 843.299 53.9006 843.719 54.6051C844.14 55.304 844.43 56.1023 844.589 57ZM853.05 69.2727C851.868 69.2727 850.831 68.9915 849.939 68.429C849.053 67.8665 848.359 67.0795 847.859 66.0682C847.365 65.0568 847.118 63.875 847.118 62.5227C847.118 61.1591 847.365 59.9687 847.859 58.9517C848.359 57.9347 849.053 57.1449 849.939 56.5824C850.831 56.0199 851.868 55.7386 853.05 55.7386C854.232 55.7386 855.266 56.0199 856.152 56.5824C857.044 57.1449 857.737 57.9347 858.232 58.9517C858.732 59.9687 858.982 61.1591 858.982 62.5227C858.982 63.875 858.732 65.0568 858.232 66.0682C857.737 67.0795 857.044 67.8665 856.152 68.429C855.266 68.9915 854.232 69.2727 853.05 69.2727ZM853.05 67.4659C853.947 67.4659 854.686 67.2358 855.266 66.7756C855.845 66.3153 856.274 65.7102 856.553 64.9602C856.831 64.2102 856.97 63.3977 856.97 62.5227C856.97 61.6477 856.831 60.8324 856.553 60.0767C856.274 59.321 855.845 58.7102 855.266 58.2443C854.686 57.7784 853.947 57.5455 853.05 57.5455C852.152 57.5455 851.413 57.7784 850.834 58.2443C850.254 58.7102 849.825 59.321 849.547 60.0767C849.268 60.8324 849.129 61.6477 849.129 62.5227C849.129 63.3977 849.268 64.2102 849.547 64.9602C849.825 65.7102 850.254 66.3153 850.834 66.7756C851.413 67.2358 852.152 67.4659 853.05 67.4659ZM867.37 69.2727C866.188 69.2727 865.151 68.9915 864.259 68.429C863.373 67.8665 862.68 67.0795 862.18 66.0682C861.685 65.0568 861.438 63.875 861.438 62.5227C861.438 61.1591 861.685 59.9687 862.18 58.9517C862.68 57.9347 863.373 57.1449 864.259 56.5824C865.151 56.0199 866.188 55.7386 867.37 55.7386C868.552 55.7386 869.586 56.0199 870.472 56.5824C871.364 57.1449 872.058 57.9347 872.552 58.9517C873.052 59.9687 873.302 61.1591 873.302 62.5227C873.302 63.875 873.052 65.0568 872.552 66.0682C872.058 67.0795 871.364 67.8665 870.472 68.429C869.586 68.9915 868.552 69.2727 867.37 69.2727ZM867.37 67.4659C868.268 67.4659 869.006 67.2358 869.586 66.7756C870.165 66.3153 870.594 65.7102 870.873 64.9602C871.151 64.2102 871.29 63.3977 871.29 62.5227C871.29 61.6477 871.151 60.8324 870.873 60.0767C870.594 59.321 870.165 58.7102 869.586 58.2443C869.006 57.7784 868.268 57.5455 867.37 57.5455C866.472 57.5455 865.734 57.7784 865.154 58.2443C864.575 58.7102 864.146 59.321 863.867 60.0767C863.589 60.8324 863.45 61.6477 863.45 62.5227C863.45 63.3977 863.589 64.2102 863.867 64.9602C864.146 65.7102 864.575 66.3153 865.154 66.7756C865.734 67.2358 866.472 67.4659 867.37 67.4659ZM878.247 64.2273L878.213 61.7386H878.622L884.349 55.9091H886.838L880.736 62.0795H880.565L878.247 64.2273ZM876.372 69V51.5455H878.384V69H876.372ZM884.69 69L879.577 62.5227L881.009 61.125L887.247 69H884.69ZM889.427 69V55.9091H891.438V69H889.427ZM890.45 53.7273C890.058 53.7273 889.719 53.5938 889.435 53.3267C889.157 53.0597 889.018 52.7386 889.018 52.3636C889.018 51.9886 889.157 51.6676 889.435 51.4006C889.719 51.1335 890.058 51 890.45 51C890.842 51 891.177 51.1335 891.455 51.4006C891.739 51.6676 891.881 51.9886 891.881 52.3636C891.881 52.7386 891.739 53.0597 891.455 53.3267C891.177 53.5938 890.842 53.7273 890.45 53.7273ZM900.611 69.2727C899.349 69.2727 898.261 68.9943 897.347 68.4375C896.438 67.875 895.736 67.0909 895.241 66.0852C894.753 65.0739 894.509 63.8977 894.509 62.5568C894.509 61.2159 894.753 60.0341 895.241 59.0114C895.736 57.983 896.423 57.1818 897.304 56.608C898.19 56.0284 899.224 55.7386 900.406 55.7386C901.088 55.7386 901.761 55.8523 902.426 56.0795C903.091 56.3068 903.696 56.6761 904.241 57.1875C904.787 57.6932 905.222 58.3636 905.545 59.1989C905.869 60.0341 906.031 61.0625 906.031 62.2841V63.1364H895.94V61.3977H903.986C903.986 60.6591 903.838 60 903.543 59.4205C903.253 58.8409 902.838 58.3835 902.298 58.0483C901.764 57.7131 901.134 57.5455 900.406 57.5455C899.605 57.5455 898.912 57.7443 898.327 58.142C897.747 58.5341 897.301 59.0455 896.989 59.6761C896.676 60.3068 896.52 60.983 896.52 61.7045V62.8636C896.52 63.8523 896.69 64.6903 897.031 65.3778C897.378 66.0597 897.858 66.5795 898.472 66.9375C899.085 67.2898 899.798 67.4659 900.611 67.4659C901.139 67.4659 901.616 67.392 902.043 67.2443C902.474 67.0909 902.847 66.8636 903.159 66.5625C903.472 66.2557 903.713 65.875 903.884 65.4205L905.827 65.9659C905.622 66.625 905.278 67.2045 904.795 67.7045C904.313 68.1989 903.716 68.5852 903.006 68.8636C902.295 69.1364 901.497 69.2727 900.611 69.2727ZM916.114 69V51.5455H922.011C923.381 51.5455 924.5 51.7926 925.369 52.2869C926.244 52.7756 926.892 53.4375 927.312 54.2727C927.733 55.108 927.943 56.0398 927.943 57.0682C927.943 58.0966 927.733 59.0312 927.312 59.8722C926.898 60.7131 926.256 61.3835 925.386 61.8835C924.517 62.3778 923.403 62.625 922.045 62.625H917.818V60.75H921.977C922.915 60.75 923.668 60.5881 924.236 60.2642C924.804 59.9403 925.216 59.5028 925.472 58.9517C925.733 58.3949 925.864 57.767 925.864 57.0682C925.864 56.3693 925.733 55.7443 925.472 55.1932C925.216 54.642 924.801 54.2102 924.227 53.8977C923.653 53.5795 922.892 53.4205 921.943 53.4205H918.227V69H916.114ZM936.253 69.2727C935.071 69.2727 934.034 68.9915 933.142 68.429C932.256 67.8665 931.562 67.0795 931.062 66.0682C930.568 65.0568 930.321 63.875 930.321 62.5227C930.321 61.1591 930.568 59.9687 931.062 58.9517C931.562 57.9347 932.256 57.1449 933.142 56.5824C934.034 56.0199 935.071 55.7386 936.253 55.7386C937.435 55.7386 938.469 56.0199 939.355 56.5824C940.247 57.1449 940.94 57.9347 941.435 58.9517C941.935 59.9687 942.185 61.1591 942.185 62.5227C942.185 63.875 941.935 65.0568 941.435 66.0682C940.94 67.0795 940.247 67.8665 939.355 68.429C938.469 68.9915 937.435 69.2727 936.253 69.2727ZM936.253 67.4659C937.151 67.4659 937.889 67.2358 938.469 66.7756C939.048 66.3153 939.477 65.7102 939.756 64.9602C940.034 64.2102 940.173 63.3977 940.173 62.5227C940.173 61.6477 940.034 60.8324 939.756 60.0767C939.477 59.321 939.048 58.7102 938.469 58.2443C937.889 57.7784 937.151 57.5455 936.253 57.5455C935.355 57.5455 934.616 57.7784 934.037 58.2443C933.457 58.7102 933.028 59.321 932.75 60.0767C932.472 60.8324 932.332 61.6477 932.332 62.5227C932.332 63.3977 932.472 64.2102 932.75 64.9602C933.028 65.7102 933.457 66.3153 934.037 66.7756C934.616 67.2358 935.355 67.4659 936.253 67.4659ZM947.266 51.5455V69H945.255V51.5455H947.266ZM950.95 69V55.9091H952.962V69H950.95ZM951.973 53.7273C951.581 53.7273 951.243 53.5938 950.959 53.3267C950.68 53.0597 950.541 52.7386 950.541 52.3636C950.541 51.9886 950.68 51.6676 950.959 51.4006C951.243 51.1335 951.581 51 951.973 51C952.365 51 952.7 51.1335 952.979 51.4006C953.263 51.6676 953.405 51.9886 953.405 52.3636C953.405 52.7386 953.263 53.0597 952.979 53.3267C952.7 53.5938 952.365 53.7273 951.973 53.7273ZM961.964 69.2727C960.737 69.2727 959.68 68.983 958.793 68.4034C957.907 67.8239 957.225 67.0256 956.748 66.0085C956.271 64.9915 956.032 63.8295 956.032 62.5227C956.032 61.1932 956.276 60.0199 956.765 59.0028C957.259 57.9801 957.947 57.1818 958.827 56.608C959.714 56.0284 960.748 55.7386 961.93 55.7386C962.85 55.7386 963.68 55.9091 964.418 56.25C965.157 56.5909 965.762 57.0682 966.234 57.6818C966.705 58.2955 966.998 59.0114 967.112 59.8295H965.1C964.947 59.233 964.606 58.7045 964.077 58.2443C963.555 57.7784 962.85 57.5455 961.964 57.5455C961.18 57.5455 960.492 57.75 959.901 58.1591C959.316 58.5625 958.859 59.1335 958.529 59.8722C958.205 60.6051 958.043 61.4659 958.043 62.4545C958.043 63.4659 958.202 64.3466 958.521 65.0966C958.844 65.8466 959.299 66.429 959.884 66.8438C960.475 67.2585 961.168 67.4659 961.964 67.4659C962.487 67.4659 962.961 67.375 963.387 67.1932C963.813 67.0114 964.174 66.75 964.469 66.4091C964.765 66.0682 964.975 65.6591 965.1 65.1818H967.112C966.998 65.9545 966.717 66.6506 966.268 67.2699C965.825 67.8835 965.237 68.3722 964.504 68.7358C963.776 69.0938 962.93 69.2727 961.964 69.2727ZM971.347 73.9091C971.006 73.9091 970.702 73.8807 970.435 73.8239C970.168 73.7727 969.984 73.7216 969.881 73.6705L970.393 71.8977C970.881 72.0227 971.313 72.0682 971.688 72.0341C972.063 72 972.396 71.8324 972.685 71.5312C972.981 71.2358 973.251 70.7557 973.495 70.0909L973.87 69.0682L969.029 55.9091H971.211L974.825 66.3409H974.961L978.575 55.9091H980.756L975.2 70.9091C974.95 71.5852 974.64 72.1449 974.271 72.5881C973.901 73.0369 973.472 73.3693 972.984 73.5852C972.501 73.8011 971.955 73.9091 971.347 73.9091Z" fill="white"/>
<path d="M1038.22 57H1036.1C1035.98 56.392 1035.76 55.858 1035.45 55.3977C1035.14 54.9375 1034.77 54.5511 1034.32 54.2386C1033.89 53.9205 1033.4 53.6818 1032.87 53.5227C1032.33 53.3636 1031.77 53.2841 1031.19 53.2841C1030.14 53.2841 1029.18 53.5511 1028.32 54.0852C1027.47 54.6193 1026.79 55.4062 1026.29 56.446C1025.79 57.4858 1025.54 58.7614 1025.54 60.2727C1025.54 61.7841 1025.79 63.0597 1026.29 64.0994C1026.79 65.1392 1027.47 65.9261 1028.32 66.4602C1029.18 66.9943 1030.14 67.2614 1031.19 67.2614C1031.77 67.2614 1032.33 67.1818 1032.87 67.0227C1033.4 66.8636 1033.89 66.6278 1034.32 66.3153C1034.77 65.9972 1035.14 65.608 1035.45 65.1477C1035.76 64.6818 1035.98 64.1477 1036.1 63.5455H1038.22C1038.06 64.4375 1037.77 65.2358 1037.35 65.9403C1036.93 66.6449 1036.41 67.2443 1035.78 67.7386C1035.16 68.2273 1034.45 68.5994 1033.68 68.8551C1032.9 69.1108 1032.08 69.2386 1031.19 69.2386C1029.71 69.2386 1028.38 68.875 1027.22 68.1477C1026.06 67.4205 1025.15 66.3864 1024.49 65.0455C1023.82 63.7045 1023.49 62.1136 1023.49 60.2727C1023.49 58.4318 1023.82 56.8409 1024.49 55.5C1025.15 54.1591 1026.06 53.125 1027.22 52.3977C1028.38 51.6705 1029.71 51.3068 1031.19 51.3068C1032.08 51.3068 1032.9 51.4347 1033.68 51.6903C1034.45 51.946 1035.16 52.321 1035.78 52.8153C1036.41 53.304 1036.93 53.9006 1037.35 54.6051C1037.77 55.304 1038.06 56.1023 1038.22 57ZM1046.68 69.2727C1045.5 69.2727 1044.46 68.9915 1043.57 68.429C1042.68 67.8665 1041.99 67.0795 1041.49 66.0682C1040.99 65.0568 1040.75 63.875 1040.75 62.5227C1040.75 61.1591 1040.99 59.9687 1041.49 58.9517C1041.99 57.9347 1042.68 57.1449 1043.57 56.5824C1044.46 56.0199 1045.5 55.7386 1046.68 55.7386C1047.86 55.7386 1048.89 56.0199 1049.78 56.5824C1050.67 57.1449 1051.37 57.9347 1051.86 58.9517C1052.36 59.9687 1052.61 61.1591 1052.61 62.5227C1052.61 63.875 1052.36 65.0568 1051.86 66.0682C1051.37 67.0795 1050.67 67.8665 1049.78 68.429C1048.89 68.9915 1047.86 69.2727 1046.68 69.2727ZM1046.68 67.4659C1047.58 67.4659 1048.31 67.2358 1048.89 66.7756C1049.47 66.3153 1049.9 65.7102 1050.18 64.9602C1050.46 64.2102 1050.6 63.3977 1050.6 62.5227C1050.6 61.6477 1050.46 60.8324 1050.18 60.0767C1049.9 59.321 1049.47 58.7102 1048.89 58.2443C1048.31 57.7784 1047.58 57.5455 1046.68 57.5455C1045.78 57.5455 1045.04 57.7784 1044.46 58.2443C1043.88 58.7102 1043.45 59.321 1043.18 60.0767C1042.9 60.8324 1042.76 61.6477 1042.76 62.5227C1042.76 63.3977 1042.9 64.2102 1043.18 64.9602C1043.45 65.7102 1043.88 66.3153 1044.46 66.7756C1045.04 67.2358 1045.78 67.4659 1046.68 67.4659ZM1060.62 69.2727C1059.53 69.2727 1058.57 68.9972 1057.73 68.446C1056.9 67.8892 1056.25 67.1051 1055.77 66.0938C1055.3 65.0767 1055.07 63.875 1055.07 62.4886C1055.07 61.1136 1055.3 59.9205 1055.77 58.9091C1056.25 57.8977 1056.9 57.1165 1057.74 56.5653C1058.58 56.0142 1059.56 55.7386 1060.66 55.7386C1061.51 55.7386 1062.18 55.8807 1062.68 56.1648C1063.18 56.4432 1063.56 56.7614 1063.82 57.1193C1064.09 57.4716 1064.29 57.7614 1064.44 57.9886H1064.61V51.5455H1066.62V69H1064.68V66.9886H1064.44C1064.29 67.2273 1064.08 67.5284 1063.81 67.892C1063.54 68.25 1063.15 68.571 1062.64 68.8551C1062.14 69.1335 1061.46 69.2727 1060.62 69.2727ZM1060.9 67.4659C1061.7 67.4659 1062.39 67.2557 1062.94 66.8352C1063.5 66.4091 1063.92 65.821 1064.21 65.071C1064.5 64.3153 1064.65 63.4432 1064.65 62.4545C1064.65 61.4773 1064.5 60.6222 1064.22 59.8892C1063.94 59.1506 1063.52 58.5767 1062.96 58.1676C1062.4 57.7528 1061.71 57.5455 1060.9 57.5455C1060.04 57.5455 1059.33 57.7642 1058.77 58.2017C1058.2 58.6335 1057.78 59.2216 1057.5 59.9659C1057.22 60.7045 1057.08 61.5341 1057.08 62.4545C1057.08 63.3864 1057.22 64.233 1057.5 64.9943C1057.79 65.75 1058.22 66.3523 1058.78 66.8011C1059.35 67.2443 1060.06 67.4659 1060.9 67.4659ZM1076.08 69.2727C1074.81 69.2727 1073.73 68.9943 1072.81 68.4375C1071.9 67.875 1071.2 67.0909 1070.71 66.0852C1070.22 65.0739 1069.97 63.8977 1069.97 62.5568C1069.97 61.2159 1070.22 60.0341 1070.71 59.0114C1071.2 57.983 1071.89 57.1818 1072.77 56.608C1073.66 56.0284 1074.69 55.7386 1075.87 55.7386C1076.55 55.7386 1077.23 55.8523 1077.89 56.0795C1078.56 56.3068 1079.16 56.6761 1079.71 57.1875C1080.25 57.6932 1080.69 58.3636 1081.01 59.1989C1081.33 60.0341 1081.5 61.0625 1081.5 62.2841V63.1364H1071.41V61.3977H1079.45C1079.45 60.6591 1079.3 60 1079.01 59.4205C1078.72 58.8409 1078.3 58.3835 1077.76 58.0483C1077.23 57.7131 1076.6 57.5455 1075.87 57.5455C1075.07 57.5455 1074.38 57.7443 1073.79 58.142C1073.21 58.5341 1072.77 59.0455 1072.45 59.6761C1072.14 60.3068 1071.98 60.983 1071.98 61.7045V62.8636C1071.98 63.8523 1072.16 64.6903 1072.5 65.3778C1072.84 66.0597 1073.32 66.5795 1073.94 66.9375C1074.55 67.2898 1075.26 67.4659 1076.08 67.4659C1076.6 67.4659 1077.08 67.392 1077.51 67.2443C1077.94 67.0909 1078.31 66.8636 1078.62 66.5625C1078.94 66.2557 1079.18 65.875 1079.35 65.4205L1081.29 65.9659C1081.09 66.625 1080.74 67.2045 1080.26 67.7045C1079.78 68.1989 1079.18 68.5852 1078.47 68.8636C1077.76 69.1364 1076.96 69.2727 1076.08 69.2727ZM1106.31 60.2727C1106.31 62.1136 1105.97 63.7045 1105.31 65.0455C1104.64 66.3864 1103.73 67.4205 1102.57 68.1477C1101.41 68.875 1100.09 69.2386 1098.6 69.2386C1097.11 69.2386 1095.79 68.875 1094.63 68.1477C1093.47 67.4205 1092.56 66.3864 1091.89 65.0455C1091.23 63.7045 1090.9 62.1136 1090.9 60.2727C1090.9 58.4318 1091.23 56.8409 1091.89 55.5C1092.56 54.1591 1093.47 53.125 1094.63 52.3977C1095.79 51.6705 1097.11 51.3068 1098.6 51.3068C1100.09 51.3068 1101.41 51.6705 1102.57 52.3977C1103.73 53.125 1104.64 54.1591 1105.31 55.5C1105.97 56.8409 1106.31 58.4318 1106.31 60.2727ZM1104.26 60.2727C1104.26 58.7614 1104.01 57.4858 1103.5 56.446C1103 55.4062 1102.32 54.6193 1101.46 54.0852C1100.61 53.5511 1099.66 53.2841 1098.6 53.2841C1097.54 53.2841 1096.59 53.5511 1095.73 54.0852C1094.88 54.6193 1094.2 55.4062 1093.69 56.446C1093.19 57.4858 1092.94 58.7614 1092.94 60.2727C1092.94 61.7841 1093.19 63.0597 1093.69 64.0994C1094.2 65.1392 1094.88 65.9261 1095.73 66.4602C1096.59 66.9943 1097.54 67.2614 1098.6 67.2614C1099.66 67.2614 1100.61 66.9943 1101.46 66.4602C1102.32 65.9261 1103 65.1392 1103.5 64.0994C1104.01 63.0597 1104.26 61.7841 1104.26 60.2727ZM1115.42 55.9091V57.6136H1108.36V55.9091H1115.42ZM1110.47 69V54.1023C1110.47 53.3523 1110.65 52.7273 1111 52.2273C1111.35 51.7273 1111.81 51.3523 1112.37 51.1023C1112.94 50.8523 1113.53 50.7273 1114.16 50.7273C1114.65 50.7273 1115.05 50.767 1115.37 50.8466C1115.68 50.9261 1115.91 51 1116.06 51.0682L1115.48 52.8068C1115.38 52.7727 1115.24 52.7301 1115.06 52.679C1114.88 52.6278 1114.65 52.6023 1114.36 52.6023C1113.69 52.6023 1113.21 52.7699 1112.92 53.1051C1112.63 53.4403 1112.48 53.9318 1112.48 54.5795V69H1110.47ZM1139.3 57H1137.19C1137.06 56.392 1136.85 55.858 1136.53 55.3977C1136.23 54.9375 1135.85 54.5511 1135.41 54.2386C1134.97 53.9205 1134.49 53.6818 1133.95 53.5227C1133.42 53.3636 1132.86 53.2841 1132.28 53.2841C1131.22 53.2841 1130.27 53.5511 1129.41 54.0852C1128.56 54.6193 1127.88 55.4062 1127.37 56.446C1126.87 57.4858 1126.62 58.7614 1126.62 60.2727C1126.62 61.7841 1126.87 63.0597 1127.37 64.0994C1127.88 65.1392 1128.56 65.9261 1129.41 66.4602C1130.27 66.9943 1131.22 67.2614 1132.28 67.2614C1132.86 67.2614 1133.42 67.1818 1133.95 67.0227C1134.49 66.8636 1134.97 66.6278 1135.41 66.3153C1135.85 65.9972 1136.23 65.608 1136.53 65.1477C1136.85 64.6818 1137.06 64.1477 1137.19 63.5455H1139.3C1139.14 64.4375 1138.85 65.2358 1138.43 65.9403C1138.01 66.6449 1137.49 67.2443 1136.87 67.7386C1136.24 68.2273 1135.54 68.5994 1134.76 68.8551C1133.99 69.1108 1133.16 69.2386 1132.28 69.2386C1130.79 69.2386 1129.47 68.875 1128.31 68.1477C1127.15 67.4205 1126.24 66.3864 1125.57 65.0455C1124.91 63.7045 1124.58 62.1136 1124.58 60.2727C1124.58 58.4318 1124.91 56.8409 1125.57 55.5C1126.24 54.1591 1127.15 53.125 1128.31 52.3977C1129.47 51.6705 1130.79 51.3068 1132.28 51.3068C1133.16 51.3068 1133.99 51.4347 1134.76 51.6903C1135.54 51.946 1136.24 52.321 1136.87 52.8153C1137.49 53.304 1138.01 53.9006 1138.43 54.6051C1138.85 55.304 1139.14 56.1023 1139.3 57ZM1147.76 69.2727C1146.58 69.2727 1145.55 68.9915 1144.65 68.429C1143.77 67.8665 1143.07 67.0795 1142.57 66.0682C1142.08 65.0568 1141.83 63.875 1141.83 62.5227C1141.83 61.1591 1142.08 59.9687 1142.57 58.9517C1143.07 57.9347 1143.77 57.1449 1144.65 56.5824C1145.55 56.0199 1146.58 55.7386 1147.76 55.7386C1148.95 55.7386 1149.98 56.0199 1150.87 56.5824C1151.76 57.1449 1152.45 57.9347 1152.95 58.9517C1153.45 59.9687 1153.7 61.1591 1153.7 62.5227C1153.7 63.875 1153.45 65.0568 1152.95 66.0682C1152.45 67.0795 1151.76 67.8665 1150.87 68.429C1149.98 68.9915 1148.95 69.2727 1147.76 69.2727ZM1147.76 67.4659C1148.66 67.4659 1149.4 67.2358 1149.98 66.7756C1150.56 66.3153 1150.99 65.7102 1151.27 64.9602C1151.55 64.2102 1151.69 63.3977 1151.69 62.5227C1151.69 61.6477 1151.55 60.8324 1151.27 60.0767C1150.99 59.321 1150.56 58.7102 1149.98 58.2443C1149.4 57.7784 1148.66 57.5455 1147.76 57.5455C1146.87 57.5455 1146.13 57.7784 1145.55 58.2443C1144.97 58.7102 1144.54 59.321 1144.26 60.0767C1143.98 60.8324 1143.84 61.6477 1143.84 62.5227C1143.84 63.3977 1143.98 64.2102 1144.26 64.9602C1144.54 65.7102 1144.97 66.3153 1145.55 66.7756C1146.13 67.2358 1146.87 67.4659 1147.76 67.4659ZM1158.78 61.125V69H1156.77V55.9091H1158.71V57.9545H1158.88C1159.19 57.2898 1159.65 56.7557 1160.28 56.3523C1160.9 55.9432 1161.71 55.7386 1162.7 55.7386C1163.58 55.7386 1164.36 55.9205 1165.03 56.2841C1165.69 56.642 1166.21 57.1875 1166.58 57.9205C1166.95 58.6477 1167.13 59.5682 1167.13 60.6818V69H1165.12V60.8182C1165.12 59.7898 1164.85 58.9886 1164.32 58.4148C1163.78 57.8352 1163.05 57.5455 1162.12 57.5455C1161.48 57.5455 1160.9 57.6847 1160.4 57.9631C1159.9 58.2415 1159.5 58.6477 1159.21 59.1818C1158.92 59.7159 1158.78 60.3636 1158.78 61.125ZM1175.75 69.2727C1174.66 69.2727 1173.69 68.9972 1172.86 68.446C1172.02 67.8892 1171.37 67.1051 1170.9 66.0938C1170.43 65.0767 1170.19 63.875 1170.19 62.4886C1170.19 61.1136 1170.43 59.9205 1170.9 58.9091C1171.37 57.8977 1172.03 57.1165 1172.87 56.5653C1173.71 56.0142 1174.68 55.7386 1175.78 55.7386C1176.64 55.7386 1177.31 55.8807 1177.8 56.1648C1178.3 56.4432 1178.68 56.7614 1178.94 57.1193C1179.21 57.4716 1179.42 57.7614 1179.57 57.9886H1179.74V51.5455H1181.75V69H1179.81V66.9886H1179.57C1179.42 67.2273 1179.21 67.5284 1178.94 67.892C1178.66 68.25 1178.27 68.571 1177.77 68.8551C1177.26 69.1335 1176.59 69.2727 1175.75 69.2727ZM1176.02 67.4659C1176.83 67.4659 1177.51 67.2557 1178.07 66.8352C1178.62 66.4091 1179.05 65.821 1179.34 65.071C1179.63 64.3153 1179.77 63.4432 1179.77 62.4545C1179.77 61.4773 1179.63 60.6222 1179.35 59.8892C1179.06 59.1506 1178.64 58.5767 1178.08 58.1676C1177.53 57.7528 1176.84 57.5455 1176.02 57.5455C1175.17 57.5455 1174.46 57.7642 1173.89 58.2017C1173.33 58.6335 1172.91 59.2216 1172.62 59.9659C1172.34 60.7045 1172.2 61.5341 1172.2 62.4545C1172.2 63.3864 1172.35 64.233 1172.63 64.9943C1172.92 65.75 1173.35 66.3523 1173.91 66.8011C1174.48 67.2443 1175.18 67.4659 1176.02 67.4659ZM1193.96 63.6477V55.9091H1195.97V69H1193.96V66.7841H1193.83C1193.52 67.4489 1193.04 68.0142 1192.39 68.4801C1191.75 68.9403 1190.93 69.1705 1189.94 69.1705C1189.12 69.1705 1188.39 68.9915 1187.76 68.6335C1187.12 68.2699 1186.62 67.7244 1186.26 66.9972C1185.89 66.2642 1185.71 65.3409 1185.71 64.2273V55.9091H1187.72V64.0909C1187.72 65.0455 1187.99 65.8068 1188.52 66.375C1189.06 66.9432 1189.75 67.2273 1190.59 67.2273C1191.09 67.2273 1191.6 67.0994 1192.11 66.8438C1192.64 66.5881 1193.07 66.196 1193.43 65.6676C1193.78 65.1392 1193.96 64.4659 1193.96 63.6477ZM1204.98 69.2727C1203.75 69.2727 1202.69 68.983 1201.81 68.4034C1200.92 67.8239 1200.24 67.0256 1199.76 66.0085C1199.28 64.9915 1199.04 63.8295 1199.04 62.5227C1199.04 61.1932 1199.29 60.0199 1199.78 59.0028C1200.27 57.9801 1200.96 57.1818 1201.84 56.608C1202.73 56.0284 1203.76 55.7386 1204.94 55.7386C1205.86 55.7386 1206.69 55.9091 1207.43 56.25C1208.17 56.5909 1208.77 57.0682 1209.25 57.6818C1209.72 58.2955 1210.01 59.0114 1210.12 59.8295H1208.11C1207.96 59.233 1207.62 58.7045 1207.09 58.2443C1206.57 57.7784 1205.86 57.5455 1204.98 57.5455C1204.19 57.5455 1203.5 57.75 1202.91 58.1591C1202.33 58.5625 1201.87 59.1335 1201.54 59.8722C1201.22 60.6051 1201.06 61.4659 1201.06 62.4545C1201.06 63.4659 1201.21 64.3466 1201.53 65.0966C1201.86 65.8466 1202.31 66.429 1202.9 66.8438C1203.49 67.2585 1204.18 67.4659 1204.98 67.4659C1205.5 67.4659 1205.97 67.375 1206.4 67.1932C1206.82 67.0114 1207.19 66.75 1207.48 66.4091C1207.78 66.0682 1207.99 65.6591 1208.11 65.1818H1210.12C1210.01 65.9545 1209.73 66.6506 1209.28 67.2699C1208.84 67.8835 1208.25 68.3722 1207.52 68.7358C1206.79 69.0938 1205.94 69.2727 1204.98 69.2727ZM1218.76 55.9091V57.6136H1211.97V55.9091H1218.76ZM1213.95 52.7727H1215.96V65.25C1215.96 65.8182 1216.04 66.2443 1216.21 66.5284C1216.38 66.8068 1216.59 66.9943 1216.86 67.0909C1217.12 67.1818 1217.4 67.2273 1217.7 67.2273C1217.92 67.2273 1218.1 67.2159 1218.25 67.1932C1218.39 67.1648 1218.5 67.142 1218.59 67.125L1219 68.9318C1218.86 68.983 1218.67 69.0341 1218.42 69.0852C1218.18 69.142 1217.87 69.1705 1217.5 69.1705C1216.93 69.1705 1216.37 69.0483 1215.82 68.804C1215.29 68.5597 1214.84 68.1875 1214.48 67.6875C1214.13 67.1875 1213.95 66.5568 1213.95 65.7955V52.7727Z" fill="white"/>
</svg>
