<svg width="697" height="709" viewBox="0 0 697 709" fill="none" xmlns="http://www.w3.org/2000/svg">
<path fill-rule="evenodd" clip-rule="evenodd" d="M338.223 576.011L372.476 574.879L390.933 504.505H320.39L338.223 576.011Z" fill="url(#paint0_radial_296_35671)"/>
<path fill-rule="evenodd" clip-rule="evenodd" d="M332.676 576.011H338.224L320.391 504.505H316.824L332.676 576.011Z" fill="url(#paint1_linear_296_35671)"/>
<path style="mix-blend-mode:multiply" opacity="0.71" fill-rule="evenodd" clip-rule="evenodd" d="M330.128 564.689C329.562 562.028 348.415 535.871 360.701 535.078C368.052 534.609 375.362 536.472 381.592 540.4C381.592 540.4 393.368 503.26 390.934 504.619C388.499 505.978 316.824 509.715 316.824 509.715L330.128 564.689Z" fill="url(#paint2_linear_296_35671)"/>
<path style="mix-blend-mode:screen" opacity="0.35" fill-rule="evenodd" clip-rule="evenodd" d="M234.335 507.45L290.272 708.607H403.051L463.857 507.45H234.335Z" fill="url(#paint3_linear_296_35671)"/>
<path fill-rule="evenodd" clip-rule="evenodd" d="M217.974 463.969L234.336 507.45C234.336 507.45 332.734 536.721 463.857 507.45L470.255 473.481L217.974 463.969Z" fill="url(#paint4_linear_296_35671)"/>
<path style="mix-blend-mode:multiply" opacity="0.71" fill-rule="evenodd" clip-rule="evenodd" d="M230.651 479.764C304.591 461.986 461.871 461.307 463.229 476.254L469.967 442.737C469.967 442.737 215.194 442.057 216.667 442.737C218.139 443.416 230.651 479.764 230.651 479.764Z" fill="url(#paint5_linear_296_35671)"/>
<path fill-rule="evenodd" clip-rule="evenodd" d="M104.175 406.674C135.824 447.72 197.875 474.613 263.266 483.445C328.658 492.277 397.729 493.919 460.29 477.274C517.868 461.988 565.936 439.907 584.845 413.694L104.175 406.674Z" fill="url(#paint6_radial_296_35671)"/>
<path fill-rule="evenodd" clip-rule="evenodd" d="M584.898 412.336C584.898 412.336 577.085 414.714 563.327 417.997C524.489 427.735 438.319 446.305 348.186 446.305C317.417 446.553 286.66 445.003 256.072 441.663C156.088 430.623 104.341 406.335 104.341 406.335C83.0533 241.072 210.383 151.562 210.383 151.562L458.191 158.583L476.761 159.149C482.027 163.055 486.443 167.811 491.764 171.378C601.543 246.111 584.898 412.336 584.898 412.336Z" fill="url(#paint7_radial_296_35671)"/>
<path style="mix-blend-mode:screen" opacity="0.2" fill-rule="evenodd" clip-rule="evenodd" d="M537.459 254.942C466.576 161.016 425.19 198.892 444.27 258.565C463.349 318.239 494.488 428.414 494.488 428.414L582.356 408.088C582.356 408.088 565.711 292.365 537.459 254.942Z" fill="url(#paint8_linear_296_35671)"/>
<path style="mix-blend-mode:screen" opacity="0.2" fill-rule="evenodd" clip-rule="evenodd" d="M110.456 406.73L223.009 438.435C223.009 438.435 254.77 159.714 200.362 217.972C145.954 276.23 110.456 406.73 110.456 406.73Z" fill="url(#paint9_linear_296_35671)"/>
<path style="mix-blend-mode:multiply" opacity="0.71" fill-rule="evenodd" clip-rule="evenodd" d="M491.594 171.715C485.932 168.318 481.856 163.393 476.591 159.486L210.212 151.9C210.212 151.9 82.8829 241.409 104.17 406.672C104.17 406.672 155.917 430.96 255.901 442C237.218 436.622 128.685 398.406 126.59 313.312C126.049 287.854 131.901 262.667 143.612 240.056C155.323 217.446 172.518 198.134 193.624 183.888C243.729 209.591 395.46 222.953 471.042 185.529C516.731 200.476 577.877 318.747 564.062 416.183L563.496 418.165C577.254 414.711 585.067 412.503 585.067 412.503C585.067 412.503 606.525 244.693 491.594 171.715Z" fill="url(#paint10_linear_296_35671)"/>
<path fill-rule="evenodd" clip-rule="evenodd" d="M204.948 123.085L181.339 173.586C181.339 173.586 226.632 195.1 351.81 196.629C443.075 197.705 499.861 178.512 499.861 178.512L483.838 129.143L204.948 123.085Z" fill="url(#paint11_radial_296_35671)"/>
<path fill-rule="evenodd" clip-rule="evenodd" d="M482.651 134.747C471.724 148.052 406.956 156.374 342.583 155.299C277.305 154.166 216.499 143.353 206.252 129.312C194.136 112.667 268.246 102.136 356.85 104.174C443.756 106.099 495.56 119.121 482.651 134.747Z" fill="url(#paint12_linear_296_35671)"/>
<path fill-rule="evenodd" clip-rule="evenodd" d="M249.167 125.406C249.167 125.406 258.791 141.881 333.411 145.788C415.052 150.034 438.321 132.879 438.321 132.879L428.696 96.5317L263.207 86.5673L249.167 125.406Z" fill="url(#paint13_radial_296_35671)"/>
<path fill-rule="evenodd" clip-rule="evenodd" d="M429.773 96.3043C427.679 103.778 388.5 107.628 343.094 104.683C298.707 101.966 262.586 95.7382 262.246 88.4347C261.907 81.1312 299.217 75.0167 346.038 77.5644C393.992 80.1122 431.925 88.6612 429.773 96.3043Z" fill="url(#paint14_linear_296_35671)"/>
<path fill-rule="evenodd" clip-rule="evenodd" d="M314.953 86.5094C314.953 86.5094 345.752 103.494 376.608 88.1513C376.608 88.1513 370.607 -0.113123 348.3 0.000108854C325.993 0.113341 314.953 86.5094 314.953 86.5094Z" fill="url(#paint15_radial_296_35671)"/>
<path fill-rule="evenodd" clip-rule="evenodd" d="M527.209 326.166C527.209 334.004 524.096 341.521 518.553 347.063C513.011 352.606 505.494 355.719 497.656 355.719C489.818 355.719 482.301 352.606 476.758 347.063C471.216 341.521 468.102 334.004 468.102 326.166C468.75 318.774 472.144 311.894 477.615 306.881C483.085 301.869 490.236 299.089 497.656 299.089C505.076 299.089 512.226 301.869 517.697 306.881C523.168 311.894 526.562 318.774 527.209 326.166Z" fill="#2B1F54"/>
<path style="mix-blend-mode:screen" opacity="0.5" fill-rule="evenodd" clip-rule="evenodd" d="M533.776 324.467C533.056 333.553 528.938 342.034 522.244 348.219C515.549 354.404 506.769 357.839 497.655 357.839C488.54 357.839 479.761 354.404 473.066 348.219C466.371 342.034 462.254 333.553 461.534 324.467C461.534 306.123 476.763 285.458 496.749 285.458C516.734 285.458 533.776 306.123 533.776 324.467Z" fill="url(#paint16_linear_296_35671)"/>
<path fill-rule="evenodd" clip-rule="evenodd" d="M518.717 326.165C518.865 329.019 518.431 331.873 517.441 334.554C516.451 337.235 514.926 339.686 512.958 341.758C510.99 343.831 508.621 345.481 505.996 346.609C503.37 347.736 500.542 348.318 497.684 348.318C494.827 348.318 491.999 347.736 489.373 346.609C486.747 345.481 484.378 343.831 482.411 341.758C480.443 339.686 478.918 337.235 477.928 334.554C476.937 331.873 476.503 329.019 476.651 326.165C477.124 320.913 479.544 316.028 483.436 312.47C487.329 308.912 492.411 306.939 497.684 306.939C502.958 306.939 508.04 308.912 511.932 312.47C515.824 316.028 518.245 320.913 518.717 326.165Z" fill="url(#paint17_radial_296_35671)"/>
<path style="mix-blend-mode:multiply" fill-rule="evenodd" clip-rule="evenodd" d="M468.1 324.467L477.272 330.865C477.272 330.865 482.933 321.806 499.409 321.806C515.884 321.806 518.658 327.921 518.658 327.921L525.509 316.994C523.162 311.578 519.264 306.978 514.307 303.774C509.35 300.57 503.555 298.906 497.654 298.99C475.8 298.027 466.571 318.183 468.1 324.467Z" fill="url(#paint18_linear_296_35671)"/>
<path fill-rule="evenodd" clip-rule="evenodd" d="M221.428 326.052C221.428 333.259 218.565 340.171 213.468 345.268C208.372 350.364 201.46 353.227 194.252 353.227C187.045 353.227 180.133 350.364 175.036 345.268C169.94 340.171 167.077 333.259 167.077 326.052C167.077 318.844 169.94 311.932 175.036 306.836C180.133 301.739 187.045 298.876 194.252 298.876C201.46 298.876 208.372 301.739 213.468 306.836C218.565 311.932 221.428 318.844 221.428 326.052Z" fill="#2B1F54"/>
<path style="mix-blend-mode:screen" opacity="0.5" fill-rule="evenodd" clip-rule="evenodd" d="M227.594 324.353C227.24 332.922 223.586 341.023 217.398 346.961C211.209 352.899 202.965 356.215 194.388 356.215C185.812 356.215 177.567 352.899 171.378 346.961C165.19 341.023 161.537 332.922 161.183 324.353C161.183 306.519 175.167 286.42 193.511 286.42C211.854 286.42 227.594 306.519 227.594 324.353Z" fill="url(#paint19_linear_296_35671)"/>
<path fill-rule="evenodd" clip-rule="evenodd" d="M213.614 326.051C213.614 336.469 204.951 347.622 194.251 347.622C183.55 347.622 174.888 336.299 174.888 326.051C174.888 320.916 176.928 315.991 180.559 312.36C184.191 308.729 189.115 306.689 194.251 306.689C199.386 306.689 204.311 308.729 207.942 312.36C211.574 315.991 213.614 320.916 213.614 326.051Z" fill="url(#paint20_radial_296_35671)"/>
<path style="mix-blend-mode:multiply" fill-rule="evenodd" clip-rule="evenodd" d="M167.075 324.354L175.511 330.581C175.511 330.581 180.494 321.806 195.893 321.806C211.293 321.806 213.557 327.468 213.557 327.468L219.842 316.824C217.804 311.686 214.282 307.272 209.723 304.145C205.165 301.019 199.778 299.323 194.251 299.273C174.152 298.593 165.66 318.239 167.075 324.354Z" fill="url(#paint21_linear_296_35671)"/>
<path d="M347.11 400.558C389.759 400.558 424.334 365.984 424.334 323.334C424.334 280.684 389.759 246.11 347.11 246.11C304.46 246.11 269.885 280.684 269.885 323.334C269.885 365.984 304.46 400.558 347.11 400.558Z" fill="url(#paint22_radial_296_35671)"/>
<path fill-rule="evenodd" clip-rule="evenodd" d="M424.277 317.164C421.107 363.08 389.742 394.388 347.11 394.388C326.628 394.388 306.986 386.252 292.504 371.77C278.022 357.287 269.885 337.645 269.885 317.164C269.885 274.532 304.478 234.561 347.11 234.561C389.742 234.561 427.278 274.645 424.277 317.164Z" fill="url(#paint23_radial_296_35671)"/>
<path fill-rule="evenodd" clip-rule="evenodd" d="M403.956 317.164C403.956 348.529 382.838 378.309 351.473 380.404C307.595 383.291 292.083 350.34 290.327 320.447C290.327 319.371 290.327 318.296 290.327 317.164C288.984 302.208 293.636 287.331 303.261 275.806C312.885 264.281 326.694 257.051 341.65 255.707C356.605 254.363 371.482 259.015 383.008 268.64C394.533 278.265 401.763 292.074 403.107 307.029C403.677 310.377 403.962 313.767 403.956 317.164Z" fill="url(#paint24_radial_296_35671)"/>
<path d="M394.631 324.833C398.913 298.507 381.044 273.694 354.718 269.411C328.393 265.129 303.58 282.998 299.297 309.324C295.014 335.65 312.884 360.462 339.209 364.745C365.535 369.028 390.348 351.159 394.631 324.833Z" fill="url(#paint25_radial_296_35671)"/>
<path style="mix-blend-mode:multiply" fill-rule="evenodd" clip-rule="evenodd" d="M394.047 328.543C395.066 310.992 385.498 282.401 348.754 285.288C303.462 288.855 300.234 328.543 300.234 328.543L290.44 320.447C290.44 319.371 290.44 318.295 290.44 317.163C289.778 302.597 294.762 288.337 304.354 277.355C313.945 266.372 327.403 259.513 341.926 258.207C356.448 256.901 370.914 261.248 382.311 270.342C393.708 279.437 401.157 292.578 403.106 307.029L394.047 328.543Z" fill="url(#paint26_linear_296_35671)"/>
<path style="mix-blend-mode:multiply" opacity="0.71" fill-rule="evenodd" clip-rule="evenodd" d="M269.885 328.543C269.885 328.543 281.209 392.066 347.11 394.387C415.049 396.709 424.277 321.183 424.277 321.183C424.277 321.183 425.863 423.431 350.676 423.431C279.114 423.431 269.885 328.543 269.885 328.543Z" fill="url(#paint27_linear_296_35671)"/>
<path fill-rule="evenodd" clip-rule="evenodd" d="M342.245 352.095C341.339 364.607 358.607 358.153 360.363 354.926C362.118 351.699 357.871 347.453 353.965 347.113C350.058 346.773 342.585 347.113 342.245 352.095Z" fill="#72FFFF"/>
<path style="mix-blend-mode:screen" opacity="0.91" fill-rule="evenodd" clip-rule="evenodd" d="M318.181 244.695C318.181 244.695 286.362 255.339 274.19 298.423L289.307 304.821C289.307 304.821 291.911 278.325 328.938 260.321L318.181 244.695Z" fill="url(#paint28_linear_296_35671)"/>
<g style="mix-blend-mode:multiply" opacity="0.71">
<path fill-rule="evenodd" clip-rule="evenodd" d="M406.053 310.992L421.452 314.445C421.452 314.445 427.114 380.573 362.062 393.028L360.76 380.573C360.76 380.573 407.015 367.608 406.053 310.992Z" fill="#DDCCE0"/>
</g>
<path style="mix-blend-mode:multiply" opacity="0.5" fill-rule="evenodd" clip-rule="evenodd" d="M244.014 144.654C233.565 156.006 225.515 169.351 220.349 183.889C230.998 172.688 239.074 159.298 244.014 144.654Z" fill="url(#paint29_linear_296_35671)"/>
<path style="mix-blend-mode:multiply" opacity="0.5" fill-rule="evenodd" clip-rule="evenodd" d="M348.811 155.354C345.838 168.902 345.15 182.852 346.773 196.627C346.773 196.627 348.981 173.584 348.811 155.354Z" fill="url(#paint30_linear_296_35671)"/>
<path style="mix-blend-mode:multiply" opacity="0.5" fill-rule="evenodd" clip-rule="evenodd" d="M432.548 150.486C435.399 164.203 439.182 177.708 443.871 190.91C443.871 190.91 430.17 169.453 432.548 150.486Z" fill="url(#paint31_linear_296_35671)"/>
<path style="mix-blend-mode:multiply" opacity="0.5" fill-rule="evenodd" clip-rule="evenodd" d="M273.344 96.0206L258.397 130.387C258.397 130.387 269.097 120.196 273.344 96.0206Z" fill="url(#paint32_linear_296_35671)"/>
<path style="mix-blend-mode:multiply" opacity="0.5" fill-rule="evenodd" clip-rule="evenodd" d="M342.981 104.682C339.041 118.192 338.689 132.495 341.962 146.182C341.962 146.182 342.302 123.083 342.981 104.682Z" fill="url(#paint33_linear_296_35671)"/>
<path style="mix-blend-mode:multiply" opacity="0.5" fill-rule="evenodd" clip-rule="evenodd" d="M414.431 103.436C414.431 103.436 416.809 113.174 423.659 138.934C423.829 138.934 427.622 123.591 414.431 103.436Z" fill="url(#paint34_linear_296_35671)"/>
<path style="mix-blend-mode:screen" opacity="0.5" fill-rule="evenodd" clip-rule="evenodd" d="M528.512 269.38C528.512 269.38 562.934 336.356 560.047 412.052C529.864 422.719 498.68 430.307 466.97 434.698C466.97 434.698 537.457 422.526 543.345 400.276C543.345 400.106 554.102 330.921 528.512 269.38Z" fill="url(#paint35_linear_296_35671)"/>
<path fill-rule="evenodd" clip-rule="evenodd" d="M84.5854 605.736L59.9575 614.285L61.5993 528.511C215.255 472.971 286.988 460.572 286.988 460.572L272.89 480.558C272.89 480.558 195.213 494.768 89.4543 552.347L84.5854 605.736Z" fill="url(#paint36_linear_296_35671)"/>
<path fill-rule="evenodd" clip-rule="evenodd" d="M0 534.965L34.2526 614.227H59.9565L68.5619 544.646C68.5619 544.646 183.266 485.256 286.987 460.345L127.386 428.3C78.0662 454.754 34.7077 491.06 0 534.965Z" fill="url(#paint37_radial_296_35671)"/>
<path style="mix-blend-mode:multiply" opacity="0.71" fill-rule="evenodd" clip-rule="evenodd" d="M0 534.965C21.6273 544.703 56.616 550.761 68.5619 544.703L59.9565 614.284H34.2526L0 534.965Z" fill="url(#paint38_linear_296_35671)"/>
<path fill-rule="evenodd" clip-rule="evenodd" d="M156.202 504.505C128.408 520.804 99.0465 534.271 68.5605 544.703C68.5605 544.703 83.3375 536.55 104.455 524.66C140.123 504.505 156.202 504.505 156.202 504.505Z" fill="white"/>
<path style="mix-blend-mode:multiply" opacity="0.71" fill-rule="evenodd" clip-rule="evenodd" d="M116.344 434.471C187.737 451.456 216.554 481.689 216.554 481.689L193.908 504.732L228.896 492.786L234.558 507.676C256.299 513.337 270.792 515.262 270.792 515.262L281.21 485.992L300.459 487.52L287.211 460.628L127.611 428.583L116.344 434.471Z" fill="url(#paint39_linear_296_35671)"/>
<path fill-rule="evenodd" clip-rule="evenodd" d="M612.587 605.736L637.215 614.285L635.233 528.511C481.521 472.971 409.845 460.572 409.845 460.572L423.716 480.727C423.716 480.727 501.393 494.938 607.151 552.517L612.587 605.736Z" fill="url(#paint40_linear_296_35671)"/>
<path fill-rule="evenodd" clip-rule="evenodd" d="M696.998 534.965L663.028 614.228H637.381L628.776 544.647C628.776 544.647 513.788 485.426 410.068 460.402L569.668 428.357C618.971 454.789 662.311 491.077 696.998 534.965Z" fill="url(#paint41_radial_296_35671)"/>
<path style="mix-blend-mode:multiply" opacity="0.71" fill-rule="evenodd" clip-rule="evenodd" d="M696.998 534.965C675.428 544.703 640.666 550.761 628.493 544.703L637.099 614.284H662.746L696.998 534.965Z" fill="url(#paint42_linear_296_35671)"/>
<path fill-rule="evenodd" clip-rule="evenodd" d="M628.493 467.592C629.852 493.805 688.45 524.661 688.45 524.661C677.051 510.842 664.555 497.968 651.083 486.162C632.456 470.649 628.493 467.592 628.493 467.592Z" fill="white"/>
<path style="mix-blend-mode:multiply" opacity="0.71" fill-rule="evenodd" clip-rule="evenodd" d="M580.709 434.472C509.316 451.457 480.498 481.69 480.498 481.69L488.198 499.241L466.741 492.333L463.853 507.676C463.853 507.676 450.605 510.96 436.225 513.338L428.128 485.03L388.78 489.276L410.068 460.968L569.669 428.923L580.709 434.472Z" fill="url(#paint43_linear_296_35671)"/>
<path fill-rule="evenodd" clip-rule="evenodd" d="M487.007 210.272C476.081 215.594 496.462 242.543 504.615 242.034C512.768 241.524 500.086 203.988 487.007 210.272Z" fill="white"/>
<path style="mix-blend-mode:multiply" opacity="0.71" fill-rule="evenodd" clip-rule="evenodd" d="M315.802 80.9609C297.617 82.3624 279.65 85.8192 262.243 91.2651L251.43 115.78C251.43 115.78 214.346 120.536 206.137 129.311L204.948 123.083L181.339 173.585C217.742 185.405 255.551 192.354 293.778 194.25L301.195 154.618L319.369 144.597L332.164 104.966C325.452 104.539 318.776 103.669 312.178 102.362C312.178 102.362 371.625 99.4744 376.381 88.4343C376.381 88.4343 350.224 103.947 314.726 86.7924L315.802 80.9609Z" fill="url(#paint44_linear_296_35671)"/>
<path style="mix-blend-mode:screen" opacity="0.91" fill-rule="evenodd" clip-rule="evenodd" d="M219.838 138.03C294.062 165.659 403.104 160.677 450.379 147.372C450.379 147.372 410.125 157.563 320.558 153.77C230.992 149.976 219.838 138.03 219.838 138.03Z" fill="url(#paint45_linear_296_35671)"/>
<path style="mix-blend-mode:screen" opacity="0.91" fill-rule="evenodd" clip-rule="evenodd" d="M278.553 96.0206C321.638 105.023 385.104 115.836 424.396 100.267C404.305 105.373 383.468 106.869 362.854 104.683C323.846 101.682 278.553 96.0206 278.553 96.0206Z" fill="url(#paint46_linear_296_35671)"/>
<path style="mix-blend-mode:screen" opacity="0.2" fill-rule="evenodd" clip-rule="evenodd" d="M244.012 438.717C338.561 433.056 462.266 438.717 462.266 438.717C415.868 444.113 369.192 446.759 322.481 446.644C296.105 447.082 269.768 444.421 244.012 438.717Z" fill="url(#paint47_linear_296_35671)"/>
<path style="mix-blend-mode:screen" d="M520.09 273.682C540.653 253.12 540.653 219.782 520.09 199.22C499.528 178.657 466.19 178.657 445.628 199.219C425.066 219.782 425.065 253.12 445.628 273.682C466.19 294.244 499.528 294.244 520.09 273.682Z" fill="url(#paint48_radial_296_35671)"/>
<path fill-rule="evenodd" clip-rule="evenodd" d="M350.456 9.8511C342.983 31.9314 359.401 42.5185 359.911 32.1012C360.42 21.6838 352.154 4.1895 350.456 9.8511Z" fill="white"/>
<path style="mix-blend-mode:screen" opacity="0.64" fill-rule="evenodd" clip-rule="evenodd" d="M336.41 8.66162C354.811 47.1039 315.123 84.9234 315.123 84.9234C315.123 84.9234 321.804 41.2725 328.201 26.4391C334.599 11.6057 336.41 8.66162 336.41 8.66162Z" fill="url(#paint49_linear_296_35671)"/>
<path style="mix-blend-mode:screen" fill-rule="evenodd" clip-rule="evenodd" d="M386.124 157.052L391.275 196.061L436.568 191.078C436.568 191.078 423.037 154.221 421.509 153.372C419.98 152.523 386.124 157.052 386.124 157.052Z" fill="url(#paint50_radial_296_35671)"/>
<path style="mix-blend-mode:screen" fill-rule="evenodd" clip-rule="evenodd" d="M363.475 107.966L374.119 146.182C388.61 145.261 403.023 143.37 417.26 140.52L408.711 104.682C408.711 104.682 390.085 106.494 363.475 107.966Z" fill="url(#paint51_radial_296_35671)"/>
<path style="mix-blend-mode:screen" fill-rule="evenodd" clip-rule="evenodd" d="M372.419 32.8372C372.419 46.3684 364.096 57.352 353.792 57.352C343.488 57.352 335.109 46.3684 335.109 32.8372C335.109 19.306 343.488 8.26587 353.792 8.26587C364.096 8.26587 372.419 19.2494 372.419 32.8372Z" fill="url(#paint52_radial_296_35671)"/>
<defs>
<radialGradient id="paint0_radial_296_35671" cx="0" cy="0" r="1" gradientUnits="userSpaceOnUse" gradientTransform="translate(376.823 459.722) scale(82.9988 82.9991)">
<stop stop-color="#FFD5BD"/>
<stop offset="0.1" stop-color="#F8D0BF"/>
<stop offset="0.25" stop-color="#E5C2C6"/>
<stop offset="0.43" stop-color="#C5ABD2"/>
<stop offset="0.63" stop-color="#9A8CE1"/>
<stop offset="0.75" stop-color="#7A75ED"/>
<stop offset="0.97" stop-color="#7A82ED"/>
</radialGradient>
<linearGradient id="paint1_linear_296_35671" x1="313.153" y1="540.286" x2="339.408" y2="542.124" gradientUnits="userSpaceOnUse">
<stop stop-color="#5B58A3"/>
<stop offset="0.44" stop-color="#5F59A3"/>
<stop offset="0.85" stop-color="#6A5CA2"/>
<stop offset="0.99" stop-color="#705EA2"/>
</linearGradient>
<linearGradient id="paint2_linear_296_35671" x1="316.824" y1="534.512" x2="391.274" y2="534.512" gradientUnits="userSpaceOnUse">
<stop stop-color="#9A69A4"/>
<stop offset="0.13" stop-color="#A275AB"/>
<stop offset="0.38" stop-color="#B795BF"/>
<stop offset="0.69" stop-color="#DAC8DD"/>
<stop offset="1" stop-color="white"/>
</linearGradient>
<linearGradient id="paint3_linear_296_35671" x1="349.096" y1="495.618" x2="349.096" y2="692.075" gradientUnits="userSpaceOnUse">
<stop offset="0.01" stop-color="#27A2D9"/>
<stop offset="0.19" stop-color="#1D79A2"/>
<stop offset="0.39" stop-color="#134E69"/>
<stop offset="0.59" stop-color="#0B2C3C"/>
<stop offset="0.76" stop-color="#05141B"/>
<stop offset="0.9" stop-color="#010507"/>
<stop offset="1"/>
</linearGradient>
<linearGradient id="paint4_linear_296_35671" x1="217.974" y1="492.22" x2="470.255" y2="492.22" gradientUnits="userSpaceOnUse">
<stop stop-color="#5B58A3"/>
<stop offset="0.44" stop-color="#5F59A3"/>
<stop offset="0.85" stop-color="#6A5CA2"/>
<stop offset="0.99" stop-color="#705EA2"/>
</linearGradient>
<linearGradient id="paint5_linear_296_35671" x1="327.521" y1="472.8" x2="59.8397" y2="759.843" gradientUnits="userSpaceOnUse">
<stop stop-color="#9A69A4"/>
<stop offset="0.13" stop-color="#A275AB"/>
<stop offset="0.38" stop-color="#B795BF"/>
<stop offset="0.69" stop-color="#DAC8DD"/>
<stop offset="1" stop-color="white"/>
</linearGradient>
<radialGradient id="paint6_radial_296_35671" cx="0" cy="0" r="1" gradientUnits="userSpaceOnUse" gradientTransform="translate(390.369 665.66) scale(229.691 284.817)">
<stop offset="0.01" stop-color="#DE5438"/>
<stop offset="0.26" stop-color="#DB5139"/>
<stop offset="0.46" stop-color="#D1483D"/>
<stop offset="0.64" stop-color="#C13842"/>
<stop offset="0.81" stop-color="#A9224B"/>
<stop offset="0.97" stop-color="#8C0555"/>
<stop offset="1" stop-color="#860057"/>
</radialGradient>
<radialGradient id="paint7_radial_296_35671" cx="0" cy="0" r="1" gradientUnits="userSpaceOnUse" gradientTransform="translate(384.364 179.644) scale(257.377 257.376)">
<stop offset="0.01" stop-color="#FFCC00"/>
<stop offset="0.22" stop-color="#FEC902"/>
<stop offset="0.41" stop-color="#FCBE08"/>
<stop offset="0.58" stop-color="#F8AD13"/>
<stop offset="0.75" stop-color="#F29422"/>
<stop offset="0.91" stop-color="#EA7435"/>
<stop offset="1" stop-color="#E55E42"/>
</radialGradient>
<linearGradient id="paint8_linear_296_35671" x1="510.963" y1="408.428" x2="510.963" y2="220.802" gradientUnits="userSpaceOnUse">
<stop stop-color="#623964"/>
<stop offset="1" stop-color="white"/>
</linearGradient>
<linearGradient id="paint9_linear_296_35671" x1="171.318" y1="372.194" x2="171.318" y2="199.855" gradientUnits="userSpaceOnUse">
<stop stop-color="#623964"/>
<stop offset="1" stop-color="white"/>
</linearGradient>
<linearGradient id="paint10_linear_296_35671" x1="344.166" y1="192.21" x2="344.166" y2="452.587" gradientUnits="userSpaceOnUse">
<stop stop-color="#CC87CF"/>
<stop offset="0.23" stop-color="#D5889F"/>
<stop offset="0.6" stop-color="#E38A59"/>
<stop offset="0.87" stop-color="#EC8C2E"/>
<stop offset="1" stop-color="#EF8C1D"/>
</linearGradient>
<radialGradient id="paint11_radial_296_35671" cx="0" cy="0" r="1" gradientUnits="userSpaceOnUse" gradientTransform="translate(424.278 195.327) scale(189.777 189.777)">
<stop stop-color="#B1B5BD"/>
<stop offset="0.14" stop-color="#ABAEBD"/>
<stop offset="0.34" stop-color="#9B9BBF"/>
<stop offset="0.57" stop-color="#817CC0"/>
<stop offset="0.75" stop-color="#685EC2"/>
<stop offset="0.97" stop-color="#7A75D8"/>
</radialGradient>
<linearGradient id="paint12_linear_296_35671" x1="81.8407" y1="107.896" x2="371.414" y2="115.722" gradientUnits="userSpaceOnUse">
<stop offset="0.03" stop-color="#7A82ED"/>
<stop offset="0.21" stop-color="#7A75ED"/>
<stop offset="0.99" stop-color="#FDD3BE"/>
<stop offset="1" stop-color="#FFD5BD"/>
</linearGradient>
<radialGradient id="paint13_radial_296_35671" cx="0" cy="0" r="1" gradientUnits="userSpaceOnUse" gradientTransform="translate(404.974 125.863) scale(144.767 127.395)">
<stop stop-color="#B1B5BD"/>
<stop offset="0.14" stop-color="#ABAEBD"/>
<stop offset="0.34" stop-color="#9B9BBF"/>
<stop offset="0.57" stop-color="#817CC0"/>
<stop offset="0.75" stop-color="#685EC2"/>
<stop offset="0.97" stop-color="#7A75D8"/>
</radialGradient>
<linearGradient id="paint14_linear_296_35671" x1="99.7288" y1="88.4234" x2="371.896" y2="112.35" gradientUnits="userSpaceOnUse">
<stop offset="0.03" stop-color="#7A82ED"/>
<stop offset="0.21" stop-color="#7A75ED"/>
<stop offset="0.99" stop-color="#FDD3BE"/>
<stop offset="1" stop-color="#FFD5BD"/>
</linearGradient>
<radialGradient id="paint15_radial_296_35671" cx="0" cy="0" r="1" gradientUnits="userSpaceOnUse" gradientTransform="translate(422.523 43.6115) rotate(3.23361) scale(144.232 81.5031)">
<stop stop-color="#FFD5BD"/>
<stop offset="0.1" stop-color="#F8D0BF"/>
<stop offset="0.25" stop-color="#E5C2C6"/>
<stop offset="0.43" stop-color="#C5ABD2"/>
<stop offset="0.63" stop-color="#9A8CE1"/>
<stop offset="0.75" stop-color="#7A75ED"/>
<stop offset="0.97" stop-color="#7A82ED"/>
</radialGradient>
<linearGradient id="paint16_linear_296_35671" x1="497.655" y1="352.548" x2="497.655" y2="271.248" gradientUnits="userSpaceOnUse">
<stop stop-color="white"/>
<stop offset="1"/>
</linearGradient>
<radialGradient id="paint17_radial_296_35671" cx="0" cy="0" r="1" gradientUnits="userSpaceOnUse" gradientTransform="translate(501.938 327.581) scale(21.9076 20.0987)">
<stop offset="0.01" stop-color="#60DBFF"/>
<stop offset="0.18" stop-color="#56D5FF"/>
<stop offset="0.48" stop-color="#3CC4FF"/>
<stop offset="0.86" stop-color="#12A9FF"/>
<stop offset="1" stop-color="#009DFF"/>
</radialGradient>
<linearGradient id="paint18_linear_296_35671" x1="467.93" y1="314.899" x2="525.509" y2="314.899" gradientUnits="userSpaceOnUse">
<stop stop-color="#E7E3F4"/>
<stop offset="0.07" stop-color="#DFD6EC"/>
<stop offset="0.37" stop-color="#C1A7CD"/>
<stop offset="0.64" stop-color="#AC85B7"/>
<stop offset="0.86" stop-color="#9F71A9"/>
<stop offset="1" stop-color="#9A69A4"/>
</linearGradient>
<linearGradient id="paint19_linear_296_35671" x1="194.247" y1="351.755" x2="194.247" y2="272.606" gradientUnits="userSpaceOnUse">
<stop stop-color="white"/>
<stop offset="1"/>
</linearGradient>
<radialGradient id="paint20_radial_296_35671" cx="0" cy="0" r="1" gradientUnits="userSpaceOnUse" gradientTransform="translate(194.251 321.894) scale(20.0988 19.4958)">
<stop offset="0.01" stop-color="#60DBFF"/>
<stop offset="0.18" stop-color="#56D5FF"/>
<stop offset="0.48" stop-color="#3CC4FF"/>
<stop offset="0.86" stop-color="#12A9FF"/>
<stop offset="1" stop-color="#009DFF"/>
</radialGradient>
<linearGradient id="paint21_linear_296_35671" x1="166.962" y1="315.069" x2="219.842" y2="315.069" gradientUnits="userSpaceOnUse">
<stop stop-color="#E7E3F4"/>
<stop offset="0.07" stop-color="#DFD6EC"/>
<stop offset="0.37" stop-color="#C1A7CD"/>
<stop offset="0.64" stop-color="#AC85B7"/>
<stop offset="0.86" stop-color="#9F71A9"/>
<stop offset="1" stop-color="#9A69A4"/>
</linearGradient>
<radialGradient id="paint22_radial_296_35671" cx="0" cy="0" r="1" gradientUnits="userSpaceOnUse" gradientTransform="translate(327.407 297.63) scale(131.066 131.066)">
<stop offset="0.03" stop-color="#6A64B8"/>
<stop offset="0.94" stop-color="#5A4FBC"/>
</radialGradient>
<radialGradient id="paint23_radial_296_35671" cx="0" cy="0" r="1" gradientUnits="userSpaceOnUse" gradientTransform="translate(327.464 287.893) scale(133.614 133.614)">
<stop stop-color="#B1B5BD"/>
<stop offset="0.14" stop-color="#ABAEBD"/>
<stop offset="0.34" stop-color="#9B9BBF"/>
<stop offset="0.57" stop-color="#817CC0"/>
<stop offset="0.75" stop-color="#685EC2"/>
<stop offset="0.97" stop-color="#7A75D8"/>
</radialGradient>
<radialGradient id="paint24_radial_296_35671" cx="0" cy="0" r="1" gradientUnits="userSpaceOnUse" gradientTransform="translate(332.62 300.405) scale(99.4744 99.4744)">
<stop offset="0.03" stop-color="#1B95B8"/>
<stop offset="0.94" stop-color="#5A4FBC"/>
</radialGradient>
<radialGradient id="paint25_radial_296_35671" cx="0" cy="0" r="1" gradientUnits="userSpaceOnUse" gradientTransform="translate(334.595 301.129) scale(82.0366)">
<stop offset="0.01" stop-color="#60DBFF"/>
<stop offset="0.18" stop-color="#56D6FF"/>
<stop offset="0.48" stop-color="#3CCAFF"/>
<stop offset="0.86" stop-color="#12B6FF"/>
<stop offset="1" stop-color="#00AEFF"/>
</radialGradient>
<linearGradient id="paint26_linear_296_35671" x1="346.659" y1="326.165" x2="346.659" y2="250.583" gradientUnits="userSpaceOnUse">
<stop stop-color="#E7E3F4"/>
<stop offset="0.07" stop-color="#DFD6EC"/>
<stop offset="0.37" stop-color="#C1A7CD"/>
<stop offset="0.64" stop-color="#AC85B7"/>
<stop offset="0.86" stop-color="#9F71A9"/>
<stop offset="1" stop-color="#9A69A4"/>
</linearGradient>
<linearGradient id="paint27_linear_296_35671" x1="347.11" y1="367.211" x2="347.11" y2="418.392" gradientUnits="userSpaceOnUse">
<stop stop-color="#9A69A4"/>
<stop offset="0.13" stop-color="#A275AB"/>
<stop offset="0.38" stop-color="#B795BF"/>
<stop offset="0.69" stop-color="#DAC8DD"/>
<stop offset="1" stop-color="white"/>
</linearGradient>
<linearGradient id="paint28_linear_296_35671" x1="273.963" y1="274.758" x2="328.881" y2="274.758" gradientUnits="userSpaceOnUse">
<stop stop-color="white"/>
<stop offset="1" stop-color="#623964"/>
</linearGradient>
<linearGradient id="paint29_linear_296_35671" x1="189.183" y1="145.232" x2="195.425" y2="150.725" gradientUnits="userSpaceOnUse">
<stop stop-color="#5B58A3"/>
<stop offset="0.44" stop-color="#5F59A3"/>
<stop offset="0.85" stop-color="#6A5CA2"/>
<stop offset="0.99" stop-color="#705EA2"/>
</linearGradient>
<linearGradient id="paint30_linear_296_35671" x1="345.754" y1="175.962" x2="348.811" y2="175.962" gradientUnits="userSpaceOnUse">
<stop stop-color="#5B58A3"/>
<stop offset="0.44" stop-color="#5F59A3"/>
<stop offset="0.85" stop-color="#6A5CA2"/>
<stop offset="0.99" stop-color="#705EA2"/>
</linearGradient>
<linearGradient id="paint31_linear_296_35671" x1="432.265" y1="170.698" x2="444.097" y2="170.698" gradientUnits="userSpaceOnUse">
<stop stop-color="#5B58A3"/>
<stop offset="0.44" stop-color="#5F59A3"/>
<stop offset="0.85" stop-color="#6A5CA2"/>
<stop offset="0.99" stop-color="#705EA2"/>
</linearGradient>
<linearGradient id="paint32_linear_296_35671" x1="258.397" y1="113.175" x2="273.344" y2="113.175" gradientUnits="userSpaceOnUse">
<stop stop-color="#5B58A3"/>
<stop offset="0.44" stop-color="#5F59A3"/>
<stop offset="0.85" stop-color="#6A5CA2"/>
<stop offset="0.99" stop-color="#705EA2"/>
</linearGradient>
<linearGradient id="paint33_linear_296_35671" x1="339.641" y1="125.404" x2="342.981" y2="125.404" gradientUnits="userSpaceOnUse">
<stop stop-color="#5B58A3"/>
<stop offset="0.44" stop-color="#5F59A3"/>
<stop offset="0.85" stop-color="#6A5CA2"/>
<stop offset="0.99" stop-color="#705EA2"/>
</linearGradient>
<linearGradient id="paint34_linear_296_35671" x1="414.601" y1="121.157" x2="424.338" y2="121.157" gradientUnits="userSpaceOnUse">
<stop stop-color="#5B58A3"/>
<stop offset="0.44" stop-color="#5F59A3"/>
<stop offset="0.85" stop-color="#6A5CA2"/>
<stop offset="0.99" stop-color="#705EA2"/>
</linearGradient>
<linearGradient id="paint35_linear_296_35671" x1="466.97" y1="351.926" x2="560.216" y2="351.926" gradientUnits="userSpaceOnUse">
<stop stop-color="white"/>
<stop offset="1" stop-color="#623964"/>
</linearGradient>
<linearGradient id="paint36_linear_296_35671" x1="59.9575" y1="537.343" x2="286.988" y2="537.343" gradientUnits="userSpaceOnUse">
<stop stop-color="#5B58A3"/>
<stop offset="0.44" stop-color="#5F59A3"/>
<stop offset="0.85" stop-color="#6A5CA2"/>
<stop offset="0.99" stop-color="#705EA2"/>
</linearGradient>
<radialGradient id="paint37_radial_296_35671" cx="0" cy="0" r="1" gradientUnits="userSpaceOnUse" gradientTransform="translate(221.708 311.898) scale(218.764 218.764)">
<stop stop-color="#FFD5BD"/>
<stop offset="0.1" stop-color="#F8D0BF"/>
<stop offset="0.25" stop-color="#E5C2C6"/>
<stop offset="0.43" stop-color="#C5ABD2"/>
<stop offset="0.63" stop-color="#9A8CE1"/>
<stop offset="0.75" stop-color="#7A75ED"/>
<stop offset="0.97" stop-color="#7A82ED"/>
</radialGradient>
<linearGradient id="paint38_linear_296_35671" x1="0" y1="574.653" x2="68.5619" y2="574.653" gradientUnits="userSpaceOnUse">
<stop stop-color="#9A69A4"/>
<stop offset="0.13" stop-color="#A275AB"/>
<stop offset="0.38" stop-color="#B795BF"/>
<stop offset="0.69" stop-color="#DAC8DD"/>
<stop offset="1" stop-color="white"/>
</linearGradient>
<linearGradient id="paint39_linear_296_35671" x1="203.533" y1="465.893" x2="66.7482" y2="612.585" gradientUnits="userSpaceOnUse">
<stop stop-color="#9A69A4"/>
<stop offset="0.13" stop-color="#A275AB"/>
<stop offset="0.38" stop-color="#B795BF"/>
<stop offset="0.69" stop-color="#DAC8DD"/>
<stop offset="1" stop-color="white"/>
</linearGradient>
<linearGradient id="paint40_linear_296_35671" x1="637.101" y1="537.343" x2="410.071" y2="537.343" gradientUnits="userSpaceOnUse">
<stop stop-color="#5B58A3"/>
<stop offset="0.44" stop-color="#5F59A3"/>
<stop offset="0.85" stop-color="#6A5CA2"/>
<stop offset="0.99" stop-color="#705EA2"/>
</linearGradient>
<radialGradient id="paint41_radial_296_35671" cx="0" cy="0" r="1" gradientUnits="userSpaceOnUse" gradientTransform="translate(622.888 392.067) rotate(180) scale(218.708 218.708)">
<stop stop-color="#FFD5BD"/>
<stop offset="0.1" stop-color="#F8D0BF"/>
<stop offset="0.25" stop-color="#E5C2C6"/>
<stop offset="0.43" stop-color="#C5ABD2"/>
<stop offset="0.63" stop-color="#9A8CE1"/>
<stop offset="0.75" stop-color="#7A75ED"/>
<stop offset="0.97" stop-color="#7A82ED"/>
</radialGradient>
<linearGradient id="paint42_linear_296_35671" x1="697.055" y1="574.653" x2="628.493" y2="574.653" gradientUnits="userSpaceOnUse">
<stop stop-color="#9A69A4"/>
<stop offset="0.13" stop-color="#A275AB"/>
<stop offset="0.38" stop-color="#B795BF"/>
<stop offset="0.69" stop-color="#DAC8DD"/>
<stop offset="1" stop-color="white"/>
</linearGradient>
<linearGradient id="paint43_linear_296_35671" x1="491.029" y1="468.215" x2="627.813" y2="614.964" gradientUnits="userSpaceOnUse">
<stop stop-color="#9A69A4"/>
<stop offset="0.13" stop-color="#A275AB"/>
<stop offset="0.38" stop-color="#B795BF"/>
<stop offset="0.69" stop-color="#DAC8DD"/>
<stop offset="1" stop-color="white"/>
</linearGradient>
<linearGradient id="paint44_linear_296_35671" x1="411.653" y1="145.333" x2="192.096" y2="129.707" gradientUnits="userSpaceOnUse">
<stop stop-color="#9A69A4"/>
<stop offset="0.13" stop-color="#A275AB"/>
<stop offset="0.38" stop-color="#B795BF"/>
<stop offset="0.69" stop-color="#DAC8DD"/>
<stop offset="1" stop-color="white"/>
</linearGradient>
<linearGradient id="paint45_linear_296_35671" x1="219.838" y1="147.995" x2="450.379" y2="147.995" gradientUnits="userSpaceOnUse">
<stop stop-color="white"/>
<stop offset="1" stop-color="#623964"/>
</linearGradient>
<linearGradient id="paint46_linear_296_35671" x1="278.44" y1="102.079" x2="424.282" y2="102.079" gradientUnits="userSpaceOnUse">
<stop stop-color="white"/>
<stop offset="1" stop-color="#623964"/>
</linearGradient>
<linearGradient id="paint47_linear_296_35671" x1="244.012" y1="441.378" x2="462.266" y2="441.378" gradientUnits="userSpaceOnUse">
<stop stop-color="#623964"/>
<stop offset="1" stop-color="white"/>
</linearGradient>
<radialGradient id="paint48_radial_296_35671" cx="0" cy="0" r="1" gradientUnits="userSpaceOnUse" gradientTransform="translate(482.91 236.453) scale(52.653)">
<stop offset="0.01" stop-color="#F4FF09"/>
<stop offset="0.07" stop-color="#DFE908"/>
<stop offset="0.27" stop-color="#9CA306"/>
<stop offset="0.46" stop-color="#646904"/>
<stop offset="0.63" stop-color="#393C02"/>
<stop offset="0.78" stop-color="#1A1B01"/>
<stop offset="0.91" stop-color="#070700"/>
<stop offset="1"/>
</radialGradient>
<linearGradient id="paint49_linear_296_35671" x1="315.123" y1="46.8208" x2="341.279" y2="46.8208" gradientUnits="userSpaceOnUse">
<stop stop-color="#623964"/>
<stop offset="1" stop-color="#FFC209"/>
</linearGradient>
<radialGradient id="paint50_radial_296_35671" cx="0" cy="0" r="1" gradientUnits="userSpaceOnUse" gradientTransform="translate(411.318 174.49) scale(23.439 23.439)">
<stop stop-color="white"/>
<stop offset="1" stop-color="#623964"/>
</radialGradient>
<radialGradient id="paint51_radial_296_35671" cx="0" cy="0" r="1" gradientUnits="userSpaceOnUse" gradientTransform="translate(390.085 125.574) scale(23.9486 23.9486)">
<stop stop-color="white"/>
<stop offset="1" stop-color="#623964"/>
</radialGradient>
<radialGradient id="paint52_radial_296_35671" cx="0" cy="0" r="1" gradientUnits="userSpaceOnUse" gradientTransform="translate(248.175 32.4975) scale(18.4965 24.5498)">
<stop offset="0.01" stop-color="#F4FF09"/>
<stop offset="0.07" stop-color="#DFE908"/>
<stop offset="0.27" stop-color="#9CA306"/>
<stop offset="0.46" stop-color="#646904"/>
<stop offset="0.63" stop-color="#393C02"/>
<stop offset="0.78" stop-color="#1A1B01"/>
<stop offset="0.91" stop-color="#070700"/>
<stop offset="1"/>
</radialGradient>
</defs>
</svg>
