<svg width="532" height="531" viewBox="0 0 532 531" fill="none" xmlns="http://www.w3.org/2000/svg">
<path d="M0.910156 0.09375H531.641V530.825H0.910156V0.09375Z" fill="#686868"/>
<path d="M488.199 404.246C484.314 380.031 468.524 359.699 421.757 340.73C405.512 333.264 387.4 327.917 382.002 315.606C380.085 308.442 379.833 304.406 381.044 300.068C384.525 285.992 401.324 281.603 414.643 285.639C423.22 288.515 431.342 295.124 436.236 305.668C459.14 290.836 459.089 290.936 475.082 280.746C469.23 271.665 466.102 267.477 462.268 263.593C448.495 248.206 429.728 240.285 399.71 240.891C394.514 241.547 389.268 242.252 384.071 242.909C369.088 246.692 354.81 254.563 346.435 265.107C321.311 293.611 328.475 343.505 359.048 364.039C389.166 386.64 433.411 391.786 439.061 412.924C444.56 438.805 420.042 447.179 395.674 444.203C377.714 440.47 367.725 431.338 356.929 414.74C337.052 426.243 337.052 426.243 316.62 437.998C321.463 448.592 326.558 453.385 334.681 462.567C373.124 501.564 469.331 499.647 486.585 440.621C487.291 438.603 491.933 425.082 488.199 404.246ZM289.427 244.018H239.784C239.784 286.9 239.583 329.48 239.583 372.362C239.583 399.656 240.996 424.679 236.556 432.347C229.291 447.431 210.474 445.565 201.897 442.638C193.169 438.35 188.73 432.246 183.584 423.619C182.171 421.147 181.112 419.23 180.758 419.079C167.289 427.302 153.869 435.575 140.398 443.799C147.109 457.572 156.996 469.528 169.659 477.297C188.578 488.648 214.005 492.129 240.592 486.025C257.896 480.98 272.829 470.537 280.649 454.646C291.949 433.81 289.528 408.585 289.427 380.686C289.679 335.181 289.427 289.675 289.427 244.018Z" fill="#111111"/>
</svg>
