<svg width="59" height="59" viewBox="0 0 59 59" fill="none" xmlns="http://www.w3.org/2000/svg">
<path fill-rule="evenodd" clip-rule="evenodd" d="M28.1612 47.9599L31.0131 47.8656L32.5499 42.0061H26.6763L28.1612 47.9599Z" fill="url(#paint0_radial_148_28313)"/>
<path fill-rule="evenodd" clip-rule="evenodd" d="M27.6993 47.9599H28.1613L26.6764 42.0061H26.3794L27.6993 47.9599Z" fill="url(#paint1_linear_148_28313)"/>
<path style="mix-blend-mode:multiply" opacity="0.71" fill-rule="evenodd" clip-rule="evenodd" d="M27.4872 47.0171C27.44 46.7955 29.0098 44.6177 30.0327 44.5517C30.6447 44.5126 31.2534 44.6677 31.7722 44.9948C31.7722 44.9948 32.7527 41.9024 32.55 42.0156C32.3473 42.1287 26.3794 42.4398 26.3794 42.4398L27.4872 47.0171Z" fill="url(#paint2_linear_148_28313)"/>
<path style="mix-blend-mode:screen" opacity="0.35" fill-rule="evenodd" clip-rule="evenodd" d="M19.5112 42.2513L24.1686 59H33.5588L38.6216 42.2513H19.5112Z" fill="url(#paint3_linear_148_28313)"/>
<path fill-rule="evenodd" clip-rule="evenodd" d="M18.1489 38.631L19.5113 42.2513C19.5113 42.2513 27.7041 44.6884 38.6217 42.2513L39.1544 39.4229L18.1489 38.631Z" fill="url(#paint4_linear_148_28313)"/>
<path style="mix-blend-mode:multiply" opacity="0.71" fill-rule="evenodd" clip-rule="evenodd" d="M19.2044 39.9461C25.3609 38.466 38.4563 38.4094 38.5694 39.6539L39.1304 36.8632C39.1304 36.8632 17.9175 36.8066 18.0401 36.8632C18.1626 36.9198 19.2044 39.9461 19.2044 39.9461Z" fill="url(#paint5_linear_148_28313)"/>
<path fill-rule="evenodd" clip-rule="evenodd" d="M8.67383 33.8604C11.3089 37.278 16.4754 39.5172 21.9201 40.2525C27.3647 40.9879 33.1157 41.1246 38.3246 39.7387C43.1187 38.466 47.1209 36.6275 48.6954 34.4449L8.67383 33.8604Z" fill="url(#paint6_radial_148_28313)"/>
<path fill-rule="evenodd" clip-rule="evenodd" d="M48.6998 34.3318C48.6998 34.3318 48.0492 34.5298 46.9037 34.8032C43.67 35.614 36.4953 37.1602 28.9907 37.1602C26.4288 37.1808 23.8679 37.0517 21.3211 36.7736C12.9962 35.8544 8.68762 33.8321 8.68762 33.8321C6.91517 20.0721 17.5169 12.6193 17.5169 12.6193L38.1499 13.2038L39.6961 13.251C40.1345 13.5762 40.5022 13.9722 40.9453 14.2692C50.0857 20.4916 48.6998 34.3318 48.6998 34.3318Z" fill="url(#paint7_radial_148_28313)"/>
<path style="mix-blend-mode:screen" opacity="0.2" fill-rule="evenodd" clip-rule="evenodd" d="M44.7499 21.227C38.848 13.4065 35.4021 16.5602 36.9908 21.5287C38.5794 26.4972 41.172 35.6706 41.172 35.6706L48.4881 33.9783C48.4881 33.9783 47.1022 24.3429 44.7499 21.227Z" fill="url(#paint8_linear_148_28313)"/>
<path style="mix-blend-mode:screen" opacity="0.2" fill-rule="evenodd" clip-rule="evenodd" d="M9.19678 33.8651L18.5681 36.505C18.5681 36.505 21.2127 13.2981 16.6826 18.1488C12.1524 22.9994 9.19678 33.8651 9.19678 33.8651Z" fill="url(#paint9_linear_148_28313)"/>
<path style="mix-blend-mode:multiply" opacity="0.71" fill-rule="evenodd" clip-rule="evenodd" d="M40.9311 14.2975C40.4597 14.0146 40.1203 13.6045 39.6819 13.2792L17.5027 12.6476C17.5027 12.6476 6.90101 20.1003 8.67346 33.8604C8.67346 33.8604 12.982 35.8827 21.3069 36.8019C19.7513 36.3541 10.7146 33.1722 10.5402 26.0871C10.4951 23.9674 10.9824 21.8703 11.9574 19.9877C12.9325 18.1051 14.3642 16.4971 16.1215 15.311C20.2934 17.4511 32.9268 18.5636 39.2199 15.4477C43.0241 16.6922 48.1152 26.5396 46.965 34.6524L46.9179 34.8173C48.0634 34.5298 48.7139 34.3459 48.7139 34.3459C48.7139 34.3459 50.5005 20.3738 40.9311 14.2975Z" fill="url(#paint10_linear_148_28313)"/>
<path fill-rule="evenodd" clip-rule="evenodd" d="M17.0643 10.2482L15.0986 14.453C15.0986 14.453 18.8698 16.2443 29.2924 16.3716C36.8913 16.4612 41.6194 14.8631 41.6194 14.8631L40.2853 10.7526L17.0643 10.2482Z" fill="url(#paint11_radial_148_28313)"/>
<path fill-rule="evenodd" clip-rule="evenodd" d="M40.1865 11.2193C39.2767 12.327 33.8839 13.02 28.5242 12.9304C23.089 12.8362 18.0262 11.9358 17.1729 10.7667C16.1641 9.38082 22.3347 8.50402 29.7121 8.67372C36.948 8.834 41.2613 9.91821 40.1865 11.2193Z" fill="url(#paint12_linear_148_28313)"/>
<path fill-rule="evenodd" clip-rule="evenodd" d="M20.7461 10.4415C20.7461 10.4415 21.5475 11.8132 27.7605 12.1385C34.558 12.492 36.4954 11.0637 36.4954 11.0637L35.6941 8.03733L21.9151 7.20767L20.7461 10.4415Z" fill="url(#paint13_radial_148_28313)"/>
<path fill-rule="evenodd" clip-rule="evenodd" d="M35.7838 8.01846C35.6094 8.6407 32.3473 8.96125 28.5667 8.71612C24.871 8.48985 21.8634 7.97132 21.8352 7.36322C21.8069 6.75512 24.9134 6.24601 28.8118 6.45814C32.8045 6.67027 35.9629 7.38207 35.7838 8.01846Z" fill="url(#paint14_linear_148_28313)"/>
<path fill-rule="evenodd" clip-rule="evenodd" d="M26.2236 7.20295C26.2236 7.20295 28.788 8.61714 31.3571 7.33966C31.3571 7.33966 30.8575 -0.00941887 29.0002 9.06338e-06C27.1429 0.00943699 26.2236 7.20295 26.2236 7.20295Z" fill="url(#paint15_radial_148_28313)"/>
<path fill-rule="evenodd" clip-rule="evenodd" d="M43.8965 27.1572C43.8965 27.8098 43.6372 28.4357 43.1758 28.8971C42.7143 29.3586 42.0884 29.6179 41.4358 29.6179C40.7832 29.6179 40.1573 29.3586 39.6958 28.8971C39.2344 28.4357 38.9751 27.8098 38.9751 27.1572C39.029 26.5417 39.3116 25.9688 39.7671 25.5515C40.2226 25.1342 40.818 24.9027 41.4358 24.9027C42.0536 24.9027 42.649 25.1342 43.1045 25.5515C43.56 25.9688 43.8426 26.5417 43.8965 27.1572Z" fill="#2B1F54"/>
<path style="mix-blend-mode:screen" opacity="0.5" fill-rule="evenodd" clip-rule="evenodd" d="M44.4432 27.0158C44.3833 27.7723 44.0405 28.4784 43.483 28.9934C42.9256 29.5084 42.1946 29.7944 41.4357 29.7944C40.6768 29.7944 39.9458 29.5084 39.3884 28.9934C38.831 28.4784 38.4882 27.7723 38.4282 27.0158C38.4282 25.4884 39.6963 23.7678 41.3603 23.7678C43.0243 23.7678 44.4432 25.4884 44.4432 27.0158Z" fill="url(#paint16_linear_148_28313)"/>
<path fill-rule="evenodd" clip-rule="evenodd" d="M43.1894 27.1572C43.2017 27.3948 43.1656 27.6324 43.0831 27.8556C43.0007 28.0788 42.8737 28.2829 42.7099 28.4555C42.5461 28.628 42.3488 28.7654 42.1302 28.8593C41.9116 28.9532 41.6761 29.0016 41.4382 29.0016C41.2002 29.0016 40.9648 28.9532 40.7462 28.8593C40.5275 28.7654 40.3303 28.628 40.1665 28.4555C40.0026 28.2829 39.8756 28.0788 39.7932 27.8556C39.7107 27.6324 39.6746 27.3948 39.6869 27.1572C39.7263 26.7199 39.9278 26.3131 40.2519 26.0169C40.5759 25.7206 40.9991 25.5564 41.4382 25.5564C41.8772 25.5564 42.3004 25.7206 42.6245 26.0169C42.9485 26.3131 43.1501 26.7199 43.1894 27.1572Z" fill="url(#paint17_radial_148_28313)"/>
<path style="mix-blend-mode:multiply" fill-rule="evenodd" clip-rule="evenodd" d="M38.9749 27.0157L39.7386 27.5484C39.7386 27.5484 40.21 26.7942 41.5818 26.7942C42.9535 26.7942 43.1845 27.3033 43.1845 27.3033L43.7549 26.3935C43.5595 25.9426 43.235 25.5596 42.8222 25.2928C42.4095 25.0261 41.927 24.8874 41.4356 24.8945C39.616 24.8143 38.8477 26.4925 38.9749 27.0157Z" fill="url(#paint18_linear_148_28313)"/>
<path fill-rule="evenodd" clip-rule="evenodd" d="M18.4365 27.1477C18.4365 27.7479 18.1981 28.3234 17.7738 28.7477C17.3495 29.1721 16.7739 29.4104 16.1738 29.4104C15.5737 29.4104 14.9982 29.1721 14.5739 28.7477C14.1495 28.3234 13.9111 27.7479 13.9111 27.1477C13.9111 26.5476 14.1495 25.9721 14.5739 25.5478C14.9982 25.1234 15.5737 24.885 16.1738 24.885C16.7739 24.885 17.3495 25.1234 17.7738 25.5478C18.1981 25.9721 18.4365 26.5476 18.4365 27.1477Z" fill="#2B1F54"/>
<path style="mix-blend-mode:screen" opacity="0.5" fill-rule="evenodd" clip-rule="evenodd" d="M18.9499 27.0063C18.9204 27.7198 18.6162 28.3943 18.101 28.8887C17.5857 29.3832 16.8993 29.6592 16.1851 29.6592C15.471 29.6592 14.7846 29.3832 14.2693 28.8887C13.754 28.3943 13.4499 27.7198 13.4204 27.0063C13.4204 25.5214 14.5847 23.848 16.1121 23.848C17.6394 23.848 18.9499 25.5214 18.9499 27.0063Z" fill="url(#paint19_linear_148_28313)"/>
<path fill-rule="evenodd" clip-rule="evenodd" d="M17.7859 27.1477C17.7859 28.0151 17.0646 28.9438 16.1737 28.9438C15.2828 28.9438 14.5615 28.001 14.5615 27.1477C14.5615 26.7202 14.7314 26.3101 15.0337 26.0078C15.3361 25.7054 15.7461 25.5356 16.1737 25.5356C16.6013 25.5356 17.0113 25.7054 17.3137 26.0078C17.616 26.3101 17.7859 26.7202 17.7859 27.1477Z" fill="url(#paint20_radial_148_28313)"/>
<path style="mix-blend-mode:multiply" fill-rule="evenodd" clip-rule="evenodd" d="M13.911 27.0063L14.6134 27.5248C14.6134 27.5248 15.0282 26.7942 16.3104 26.7942C17.5926 26.7942 17.7812 27.2656 17.7812 27.2656L18.3044 26.3794C18.1348 25.9515 17.8415 25.584 17.462 25.3237C17.0824 25.0634 16.6339 24.9222 16.1737 24.918C14.5003 24.8615 13.7932 26.4972 13.911 27.0063Z" fill="url(#paint21_linear_148_28313)"/>
<path d="M28.901 33.3513C32.4522 33.3513 35.3309 30.4726 35.3309 26.9215C35.3309 23.3704 32.4522 20.4916 28.901 20.4916C25.3499 20.4916 22.4712 23.3704 22.4712 26.9215C22.4712 30.4726 25.3499 33.3513 28.901 33.3513Z" fill="url(#paint22_radial_148_28313)"/>
<path fill-rule="evenodd" clip-rule="evenodd" d="M35.3262 26.4076C35.0622 30.2307 32.4507 32.8375 28.901 32.8375C27.1957 32.8375 25.5603 32.1601 24.3545 30.9542C23.1486 29.7484 22.4712 28.1129 22.4712 26.4076C22.4712 22.858 25.3514 19.53 28.901 19.53C32.4507 19.53 35.576 22.8675 35.3262 26.4076Z" fill="url(#paint23_radial_148_28313)"/>
<path fill-rule="evenodd" clip-rule="evenodd" d="M33.6342 26.4077C33.6342 29.0192 31.8758 31.4987 29.2643 31.6732C25.611 31.9136 24.3194 29.17 24.1732 26.6811C24.1732 26.5915 24.1732 26.5019 24.1732 26.4077C24.0613 25.1624 24.4487 23.9238 25.2501 22.9641C26.0515 22.0045 27.2012 21.4025 28.4464 21.2906C29.6917 21.1787 30.9303 21.5661 31.89 22.3675C32.8496 23.1689 33.4515 24.3186 33.5634 25.5638C33.611 25.8426 33.6346 26.1249 33.6342 26.4077Z" fill="url(#paint24_radial_148_28313)"/>
<path d="M32.8577 27.0463C33.2143 24.8543 31.7265 22.7883 29.5346 22.4318C27.3426 22.0752 25.2767 23.563 24.9201 25.7549C24.5635 27.9469 26.0513 30.0128 28.2433 30.3694C30.4352 30.726 32.5012 29.2382 32.8577 27.0463Z" fill="url(#paint25_radial_148_28313)"/>
<path style="mix-blend-mode:multiply" fill-rule="evenodd" clip-rule="evenodd" d="M32.8092 27.3552C32.894 25.8938 32.0974 23.5133 29.038 23.7537C25.2668 24.0507 24.9981 27.3552 24.9981 27.3552L24.1826 26.681C24.1826 26.5915 24.1826 26.5019 24.1826 26.4076C24.1275 25.1948 24.5425 24.0076 25.3411 23.0931C26.1397 22.1787 27.2602 21.6076 28.4694 21.4988C29.6786 21.3901 30.8831 21.752 31.832 22.5093C32.781 23.2665 33.4011 24.3607 33.5634 25.5638L32.8092 27.3552Z" fill="url(#paint26_linear_148_28313)"/>
<path style="mix-blend-mode:multiply" opacity="0.71" fill-rule="evenodd" clip-rule="evenodd" d="M22.4712 27.3551C22.4712 27.3551 23.414 32.6442 28.901 32.8375C34.5578 33.0308 35.3262 26.7423 35.3262 26.7423C35.3262 26.7423 35.4582 35.2557 29.198 35.2557C23.2396 35.2557 22.4712 27.3551 22.4712 27.3551Z" fill="url(#paint27_linear_148_28313)"/>
<path fill-rule="evenodd" clip-rule="evenodd" d="M28.496 29.3162C28.4206 30.358 29.8584 29.8206 30.0045 29.5519C30.1506 29.2832 29.7971 28.9296 29.4718 28.9013C29.1466 28.873 28.5243 28.9013 28.496 29.3162Z" fill="#72FFFF"/>
<path style="mix-blend-mode:screen" opacity="0.91" fill-rule="evenodd" clip-rule="evenodd" d="M26.4923 20.3738C26.4923 20.3738 23.8431 21.26 22.8296 24.8473L24.0882 25.38C24.0882 25.38 24.3051 23.1739 27.388 21.6748L26.4923 20.3738Z" fill="url(#paint28_linear_148_28313)"/>
<g style="mix-blend-mode:multiply" opacity="0.71">
<path fill-rule="evenodd" clip-rule="evenodd" d="M33.8088 25.8938L35.091 26.1814C35.091 26.1814 35.5624 31.6873 30.146 32.7243L30.0376 31.6873C30.0376 31.6873 33.8889 30.6078 33.8088 25.8938Z" fill="#DDCCE0"/>
</g>
<path style="mix-blend-mode:multiply" opacity="0.5" fill-rule="evenodd" clip-rule="evenodd" d="M20.3171 12.0442C19.4471 12.9894 18.7769 14.1005 18.3467 15.311C19.2333 14.3784 19.9058 13.2635 20.3171 12.0442Z" fill="url(#paint29_linear_148_28313)"/>
<path style="mix-blend-mode:multiply" opacity="0.5" fill-rule="evenodd" clip-rule="evenodd" d="M29.0427 12.9351C28.7952 14.0632 28.7379 15.2247 28.873 16.3716C28.873 16.3716 29.0569 14.453 29.0427 12.9351Z" fill="url(#paint30_linear_148_28313)"/>
<path style="mix-blend-mode:multiply" opacity="0.5" fill-rule="evenodd" clip-rule="evenodd" d="M36.0148 12.5297C36.2522 13.6718 36.5672 14.7963 36.9576 15.8955C36.9576 15.8955 35.8168 14.1089 36.0148 12.5297Z" fill="url(#paint31_linear_148_28313)"/>
<path style="mix-blend-mode:multiply" opacity="0.5" fill-rule="evenodd" clip-rule="evenodd" d="M22.7591 7.99489L21.5146 10.8563C21.5146 10.8563 22.4056 10.0078 22.7591 7.99489Z" fill="url(#paint32_linear_148_28313)"/>
<path style="mix-blend-mode:multiply" opacity="0.5" fill-rule="evenodd" clip-rule="evenodd" d="M28.5573 8.71613C28.2292 9.84096 28.1999 11.0319 28.4724 12.1715C28.4724 12.1715 28.5007 10.2482 28.5573 8.71613Z" fill="url(#paint33_linear_148_28313)"/>
<path style="mix-blend-mode:multiply" opacity="0.5" fill-rule="evenodd" clip-rule="evenodd" d="M34.5063 8.61243C34.5063 8.61243 34.7043 9.42323 35.2747 11.5681C35.2889 11.5681 35.6047 10.2906 34.5063 8.61243Z" fill="url(#paint34_linear_148_28313)"/>
<path style="mix-blend-mode:screen" opacity="0.5" fill-rule="evenodd" clip-rule="evenodd" d="M44.0049 22.4291C44.0049 22.4291 46.871 28.0057 46.6306 34.3083C44.1175 35.1964 41.5211 35.8282 38.8809 36.1938C38.8809 36.1938 44.7497 35.1803 45.24 33.3277C45.24 33.3136 46.1356 27.5531 44.0049 22.4291Z" fill="url(#paint35_linear_148_28313)"/>
<path fill-rule="evenodd" clip-rule="evenodd" d="M7.04275 50.4347L4.99219 51.1465L5.12888 44.0049C17.9226 39.3805 23.8952 38.3481 23.8952 38.3481L22.7214 40.0121C22.7214 40.0121 16.2538 41.1954 7.44814 45.9895L7.04275 50.4347Z" fill="url(#paint36_linear_148_28313)"/>
<path fill-rule="evenodd" clip-rule="evenodd" d="M0 44.5423L2.85194 51.1418H4.9921L5.7086 45.3483C5.7086 45.3483 15.2591 40.4034 23.8951 38.3293L10.6064 35.6611C6.49995 37.8638 2.88983 40.8866 0 44.5423Z" fill="url(#paint37_radial_148_28313)"/>
<path style="mix-blend-mode:multiply" opacity="0.71" fill-rule="evenodd" clip-rule="evenodd" d="M0 44.5423C1.80073 45.3531 4.71396 45.8575 5.7086 45.3531L4.9921 51.1465H2.85194L0 44.5423Z" fill="url(#paint38_linear_148_28313)"/>
<path fill-rule="evenodd" clip-rule="evenodd" d="M13.0057 42.0061C10.6915 43.3633 8.24681 44.4845 5.7085 45.3531C5.7085 45.3531 6.93885 44.6743 8.69716 43.6843C11.667 42.0061 13.0057 42.0061 13.0057 42.0061Z" fill="white"/>
<path style="mix-blend-mode:multiply" opacity="0.71" fill-rule="evenodd" clip-rule="evenodd" d="M9.68701 36.175C15.6313 37.5892 18.0307 40.1064 18.0307 40.1064L16.1451 42.025L19.0584 41.0304L19.5298 42.2701C21.3399 42.7415 22.5467 42.9018 22.5467 42.9018L23.4141 40.4647L25.0168 40.592L23.9138 38.3528L10.6251 35.6847L9.68701 36.175Z" fill="url(#paint39_linear_148_28313)"/>
<path fill-rule="evenodd" clip-rule="evenodd" d="M51.0052 50.4347L53.0558 51.1465L52.8908 44.0049C40.0924 39.3805 34.1245 38.3481 34.1245 38.3481L35.2794 40.0263C35.2794 40.0263 41.747 41.2095 50.5527 46.0036L51.0052 50.4347Z" fill="url(#paint40_linear_148_28313)"/>
<path fill-rule="evenodd" clip-rule="evenodd" d="M58.0334 44.5423L55.2051 51.1418H53.0696L52.3531 45.3484C52.3531 45.3484 42.779 40.4175 34.1431 38.334L47.4317 35.6659C51.5367 37.8667 55.1454 40.888 58.0334 44.5423Z" fill="url(#paint41_radial_148_28313)"/>
<path style="mix-blend-mode:multiply" opacity="0.71" fill-rule="evenodd" clip-rule="evenodd" d="M58.0335 44.5423C56.2375 45.3531 53.3431 45.8575 52.3296 45.3531L53.0461 51.1465H55.1815L58.0335 44.5423Z" fill="url(#paint42_linear_148_28313)"/>
<path fill-rule="evenodd" clip-rule="evenodd" d="M52.3296 38.9326C52.4427 41.1152 57.3217 43.6843 57.3217 43.6843C56.3726 42.5338 55.3322 41.4618 54.2105 40.4788C52.6596 39.1872 52.3296 38.9326 52.3296 38.9326Z" fill="white"/>
<path style="mix-blend-mode:multiply" opacity="0.71" fill-rule="evenodd" clip-rule="evenodd" d="M48.351 36.175C42.4066 37.5892 40.0072 40.1064 40.0072 40.1064L40.6484 41.5677L38.8617 40.9926L38.6213 42.2701C38.6213 42.2701 37.5183 42.5435 36.3209 42.7415L35.6468 40.3845L32.3706 40.7381L34.1431 38.3811L47.4317 35.713L48.351 36.175Z" fill="url(#paint43_linear_148_28313)"/>
<path fill-rule="evenodd" clip-rule="evenodd" d="M40.5492 17.5077C39.6394 17.9508 41.3365 20.1946 42.0153 20.1522C42.6941 20.1098 41.6382 16.9844 40.5492 17.5077Z" fill="white"/>
<path style="mix-blend-mode:multiply" opacity="0.71" fill-rule="evenodd" clip-rule="evenodd" d="M26.2943 6.74098C24.7802 6.85767 23.2842 7.14549 21.8349 7.59893L20.9345 9.64007C20.9345 9.64007 17.8469 10.036 17.1634 10.7667L17.0643 10.2482L15.0986 14.453C18.1297 15.4372 21.2777 16.0158 24.4606 16.1736L25.0781 12.8739L26.5913 12.0395L27.6566 8.73971C27.0978 8.70411 26.5419 8.63167 25.9926 8.52286C25.9926 8.52286 30.9423 8.28245 31.3382 7.36323C31.3382 7.36323 29.1604 8.65485 26.2047 7.22652L26.2943 6.74098Z" fill="url(#paint44_linear_148_28313)"/>
<path style="mix-blend-mode:screen" opacity="0.91" fill-rule="evenodd" clip-rule="evenodd" d="M18.3042 11.4927C24.4842 13.7931 33.5633 13.3782 37.4994 12.2705C37.4994 12.2705 34.1478 13.119 26.6903 12.8031C19.2328 12.4873 18.3042 11.4927 18.3042 11.4927Z" fill="url(#paint45_linear_148_28313)"/>
<path style="mix-blend-mode:screen" opacity="0.91" fill-rule="evenodd" clip-rule="evenodd" d="M23.1929 7.99489C26.7802 8.74441 32.0646 9.64478 35.336 8.34844C33.6633 8.77361 31.9283 8.89811 30.212 8.71612C26.964 8.46628 23.1929 7.99489 23.1929 7.99489Z" fill="url(#paint46_linear_148_28313)"/>
<path style="mix-blend-mode:screen" opacity="0.2" fill-rule="evenodd" clip-rule="evenodd" d="M20.3169 36.5285C28.1892 36.0571 38.4892 36.5285 38.4892 36.5285C34.626 36.9777 30.7397 37.1981 26.8504 37.1885C24.6543 37.2249 22.4614 37.0034 20.3169 36.5285Z" fill="url(#paint47_linear_148_28313)"/>
<path style="mix-blend-mode:screen" d="M43.3038 22.7873C45.0158 21.0752 45.0158 18.2994 43.3038 16.5874C41.5917 14.8753 38.8159 14.8753 37.1039 16.5874C35.3918 18.2994 35.3918 21.0752 37.1039 22.7873C38.8159 24.4993 41.5917 24.4993 43.3038 22.7873Z" fill="url(#paint48_radial_148_28313)"/>
<path fill-rule="evenodd" clip-rule="evenodd" d="M29.1797 0.820246C28.5574 2.65869 29.9245 3.5402 29.9669 2.67283C30.0093 1.80546 29.3211 0.34885 29.1797 0.820246Z" fill="white"/>
<path style="mix-blend-mode:screen" opacity="0.64" fill-rule="evenodd" clip-rule="evenodd" d="M28.0102 0.721252C29.5423 3.92203 26.2378 7.07096 26.2378 7.07096C26.2378 7.07096 26.794 3.4365 27.3267 2.20144C27.8594 0.966378 28.0102 0.721252 28.0102 0.721252Z" fill="url(#paint49_linear_148_28313)"/>
<path style="mix-blend-mode:screen" fill-rule="evenodd" clip-rule="evenodd" d="M32.1494 13.0765L32.5784 16.3245L36.3495 15.9096C36.3495 15.9096 35.2229 12.8408 35.0956 12.7701C34.9684 12.6994 32.1494 13.0765 32.1494 13.0765Z" fill="url(#paint50_radial_148_28313)"/>
<path style="mix-blend-mode:screen" fill-rule="evenodd" clip-rule="evenodd" d="M30.2637 8.98954L31.1499 12.1715C32.3564 12.0948 33.5565 11.9373 34.7419 11.7001L34.0301 8.71613C34.0301 8.71613 32.4792 8.86697 30.2637 8.98954Z" fill="url(#paint51_radial_148_28313)"/>
<path style="mix-blend-mode:screen" fill-rule="evenodd" clip-rule="evenodd" d="M31.0084 2.73411C31.0084 3.86074 30.3154 4.77525 29.4575 4.77525C28.5995 4.77525 27.9019 3.86074 27.9019 2.73411C27.9019 1.60747 28.5995 0.688248 29.4575 0.688248C30.3154 0.688248 31.0084 1.60276 31.0084 2.73411Z" fill="url(#paint52_radial_148_28313)"/>
<defs>
<radialGradient id="paint0_radial_148_28313" cx="0" cy="0" r="1" gradientUnits="userSpaceOnUse" gradientTransform="translate(31.375 38.2774) scale(6.91065 6.91067)">
<stop stop-color="#FFD5BD"/>
<stop offset="0.1" stop-color="#F8D0BF"/>
<stop offset="0.25" stop-color="#E5C2C6"/>
<stop offset="0.43" stop-color="#C5ABD2"/>
<stop offset="0.63" stop-color="#9A8CE1"/>
<stop offset="0.75" stop-color="#7A75ED"/>
<stop offset="0.97" stop-color="#7A82ED"/>
</radialGradient>
<linearGradient id="paint1_linear_148_28313" x1="26.0738" y1="44.9854" x2="28.2598" y2="45.1384" gradientUnits="userSpaceOnUse">
<stop stop-color="#5B58A3"/>
<stop offset="0.44" stop-color="#5F59A3"/>
<stop offset="0.85" stop-color="#6A5CA2"/>
<stop offset="0.99" stop-color="#705EA2"/>
</linearGradient>
<linearGradient id="paint2_linear_148_28313" x1="26.3794" y1="44.5045" x2="32.5782" y2="44.5045" gradientUnits="userSpaceOnUse">
<stop stop-color="#9A69A4"/>
<stop offset="0.13" stop-color="#A275AB"/>
<stop offset="0.38" stop-color="#B795BF"/>
<stop offset="0.69" stop-color="#DAC8DD"/>
<stop offset="1" stop-color="white"/>
</linearGradient>
<linearGradient id="paint3_linear_148_28313" x1="29.0664" y1="41.2661" x2="29.0664" y2="57.6235" gradientUnits="userSpaceOnUse">
<stop offset="0.01" stop-color="#27A2D9"/>
<stop offset="0.19" stop-color="#1D79A2"/>
<stop offset="0.39" stop-color="#134E69"/>
<stop offset="0.59" stop-color="#0B2C3C"/>
<stop offset="0.76" stop-color="#05141B"/>
<stop offset="0.9" stop-color="#010507"/>
<stop offset="1"/>
</linearGradient>
<linearGradient id="paint4_linear_148_28313" x1="18.1489" y1="40.9832" x2="39.1544" y2="40.9832" gradientUnits="userSpaceOnUse">
<stop stop-color="#5B58A3"/>
<stop offset="0.44" stop-color="#5F59A3"/>
<stop offset="0.85" stop-color="#6A5CA2"/>
<stop offset="0.99" stop-color="#705EA2"/>
</linearGradient>
<linearGradient id="paint5_linear_148_28313" x1="27.27" y1="39.3663" x2="4.98237" y2="63.2661" gradientUnits="userSpaceOnUse">
<stop stop-color="#9A69A4"/>
<stop offset="0.13" stop-color="#A275AB"/>
<stop offset="0.38" stop-color="#B795BF"/>
<stop offset="0.69" stop-color="#DAC8DD"/>
<stop offset="1" stop-color="white"/>
</linearGradient>
<radialGradient id="paint6_radial_148_28313" cx="0" cy="0" r="1" gradientUnits="userSpaceOnUse" gradientTransform="translate(32.5029 55.4242) scale(19.1245 23.7144)">
<stop offset="0.01" stop-color="#DE5438"/>
<stop offset="0.26" stop-color="#DB5139"/>
<stop offset="0.46" stop-color="#D1483D"/>
<stop offset="0.64" stop-color="#C13842"/>
<stop offset="0.81" stop-color="#A9224B"/>
<stop offset="0.97" stop-color="#8C0555"/>
<stop offset="1" stop-color="#860057"/>
</radialGradient>
<radialGradient id="paint7_radial_148_28313" cx="0" cy="0" r="1" gradientUnits="userSpaceOnUse" gradientTransform="translate(32.0029 14.9574) scale(21.4297 21.4297)">
<stop offset="0.01" stop-color="#FFCC00"/>
<stop offset="0.22" stop-color="#FEC902"/>
<stop offset="0.41" stop-color="#FCBE08"/>
<stop offset="0.58" stop-color="#F8AD13"/>
<stop offset="0.75" stop-color="#F29422"/>
<stop offset="0.91" stop-color="#EA7435"/>
<stop offset="1" stop-color="#E55E42"/>
</radialGradient>
<linearGradient id="paint8_linear_148_28313" x1="42.5438" y1="34.0066" x2="42.5438" y2="18.3845" gradientUnits="userSpaceOnUse">
<stop stop-color="#623964"/>
<stop offset="1" stop-color="white"/>
</linearGradient>
<linearGradient id="paint9_linear_148_28313" x1="14.2643" y1="30.9896" x2="14.2643" y2="16.6403" gradientUnits="userSpaceOnUse">
<stop stop-color="#623964"/>
<stop offset="1" stop-color="white"/>
</linearGradient>
<linearGradient id="paint10_linear_148_28313" x1="28.656" y1="16.0039" x2="28.656" y2="37.6834" gradientUnits="userSpaceOnUse">
<stop stop-color="#CC87CF"/>
<stop offset="0.23" stop-color="#D5889F"/>
<stop offset="0.6" stop-color="#E38A59"/>
<stop offset="0.87" stop-color="#EC8C2E"/>
<stop offset="1" stop-color="#EF8C1D"/>
</linearGradient>
<radialGradient id="paint11_radial_148_28313" cx="0" cy="0" r="1" gradientUnits="userSpaceOnUse" gradientTransform="translate(35.3263 16.2632) scale(15.8012 15.8012)">
<stop stop-color="#B1B5BD"/>
<stop offset="0.14" stop-color="#ABAEBD"/>
<stop offset="0.34" stop-color="#9B9BBF"/>
<stop offset="0.57" stop-color="#817CC0"/>
<stop offset="0.75" stop-color="#685EC2"/>
<stop offset="0.97" stop-color="#7A75D8"/>
</radialGradient>
<linearGradient id="paint12_linear_148_28313" x1="6.81423" y1="8.98357" x2="30.9247" y2="9.6352" gradientUnits="userSpaceOnUse">
<stop offset="0.03" stop-color="#7A82ED"/>
<stop offset="0.21" stop-color="#7A75ED"/>
<stop offset="0.99" stop-color="#FDD3BE"/>
<stop offset="1" stop-color="#FFD5BD"/>
</linearGradient>
<radialGradient id="paint13_radial_148_28313" cx="0" cy="0" r="1" gradientUnits="userSpaceOnUse" gradientTransform="translate(33.7189 10.4795) scale(12.0536 10.6072)">
<stop stop-color="#B1B5BD"/>
<stop offset="0.14" stop-color="#ABAEBD"/>
<stop offset="0.34" stop-color="#9B9BBF"/>
<stop offset="0.57" stop-color="#817CC0"/>
<stop offset="0.75" stop-color="#685EC2"/>
<stop offset="0.97" stop-color="#7A75D8"/>
</radialGradient>
<linearGradient id="paint14_linear_148_28313" x1="8.30361" y1="7.36227" x2="30.9648" y2="9.35447" gradientUnits="userSpaceOnUse">
<stop offset="0.03" stop-color="#7A82ED"/>
<stop offset="0.21" stop-color="#7A75ED"/>
<stop offset="0.99" stop-color="#FDD3BE"/>
<stop offset="1" stop-color="#FFD5BD"/>
</linearGradient>
<radialGradient id="paint15_radial_148_28313" cx="0" cy="0" r="1" gradientUnits="userSpaceOnUse" gradientTransform="translate(35.1801 3.63118) rotate(3.23361) scale(12.0091 6.78611)">
<stop stop-color="#FFD5BD"/>
<stop offset="0.1" stop-color="#F8D0BF"/>
<stop offset="0.25" stop-color="#E5C2C6"/>
<stop offset="0.43" stop-color="#C5ABD2"/>
<stop offset="0.63" stop-color="#9A8CE1"/>
<stop offset="0.75" stop-color="#7A75ED"/>
<stop offset="0.97" stop-color="#7A82ED"/>
</radialGradient>
<linearGradient id="paint16_linear_148_28313" x1="41.4357" y1="29.3539" x2="41.4357" y2="22.5846" gradientUnits="userSpaceOnUse">
<stop stop-color="white"/>
<stop offset="1"/>
</linearGradient>
<radialGradient id="paint17_radial_148_28313" cx="0" cy="0" r="1" gradientUnits="userSpaceOnUse" gradientTransform="translate(41.7924 27.275) scale(1.82407 1.67346)">
<stop offset="0.01" stop-color="#60DBFF"/>
<stop offset="0.18" stop-color="#56D5FF"/>
<stop offset="0.48" stop-color="#3CC4FF"/>
<stop offset="0.86" stop-color="#12A9FF"/>
<stop offset="1" stop-color="#009DFF"/>
</radialGradient>
<linearGradient id="paint18_linear_148_28313" x1="38.9608" y1="26.2191" x2="43.7549" y2="26.2191" gradientUnits="userSpaceOnUse">
<stop stop-color="#E7E3F4"/>
<stop offset="0.07" stop-color="#DFD6EC"/>
<stop offset="0.37" stop-color="#C1A7CD"/>
<stop offset="0.64" stop-color="#AC85B7"/>
<stop offset="0.86" stop-color="#9F71A9"/>
<stop offset="1" stop-color="#9A69A4"/>
</linearGradient>
<linearGradient id="paint19_linear_148_28313" x1="16.1734" y1="29.2879" x2="16.1734" y2="22.6978" gradientUnits="userSpaceOnUse">
<stop stop-color="white"/>
<stop offset="1"/>
</linearGradient>
<radialGradient id="paint20_radial_148_28313" cx="0" cy="0" r="1" gradientUnits="userSpaceOnUse" gradientTransform="translate(16.1737 26.8016) scale(1.67346 1.62326)">
<stop offset="0.01" stop-color="#60DBFF"/>
<stop offset="0.18" stop-color="#56D5FF"/>
<stop offset="0.48" stop-color="#3CC4FF"/>
<stop offset="0.86" stop-color="#12A9FF"/>
<stop offset="1" stop-color="#009DFF"/>
</radialGradient>
<linearGradient id="paint21_linear_148_28313" x1="13.9016" y1="26.2332" x2="18.3044" y2="26.2332" gradientUnits="userSpaceOnUse">
<stop stop-color="#E7E3F4"/>
<stop offset="0.07" stop-color="#DFD6EC"/>
<stop offset="0.37" stop-color="#C1A7CD"/>
<stop offset="0.64" stop-color="#AC85B7"/>
<stop offset="0.86" stop-color="#9F71A9"/>
<stop offset="1" stop-color="#9A69A4"/>
</linearGradient>
<radialGradient id="paint22_radial_148_28313" cx="0" cy="0" r="1" gradientUnits="userSpaceOnUse" gradientTransform="translate(27.2606 24.7813) scale(10.9128 10.9128)">
<stop offset="0.03" stop-color="#6A64B8"/>
<stop offset="0.94" stop-color="#5A4FBC"/>
</radialGradient>
<radialGradient id="paint23_radial_148_28313" cx="0" cy="0" r="1" gradientUnits="userSpaceOnUse" gradientTransform="translate(27.2653 23.9705) scale(11.125 11.125)">
<stop stop-color="#B1B5BD"/>
<stop offset="0.14" stop-color="#ABAEBD"/>
<stop offset="0.34" stop-color="#9B9BBF"/>
<stop offset="0.57" stop-color="#817CC0"/>
<stop offset="0.75" stop-color="#685EC2"/>
<stop offset="0.97" stop-color="#7A75D8"/>
</radialGradient>
<radialGradient id="paint24_radial_148_28313" cx="0" cy="0" r="1" gradientUnits="userSpaceOnUse" gradientTransform="translate(27.6946 25.0123) scale(8.28244 8.28244)">
<stop offset="0.03" stop-color="#1B95B8"/>
<stop offset="0.94" stop-color="#5A4FBC"/>
</radialGradient>
<radialGradient id="paint25_radial_148_28313" cx="0" cy="0" r="1" gradientUnits="userSpaceOnUse" gradientTransform="translate(27.8591 25.0726) scale(6.83053)">
<stop offset="0.01" stop-color="#60DBFF"/>
<stop offset="0.18" stop-color="#56D6FF"/>
<stop offset="0.48" stop-color="#3CCAFF"/>
<stop offset="0.86" stop-color="#12B6FF"/>
<stop offset="1" stop-color="#00AEFF"/>
</radialGradient>
<linearGradient id="paint26_linear_148_28313" x1="28.8636" y1="27.1572" x2="28.8636" y2="20.864" gradientUnits="userSpaceOnUse">
<stop stop-color="#E7E3F4"/>
<stop offset="0.07" stop-color="#DFD6EC"/>
<stop offset="0.37" stop-color="#C1A7CD"/>
<stop offset="0.64" stop-color="#AC85B7"/>
<stop offset="0.86" stop-color="#9F71A9"/>
<stop offset="1" stop-color="#9A69A4"/>
</linearGradient>
<linearGradient id="paint27_linear_148_28313" x1="28.901" y1="30.5748" x2="28.901" y2="34.8362" gradientUnits="userSpaceOnUse">
<stop stop-color="#9A69A4"/>
<stop offset="0.13" stop-color="#A275AB"/>
<stop offset="0.38" stop-color="#B795BF"/>
<stop offset="0.69" stop-color="#DAC8DD"/>
<stop offset="1" stop-color="white"/>
</linearGradient>
<linearGradient id="paint28_linear_148_28313" x1="22.8107" y1="22.8769" x2="27.3833" y2="22.8769" gradientUnits="userSpaceOnUse">
<stop stop-color="white"/>
<stop offset="1" stop-color="#623964"/>
</linearGradient>
<linearGradient id="paint29_linear_148_28313" x1="15.7518" y1="12.0923" x2="16.2715" y2="12.5497" gradientUnits="userSpaceOnUse">
<stop stop-color="#5B58A3"/>
<stop offset="0.44" stop-color="#5F59A3"/>
<stop offset="0.85" stop-color="#6A5CA2"/>
<stop offset="0.99" stop-color="#705EA2"/>
</linearGradient>
<linearGradient id="paint30_linear_148_28313" x1="28.7882" y1="14.651" x2="29.0427" y2="14.651" gradientUnits="userSpaceOnUse">
<stop stop-color="#5B58A3"/>
<stop offset="0.44" stop-color="#5F59A3"/>
<stop offset="0.85" stop-color="#6A5CA2"/>
<stop offset="0.99" stop-color="#705EA2"/>
</linearGradient>
<linearGradient id="paint31_linear_148_28313" x1="35.9912" y1="14.2126" x2="36.9764" y2="14.2126" gradientUnits="userSpaceOnUse">
<stop stop-color="#5B58A3"/>
<stop offset="0.44" stop-color="#5F59A3"/>
<stop offset="0.85" stop-color="#6A5CA2"/>
<stop offset="0.99" stop-color="#705EA2"/>
</linearGradient>
<linearGradient id="paint32_linear_148_28313" x1="21.5146" y1="9.42322" x2="22.7591" y2="9.42322" gradientUnits="userSpaceOnUse">
<stop stop-color="#5B58A3"/>
<stop offset="0.44" stop-color="#5F59A3"/>
<stop offset="0.85" stop-color="#6A5CA2"/>
<stop offset="0.99" stop-color="#705EA2"/>
</linearGradient>
<linearGradient id="paint33_linear_148_28313" x1="28.2792" y1="10.4414" x2="28.5573" y2="10.4414" gradientUnits="userSpaceOnUse">
<stop stop-color="#5B58A3"/>
<stop offset="0.44" stop-color="#5F59A3"/>
<stop offset="0.85" stop-color="#6A5CA2"/>
<stop offset="0.99" stop-color="#705EA2"/>
</linearGradient>
<linearGradient id="paint34_linear_148_28313" x1="34.5205" y1="10.0879" x2="35.3313" y2="10.0879" gradientUnits="userSpaceOnUse">
<stop stop-color="#5B58A3"/>
<stop offset="0.44" stop-color="#5F59A3"/>
<stop offset="0.85" stop-color="#6A5CA2"/>
<stop offset="0.99" stop-color="#705EA2"/>
</linearGradient>
<linearGradient id="paint35_linear_148_28313" x1="38.8809" y1="29.302" x2="46.6447" y2="29.302" gradientUnits="userSpaceOnUse">
<stop stop-color="white"/>
<stop offset="1" stop-color="#623964"/>
</linearGradient>
<linearGradient id="paint36_linear_148_28313" x1="4.99219" y1="44.7402" x2="23.8952" y2="44.7402" gradientUnits="userSpaceOnUse">
<stop stop-color="#5B58A3"/>
<stop offset="0.44" stop-color="#5F59A3"/>
<stop offset="0.85" stop-color="#6A5CA2"/>
<stop offset="0.99" stop-color="#705EA2"/>
</linearGradient>
<radialGradient id="paint37_radial_148_28313" cx="0" cy="0" r="1" gradientUnits="userSpaceOnUse" gradientTransform="translate(18.4599 25.9692) scale(18.2148 18.2148)">
<stop stop-color="#FFD5BD"/>
<stop offset="0.1" stop-color="#F8D0BF"/>
<stop offset="0.25" stop-color="#E5C2C6"/>
<stop offset="0.43" stop-color="#C5ABD2"/>
<stop offset="0.63" stop-color="#9A8CE1"/>
<stop offset="0.75" stop-color="#7A75ED"/>
<stop offset="0.97" stop-color="#7A82ED"/>
</radialGradient>
<linearGradient id="paint38_linear_148_28313" x1="0" y1="47.8468" x2="5.7086" y2="47.8468" gradientUnits="userSpaceOnUse">
<stop stop-color="#9A69A4"/>
<stop offset="0.13" stop-color="#A275AB"/>
<stop offset="0.38" stop-color="#B795BF"/>
<stop offset="0.69" stop-color="#DAC8DD"/>
<stop offset="1" stop-color="white"/>
</linearGradient>
<linearGradient id="paint39_linear_148_28313" x1="16.9465" y1="38.7912" x2="5.55759" y2="51.0051" gradientUnits="userSpaceOnUse">
<stop stop-color="#9A69A4"/>
<stop offset="0.13" stop-color="#A275AB"/>
<stop offset="0.38" stop-color="#B795BF"/>
<stop offset="0.69" stop-color="#DAC8DD"/>
<stop offset="1" stop-color="white"/>
</linearGradient>
<linearGradient id="paint40_linear_148_28313" x1="53.0464" y1="44.7402" x2="34.1434" y2="44.7402" gradientUnits="userSpaceOnUse">
<stop stop-color="#5B58A3"/>
<stop offset="0.44" stop-color="#5F59A3"/>
<stop offset="0.85" stop-color="#6A5CA2"/>
<stop offset="0.99" stop-color="#705EA2"/>
</linearGradient>
<radialGradient id="paint41_radial_148_28313" cx="0" cy="0" r="1" gradientUnits="userSpaceOnUse" gradientTransform="translate(51.8629 32.6442) rotate(180) scale(18.21 18.21)">
<stop stop-color="#FFD5BD"/>
<stop offset="0.1" stop-color="#F8D0BF"/>
<stop offset="0.25" stop-color="#E5C2C6"/>
<stop offset="0.43" stop-color="#C5ABD2"/>
<stop offset="0.63" stop-color="#9A8CE1"/>
<stop offset="0.75" stop-color="#7A75ED"/>
<stop offset="0.97" stop-color="#7A82ED"/>
</radialGradient>
<linearGradient id="paint42_linear_148_28313" x1="58.0382" y1="47.8468" x2="52.3296" y2="47.8468" gradientUnits="userSpaceOnUse">
<stop stop-color="#9A69A4"/>
<stop offset="0.13" stop-color="#A275AB"/>
<stop offset="0.38" stop-color="#B795BF"/>
<stop offset="0.69" stop-color="#DAC8DD"/>
<stop offset="1" stop-color="white"/>
</linearGradient>
<linearGradient id="paint43_linear_148_28313" x1="40.884" y1="38.9845" x2="52.273" y2="51.2031" gradientUnits="userSpaceOnUse">
<stop stop-color="#9A69A4"/>
<stop offset="0.13" stop-color="#A275AB"/>
<stop offset="0.38" stop-color="#B795BF"/>
<stop offset="0.69" stop-color="#DAC8DD"/>
<stop offset="1" stop-color="white"/>
</linearGradient>
<linearGradient id="paint44_linear_148_28313" x1="34.275" y1="12.1008" x2="15.9943" y2="10.7997" gradientUnits="userSpaceOnUse">
<stop stop-color="#9A69A4"/>
<stop offset="0.13" stop-color="#A275AB"/>
<stop offset="0.38" stop-color="#B795BF"/>
<stop offset="0.69" stop-color="#DAC8DD"/>
<stop offset="1" stop-color="white"/>
</linearGradient>
<linearGradient id="paint45_linear_148_28313" x1="18.3042" y1="12.3223" x2="37.4994" y2="12.3223" gradientUnits="userSpaceOnUse">
<stop stop-color="white"/>
<stop offset="1" stop-color="#623964"/>
</linearGradient>
<linearGradient id="paint46_linear_148_28313" x1="23.1834" y1="8.49928" x2="35.3266" y2="8.49928" gradientUnits="userSpaceOnUse">
<stop stop-color="white"/>
<stop offset="1" stop-color="#623964"/>
</linearGradient>
<linearGradient id="paint47_linear_148_28313" x1="20.3169" y1="36.7501" x2="38.4892" y2="36.7501" gradientUnits="userSpaceOnUse">
<stop stop-color="#623964"/>
<stop offset="1" stop-color="white"/>
</linearGradient>
<radialGradient id="paint48_radial_148_28313" cx="0" cy="0" r="1" gradientUnits="userSpaceOnUse" gradientTransform="translate(40.2081 19.6875) scale(4.38399)">
<stop offset="0.01" stop-color="#F4FF09"/>
<stop offset="0.07" stop-color="#DFE908"/>
<stop offset="0.27" stop-color="#9CA306"/>
<stop offset="0.46" stop-color="#646904"/>
<stop offset="0.63" stop-color="#393C02"/>
<stop offset="0.78" stop-color="#1A1B01"/>
<stop offset="0.91" stop-color="#070700"/>
<stop offset="1"/>
</radialGradient>
<linearGradient id="paint49_linear_148_28313" x1="26.2378" y1="3.89847" x2="28.4156" y2="3.89847" gradientUnits="userSpaceOnUse">
<stop stop-color="#623964"/>
<stop offset="1" stop-color="#FFC209"/>
</linearGradient>
<radialGradient id="paint50_radial_148_28313" cx="0" cy="0" r="1" gradientUnits="userSpaceOnUse" gradientTransform="translate(34.2471 14.5284) scale(1.95158 1.95158)">
<stop stop-color="white"/>
<stop offset="1" stop-color="#623964"/>
</radialGradient>
<radialGradient id="paint51_radial_148_28313" cx="0" cy="0" r="1" gradientUnits="userSpaceOnUse" gradientTransform="translate(32.4792 10.4556) scale(1.99401)">
<stop stop-color="white"/>
<stop offset="1" stop-color="#623964"/>
</radialGradient>
<radialGradient id="paint52_radial_148_28313" cx="0" cy="0" r="1" gradientUnits="userSpaceOnUse" gradientTransform="translate(20.6635 2.70582) scale(1.54006 2.04407)">
<stop offset="0.01" stop-color="#F4FF09"/>
<stop offset="0.07" stop-color="#DFE908"/>
<stop offset="0.27" stop-color="#9CA306"/>
<stop offset="0.46" stop-color="#646904"/>
<stop offset="0.63" stop-color="#393C02"/>
<stop offset="0.78" stop-color="#1A1B01"/>
<stop offset="0.91" stop-color="#070700"/>
<stop offset="1"/>
</radialGradient>
</defs>
</svg>
