<svg width="165" height="36" viewBox="0 0 165 36" fill="none" xmlns="http://www.w3.org/2000/svg">
<g clip-path="url(#clip0_337_5895)">
<path d="M3.70269 4.12492C3.86633 2.50647 5.22882 1.2748 6.85552 1.2748H160.881C162.776 1.2748 164.247 2.92639 164.029 4.80846L160.897 31.8415C160.712 33.435 159.366 34.6392 157.762 34.6456L4.25002 35.2578C2.27411 35.2657 0.726436 33.5605 0.92521 31.5946L3.70269 4.12492Z" fill="url(#paint0_linear_337_5895)" stroke="#232323"/>
<mask id="mask0_337_5895" style="mask-type:alpha" maskUnits="userSpaceOnUse" x="0" y="0" width="165" height="36">
<path d="M3.20331 4.07226C3.39389 2.19948 4.97091 0.774799 6.85336 0.774799H160.878C163.073 0.774799 164.777 2.68878 164.523 4.86871L161.396 31.6806C161.181 33.5244 159.622 34.9171 157.766 34.9244L4.25468 35.5327C1.981 35.5417 0.200562 33.5788 0.430758 31.3168L3.20331 4.07226Z" fill="url(#paint1_linear_337_5895)"/>
</mask>
<g mask="url(#mask0_337_5895)">
<rect width="3.89121" height="10.0771" transform="matrix(0.8265 -0.562937 0.794753 0.606933 156.594 0.732075)" fill="#2E2E2E"/>
<g style="mix-blend-mode:overlay" opacity="0.7">
<rect x="0.885559" y="0.774799" width="165.885" height="4.14745" fill="white"/>
</g>
<g style="mix-blend-mode:overlay" opacity="0.7">
<rect x="-0.885559" y="32" width="165.885" height="4.14745" fill="#161616"/>
</g>
</g>
<g filter="url(#filter0_d_337_5895)">
<mask id="path-6-outside-1_337_5895" maskUnits="userSpaceOnUse" x="25" y="7.9999" width="115" height="18" fill="black">
<rect fill="white" x="25" y="7.9999" width="115" height="18"/>
<path d="M41.2087 22.0479C40.622 22.3892 39.2887 22.4692 37.2087 22.2879C37.198 22.0746 37.166 21.5199 37.1127 20.6239C37.07 19.7172 37.0274 18.8852 36.9847 18.1279C36.942 17.3599 36.91 16.9386 36.8887 16.8639H36.3127C36.27 16.9706 35.9767 17.6852 35.4327 19.0079C34.8994 20.3199 34.478 21.3332 34.1687 22.0479C33.3367 22.0479 32.8567 22.0372 32.7287 22.0159C32.5154 21.6212 32.2967 21.1626 32.0727 20.6399C31.8487 20.1172 31.678 19.7066 31.5607 19.4079C31.4434 19.0986 31.278 18.6506 31.0647 18.0639C30.8514 17.4666 30.734 17.1412 30.7127 17.0879L30.1687 17.1039C30.0407 17.6159 29.9447 19.3546 29.8807 22.3199C28.9207 22.5226 27.8274 22.5492 26.6007 22.3999C26.5687 20.9066 26.6167 18.7306 26.7447 15.8719C26.8834 13.0132 27.0007 11.1039 27.0967 10.1439C27.7474 9.9199 28.6807 9.74923 29.8967 9.6319C31.1234 9.51456 31.838 9.4879 32.0407 9.5519C32.6914 11.6639 33.1554 13.0559 33.4327 13.7279H34.0247C34.0887 13.5679 34.254 13.1466 34.5207 12.4639C34.798 11.7812 35.054 11.1466 35.2887 10.5599C35.5234 9.97323 35.6727 9.59456 35.7367 9.4239C36.2274 9.28523 37.0274 9.2159 38.1367 9.2159C39.2567 9.20523 40.1154 9.25323 40.7127 9.3599C40.7447 10.1919 40.814 12.1012 40.9207 15.0879C41.0274 18.0746 41.1234 20.3946 41.2087 22.0479ZM48.0932 19.4079C48.0825 18.9066 48.0239 18.2346 47.9172 17.3919C47.8532 17.4132 47.7465 17.4452 47.5972 17.4879C47.4585 17.5199 47.3465 17.5466 47.2612 17.5679C47.1759 17.5892 47.0639 17.6212 46.9252 17.6639C46.7865 17.7066 46.6692 17.7439 46.5732 17.7759C46.4879 17.8079 46.3919 17.8452 46.2852 17.8879C46.1892 17.9199 46.1039 17.9572 46.0292 17.9999C45.9545 18.0426 45.8959 18.0852 45.8532 18.1279L45.8372 18.5279C45.8372 18.7946 45.8479 19.0292 45.8692 19.2319C45.9012 19.4346 45.9599 19.5626 46.0452 19.6159C46.4932 19.6586 47.1759 19.5892 48.0932 19.4079ZM51.7252 21.9359C51.0852 22.1279 49.9759 22.2612 48.3972 22.3359L48.3332 21.7119C47.1492 21.9146 45.8372 22.0959 44.3972 22.2559C44.0879 22.1599 43.6879 21.9892 43.1972 21.7439C42.7172 21.4986 42.3172 21.2479 41.9972 20.9919C41.9012 20.5226 41.8905 19.8026 41.9652 18.8319C42.0399 17.8612 42.1412 17.1786 42.2692 16.7839C42.7172 16.5172 43.5439 16.2292 44.7492 15.9199C45.9545 15.6106 46.9412 15.4239 47.7092 15.3599C47.7412 15.1039 47.7412 14.8906 47.7092 14.7199C47.5812 14.6772 47.3732 14.6452 47.0852 14.6239C46.7972 14.6026 46.4399 14.5919 46.0132 14.5919C45.5865 14.5812 45.2239 14.5812 44.9252 14.5919C44.6265 14.5919 44.2479 14.5972 43.7892 14.6079C43.3305 14.6186 43.0799 14.6239 43.0372 14.6239C43.0159 14.1759 43.0425 13.7332 43.1172 13.2959C43.1919 12.8479 43.2985 12.5546 43.4372 12.4159C44.5892 12.2452 45.8692 12.1706 47.2772 12.1919C48.6959 12.2026 49.8585 12.3199 50.7652 12.5439C51.1705 13.1306 51.4692 14.5172 51.6612 16.7039C51.8532 18.8799 51.8745 20.6239 51.7252 21.9359ZM58.6913 16.6879C58.734 16.2932 58.6593 15.6052 58.4673 14.6239C58.286 14.5599 57.9233 14.5652 57.3793 14.6399C56.846 14.7146 56.4833 14.8159 56.2913 14.9439C56.1953 16.0212 56.2006 16.7999 56.3073 17.2799C57.5233 17.2479 58.318 17.0506 58.6913 16.6879ZM62.5793 21.7119C62.3233 21.8506 61.806 21.9892 61.0273 22.1279C60.2593 22.2772 59.6033 22.3626 59.0593 22.3839C58.9526 22.2666 58.6806 21.9092 58.2433 21.3119C57.8166 20.7039 57.4753 20.2452 57.2193 19.9359L56.2753 20.1919C56.254 20.4586 56.2486 20.8052 56.2593 21.2319C56.27 21.6479 56.2646 21.9572 56.2433 22.1599C55.2726 22.4052 54.1313 22.4692 52.8193 22.3519C52.7233 21.2639 52.6646 19.4506 52.6433 16.9119C52.6326 14.3732 52.702 12.7092 52.8513 11.9199C53.182 11.8239 53.6886 11.7439 54.3713 11.6799C55.054 11.6159 55.662 11.6106 56.1953 11.6639V12.4319C56.7713 12.2932 57.5286 12.1812 58.4673 12.0959C59.406 11.9999 60.1633 11.9626 60.7393 11.9839C61.2193 12.3679 61.6566 13.0719 62.0513 14.0959C62.446 15.1199 62.6006 16.0586 62.5153 16.9119C62.046 17.4452 61.486 17.9999 60.8353 18.5759C61.0166 18.8532 61.326 19.3919 61.7633 20.1919C62.2113 20.9919 62.4833 21.4986 62.5793 21.7119ZM72.8857 21.5039C72.4804 21.6639 71.883 21.8292 71.0937 21.9999C70.3044 22.1706 69.7337 22.2612 69.3817 22.2719C68.9977 21.5146 68.299 20.3252 67.2857 18.7039H66.7737C66.8057 20.1012 66.795 21.1946 66.7417 21.9839C66.507 22.1012 65.9364 22.1812 65.0297 22.2239C64.123 22.2772 63.5417 22.2719 63.2857 22.2079C63.115 20.4586 63.1364 16.3466 63.3497 9.8719C63.7444 9.79723 64.3524 9.7439 65.1737 9.7119C66.0057 9.66923 66.5444 9.65856 66.7897 9.6799C66.7684 10.0426 66.7577 10.8692 66.7577 12.1599C66.7684 13.4399 66.8004 14.3039 66.8537 14.7519C66.939 14.6772 67.1417 14.4799 67.4617 14.1599C67.7817 13.8399 68.0377 13.5892 68.2297 13.4079C68.4324 13.2159 68.6884 12.9866 68.9977 12.7199C69.307 12.4532 69.5897 12.2292 69.8457 12.0479C70.923 12.4426 71.8404 13.0506 72.5977 13.8719C72.3737 14.0532 72.1284 14.2826 71.8617 14.5599C71.6057 14.8266 71.3017 15.1572 70.9497 15.5519C70.5977 15.9359 70.315 16.2346 70.1017 16.4479C70.251 16.7572 70.667 17.4612 71.3497 18.5599C72.0324 19.6586 72.5444 20.6399 72.8857 21.5039ZM79.6517 15.9519C79.705 15.1732 79.6357 14.6132 79.4437 14.2719C79.3904 14.2719 79.2997 14.2772 79.1717 14.2879C79.0437 14.2879 78.9477 14.2932 78.8837 14.3039C78.8304 14.3039 78.745 14.3092 78.6277 14.3199C78.521 14.3306 78.4197 14.3466 78.3237 14.3679C78.2384 14.3892 78.137 14.4159 78.0197 14.4479C77.9024 14.4799 77.7797 14.5226 77.6517 14.5759C77.4384 15.2906 77.3104 15.8452 77.2677 16.2399C78.1104 16.2719 78.905 16.1759 79.6517 15.9519ZM83.4117 17.9999C82.8677 18.0852 81.929 18.1812 80.5957 18.2879C79.2624 18.3839 78.0784 18.4479 77.0437 18.4799C77.0757 18.7679 77.1504 19.0132 77.2677 19.2159C77.577 19.4079 78.4464 19.5679 79.8757 19.6959C81.3157 19.8132 82.0944 19.8986 82.2117 19.9519C82.233 20.3466 82.201 20.8212 82.1157 21.3759C82.0304 21.9306 81.9184 22.2559 81.7797 22.3519C78.4624 22.3092 75.8224 21.9466 73.8597 21.2639C73.3797 20.6772 73.1984 19.3226 73.3157 17.1999C73.4437 15.0772 73.7797 13.6159 74.3237 12.8159C74.9637 12.4746 76.3397 12.1972 78.4517 11.9839C80.5744 11.7599 81.8597 11.7439 82.3077 11.9359C82.681 12.5546 82.9637 13.4559 83.1557 14.6399C83.3477 15.8239 83.433 16.9439 83.4117 17.9999ZM93.3973 12.9919C93.472 13.6212 93.4293 14.3466 93.2693 15.1679C92.8533 15.2212 91.9733 15.2852 90.6293 15.3599C90.448 16.1919 90.3893 18.3786 90.4533 21.9199C88.704 22.1866 87.4346 22.2932 86.6453 22.2399C86.5173 21.0346 86.4426 19.8986 86.4213 18.8319C86.4106 17.7652 86.4213 16.7039 86.4533 15.6479C85.9733 15.6372 85.68 15.6319 85.5733 15.6319C85.4666 15.6319 85.1733 15.6532 84.6933 15.6959C84.2133 15.7386 83.9306 15.7652 83.8453 15.7759C83.792 14.8692 83.8773 14.0372 84.1013 13.2799C84.3786 13.1626 85.1733 13.0719 86.4853 13.0079C86.4853 11.8559 86.5333 10.9439 86.6293 10.2719C87.5146 9.93056 88.832 9.7759 90.5813 9.8079C90.5813 10.8319 90.5706 11.8666 90.5493 12.9119C92.0746 12.8906 93.024 12.9172 93.3973 12.9919ZM100.075 15.2319C99.7339 15.1146 99.3285 15.0826 98.8592 15.1359C98.4005 15.1786 98.0165 15.2586 97.7072 15.3759C97.5579 16.7732 97.5579 18.0319 97.7072 19.1519C97.7285 19.1519 97.8245 19.1679 97.9952 19.1999C98.1765 19.2319 98.3099 19.2532 98.3952 19.2639C98.4912 19.2746 98.6299 19.2852 98.8112 19.2959C98.9925 19.3066 99.1365 19.3012 99.2432 19.2799C99.3605 19.2479 99.4885 19.1999 99.6272 19.1359C99.7659 19.0719 99.8779 18.9866 99.9632 18.8799C100.145 18.0479 100.182 16.8319 100.075 15.2319ZM103.803 13.8399C104.081 14.7999 104.123 15.9786 103.931 17.3759C103.75 18.7732 103.377 20.0959 102.811 21.3439C101.723 21.6959 99.9365 21.7972 97.4512 21.6479C97.4512 21.8932 97.4619 22.4052 97.4832 23.1839C97.5152 23.9626 97.5205 24.5279 97.4992 24.8799C96.0699 25.0399 94.9605 25.0879 94.1712 25.0239C94.0965 23.1466 94.0539 20.9279 94.0432 18.3679C94.0325 15.8079 94.0805 13.7706 94.1872 12.2559C94.6672 12.1172 95.8192 12.0266 97.6432 11.9839L97.6272 12.7839C99.2165 12.4426 100.534 12.2719 101.579 12.2719C102.454 12.7092 103.195 13.2319 103.803 13.8399ZM108.825 9.6799C108.719 10.8532 108.655 12.9706 108.633 16.0319C108.612 19.0826 108.649 20.9972 108.745 21.7759C108.073 21.9786 107.497 22.0959 107.017 22.1279C106.537 22.1599 105.961 22.1279 105.289 22.0319C105.183 20.9972 105.113 19.0079 105.081 16.0639C105.049 13.1092 105.103 11.0506 105.241 9.8879C106.852 9.54656 108.047 9.47723 108.825 9.6799ZM115.97 19.4079C115.959 18.9066 115.901 18.2346 115.794 17.3919C115.73 17.4132 115.623 17.4452 115.474 17.4879C115.335 17.5199 115.223 17.5466 115.138 17.5679C115.053 17.5892 114.941 17.6212 114.802 17.6639C114.663 17.7066 114.546 17.7439 114.45 17.7759C114.365 17.8079 114.269 17.8452 114.162 17.8879C114.066 17.9199 113.981 17.9572 113.906 17.9999C113.831 18.0426 113.773 18.0852 113.73 18.1279L113.714 18.5279C113.714 18.7946 113.725 19.0292 113.746 19.2319C113.778 19.4346 113.837 19.5626 113.922 19.6159C114.37 19.6586 115.053 19.5892 115.97 19.4079ZM119.602 21.9359C118.962 22.1279 117.853 22.2612 116.274 22.3359L116.21 21.7119C115.026 21.9146 113.714 22.0959 112.274 22.2559C111.965 22.1599 111.565 21.9892 111.074 21.7439C110.594 21.4986 110.194 21.2479 109.874 20.9919C109.778 20.5226 109.767 19.8026 109.842 18.8319C109.917 17.8612 110.018 17.1786 110.146 16.7839C110.594 16.5172 111.421 16.2292 112.626 15.9199C113.831 15.6106 114.818 15.4239 115.586 15.3599C115.618 15.1039 115.618 14.8906 115.586 14.7199C115.458 14.6772 115.25 14.6452 114.962 14.6239C114.674 14.6026 114.317 14.5919 113.89 14.5919C113.463 14.5812 113.101 14.5812 112.802 14.5919C112.503 14.5919 112.125 14.5972 111.666 14.6079C111.207 14.6186 110.957 14.6239 110.914 14.6239C110.893 14.1759 110.919 13.7332 110.994 13.2959C111.069 12.8479 111.175 12.5546 111.314 12.4159C112.466 12.2452 113.746 12.1706 115.154 12.1919C116.573 12.2026 117.735 12.3199 118.642 12.5439C119.047 13.1306 119.346 14.5172 119.538 16.7039C119.73 18.8799 119.751 20.6239 119.602 21.9359ZM128.728 20.1119C128.75 20.5066 128.712 20.9439 128.616 21.4239C128.531 21.9039 128.419 22.1919 128.28 22.2879C127.235 22.2772 126.371 22.2559 125.688 22.2239C125.016 22.1919 124.19 22.1119 123.208 21.9839C122.238 21.8452 121.406 21.6532 120.712 21.4079C120.232 20.8212 120.051 19.4719 120.168 17.3599C120.296 15.2372 120.632 13.7759 121.176 12.9759C121.827 12.6346 123.096 12.3572 124.984 12.1439C126.872 11.9199 128.04 11.9039 128.488 12.0959C128.595 12.9172 128.595 13.6212 128.488 14.2079C128.211 14.2292 127.859 14.2559 127.432 14.2879C127.016 14.3092 126.702 14.3306 126.488 14.3519C126.275 14.3626 126.014 14.3999 125.704 14.4639C125.406 14.5279 125.112 14.6186 124.824 14.7359C124.611 15.4292 124.467 16.2826 124.392 17.2959C124.318 18.3092 124.387 19.0772 124.6 19.5999C124.91 19.7919 125.646 19.9146 126.808 19.9679C127.971 20.0106 128.611 20.0586 128.728 20.1119ZM135.542 15.9519C135.595 15.1732 135.526 14.6132 135.334 14.2719C135.28 14.2719 135.19 14.2772 135.062 14.2879C134.934 14.2879 134.838 14.2932 134.774 14.3039C134.72 14.3039 134.635 14.3092 134.518 14.3199C134.411 14.3306 134.31 14.3466 134.214 14.3679C134.128 14.3892 134.027 14.4159 133.91 14.4479C133.792 14.4799 133.67 14.5226 133.542 14.5759C133.328 15.2906 133.2 15.8452 133.158 16.2399C134 16.2719 134.795 16.1759 135.542 15.9519ZM139.302 17.9999C138.758 18.0852 137.819 18.1812 136.486 18.2879C135.152 18.3839 133.968 18.4479 132.934 18.4799C132.966 18.7679 133.04 19.0132 133.158 19.2159C133.467 19.4079 134.336 19.5679 135.766 19.6959C137.206 19.8132 137.984 19.8986 138.102 19.9519C138.123 20.3466 138.091 20.8212 138.006 21.3759C137.92 21.9306 137.808 22.2559 137.67 22.3519C134.352 22.3092 131.712 21.9466 129.75 21.2639C129.27 20.6772 129.088 19.3226 129.206 17.1999C129.334 15.0772 129.67 13.6159 130.214 12.8159C130.854 12.4746 132.23 12.1972 134.342 11.9839C136.464 11.7599 137.75 11.7439 138.198 11.9359C138.571 12.5546 138.854 13.4559 139.046 14.6399C139.238 15.8239 139.323 16.9439 139.302 17.9999Z"/>
</mask>
<path d="M41.2087 22.0479C40.622 22.3892 39.2887 22.4692 37.2087 22.2879C37.198 22.0746 37.166 21.5199 37.1127 20.6239C37.07 19.7172 37.0274 18.8852 36.9847 18.1279C36.942 17.3599 36.91 16.9386 36.8887 16.8639H36.3127C36.27 16.9706 35.9767 17.6852 35.4327 19.0079C34.8994 20.3199 34.478 21.3332 34.1687 22.0479C33.3367 22.0479 32.8567 22.0372 32.7287 22.0159C32.5154 21.6212 32.2967 21.1626 32.0727 20.6399C31.8487 20.1172 31.678 19.7066 31.5607 19.4079C31.4434 19.0986 31.278 18.6506 31.0647 18.0639C30.8514 17.4666 30.734 17.1412 30.7127 17.0879L30.1687 17.1039C30.0407 17.6159 29.9447 19.3546 29.8807 22.3199C28.9207 22.5226 27.8274 22.5492 26.6007 22.3999C26.5687 20.9066 26.6167 18.7306 26.7447 15.8719C26.8834 13.0132 27.0007 11.1039 27.0967 10.1439C27.7474 9.9199 28.6807 9.74923 29.8967 9.6319C31.1234 9.51456 31.838 9.4879 32.0407 9.5519C32.6914 11.6639 33.1554 13.0559 33.4327 13.7279H34.0247C34.0887 13.5679 34.254 13.1466 34.5207 12.4639C34.798 11.7812 35.054 11.1466 35.2887 10.5599C35.5234 9.97323 35.6727 9.59456 35.7367 9.4239C36.2274 9.28523 37.0274 9.2159 38.1367 9.2159C39.2567 9.20523 40.1154 9.25323 40.7127 9.3599C40.7447 10.1919 40.814 12.1012 40.9207 15.0879C41.0274 18.0746 41.1234 20.3946 41.2087 22.0479ZM48.0932 19.4079C48.0825 18.9066 48.0239 18.2346 47.9172 17.3919C47.8532 17.4132 47.7465 17.4452 47.5972 17.4879C47.4585 17.5199 47.3465 17.5466 47.2612 17.5679C47.1759 17.5892 47.0639 17.6212 46.9252 17.6639C46.7865 17.7066 46.6692 17.7439 46.5732 17.7759C46.4879 17.8079 46.3919 17.8452 46.2852 17.8879C46.1892 17.9199 46.1039 17.9572 46.0292 17.9999C45.9545 18.0426 45.8959 18.0852 45.8532 18.1279L45.8372 18.5279C45.8372 18.7946 45.8479 19.0292 45.8692 19.2319C45.9012 19.4346 45.9599 19.5626 46.0452 19.6159C46.4932 19.6586 47.1759 19.5892 48.0932 19.4079ZM51.7252 21.9359C51.0852 22.1279 49.9759 22.2612 48.3972 22.3359L48.3332 21.7119C47.1492 21.9146 45.8372 22.0959 44.3972 22.2559C44.0879 22.1599 43.6879 21.9892 43.1972 21.7439C42.7172 21.4986 42.3172 21.2479 41.9972 20.9919C41.9012 20.5226 41.8905 19.8026 41.9652 18.8319C42.0399 17.8612 42.1412 17.1786 42.2692 16.7839C42.7172 16.5172 43.5439 16.2292 44.7492 15.9199C45.9545 15.6106 46.9412 15.4239 47.7092 15.3599C47.7412 15.1039 47.7412 14.8906 47.7092 14.7199C47.5812 14.6772 47.3732 14.6452 47.0852 14.6239C46.7972 14.6026 46.4399 14.5919 46.0132 14.5919C45.5865 14.5812 45.2239 14.5812 44.9252 14.5919C44.6265 14.5919 44.2479 14.5972 43.7892 14.6079C43.3305 14.6186 43.0799 14.6239 43.0372 14.6239C43.0159 14.1759 43.0425 13.7332 43.1172 13.2959C43.1919 12.8479 43.2985 12.5546 43.4372 12.4159C44.5892 12.2452 45.8692 12.1706 47.2772 12.1919C48.6959 12.2026 49.8585 12.3199 50.7652 12.5439C51.1705 13.1306 51.4692 14.5172 51.6612 16.7039C51.8532 18.8799 51.8745 20.6239 51.7252 21.9359ZM58.6913 16.6879C58.734 16.2932 58.6593 15.6052 58.4673 14.6239C58.286 14.5599 57.9233 14.5652 57.3793 14.6399C56.846 14.7146 56.4833 14.8159 56.2913 14.9439C56.1953 16.0212 56.2006 16.7999 56.3073 17.2799C57.5233 17.2479 58.318 17.0506 58.6913 16.6879ZM62.5793 21.7119C62.3233 21.8506 61.806 21.9892 61.0273 22.1279C60.2593 22.2772 59.6033 22.3626 59.0593 22.3839C58.9526 22.2666 58.6806 21.9092 58.2433 21.3119C57.8166 20.7039 57.4753 20.2452 57.2193 19.9359L56.2753 20.1919C56.254 20.4586 56.2486 20.8052 56.2593 21.2319C56.27 21.6479 56.2646 21.9572 56.2433 22.1599C55.2726 22.4052 54.1313 22.4692 52.8193 22.3519C52.7233 21.2639 52.6646 19.4506 52.6433 16.9119C52.6326 14.3732 52.702 12.7092 52.8513 11.9199C53.182 11.8239 53.6886 11.7439 54.3713 11.6799C55.054 11.6159 55.662 11.6106 56.1953 11.6639V12.4319C56.7713 12.2932 57.5286 12.1812 58.4673 12.0959C59.406 11.9999 60.1633 11.9626 60.7393 11.9839C61.2193 12.3679 61.6566 13.0719 62.0513 14.0959C62.446 15.1199 62.6006 16.0586 62.5153 16.9119C62.046 17.4452 61.486 17.9999 60.8353 18.5759C61.0166 18.8532 61.326 19.3919 61.7633 20.1919C62.2113 20.9919 62.4833 21.4986 62.5793 21.7119ZM72.8857 21.5039C72.4804 21.6639 71.883 21.8292 71.0937 21.9999C70.3044 22.1706 69.7337 22.2612 69.3817 22.2719C68.9977 21.5146 68.299 20.3252 67.2857 18.7039H66.7737C66.8057 20.1012 66.795 21.1946 66.7417 21.9839C66.507 22.1012 65.9364 22.1812 65.0297 22.2239C64.123 22.2772 63.5417 22.2719 63.2857 22.2079C63.115 20.4586 63.1364 16.3466 63.3497 9.8719C63.7444 9.79723 64.3524 9.7439 65.1737 9.7119C66.0057 9.66923 66.5444 9.65856 66.7897 9.6799C66.7684 10.0426 66.7577 10.8692 66.7577 12.1599C66.7684 13.4399 66.8004 14.3039 66.8537 14.7519C66.939 14.6772 67.1417 14.4799 67.4617 14.1599C67.7817 13.8399 68.0377 13.5892 68.2297 13.4079C68.4324 13.2159 68.6884 12.9866 68.9977 12.7199C69.307 12.4532 69.5897 12.2292 69.8457 12.0479C70.923 12.4426 71.8404 13.0506 72.5977 13.8719C72.3737 14.0532 72.1284 14.2826 71.8617 14.5599C71.6057 14.8266 71.3017 15.1572 70.9497 15.5519C70.5977 15.9359 70.315 16.2346 70.1017 16.4479C70.251 16.7572 70.667 17.4612 71.3497 18.5599C72.0324 19.6586 72.5444 20.6399 72.8857 21.5039ZM79.6517 15.9519C79.705 15.1732 79.6357 14.6132 79.4437 14.2719C79.3904 14.2719 79.2997 14.2772 79.1717 14.2879C79.0437 14.2879 78.9477 14.2932 78.8837 14.3039C78.8304 14.3039 78.745 14.3092 78.6277 14.3199C78.521 14.3306 78.4197 14.3466 78.3237 14.3679C78.2384 14.3892 78.137 14.4159 78.0197 14.4479C77.9024 14.4799 77.7797 14.5226 77.6517 14.5759C77.4384 15.2906 77.3104 15.8452 77.2677 16.2399C78.1104 16.2719 78.905 16.1759 79.6517 15.9519ZM83.4117 17.9999C82.8677 18.0852 81.929 18.1812 80.5957 18.2879C79.2624 18.3839 78.0784 18.4479 77.0437 18.4799C77.0757 18.7679 77.1504 19.0132 77.2677 19.2159C77.577 19.4079 78.4464 19.5679 79.8757 19.6959C81.3157 19.8132 82.0944 19.8986 82.2117 19.9519C82.233 20.3466 82.201 20.8212 82.1157 21.3759C82.0304 21.9306 81.9184 22.2559 81.7797 22.3519C78.4624 22.3092 75.8224 21.9466 73.8597 21.2639C73.3797 20.6772 73.1984 19.3226 73.3157 17.1999C73.4437 15.0772 73.7797 13.6159 74.3237 12.8159C74.9637 12.4746 76.3397 12.1972 78.4517 11.9839C80.5744 11.7599 81.8597 11.7439 82.3077 11.9359C82.681 12.5546 82.9637 13.4559 83.1557 14.6399C83.3477 15.8239 83.433 16.9439 83.4117 17.9999ZM93.3973 12.9919C93.472 13.6212 93.4293 14.3466 93.2693 15.1679C92.8533 15.2212 91.9733 15.2852 90.6293 15.3599C90.448 16.1919 90.3893 18.3786 90.4533 21.9199C88.704 22.1866 87.4346 22.2932 86.6453 22.2399C86.5173 21.0346 86.4426 19.8986 86.4213 18.8319C86.4106 17.7652 86.4213 16.7039 86.4533 15.6479C85.9733 15.6372 85.68 15.6319 85.5733 15.6319C85.4666 15.6319 85.1733 15.6532 84.6933 15.6959C84.2133 15.7386 83.9306 15.7652 83.8453 15.7759C83.792 14.8692 83.8773 14.0372 84.1013 13.2799C84.3786 13.1626 85.1733 13.0719 86.4853 13.0079C86.4853 11.8559 86.5333 10.9439 86.6293 10.2719C87.5146 9.93056 88.832 9.7759 90.5813 9.8079C90.5813 10.8319 90.5706 11.8666 90.5493 12.9119C92.0746 12.8906 93.024 12.9172 93.3973 12.9919ZM100.075 15.2319C99.7339 15.1146 99.3285 15.0826 98.8592 15.1359C98.4005 15.1786 98.0165 15.2586 97.7072 15.3759C97.5579 16.7732 97.5579 18.0319 97.7072 19.1519C97.7285 19.1519 97.8245 19.1679 97.9952 19.1999C98.1765 19.2319 98.3099 19.2532 98.3952 19.2639C98.4912 19.2746 98.6299 19.2852 98.8112 19.2959C98.9925 19.3066 99.1365 19.3012 99.2432 19.2799C99.3605 19.2479 99.4885 19.1999 99.6272 19.1359C99.7659 19.0719 99.8779 18.9866 99.9632 18.8799C100.145 18.0479 100.182 16.8319 100.075 15.2319ZM103.803 13.8399C104.081 14.7999 104.123 15.9786 103.931 17.3759C103.75 18.7732 103.377 20.0959 102.811 21.3439C101.723 21.6959 99.9365 21.7972 97.4512 21.6479C97.4512 21.8932 97.4619 22.4052 97.4832 23.1839C97.5152 23.9626 97.5205 24.5279 97.4992 24.8799C96.0699 25.0399 94.9605 25.0879 94.1712 25.0239C94.0965 23.1466 94.0539 20.9279 94.0432 18.3679C94.0325 15.8079 94.0805 13.7706 94.1872 12.2559C94.6672 12.1172 95.8192 12.0266 97.6432 11.9839L97.6272 12.7839C99.2165 12.4426 100.534 12.2719 101.579 12.2719C102.454 12.7092 103.195 13.2319 103.803 13.8399ZM108.825 9.6799C108.719 10.8532 108.655 12.9706 108.633 16.0319C108.612 19.0826 108.649 20.9972 108.745 21.7759C108.073 21.9786 107.497 22.0959 107.017 22.1279C106.537 22.1599 105.961 22.1279 105.289 22.0319C105.183 20.9972 105.113 19.0079 105.081 16.0639C105.049 13.1092 105.103 11.0506 105.241 9.8879C106.852 9.54656 108.047 9.47723 108.825 9.6799ZM115.97 19.4079C115.959 18.9066 115.901 18.2346 115.794 17.3919C115.73 17.4132 115.623 17.4452 115.474 17.4879C115.335 17.5199 115.223 17.5466 115.138 17.5679C115.053 17.5892 114.941 17.6212 114.802 17.6639C114.663 17.7066 114.546 17.7439 114.45 17.7759C114.365 17.8079 114.269 17.8452 114.162 17.8879C114.066 17.9199 113.981 17.9572 113.906 17.9999C113.831 18.0426 113.773 18.0852 113.73 18.1279L113.714 18.5279C113.714 18.7946 113.725 19.0292 113.746 19.2319C113.778 19.4346 113.837 19.5626 113.922 19.6159C114.37 19.6586 115.053 19.5892 115.97 19.4079ZM119.602 21.9359C118.962 22.1279 117.853 22.2612 116.274 22.3359L116.21 21.7119C115.026 21.9146 113.714 22.0959 112.274 22.2559C111.965 22.1599 111.565 21.9892 111.074 21.7439C110.594 21.4986 110.194 21.2479 109.874 20.9919C109.778 20.5226 109.767 19.8026 109.842 18.8319C109.917 17.8612 110.018 17.1786 110.146 16.7839C110.594 16.5172 111.421 16.2292 112.626 15.9199C113.831 15.6106 114.818 15.4239 115.586 15.3599C115.618 15.1039 115.618 14.8906 115.586 14.7199C115.458 14.6772 115.25 14.6452 114.962 14.6239C114.674 14.6026 114.317 14.5919 113.89 14.5919C113.463 14.5812 113.101 14.5812 112.802 14.5919C112.503 14.5919 112.125 14.5972 111.666 14.6079C111.207 14.6186 110.957 14.6239 110.914 14.6239C110.893 14.1759 110.919 13.7332 110.994 13.2959C111.069 12.8479 111.175 12.5546 111.314 12.4159C112.466 12.2452 113.746 12.1706 115.154 12.1919C116.573 12.2026 117.735 12.3199 118.642 12.5439C119.047 13.1306 119.346 14.5172 119.538 16.7039C119.73 18.8799 119.751 20.6239 119.602 21.9359ZM128.728 20.1119C128.75 20.5066 128.712 20.9439 128.616 21.4239C128.531 21.9039 128.419 22.1919 128.28 22.2879C127.235 22.2772 126.371 22.2559 125.688 22.2239C125.016 22.1919 124.19 22.1119 123.208 21.9839C122.238 21.8452 121.406 21.6532 120.712 21.4079C120.232 20.8212 120.051 19.4719 120.168 17.3599C120.296 15.2372 120.632 13.7759 121.176 12.9759C121.827 12.6346 123.096 12.3572 124.984 12.1439C126.872 11.9199 128.04 11.9039 128.488 12.0959C128.595 12.9172 128.595 13.6212 128.488 14.2079C128.211 14.2292 127.859 14.2559 127.432 14.2879C127.016 14.3092 126.702 14.3306 126.488 14.3519C126.275 14.3626 126.014 14.3999 125.704 14.4639C125.406 14.5279 125.112 14.6186 124.824 14.7359C124.611 15.4292 124.467 16.2826 124.392 17.2959C124.318 18.3092 124.387 19.0772 124.6 19.5999C124.91 19.7919 125.646 19.9146 126.808 19.9679C127.971 20.0106 128.611 20.0586 128.728 20.1119ZM135.542 15.9519C135.595 15.1732 135.526 14.6132 135.334 14.2719C135.28 14.2719 135.19 14.2772 135.062 14.2879C134.934 14.2879 134.838 14.2932 134.774 14.3039C134.72 14.3039 134.635 14.3092 134.518 14.3199C134.411 14.3306 134.31 14.3466 134.214 14.3679C134.128 14.3892 134.027 14.4159 133.91 14.4479C133.792 14.4799 133.67 14.5226 133.542 14.5759C133.328 15.2906 133.2 15.8452 133.158 16.2399C134 16.2719 134.795 16.1759 135.542 15.9519ZM139.302 17.9999C138.758 18.0852 137.819 18.1812 136.486 18.2879C135.152 18.3839 133.968 18.4479 132.934 18.4799C132.966 18.7679 133.04 19.0132 133.158 19.2159C133.467 19.4079 134.336 19.5679 135.766 19.6959C137.206 19.8132 137.984 19.8986 138.102 19.9519C138.123 20.3466 138.091 20.8212 138.006 21.3759C137.92 21.9306 137.808 22.2559 137.67 22.3519C134.352 22.3092 131.712 21.9466 129.75 21.2639C129.27 20.6772 129.088 19.3226 129.206 17.1999C129.334 15.0772 129.67 13.6159 130.214 12.8159C130.854 12.4746 132.23 12.1972 134.342 11.9839C136.464 11.7599 137.75 11.7439 138.198 11.9359C138.571 12.5546 138.854 13.4559 139.046 14.6399C139.238 15.8239 139.323 16.9439 139.302 17.9999Z" fill="white"/>
<path d="M41.2087 22.0479L41.5296 22.5994L41.866 22.4037L41.8459 22.015L41.2087 22.0479ZM37.2087 22.2879L36.5714 22.3198L36.5992 22.8753L37.1533 22.9236L37.2087 22.2879ZM37.1127 20.6239L36.4753 20.6539L36.4757 20.6618L37.1127 20.6239ZM36.9847 18.1279L36.3476 18.1633L36.3476 18.1638L36.9847 18.1279ZM36.8887 16.8639L37.5022 16.6886L37.37 16.2258H36.8887V16.8639ZM36.3127 16.8639V16.2258H35.8807L35.7203 16.6269L36.3127 16.8639ZM35.4327 19.0079L34.8426 18.7652L34.8416 18.7676L35.4327 19.0079ZM34.1687 22.0479V22.686H34.5878L34.7543 22.3014L34.1687 22.0479ZM32.7287 22.0159L32.1674 22.3193L32.3158 22.594L32.6238 22.6453L32.7287 22.0159ZM32.0727 20.6399L31.4862 20.8912L32.0727 20.6399ZM31.5607 19.4079L30.9641 19.6342L30.9668 19.6412L31.5607 19.4079ZM31.0647 18.0639L30.4638 18.2785L30.465 18.282L31.0647 18.0639ZM30.7127 17.0879L31.3051 16.8509L31.1395 16.437L30.6939 16.4501L30.7127 17.0879ZM30.1687 17.1039L30.1499 16.4661L29.6669 16.4803L29.5497 16.9491L30.1687 17.1039ZM29.8807 22.3199L30.0125 22.9442L30.5077 22.8397L30.5186 22.3337L29.8807 22.3199ZM26.6007 22.3999L25.9628 22.4136L25.9746 22.9665L26.5236 23.0333L26.6007 22.3999ZM26.7447 15.8719L26.1074 15.841L26.1073 15.8434L26.7447 15.8719ZM27.0967 10.1439L26.889 9.54058L26.5025 9.67364L26.4618 10.0804L27.0967 10.1439ZM29.8967 9.6319L29.8359 8.99673L29.8354 8.99678L29.8967 9.6319ZM32.0407 9.5519L32.6505 9.36403L32.5519 9.04422L32.2328 8.94344L32.0407 9.5519ZM33.4327 13.7279L32.8429 13.9713L33.0057 14.366H33.4327V13.7279ZM34.0247 13.7279V14.366H34.4567L34.6171 13.9649L34.0247 13.7279ZM34.5207 12.4639L33.9295 12.2237L33.9264 12.2317L34.5207 12.4639ZM35.2887 10.5599L34.6963 10.3229V10.3229L35.2887 10.5599ZM35.7367 9.4239L35.5632 8.80988L35.2526 8.89765L35.1392 9.19985L35.7367 9.4239ZM38.1367 9.2159V9.854L38.1428 9.85394L38.1367 9.2159ZM40.7127 9.3599L41.3503 9.33537L41.3305 8.82206L40.8249 8.73176L40.7127 9.3599ZM40.8878 21.4964C40.7297 21.5884 40.376 21.6882 39.7305 21.727C39.1073 21.7644 38.2882 21.7415 37.2641 21.6522L37.1533 22.9236C38.2092 23.0156 39.0968 23.0434 39.8069 23.0008C40.4947 22.9596 41.101 22.8487 41.5296 22.5994L40.8878 21.4964ZM37.846 22.256C37.8351 22.039 37.8029 21.4808 37.7496 20.586L36.4757 20.6618C36.5292 21.559 36.5609 22.1102 36.5714 22.3198L37.846 22.256ZM37.7501 20.5939C37.7073 19.6856 37.6645 18.8516 37.6217 18.092L36.3476 18.1638C36.3902 18.9188 36.4327 19.7488 36.4753 20.6539L37.7501 20.5939ZM37.6218 18.0925C37.6004 17.7071 37.5814 17.4047 37.5649 17.1876C37.5567 17.0795 37.5488 16.9883 37.5411 16.9167C37.5357 16.8667 37.5253 16.7696 37.5022 16.6886L36.2752 17.0392C36.2627 16.9956 36.2643 16.9791 36.2723 17.0531C36.2779 17.1055 36.2847 17.1817 36.2924 17.2842C36.308 17.4884 36.3263 17.7807 36.3476 18.1633L37.6218 18.0925ZM36.8887 16.2258H36.3127V17.502H36.8887V16.2258ZM35.7203 16.6269C35.6791 16.7298 35.3877 17.4398 34.8426 18.7652L36.0228 19.2506C36.5657 17.9307 36.8609 17.2113 36.9051 17.1009L35.7203 16.6269ZM34.8416 18.7676C34.3089 20.0781 33.8896 21.0863 33.5831 21.7944L34.7543 22.3014C35.0664 21.5801 35.4899 20.5617 36.0238 19.2482L34.8416 18.7676ZM34.1687 21.4098C33.7545 21.4098 33.4319 21.4072 33.1989 21.402C33.0821 21.3994 32.9912 21.3962 32.9242 21.3927C32.849 21.3887 32.8267 21.3854 32.8336 21.3865L32.6238 22.6453C32.7424 22.6651 32.9452 22.6728 33.1705 22.6778C33.4174 22.6833 33.7508 22.686 34.1687 22.686V21.4098ZM33.29 21.7125C33.0879 21.3386 32.8775 20.8979 32.6592 20.3885L31.4862 20.8912C31.7159 21.4272 31.9428 21.9039 32.1674 22.3193L33.29 21.7125ZM32.6592 20.3885C32.4361 19.8681 32.2684 19.4643 32.1546 19.1746L30.9668 19.6412C31.0877 19.9488 31.2613 20.3664 31.4862 20.8912L32.6592 20.3885ZM32.1573 19.1816C32.0415 18.8764 31.8774 18.4317 31.6643 17.8458L30.465 18.282C30.6787 18.8694 30.8452 19.3207 30.9641 19.6342L32.1573 19.1816ZM31.6656 17.8493C31.4559 17.2622 31.3323 16.9189 31.3051 16.8509L30.1203 17.3249C30.12 17.3242 30.1219 17.3292 30.1275 17.344C30.1325 17.3573 30.1391 17.3753 30.1475 17.3983C30.1643 17.4442 30.1873 17.5074 30.2165 17.5884C30.2748 17.7501 30.3572 17.98 30.4638 18.2785L31.6656 17.8493ZM30.6939 16.4501L30.1499 16.4661L30.1874 17.7417L30.7314 17.7257L30.6939 16.4501ZM29.5497 16.9491C29.4681 17.2752 29.4108 17.902 29.3636 18.7567C29.315 19.6364 29.2748 20.8205 29.2428 22.3061L30.5186 22.3337C30.5505 20.8539 30.5904 19.686 30.6378 18.8271C30.6866 17.9431 30.7412 17.4446 30.7877 17.2587L29.5497 16.9491ZM29.7489 21.6956C28.8727 21.8806 27.8521 21.9095 26.6778 21.7665L26.5236 23.0333C27.8026 23.189 28.9687 23.1646 30.0125 22.9442L29.7489 21.6956ZM27.2386 22.3862C27.2071 20.9144 27.2543 18.7553 27.3821 15.9004L26.1073 15.8434C25.9791 18.7059 25.9303 20.8987 25.9628 22.4136L27.2386 22.3862ZM27.382 15.9028C27.5208 13.0416 27.6375 11.1485 27.7316 10.2074L26.4618 10.0804C26.3639 11.0593 26.2459 12.9849 26.1074 15.841L27.382 15.9028ZM27.3044 10.7472C27.8847 10.5474 28.7598 10.3826 29.958 10.267L29.8354 8.99678C28.6016 9.11583 27.61 9.29234 26.889 9.54058L27.3044 10.7472ZM29.9574 10.2671C30.5659 10.2089 31.0372 10.1742 31.3765 10.1615C31.5466 10.1552 31.6751 10.1547 31.7667 10.1584C31.8746 10.1628 31.8844 10.1717 31.8485 10.1603L32.2328 8.94344C32.0956 8.90011 31.9401 8.8883 31.8186 8.88335C31.6809 8.87775 31.5161 8.87928 31.3289 8.88627C30.9535 8.90028 30.4542 8.93759 29.8359 8.99673L29.9574 10.2671ZM31.4309 9.73976C32.08 11.8467 32.5524 13.2674 32.8429 13.9713L34.0225 13.4845C33.7584 12.8444 33.3027 11.481 32.6505 9.36403L31.4309 9.73976ZM33.4327 14.366H34.0247V13.0898H33.4327V14.366ZM34.6171 13.9649C34.6823 13.8019 34.8487 13.3777 35.115 12.6961L33.9264 12.2317C33.6593 12.9154 33.4951 13.3339 33.4323 13.4909L34.6171 13.9649ZM35.1118 12.7041C35.3895 12.0205 35.646 11.3848 35.8811 10.7969L34.6963 10.3229C34.4621 10.9084 34.2065 11.542 33.9295 12.2237L35.1118 12.7041ZM35.8811 10.7969C36.1151 10.212 36.2672 9.82639 36.3341 9.64794L35.1392 9.19985C35.0782 9.36273 34.9316 9.7345 34.6963 10.3229L35.8811 10.7969ZM35.9102 10.0379C36.3099 9.92496 37.0339 9.85397 38.1367 9.85397V8.57783C37.0208 8.57783 36.1448 8.6455 35.5632 8.80988L35.9102 10.0379ZM38.1428 9.85394C39.2504 9.84339 40.0621 9.89188 40.6005 9.98803L40.8249 8.73176C40.1686 8.61458 39.263 8.56707 38.1306 8.57786L38.1428 9.85394ZM40.0751 9.38442C40.107 10.2154 40.1763 12.1237 40.283 15.1107L41.5584 15.0651C41.4517 12.0787 41.3823 10.1684 41.3503 9.33537L40.0751 9.38442ZM40.283 15.1107C40.3897 18.0985 40.4859 20.4224 40.5715 22.0808L41.8459 22.015C41.7608 20.3667 41.665 18.0506 41.5584 15.0651L40.283 15.1107ZM48.0932 19.4079L48.2169 20.0339L48.7425 19.93L48.7311 19.3943L48.0932 19.4079ZM47.9172 17.3919L48.5502 17.3118L48.4526 16.5408L47.7154 16.7866L47.9172 17.3919ZM47.5972 17.4879L47.7407 18.1096L47.7567 18.1059L47.7725 18.1014L47.5972 17.4879ZM46.9252 17.6639L46.7375 17.054H46.7375L46.9252 17.6639ZM46.5732 17.7759L46.3714 17.1706L46.3602 17.1743L46.3491 17.1785L46.5732 17.7759ZM46.2852 17.8879L46.487 18.4932L46.5048 18.4873L46.5222 18.4803L46.2852 17.8879ZM46.0292 17.9999L46.3458 18.5539V18.5539L46.0292 17.9999ZM45.8532 18.1279L45.402 17.6767L45.2256 17.8531L45.2156 18.1024L45.8532 18.1279ZM45.8372 18.5279L45.1996 18.5024L45.1991 18.5151V18.5279H45.8372ZM45.8692 19.2319L45.2346 19.2987L45.2364 19.3151L45.2389 19.3314L45.8692 19.2319ZM46.0452 19.6159L45.707 20.157L45.8347 20.2368L45.9847 20.2511L46.0452 19.6159ZM51.7252 21.9359L51.9085 22.5471L52.3116 22.4261L52.3592 22.0081L51.7252 21.9359ZM48.3972 22.3359L47.7624 22.401L47.8241 23.0018L48.4273 22.9733L48.3972 22.3359ZM48.3332 21.7119L48.9679 21.6468L48.8983 20.9678L48.2255 21.083L48.3332 21.7119ZM44.3972 22.2559L44.2081 22.8653L44.3353 22.9048L44.4676 22.8901L44.3972 22.2559ZM43.1972 21.7439L42.9068 22.3121L42.9118 22.3146L43.1972 21.7439ZM41.9972 20.9919L41.3721 21.1198L41.4183 21.3459L41.5986 21.4901L41.9972 20.9919ZM41.9652 18.8319L42.6014 18.8808L41.9652 18.8319ZM42.2692 16.7839L41.9428 16.2356L41.7364 16.3585L41.6622 16.587L42.2692 16.7839ZM44.7492 15.9199L44.5906 15.3019L44.7492 15.9199ZM47.7092 15.3599L47.7622 15.9958L48.2781 15.9528L48.3423 15.439L47.7092 15.3599ZM47.7092 14.7199L48.3363 14.6023L48.2671 14.2333L47.911 14.1146L47.7092 14.7199ZM47.0852 14.6239L47.0381 15.2602L47.0852 14.6239ZM46.0132 14.5919L45.9972 15.2298L46.0052 15.23H46.0132V14.5919ZM44.9252 14.5919V15.23H44.9366L44.948 15.2296L44.9252 14.5919ZM43.7892 14.6079L43.804 15.2458L43.7892 14.6079ZM43.0372 14.6239L42.3998 14.6542L42.4288 15.262H43.0372V14.6239ZM43.1172 13.2959L43.7462 13.4033L43.7466 13.4008L43.1172 13.2959ZM43.4372 12.4159L43.3437 11.7847L43.1351 11.8156L42.986 11.9647L43.4372 12.4159ZM47.2772 12.1919L47.2675 12.8299L47.2724 12.8299L47.2772 12.1919ZM50.7652 12.5439L51.2901 12.1812L51.1528 11.9824L50.9182 11.9245L50.7652 12.5439ZM51.6612 16.7039L51.0256 16.7597L51.0256 16.76L51.6612 16.7039ZM48.7311 19.3943C48.7198 18.8607 48.658 18.1637 48.5502 17.3118L47.2842 17.472C47.3897 18.3055 47.4453 18.9524 47.4553 19.4215L48.7311 19.3943ZM47.7154 16.7866C47.6657 16.8031 47.5707 16.8319 47.4219 16.8744L47.7725 18.1014C47.9223 18.0586 48.0406 18.0233 48.119 17.9972L47.7154 16.7866ZM47.4537 16.8662C47.3133 16.8986 47.1971 16.9262 47.1064 16.9489L47.4159 18.1869C47.496 18.1669 47.6038 18.1412 47.7407 18.1096L47.4537 16.8662ZM47.1064 16.9489C47.0053 16.9742 46.8811 17.0099 46.7375 17.054L47.1128 18.2738C47.2466 18.2326 47.3464 18.2043 47.4159 18.1869L47.1064 16.9489ZM46.7375 17.054C46.596 17.0976 46.4736 17.1365 46.3714 17.1706L46.775 18.3812C46.8647 18.3513 46.9771 18.3155 47.1128 18.2738L46.7375 17.054ZM46.3491 17.1785C46.2585 17.2124 46.1581 17.2515 46.0482 17.2955L46.5222 18.4803C46.6256 18.439 46.7172 18.4034 46.7972 18.3733L46.3491 17.1785ZM46.0834 17.2826C45.9543 17.3256 45.8295 17.3791 45.7126 17.4459L46.3458 18.5539C46.3782 18.5353 46.424 18.5142 46.487 18.4932L46.0834 17.2826ZM45.7126 17.4459C45.6077 17.5058 45.4978 17.5809 45.402 17.6767L46.3044 18.5791C46.298 18.5855 46.2969 18.5854 46.3045 18.5799C46.3119 18.5745 46.3251 18.5657 46.3458 18.5539L45.7126 17.4459ZM45.2156 18.1024L45.1996 18.5024L46.4747 18.5534L46.4907 18.1534L45.2156 18.1024ZM45.1991 18.5279C45.1991 18.8105 45.2104 19.0683 45.2346 19.2987L46.5037 19.1651C46.4853 18.9902 46.4753 18.7786 46.4753 18.5279H45.1991ZM45.2389 19.3314C45.2603 19.4665 45.2953 19.6108 45.3571 19.7458C45.4185 19.8796 45.5241 20.0427 45.707 20.157L46.3834 19.0748C46.4809 19.1358 46.5146 19.2082 46.5172 19.214C46.5196 19.2193 46.5176 19.2161 46.5135 19.2012C46.5095 19.1865 46.5045 19.1641 46.4994 19.1324L45.2389 19.3314ZM45.9847 20.2511C46.5303 20.3031 47.2896 20.2172 48.2169 20.0339L47.9695 18.7819C47.0621 18.9613 46.4561 19.0141 46.1057 18.9807L45.9847 20.2511ZM51.5418 21.3247C50.9842 21.492 49.945 21.6239 48.367 21.6985L48.4273 22.9733C50.0067 22.8986 51.1862 22.7638 51.9085 22.5471L51.5418 21.3247ZM49.0319 22.2708L48.9679 21.6468L47.6984 21.777L47.7624 22.401L49.0319 22.2708ZM48.2255 21.083C47.0561 21.2832 45.7567 21.4628 44.3267 21.6217L44.4676 22.8901C45.9177 22.729 47.2423 22.546 48.4408 22.3408L48.2255 21.083ZM44.5863 21.6465C44.325 21.5654 43.9603 21.4121 43.4825 21.1732L42.9118 22.3146C43.4154 22.5664 43.8507 22.7544 44.2081 22.8653L44.5863 21.6465ZM43.4876 21.1757C43.0347 20.9443 42.6736 20.7159 42.3958 20.4936L41.5986 21.4901C41.9608 21.7799 42.3997 22.0529 42.9068 22.3121L43.4876 21.1757ZM42.6223 20.864C42.545 20.4861 42.5276 19.8401 42.6014 18.8808L41.329 18.783C41.2535 19.765 41.2574 20.559 41.3721 21.1198L42.6223 20.864ZM42.6014 18.8808C42.6759 17.9114 42.7738 17.2963 42.8761 16.9807L41.6622 16.587C41.5086 17.0608 41.4038 17.8111 41.329 18.783L42.6014 18.8808ZM42.5955 17.3322C42.9567 17.1172 43.7025 16.8473 44.9078 16.5379L44.5906 15.3019C43.3852 15.6112 42.4777 15.9172 41.9428 16.2356L42.5955 17.3322ZM44.9078 16.5379C46.0968 16.2328 47.0447 16.0556 47.7622 15.9958L47.6562 14.724C46.8377 14.7922 45.8123 14.9883 44.5906 15.3019L44.9078 16.5379ZM48.3423 15.439C48.3789 15.1461 48.3849 14.8611 48.3363 14.6023L47.082 14.8375C47.0975 14.92 47.1034 15.0616 47.076 15.2808L48.3423 15.439ZM47.911 14.1146C47.7028 14.0452 47.4273 14.0094 47.1323 13.9876L47.0381 15.2602C47.3191 15.281 47.4596 15.3093 47.5074 15.3252L47.911 14.1146ZM47.1323 13.9876C46.8232 13.9647 46.4489 13.9538 46.0132 13.9538V15.23C46.4308 15.23 46.7712 15.2405 47.0381 15.2602L47.1323 13.9876ZM46.0291 13.954C45.5945 13.9432 45.2181 13.943 44.9024 13.9542L44.948 15.2296C45.2296 15.2195 45.5785 15.2193 45.9972 15.2298L46.0291 13.954ZM44.9252 13.9538C44.6197 13.9538 44.2357 13.9593 43.7744 13.97L43.804 15.2458C44.2601 15.2352 44.6333 15.23 44.9252 15.23V13.9538ZM43.7744 13.97C43.5452 13.9753 43.3683 13.9793 43.2436 13.982C43.1812 13.9833 43.1323 13.9843 43.0966 13.9849C43.0787 13.9853 43.0646 13.9855 43.054 13.9856C43.0486 13.9857 43.0445 13.9858 43.0414 13.9858C43.0381 13.9858 43.0369 13.9858 43.0372 13.9858V15.262C43.0896 15.262 43.352 15.2563 43.804 15.2458L43.7744 13.97ZM43.6745 14.5935C43.6554 14.1911 43.6793 13.7946 43.7462 13.4033L42.4882 13.1885C42.4057 13.6718 42.3763 14.1607 42.3998 14.6542L43.6745 14.5935ZM43.7466 13.4008C43.7801 13.1996 43.8174 13.0555 43.8528 12.958C43.8911 12.8528 43.9126 12.8429 43.8884 12.8671L42.986 11.9647C42.8231 12.1276 42.7219 12.3337 42.6535 12.5218C42.5823 12.7177 42.5289 12.9442 42.4878 13.191L43.7466 13.4008ZM43.5307 13.0471C44.6424 12.8824 45.8872 12.809 47.2675 12.8299L47.2869 11.5539C45.8512 11.5321 44.536 11.6081 43.3437 11.7847L43.5307 13.0471ZM47.2724 12.8299C48.664 12.8404 49.7721 12.9558 50.6121 13.1633L50.9182 11.9245C49.9449 11.684 48.7277 11.5647 47.282 11.5538L47.2724 12.8299ZM50.2402 12.9066C50.3683 13.0919 50.5238 13.4819 50.6694 14.1582C50.811 14.8157 50.9308 15.6802 51.0256 16.7597L52.2968 16.6481C52.1996 15.541 52.074 14.6188 51.917 13.8895C51.764 13.1792 51.5674 12.5825 51.2901 12.1812L50.2402 12.9066ZM51.0256 16.76C51.2159 18.9171 51.2336 20.6129 51.0912 21.8637L52.3592 22.0081C52.5155 20.6349 52.4905 18.8427 52.2968 16.6478L51.0256 16.76ZM58.6913 16.6879L59.1359 17.1456L59.301 16.9852L59.3257 16.7565L58.6913 16.6879ZM58.4673 14.6239L59.0935 14.5014L59.0235 14.1436L58.6797 14.0222L58.4673 14.6239ZM57.3793 14.6399L57.2925 14.0078L57.2908 14.008L57.3793 14.6399ZM56.2913 14.9439L55.9374 14.413L55.6829 14.5826L55.6558 14.8873L56.2913 14.9439ZM56.3073 17.2799L55.6844 17.4183L55.7985 17.9316L56.3241 17.9177L56.3073 17.2799ZM62.5793 21.7119L62.8832 22.2729L63.4044 21.9906L63.1612 21.4501L62.5793 21.7119ZM61.0273 22.1279L60.9154 21.4996L60.9055 21.5016L61.0273 22.1279ZM59.0593 22.3839L58.5872 22.8131L58.7872 23.0331L59.0843 23.0215L59.0593 22.3839ZM58.2433 21.3119L57.7209 21.6785L57.7285 21.6888L58.2433 21.3119ZM57.2193 19.9359L57.7109 19.5291L57.4489 19.2125L57.0523 19.3201L57.2193 19.9359ZM56.2753 20.1919L56.1083 19.5761L55.6751 19.6936L55.6393 20.141L56.2753 20.1919ZM56.2593 21.2319L55.6214 21.2478L55.6215 21.2483L56.2593 21.2319ZM56.2433 22.1599L56.3997 22.7785L56.8313 22.6694L56.8779 22.2267L56.2433 22.1599ZM52.8193 22.3519L52.1837 22.408L52.2306 22.9399L52.7625 22.9874L52.8193 22.3519ZM52.6433 16.9119L52.0052 16.9146L52.0053 16.9173L52.6433 16.9119ZM52.8513 11.9199L52.6734 11.3071L52.2972 11.4164L52.2244 11.8013L52.8513 11.9199ZM54.3713 11.6799L54.3118 11.0446L54.3713 11.6799ZM56.1953 11.6639H56.8334V11.0865L56.2588 11.029L56.1953 11.6639ZM56.1953 12.4319H55.5572V13.2418L56.3447 13.0522L56.1953 12.4319ZM58.4673 12.0959L58.5251 12.7314L58.5322 12.7307L58.4673 12.0959ZM60.7393 11.9839L61.1379 11.4856L60.9734 11.3541L60.7629 11.3463L60.7393 11.9839ZM62.0513 14.0959L61.4559 14.3254L62.0513 14.0959ZM62.5153 16.9119L62.9943 17.3334L63.1298 17.1795L63.1502 16.9754L62.5153 16.9119ZM60.8353 18.5759L60.4124 18.0981L59.9995 18.4636L60.3013 18.9251L60.8353 18.5759ZM61.7633 20.1919L61.2034 20.498L61.2066 20.5037L61.7633 20.1919ZM59.3257 16.7565C59.38 16.2542 59.2847 15.4786 59.0935 14.5014L57.8411 14.7464C58.0339 15.7318 58.088 16.3322 58.0569 16.6193L59.3257 16.7565ZM58.6797 14.0222C58.48 13.9517 58.2521 13.9389 58.0499 13.9419C57.8332 13.9451 57.5786 13.9685 57.2925 14.0078L57.4661 15.272C57.724 15.2366 57.9228 15.22 58.0687 15.2179C58.2292 15.2155 58.2733 15.2321 58.255 15.2256L58.6797 14.0222ZM57.2908 14.008C56.7569 14.0827 56.262 14.1966 55.9374 14.413L56.6452 15.4748C56.7046 15.4352 56.9351 15.3464 57.4678 15.2718L57.2908 14.008ZM55.6558 14.8873C55.5592 15.9708 55.5547 16.8347 55.6844 17.4183L56.9302 17.1415C56.8465 16.7651 56.8314 16.0716 56.9269 15.0005L55.6558 14.8873ZM56.3241 17.9177C56.9583 17.9011 57.5109 17.8409 57.9691 17.7272C58.4189 17.6155 58.8346 17.4383 59.1359 17.1456L58.2467 16.2302C58.1747 16.3002 58.0064 16.403 57.6615 16.4886C57.325 16.5722 56.8723 16.6267 56.2905 16.642L56.3241 17.9177ZM62.2754 21.1508C62.1228 21.2335 61.7046 21.3592 60.9154 21.4997L61.1392 22.7561C61.9074 22.6193 62.5238 22.4676 62.8832 22.2729L62.2754 21.1508ZM60.9055 21.5016C60.1569 21.6471 59.5351 21.7267 59.0343 21.7463L59.0843 23.0215C59.6715 22.9985 60.3617 22.9073 61.1491 22.7542L60.9055 21.5016ZM59.5314 21.9547C59.4532 21.8686 59.205 21.5453 58.7581 20.935L57.7285 21.6888C58.1563 22.2732 58.4521 22.6645 58.5872 22.8131L59.5314 21.9547ZM58.7656 20.9454C58.3359 20.333 57.9831 19.858 57.7109 19.5291L56.7277 20.3427C56.9675 20.6324 57.2974 21.0748 57.721 21.6784L58.7656 20.9454ZM57.0523 19.3201L56.1083 19.5761L56.4423 20.8077L57.3863 20.5517L57.0523 19.3201ZM55.6393 20.141C55.6154 20.439 55.6105 20.8103 55.6214 21.2478L56.8972 21.216C56.8868 20.8002 56.8925 20.4782 56.9113 20.2428L55.6393 20.141ZM55.6215 21.2483C55.632 21.6588 55.6255 21.9338 55.6087 22.0931L56.8779 22.2267C56.9038 21.9807 56.908 21.637 56.8972 21.2155L55.6215 21.2483ZM56.087 21.5413C55.204 21.7645 54.1379 21.8292 52.8761 21.7164L52.7625 22.9874C54.1247 23.1093 55.3413 23.046 56.3997 22.7785L56.087 21.5413ZM53.4549 22.2958C53.3614 21.2355 53.3027 19.4445 53.2814 16.9065L52.0053 16.9173C52.0266 19.4567 52.0853 21.2923 52.1837 22.408L53.4549 22.2958ZM53.2814 16.9092C53.2707 14.3577 53.3423 12.7569 53.4783 12.0385L52.2244 11.8013C52.0616 12.6615 51.9946 14.3887 52.0052 16.9146L53.2814 16.9092ZM53.0292 12.5327C53.2997 12.4541 53.7571 12.3783 54.4309 12.3152L54.3118 11.0446C53.6202 11.1094 53.0642 11.1937 52.6734 11.3071L53.0292 12.5327ZM54.4309 12.3152C55.0833 12.254 55.6489 12.2505 56.1318 12.2988L56.2588 11.029C55.6751 10.9706 55.0246 10.9778 54.3118 11.0446L54.4309 12.3152ZM55.5572 11.6639V12.4319H56.8334V11.6639H55.5572ZM56.3447 13.0522C56.8783 12.9238 57.6015 12.8153 58.5251 12.7313L58.4095 11.4604C57.4558 11.5472 56.6643 11.6627 56.046 11.8115L56.3447 13.0522ZM58.5322 12.7307C59.4575 12.636 60.1818 12.6018 60.7157 12.6215L60.7629 11.3463C60.1448 11.3234 59.3545 11.3638 58.4024 11.4611L58.5322 12.7307ZM60.3407 12.4821C60.6875 12.7596 61.0744 13.3355 61.4559 14.3254L62.6467 13.8664C62.2389 12.8083 61.7511 11.9762 61.1379 11.4856L60.3407 12.4821ZM61.4559 14.3254C61.8244 15.2814 61.9534 16.1183 61.8804 16.8484L63.1502 16.9754C63.2479 15.9988 63.0675 14.9584 62.6467 13.8664L61.4559 14.3254ZM62.0363 16.4904C61.5878 17 61.0474 17.536 60.4124 18.0981L61.2582 19.0537C61.9246 18.4638 62.5041 17.8905 62.9943 17.3334L62.0363 16.4904ZM60.3013 18.9251C60.4669 19.1783 60.7649 19.6957 61.2034 20.498L62.3232 19.8858C61.8871 19.0881 61.5664 18.5281 61.3694 18.2267L60.3013 18.9251ZM61.2066 20.5037C61.6595 21.3125 61.9155 21.7916 61.9974 21.9737L63.1612 21.4501C63.0511 21.2055 62.7631 20.6713 62.32 19.8801L61.2066 20.5037ZM72.8857 21.5039L73.12 22.0974L73.7136 21.8631L73.4791 21.2695L72.8857 21.5039ZM71.0937 21.9999L71.2285 22.6236L71.0937 21.9999ZM69.3817 22.2719L68.8126 22.5605L68.9959 22.922L69.401 22.9097L69.3817 22.2719ZM67.2857 18.7039L67.8268 18.3657L67.6393 18.0658H67.2857V18.7039ZM66.7737 18.7039V18.0658H66.1208L66.1358 18.7185L66.7737 18.7039ZM66.7417 21.9839L67.027 22.5546L67.3537 22.3913L67.3783 22.0269L66.7417 21.9839ZM65.0297 22.2239L64.9997 21.5865L64.9922 21.5869L65.0297 22.2239ZM63.2857 22.2079L62.6506 22.2699L62.6943 22.7178L63.1309 22.8269L63.2857 22.2079ZM63.3497 9.8719L63.2311 9.24495L62.7288 9.33997L62.712 9.85088L63.3497 9.8719ZM65.1737 9.7119L65.1985 10.3495L65.2064 10.3491L65.1737 9.7119ZM66.7897 9.6799L67.4267 9.71737L67.4631 9.09798L66.845 9.04423L66.7897 9.6799ZM66.7577 12.1599H66.1196L66.1196 12.1652L66.7577 12.1599ZM66.8537 14.7519L66.2201 14.8273L66.3631 16.029L67.2739 15.2321L66.8537 14.7519ZM67.4617 14.1599L67.9129 14.6111L67.4617 14.1599ZM68.2297 13.4079L68.6678 13.8718L68.6685 13.8711L68.2297 13.4079ZM68.9977 12.7199L68.5811 12.2366V12.2366L68.9977 12.7199ZM69.8457 12.0479L70.0652 11.4488L69.7504 11.3335L69.4769 11.5272L69.8457 12.0479ZM72.5977 13.8719L72.9992 14.3678L73.5281 13.9397L73.0668 13.4394L72.5977 13.8719ZM71.8617 14.5599L71.4017 14.1176L71.4014 14.118L71.8617 14.5599ZM70.9497 15.5519L71.4201 15.9831L71.4259 15.9766L70.9497 15.5519ZM70.1017 16.4479L69.6505 15.9967L69.33 16.3172L69.5271 16.7253L70.1017 16.4479ZM71.3497 18.5599L70.8077 18.8967L71.3497 18.5599ZM72.6514 20.9104C72.2948 21.0511 71.7377 21.2078 70.9588 21.3762L71.2285 22.6236C72.0284 22.4506 72.6659 22.2766 73.12 22.0974L72.6514 20.9104ZM70.9588 21.3762C70.1716 21.5465 69.6508 21.6254 69.3624 21.6341L69.401 22.9097C69.8165 22.8971 70.4371 22.7947 71.2285 22.6236L70.9588 21.3762ZM69.9508 21.9833C69.5528 21.1985 68.8409 19.9884 67.8268 18.3657L66.7446 19.0421C67.7571 20.6621 68.4425 21.8306 68.8126 22.5605L69.9508 21.9833ZM67.2857 18.0658H66.7737V19.342H67.2857V18.0658ZM66.1358 18.7185C66.1676 20.1088 66.1565 21.1799 66.1051 21.9409L67.3783 22.0269C67.4336 21.2092 67.4438 20.0937 67.4116 18.6893L66.1358 18.7185ZM66.4563 21.4132C66.4573 21.4127 66.4286 21.4261 66.3508 21.4452C66.2773 21.4632 66.178 21.4819 66.0491 21.5C65.7909 21.5362 65.4432 21.5657 64.9997 21.5865L65.0597 22.8613C65.5229 22.8395 65.9138 22.8076 66.2263 22.7638C66.5181 22.7229 66.8095 22.6634 67.027 22.5546L66.4563 21.4132ZM64.9922 21.5869C64.5463 21.6132 64.1901 21.6243 63.9195 21.6219C63.6339 21.6192 63.4897 21.6012 63.4404 21.5889L63.1309 22.8269C63.3377 22.8786 63.6122 22.8952 63.9078 22.8979C64.2186 22.9008 64.6064 22.888 65.0672 22.8609L64.9922 21.5869ZM63.9207 22.1459C63.755 20.4468 63.7736 16.3808 63.9874 9.89291L62.712 9.85088C62.4991 16.3123 62.4751 20.4703 62.6506 22.2699L63.9207 22.1459ZM63.4683 10.4988C63.8143 10.4334 64.3832 10.3812 65.1985 10.3495L65.1488 9.07431C64.3215 9.10655 63.6744 9.16108 63.2311 9.24495L63.4683 10.4988ZM65.2064 10.3491C66.0497 10.3059 66.5416 10.2988 66.7344 10.3156L66.845 9.04423C66.5472 9.01833 65.9617 9.03258 65.141 9.07466L65.2064 10.3491ZM66.1527 9.64243C66.1301 10.0276 66.1196 10.8747 66.1196 12.1599H67.3958C67.3958 10.8638 67.4066 10.0575 67.4267 9.71737L66.1527 9.64243ZM66.1196 12.1652C66.1303 13.4408 66.162 14.3391 66.2201 14.8273L67.4873 14.6765C67.4387 14.2687 67.4064 13.439 67.3957 12.1546L66.1196 12.1652ZM67.2739 15.2321C67.3788 15.1403 67.5985 14.9255 67.9129 14.6111L67.0105 13.7087C66.6849 14.0343 66.4992 14.2142 66.4335 14.2717L67.2739 15.2321ZM67.9129 14.6111C68.2311 14.2928 68.4822 14.047 68.6678 13.8718L67.7916 12.944C67.5931 13.1314 67.3322 13.387 67.0105 13.7087L67.9129 14.6111ZM68.6685 13.8711C68.8615 13.6883 69.1094 13.466 69.4143 13.2032L68.5811 12.2366C68.2673 12.5071 68.0032 12.7435 67.7909 12.9447L68.6685 13.8711ZM69.4143 13.2032C69.7126 12.946 69.9791 12.7353 70.2145 12.5686L69.4769 11.5272C69.2003 11.7231 68.9014 11.9604 68.5811 12.2366L69.4143 13.2032ZM69.6262 12.647C70.6109 13.0078 71.4419 13.5597 72.1286 14.3044L73.0668 13.4394C72.2388 12.5414 71.2351 11.8774 70.0652 11.4488L69.6262 12.647ZM72.1962 13.376C71.9461 13.5784 71.6811 13.8271 71.4017 14.1176L72.3216 15.0021C72.5756 14.738 72.8012 14.5281 72.9992 14.3678L72.1962 13.376ZM71.4014 14.118C71.1382 14.3921 70.8287 14.7289 70.4735 15.1272L71.4259 15.9766C71.7747 15.5855 72.0731 15.261 72.322 15.0018L71.4014 14.118ZM70.4793 15.1207C70.1298 15.502 69.8543 15.7929 69.6505 15.9967L70.5529 16.8991C70.7758 16.6762 71.0656 16.3698 71.42 15.9831L70.4793 15.1207ZM69.5271 16.7253C69.6943 17.0718 70.131 17.8076 70.8077 18.8967L71.8917 18.2231C71.203 17.1149 70.8077 16.4427 70.6763 16.1705L69.5271 16.7253ZM70.8077 18.8967C71.4774 19.9744 71.9692 20.9207 72.2922 21.7383L73.4791 21.2695C73.1195 20.3591 72.5873 19.3427 71.8917 18.2231L70.8077 18.8967ZM79.6517 15.9519L79.835 16.5631L80.2581 16.4361L80.2883 15.9955L79.6517 15.9519ZM79.4437 14.2719L79.9998 13.9591L79.8169 13.6338H79.4437V14.2719ZM79.1717 14.2879V14.926H79.1982L79.2247 14.9238L79.1717 14.2879ZM78.8837 14.3039V14.942H78.9365L78.9886 14.9333L78.8837 14.3039ZM78.6277 14.3199L78.5699 13.6844L78.5642 13.685L78.6277 14.3199ZM78.3237 14.3679L78.1853 13.745L78.1771 13.7468L78.1689 13.7489L78.3237 14.3679ZM78.0197 14.4479L77.8518 13.8323L77.8518 13.8323L78.0197 14.4479ZM77.6517 14.5759L77.4063 13.9869L77.1269 14.1033L77.0403 14.3934L77.6517 14.5759ZM77.2677 16.2399L76.6333 16.1713L76.5598 16.8515L77.2435 16.8775L77.2677 16.2399ZM83.4117 17.9999L83.5106 18.6303L84.0388 18.5474L84.0496 18.0128L83.4117 17.9999ZM80.5957 18.2879L80.6415 18.9243L80.6466 18.9239L80.5957 18.2879ZM77.0437 18.4799L77.024 17.8421L76.3332 17.8635L76.4095 18.5504L77.0437 18.4799ZM77.2677 19.2159L76.7155 19.5356L76.7955 19.6738L76.9312 19.758L77.2677 19.2159ZM79.8757 19.6959L79.8188 20.3314L79.8239 20.3319L79.8757 19.6959ZM82.2117 19.9519L82.8488 19.9175L82.8279 19.5311L82.4757 19.371L82.2117 19.9519ZM82.1157 21.3759L82.7463 21.4729L82.1157 21.3759ZM81.7797 22.3519L81.7715 22.9899L81.9753 22.9925L82.1429 22.8765L81.7797 22.3519ZM73.8597 21.2639L73.3658 21.6679L73.4799 21.8074L73.6501 21.8666L73.8597 21.2639ZM73.3157 17.1999L72.6788 17.1615L72.6786 17.1647L73.3157 17.1999ZM74.3237 12.8159L74.0234 12.2529L73.8845 12.327L73.796 12.4571L74.3237 12.8159ZM78.4517 11.9839L78.5158 12.6187L78.5186 12.6184L78.4517 11.9839ZM82.3077 11.9359L82.854 11.6062L82.7479 11.4303L82.559 11.3494L82.3077 11.9359ZM83.1557 14.6399L82.5258 14.742L83.1557 14.6399ZM80.2883 15.9955C80.3431 15.1946 80.2886 14.4726 79.9998 13.9591L78.8876 14.5847C78.9827 14.7539 79.0669 15.1519 79.0151 15.9083L80.2883 15.9955ZM79.4437 13.6338C79.3611 13.6338 79.2467 13.6414 79.1187 13.652L79.2247 14.9238C79.3526 14.9131 79.4196 14.91 79.4437 14.91V13.6338ZM79.1717 13.6498C79.0354 13.6498 78.8965 13.6549 78.7788 13.6745L78.9886 14.9333C78.9881 14.9334 78.9919 14.9327 79.0012 14.9318C79.0102 14.9309 79.0227 14.9299 79.0391 14.929C79.0722 14.9271 79.1159 14.926 79.1717 14.926V13.6498ZM78.8837 13.6658C78.7993 13.6658 78.6892 13.6736 78.5699 13.6844L78.6855 14.9553C78.8008 14.9449 78.8615 14.942 78.8837 14.942V13.6658ZM78.5642 13.685C78.4346 13.698 78.3081 13.7177 78.1853 13.745L78.4621 14.9908C78.5313 14.9754 78.6075 14.9632 78.6912 14.9548L78.5642 13.685ZM78.1689 13.7489C78.0779 13.7716 77.972 13.7995 77.8518 13.8323L78.1876 15.0635C78.3021 15.0323 78.3988 15.0068 78.4784 14.9869L78.1689 13.7489ZM77.8518 13.8323C77.7047 13.8724 77.5561 13.9245 77.4063 13.9869L77.8971 15.1649C78.0033 15.1206 78.1 15.0874 78.1876 15.0635L77.8518 13.8323ZM77.0403 14.3934C76.8237 15.1189 76.6823 15.718 76.6333 16.1713L77.9021 16.3085C77.9384 15.9725 78.053 15.4622 78.2631 14.7584L77.0403 14.3934ZM77.2435 16.8775C78.1506 16.912 79.0158 16.8088 79.835 16.5631L79.4683 15.3407C78.7942 15.543 78.0701 15.6318 77.2919 15.6023L77.2435 16.8775ZM83.3128 17.3695C82.7952 17.4507 81.8783 17.5452 80.5448 17.6519L80.6466 18.9239C81.9798 18.8173 82.9401 18.7197 83.5106 18.6303L83.3128 17.3695ZM80.5499 17.6515C79.2229 17.747 78.0478 17.8105 77.024 17.8421L77.0634 19.1177C78.1089 19.0853 79.3018 19.0208 80.6415 18.9243L80.5499 17.6515ZM76.4095 18.5504C76.449 18.9059 76.5447 19.2405 76.7155 19.5356L77.8199 18.8962C77.756 18.7859 77.7023 18.6299 77.6779 18.4094L76.4095 18.5504ZM76.9312 19.758C77.1993 19.9244 77.6039 20.0279 78.0362 20.1074C78.4984 20.1925 79.0949 20.2666 79.8188 20.3314L79.9326 19.0604C79.2271 18.9972 78.6743 18.9273 78.2672 18.8524C78.0636 18.8149 77.9053 18.7778 77.7873 18.7425C77.7287 18.725 77.6842 18.7092 77.6517 18.6959C77.6357 18.6894 77.6239 18.6839 77.6156 18.6798C77.6072 18.6757 77.6038 18.6735 77.6042 18.6738L76.9312 19.758ZM79.8239 20.3319C80.542 20.3904 81.0897 20.4405 81.4702 20.4822C81.6611 20.5031 81.8037 20.5212 81.9021 20.5365C81.9517 20.5441 81.9835 20.5501 82.0014 20.554C82.0332 20.5609 82 20.5566 81.9477 20.5328L82.4757 19.371C82.394 19.3339 82.3108 19.3153 82.272 19.3068C82.2192 19.2954 82.1597 19.285 82.0973 19.2753C81.9716 19.2559 81.8076 19.2354 81.6092 19.2136C81.211 19.17 80.6494 19.1188 79.9275 19.0599L79.8239 20.3319ZM81.5745 19.9863C81.5927 20.323 81.5662 20.7512 81.485 21.2789L82.7463 21.4729C82.8358 20.8913 82.8733 20.3701 82.8488 19.9175L81.5745 19.9863ZM81.485 21.2789C81.445 21.5389 81.4027 21.7168 81.3644 21.8282C81.3454 21.8834 81.3324 21.9072 81.3303 21.9107C81.3262 21.9175 81.3498 21.8734 81.4165 21.8273L82.1429 22.8765C82.392 22.704 82.5088 22.4243 82.571 22.2436C82.6447 22.0296 82.701 21.7676 82.7463 21.4729L81.485 21.2789ZM81.7879 21.7139C78.5033 21.6716 75.9403 21.312 74.0693 20.6612L73.6501 21.8666C75.7044 22.5811 78.4214 22.9468 81.7715 22.9899L81.7879 21.7139ZM74.3535 20.8598C74.2273 20.7056 74.0819 20.3645 73.9961 19.7232C73.9128 19.1011 73.8953 18.2758 73.9528 17.2351L72.6786 17.1647C72.6188 18.2466 72.6332 19.16 72.7313 19.8926C72.8268 20.606 73.0121 21.2356 73.3658 21.6679L74.3535 20.8598ZM73.9526 17.2383C74.0801 15.1232 74.4133 13.8188 74.8513 13.1747L73.796 12.4571C73.1461 13.4129 72.8072 15.0313 72.6788 17.1615L73.9526 17.2383ZM74.624 13.3789C74.8595 13.2533 75.289 13.113 75.9618 12.9774C76.6218 12.8444 77.4712 12.7242 78.5158 12.6187L78.3876 11.3491C77.3201 11.4569 76.4256 11.5821 75.7096 11.7264C75.0064 11.8681 74.4279 12.0372 74.0234 12.2529L74.624 13.3789ZM78.5186 12.6184C79.5713 12.5074 80.4013 12.4496 81.0156 12.4419C81.323 12.4381 81.566 12.447 81.7502 12.4657C81.9447 12.4854 82.0332 12.5124 82.0563 12.5224L82.559 11.3494C82.3582 11.2634 82.118 11.2203 81.8791 11.1961C81.6301 11.1708 81.335 11.1617 80.9997 11.1659C80.3288 11.1742 79.4547 11.2364 78.3847 11.3493L78.5186 12.6184ZM81.7614 12.2656C82.0738 12.7833 82.3394 13.5924 82.5258 14.742L83.7855 14.5378C83.588 13.3194 83.2883 12.3259 82.854 11.6062L81.7614 12.2656ZM82.5258 14.742C82.7125 15.893 82.7942 16.9743 82.7737 17.987L84.0496 18.0128C84.0718 16.9135 83.9829 15.7548 83.7855 14.5378L82.5258 14.742ZM93.3973 12.9919L94.0309 12.9167L93.9764 12.457L93.5224 12.3662L93.3973 12.9919ZM93.2693 15.1679L93.3505 15.8008L93.8075 15.7422L93.8956 15.2899L93.2693 15.1679ZM90.6293 15.3599L90.5939 14.7228L90.1092 14.7497L90.0059 15.224L90.6293 15.3599ZM90.4533 21.9199L90.5495 22.5507L91.1014 22.4665L91.0913 21.9084L90.4533 21.9199ZM86.6453 22.2399L86.0108 22.3073L86.0674 22.8404L86.6023 22.8765L86.6453 22.2399ZM86.4213 18.8319L85.7832 18.8383L85.7834 18.8447L86.4213 18.8319ZM86.4533 15.6479L87.0911 15.6672L87.1106 15.0243L86.4675 15.01L86.4533 15.6479ZM83.8453 15.7759L83.2083 15.8134L83.2484 16.4936L83.9245 16.409L83.8453 15.7759ZM84.1013 13.2799L83.8527 12.6923L83.575 12.8098L83.4894 13.0989L84.1013 13.2799ZM86.4853 13.0079L86.5164 13.6452L87.1234 13.6156V13.0079H86.4853ZM86.6293 10.2719L86.3998 9.67654L86.0506 9.81117L85.9977 10.1817L86.6293 10.2719ZM90.5813 9.8079H91.2194V9.18139L90.593 9.16993L90.5813 9.8079ZM90.5493 12.9119L89.9114 12.8989L89.8979 13.5591L90.5582 13.5499L90.5493 12.9119ZM92.7637 13.0671C92.8285 13.6135 92.7942 14.27 92.643 15.0459L93.8956 15.2899C94.0645 14.4231 94.1154 13.629 94.0309 12.9167L92.7637 13.0671ZM93.1882 14.535C92.7991 14.5849 91.9429 14.6479 90.5939 14.7228L90.6647 15.997C92.0037 15.9226 92.9075 15.8576 93.3505 15.8008L93.1882 14.535ZM90.0059 15.224C89.9008 15.706 89.8407 16.5166 89.8115 17.6068C89.7818 18.7136 89.7833 20.1563 89.8153 21.9314L91.0913 21.9084C91.0594 20.1422 91.0582 18.7208 91.0872 17.641C91.1166 16.5445 91.1765 15.8458 91.2527 15.4958L90.0059 15.224ZM90.3572 21.2891C88.6116 21.5552 87.4022 21.6515 86.6883 21.6033L86.6023 22.8765C87.4671 22.9349 88.7963 22.8179 90.5495 22.5507L90.3572 21.2891ZM87.2798 22.1725C87.1535 20.9829 87.0802 19.8653 87.0593 18.8191L85.7834 18.8447C85.8051 19.9318 85.8811 21.0862 86.0108 22.3073L87.2798 22.1725ZM87.0593 18.8255C87.0488 17.7673 87.0594 16.7146 87.0911 15.6672L85.8155 15.6286C85.7833 16.6932 85.7725 17.7631 85.7833 18.8383L87.0593 18.8255ZM86.4675 15.01C85.9907 14.9994 85.6888 14.9938 85.5733 14.9938V16.27C85.6712 16.27 85.9559 16.2751 86.4391 16.2858L86.4675 15.01ZM85.5733 14.9938C85.4314 14.9938 85.104 15.0188 84.6368 15.0603L84.7498 16.3315C85.2426 16.2877 85.5019 16.27 85.5733 16.27V14.9938ZM84.6368 15.0603C84.1635 15.1024 83.8659 15.1303 83.7662 15.1428L83.9245 16.409C83.9954 16.4002 84.2631 16.3747 84.7498 16.3315L84.6368 15.0603ZM84.4823 15.7384C84.4326 14.8946 84.513 14.1376 84.7132 13.4609L83.4894 13.0989C83.2416 13.9368 83.1513 14.8439 83.2083 15.8134L84.4823 15.7384ZM84.3499 13.8675C84.3492 13.8678 84.3526 13.8664 84.3612 13.8635C84.3695 13.8607 84.3813 13.8571 84.3971 13.8528C84.4291 13.8441 84.4721 13.8341 84.5279 13.8233C84.64 13.8015 84.7887 13.7794 84.9776 13.7579C85.3554 13.7148 85.8667 13.6769 86.5164 13.6452L86.4542 12.3706C85.792 12.4029 85.2499 12.4424 84.833 12.4899C84.4433 12.5344 84.0876 12.5929 83.8527 12.6923L84.3499 13.8675ZM87.1234 13.0079C87.1234 11.8684 87.1712 10.9907 87.261 10.3621L85.9977 10.1817C85.8955 10.8971 85.8472 11.8434 85.8472 13.0079H87.1234ZM86.8588 10.8673C87.6274 10.571 88.845 10.4143 90.5696 10.4459L90.593 9.16993C88.8189 9.13748 87.4019 9.29017 86.3998 9.67654L86.8588 10.8673ZM89.9432 9.8079C89.9432 10.8275 89.9326 11.8578 89.9114 12.8989L91.1872 12.9249C91.2087 11.8753 91.2194 10.8363 91.2194 9.8079H89.9432ZM90.5582 13.5499C91.3166 13.5393 91.9254 13.5407 92.3874 13.5537C92.8636 13.5671 93.1447 13.5921 93.2722 13.6176L93.5224 12.3662C93.2766 12.317 92.8963 12.2914 92.4232 12.2781C91.9359 12.2644 91.3074 12.2632 90.5404 12.2739L90.5582 13.5499ZM100.075 15.2319L100.712 15.1895L100.684 14.7663L100.283 14.6285L100.075 15.2319ZM98.8592 15.1359L98.9183 15.7714L98.9312 15.7699L98.8592 15.1359ZM97.7072 15.3759L97.4809 14.7793L97.1144 14.9183L97.0727 15.3081L97.7072 15.3759ZM97.7072 19.1519L97.0747 19.2362L97.1486 19.79H97.7072V19.1519ZM97.9952 19.1999L97.8776 19.8271L97.8843 19.8283L97.9952 19.1999ZM98.3952 19.2639L98.316 19.8971L98.3247 19.8981L98.3952 19.2639ZM98.8112 19.2959L98.8487 18.6589L98.8112 19.2959ZM99.2432 19.2799L99.3683 19.9056L99.3899 19.9013L99.4111 19.8955L99.2432 19.2799ZM99.6272 19.1359L99.3598 18.5566L99.6272 19.1359ZM99.9632 18.8799L100.461 19.2785L100.555 19.1618L100.587 19.0158L99.9632 18.8799ZM103.803 13.8399L104.416 13.6628L104.371 13.5049L104.254 13.3887L103.803 13.8399ZM103.931 17.3759L103.299 17.289L103.298 17.2938L103.931 17.3759ZM102.811 21.3439L103.008 21.951L103.276 21.8641L103.392 21.6072L102.811 21.3439ZM97.4512 21.6479L97.4895 21.011L96.8131 20.9703V21.6479H97.4512ZM97.4832 23.1839L96.8453 23.2014L96.8457 23.2101L97.4832 23.1839ZM97.4992 24.8799L97.5702 25.514L98.1036 25.4543L98.1361 24.9185L97.4992 24.8799ZM94.1712 25.0239L93.5336 25.0493L93.5561 25.6142L94.1196 25.6599L94.1712 25.0239ZM94.0432 18.3679L94.6813 18.3652L94.0432 18.3679ZM94.1872 12.2559L94.0101 11.6429L93.582 11.7666L93.5507 12.2111L94.1872 12.2559ZM97.6432 11.9839L98.2811 11.9967L98.2945 11.3304L97.6283 11.346L97.6432 11.9839ZM97.6272 12.7839L96.9893 12.7711L96.9731 13.577L97.7612 13.4077L97.6272 12.7839ZM101.579 12.2719L101.865 11.7012L101.73 11.6338H101.579V12.2719ZM100.283 14.6285C99.8283 14.4723 99.3228 14.441 98.7871 14.5019L98.9312 15.7699C99.3342 15.7241 99.6394 15.7568 99.8678 15.8353L100.283 14.6285ZM98.8001 14.5006C98.3048 14.5466 97.8604 14.6354 97.4809 14.7793L97.9335 15.9725C98.1727 15.8818 98.4963 15.8105 98.9183 15.7712L98.8001 14.5006ZM97.0727 15.3081C96.9192 16.7443 96.9173 18.0553 97.0747 19.2362L98.3397 19.0676C98.1985 18.0085 98.1965 16.8021 98.3416 15.4437L97.0727 15.3081ZM97.7072 19.79C97.6776 19.79 97.6563 19.7877 97.6552 19.7875C97.65 19.787 97.648 19.7867 97.651 19.7871C97.6567 19.7879 97.6691 19.7898 97.6903 19.7933C97.732 19.8002 97.7938 19.8113 97.8776 19.827L98.1128 18.5728C98.0259 18.5565 97.9544 18.5436 97.9001 18.5345C97.8763 18.5305 97.7837 18.5138 97.7072 18.5138V19.79ZM97.8843 19.8283C98.0671 19.8605 98.2138 19.8843 98.316 19.897L98.4743 18.6308C98.4059 18.6222 98.2859 18.6033 98.1061 18.5715L97.8843 19.8283ZM98.3247 19.8981C98.4374 19.9106 98.5891 19.922 98.7737 19.9329L98.8487 18.6589C98.6706 18.6485 98.545 18.6385 98.4657 18.6297L98.3247 19.8981ZM98.7737 19.9329C98.9784 19.9449 99.1844 19.9424 99.3683 19.9056L99.1181 18.6542C99.0886 18.6601 99.0067 18.6682 98.8487 18.6589L98.7737 19.9329ZM99.4111 19.8955C99.5699 19.8522 99.7315 19.7905 99.8946 19.7152L99.3598 18.5566C99.2455 18.6093 99.1512 18.6436 99.0753 18.6643L99.4111 19.8955ZM99.8946 19.7152C100.112 19.6147 100.307 19.4712 100.461 19.2785L99.4649 18.4813C99.4485 18.5019 99.4193 18.5291 99.3598 18.5566L99.8946 19.7152ZM100.587 19.0158C100.787 18.0945 100.82 16.8064 100.712 15.1895L99.4385 15.2743C99.5441 16.8574 99.5016 18.0013 99.3398 18.744L100.587 19.0158ZM103.19 14.017C103.435 14.8637 103.484 15.9463 103.299 17.289L104.563 17.4628C104.763 16.0109 104.726 14.7361 104.416 13.6628L103.19 14.017ZM103.298 17.2938C103.125 18.6303 102.769 19.8917 102.23 21.0806L103.392 21.6072C103.985 20.3 104.375 18.9162 104.564 17.458L103.298 17.2938ZM102.615 20.7368C101.649 21.0492 99.9668 21.1598 97.4895 21.011L97.4129 22.2848C99.9062 22.4346 101.797 22.3426 103.008 21.951L102.615 20.7368ZM96.8131 21.6479C96.8131 21.9035 96.8241 22.4245 96.8454 23.2014L98.121 23.1664C98.0996 22.3859 98.0893 21.8829 98.0893 21.6479H96.8131ZM96.8457 23.2101C96.8776 23.9865 96.8815 24.5241 96.8623 24.8413L98.1361 24.9185C98.1595 24.5317 98.1528 23.9386 98.1207 23.1577L96.8457 23.2101ZM97.4282 24.2458C96.0124 24.4043 94.9509 24.447 94.2228 24.3879L94.1196 25.6599C94.9701 25.7288 96.1273 25.6755 97.5702 25.514L97.4282 24.2458ZM94.8088 24.9985C94.7345 23.1309 94.6919 20.9202 94.6813 18.3652L93.4051 18.3706C93.4158 20.9356 93.4586 23.1622 93.5336 25.0493L94.8088 24.9985ZM94.6813 18.3652C94.6706 15.8119 94.7186 13.7925 94.8237 12.3007L93.5507 12.2111C93.4424 13.7486 93.3944 15.8038 93.4051 18.3706L94.6813 18.3652ZM94.3643 12.8689C94.5363 12.8192 94.8871 12.7652 95.4613 12.72C96.0209 12.676 96.752 12.643 97.6581 12.6218L97.6283 11.346C96.7104 11.3675 95.9535 11.4012 95.3611 11.4478C94.7832 11.4933 94.3181 11.5539 94.0101 11.6429L94.3643 12.8689ZM97.0052 11.9711L96.9893 12.7711L98.2651 12.7967L98.2811 11.9967L97.0052 11.9711ZM97.7612 13.4077C99.3279 13.0713 100.596 12.91 101.579 12.91V11.6338C100.471 11.6338 99.1052 11.8139 97.4932 12.1601L97.7612 13.4077ZM101.294 12.8426C102.115 13.2534 102.799 13.7377 103.352 14.2911L104.254 13.3887C103.592 12.7261 102.792 12.165 101.865 11.7012L101.294 12.8426ZM108.825 9.6799L109.461 9.73766L109.51 9.19871L108.986 9.0624L108.825 9.6799ZM108.633 16.0319L109.271 16.0364V16.0363L108.633 16.0319ZM108.745 21.7759L108.93 22.3868L109.445 22.2315L109.379 21.6978L108.745 21.7759ZM107.017 22.1279L106.975 21.4912L107.017 22.1279ZM105.289 22.0319L104.655 22.0973L104.706 22.5931L105.199 22.6636L105.289 22.0319ZM105.081 16.0639L104.443 16.0708V16.0708L105.081 16.0639ZM105.241 9.8879L105.109 9.26369L104.662 9.35845L104.608 9.81233L105.241 9.8879ZM108.19 9.62213C108.081 10.8255 108.017 12.9677 107.995 16.0275L109.271 16.0363C109.293 12.9735 109.357 10.881 109.461 9.73766L108.19 9.62213ZM107.995 16.0274C107.974 19.0634 108.01 21.0251 108.112 21.854L109.379 21.6978C109.289 20.9694 109.25 19.1018 109.271 16.0364L107.995 16.0274ZM108.561 21.165C107.916 21.3595 107.39 21.4635 106.975 21.4912L107.06 22.7646C107.604 22.7283 108.231 22.5976 108.93 22.3868L108.561 21.165ZM106.975 21.4912C106.553 21.5194 106.024 21.4923 105.38 21.4002L105.199 22.6636C105.899 22.7635 106.522 22.8004 107.06 22.7646L106.975 21.4912ZM105.924 21.9665C105.821 20.9654 105.752 19.0046 105.719 16.057L104.443 16.0708C104.475 19.0112 104.545 21.0291 104.655 22.0973L105.924 21.9665ZM105.719 16.057C105.687 13.1008 105.742 11.0802 105.875 9.96346L104.608 9.81233C104.464 11.021 104.411 13.1176 104.443 16.0708L105.719 16.057ZM105.374 10.5121C106.968 10.1741 108.038 10.1344 108.665 10.2974L108.986 9.0624C108.055 8.82006 106.736 8.91898 105.109 9.26369L105.374 10.5121ZM115.97 19.4079L116.094 20.0339L116.619 19.93L116.608 19.3943L115.97 19.4079ZM115.794 17.3919L116.427 17.3118L116.329 16.5408L115.592 16.7866L115.794 17.3919ZM115.474 17.4879L115.618 18.1096L115.634 18.1059L115.649 18.1014L115.474 17.4879ZM114.802 17.6639L114.614 17.054L114.802 17.6639ZM114.45 17.7759L114.248 17.1706L114.237 17.1743L114.226 17.1785L114.45 17.7759ZM114.162 17.8879L114.364 18.4932L114.382 18.4873L114.399 18.4803L114.162 17.8879ZM113.906 17.9999L114.223 18.5539V18.5539L113.906 17.9999ZM113.73 18.1279L113.279 17.6767L113.102 17.8531L113.092 18.1024L113.73 18.1279ZM113.714 18.5279L113.076 18.5024L113.076 18.5151V18.5279H113.714ZM113.746 19.2319L113.111 19.2987L113.113 19.3151L113.116 19.3314L113.746 19.2319ZM113.922 19.6159L113.584 20.157L113.712 20.2368L113.862 20.2511L113.922 19.6159ZM119.602 21.9359L119.785 22.5471L120.188 22.4261L120.236 22.0081L119.602 21.9359ZM116.274 22.3359L115.639 22.401L115.701 23.0018L116.304 22.9733L116.274 22.3359ZM116.21 21.7119L116.845 21.6468L116.775 20.9678L116.102 21.083L116.21 21.7119ZM112.274 22.2559L112.085 22.8653L112.212 22.9048L112.345 22.8901L112.274 22.2559ZM111.074 21.7439L110.784 22.3121L110.789 22.3146L111.074 21.7439ZM109.874 20.9919L109.249 21.1198L109.295 21.3459L109.475 21.4901L109.874 20.9919ZM109.842 18.8319L110.478 18.8808L109.842 18.8319ZM110.146 16.7839L109.82 16.2356L109.613 16.3585L109.539 16.587L110.146 16.7839ZM112.626 15.9199L112.467 15.3019L112.626 15.9199ZM115.586 15.3599L115.639 15.9958L116.155 15.9528L116.219 15.439L115.586 15.3599ZM115.586 14.7199L116.213 14.6023L116.144 14.2333L115.788 14.1146L115.586 14.7199ZM114.962 14.6239L114.915 15.2602L114.962 14.6239ZM113.89 14.5919L113.874 15.2298L113.882 15.23H113.89V14.5919ZM112.802 14.5919V15.23H112.813L112.825 15.2296L112.802 14.5919ZM111.666 14.6079L111.681 15.2458L111.666 14.6079ZM110.914 14.6239L110.277 14.6542L110.306 15.262H110.914V14.6239ZM110.994 13.2959L111.623 13.4033L111.623 13.4008L110.994 13.2959ZM111.314 12.4159L111.221 11.7847L111.012 11.8156L110.863 11.9647L111.314 12.4159ZM115.154 12.1919L115.144 12.8299L115.149 12.8299L115.154 12.1919ZM118.642 12.5439L119.167 12.1812L119.03 11.9824L118.795 11.9245L118.642 12.5439ZM119.538 16.7039L118.902 16.7597L118.902 16.76L119.538 16.7039ZM116.608 19.3943C116.597 18.8607 116.535 18.1637 116.427 17.3118L115.161 17.472C115.267 18.3055 115.322 18.9524 115.332 19.4215L116.608 19.3943ZM115.592 16.7866C115.543 16.8031 115.448 16.8319 115.299 16.8744L115.649 18.1014C115.799 18.0586 115.918 18.0233 115.996 17.9972L115.592 16.7866ZM115.331 16.8662C115.19 16.8986 115.074 16.9262 114.983 16.9489L115.293 18.1869C115.373 18.1669 115.481 18.1412 115.618 18.1096L115.331 16.8662ZM114.983 16.9489C114.882 16.9742 114.758 17.0099 114.614 17.054L114.99 18.2738C115.123 18.2326 115.223 18.2043 115.293 18.1869L114.983 16.9489ZM114.614 17.054C114.473 17.0976 114.35 17.1365 114.248 17.1706L114.652 18.3812C114.742 18.3513 114.854 18.3155 114.99 18.2738L114.614 17.054ZM114.226 17.1785C114.135 17.2124 114.035 17.2515 113.925 17.2955L114.399 18.4803C114.502 18.439 114.594 18.4034 114.674 18.3733L114.226 17.1785ZM113.96 17.2826C113.831 17.3256 113.706 17.3791 113.589 17.4459L114.223 18.5539C114.255 18.5353 114.301 18.5142 114.364 18.4932L113.96 17.2826ZM113.589 17.4459C113.485 17.5058 113.375 17.5809 113.279 17.6767L114.181 18.5791C114.175 18.5855 114.174 18.5854 114.181 18.5799C114.189 18.5745 114.202 18.5657 114.223 18.5539L113.589 17.4459ZM113.092 18.1024L113.076 18.5024L114.352 18.5534L114.368 18.1534L113.092 18.1024ZM113.076 18.5279C113.076 18.8105 113.087 19.0683 113.111 19.2987L114.381 19.1651C114.362 18.9902 114.352 18.7786 114.352 18.5279H113.076ZM113.116 19.3314C113.137 19.4665 113.172 19.6108 113.234 19.7458C113.295 19.8796 113.401 20.0427 113.584 20.157L114.26 19.0748C114.358 19.1358 114.391 19.2082 114.394 19.214C114.397 19.2193 114.395 19.2161 114.39 19.2012C114.386 19.1865 114.381 19.1641 114.376 19.1324L113.116 19.3314ZM113.862 20.2511C114.407 20.3031 115.166 20.2172 116.094 20.0339L115.846 18.7819C114.939 18.9613 114.333 19.0141 113.983 18.9807L113.862 20.2511ZM119.419 21.3247C118.861 21.492 117.822 21.6239 116.244 21.6985L116.304 22.9733C117.884 22.8986 119.063 22.7638 119.785 22.5471L119.419 21.3247ZM116.909 22.2708L116.845 21.6468L115.575 21.777L115.639 22.401L116.909 22.2708ZM116.102 21.083C114.933 21.2832 113.634 21.4628 112.204 21.6217L112.345 22.8901C113.795 22.729 115.119 22.546 116.318 22.3408L116.102 21.083ZM112.463 21.6465C112.202 21.5654 111.837 21.4121 111.359 21.1732L110.789 22.3146C111.292 22.5664 111.728 22.7544 112.085 22.8653L112.463 21.6465ZM111.364 21.1757C110.912 20.9443 110.55 20.7159 110.273 20.4936L109.475 21.4901C109.838 21.7799 110.277 22.0529 110.784 22.3121L111.364 21.1757ZM110.499 20.864C110.422 20.4861 110.404 19.8401 110.478 18.8808L109.206 18.783C109.13 19.765 109.134 20.559 109.249 21.1198L110.499 20.864ZM110.478 18.8808C110.553 17.9114 110.651 17.2963 110.753 16.9807L109.539 16.587C109.385 17.0608 109.281 17.8111 109.206 18.783L110.478 18.8808ZM110.472 17.3322C110.834 17.1172 111.579 16.8473 112.785 16.5379L112.467 15.3019C111.262 15.6112 110.355 15.9172 109.82 16.2356L110.472 17.3322ZM112.785 16.5379C113.974 16.2328 114.922 16.0556 115.639 15.9958L115.533 14.724C114.715 14.7922 113.689 14.9883 112.467 15.3019L112.785 16.5379ZM116.219 15.439C116.256 15.1461 116.262 14.8611 116.213 14.6023L114.959 14.8375C114.974 14.92 114.98 15.0616 114.953 15.2808L116.219 15.439ZM115.788 14.1146C115.58 14.0452 115.304 14.0094 115.009 13.9876L114.915 15.2602C115.196 15.281 115.336 15.3093 115.384 15.3252L115.788 14.1146ZM115.009 13.9876C114.7 13.9647 114.326 13.9538 113.89 13.9538V15.23C114.308 15.23 114.648 15.2405 114.915 15.2602L115.009 13.9876ZM113.906 13.954C113.471 13.9432 113.095 13.943 112.779 13.9542L112.825 15.2296C113.106 15.2195 113.455 15.2193 113.874 15.2298L113.906 13.954ZM112.802 13.9538C112.497 13.9538 112.113 13.9593 111.651 13.97L111.681 15.2458C112.137 15.2352 112.51 15.23 112.802 15.23V13.9538ZM111.651 13.97C111.422 13.9753 111.245 13.9793 111.12 13.982C111.058 13.9833 111.009 13.9843 110.973 13.9849C110.956 13.9853 110.941 13.9855 110.931 13.9856C110.926 13.9857 110.921 13.9858 110.918 13.9858C110.915 13.9858 110.914 13.9858 110.914 13.9858V15.262C110.966 15.262 111.229 15.2563 111.681 15.2458L111.651 13.97ZM111.551 14.5935C111.532 14.1911 111.556 13.7946 111.623 13.4033L110.365 13.1885C110.283 13.6718 110.253 14.1607 110.277 14.6542L111.551 14.5935ZM111.623 13.4008C111.657 13.1996 111.694 13.0555 111.73 12.958C111.768 12.8528 111.789 12.8429 111.765 12.8671L110.863 11.9647C110.7 12.1276 110.599 12.3337 110.53 12.5218C110.459 12.7177 110.406 12.9442 110.365 13.191L111.623 13.4008ZM111.408 13.0471C112.519 12.8824 113.764 12.809 115.144 12.8299L115.164 11.5539C113.728 11.5321 112.413 11.6081 111.221 11.7847L111.408 13.0471ZM115.149 12.8299C116.541 12.8404 117.649 12.9558 118.489 13.1633L118.795 11.9245C117.822 11.684 116.605 11.5647 115.159 11.5538L115.149 12.8299ZM118.117 12.9066C118.245 13.0919 118.401 13.4819 118.546 14.1582C118.688 14.8157 118.808 15.6802 118.902 16.7597L120.174 16.6481C120.076 15.541 119.951 14.6188 119.794 13.8895C119.641 13.1792 119.444 12.5825 119.167 12.1812L118.117 12.9066ZM118.902 16.76C119.093 18.9171 119.11 20.6129 118.968 21.8637L120.236 22.0081C120.392 20.6349 120.367 18.8427 120.174 16.6478L118.902 16.76ZM128.728 20.1119L129.365 20.0775L129.344 19.6911L128.992 19.531L128.728 20.1119ZM128.616 21.4239L127.99 21.2987L127.988 21.3122L128.616 21.4239ZM128.28 22.2879L128.274 22.9259L128.477 22.928L128.643 22.8125L128.28 22.2879ZM125.688 22.2239L125.658 22.8612L125.658 22.8613L125.688 22.2239ZM123.208 21.9839L123.118 22.6156L123.126 22.6166L123.208 21.9839ZM120.712 21.4079L120.218 21.8119L120.331 21.9499L120.499 22.0094L120.712 21.4079ZM120.168 17.3599L119.531 17.3215L119.531 17.3245L120.168 17.3599ZM121.176 12.9759L120.88 12.4109L120.738 12.485L120.649 12.6171L121.176 12.9759ZM124.984 12.1439L125.056 12.7779L125.059 12.7775L124.984 12.1439ZM128.488 12.0959L129.121 12.0137L129.074 11.6528L128.74 11.5094L128.488 12.0959ZM128.488 14.2079L128.537 14.8441L129.028 14.8063L129.116 14.322L128.488 14.2079ZM127.432 14.2879L127.465 14.9251L127.472 14.9247L127.48 14.9242L127.432 14.2879ZM126.488 14.3519L126.52 14.9892L126.536 14.9884L126.552 14.9868L126.488 14.3519ZM125.704 14.4639L125.575 13.839L125.57 13.84L125.704 14.4639ZM124.824 14.7359L124.583 14.145L124.303 14.2591L124.214 14.5482L124.824 14.7359ZM124.392 17.2959L125.029 17.3428L124.392 17.2959ZM124.6 19.5999L124.009 19.841L124.088 20.0328L124.264 20.142L124.6 19.5999ZM126.808 19.9679L126.779 20.6053L126.785 20.6055L126.808 19.9679ZM128.091 20.1463C128.109 20.4766 128.078 20.8593 127.991 21.2988L129.242 21.549C129.346 21.0285 129.39 20.5365 129.365 20.0775L128.091 20.1463ZM127.988 21.3122C127.949 21.5319 127.908 21.6788 127.873 21.7686C127.865 21.7897 127.858 21.8053 127.853 21.8161C127.848 21.827 127.845 21.8315 127.845 21.8311C127.845 21.8308 127.85 21.8234 127.861 21.8117C127.871 21.8001 127.89 21.7822 127.917 21.7633L128.643 22.8125C128.873 22.6533 128.994 22.4086 129.063 22.2312C129.14 22.033 129.198 21.7959 129.244 21.5356L127.988 21.3122ZM128.287 21.6499C127.246 21.6392 126.39 21.618 125.718 21.5865L125.658 22.8613C126.352 22.8938 127.224 22.9152 128.274 22.9259L128.287 21.6499ZM125.719 21.5865C125.07 21.5557 124.262 21.4779 123.291 21.3512L123.126 22.6166C124.117 22.7459 124.962 22.8281 125.658 22.8612L125.719 21.5865ZM123.298 21.3522C122.357 21.2177 121.568 21.0339 120.925 20.8064L120.499 22.0094C121.243 22.2726 122.118 22.4728 123.118 22.6156L123.298 21.3522ZM121.206 21.0038C121.079 20.8492 120.934 20.5089 120.849 19.8709C120.765 19.2517 120.748 18.4305 120.805 17.3953L119.531 17.3245C119.471 18.4012 119.486 19.3108 119.584 20.0409C119.679 20.7522 119.865 21.3799 120.218 21.8119L121.206 21.0038ZM120.805 17.3983C120.933 15.2832 121.266 13.9788 121.704 13.3347L120.649 12.6171C119.999 13.5729 119.66 15.1913 119.531 17.3215L120.805 17.3983ZM121.473 13.5409C122.004 13.2622 123.16 12.9922 125.056 12.7779L124.913 11.5099C123.033 11.7223 121.65 12.0069 120.88 12.4109L121.473 13.5409ZM125.059 12.7775C125.993 12.6667 126.732 12.6095 127.285 12.6019C127.871 12.5939 128.15 12.6453 128.237 12.6824L128.74 11.5094C128.378 11.3545 127.85 11.3179 127.267 11.3259C126.652 11.3343 125.863 11.3971 124.909 11.5103L125.059 12.7775ZM127.855 12.1781C127.957 12.9575 127.952 13.5916 127.86 14.0938L129.116 14.322C129.238 13.6509 129.233 12.877 129.121 12.0137L127.855 12.1781ZM128.439 13.5717C128.162 13.593 127.811 13.6196 127.384 13.6516L127.48 14.9242C127.907 14.8922 128.259 14.8655 128.537 14.8441L128.439 13.5717ZM127.4 13.6507C126.981 13.6721 126.654 13.6941 126.425 13.717L126.552 14.9868C126.749 14.967 127.051 14.9463 127.465 14.9251L127.4 13.6507ZM126.456 13.7146C126.199 13.7275 125.903 13.7712 125.575 13.8391L125.833 15.0887C126.124 15.0285 126.351 14.9976 126.52 14.9892L126.456 13.7146ZM125.57 13.84C125.235 13.912 124.905 14.0138 124.583 14.145L125.065 15.3268C125.319 15.2233 125.576 15.1438 125.838 15.0878L125.57 13.84ZM124.214 14.5482C123.983 15.3015 123.833 16.2053 123.756 17.249L125.029 17.3428C125.101 16.3598 125.239 15.557 125.434 14.9235L124.214 14.5482ZM123.756 17.249C123.679 18.294 123.74 19.1807 124.009 19.841L125.191 19.3588C125.034 18.9737 124.956 18.3245 125.029 17.3428L123.756 17.249ZM124.264 20.142C124.531 20.3077 124.897 20.4016 125.279 20.4653C125.682 20.5324 126.185 20.578 126.779 20.6053L126.837 19.3305C126.269 19.3044 125.822 19.262 125.489 19.2065C125.135 19.1475 124.979 19.0841 124.937 19.0578L124.264 20.142ZM126.785 20.6055C127.363 20.6268 127.805 20.6491 128.112 20.6722C128.267 20.6838 128.381 20.695 128.458 20.7053C128.568 20.7201 128.535 20.7249 128.464 20.6928L128.992 19.531C128.863 19.4722 128.706 19.451 128.627 19.4405C128.514 19.4254 128.373 19.412 128.208 19.3996C127.876 19.3747 127.416 19.3517 126.832 19.3303L126.785 20.6055ZM135.542 15.9519L135.725 16.5631L136.148 16.4361L136.178 15.9955L135.542 15.9519ZM135.334 14.2719L135.89 13.9591L135.707 13.6338H135.334V14.2719ZM135.062 14.2879V14.926H135.088L135.115 14.9238L135.062 14.2879ZM134.774 14.3039V14.942H134.826L134.879 14.9333L134.774 14.3039ZM134.518 14.3199L134.46 13.6844L134.454 13.685L134.518 14.3199ZM134.214 14.3679L134.075 13.745L134.067 13.7468L134.059 13.7489L134.214 14.3679ZM133.91 14.4479L133.742 13.8323V13.8323L133.91 14.4479ZM133.542 14.5759L133.296 13.9869L133.017 14.1033L132.93 14.3934L133.542 14.5759ZM133.158 16.2399L132.523 16.1713L132.45 16.8515L133.133 16.8775L133.158 16.2399ZM139.302 17.9999L139.401 18.6303L139.929 18.5474L139.94 18.0128L139.302 17.9999ZM136.486 18.2879L136.532 18.9243L136.537 18.9239L136.486 18.2879ZM132.934 18.4799L132.914 17.8421L132.223 17.8635L132.3 18.5504L132.934 18.4799ZM133.158 19.2159L132.605 19.5356L132.686 19.6738L132.821 19.758L133.158 19.2159ZM135.766 19.6959L135.709 20.3314L135.714 20.3319L135.766 19.6959ZM138.102 19.9519L138.739 19.9175L138.718 19.5311L138.366 19.371L138.102 19.9519ZM138.006 21.3759L138.636 21.4729L138.006 21.3759ZM137.67 22.3519L137.661 22.9899L137.865 22.9925L138.033 22.8765L137.67 22.3519ZM129.75 21.2639L129.256 21.6679L129.37 21.8074L129.54 21.8666L129.75 21.2639ZM129.206 17.1999L128.569 17.1615L128.569 17.1647L129.206 17.1999ZM130.214 12.8159L129.913 12.2529L129.775 12.327L129.686 12.4571L130.214 12.8159ZM134.342 11.9839L134.406 12.6187L134.409 12.6184L134.342 11.9839ZM138.198 11.9359L138.744 11.6062L138.638 11.4303L138.449 11.3494L138.198 11.9359ZM139.046 14.6399L138.416 14.742L139.046 14.6399ZM136.178 15.9955C136.233 15.1946 136.179 14.4726 135.89 13.9591L134.778 14.5847C134.873 14.7539 134.957 15.1519 134.905 15.9083L136.178 15.9955ZM135.334 13.6338C135.251 13.6338 135.137 13.6414 135.009 13.652L135.115 14.9238C135.243 14.9131 135.31 14.91 135.334 14.91V13.6338ZM135.062 13.6498C134.925 13.6498 134.787 13.6549 134.669 13.6745L134.879 14.9333C134.878 14.9334 134.882 14.9327 134.891 14.9318C134.9 14.9309 134.913 14.9299 134.929 14.929C134.962 14.9271 135.006 14.926 135.062 14.926V13.6498ZM134.774 13.6658C134.689 13.6658 134.579 13.6736 134.46 13.6844L134.575 14.9553C134.691 14.9449 134.751 14.942 134.774 14.942V13.6658ZM134.454 13.685C134.325 13.698 134.198 13.7177 134.075 13.745L134.352 14.9908C134.421 14.9754 134.497 14.9632 134.581 14.9548L134.454 13.685ZM134.059 13.7489C133.968 13.7716 133.862 13.7995 133.742 13.8323L134.078 15.0635C134.192 15.0323 134.289 15.0068 134.368 14.9869L134.059 13.7489ZM133.742 13.8323C133.595 13.8724 133.446 13.9245 133.296 13.9869L133.787 15.1649C133.893 15.1206 133.99 15.0874 134.078 15.0635L133.742 13.8323ZM132.93 14.3934C132.714 15.1189 132.572 15.718 132.523 16.1713L133.792 16.3085C133.828 15.9725 133.943 15.4622 134.153 14.7584L132.93 14.3934ZM133.133 16.8775C134.041 16.912 134.906 16.8088 135.725 16.5631L135.358 15.3407C134.684 15.543 133.96 15.6318 133.182 15.6023L133.133 16.8775ZM139.203 17.3695C138.685 17.4507 137.768 17.5452 136.435 17.6519L136.537 18.9239C137.87 18.8173 138.83 18.7197 139.401 18.6303L139.203 17.3695ZM136.44 17.6515C135.113 17.747 133.938 17.8105 132.914 17.8421L132.953 19.1177C133.999 19.0853 135.192 19.0208 136.532 18.9243L136.44 17.6515ZM132.3 18.5504C132.339 18.9059 132.435 19.2405 132.605 19.5356L133.71 18.8962C133.646 18.7859 133.592 18.6299 133.568 18.4094L132.3 18.5504ZM132.821 19.758C133.089 19.9244 133.494 20.0279 133.926 20.1074C134.388 20.1925 134.985 20.2666 135.709 20.3314L135.823 19.0604C135.117 18.9972 134.564 18.9273 134.157 18.8524C133.954 18.8149 133.795 18.7778 133.677 18.7425C133.619 18.725 133.574 18.7092 133.542 18.6959C133.526 18.6894 133.514 18.6839 133.506 18.6798C133.497 18.6757 133.494 18.6735 133.494 18.6738L132.821 19.758ZM135.714 20.3319C136.432 20.3904 136.98 20.4405 137.36 20.4822C137.551 20.5031 137.694 20.5212 137.792 20.5365C137.842 20.5441 137.873 20.5501 137.891 20.554C137.923 20.5609 137.89 20.5566 137.838 20.5328L138.366 19.371C138.284 19.3339 138.201 19.3153 138.162 19.3068C138.109 19.2954 138.05 19.285 137.987 19.2753C137.862 19.2559 137.698 19.2354 137.499 19.2136C137.101 19.17 136.539 19.1188 135.818 19.0599L135.714 20.3319ZM137.465 19.9863C137.483 20.323 137.456 20.7512 137.375 21.2789L138.636 21.4729C138.726 20.8913 138.763 20.3701 138.739 19.9175L137.465 19.9863ZM137.375 21.2789C137.335 21.5389 137.293 21.7168 137.254 21.8282C137.235 21.8834 137.222 21.9072 137.22 21.9107C137.216 21.9175 137.24 21.8734 137.306 21.8273L138.033 22.8765C138.282 22.704 138.399 22.4243 138.461 22.2436C138.535 22.0296 138.591 21.7676 138.636 21.4729L137.375 21.2789ZM137.678 21.7139C134.393 21.6716 131.83 21.312 129.959 20.6612L129.54 21.8666C131.594 22.5811 134.311 22.9468 137.661 22.9899L137.678 21.7139ZM130.244 20.8598C130.117 20.7056 129.972 20.3645 129.886 19.7232C129.803 19.1011 129.785 18.2758 129.843 17.2351L128.569 17.1647C128.509 18.2466 128.523 19.16 128.621 19.8926C128.717 20.606 128.902 21.2356 129.256 21.6679L130.244 20.8598ZM129.843 17.2383C129.97 15.1232 130.303 13.8188 130.741 13.1747L129.686 12.4571C129.036 13.4129 128.697 15.0313 128.569 17.1615L129.843 17.2383ZM130.514 13.3789C130.749 13.2533 131.179 13.113 131.852 12.9774C132.512 12.8444 133.361 12.7242 134.406 12.6187L134.278 11.3491C133.21 11.4569 132.316 11.5821 131.6 11.7264C130.896 11.8681 130.318 12.0372 129.913 12.2529L130.514 13.3789ZM134.409 12.6184C135.461 12.5074 136.291 12.4496 136.906 12.4419C137.213 12.4381 137.456 12.447 137.64 12.4657C137.835 12.4854 137.923 12.5124 137.946 12.5224L138.449 11.3494C138.248 11.2634 138.008 11.2203 137.769 11.1961C137.52 11.1708 137.225 11.1617 136.89 11.1659C136.219 11.1742 135.345 11.2364 134.275 11.3493L134.409 12.6184ZM137.651 12.2656C137.964 12.7833 138.229 13.5924 138.416 14.742L139.676 14.5378C139.478 13.3194 139.178 12.3259 138.744 11.6062L137.651 12.2656ZM138.416 14.742C138.602 15.893 138.684 16.9743 138.664 17.987L139.94 18.0128C139.962 16.9135 139.873 15.7548 139.676 14.5378L138.416 14.742Z" fill="#060000" mask="url(#path-6-outside-1_337_5895)"/>
</g>
</g>
<defs>
<filter id="filter0_d_337_5895" x="26.5527" y="9.1999" width="112.781" height="17.1961" filterUnits="userSpaceOnUse" color-interpolation-filters="sRGB">
<feFlood flood-opacity="0" result="BackgroundImageFix"/>
<feColorMatrix in="SourceAlpha" type="matrix" values="0 0 0 0 0 0 0 0 0 0 0 0 0 0 0 0 0 0 127 0" result="hardAlpha"/>
<feOffset dy="1.27614"/>
<feComposite in2="hardAlpha" operator="out"/>
<feColorMatrix type="matrix" values="0 0 0 0 0.0313726 0 0 0 0 0.00784314 0 0 0 0 0.0235294 0 0 0 1 0"/>
<feBlend mode="normal" in2="BackgroundImageFix" result="effect1_dropShadow_337_5895"/>
<feBlend mode="normal" in="SourceGraphic" in2="effect1_dropShadow_337_5895" result="shape"/>
</filter>
<linearGradient id="paint0_linear_337_5895" x1="19.0447" y1="15.3087" x2="211.456" y2="78.0036" gradientUnits="userSpaceOnUse">
<stop stop-color="#FFB092"/>
<stop offset="0.4" stop-color="#E6492E"/>
<stop offset="1" stop-color="#C42729"/>
</linearGradient>
<linearGradient id="paint1_linear_337_5895" x1="19.0447" y1="15.2152" x2="211.217" y2="78.2375" gradientUnits="userSpaceOnUse">
<stop stop-color="#FFB092"/>
<stop offset="0.4" stop-color="#E6492E"/>
<stop offset="1" stop-color="#C42729"/>
</linearGradient>
<clipPath id="clip0_337_5895">
<rect width="165" height="34.7748" fill="white" transform="translate(0 0.774799)"/>
</clipPath>
</defs>
</svg>
