<svg width="677" height="409" viewBox="0 0 677 409" fill="none" xmlns="http://www.w3.org/2000/svg">
<path d="M160.114 106.776H287.69V116.917H171.808V193.233H280.78V203.372H171.808V287.161H289.019V297.3H160.114V106.776ZM299.12 106.776H312.674L372.741 190.564L434.136 106.775L517.644 0.347168L380.448 199.371L451.147 297.3H437.06L372.741 208.176L308.155 297.3H294.335L365.565 199.37L299.12 106.776ZM456.196 116.917V106.775H601.58V116.916H534.602V297.299H522.907V116.917H456.196ZM0.511719 106.775H15.1297L216.703 408.412L133.404 297.299L12.7372 121.186L12.2061 297.301H0.511719L0.511719 106.775ZM600.402 284.098C598.012 284.098 596.221 282.249 596.221 279.855C596.221 277.464 598.012 275.611 600.402 275.611C602.82 275.611 604.583 277.462 604.583 279.855C604.583 282.247 602.82 284.098 600.402 284.098ZM611.893 272.935H618.151C618.235 276.324 620.71 278.602 624.351 278.602C628.418 278.602 630.722 276.153 630.722 271.568V242.517H637.094V271.595C637.094 279.855 632.316 284.612 624.408 284.612C616.983 284.612 611.893 279.998 611.893 272.934V272.935ZM645.428 272.565H651.742C652.283 276.466 656.094 278.943 661.585 278.943C666.704 278.943 670.458 276.294 670.458 272.65C670.458 269.517 668.069 267.637 662.636 266.356L657.345 265.074C649.921 263.336 646.537 259.748 646.537 253.71C646.537 246.391 652.51 241.521 661.47 241.521C669.803 241.521 675.891 246.39 676.261 253.311H670.059C669.462 249.524 666.162 247.159 661.384 247.159C656.35 247.159 652.995 249.581 652.995 253.282C652.995 256.215 655.155 257.897 660.503 259.149L665.025 260.26C673.444 262.226 676.915 265.644 676.915 271.824C676.915 279.684 670.828 284.612 661.101 284.612C651.999 284.612 645.882 279.912 645.428 272.564V272.565Z" fill="#686868"/>
</svg>
