<svg width="652" height="581" viewBox="0 0 652 581" fill="none" xmlns="http://www.w3.org/2000/svg">
<path d="M651.864 290.446C651.864 247.289 597.818 206.389 514.956 181.026C534.078 96.5708 525.579 29.3782 488.132 7.86599C479.501 2.81991 469.409 0.429665 458.387 0.429665V30.0422C464.495 30.0422 469.409 31.2373 473.525 33.4948C491.585 43.8525 499.419 83.2916 493.311 134.018C491.85 146.5 489.46 159.647 486.539 173.059C460.512 166.685 432.094 161.771 402.216 158.584C384.289 134.018 365.698 111.709 346.975 92.1886C390.265 51.9528 430.899 29.9094 458.52 29.9094V0.296875C422.002 0.296875 374.197 26.324 325.861 71.4732C277.525 26.5896 229.72 0.828043 193.202 0.828043V30.4406C220.69 30.4406 261.457 52.3512 304.747 92.3214C286.156 111.842 267.565 134.018 249.904 158.584C219.893 161.771 191.476 166.685 165.449 173.191C162.394 159.912 160.137 147.032 158.543 134.682C152.302 83.9556 160.004 44.5165 177.931 34.0259C181.915 31.6357 187.094 30.5734 193.202 30.5734V0.960833C182.048 0.960833 171.955 3.35108 163.191 8.39716C125.877 29.9094 117.511 96.9691 136.766 181.159C54.1693 206.655 0.388672 247.422 0.388672 290.446C0.388672 333.604 54.4348 374.504 137.297 399.867C118.175 484.322 126.673 551.515 164.121 573.027C172.752 578.073 182.844 580.463 193.999 580.463C230.517 580.463 278.321 554.436 326.658 509.287C374.994 554.17 422.799 579.932 459.316 579.932C470.471 579.932 480.563 577.542 489.327 572.496C526.642 550.983 535.008 483.924 515.753 399.734C598.084 374.371 651.864 333.471 651.864 290.446ZM478.97 201.874C474.056 219.005 467.948 236.666 461.043 254.327C455.598 243.704 449.888 233.08 443.647 222.457C437.539 211.834 431.032 201.476 424.525 191.384C443.381 194.173 461.574 197.625 478.97 201.874ZM418.151 343.297C407.793 361.224 397.17 378.222 386.148 394.024C366.362 395.75 346.311 396.68 326.126 396.68C306.075 396.68 286.023 395.75 266.37 394.157C255.349 378.354 244.592 361.49 234.235 343.696C224.142 326.3 214.98 308.639 206.614 290.845C214.847 273.051 224.143 255.257 234.102 237.861C244.46 219.934 255.083 202.937 266.105 187.135C285.891 185.408 305.942 184.479 326.126 184.479C346.178 184.479 366.229 185.408 385.883 187.002C396.904 202.804 407.66 219.669 418.018 237.463C428.11 254.858 437.273 272.52 445.639 290.314C437.273 308.108 428.11 325.902 418.151 343.297ZM461.043 326.035C468.213 343.829 474.322 361.623 479.368 378.886C461.972 383.135 443.647 386.72 424.658 389.509C431.165 379.284 437.671 368.793 443.78 358.037C449.888 347.414 455.598 336.658 461.043 326.035ZM326.392 467.723C314.042 454.975 301.693 440.767 289.476 425.23C301.427 425.761 313.644 426.159 325.994 426.159C338.476 426.159 350.826 425.894 362.91 425.23C350.958 440.767 338.609 454.975 326.392 467.723ZM227.595 389.509C208.739 386.72 190.546 383.268 173.151 379.018C178.064 361.888 184.172 344.227 191.077 326.566C196.522 337.189 202.232 347.812 208.473 358.436C214.714 369.059 221.088 379.417 227.595 389.509ZM325.728 113.17C338.078 125.918 350.427 140.126 362.644 155.663C350.693 155.132 338.476 154.733 326.126 154.733C313.644 154.733 301.294 154.999 289.21 155.663C301.162 140.126 313.511 125.918 325.728 113.17ZM227.462 191.384C220.956 201.609 214.449 212.099 208.34 222.856C202.232 233.479 196.522 244.102 191.077 254.726C183.907 236.931 177.798 219.137 172.752 201.874C190.148 197.758 208.473 194.173 227.462 191.384ZM107.286 357.639C60.2777 337.587 29.8684 311.295 29.8684 290.446C29.8684 269.598 60.2777 243.173 107.286 223.254C118.706 218.341 131.188 213.959 144.069 209.842C151.638 235.869 161.598 262.959 173.947 290.712C161.73 318.333 151.904 345.289 144.468 371.184C131.321 367.067 118.839 362.552 107.286 357.639ZM178.728 547.398C160.668 537.04 152.833 497.601 158.942 446.875C160.403 434.392 162.793 421.246 165.714 407.834C191.741 414.208 220.159 419.121 250.037 422.308C267.964 446.875 286.555 469.184 305.278 488.704C261.988 528.94 221.354 550.984 193.733 550.984C187.758 550.851 182.712 549.656 178.728 547.398ZM493.709 446.211C499.951 496.937 492.249 536.376 474.322 546.867C470.338 549.257 465.159 550.32 459.051 550.32C431.563 550.32 390.796 528.409 347.506 488.439C366.097 468.918 384.688 446.742 402.349 422.176C432.36 418.989 460.777 414.075 486.804 407.569C489.858 420.981 492.249 433.861 493.709 446.211ZM544.834 357.639C533.414 362.552 520.932 366.934 508.051 371.051C500.482 345.024 490.522 317.934 478.173 290.181C490.39 262.56 500.216 235.604 507.653 209.709C520.799 213.826 533.281 218.341 544.967 223.254C591.975 243.305 622.384 269.598 622.384 290.446C622.252 311.295 591.842 337.72 544.834 357.639Z" fill="#686868"/>
<path d="M325.996 351.13C359.512 351.13 386.682 323.96 386.682 290.445C386.682 256.929 359.512 229.759 325.996 229.759C292.48 229.759 265.311 256.929 265.311 290.445C265.311 323.96 292.48 351.13 325.996 351.13Z" fill="#686868"/>
</svg>
