
<svg width="332" height="859" viewBox="0 0 332 859" fill="none" xmlns="http://www.w3.org/2000/svg">
<g clip-path="url(#clip0_291_9166)">
<rect x="2" y="2" width="328" height="854.914" rx="8" fill="#0D0D0D"/>
<g filter="url(#filter0_d_291_9166)">
<path d="M73.144 37.584C73.3147 39.2693 73.208 41.1787 72.824 43.312C71.9067 43.44 70.104 43.6 67.416 43.792C67.16 45.0933 66.9253 47.8133 66.712 51.952C66.4987 56.0907 66.4133 59.376 66.456 61.808C66.2853 61.8293 65.848 61.904 65.144 62.032C64.4613 62.16 64.0347 62.2347 63.864 62.256C63.7147 62.2773 63.288 62.3413 62.584 62.448C61.88 62.5547 61.4427 62.5973 61.272 62.576C61.1227 62.576 60.696 62.5973 59.992 62.64C59.3093 62.704 58.8827 62.6933 58.712 62.608C58.456 59.4507 58.3067 56.3573 58.264 53.328C58.2213 50.2773 58.232 47.3653 58.296 44.592C57.144 44.4853 55.0107 44.592 51.896 44.912C51.7893 42.5867 51.9813 40.4 52.472 38.352C53.304 37.9253 56.7067 37.6267 62.68 37.456C68.6533 37.2853 72.1413 37.328 73.144 37.584ZM86.829 49.904C86.9357 48.3467 86.797 47.2267 86.413 46.544C86.3063 46.544 86.125 46.5547 85.869 46.576C85.613 46.576 85.421 46.5867 85.293 46.608C85.1863 46.608 85.0157 46.6187 84.781 46.64C84.5677 46.6613 84.365 46.6933 84.173 46.736C84.0023 46.7787 83.7997 46.832 83.565 46.896C83.3303 46.96 83.085 47.0453 82.829 47.152C82.4023 48.5813 82.1463 49.6907 82.061 50.48C83.7463 50.544 85.3357 50.352 86.829 49.904ZM94.349 54C93.261 54.1707 91.3837 54.3627 88.717 54.576C86.0503 54.768 83.6823 54.896 81.613 54.96C81.677 55.536 81.8263 56.0267 82.061 56.432C82.6797 56.816 84.4183 57.136 87.277 57.392C90.157 57.6267 91.7143 57.7973 91.949 57.904C91.9917 58.6933 91.9277 59.6427 91.757 60.752C91.5863 61.8613 91.3623 62.512 91.085 62.704C84.4503 62.6187 79.1703 61.8933 75.245 60.528C74.285 59.3547 73.9223 56.6453 74.157 52.4C74.413 48.1547 75.085 45.232 76.173 43.632C77.453 42.9493 80.205 42.3947 84.429 41.968C88.6743 41.52 91.245 41.488 92.141 41.872C92.8877 43.1093 93.453 44.912 93.837 47.28C94.221 49.648 94.3917 51.888 94.349 54ZM112.368 58.224C112.411 59.0133 112.336 59.888 112.144 60.848C111.974 61.808 111.75 62.384 111.472 62.576C109.382 62.5547 107.654 62.512 106.288 62.448C104.944 62.384 103.291 62.224 101.328 61.968C99.3869 61.6907 97.7229 61.3067 96.3362 60.816C95.3762 59.6427 95.0136 56.944 95.2482 52.72C95.5042 48.4747 96.1762 45.552 97.2642 43.952C98.5656 43.2693 101.104 42.7147 104.88 42.288C108.656 41.84 110.992 41.808 111.888 42.192C112.102 43.8347 112.102 45.2427 111.888 46.416C111.334 46.4587 110.63 46.512 109.776 46.576C108.944 46.6187 108.315 46.6613 107.888 46.704C107.462 46.7253 106.939 46.8 106.32 46.928C105.723 47.056 105.136 47.2373 104.56 47.472C104.134 48.8587 103.846 50.5653 103.696 52.592C103.547 54.6187 103.686 56.1547 104.112 57.2C104.731 57.584 106.203 57.8293 108.528 57.936C110.854 58.0213 112.134 58.1173 112.368 58.224ZM132.459 41.488C132.737 44.5387 132.694 51.5787 132.331 62.608C131.777 62.7147 130.635 62.768 128.907 62.768C127.201 62.768 126.187 62.7467 125.867 62.704C125.846 62.32 125.857 61.2747 125.899 59.568C125.963 57.8613 125.91 56.7733 125.739 56.304C122.667 56.0693 120.993 56.2187 120.715 56.752C120.523 59.3547 120.459 61.3493 120.523 62.736C118.646 63.0987 116.406 63.184 113.803 62.992C113.633 61.968 113.526 59.92 113.483 56.848C113.462 53.7547 113.473 50.9493 113.515 48.432C113.558 45.9147 113.611 43.8027 113.675 42.096C114.486 41.8613 115.83 41.7227 117.707 41.68C119.585 41.6373 120.63 41.7227 120.843 41.936C120.673 42.9173 120.587 45.2 120.587 48.784C121.355 48.9333 122.326 48.9547 123.499 48.848C124.694 48.72 125.505 48.5813 125.931 48.432C126.038 48.24 126.059 47.2373 125.995 45.424C125.931 43.5893 125.921 42.4267 125.963 41.936C126.411 41.7013 127.478 41.5413 129.163 41.456C130.849 41.3493 131.947 41.36 132.459 41.488ZM155.165 42C155.251 49.7227 155.208 56.1867 155.037 61.392C151.24 61.8827 148.243 62.1387 146.045 62.16C144.68 60.176 143.283 57.552 141.853 54.288L140.509 54.384C140.232 56.816 140.168 59.3227 140.317 61.904C138.355 62.3733 136.456 62.448 134.621 62.128C134.429 60.656 134.312 57.616 134.269 53.008C134.227 48.3787 134.259 44.9013 134.365 42.576C134.621 42.3413 136.115 42.1067 138.845 41.872C141.597 41.6373 143.4 41.584 144.253 41.712C144.403 42.1173 144.723 43.0773 145.213 44.592C145.725 46.0853 146.173 47.376 146.557 48.464C146.963 49.5307 147.347 50.4587 147.709 51.248L148.957 51.088C148.979 49.8933 149.075 47.0027 149.245 42.416C151.165 41.968 153.139 41.8293 155.165 42ZM169.73 56.24C169.73 55.8987 169.751 55.2587 169.794 54.32C169.837 53.36 169.858 52.592 169.858 52.016C169.879 51.4187 169.879 50.672 169.858 49.776C169.837 48.88 169.773 48.0587 169.666 47.312C167.682 47.12 166.082 47.2267 164.866 47.632C164.631 48.08 164.461 49.4453 164.354 51.728C164.247 53.9893 164.258 55.6427 164.386 56.688C165.133 56.816 166.071 56.8267 167.202 56.72C168.333 56.592 169.175 56.432 169.73 56.24ZM176.962 45.744C177.154 46.6827 177.261 48.1333 177.282 50.096C177.303 52.0587 177.186 54.096 176.93 56.208C176.695 58.32 176.333 59.8773 175.842 60.88C171.575 61.904 167.031 62.3733 162.21 62.288C160.269 61.4987 158.434 59.856 156.706 57.36C156.599 51.4507 157.25 46.8213 158.658 43.472C160.407 43.024 162.775 42.6933 165.762 42.48C168.749 42.2667 171.117 42.32 172.866 42.64C175.213 44.24 176.578 45.2747 176.962 45.744ZM186.718 37.36C186.504 39.7067 186.376 43.9413 186.334 50.064C186.291 56.1653 186.366 59.9947 186.558 61.552C185.214 61.9573 184.062 62.192 183.102 62.256C182.142 62.32 180.99 62.256 179.646 62.064C179.432 59.9947 179.294 56.016 179.23 50.128C179.166 44.2187 179.272 40.1013 179.55 37.776C182.771 37.0933 185.16 36.9547 186.718 37.36ZM201.615 56.24C201.615 55.8987 201.636 55.2587 201.679 54.32C201.722 53.36 201.743 52.592 201.743 52.016C201.764 51.4187 201.764 50.672 201.743 49.776C201.722 48.88 201.658 48.0587 201.551 47.312C199.567 47.12 197.967 47.2267 196.751 47.632C196.516 48.08 196.346 49.4453 196.239 51.728C196.132 53.9893 196.143 55.6427 196.271 56.688C197.018 56.816 197.956 56.8267 199.087 56.72C200.218 56.592 201.06 56.432 201.615 56.24ZM208.847 45.744C209.039 46.6827 209.146 48.1333 209.167 50.096C209.188 52.0587 209.071 54.096 208.815 56.208C208.58 58.32 208.218 59.8773 207.727 60.88C203.46 61.904 198.916 62.3733 194.095 62.288C192.154 61.4987 190.319 59.856 188.591 57.36C188.484 51.4507 189.135 46.8213 190.543 43.472C192.292 43.024 194.66 42.6933 197.647 42.48C200.634 42.2667 203.002 42.32 204.751 42.64C207.098 44.24 208.463 45.2747 208.847 45.744ZM222.219 47.728C222.197 47.728 221.717 47.7493 220.779 47.792C219.861 47.8347 219.2 47.9413 218.795 48.112C218.432 49.3067 218.176 50.7253 218.027 52.368C217.877 53.9893 217.899 55.3227 218.091 56.368C218.283 56.4747 218.571 56.5387 218.955 56.56C219.339 56.56 219.904 56.5387 220.651 56.496C221.397 56.4533 221.867 56.432 222.059 56.432C222.165 54.2987 222.219 51.3973 222.219 47.728ZM229.963 42.448C230.048 43.3867 230.048 46.48 229.963 51.728C229.877 56.9547 229.739 60.0693 229.547 61.072C228.864 64.528 227.659 66.5867 225.931 67.248C223.456 68.1867 219.083 68.7947 212.811 69.072C212.213 67.536 211.968 66.0853 212.075 64.72C212.395 64.6773 213.067 64.6133 214.091 64.528C215.136 64.4427 215.968 64.368 216.587 64.304C217.227 64.24 217.963 64.1333 218.795 63.984C219.648 63.8347 220.352 63.664 220.907 63.472C221.205 63.216 221.461 62.416 221.675 61.072C221.077 61.0933 219.989 61.1573 218.411 61.264C216.853 61.3493 215.584 61.4027 214.603 61.424C212.491 60.4213 211.136 59.5787 210.539 58.896C210.069 57.0827 210.037 54.5333 210.443 51.248C210.869 47.9413 211.541 45.616 212.459 44.272C212.821 44.08 213.301 43.9307 213.899 43.824C214.496 43.7173 215.2 43.6533 216.011 43.632C216.821 43.6107 217.536 43.6 218.155 43.6C218.773 43.6 219.541 43.6213 220.459 43.664C221.376 43.6853 221.984 43.696 222.283 43.696L222.379 42.288C226.261 42.2027 228.789 42.256 229.963 42.448ZM238.837 43.024C238.837 48.208 238.645 54.3733 238.261 61.52C237.92 61.6907 237.013 61.8187 235.541 61.904C234.069 61.9893 233.035 62 232.437 61.936C232.053 56.368 231.989 50.192 232.245 43.408C233.824 43.1093 236.021 42.9813 238.837 43.024ZM239.701 40.528C239.339 40.9973 238.048 41.3173 235.829 41.488C233.611 41.6373 232.341 41.5093 232.021 41.104C231.68 40.656 231.68 39.7813 232.021 38.48C232.213 37.776 233.472 37.2747 235.797 36.976C236.715 36.8693 237.792 37.04 239.029 37.488C239.648 38.5547 239.872 39.568 239.701 40.528ZM253.155 49.904C253.262 48.3467 253.123 47.2267 252.739 46.544C252.633 46.544 252.451 46.5547 252.195 46.576C251.939 46.576 251.747 46.5867 251.619 46.608C251.513 46.608 251.342 46.6187 251.107 46.64C250.894 46.6613 250.691 46.6933 250.499 46.736C250.329 46.7787 250.126 46.832 249.891 46.896C249.657 46.96 249.411 47.0453 249.155 47.152C248.729 48.5813 248.473 49.6907 248.387 50.48C250.073 50.544 251.662 50.352 253.155 49.904ZM260.675 54C259.587 54.1707 257.71 54.3627 255.043 54.576C252.377 54.768 250.009 54.896 247.939 54.96C248.003 55.536 248.153 56.0267 248.387 56.432C249.006 56.816 250.745 57.136 253.603 57.392C256.483 57.6267 258.041 57.7973 258.275 57.904C258.318 58.6933 258.254 59.6427 258.083 60.752C257.913 61.8613 257.689 62.512 257.411 62.704C250.777 62.6187 245.497 61.8933 241.571 60.528C240.611 59.3547 240.249 56.6453 240.483 52.4C240.739 48.1547 241.411 45.232 242.499 43.632C243.779 42.9493 246.531 42.3947 250.755 41.968C255.001 41.52 257.571 41.488 258.467 41.872C259.214 43.1093 259.779 44.912 260.163 47.28C260.547 49.648 260.718 51.888 260.675 54ZM278.63 45.936C277.862 46.0427 276.593 46.1813 274.822 46.352C273.052 46.5227 271.697 46.6933 270.758 46.864C270.374 47.44 270.161 48.368 270.118 49.648C271.036 49.7973 272.433 50.128 274.31 50.64C276.188 51.1307 277.606 51.4507 278.566 51.6C279.1 52.7733 279.292 54.224 279.142 55.952C278.993 57.68 278.588 59.088 277.926 60.176C274.684 61.6693 269.905 62.7573 263.59 63.44C263.334 63.2693 263.11 62.5867 262.918 61.392C262.748 60.1973 262.684 59.344 262.726 58.832C264.092 58.768 265.574 58.608 267.174 58.352C268.796 58.0747 269.926 57.7867 270.566 57.488C270.737 56.8907 270.79 56.2827 270.726 55.664C270.385 55.4293 268.988 55.0667 266.534 54.576C264.102 54.0853 262.577 53.6587 261.958 53.296C261.894 51.6747 262.012 49.968 262.31 48.176C262.63 46.384 263.121 44.8267 263.782 43.504C268.092 42.0533 272.881 41.4133 278.15 41.584C278.513 42.6293 278.673 44.08 278.63 45.936Z" fill="white"/>
</g>
<circle cx="97" cy="174" r="58.794" fill="#1F1F1F" stroke="#343434" stroke-width="2.41205"/>
<path d="M109.253 185.973C111.496 185.74 113.199 183.806 113.121 181.485C113.044 179.163 111.11 177.306 108.788 177.306H108.634C106.235 177.384 104.378 179.395 104.455 181.794C104.533 182.955 104.997 183.961 105.693 184.657C103.063 189.841 99.0392 193.633 93.0041 196.805C88.9032 198.972 84.6478 199.746 80.3923 199.204C76.9104 198.74 74.2023 197.192 72.4998 194.639C70.024 190.847 69.7919 186.746 71.8811 182.645C73.3513 179.705 75.6722 177.538 77.1424 176.455C76.8329 175.449 76.3686 173.747 76.1366 172.509C64.9173 180.634 66.078 191.621 69.4825 196.805C72.0357 200.674 77.2199 203.073 82.9455 203.073C84.4929 203.073 86.0403 202.918 87.5879 202.531C97.4919 200.597 104.997 194.716 109.253 185.973ZM122.871 176.378C116.99 169.491 108.324 165.7 98.4203 165.7H97.1824C96.486 164.307 95.0158 163.378 93.391 163.378H93.2361C90.8378 163.456 88.9809 165.468 89.0581 167.866C89.1355 170.188 91.0698 172.045 93.391 172.045H93.5456C95.2479 171.967 96.7181 170.884 97.337 169.414H98.7298C104.61 169.414 110.181 171.116 115.211 174.443C119.079 176.997 121.865 180.324 123.412 184.348C124.727 187.597 124.65 190.77 123.257 193.478C121.091 197.579 117.454 199.823 112.657 199.823C109.562 199.823 106.622 198.894 105.074 198.198C104.223 198.972 102.676 200.21 101.592 200.984C104.92 202.531 108.324 203.382 111.574 203.382C119.002 203.382 124.495 199.281 126.585 195.18C128.828 190.692 128.673 182.955 122.871 176.378ZM83.5645 187.288C83.6419 189.609 85.5762 191.466 87.8974 191.466H88.0522C90.4509 191.389 92.3077 189.377 92.2303 186.978C92.1531 184.657 90.2186 182.8 87.8974 182.8H87.7428C87.5879 182.8 87.3556 182.8 87.2012 182.877C84.0288 177.616 82.7135 171.89 83.1778 165.7C83.487 161.057 85.0347 157.033 87.7428 153.706C89.9865 150.843 94.3194 149.45 97.2598 149.373C105.461 149.218 108.943 159.432 109.175 163.533C110.181 163.765 111.883 164.307 113.044 164.694C112.115 152.159 104.378 145.659 96.9503 145.659C89.9865 145.659 83.5645 150.689 81.011 158.117C77.4519 168.021 79.7731 177.538 84.106 185.044C83.7193 185.585 83.487 186.436 83.5645 187.288Z" fill="#686868"/>
<circle cx="235" cy="174" r="58.794" fill="#1F1F1F" stroke="#343434" stroke-width="2.41205"/>
<g clip-path="url(#clip1_291_9166)">
<path fill-rule="evenodd" clip-rule="evenodd" d="M222.539 210.806L206.726 146.79L270.117 165.041L222.539 210.806Z" stroke="#686868" stroke-width="1.29455" stroke-miterlimit="10" stroke-linejoin="round"/>
<path fill-rule="evenodd" clip-rule="evenodd" d="M238.41 155.917L246.311 187.935L214.633 178.807L238.41 155.917Z" stroke="#686868" stroke-width="1.29455" stroke-miterlimit="10" stroke-linejoin="round"/>
<path fill-rule="evenodd" clip-rule="evenodd" d="M230.55 183.149L226.626 167.244L242.364 171.762L230.55 183.149ZM222.7 151.358L226.624 167.263L210.886 162.745L222.7 151.358ZM254.175 160.425L258.099 176.33L242.361 171.812L254.175 160.425ZM230.552 183.16L234.476 199.065L218.738 194.548L230.552 183.16Z" stroke="#686868" stroke-width="1.29455" stroke-miterlimit="10" stroke-linejoin="round"/>
</g>
<circle cx="97" cy="319.729" r="58.794" fill="#1F1F1F" stroke="#343434" stroke-width="2.41205"/>
<path d="M96.9021 319.954C96.9021 314.5 101.324 310.055 106.801 310.055C112.256 310.055 116.7 314.477 116.7 319.954C116.7 325.409 112.278 329.853 106.801 329.853C101.347 329.853 96.9021 325.409 96.9021 319.954Z" fill="#686868"/>
<path d="M77.1267 339.73C77.1267 334.276 81.5488 329.831 87.0258 329.831H96.9249V339.73C96.9249 345.185 92.5029 349.629 87.0258 349.629C81.5488 349.629 77.1267 345.207 77.1267 339.73Z" fill="#686868"/>
<path d="M96.9021 290.279V310.055H106.801C112.256 310.055 116.7 305.633 116.7 300.156C116.7 294.701 112.278 290.257 106.801 290.257H96.9021V290.279Z" fill="#686868"/>
<path d="M77.1267 300.179C77.1267 305.634 81.5488 310.078 87.0258 310.078H96.9249V290.28H87.0258C81.5488 290.28 77.1267 294.702 77.1267 300.179Z" fill="#686868"/>
<path d="M77.1267 319.954C77.1267 325.409 81.5488 329.853 87.0258 329.853H96.9249V310.055H87.0258C81.5488 310.055 77.1267 314.5 77.1267 319.954Z" fill="#686868"/>
<circle cx="235" cy="319.729" r="58.794" fill="#1F1F1F" stroke="#343434" stroke-width="2.41205"/>
<g clip-path="url(#clip2_291_9166)">
<path d="M267.442 319.142L264.664 317.422C264.641 317.152 264.614 316.883 264.585 316.613L266.972 314.386C267.092 314.275 267.181 314.136 267.231 313.981C267.281 313.826 267.29 313.66 267.258 313.5C267.227 313.341 267.155 313.191 267.049 313.067C266.944 312.943 266.808 312.848 266.656 312.791L263.604 311.65C263.527 311.386 263.447 311.124 263.365 310.862L265.268 308.218C265.364 308.086 265.424 307.931 265.443 307.769C265.462 307.607 265.439 307.443 265.376 307.293C265.314 307.142 265.214 307.01 265.086 306.909C264.959 306.808 264.807 306.741 264.646 306.715L261.428 306.191C261.303 305.947 261.172 305.707 261.041 305.469L262.393 302.5C262.461 302.352 262.49 302.189 262.477 302.027C262.464 301.864 262.41 301.708 262.319 301.572C262.229 301.436 262.105 301.326 261.96 301.252C261.815 301.177 261.654 301.142 261.491 301.148L258.224 301.262C258.056 301.05 257.884 300.842 257.708 300.636L258.459 297.454C258.497 297.295 258.493 297.13 258.448 296.973C258.404 296.816 258.32 296.673 258.204 296.558C258.089 296.443 257.946 296.359 257.79 296.314C257.633 296.27 257.467 296.266 257.309 296.303L254.128 297.053C253.921 296.878 253.712 296.706 253.501 296.537L253.615 293.271C253.621 293.108 253.585 292.947 253.511 292.802C253.437 292.656 253.327 292.533 253.191 292.443C253.056 292.352 252.899 292.297 252.737 292.284C252.574 292.271 252.411 292.3 252.263 292.368L249.295 293.721C249.056 293.588 248.815 293.459 248.573 293.333L248.048 290.114C248.022 289.953 247.955 289.802 247.854 289.674C247.753 289.547 247.62 289.447 247.47 289.385C247.32 289.322 247.156 289.299 246.994 289.318C246.832 289.337 246.678 289.397 246.546 289.492L243.9 291.396C243.639 291.313 243.377 291.233 243.113 291.157L241.972 288.105C241.915 287.952 241.82 287.816 241.696 287.71C241.572 287.605 241.422 287.532 241.262 287.501C241.103 287.469 240.938 287.479 240.783 287.529C240.628 287.579 240.488 287.668 240.377 287.787L238.15 290.176C237.881 290.146 237.611 290.12 237.341 290.097L235.621 287.318C235.536 287.18 235.416 287.065 235.274 286.986C235.132 286.907 234.971 286.865 234.809 286.865C234.646 286.865 234.486 286.907 234.343 286.986C234.201 287.065 234.081 287.18 233.996 287.318L232.276 290.097C232.006 290.119 231.736 290.146 231.466 290.176L229.239 287.787C229.128 287.667 228.988 287.578 228.833 287.528C228.678 287.478 228.512 287.469 228.352 287.501C228.193 287.533 228.044 287.605 227.92 287.71C227.796 287.816 227.701 287.952 227.644 288.105L226.503 291.157C226.238 291.233 225.977 291.313 225.716 291.396L223.07 289.492C222.938 289.396 222.784 289.336 222.622 289.317C222.46 289.299 222.296 289.322 222.145 289.385C221.995 289.447 221.863 289.547 221.762 289.674C221.661 289.802 221.594 289.953 221.567 290.114L221.043 293.333C220.8 293.459 220.559 293.588 220.32 293.721L217.352 292.367C217.204 292.3 217.041 292.271 216.878 292.284C216.716 292.297 216.56 292.352 216.425 292.443C216.289 292.533 216.178 292.656 216.104 292.801C216.03 292.946 215.994 293.108 216 293.271L216.114 296.537C215.902 296.706 215.693 296.878 215.487 297.053L212.306 296.304C212.147 296.266 211.982 296.27 211.825 296.315C211.668 296.359 211.525 296.443 211.41 296.558C211.294 296.673 211.21 296.816 211.166 296.973C211.121 297.13 211.117 297.295 211.155 297.454L211.904 300.636C211.73 300.842 211.559 301.05 211.39 301.262L208.123 301.148C207.961 301.143 207.799 301.179 207.655 301.253C207.51 301.327 207.386 301.437 207.295 301.572C207.204 301.707 207.15 301.864 207.137 302.026C207.124 302.189 207.152 302.352 207.22 302.5L208.573 305.469C208.441 305.707 208.311 305.947 208.185 306.191L204.967 306.715C204.806 306.741 204.655 306.808 204.527 306.909C204.399 307.01 204.3 307.142 204.237 307.293C204.175 307.443 204.152 307.607 204.171 307.769C204.19 307.931 204.25 308.086 204.345 308.218L206.249 310.862C206.166 311.123 206.086 311.385 206.01 311.65L202.957 312.791C202.805 312.848 202.669 312.944 202.564 313.068C202.459 313.192 202.387 313.341 202.355 313.501C202.323 313.66 202.333 313.825 202.383 313.98C202.433 314.135 202.522 314.275 202.641 314.386L205.028 316.613C204.999 316.882 204.972 317.152 204.949 317.422L202.171 319.142C202.032 319.228 201.918 319.348 201.839 319.49C201.76 319.632 201.718 319.792 201.719 319.955C201.719 320.287 201.89 320.594 202.171 320.768L204.949 322.487C204.972 322.758 204.999 323.028 205.028 323.297L202.64 325.524C202.521 325.635 202.432 325.775 202.382 325.93C202.332 326.085 202.322 326.25 202.354 326.41C202.386 326.57 202.458 326.719 202.564 326.843C202.669 326.967 202.805 327.062 202.957 327.119L206.01 328.26C206.086 328.524 206.166 328.787 206.249 329.048L204.345 331.693C204.249 331.825 204.189 331.979 204.171 332.141C204.152 332.303 204.175 332.467 204.237 332.618C204.299 332.768 204.399 332.9 204.527 333.001C204.655 333.102 204.807 333.169 204.968 333.195L208.185 333.718C208.311 333.962 208.44 334.203 208.573 334.442L207.22 337.41C207.152 337.558 207.123 337.721 207.137 337.884C207.15 338.046 207.204 338.202 207.295 338.338C207.385 338.473 207.509 338.584 207.654 338.658C207.799 338.732 207.961 338.768 208.123 338.762L211.388 338.648C211.559 338.86 211.73 339.068 211.904 339.275L211.155 342.457C211.117 342.615 211.121 342.781 211.166 342.937C211.21 343.094 211.294 343.236 211.41 343.351C211.525 343.467 211.668 343.551 211.825 343.595C211.982 343.64 212.147 343.643 212.306 343.605L215.487 342.856C215.693 343.032 215.903 343.202 216.114 343.37L216 346.638C215.994 346.8 216.03 346.962 216.105 347.107C216.179 347.252 216.289 347.376 216.424 347.466C216.56 347.557 216.716 347.611 216.878 347.624C217.041 347.637 217.204 347.608 217.352 347.54L220.32 346.188C220.559 346.321 220.8 346.45 221.043 346.576L221.567 349.793C221.593 349.954 221.66 350.105 221.761 350.233C221.862 350.361 221.994 350.461 222.145 350.523C222.296 350.585 222.46 350.608 222.622 350.589C222.783 350.571 222.938 350.511 223.07 350.416L225.714 348.511C225.976 348.594 226.238 348.675 226.502 348.751L227.643 351.802C227.7 351.955 227.795 352.09 227.919 352.196C228.044 352.301 228.193 352.373 228.353 352.404C228.512 352.437 228.678 352.427 228.833 352.377C228.988 352.327 229.127 352.238 229.238 352.119L231.466 349.731C231.734 349.762 232.005 349.787 232.275 349.811L233.995 352.59C234.081 352.728 234.201 352.842 234.343 352.921C234.485 353 234.645 353.042 234.808 353.042C234.97 353.042 235.131 353.001 235.273 352.921C235.415 352.842 235.535 352.728 235.621 352.59L237.34 349.811C237.611 349.787 237.881 349.762 238.15 349.731L240.377 352.119C240.487 352.238 240.627 352.327 240.782 352.377C240.937 352.427 241.102 352.437 241.262 352.404C241.422 352.373 241.571 352.301 241.695 352.196C241.819 352.09 241.914 351.955 241.971 351.802L243.112 348.751C243.377 348.675 243.639 348.594 243.9 348.511L246.545 350.416C246.677 350.511 246.832 350.571 246.994 350.59C247.155 350.608 247.319 350.585 247.47 350.523C247.62 350.46 247.752 350.361 247.854 350.233C247.955 350.105 248.021 349.953 248.047 349.793L248.572 346.576C248.815 346.45 249.055 346.319 249.295 346.188L252.263 347.54C252.411 347.608 252.574 347.637 252.736 347.624C252.899 347.611 253.055 347.557 253.191 347.467C253.326 347.376 253.436 347.252 253.511 347.107C253.585 346.962 253.621 346.801 253.614 346.638L253.501 343.371C253.712 343.202 253.921 343.031 254.127 342.856L257.308 343.605C257.631 343.681 257.97 343.587 258.203 343.351C258.319 343.236 258.403 343.094 258.447 342.937C258.492 342.781 258.496 342.615 258.458 342.457L257.709 339.275C257.884 339.068 258.055 338.86 258.223 338.648L261.49 338.762C261.653 338.768 261.814 338.732 261.959 338.658C262.104 338.584 262.228 338.474 262.318 338.338C262.409 338.203 262.464 338.046 262.477 337.883C262.49 337.721 262.461 337.558 262.393 337.409L261.04 334.442C261.172 334.203 261.302 333.962 261.427 333.719L264.646 333.195C264.807 333.169 264.958 333.102 265.086 333.001C265.214 332.9 265.313 332.768 265.375 332.617C265.438 332.466 265.46 332.303 265.442 332.141C265.423 331.979 265.363 331.825 265.268 331.693L263.364 329.048C263.446 328.787 263.527 328.524 263.603 328.26L266.655 327.119C266.808 327.062 266.943 326.967 267.049 326.843C267.154 326.719 267.226 326.569 267.258 326.409C267.29 326.25 267.28 326.084 267.23 325.929C267.18 325.774 267.091 325.635 266.972 325.524L264.584 323.297C264.613 323.028 264.64 322.758 264.663 322.488L267.442 320.768C267.58 320.682 267.694 320.562 267.774 320.42C267.853 320.278 267.894 320.118 267.894 319.955C267.894 319.624 267.724 319.316 267.442 319.142ZM248.848 342.189C247.787 341.96 247.112 340.914 247.34 339.85C247.567 338.787 248.612 338.111 249.672 338.34C250.733 338.567 251.409 339.614 251.181 340.676C250.954 341.739 249.908 342.416 248.848 342.189ZM247.904 335.804C247.674 335.755 247.436 335.751 247.204 335.794C246.973 335.836 246.752 335.924 246.554 336.052C246.357 336.18 246.186 336.346 246.053 336.54C245.919 336.734 245.825 336.952 245.776 337.183L244.79 341.786C241.746 343.167 238.366 343.935 234.806 343.935C231.165 343.935 227.712 343.129 224.614 341.689L223.628 337.086C223.421 336.117 222.468 335.5 221.501 335.708L217.437 336.581C216.682 335.803 215.98 334.976 215.336 334.104H235.109C235.332 334.104 235.482 334.064 235.482 333.86V326.866C235.482 326.662 235.332 326.622 235.109 326.622H229.326V322.189H235.581C236.151 322.189 238.633 322.351 239.426 325.524C239.675 326.499 240.221 329.673 240.594 330.689C240.966 331.828 242.479 334.104 244.092 334.104H253.945C254.057 334.104 254.176 334.091 254.302 334.069C253.618 334.997 252.87 335.876 252.061 336.698L247.904 335.804ZM220.557 342.093C219.496 342.322 218.451 341.645 218.223 340.582C217.996 339.518 218.671 338.472 219.732 338.244C220.793 338.017 221.838 338.693 222.065 339.756C222.292 340.818 221.617 341.865 220.557 342.093ZM213.056 311.678C213.496 312.671 213.049 313.835 212.057 314.274C211.065 314.715 209.904 314.267 209.464 313.273C209.024 312.279 209.471 311.117 210.464 310.676C210.699 310.571 210.954 310.514 211.212 310.508C211.47 310.502 211.727 310.546 211.967 310.639C212.208 310.732 212.428 310.872 212.615 311.05C212.802 311.228 212.952 311.442 213.056 311.678ZM210.751 317.142L214.984 315.261C215.419 315.068 215.759 314.71 215.93 314.266C216.1 313.822 216.088 313.329 215.895 312.894L215.023 310.923H218.452V326.378H211.534C210.921 324.219 210.611 321.986 210.613 319.742C210.613 318.863 210.66 317.995 210.751 317.142ZM229.327 315.641V311.086H237.492C237.914 311.086 240.47 311.573 240.47 313.485C240.47 315.072 238.51 315.641 236.897 315.641H229.327V315.641ZM259.001 319.742C259.001 320.346 258.979 320.944 258.934 321.538H256.452C256.204 321.538 256.104 321.701 256.104 321.944V323.084C256.104 325.767 254.591 326.351 253.265 326.5C252.002 326.642 250.602 325.971 250.43 325.199C249.685 321.009 248.444 320.115 246.484 318.569C248.916 317.024 251.447 314.745 251.447 311.695C251.447 308.402 249.189 306.327 247.65 305.31C245.491 303.887 243.101 303.601 242.456 303.601H216.784C220.265 299.716 224.983 296.964 230.319 295.963L233.345 299.137C233.507 299.307 233.702 299.444 233.917 299.539C234.132 299.634 234.364 299.686 234.599 299.692C234.835 299.697 235.069 299.656 235.288 299.571C235.508 299.486 235.708 299.358 235.878 299.195L239.264 295.957C246.358 297.278 252.365 301.694 255.827 307.753L253.509 312.988C253.109 313.894 253.517 314.954 254.42 315.355L258.883 317.338C258.96 318.13 259.001 318.93 259.001 319.742ZM233.346 293.262C234.13 292.511 235.374 292.541 236.125 293.326C236.874 294.113 236.845 295.358 236.06 296.109C235.276 296.86 234.032 296.831 233.281 296.044C232.922 295.666 232.726 295.161 232.739 294.64C232.751 294.118 232.969 293.623 233.346 293.262ZM256.348 311.773C256.453 311.537 256.602 311.324 256.789 311.146C256.976 310.968 257.196 310.828 257.437 310.735C257.678 310.642 257.934 310.598 258.192 310.604C258.45 310.61 258.705 310.667 258.941 310.772C259.933 311.212 260.38 312.376 259.94 313.369C259.836 313.605 259.686 313.818 259.499 313.997C259.313 314.175 259.092 314.314 258.852 314.407C258.611 314.501 258.354 314.545 258.096 314.539C257.838 314.532 257.583 314.475 257.347 314.371C256.357 313.93 255.909 312.768 256.348 311.773Z" fill="#686868"/>
</g>
<circle cx="97" cy="465.457" r="58.794" fill="#1F1F1F" stroke="#343434" stroke-width="2.41205"/>
<g clip-path="url(#clip3_291_9166)">
<path d="M131.096 465.292C131.096 460.701 125.347 456.35 116.531 453.651C118.566 444.667 117.662 437.519 113.678 435.23C112.76 434.693 111.686 434.439 110.513 434.439V437.589C111.163 437.589 111.686 437.716 112.124 437.956C114.045 439.058 114.879 443.254 114.229 448.65C114.073 449.978 113.819 451.377 113.508 452.804C110.74 452.126 107.716 451.603 104.538 451.264C102.631 448.65 100.653 446.277 98.6611 444.201C103.266 439.92 107.589 437.575 110.528 437.575V434.425C106.643 434.425 101.557 437.194 96.415 441.997C91.2728 437.222 86.1872 434.481 82.3023 434.481V437.632C85.2266 437.632 89.5635 439.962 94.1688 444.215C92.1911 446.291 90.2133 448.65 88.3345 451.264C85.1418 451.603 82.1187 452.126 79.3499 452.818C79.0249 451.405 78.7848 450.035 78.6153 448.721C77.9513 443.325 78.7707 439.129 80.6778 438.013C81.1016 437.759 81.6525 437.646 82.3023 437.646V434.495C81.1157 434.495 80.0421 434.75 79.1097 435.287C75.1401 437.575 74.2501 444.709 76.2985 453.665C67.5116 456.378 61.7903 460.715 61.7903 465.292C61.7903 469.883 67.5399 474.234 76.355 476.932C74.3207 485.917 75.2248 493.065 79.2086 495.354C80.1268 495.89 81.2005 496.145 82.3871 496.145C86.272 496.145 91.3576 493.376 96.4997 488.573C101.642 493.348 106.728 496.088 110.612 496.088C111.799 496.088 112.873 495.834 113.805 495.297C117.775 493.008 118.665 485.874 116.616 476.918C125.375 474.22 131.096 469.869 131.096 465.292ZM112.703 455.869C112.18 457.692 111.531 459.57 110.796 461.449C110.217 460.319 109.609 459.189 108.945 458.059C108.296 456.929 107.603 455.827 106.911 454.753C108.917 455.05 110.853 455.417 112.703 455.869ZM106.233 470.914C105.131 472.821 104.001 474.63 102.829 476.311C100.724 476.494 98.5905 476.593 96.4432 476.593C94.3101 476.593 92.177 476.494 90.0862 476.325C88.9137 474.644 87.7694 472.85 86.6675 470.957C85.5939 469.106 84.6191 467.227 83.7291 465.334C84.605 463.441 85.5939 461.548 86.6534 459.698C87.7553 457.79 88.8854 455.982 90.0579 454.301C92.1628 454.118 94.296 454.019 96.4432 454.019C98.5764 454.019 100.71 454.118 102.8 454.287C103.973 455.968 105.117 457.762 106.219 459.655C107.293 461.506 108.267 463.385 109.157 465.278C108.267 467.171 107.293 469.064 106.233 470.914ZM110.796 469.078C111.559 470.971 112.209 472.864 112.746 474.7C110.895 475.152 108.945 475.534 106.925 475.83C107.618 474.743 108.31 473.627 108.96 472.482C109.609 471.352 110.217 470.208 110.796 469.078ZM96.4715 484.151C95.1577 482.795 93.8439 481.283 92.5442 479.63C93.8157 479.687 95.1153 479.729 96.4291 479.729C97.757 479.729 99.0708 479.701 100.356 479.63C99.0849 481.283 97.7712 482.795 96.4715 484.151ZM85.9612 475.83C83.9552 475.534 82.0198 475.166 80.1692 474.714C80.6919 472.892 81.3417 471.013 82.0763 469.134C82.6555 470.264 83.263 471.395 83.9269 472.525C84.5909 473.655 85.269 474.757 85.9612 475.83ZM96.4009 446.433C97.7146 447.789 99.0284 449.3 100.328 450.953C99.0567 450.897 97.757 450.854 96.4432 450.854C95.1153 450.854 93.8015 450.882 92.516 450.953C93.7874 449.3 95.1012 447.789 96.4009 446.433ZM85.9471 454.753C85.2548 455.841 84.5626 456.957 83.9128 458.101C83.263 459.231 82.6555 460.362 82.0763 461.492C81.3135 459.599 80.6636 457.706 80.1268 455.869C81.9774 455.431 83.9269 455.05 85.9471 454.753ZM73.1623 472.44C68.1615 470.307 64.9264 467.51 64.9264 465.292C64.9264 463.074 68.1615 460.263 73.1623 458.144C74.3772 457.621 75.7051 457.155 77.0754 456.717C77.8807 459.486 78.9402 462.368 80.254 465.32C78.9543 468.258 77.9089 471.126 77.1178 473.881C75.7193 473.443 74.3914 472.963 73.1623 472.44ZM80.7625 492.627C78.8413 491.525 78.0078 487.33 78.6576 481.933C78.813 480.605 79.0673 479.207 79.3781 477.78C82.147 478.458 85.1701 478.981 88.3486 479.32C90.2557 481.933 92.2335 484.306 94.2253 486.383C89.62 490.663 85.2972 493.008 82.3589 493.008C81.7231 492.994 81.1863 492.867 80.7625 492.627ZM114.271 481.862C114.935 487.259 114.116 491.455 112.209 492.571C111.785 492.825 111.234 492.938 110.584 492.938C107.66 492.938 103.323 490.607 98.7176 486.355C100.695 484.278 102.673 481.919 104.552 479.306C107.745 478.966 110.768 478.444 113.537 477.752C113.862 479.178 114.116 480.549 114.271 481.862ZM119.71 472.44C118.495 472.963 117.167 473.429 115.797 473.867C114.992 471.098 113.932 468.216 112.618 465.264C113.918 462.325 114.963 459.457 115.755 456.703C117.153 457.141 118.481 457.621 119.724 458.144C124.725 460.277 127.96 463.074 127.96 465.292C127.946 467.51 124.711 470.321 119.71 472.44Z" fill="#686868"/>
<path d="M96.4296 471.747C99.9951 471.747 102.885 468.857 102.885 465.291C102.885 461.726 99.9951 458.835 96.4296 458.835C92.864 458.835 89.9736 461.726 89.9736 465.291C89.9736 468.857 92.864 471.747 96.4296 471.747Z" fill="#686868"/>
</g>
<circle cx="235" cy="465.457" r="58.794" fill="#1F1F1F" stroke="#343434" stroke-width="2.41205"/>
<path d="M235.325 446.986L250.996 455.981V474.061L235.369 483.112L219.709 474.139V456.07L235.325 446.986ZM235.325 433.724L229.578 437.04L213.93 446.124L208.183 449.439V480.792L213.93 484.107L229.6 493.103L235.347 496.418L241.094 493.103L256.709 484.041L262.456 480.725V449.329L256.709 446.013L241.049 437.04L235.303 433.724H235.325Z" fill="#686868"/>
<circle cx="97" cy="611.186" r="58.794" fill="#1F1F1F" stroke="#343434" stroke-width="2.41205"/>
<g clip-path="url(#clip4_291_9166)">
<path d="M68.8174 583.004H125.278V639.465H68.8174V583.004Z" fill="#686868"/>
<path d="M120.657 625.999C120.244 623.423 118.564 621.26 113.589 619.242C111.861 618.448 109.934 617.879 109.36 616.569C109.156 615.807 109.129 615.378 109.258 614.916C109.628 613.419 111.415 612.952 112.832 613.381C113.744 613.687 114.608 614.39 115.129 615.512C117.566 613.934 117.56 613.945 119.262 612.861C118.639 611.894 118.306 611.449 117.898 611.036C116.433 609.399 114.437 608.556 111.243 608.621C110.691 608.69 110.132 608.765 109.58 608.835C107.986 609.238 106.467 610.075 105.576 611.197C102.903 614.229 103.665 619.537 106.918 621.721C110.122 624.126 114.828 624.673 115.43 626.922C116.015 629.675 113.406 630.566 110.814 630.25C108.903 629.852 107.841 628.881 106.692 627.115C104.578 628.339 104.578 628.339 102.404 629.589C102.919 630.717 103.461 631.226 104.325 632.203C108.415 636.352 118.65 636.148 120.485 629.869C120.56 629.654 121.054 628.215 120.657 625.999ZM99.5111 608.953H94.23C94.23 613.515 94.2085 618.045 94.2085 622.607C94.2085 625.51 94.3588 628.173 93.8865 628.988C93.1137 630.593 91.1118 630.394 90.1994 630.083C89.2709 629.627 88.7986 628.978 88.2512 628.06C88.1009 627.797 87.9882 627.593 87.9506 627.577C86.5176 628.452 85.09 629.332 83.657 630.207C84.3708 631.672 85.4227 632.944 86.7698 633.77C88.7825 634.978 91.4874 635.348 94.3159 634.699C96.1568 634.162 97.7453 633.051 98.5772 631.361C99.7794 629.144 99.5218 626.46 99.5111 623.493C99.5379 618.651 99.5111 613.81 99.5111 608.953Z" fill="#111111"/>
</g>
<circle cx="235" cy="611.186" r="58.794" fill="#1F1F1F" stroke="#343434" stroke-width="2.41205"/>
<g clip-path="url(#clip5_291_9166)">
<path d="M255.65 623.712C252.985 626.432 249.256 627.97 245.216 627.975C241.174 627.983 237.443 626.456 234.777 623.745C233.474 622.422 232.519 620.906 231.925 619.284C231.345 617.693 231.124 615.99 231.272 614.304C231.415 612.658 231.901 611.058 232.702 609.611C233.482 608.198 234.553 606.921 235.875 605.842C238.465 603.729 241.763 602.588 245.216 602.583C248.67 602.577 251.965 603.713 254.558 605.815C255.877 606.892 256.948 608.162 257.725 609.574C258.527 611.02 259.015 612.617 259.158 614.263C259.306 615.952 259.083 617.652 258.502 619.247C257.909 620.866 256.951 622.385 255.65 623.712Z" fill="#111111"/>
<path d="M236.598 614.476C236.719 612.277 237.799 610.337 239.423 608.964C241.018 607.612 243.165 606.789 245.505 606.789C247.847 606.792 249.992 607.615 251.587 608.964C253.211 610.34 254.29 612.277 254.414 614.476C254.538 616.737 253.629 618.839 252.034 620.396C250.41 621.98 248.095 622.976 245.505 622.976C242.914 622.976 240.597 621.98 238.972 620.396C237.38 618.839 236.474 616.737 236.598 614.476Z" fill="#686868"/>
<path d="M222.408 618.928C222.425 619.786 222.7 621.459 223.11 622.767C223.976 625.533 225.444 628.094 227.489 630.349C229.588 632.667 232.168 634.529 235.152 635.848C238.29 637.238 241.687 637.948 245.214 637.939C248.74 637.934 252.137 637.214 255.273 635.813C258.254 634.478 260.834 632.611 262.93 630.287C264.973 628.021 266.438 625.458 267.304 622.692C267.736 621.313 268.014 619.891 268.127 618.453C268.235 617.05 268.189 615.636 267.992 614.241C267.603 611.505 266.656 608.939 265.199 606.6C263.864 604.452 262.148 602.569 260.105 600.982L260.108 600.979L239.499 585.157C239.483 585.144 239.464 585.127 239.448 585.114C238.09 584.078 235.818 584.081 234.332 585.122C232.826 586.174 232.656 587.915 233.992 589.013L233.986 589.016L242.583 596.009L216.375 596.036H216.34C214.176 596.039 212.093 597.461 211.68 599.255C211.259 601.085 212.73 602.601 214.983 602.612L214.98 602.62L228.263 602.593L204.56 620.787C204.53 620.811 204.498 620.833 204.471 620.854C202.237 622.565 201.513 625.414 202.919 627.217C204.349 629.049 207.387 629.052 209.649 627.225L222.584 616.64C222.584 616.64 222.395 618.07 222.408 618.928ZM255.65 623.712C252.984 626.432 249.256 627.97 245.216 627.975C241.174 627.983 237.443 626.456 234.777 623.744C233.474 622.422 232.519 620.906 231.925 619.284C231.345 617.692 231.124 615.99 231.272 614.303C231.415 612.657 231.901 611.057 232.702 609.611C233.482 608.197 234.553 606.921 235.875 605.842C238.465 603.729 241.763 602.588 245.216 602.582C248.67 602.577 251.965 603.713 254.558 605.815C255.877 606.891 256.948 608.162 257.725 609.573C258.527 611.019 259.015 612.617 259.158 614.263C259.306 615.952 259.082 617.652 258.502 619.246C257.909 620.865 256.951 622.384 255.65 623.712Z" fill="#686868"/>
</g>
<circle cx="166" cy="756.914" r="58.794" fill="#1F1F1F" stroke="#343434" stroke-width="2.41205"/>
<path d="M147.289 746.358H160.861V747.437H148.533V755.556H160.126V756.635H148.533V765.548H161.002V766.627H147.289V746.358ZM162.077 746.358H163.519L169.909 755.272L176.44 746.358L185.324 735.036L170.729 756.209L178.25 766.627H176.751L169.909 757.146L163.038 766.627H161.568L169.145 756.209L162.077 746.358ZM178.787 747.437V746.358H194.253V747.437H187.128V766.627H185.884V747.437H178.787ZM130.31 746.358H131.865L153.309 778.447L144.447 766.627L131.61 747.891L131.554 766.627H130.31V746.358ZM194.128 765.222C193.874 765.222 193.683 765.026 193.683 764.771C193.683 764.517 193.874 764.32 194.128 764.32C194.385 764.32 194.573 764.516 194.573 764.771C194.573 765.026 194.385 765.222 194.128 765.222ZM195.35 764.035H196.016C196.025 764.395 196.288 764.638 196.676 764.638C197.108 764.638 197.354 764.377 197.354 763.889V760.799H198.031V763.892C198.031 764.771 197.523 765.277 196.682 765.277C195.892 765.277 195.35 764.786 195.35 764.035V764.035ZM198.918 763.995H199.59C199.647 764.411 200.053 764.674 200.637 764.674C201.181 764.674 201.581 764.392 201.581 764.004C201.581 763.671 201.326 763.471 200.749 763.335L200.186 763.199C199.396 763.014 199.036 762.632 199.036 761.99C199.036 761.211 199.671 760.693 200.624 760.693C201.511 760.693 202.159 761.211 202.198 761.947H201.538C201.475 761.544 201.124 761.293 200.615 761.293C200.08 761.293 199.723 761.55 199.723 761.944C199.723 762.256 199.953 762.435 200.522 762.568L201.003 762.686C201.898 762.896 202.268 763.259 202.268 763.917C202.268 764.753 201.62 765.277 200.585 765.277C199.617 765.277 198.966 764.777 198.918 763.995V763.995Z" fill="#686868"/>
<g style="mix-blend-mode:overlay" opacity="0.7">
<rect x="-1" y="2" width="331" height="15" fill="white"/>
</g>
<g style="mix-blend-mode:overlay" opacity="0.7">
<rect x="-1" y="842" width="331" height="15" fill="#4B2E24"/>
</g>
</g>
<rect x="2" y="2" width="328" height="854.914" rx="8" stroke="#363535" stroke-width="3"/>
<defs>
<filter id="filter0_d_291_9166" x="51.7361" y="36.752" width="227.63" height="41.6907" filterUnits="userSpaceOnUse" color-interpolation-filters="sRGB">
<feFlood flood-opacity="0" result="BackgroundImageFix"/>
<feColorMatrix in="SourceAlpha" type="matrix" values="0 0 0 0 0 0 0 0 0 0 0 0 0 0 0 0 0 0 127 0" result="hardAlpha"/>
<feOffset dy="9.37085"/>
<feComposite in2="hardAlpha" operator="out"/>
<feColorMatrix type="matrix" values="0 0 0 0 0.0313726 0 0 0 0 0.00784314 0 0 0 0 0.0235294 0 0 0 1 0"/>
<feBlend mode="normal" in2="BackgroundImageFix" result="effect1_dropShadow_291_9166"/>
<feBlend mode="normal" in="SourceGraphic" in2="effect1_dropShadow_291_9166" result="shape"/>
</filter>
<clipPath id="clip0_291_9166">
<rect x="2" y="2" width="328" height="854.914" rx="8" fill="white"/>
</clipPath>
<clipPath id="clip1_291_9166">
<rect width="64.0165" height="64.0165" fill="white" transform="translate(206.414 146.79)"/>
</clipPath>
<clipPath id="clip2_291_9166">
<rect width="66.1757" height="66.1757" fill="white" transform="translate(201.718 286.865)"/>
</clipPath>
<clipPath id="clip3_291_9166">
<rect width="69.3059" height="78.9721" fill="white" transform="translate(61.7888 425.799)"/>
</clipPath>
<clipPath id="clip4_291_9166">
<rect width="56.4608" height="56.4608" fill="white" transform="translate(68.8179 583.004)"/>
</clipPath>
<clipPath id="clip5_291_9166">
<rect width="67.2699" height="53.8698" fill="white" transform="translate(201.239 584.078)"/>
</clipPath>
</defs>
</svg>
