<svg width="1272" height="262" viewBox="0 0 1272 262" fill="none" xmlns="http://www.w3.org/2000/svg">
<g clip-path="url(#clip0_219_34186)">
<rect x="2" y="2" width="1268" height="258.13" rx="8" fill="#0D0D0D"/>
<path d="M314 52L483.5 48.5359V55.4641L314 52Z" fill="url(#paint0_linear_219_34186)"/>
<g filter="url(#filter0_d_219_34186)">
<path d="M543.144 37.584C543.315 39.2693 543.208 41.1787 542.824 43.312C541.907 43.44 540.104 43.6 537.416 43.792C537.16 45.0933 536.925 47.8133 536.712 51.952C536.499 56.0907 536.413 59.376 536.456 61.808C536.285 61.8293 535.848 61.904 535.144 62.032C534.461 62.16 534.035 62.2347 533.864 62.256C533.715 62.2773 533.288 62.3413 532.584 62.448C531.88 62.5547 531.443 62.5973 531.272 62.576C531.123 62.576 530.696 62.5973 529.992 62.64C529.309 62.704 528.883 62.6933 528.712 62.608C528.456 59.4507 528.307 56.3573 528.264 53.328C528.221 50.2773 528.232 47.3653 528.296 44.592C527.144 44.4853 525.011 44.592 521.896 44.912C521.789 42.5867 521.981 40.4 522.472 38.352C523.304 37.9253 526.707 37.6267 532.68 37.456C538.653 37.2853 542.141 37.328 543.144 37.584ZM556.829 49.904C556.936 48.3467 556.797 47.2267 556.413 46.544C556.306 46.544 556.125 46.5547 555.869 46.576C555.613 46.576 555.421 46.5867 555.293 46.608C555.186 46.608 555.016 46.6187 554.781 46.64C554.568 46.6613 554.365 46.6933 554.173 46.736C554.002 46.7787 553.8 46.832 553.565 46.896C553.33 46.96 553.085 47.0453 552.829 47.152C552.402 48.5813 552.146 49.6907 552.061 50.48C553.746 50.544 555.336 50.352 556.829 49.904ZM564.349 54C563.261 54.1707 561.384 54.3627 558.717 54.576C556.05 54.768 553.682 54.896 551.613 54.96C551.677 55.536 551.826 56.0267 552.061 56.432C552.68 56.816 554.418 57.136 557.277 57.392C560.157 57.6267 561.714 57.7973 561.949 57.904C561.992 58.6933 561.928 59.6427 561.757 60.752C561.586 61.8613 561.362 62.512 561.085 62.704C554.45 62.6187 549.17 61.8933 545.245 60.528C544.285 59.3547 543.922 56.6453 544.157 52.4C544.413 48.1547 545.085 45.232 546.173 43.632C547.453 42.9493 550.205 42.3947 554.429 41.968C558.674 41.52 561.245 41.488 562.141 41.872C562.888 43.1093 563.453 44.912 563.837 47.28C564.221 49.648 564.392 51.888 564.349 54ZM582.368 58.224C582.411 59.0133 582.336 59.888 582.144 60.848C581.974 61.808 581.75 62.384 581.472 62.576C579.382 62.5547 577.654 62.512 576.288 62.448C574.944 62.384 573.291 62.224 571.328 61.968C569.387 61.6907 567.723 61.3067 566.336 60.816C565.376 59.6427 565.014 56.944 565.248 52.72C565.504 48.4747 566.176 45.552 567.264 43.952C568.566 43.2693 571.104 42.7147 574.88 42.288C578.656 41.84 580.992 41.808 581.888 42.192C582.102 43.8347 582.102 45.2427 581.888 46.416C581.334 46.4587 580.63 46.512 579.776 46.576C578.944 46.6187 578.315 46.6613 577.888 46.704C577.462 46.7253 576.939 46.8 576.32 46.928C575.723 47.056 575.136 47.2373 574.56 47.472C574.134 48.8587 573.846 50.5653 573.696 52.592C573.547 54.6187 573.686 56.1547 574.112 57.2C574.731 57.584 576.203 57.8293 578.528 57.936C580.854 58.0213 582.134 58.1173 582.368 58.224ZM602.459 41.488C602.737 44.5387 602.694 51.5787 602.331 62.608C601.777 62.7147 600.635 62.768 598.907 62.768C597.201 62.768 596.187 62.7467 595.867 62.704C595.846 62.32 595.857 61.2747 595.899 59.568C595.963 57.8613 595.91 56.7733 595.739 56.304C592.667 56.0693 590.993 56.2187 590.715 56.752C590.523 59.3547 590.459 61.3493 590.523 62.736C588.646 63.0987 586.406 63.184 583.803 62.992C583.633 61.968 583.526 59.92 583.483 56.848C583.462 53.7547 583.473 50.9493 583.515 48.432C583.558 45.9147 583.611 43.8027 583.675 42.096C584.486 41.8613 585.83 41.7227 587.707 41.68C589.585 41.6373 590.63 41.7227 590.843 41.936C590.673 42.9173 590.587 45.2 590.587 48.784C591.355 48.9333 592.326 48.9547 593.499 48.848C594.694 48.72 595.505 48.5813 595.931 48.432C596.038 48.24 596.059 47.2373 595.995 45.424C595.931 43.5893 595.921 42.4267 595.963 41.936C596.411 41.7013 597.478 41.5413 599.163 41.456C600.849 41.3493 601.947 41.36 602.459 41.488ZM625.165 42C625.251 49.7227 625.208 56.1867 625.037 61.392C621.24 61.8827 618.243 62.1387 616.045 62.16C614.68 60.176 613.283 57.552 611.853 54.288L610.509 54.384C610.232 56.816 610.168 59.3227 610.317 61.904C608.355 62.3733 606.456 62.448 604.621 62.128C604.429 60.656 604.312 57.616 604.269 53.008C604.227 48.3787 604.259 44.9013 604.365 42.576C604.621 42.3413 606.115 42.1067 608.845 41.872C611.597 41.6373 613.4 41.584 614.253 41.712C614.403 42.1173 614.723 43.0773 615.213 44.592C615.725 46.0853 616.173 47.376 616.557 48.464C616.963 49.5307 617.347 50.4587 617.709 51.248L618.957 51.088C618.979 49.8933 619.075 47.0027 619.245 42.416C621.165 41.968 623.139 41.8293 625.165 42ZM639.73 56.24C639.73 55.8987 639.751 55.2587 639.794 54.32C639.837 53.36 639.858 52.592 639.858 52.016C639.879 51.4187 639.879 50.672 639.858 49.776C639.837 48.88 639.773 48.0587 639.666 47.312C637.682 47.12 636.082 47.2267 634.866 47.632C634.631 48.08 634.461 49.4453 634.354 51.728C634.247 53.9893 634.258 55.6427 634.386 56.688C635.133 56.816 636.071 56.8267 637.202 56.72C638.333 56.592 639.175 56.432 639.73 56.24ZM646.962 45.744C647.154 46.6827 647.261 48.1333 647.282 50.096C647.303 52.0587 647.186 54.096 646.93 56.208C646.695 58.32 646.333 59.8773 645.842 60.88C641.575 61.904 637.031 62.3733 632.21 62.288C630.269 61.4987 628.434 59.856 626.706 57.36C626.599 51.4507 627.25 46.8213 628.658 43.472C630.407 43.024 632.775 42.6933 635.762 42.48C638.749 42.2667 641.117 42.32 642.866 42.64C645.213 44.24 646.578 45.2747 646.962 45.744ZM656.718 37.36C656.504 39.7067 656.376 43.9413 656.334 50.064C656.291 56.1653 656.366 59.9947 656.558 61.552C655.214 61.9573 654.062 62.192 653.102 62.256C652.142 62.32 650.99 62.256 649.646 62.064C649.432 59.9947 649.294 56.016 649.23 50.128C649.166 44.2187 649.272 40.1013 649.55 37.776C652.771 37.0933 655.16 36.9547 656.718 37.36ZM671.615 56.24C671.615 55.8987 671.636 55.2587 671.679 54.32C671.722 53.36 671.743 52.592 671.743 52.016C671.764 51.4187 671.764 50.672 671.743 49.776C671.722 48.88 671.658 48.0587 671.551 47.312C669.567 47.12 667.967 47.2267 666.751 47.632C666.516 48.08 666.346 49.4453 666.239 51.728C666.132 53.9893 666.143 55.6427 666.271 56.688C667.018 56.816 667.956 56.8267 669.087 56.72C670.218 56.592 671.06 56.432 671.615 56.24ZM678.847 45.744C679.039 46.6827 679.146 48.1333 679.167 50.096C679.188 52.0587 679.071 54.096 678.815 56.208C678.58 58.32 678.218 59.8773 677.727 60.88C673.46 61.904 668.916 62.3733 664.095 62.288C662.154 61.4987 660.319 59.856 658.591 57.36C658.484 51.4507 659.135 46.8213 660.543 43.472C662.292 43.024 664.66 42.6933 667.647 42.48C670.634 42.2667 673.002 42.32 674.751 42.64C677.098 44.24 678.463 45.2747 678.847 45.744ZM692.219 47.728C692.197 47.728 691.717 47.7493 690.779 47.792C689.861 47.8347 689.2 47.9413 688.795 48.112C688.432 49.3067 688.176 50.7253 688.027 52.368C687.877 53.9893 687.899 55.3227 688.091 56.368C688.283 56.4747 688.571 56.5387 688.955 56.56C689.339 56.56 689.904 56.5387 690.651 56.496C691.397 56.4533 691.867 56.432 692.059 56.432C692.165 54.2987 692.219 51.3973 692.219 47.728ZM699.963 42.448C700.048 43.3867 700.048 46.48 699.963 51.728C699.877 56.9547 699.739 60.0693 699.547 61.072C698.864 64.528 697.659 66.5867 695.931 67.248C693.456 68.1867 689.083 68.7947 682.811 69.072C682.213 67.536 681.968 66.0853 682.075 64.72C682.395 64.6773 683.067 64.6133 684.091 64.528C685.136 64.4427 685.968 64.368 686.587 64.304C687.227 64.24 687.963 64.1333 688.795 63.984C689.648 63.8347 690.352 63.664 690.907 63.472C691.205 63.216 691.461 62.416 691.675 61.072C691.077 61.0933 689.989 61.1573 688.411 61.264C686.853 61.3493 685.584 61.4027 684.603 61.424C682.491 60.4213 681.136 59.5787 680.539 58.896C680.069 57.0827 680.037 54.5333 680.443 51.248C680.869 47.9413 681.541 45.616 682.459 44.272C682.821 44.08 683.301 43.9307 683.899 43.824C684.496 43.7173 685.2 43.6533 686.011 43.632C686.821 43.6107 687.536 43.6 688.155 43.6C688.773 43.6 689.541 43.6213 690.459 43.664C691.376 43.6853 691.984 43.696 692.283 43.696L692.379 42.288C696.261 42.2027 698.789 42.256 699.963 42.448ZM708.837 43.024C708.837 48.208 708.645 54.3733 708.261 61.52C707.92 61.6907 707.013 61.8187 705.541 61.904C704.069 61.9893 703.035 62 702.437 61.936C702.053 56.368 701.989 50.192 702.245 43.408C703.824 43.1093 706.021 42.9813 708.837 43.024ZM709.701 40.528C709.339 40.9973 708.048 41.3173 705.829 41.488C703.611 41.6373 702.341 41.5093 702.021 41.104C701.68 40.656 701.68 39.7813 702.021 38.48C702.213 37.776 703.472 37.2747 705.797 36.976C706.715 36.8693 707.792 37.04 709.029 37.488C709.648 38.5547 709.872 39.568 709.701 40.528ZM723.155 49.904C723.262 48.3467 723.123 47.2267 722.739 46.544C722.633 46.544 722.451 46.5547 722.195 46.576C721.939 46.576 721.747 46.5867 721.619 46.608C721.513 46.608 721.342 46.6187 721.107 46.64C720.894 46.6613 720.691 46.6933 720.499 46.736C720.329 46.7787 720.126 46.832 719.891 46.896C719.657 46.96 719.411 47.0453 719.155 47.152C718.729 48.5813 718.473 49.6907 718.387 50.48C720.073 50.544 721.662 50.352 723.155 49.904ZM730.675 54C729.587 54.1707 727.71 54.3627 725.043 54.576C722.377 54.768 720.009 54.896 717.939 54.96C718.003 55.536 718.153 56.0267 718.387 56.432C719.006 56.816 720.745 57.136 723.603 57.392C726.483 57.6267 728.041 57.7973 728.275 57.904C728.318 58.6933 728.254 59.6427 728.083 60.752C727.913 61.8613 727.689 62.512 727.411 62.704C720.777 62.6187 715.497 61.8933 711.571 60.528C710.611 59.3547 710.249 56.6453 710.483 52.4C710.739 48.1547 711.411 45.232 712.499 43.632C713.779 42.9493 716.531 42.3947 720.755 41.968C725.001 41.52 727.571 41.488 728.467 41.872C729.214 43.1093 729.779 44.912 730.163 47.28C730.547 49.648 730.718 51.888 730.675 54ZM748.63 45.936C747.862 46.0427 746.593 46.1813 744.822 46.352C743.052 46.5227 741.697 46.6933 740.758 46.864C740.374 47.44 740.161 48.368 740.118 49.648C741.036 49.7973 742.433 50.128 744.31 50.64C746.188 51.1307 747.606 51.4507 748.566 51.6C749.1 52.7733 749.292 54.224 749.142 55.952C748.993 57.68 748.588 59.088 747.926 60.176C744.684 61.6693 739.905 62.7573 733.59 63.44C733.334 63.2693 733.11 62.5867 732.918 61.392C732.748 60.1973 732.684 59.344 732.726 58.832C734.092 58.768 735.574 58.608 737.174 58.352C738.796 58.0747 739.926 57.7867 740.566 57.488C740.737 56.8907 740.79 56.2827 740.726 55.664C740.385 55.4293 738.988 55.0667 736.534 54.576C734.102 54.0853 732.577 53.6587 731.958 53.296C731.894 51.6747 732.012 49.968 732.31 48.176C732.63 46.384 733.121 44.8267 733.782 43.504C738.092 42.0533 742.881 41.4133 748.15 41.584C748.513 42.6293 748.673 44.08 748.63 45.936Z" fill="white"/>
</g>
<path d="M958 52L788.5 55.4641V48.5359L958 52Z" fill="url(#paint1_linear_219_34186)"/>
<circle cx="108.565" cy="167.065" r="51.8591" fill="#1F1F1F" stroke="#343434" stroke-width="2.41205"/>
<path d="M92.0165 157.729H104.02V158.684H93.1168V165.864H103.37V166.818H93.1168V174.701H104.145V175.655H92.0165V157.729ZM105.095 157.729H106.37L112.022 165.613L117.798 157.729L125.655 147.716L112.747 166.441L119.399 175.655H118.074L112.022 167.27L105.945 175.655H104.645L111.347 166.441L105.095 157.729ZM119.874 158.684V157.729H133.553V158.683H127.251V175.655H126.151V158.684H119.874ZM77 157.729H78.3754L97.3408 186.109L89.5034 175.655L78.1503 159.085L78.1003 175.655H77V157.729ZM133.442 174.413C133.217 174.413 133.048 174.239 133.048 174.014C133.048 173.789 133.217 173.615 133.442 173.615C133.669 173.615 133.835 173.789 133.835 174.014C133.835 174.239 133.669 174.413 133.442 174.413ZM134.523 173.363H135.112C135.12 173.682 135.353 173.896 135.695 173.896C136.078 173.896 136.295 173.666 136.295 173.234V170.501H136.894V173.237C136.894 174.014 136.445 174.461 135.701 174.461C135.002 174.461 134.523 174.027 134.523 173.363V173.363ZM137.678 173.328H138.272C138.323 173.695 138.682 173.928 139.198 173.928C139.68 173.928 140.033 173.679 140.033 173.336C140.033 173.041 139.808 172.864 139.297 172.744L138.8 172.623C138.101 172.46 137.783 172.122 137.783 171.554C137.783 170.865 138.345 170.407 139.188 170.407C139.972 170.407 140.544 170.865 140.579 171.516H139.996C139.94 171.16 139.629 170.938 139.18 170.938C138.706 170.938 138.39 171.165 138.39 171.514C138.39 171.79 138.593 171.948 139.097 172.066L139.522 172.17C140.314 172.355 140.641 172.677 140.641 173.258C140.641 173.998 140.068 174.461 139.153 174.461C138.296 174.461 137.721 174.019 137.678 173.328V173.328Z" fill="#686868"/>
<circle cx="240.424" cy="167.065" r="51.8591" fill="#1F1F1F" stroke="#343434" stroke-width="2.41205"/>
<path d="M251.26 177.654C253.245 177.448 254.75 175.738 254.682 173.685C254.614 171.632 252.903 169.989 250.85 169.989H250.713C248.591 170.058 246.949 171.837 247.018 173.958C247.086 174.985 247.497 175.874 248.112 176.49C245.786 181.076 242.227 184.429 236.89 187.234C233.263 189.151 229.499 189.835 225.736 189.356C222.656 188.945 220.261 187.577 218.756 185.318C216.566 181.965 216.361 178.338 218.208 174.711C219.509 172.111 221.561 170.195 222.862 169.236C222.588 168.347 222.177 166.841 221.972 165.747C212.049 172.932 213.076 182.65 216.087 187.234C218.345 190.656 222.93 192.778 227.994 192.778C229.362 192.778 230.731 192.641 232.1 192.299C240.859 190.588 247.497 185.387 251.26 177.654ZM263.304 169.168C258.104 163.078 250.439 159.724 241.68 159.724H240.585C239.969 158.493 238.669 157.671 237.232 157.671H237.095C234.974 157.74 233.332 159.519 233.4 161.64C233.468 163.693 235.179 165.336 237.232 165.336H237.369C238.874 165.267 240.175 164.309 240.722 163.009H241.954C247.155 163.009 252.082 164.515 256.53 167.457C259.951 169.716 262.415 172.658 263.783 176.217C264.947 179.091 264.878 181.897 263.646 184.292C261.73 187.919 258.514 189.903 254.271 189.903C251.534 189.903 248.934 189.082 247.565 188.466C246.812 189.151 245.444 190.245 244.486 190.93C247.428 192.299 250.439 193.051 253.313 193.051C259.883 193.051 264.741 189.424 266.589 185.797C268.573 181.828 268.437 174.985 263.304 169.168ZM228.541 178.817C228.61 180.87 230.321 182.512 232.373 182.512H232.51C234.632 182.444 236.274 180.665 236.206 178.543C236.137 176.49 234.426 174.848 232.373 174.848H232.237C232.1 174.848 231.894 174.848 231.758 174.916C228.952 170.263 227.789 165.199 228.199 159.724C228.473 155.618 229.842 152.06 232.237 149.117C234.221 146.585 238.053 145.353 240.654 145.285C247.907 145.148 250.987 154.181 251.192 157.808C252.082 158.013 253.587 158.492 254.614 158.835C253.792 147.748 246.949 142 240.38 142C234.221 142 228.541 146.448 226.283 153.018C223.135 161.777 225.188 170.195 229.02 176.833C228.678 177.312 228.473 178.064 228.541 178.817Z" fill="#686868"/>
<circle cx="372.282" cy="167.065" r="51.8591" fill="#1F1F1F" stroke="#343434" stroke-width="2.41205"/>
<g clip-path="url(#clip1_219_34186)">
<path fill-rule="evenodd" clip-rule="evenodd" d="M361.262 199.618L347.276 143L403.34 159.141L361.262 199.618Z" stroke="#686868" stroke-width="1.29455" stroke-miterlimit="10" stroke-linejoin="round"/>
<path fill-rule="evenodd" clip-rule="evenodd" d="M375.298 151.072L382.286 179.389L354.27 171.316L375.298 151.072Z" stroke="#686868" stroke-width="1.29455" stroke-miterlimit="10" stroke-linejoin="round"/>
<path fill-rule="evenodd" clip-rule="evenodd" d="M368.347 175.157L364.876 161.09L378.795 165.085L368.347 175.157ZM361.404 147.04L364.875 161.107L350.956 157.111L361.404 147.04ZM389.241 155.059L392.711 169.126L378.792 165.13L389.241 155.059ZM368.348 175.166L371.819 189.233L357.9 185.238L368.348 175.166Z" stroke="#686868" stroke-width="1.29455" stroke-miterlimit="10" stroke-linejoin="round"/>
</g>
<circle cx="504.141" cy="167.065" r="51.8591" fill="#1F1F1F" stroke="#343434" stroke-width="2.41205"/>
<g clip-path="url(#clip2_219_34186)">
<path d="M534.297 166.919C534.297 162.858 529.212 159.01 521.416 156.624C523.215 148.678 522.415 142.356 518.892 140.332C518.08 139.857 517.13 139.632 516.093 139.632V142.418C516.668 142.418 517.13 142.531 517.517 142.743C519.217 143.718 519.954 147.428 519.379 152.201C519.242 153.375 519.017 154.612 518.742 155.874C516.293 155.275 513.619 154.812 510.808 154.512C509.122 152.201 507.372 150.102 505.611 148.265C509.684 144.48 513.507 142.406 516.106 142.406V139.62C512.67 139.62 508.172 142.068 503.624 146.316C499.076 142.093 494.579 139.67 491.143 139.67V142.456C493.729 142.456 497.565 144.517 501.638 148.278C499.888 150.115 498.139 152.201 496.478 154.512C493.654 154.812 490.98 155.275 488.531 155.887C488.244 154.637 488.032 153.425 487.882 152.264C487.295 147.491 488.019 143.78 489.706 142.793C490.081 142.568 490.568 142.468 491.143 142.468V139.682C490.093 139.682 489.144 139.907 488.319 140.382C484.808 142.406 484.021 148.715 485.833 156.636C478.062 159.035 473.001 162.871 473.001 166.919C473.001 170.979 478.087 174.828 485.883 177.214C484.084 185.16 484.883 191.482 488.407 193.506C489.219 193.981 490.168 194.206 491.218 194.206C494.654 194.206 499.151 191.757 503.699 187.509C508.247 191.732 512.745 194.156 516.181 194.156C517.23 194.156 518.18 193.931 519.004 193.456C522.515 191.432 523.302 185.123 521.491 177.201C529.237 174.815 534.297 170.967 534.297 166.919ZM518.03 158.585C517.567 160.197 516.993 161.859 516.343 163.521C515.831 162.521 515.294 161.522 514.706 160.522C514.132 159.523 513.519 158.548 512.907 157.598C514.681 157.861 516.393 158.186 518.03 158.585ZM512.307 171.892C511.333 173.578 510.333 175.177 509.296 176.664C507.435 176.827 505.548 176.914 503.649 176.914C501.763 176.914 499.876 176.827 498.027 176.677C496.99 175.19 495.978 173.603 495.003 171.929C494.054 170.292 493.192 168.631 492.405 166.956C493.179 165.282 494.054 163.608 494.991 161.971C495.965 160.285 496.965 158.685 498.002 157.199C499.863 157.036 501.75 156.949 503.649 156.949C505.536 156.949 507.422 157.036 509.271 157.186C510.308 158.673 511.32 160.26 512.295 161.934C513.245 163.571 514.107 165.232 514.894 166.906C514.107 168.581 513.245 170.255 512.307 171.892ZM516.343 170.267C517.018 171.942 517.592 173.616 518.067 175.24C516.431 175.64 514.706 175.977 512.92 176.239C513.532 175.277 514.144 174.29 514.719 173.278C515.294 172.279 515.831 171.267 516.343 170.267ZM503.674 183.598C502.512 182.399 501.35 181.062 500.201 179.6C501.325 179.65 502.475 179.688 503.637 179.688C504.811 179.688 505.973 179.663 507.11 179.6C505.986 181.062 504.824 182.399 503.674 183.598ZM494.379 176.239C492.605 175.977 490.893 175.652 489.256 175.252C489.718 173.641 490.293 171.979 490.943 170.317C491.455 171.317 491.992 172.316 492.58 173.316C493.167 174.315 493.766 175.29 494.379 176.239ZM503.612 150.24C504.774 151.439 505.936 152.776 507.085 154.238C505.961 154.188 504.811 154.15 503.649 154.15C502.475 154.15 501.313 154.175 500.176 154.238C501.3 152.776 502.462 151.439 503.612 150.24ZM494.366 157.598C493.754 158.56 493.142 159.548 492.567 160.56C491.992 161.559 491.455 162.559 490.943 163.558C490.268 161.884 489.693 160.21 489.219 158.585C490.855 158.198 492.58 157.861 494.366 157.598ZM483.059 173.241C478.636 171.354 475.775 168.88 475.775 166.919C475.775 164.957 478.636 162.471 483.059 160.597C484.134 160.135 485.308 159.722 486.52 159.335C487.232 161.784 488.169 164.333 489.331 166.944C488.182 169.543 487.257 172.079 486.557 174.515C485.321 174.128 484.146 173.703 483.059 173.241ZM489.781 191.095C488.082 190.12 487.345 186.41 487.919 181.637C488.057 180.462 488.282 179.226 488.556 177.964C491.005 178.563 493.679 179.026 496.49 179.325C498.177 181.637 499.926 183.736 501.688 185.572C497.615 189.358 493.791 191.432 491.193 191.432C490.63 191.42 490.156 191.307 489.781 191.095ZM519.417 181.574C520.004 186.347 519.279 190.058 517.592 191.045C517.218 191.27 516.73 191.37 516.156 191.37C513.569 191.37 509.734 189.308 505.661 185.547C507.41 183.711 509.159 181.624 510.821 179.313C513.644 179.013 516.318 178.551 518.767 177.939C519.054 179.201 519.279 180.412 519.417 181.574ZM524.227 173.241C523.152 173.703 521.978 174.115 520.766 174.503C520.054 172.054 519.117 169.505 517.955 166.894C519.104 164.295 520.029 161.759 520.728 159.323C521.965 159.71 523.14 160.135 524.239 160.597C528.662 162.484 531.523 164.957 531.523 166.919C531.511 168.88 528.65 171.367 524.227 173.241Z" fill="#686868"/>
<path d="M503.637 172.628C506.79 172.628 509.347 170.072 509.347 166.919C509.347 163.765 506.79 161.209 503.637 161.209C500.484 161.209 497.927 163.765 497.927 166.919C497.927 170.072 500.484 172.628 503.637 172.628Z" fill="#686868"/>
</g>
<circle cx="636" cy="167.065" r="51.8591" fill="#1F1F1F" stroke="#343434" stroke-width="2.41205"/>
<g clip-path="url(#clip3_219_34186)">
<path d="M611.075 142.141H661.01V192.076H611.075V142.141Z" fill="#686868"/>
<path d="M656.923 180.166C656.558 177.888 655.072 175.975 650.672 174.19C649.143 173.488 647.439 172.985 646.931 171.827C646.751 171.152 646.727 170.773 646.841 170.365C647.169 169.04 648.749 168.627 650.003 169.007C650.81 169.278 651.574 169.899 652.034 170.891C654.189 169.496 654.184 169.505 655.689 168.547C655.138 167.692 654.844 167.298 654.483 166.933C653.188 165.485 651.422 164.74 648.598 164.797C648.109 164.858 647.615 164.925 647.126 164.987C645.716 165.343 644.373 166.083 643.585 167.075C641.221 169.757 641.895 174.451 644.772 176.383C647.606 178.51 651.768 178.994 652.3 180.983C652.817 183.418 650.511 184.206 648.218 183.926C646.528 183.575 645.588 182.715 644.572 181.154C642.702 182.236 642.702 182.236 640.78 183.342C641.236 184.339 641.715 184.79 642.479 185.654C646.096 189.323 655.148 189.142 656.771 183.589C656.838 183.399 657.275 182.127 656.923 180.166ZM638.221 165.091H633.551C633.551 169.126 633.532 173.132 633.532 177.167C633.532 179.734 633.665 182.089 633.247 182.81C632.563 184.229 630.793 184.054 629.986 183.779C629.165 183.375 628.747 182.801 628.263 181.989C628.13 181.757 628.03 181.576 627.997 181.562C626.73 182.336 625.467 183.114 624.2 183.888C624.831 185.184 625.761 186.309 626.953 187.04C628.733 188.108 631.125 188.435 633.627 187.861C635.255 187.386 636.66 186.404 637.395 184.908C638.459 182.948 638.231 180.575 638.221 177.95C638.245 173.668 638.221 169.387 638.221 165.091Z" fill="#111111"/>
</g>
<circle cx="767.859" cy="167.065" r="51.8591" fill="#1F1F1F" stroke="#343434" stroke-width="2.41205"/>
<g clip-path="url(#clip4_219_34186)">
<path d="M786.122 178.144C783.765 180.549 780.467 181.91 776.894 181.914C773.319 181.922 770.019 180.571 767.661 178.173C766.509 177.003 765.664 175.662 765.139 174.228C764.626 172.82 764.43 171.314 764.562 169.823C764.688 168.367 765.118 166.952 765.826 165.673C766.516 164.423 767.463 163.294 768.633 162.339C770.924 160.471 773.84 159.461 776.894 159.457C779.949 159.452 782.862 160.456 785.156 162.315C786.323 163.268 787.27 164.392 787.957 165.64C788.666 166.919 789.098 168.331 789.224 169.787C789.356 171.281 789.158 172.784 788.645 174.195C788.12 175.626 787.272 176.97 786.122 178.144Z" fill="#111111"/>
<path d="M769.272 169.976C769.379 168.031 770.334 166.315 771.77 165.1C773.181 163.905 775.08 163.177 777.149 163.177C779.22 163.179 781.118 163.907 782.528 165.1C783.964 166.317 784.919 168.031 785.029 169.976C785.139 171.975 784.334 173.834 782.924 175.211C781.487 176.612 779.44 177.493 777.149 177.493C774.858 177.493 772.808 176.612 771.372 175.211C769.964 173.834 769.162 171.975 769.272 169.976Z" fill="#686868"/>
<path d="M756.723 173.913C756.737 174.672 756.98 176.151 757.343 177.309C758.109 179.755 759.407 182.019 761.216 184.014C763.073 186.064 765.354 187.711 767.993 188.878C770.769 190.107 773.773 190.734 776.892 190.727C780.011 190.722 783.015 190.085 785.788 188.847C788.425 187.665 790.707 186.014 792.561 183.959C794.367 181.955 795.663 179.688 796.429 177.242C796.811 176.022 797.057 174.765 797.157 173.493C797.252 172.252 797.212 171.002 797.038 169.768C796.694 167.348 795.856 165.079 794.568 163.01C793.386 161.11 791.869 159.445 790.062 158.041L790.065 158.039L771.838 144.045C771.823 144.034 771.807 144.019 771.792 144.007C770.592 143.091 768.583 143.093 767.268 144.014C765.936 144.945 765.786 146.484 766.967 147.456L766.962 147.458L774.565 153.643L751.387 153.667H751.356C749.442 153.67 747.6 154.927 747.235 156.514C746.862 158.132 748.163 159.473 750.155 159.483L750.153 159.49L761.901 159.466L740.937 175.557C740.911 175.579 740.882 175.598 740.858 175.617C738.882 177.13 738.243 179.65 739.486 181.244C740.751 182.864 743.438 182.867 745.438 181.251L756.878 171.889C756.878 171.889 756.711 173.154 756.723 173.913ZM786.122 178.144C783.765 180.549 780.467 181.91 776.894 181.914C773.32 181.922 770.019 180.571 767.662 178.173C766.509 177.003 765.664 175.662 765.139 174.228C764.626 172.82 764.431 171.314 764.562 169.823C764.688 168.367 765.118 166.952 765.827 165.673C766.516 164.422 767.464 163.294 768.633 162.339C770.924 160.471 773.84 159.461 776.894 159.456C779.949 159.452 782.863 160.456 785.156 162.315C786.323 163.267 787.27 164.391 787.958 165.639C788.666 166.919 789.098 168.331 789.225 169.787C789.356 171.281 789.158 172.784 788.645 174.195C788.12 175.626 787.273 176.97 786.122 178.144Z" fill="#686868"/>
</g>
<circle cx="899.717" cy="167.065" r="51.8591" fill="#1F1F1F" stroke="#343434" stroke-width="2.41205"/>
<path d="M900.005 150.729L913.864 158.685V174.675L900.044 182.68L886.194 174.743V158.763L900.005 150.729ZM900.005 139L894.922 141.932L881.082 149.966L876 152.899V180.627L881.082 183.56L894.942 191.516L900.024 194.448L905.107 191.516L918.918 183.501L924 180.569V152.801L918.918 149.869L905.068 141.932L899.985 139H900.005Z" fill="#686868"/>
<circle cx="1031.58" cy="167.065" r="51.8591" fill="#1F1F1F" stroke="#343434" stroke-width="2.41205"/>
<path d="M1031.49 167.265C1031.49 162.441 1035.4 158.51 1040.24 158.51C1045.07 158.51 1049 162.421 1049 167.265C1049 172.089 1045.09 176.02 1040.24 176.02C1035.42 176.02 1031.49 172.089 1031.49 167.265Z" fill="#686868"/>
<path d="M1014 184.755C1014 179.931 1017.91 176 1022.75 176H1031.51V184.755C1031.51 189.579 1027.6 193.51 1022.75 193.51C1017.91 193.51 1014 189.599 1014 184.755Z" fill="#686868"/>
<path d="M1031.49 141.02V158.51H1040.24C1045.07 158.51 1049 154.599 1049 149.755C1049 144.931 1045.09 141 1040.24 141H1031.49V141.02Z" fill="#686868"/>
<path d="M1014 149.775C1014 154.599 1017.91 158.53 1022.75 158.53H1031.51V141.02H1022.75C1017.91 141.02 1014 144.931 1014 149.775Z" fill="#686868"/>
<path d="M1014 167.265C1014 172.089 1017.91 176.02 1022.75 176.02H1031.51V158.51H1022.75C1017.91 158.51 1014 162.441 1014 167.265Z" fill="#686868"/>
<circle cx="1163.44" cy="167.065" r="51.8591" fill="#1F1F1F" stroke="#343434" stroke-width="2.41205"/>
<g clip-path="url(#clip5_219_34186)">
<path d="M1192.13 166.546L1189.67 165.025C1189.65 164.787 1189.63 164.548 1189.6 164.31L1191.71 162.34C1191.82 162.242 1191.9 162.118 1191.94 161.981C1191.98 161.844 1191.99 161.698 1191.96 161.557C1191.94 161.415 1191.87 161.283 1191.78 161.173C1191.69 161.064 1191.57 160.98 1191.43 160.929L1188.73 159.92C1188.67 159.687 1188.59 159.455 1188.52 159.223L1190.21 156.885C1190.29 156.768 1190.34 156.631 1190.36 156.488C1190.38 156.345 1190.36 156.2 1190.3 156.066C1190.25 155.933 1190.16 155.816 1190.04 155.727C1189.93 155.637 1189.8 155.578 1189.65 155.555L1186.81 155.092C1186.7 154.877 1186.58 154.664 1186.47 154.453L1187.66 151.828C1187.72 151.697 1187.75 151.553 1187.74 151.409C1187.73 151.265 1187.68 151.127 1187.6 151.007C1187.52 150.887 1187.41 150.789 1187.28 150.724C1187.15 150.658 1187.01 150.626 1186.86 150.632L1183.98 150.732C1183.83 150.545 1183.67 150.361 1183.52 150.179L1184.18 147.365C1184.22 147.225 1184.21 147.078 1184.17 146.939C1184.13 146.801 1184.06 146.674 1183.96 146.573C1183.86 146.471 1183.73 146.396 1183.59 146.357C1183.45 146.317 1183.31 146.314 1183.17 146.347L1180.35 147.01C1180.17 146.856 1179.98 146.703 1179.8 146.554L1179.9 143.665C1179.9 143.521 1179.87 143.378 1179.81 143.25C1179.74 143.122 1179.64 143.013 1179.52 142.933C1179.4 142.853 1179.27 142.804 1179.12 142.793C1178.98 142.781 1178.83 142.806 1178.7 142.866L1176.08 144.063C1175.87 143.946 1175.65 143.832 1175.44 143.72L1174.98 140.873C1174.95 140.731 1174.89 140.597 1174.8 140.484C1174.71 140.371 1174.6 140.283 1174.46 140.228C1174.33 140.173 1174.19 140.153 1174.04 140.169C1173.9 140.186 1173.76 140.239 1173.65 140.323L1171.31 142.007C1171.08 141.934 1170.84 141.863 1170.61 141.796L1169.6 139.096C1169.55 138.961 1169.47 138.841 1169.36 138.747C1169.25 138.654 1169.12 138.59 1168.97 138.562C1168.83 138.534 1168.69 138.543 1168.55 138.587C1168.41 138.631 1168.29 138.71 1168.19 138.815L1166.22 140.928C1165.98 140.901 1165.74 140.878 1165.51 140.858L1163.98 138.401C1163.91 138.278 1163.8 138.177 1163.68 138.107C1163.55 138.037 1163.41 138 1163.27 138C1163.12 138 1162.98 138.037 1162.85 138.107C1162.73 138.177 1162.62 138.278 1162.55 138.401L1161.03 140.858C1160.79 140.878 1160.55 140.901 1160.31 140.928L1158.34 138.815C1158.24 138.709 1158.12 138.631 1157.98 138.587C1157.84 138.542 1157.7 138.534 1157.56 138.562C1157.41 138.59 1157.28 138.654 1157.17 138.748C1157.06 138.841 1156.98 138.961 1156.93 139.096L1155.92 141.796C1155.69 141.863 1155.45 141.934 1155.22 142.007L1152.88 140.323C1152.77 140.239 1152.63 140.185 1152.49 140.169C1152.34 140.152 1152.2 140.173 1152.07 140.228C1151.93 140.283 1151.82 140.372 1151.73 140.484C1151.64 140.597 1151.58 140.731 1151.56 140.873L1151.09 143.72C1150.88 143.831 1150.66 143.946 1150.45 144.063L1147.83 142.866C1147.7 142.806 1147.55 142.781 1147.41 142.792C1147.26 142.804 1147.13 142.852 1147.01 142.933C1146.89 143.013 1146.79 143.122 1146.72 143.25C1146.66 143.378 1146.63 143.521 1146.63 143.665L1146.73 146.554C1146.55 146.704 1146.36 146.856 1146.18 147.01L1143.36 146.347C1143.22 146.315 1143.08 146.318 1142.94 146.357C1142.8 146.397 1142.67 146.471 1142.57 146.573C1142.47 146.674 1142.4 146.801 1142.36 146.939C1142.32 147.078 1142.31 147.225 1142.35 147.365L1143.01 150.179C1142.86 150.361 1142.7 150.546 1142.55 150.732L1139.67 150.632C1139.52 150.627 1139.38 150.659 1139.25 150.725C1139.12 150.79 1139.01 150.888 1138.93 151.007C1138.85 151.127 1138.8 151.265 1138.79 151.409C1138.78 151.552 1138.81 151.697 1138.87 151.828L1140.06 154.453C1139.95 154.664 1139.83 154.877 1139.72 155.092L1136.87 155.555C1136.73 155.579 1136.6 155.638 1136.48 155.727C1136.37 155.817 1136.28 155.933 1136.23 156.067C1136.17 156.2 1136.15 156.345 1136.17 156.488C1136.19 156.631 1136.24 156.768 1136.32 156.885L1138.01 159.223C1137.93 159.454 1137.86 159.686 1137.8 159.92L1135.1 160.929C1134.96 160.98 1134.84 161.064 1134.75 161.174C1134.66 161.284 1134.59 161.416 1134.56 161.557C1134.54 161.698 1134.54 161.844 1134.59 161.981C1134.63 162.118 1134.71 162.242 1134.82 162.34L1136.93 164.309C1136.9 164.547 1136.88 164.787 1136.86 165.025L1134.4 166.546C1134.28 166.622 1134.18 166.728 1134.11 166.854C1134.04 166.98 1134 167.121 1134 167.265C1134 167.559 1134.15 167.831 1134.4 167.984L1136.86 169.505C1136.88 169.744 1136.9 169.983 1136.93 170.221L1134.82 172.191C1134.71 172.289 1134.63 172.412 1134.59 172.549C1134.54 172.687 1134.53 172.833 1134.56 172.974C1134.59 173.115 1134.65 173.247 1134.75 173.357C1134.84 173.467 1134.96 173.551 1135.1 173.601L1137.8 174.61C1137.86 174.844 1137.93 175.076 1138.01 175.307L1136.32 177.646C1136.24 177.763 1136.19 177.9 1136.17 178.043C1136.15 178.186 1136.17 178.331 1136.23 178.464C1136.28 178.597 1136.37 178.714 1136.48 178.804C1136.6 178.893 1136.73 178.952 1136.87 178.975L1139.72 179.438C1139.83 179.654 1139.95 179.866 1140.06 180.078L1138.87 182.702C1138.81 182.834 1138.78 182.978 1138.79 183.122C1138.8 183.265 1138.85 183.404 1138.93 183.523C1139.01 183.643 1139.12 183.741 1139.25 183.806C1139.38 183.872 1139.52 183.904 1139.67 183.898L1142.55 183.797C1142.7 183.985 1142.85 184.169 1143.01 184.352L1142.35 187.166C1142.31 187.306 1142.32 187.453 1142.36 187.591C1142.4 187.73 1142.47 187.856 1142.57 187.957C1142.67 188.059 1142.8 188.134 1142.94 188.173C1143.08 188.212 1143.22 188.215 1143.36 188.182L1146.18 187.519C1146.36 187.675 1146.55 187.826 1146.73 187.974L1146.63 190.864C1146.63 191.008 1146.66 191.151 1146.72 191.279C1146.79 191.407 1146.89 191.517 1147.01 191.597C1147.13 191.677 1147.26 191.725 1147.41 191.736C1147.55 191.748 1147.7 191.722 1147.83 191.662L1150.45 190.466C1150.66 190.584 1150.88 190.698 1151.09 190.809L1151.56 193.654C1151.58 193.796 1151.64 193.931 1151.73 194.044C1151.82 194.157 1151.93 194.245 1152.07 194.3C1152.2 194.355 1152.34 194.375 1152.49 194.359C1152.63 194.342 1152.77 194.29 1152.88 194.206L1155.22 192.521C1155.45 192.594 1155.69 192.665 1155.92 192.733L1156.93 195.431C1156.98 195.566 1157.06 195.686 1157.17 195.779C1157.28 195.873 1157.41 195.936 1157.56 195.964C1157.7 195.993 1157.84 195.984 1157.98 195.94C1158.12 195.896 1158.24 195.817 1158.34 195.711L1160.31 193.599C1160.55 193.627 1160.79 193.65 1161.03 193.671L1162.55 196.128C1162.62 196.25 1162.73 196.351 1162.85 196.421C1162.98 196.491 1163.12 196.528 1163.27 196.528C1163.41 196.528 1163.55 196.491 1163.68 196.421C1163.8 196.351 1163.91 196.25 1163.98 196.128L1165.51 193.671C1165.74 193.65 1165.98 193.627 1166.22 193.599L1168.19 195.711C1168.29 195.817 1168.41 195.896 1168.55 195.94C1168.69 195.984 1168.83 195.992 1168.97 195.964C1169.11 195.936 1169.25 195.873 1169.36 195.779C1169.47 195.686 1169.55 195.566 1169.6 195.431L1170.61 192.733C1170.84 192.665 1171.08 192.594 1171.31 192.521L1173.65 194.206C1173.76 194.29 1173.9 194.343 1174.04 194.359C1174.19 194.376 1174.33 194.355 1174.46 194.3C1174.6 194.245 1174.71 194.156 1174.8 194.043C1174.89 193.93 1174.95 193.796 1174.97 193.654L1175.44 190.809C1175.65 190.698 1175.87 190.582 1176.08 190.466L1178.7 191.662C1178.83 191.722 1178.98 191.748 1179.12 191.736C1179.27 191.725 1179.4 191.677 1179.52 191.597C1179.64 191.517 1179.74 191.408 1179.81 191.279C1179.87 191.151 1179.9 191.008 1179.9 190.864L1179.8 187.974C1179.98 187.826 1180.17 187.674 1180.35 187.519L1183.16 188.182C1183.45 188.249 1183.75 188.166 1183.96 187.957C1184.06 187.856 1184.13 187.73 1184.17 187.591C1184.21 187.453 1184.22 187.306 1184.18 187.166L1183.52 184.352C1183.67 184.169 1183.83 183.985 1183.97 183.797L1186.86 183.898C1187.01 183.904 1187.15 183.872 1187.28 183.807C1187.41 183.741 1187.52 183.643 1187.6 183.523C1187.68 183.404 1187.72 183.265 1187.74 183.121C1187.75 182.978 1187.72 182.833 1187.66 182.702L1186.47 180.078C1186.58 179.866 1186.7 179.654 1186.81 179.438L1189.65 178.975C1189.8 178.952 1189.93 178.893 1190.04 178.803C1190.16 178.714 1190.24 178.597 1190.3 178.464C1190.35 178.331 1190.38 178.186 1190.36 178.043C1190.34 177.899 1190.29 177.763 1190.2 177.646L1188.52 175.307C1188.59 175.076 1188.66 174.844 1188.73 174.61L1191.43 173.601C1191.57 173.551 1191.69 173.467 1191.78 173.357C1191.87 173.247 1191.94 173.115 1191.96 172.974C1191.99 172.832 1191.98 172.686 1191.94 172.549C1191.9 172.412 1191.82 172.289 1191.71 172.191L1189.6 170.221C1189.63 169.983 1189.65 169.744 1189.67 169.505L1192.13 167.984C1192.25 167.908 1192.35 167.802 1192.42 167.677C1192.49 167.551 1192.53 167.409 1192.53 167.265C1192.53 166.972 1192.38 166.7 1192.13 166.546ZM1175.68 186.929C1174.74 186.727 1174.15 185.802 1174.35 184.861C1174.55 183.921 1175.47 183.323 1176.41 183.525C1177.35 183.726 1177.95 184.652 1177.75 185.592C1177.55 186.531 1176.62 187.13 1175.68 186.929ZM1174.85 181.283C1174.64 181.239 1174.43 181.236 1174.23 181.273C1174.02 181.311 1173.83 181.389 1173.65 181.502C1173.48 181.615 1173.33 181.762 1173.21 181.933C1173.09 182.105 1173.01 182.298 1172.97 182.502L1172.09 186.573C1169.4 187.794 1166.41 188.473 1163.26 188.473C1160.04 188.473 1156.99 187.761 1154.25 186.487L1153.38 182.416C1153.19 181.559 1152.35 181.014 1151.5 181.197L1147.9 181.969C1147.23 181.282 1146.61 180.55 1146.04 179.779H1163.53C1163.73 179.779 1163.86 179.743 1163.86 179.563V173.377C1163.86 173.197 1163.73 173.161 1163.53 173.161H1158.42V169.241H1163.95C1164.45 169.241 1166.65 169.385 1167.35 172.19C1167.57 173.053 1168.05 175.86 1168.38 176.758C1168.71 177.766 1170.05 179.779 1171.48 179.779H1180.19C1180.29 179.779 1180.4 179.768 1180.51 179.748C1179.9 180.569 1179.24 181.346 1178.52 182.073L1174.85 181.283ZM1150.66 186.844C1149.72 187.047 1148.8 186.448 1148.6 185.508C1148.4 184.567 1148.99 183.642 1149.93 183.44C1150.87 183.239 1151.79 183.838 1152 184.777C1152.2 185.717 1151.6 186.643 1150.66 186.844ZM1144.03 159.945C1144.42 160.823 1144.02 161.852 1143.14 162.241C1142.27 162.631 1141.24 162.234 1140.85 161.355C1140.46 160.476 1140.86 159.449 1141.73 159.059C1141.94 158.966 1142.17 158.916 1142.4 158.91C1142.62 158.904 1142.85 158.944 1143.06 159.026C1143.28 159.108 1143.47 159.232 1143.64 159.389C1143.8 159.547 1143.94 159.736 1144.03 159.945ZM1141.99 164.778L1145.73 163.114C1146.12 162.943 1146.42 162.626 1146.57 162.234C1146.72 161.841 1146.71 161.405 1146.54 161.02L1145.77 159.277H1148.8V172.946H1142.68C1142.14 171.036 1141.87 169.061 1141.87 167.076C1141.87 166.3 1141.91 165.532 1141.99 164.778ZM1158.42 163.45V159.421H1165.64C1166.01 159.421 1168.27 159.852 1168.27 161.543C1168.27 162.946 1166.54 163.449 1165.11 163.449H1158.42V163.45ZM1184.66 167.076C1184.66 167.611 1184.64 168.14 1184.6 168.665H1182.41C1182.19 168.665 1182.1 168.809 1182.1 169.025V170.033C1182.1 172.406 1180.76 172.922 1179.59 173.054C1178.47 173.179 1177.23 172.586 1177.08 171.903C1176.42 168.198 1175.33 167.406 1173.59 166.039C1175.74 164.673 1177.98 162.658 1177.98 159.96C1177.98 157.047 1175.98 155.213 1174.62 154.313C1172.71 153.054 1170.6 152.802 1170.03 152.802H1147.32C1150.4 149.366 1154.58 146.932 1159.3 146.046L1161.97 148.853C1162.12 149.004 1162.29 149.125 1162.48 149.209C1162.67 149.293 1162.87 149.339 1163.08 149.344C1163.29 149.349 1163.5 149.312 1163.69 149.237C1163.88 149.162 1164.06 149.049 1164.21 148.905L1167.21 146.041C1173.48 147.209 1178.79 151.115 1181.85 156.473L1179.8 161.104C1179.45 161.905 1179.81 162.842 1180.61 163.197L1184.56 164.95C1184.63 165.651 1184.66 166.359 1184.66 167.076ZM1161.97 143.657C1162.67 142.993 1163.77 143.02 1164.43 143.714C1165.09 144.41 1165.07 145.511 1164.37 146.175C1163.68 146.839 1162.58 146.814 1161.92 146.118C1161.6 145.784 1161.42 145.337 1161.44 144.876C1161.45 144.414 1161.64 143.976 1161.97 143.657ZM1182.32 160.029C1182.41 159.82 1182.54 159.632 1182.71 159.474C1182.87 159.317 1183.07 159.193 1183.28 159.111C1183.49 159.029 1183.72 158.989 1183.95 158.995C1184.18 159.001 1184.4 159.051 1184.61 159.144C1185.49 159.533 1185.88 160.562 1185.49 161.44C1185.4 161.649 1185.27 161.838 1185.1 161.995C1184.94 162.153 1184.74 162.277 1184.53 162.359C1184.32 162.441 1184.09 162.481 1183.86 162.475C1183.63 162.469 1183.41 162.419 1183.2 162.326C1182.32 161.937 1181.93 160.909 1182.32 160.029Z" fill="#686868"/>
</g>
<g style="mix-blend-mode:overlay" opacity="0.7">
<rect x="-1" y="245" width="1271" height="15" fill="#4B2E24"/>
</g>
</g>
<rect x="2" y="2" width="1268" height="258.13" rx="8" stroke="#363535" stroke-width="3"/>
<defs>
<filter id="filter0_d_219_34186" x="521.736" y="36.752" width="227.631" height="41.6909" filterUnits="userSpaceOnUse" color-interpolation-filters="sRGB">
<feFlood flood-opacity="0" result="BackgroundImageFix"/>
<feColorMatrix in="SourceAlpha" type="matrix" values="0 0 0 0 0 0 0 0 0 0 0 0 0 0 0 0 0 0 127 0" result="hardAlpha"/>
<feOffset dy="9.37085"/>
<feComposite in2="hardAlpha" operator="out"/>
<feColorMatrix type="matrix" values="0 0 0 0 0.0313726 0 0 0 0 0.00784314 0 0 0 0 0.0235294 0 0 0 1 0"/>
<feBlend mode="normal" in2="BackgroundImageFix" result="effect1_dropShadow_219_34186"/>
<feBlend mode="normal" in="SourceGraphic" in2="effect1_dropShadow_219_34186" result="shape"/>
</filter>
<linearGradient id="paint0_linear_219_34186" x1="314" y1="52" x2="540" y2="52" gradientUnits="userSpaceOnUse">
<stop stop-color="#595959" stop-opacity="0"/>
<stop offset="1" stop-color="#595959"/>
</linearGradient>
<linearGradient id="paint1_linear_219_34186" x1="958" y1="52" x2="793" y2="52" gradientUnits="userSpaceOnUse">
<stop stop-color="#595959" stop-opacity="0"/>
<stop offset="1" stop-color="#595959"/>
</linearGradient>
<clipPath id="clip0_219_34186">
<rect x="2" y="2" width="1268" height="258.13" rx="8" fill="white"/>
</clipPath>
<clipPath id="clip1_219_34186">
<rect width="56.6173" height="56.6173" fill="white" transform="translate(347 143)"/>
</clipPath>
<clipPath id="clip2_219_34186">
<rect width="61.2954" height="69.8444" fill="white" transform="translate(473 131.99)"/>
</clipPath>
<clipPath id="clip3_219_34186">
<rect width="49.9349" height="49.9349" fill="white" transform="translate(611.076 142.141)"/>
</clipPath>
<clipPath id="clip4_219_34186">
<rect width="59.4948" height="47.6434" fill="white" transform="translate(738 143.091)"/>
</clipPath>
<clipPath id="clip5_219_34186">
<rect width="58.527" height="58.527" fill="white" transform="translate(1134 138)"/>
</clipPath>
</defs>
</svg>
