<svg width="623" height="623" viewBox="0 0 623 623" fill="none" xmlns="http://www.w3.org/2000/svg">
<path d="M618.591 303.486L592.477 287.32C592.256 284.782 592.008 282.247 591.733 279.714L614.176 258.781C615.298 257.738 616.134 256.425 616.604 254.967C617.074 253.51 617.163 251.955 616.861 250.454C616.566 248.951 615.891 247.549 614.899 246.381C613.908 245.214 612.634 244.321 611.199 243.786L582.509 233.058C581.789 230.581 581.039 228.112 580.262 225.652L598.158 200.796C599.054 199.554 599.618 198.103 599.796 196.581C599.973 195.059 599.759 193.517 599.173 192.102C598.587 190.686 597.649 189.444 596.447 188.493C595.246 187.542 593.821 186.914 592.309 186.669L562.057 181.749C560.881 179.455 559.656 177.195 558.422 174.955L571.133 147.052C571.772 145.66 572.044 144.127 571.922 142.599C571.799 141.072 571.286 139.601 570.433 138.329C569.586 137.052 568.425 136.015 567.062 135.316C565.698 134.618 564.178 134.281 562.647 134.339L531.943 135.408C530.358 133.422 528.741 131.461 527.093 129.525L534.15 99.6183C534.503 98.1267 534.468 96.5696 534.048 95.0953C533.629 93.6211 532.839 92.2787 531.754 91.1963C530.671 90.1127 529.33 89.3237 527.857 88.9044C526.383 88.4851 524.828 88.4493 523.337 88.8004L493.437 95.8495C491.496 94.2039 489.531 92.587 487.542 90.9995L488.616 60.2978C488.673 58.7672 488.337 57.2475 487.64 55.884C486.942 54.5205 485.906 53.3588 484.631 52.51C483.358 51.6577 481.888 51.1455 480.361 51.0222C478.834 50.8988 477.301 51.1684 475.908 51.8054L448.012 64.5234C445.762 63.2815 443.498 62.0665 441.219 60.8786L436.286 30.6216C436.039 29.1107 435.41 27.688 434.46 26.4881C433.509 25.2882 432.267 24.351 430.853 23.7652C429.439 23.1794 427.898 22.9645 426.377 23.1409C424.857 23.3172 423.406 23.879 422.163 24.7729L397.291 42.669C394.844 41.8914 392.383 41.1406 389.899 40.4286L379.171 11.7341C378.638 10.2966 377.744 9.01991 376.577 8.02614C375.409 7.03237 374.006 6.35469 372.501 6.05785C371 5.7625 369.449 5.85424 367.993 6.32443C366.538 6.79462 365.226 7.62776 364.181 8.74531L343.248 31.2048C340.716 30.9211 338.181 30.6732 335.642 30.4612L319.476 4.33992C318.671 3.0383 317.546 1.96405 316.209 1.21905C314.872 0.474051 313.366 0.0830078 311.835 0.0830078C310.305 0.0830078 308.799 0.474051 307.462 1.21905C306.125 1.96405 305 3.0383 304.195 4.33992L288.029 30.4612C285.488 30.6729 282.95 30.9208 280.416 31.2048L259.477 8.74531C258.434 7.62361 257.121 6.7876 255.663 6.31683C254.205 5.84606 252.651 5.75618 251.148 6.05575C249.646 6.35532 248.245 7.03437 247.079 8.02829C245.913 9.02221 245.021 10.2979 244.487 11.7341L233.762 40.4286C231.276 41.1406 228.817 41.8963 226.363 42.669L201.495 24.7729C200.253 23.8748 198.801 23.3106 197.279 23.134C195.756 22.9575 194.214 23.1745 192.799 23.7645C191.385 24.3515 190.145 25.2893 189.195 26.4891C188.244 27.6889 187.616 29.1112 187.368 30.6216L182.435 60.8786C180.151 62.0619 177.894 63.2793 175.641 64.5234L147.744 51.8029C146.351 51.1656 144.819 50.896 143.292 51.0198C141.766 51.1436 140.297 51.6567 139.025 52.51C137.75 53.3582 136.713 54.5196 136.014 55.8832C135.315 57.2468 134.979 58.7668 135.036 60.2978L136.105 90.9995C134.118 92.5899 132.153 94.2068 130.21 95.8495L100.31 88.8029C98.8185 88.4534 97.2625 88.4897 95.7889 88.9085C94.3154 89.3273 92.9728 90.1146 91.888 91.1963C90.8028 92.2787 90.0129 93.6211 89.5935 95.0953C89.1741 96.5696 89.1392 98.1267 89.4922 99.6183L96.5364 129.525C94.9011 131.462 93.2852 133.423 91.6985 135.408L60.9944 134.339C59.4654 134.291 57.9491 134.631 56.5875 135.329C55.2258 136.026 54.0634 137.057 53.2091 138.326C52.357 139.599 51.8448 141.069 51.721 142.596C51.5972 144.123 51.8661 145.656 52.502 147.05L65.22 174.955C63.9832 177.195 62.761 179.455 61.5752 181.749L31.3255 186.669C29.8138 186.916 28.3902 187.544 27.1896 188.495C25.9891 189.446 25.0514 190.688 24.4655 192.103C23.8797 193.519 23.665 195.06 23.842 196.581C24.019 198.103 24.5817 199.554 25.4767 200.796L43.3729 225.654C42.5953 228.108 41.8396 230.572 41.1252 233.058L12.4331 243.786C11.0002 244.324 9.72836 245.219 8.73795 246.386C7.74754 247.554 7.07131 248.954 6.77328 250.455C6.47524 251.957 6.56525 253.509 7.03478 254.966C7.50431 256.423 8.33784 257.736 9.45648 258.781L31.9014 279.712C31.6219 282.239 31.3741 284.783 31.1602 287.32L5.04137 303.486C3.73995 304.292 2.66612 305.417 1.92188 306.754C1.17763 308.092 0.787681 309.597 0.789066 311.128C0.789066 314.248 2.40008 317.137 5.0438 318.765L31.1602 334.931C31.3741 337.475 31.6219 340.015 31.9014 342.539L9.45405 363.478C8.33342 364.521 7.49813 365.834 7.02748 367.291C6.55683 368.748 6.46645 370.301 6.76492 371.803C7.0634 373.305 7.74082 374.705 8.73285 375.872C9.72489 377.038 10.9986 377.932 12.4331 378.468L41.1252 389.195C41.8396 391.679 42.5953 394.145 43.3729 396.599L25.4767 421.46C24.58 422.702 24.0161 424.153 23.8387 425.675C23.6613 427.198 23.8763 428.74 24.4633 430.155C25.0502 431.571 25.9896 432.812 27.192 433.762C28.3944 434.712 29.8199 435.339 31.3328 435.582L61.5776 440.503C62.7609 442.796 63.9735 445.056 65.2224 447.306L52.502 475.201C51.8649 476.595 51.5955 478.128 51.7192 479.655C51.843 481.182 52.3559 482.652 53.2091 483.925C54.0573 485.2 55.2185 486.236 56.5815 486.934C57.9446 487.632 59.464 487.969 60.9944 487.912L91.6839 486.838C93.2852 488.833 94.8962 490.789 96.5364 492.733L89.4922 522.645C89.1394 524.134 89.1745 525.688 89.594 527.16C90.0134 528.631 90.8033 529.971 91.888 531.05C92.9697 532.136 94.3123 532.926 95.787 533.344C97.2617 533.763 98.8192 533.795 100.31 533.439L130.21 526.397C132.154 528.049 134.122 529.653 136.107 531.232L135.038 561.944C134.983 563.474 135.32 564.993 136.018 566.356C136.715 567.719 137.75 568.881 139.023 569.732C140.297 570.582 141.766 571.092 143.293 571.215C144.819 571.337 146.352 571.066 147.744 570.429L175.641 557.718C177.888 558.966 180.153 560.18 182.435 561.36L187.368 591.6C187.612 593.113 188.239 594.538 189.189 595.74C190.14 596.941 191.383 597.88 192.799 598.465C194.214 599.051 195.756 599.267 197.277 599.091C198.799 598.915 200.251 598.354 201.495 597.461L226.351 579.553C228.805 580.331 231.271 581.091 233.755 581.805L244.483 610.488C245.017 611.923 245.91 613.198 247.078 614.19C248.245 615.181 249.647 615.857 251.15 616.152C252.651 616.455 254.205 616.367 255.663 615.896C257.12 615.425 258.432 614.588 259.473 613.464L280.411 591.017C282.938 591.309 285.48 591.552 288.024 591.778L304.19 617.894C304.996 619.194 306.121 620.266 307.457 621.01C308.793 621.754 310.297 622.145 311.827 622.146C313.357 622.146 314.862 621.755 316.199 621.011C317.537 620.267 318.662 619.194 319.469 617.894L335.635 591.778C338.179 591.552 340.718 591.309 343.243 591.017L364.176 613.464C365.217 614.587 366.529 615.424 367.986 615.894C369.442 616.365 370.996 616.454 372.496 616.152C373.999 615.856 375.401 615.18 376.568 614.188C377.735 613.197 378.629 611.923 379.164 610.488L389.892 581.805C392.375 581.091 394.844 580.331 397.298 579.553L422.158 597.461C423.402 598.355 424.854 598.917 426.375 599.092C427.897 599.268 429.438 599.052 430.852 598.465C432.267 597.878 433.508 596.939 434.458 595.738C435.408 594.536 436.036 593.112 436.281 591.6L441.214 561.36C443.495 560.177 445.753 558.948 448.005 557.716L475.903 570.429C477.295 571.068 478.828 571.34 480.355 571.219C481.883 571.098 483.353 570.588 484.628 569.737C485.902 568.886 486.937 567.723 487.634 566.359C488.332 564.995 488.668 563.475 488.611 561.944L487.542 531.235C489.53 529.653 491.493 528.04 493.43 526.397L523.332 533.439C526.369 534.153 529.552 533.268 531.746 531.05C532.831 529.971 533.621 528.631 534.041 527.16C534.46 525.688 534.495 524.134 534.142 522.645L527.101 492.733C528.741 490.789 530.357 488.833 531.936 486.838L562.64 487.912C564.17 487.97 565.69 487.634 567.053 486.936C568.416 486.238 569.577 485.202 570.425 483.927C571.28 482.654 571.793 481.183 571.916 479.655C572.039 478.126 571.768 476.592 571.128 475.199L558.414 447.309C559.656 445.056 560.876 442.796 562.052 440.505L592.304 435.582C593.817 435.339 595.241 434.712 596.442 433.761C597.643 432.809 598.579 431.566 599.161 430.149C599.748 428.735 599.963 427.194 599.787 425.673C599.61 424.152 599.048 422.702 598.153 421.46L580.257 396.602C581.029 394.145 581.785 391.679 582.504 389.195L611.192 378.468C612.628 377.933 613.903 377.04 614.894 375.872C615.886 374.704 616.561 373.301 616.856 371.797C617.158 370.297 617.07 368.743 616.599 367.286C616.129 365.829 615.292 364.518 614.168 363.478L591.728 342.539C592 340.012 592.251 337.47 592.469 334.934L618.586 318.765C619.888 317.961 620.962 316.837 621.707 315.5C622.452 314.163 622.842 312.658 622.841 311.128C622.841 308.015 621.237 305.121 618.591 303.486ZM443.804 520.125C433.832 517.975 427.49 508.146 429.63 498.142C431.764 488.15 441.585 481.791 451.555 483.942C461.528 486.078 467.879 495.923 465.741 505.908C463.603 515.895 453.771 522.261 443.804 520.125ZM434.93 460.109C432.766 459.645 430.532 459.612 428.355 460.013C426.179 460.413 424.102 461.238 422.245 462.441C420.388 463.645 418.786 465.202 417.531 467.025C416.276 468.848 415.393 470.901 414.932 473.066L405.66 516.335C377.048 529.32 345.277 536.534 311.815 536.534C277.587 536.534 245.124 528.963 216.004 515.423L206.737 472.157C204.788 463.052 195.836 457.252 186.744 459.205L148.546 467.409C141.447 460.102 134.848 452.325 128.796 444.13H314.658C316.76 444.13 318.162 443.749 318.162 441.834V376.089C318.162 374.176 316.76 373.795 314.655 373.795H260.301V332.122H319.092C324.458 332.122 347.787 333.653 355.244 363.473C357.582 372.643 362.709 402.472 366.218 412.022C369.712 422.733 383.939 444.128 399.101 444.128H491.716C492.769 444.128 493.891 444.009 495.075 443.795C488.649 452.522 481.609 460.78 474.01 468.507L434.93 460.109ZM177.872 519.221C167.897 521.374 158.078 515.015 155.933 505.023C153.799 495.015 160.141 485.191 170.113 483.04C180.088 480.907 189.912 487.266 192.05 497.255C194.184 507.242 187.839 517.083 177.872 519.221ZM107.364 233.32C111.502 242.656 107.291 253.598 97.9676 257.729C88.6441 261.872 77.7315 257.656 73.5958 248.313C69.4577 238.97 73.6663 228.048 82.9922 223.905C85.2103 222.921 87.6006 222.384 90.0264 222.325C92.4522 222.265 94.8659 222.685 97.1295 223.559C99.393 224.433 101.462 225.745 103.218 227.42C104.974 229.094 106.383 231.101 107.364 233.32ZM85.6942 284.688L125.486 267.006C129.571 265.189 132.767 261.824 134.373 257.652C135.979 253.479 135.862 248.84 134.049 244.753L125.855 226.223H158.085V371.501H93.0592C87.2951 351.209 84.3789 330.215 84.3942 309.121C84.3942 300.864 84.8389 292.707 85.6942 284.688ZM260.311 270.578V227.756H337.061C341.027 227.756 365.054 232.339 365.054 250.305C365.054 265.223 346.625 270.571 331.47 270.571H260.311V270.578ZM539.243 309.121C539.243 314.802 539.034 320.425 538.618 326.004H515.284C512.949 326.004 512.008 327.539 512.008 329.826V340.542C512.008 365.764 497.786 371.251 485.323 372.648C473.456 373.984 460.296 367.679 458.675 360.416C451.672 321.037 440.006 312.627 421.583 298.094C444.448 283.575 468.236 262.156 468.236 233.483C468.236 202.527 447.014 183.027 432.546 173.465C412.252 160.086 389.78 157.403 383.718 157.403H142.401C175.124 120.882 219.474 95.0112 269.634 85.5978L298.079 115.437C299.605 117.039 301.432 118.324 303.455 119.218C305.478 120.113 307.658 120.6 309.87 120.651C312.082 120.702 314.282 120.316 316.344 119.515C318.407 118.715 320.291 117.516 321.889 115.986L353.716 85.5444C420.404 97.9611 476.867 139.473 509.406 196.427L487.617 245.64C483.856 254.157 487.695 264.117 496.187 267.891L538.137 286.523C538.861 293.971 539.243 301.493 539.243 309.121ZM298.091 60.2128C305.461 53.154 317.151 53.4334 324.207 60.813C331.249 68.2144 330.982 79.9168 323.595 86.9707C316.225 94.032 304.535 93.7574 297.478 86.3633C294.097 82.8116 292.263 78.0638 292.378 73.1614C292.493 68.259 294.547 63.6023 298.091 60.2128ZM514.31 234.217C515.29 231.998 516.698 229.994 518.454 228.319C520.21 226.645 522.279 225.334 524.542 224.46C526.805 223.586 529.219 223.167 531.644 223.227C534.069 223.287 536.459 223.824 538.677 224.809C548.002 228.944 552.211 239.881 548.073 249.217C547.093 251.437 545.685 253.442 543.929 255.118C542.173 256.793 540.104 258.105 537.84 258.98C535.576 259.855 533.162 260.274 530.736 260.215C528.31 260.155 525.919 259.617 523.701 258.633C514.387 254.495 510.179 243.567 514.31 234.217Z" fill="#686868"/>
</svg>
