<svg width="573" height="544" viewBox="0 0 573 544" fill="none" xmlns="http://www.w3.org/2000/svg">
<path d="M396.636 379.543C417.727 377.359 433.728 359.177 433.001 337.355C432.275 315.536 414.09 298.079 392.271 298.079H390.818C368.269 298.807 350.814 317.717 351.542 340.265C352.27 351.175 356.632 360.63 363.178 367.176C338.45 415.909 300.63 451.548 243.899 481.369C205.351 501.735 165.35 509.009 125.348 503.919C92.6184 499.554 67.1623 485.008 51.159 461.004C27.8864 425.365 25.7052 386.814 45.3431 348.266C59.1629 320.627 80.9799 300.261 94.7997 290.078C91.8906 280.623 87.5259 264.622 85.3446 252.985C-20.1167 329.356 -9.206 432.638 22.7961 481.369C46.7965 517.738 95.5275 540.285 149.349 540.285C163.894 540.285 178.44 538.83 192.987 535.195C286.084 517.011 356.635 461.731 396.636 379.543ZM524.644 289.352C469.367 224.618 387.909 188.979 294.812 188.979H283.175C276.629 175.887 262.81 167.158 247.536 167.158H246.081C223.536 167.885 206.081 186.796 206.807 209.345C207.535 231.164 225.717 248.621 247.536 248.621H248.99C264.991 247.893 278.811 237.71 284.629 223.89H297.721C352.998 223.89 405.363 239.891 452.641 271.168C489.005 295.17 515.189 326.447 529.735 364.267C542.099 394.816 541.371 424.637 528.279 450.095C507.916 488.643 473.732 509.737 428.638 509.737C399.545 509.737 371.908 501.007 357.36 494.461C349.361 501.735 334.813 513.371 324.63 520.647C355.907 535.193 387.909 543.194 418.455 543.194C488.278 543.194 539.918 504.644 559.556 466.096C580.647 423.909 579.191 351.175 524.644 289.352ZM155.167 391.905C155.895 413.726 174.077 431.18 195.896 431.18H197.352C219.899 430.455 237.353 411.542 236.626 388.995C235.9 367.174 217.715 349.72 195.896 349.72H194.443C192.987 349.72 190.804 349.72 189.353 350.445C159.532 300.986 147.168 247.165 151.532 188.977C154.439 145.336 168.987 107.514 194.443 76.2372C215.534 49.3254 256.264 36.2334 283.903 35.5079C360.997 34.0522 393.725 130.061 395.908 168.611C405.363 170.792 421.364 175.885 432.275 179.522C423.546 61.694 350.814 0.59668 280.994 0.59668C215.534 0.59668 155.167 47.8742 131.164 117.699C97.7087 210.798 119.528 300.261 160.257 370.813C156.623 375.903 154.439 383.903 155.167 391.905Z" fill="#686868"/>
</svg>
